<svg width="47" height="45" viewBox="0 0 47 45" fill="none" xmlns="http://www.w3.org/2000/svg">
<path d="M0.814277 44.9991C0.181125 44.6942 -0.00269352 44.1883 2.9715e-05 43.5173C0.0177307 38.7203 0.00956103 33.922 0.00956103 29.1237C0.00956103 28.0493 0.373113 27.6951 1.48011 27.6938C2.68786 27.6925 3.89561 27.6885 5.10337 27.6951C6.02382 27.7005 6.4255 28.0986 6.4255 28.9986C6.42686 33.8554 6.41869 38.7123 6.43639 43.5692C6.43912 44.2322 6.22943 44.7089 5.61534 44.9978H0.814277V44.9991Z" fill="#3E1A51"/>
<path d="M9.20527 40.6726V40.1325C9.20527 36.5488 9.21238 32.9652 9.19532 29.3815C9.1939 29.014 9.32039 28.8441 9.6487 28.6949C11.1168 28.029 12.5779 27.3479 14.0318 26.6503C16.6696 25.3848 19.4538 24.9496 22.3772 25.1375C24.546 25.277 26.7205 25.324 28.8936 25.3972C29.9623 25.4332 30.7284 26.0231 30.8236 26.9224C30.9231 27.8522 30.2935 28.6093 29.229 28.811C27.4524 29.1467 25.6759 29.4755 23.8965 29.7987C21.9423 30.1538 21.0654 32.0547 21.9423 33.7844C22.8107 35.4975 24.0671 36.2628 26.0582 36.057C27.8404 35.8719 29.6482 35.9354 31.4347 35.7779C33.4102 35.6025 35.1626 34.8081 36.7075 33.6034C39.0284 31.7909 41.3279 29.9535 43.663 28.1575C44.0254 27.8784 44.51 27.6643 44.9634 27.6049C45.7749 27.4999 46.4585 27.9959 46.7627 28.7446C47.0469 29.4465 46.8707 30.1717 46.2354 30.6912C44.7772 31.8848 43.3063 33.0633 41.8381 34.2444C40.4908 35.3276 39.1747 36.4521 37.7819 37.4758C34.8286 39.6448 31.466 40.4599 27.7893 40.2513C24.0941 40.0413 20.3946 39.9004 16.6966 39.7373C14.6642 39.6475 12.6859 40.0427 10.7047 40.4088C10.2286 40.4972 9.75245 40.5773 9.20527 40.6726Z" fill="#3E1A51"/>
<path d="M32.7288 3.14453C38.6648 3.14183 43.4982 7.71689 43.491 13.3325C43.4839 18.936 38.6619 23.4975 32.7417 23.5016C26.8101 23.5043 21.9781 18.9279 21.9824 13.3095C21.9853 7.6993 26.7987 3.14724 32.7288 3.14453ZM33.4724 8.68982C34.3905 8.68982 35.2156 8.69117 36.0393 8.68982C36.4025 8.68982 36.597 8.54638 36.5927 8.29334C36.5884 8.03623 36.4054 7.90768 36.0279 7.90768C33.8328 7.90768 31.6392 7.90768 29.4441 7.90768C29.0723 7.90768 28.8822 8.03894 28.8779 8.29198C28.8736 8.54503 29.0666 8.68846 29.4298 8.68982C30.0733 8.69252 30.7168 8.67899 31.3603 8.69523C32.5358 8.72635 33.5854 9.61268 33.7456 10.7128C33.6183 10.7128 33.4953 10.7128 33.3709 10.7128C32.0382 10.7128 30.7054 10.7128 29.3726 10.7128C29.0924 10.7128 28.8879 10.8183 28.885 11.0998C28.8822 11.3813 29.0824 11.4949 29.3641 11.4949C29.6286 11.4949 29.8932 11.4949 30.1563 11.4949C31.3503 11.4949 32.5444 11.4949 33.7399 11.4949C33.6312 12.5896 32.5673 13.4868 31.3503 13.5139C30.6954 13.5287 30.0405 13.5193 29.3855 13.5179C29.1238 13.5179 28.9022 13.6072 28.8965 13.8643C28.8936 14.0105 29.008 14.1931 29.1281 14.3014C30.6897 15.7128 32.2627 17.1146 33.8328 18.5179C33.8743 18.5558 33.9143 18.595 33.9615 18.6261C34.1588 18.756 34.3876 18.7642 34.5063 18.5734C34.585 18.4462 34.5592 18.2351 34.5192 18.0754C34.4935 17.9766 34.3533 17.9022 34.2618 17.8196C33.0434 16.7276 31.8251 15.6383 30.6067 14.5463C30.5367 14.4841 30.4737 14.4151 30.3479 14.2906C32.6216 14.4475 34.1059 13.6194 34.6408 11.4949C35.1084 11.4949 35.5774 11.4976 36.0479 11.4949C36.4039 11.4922 36.6141 11.3407 36.5884 11.089C36.5584 10.7872 36.3382 10.7074 36.0507 10.7101C35.5703 10.7155 35.0912 10.7114 34.6079 10.7114C34.4706 9.92796 34.1217 9.28115 33.4696 8.68846L33.4724 8.68982Z" fill="#FFC127"/>
<path d="M43.6966 0C43.8768 0.196209 44.0584 0.305816 44.0984 0.450605C44.4531 1.75235 45.3082 2.55613 46.6781 2.89984C46.8197 2.93502 47.0013 3.14882 46.9999 3.27873C46.9999 3.40863 46.8154 3.61837 46.6724 3.65355C45.3154 3.9932 44.4574 4.78751 44.1142 6.07572C44.057 6.28953 43.934 6.4289 43.6866 6.42349C43.4392 6.41808 43.332 6.26787 43.2762 6.05543C42.9988 4.99184 42.3281 4.23948 41.257 3.81999C41.0783 3.74963 40.8652 3.74422 40.7036 3.6522C40.5663 3.57372 40.3876 3.40863 40.3947 3.29226C40.4033 3.15288 40.5678 2.93773 40.7065 2.9039C42.095 2.56155 42.9516 1.74694 43.3034 0.431661C43.3405 0.294991 43.5164 0.19215 43.6966 0Z" fill="#FFC127"/>
<path d="M18.6736 21.3871C18.4805 21.1761 18.2989 21.0651 18.2589 20.9203C17.9043 19.6199 17.052 18.8134 15.6792 18.4724C15.5376 18.4372 15.356 18.2234 15.3574 18.0935C15.3574 17.9636 15.5419 17.7539 15.6849 17.7187C17.0434 17.3804 17.8985 16.5834 18.2446 15.2952C18.3018 15.0814 18.4248 14.942 18.6722 14.9474C18.9196 14.9528 19.0282 15.103 19.0826 15.3155C19.3142 16.2302 19.8562 16.9325 20.7328 17.3804C21.0016 17.5184 21.3019 17.6077 21.5965 17.693C21.8167 17.7566 21.9812 17.8473 21.9869 18.0814C21.994 18.3317 21.8282 18.4372 21.5894 18.4954C20.2609 18.8229 19.4286 19.6199 19.0697 20.8756C19.0254 21.0326 18.8552 21.1585 18.675 21.3844L18.6736 21.3871Z" fill="#FFC127"/>
<path d="M33.4726 8.69093C34.1247 9.28362 34.4736 9.93044 34.6109 10.7139C35.0928 10.7139 35.5733 10.718 36.0538 10.7126C36.3412 10.7085 36.56 10.7883 36.5915 11.0915C36.6172 11.3431 36.4084 11.4947 36.0509 11.4974C35.5805 11.5001 35.1114 11.4974 34.6438 11.4974C34.109 13.6219 32.6247 14.45 30.351 14.293C30.4754 14.4175 30.5397 14.4866 30.6098 14.5488C31.8282 15.6408 33.0465 16.7315 34.2649 17.8221C34.3564 17.9047 34.4965 17.9777 34.5223 18.0779C34.5637 18.2375 34.5895 18.4486 34.5094 18.5758C34.3921 18.7666 34.1633 18.7571 33.9646 18.6286C33.9174 18.5975 33.8773 18.5582 33.8359 18.5203C32.2657 17.1171 30.6927 15.7152 29.1312 14.3039C29.0111 14.1956 28.8967 14.0116 28.8995 13.8668C28.9052 13.6097 29.1269 13.519 29.3886 13.5204C30.0435 13.5231 30.6985 13.5312 31.3534 13.5163C32.5703 13.4893 33.6328 12.5935 33.7429 11.4974C32.5474 11.4974 31.3534 11.4974 30.1593 11.4974C29.8948 11.4974 29.6302 11.4974 29.3671 11.4974C29.0854 11.4974 28.8852 11.3824 28.8881 11.1023C28.8909 10.8208 29.0954 10.7139 29.3757 10.7153C30.7085 10.7153 32.0412 10.7153 33.374 10.7153C33.497 10.7153 33.6214 10.7153 33.7486 10.7153C33.5885 9.61515 32.5389 8.72882 31.3634 8.6977C30.7199 8.68011 30.0764 8.69499 29.4329 8.69229C29.0711 8.69093 28.8766 8.5475 28.8809 8.29446C28.8852 8.04277 29.0754 7.91016 29.4472 7.91016C31.6423 7.91016 33.8359 7.91016 36.0309 7.91016C36.4084 7.91016 36.5915 8.03871 36.5958 8.29581C36.6001 8.54885 36.4056 8.69093 36.0424 8.69229C35.2187 8.69499 34.3936 8.69229 33.4755 8.69229L33.4726 8.69093Z" fill="white"/>
</svg>
