<svg width="51" height="46" viewBox="0 0 51 46" fill="none" xmlns="http://www.w3.org/2000/svg">
<g clip-path="url(#clip0_9050_539)">
<path d="M14.4496 1.6911V0.00390625H23.7524C23.7524 0.209143 23.7524 0.41438 23.7524 0.618202C23.7524 4.36201 23.7524 8.10723 23.7524 11.851C23.7524 12.8348 23.9946 13.0768 24.9893 13.0782C28.1551 13.081 31.3194 13.081 34.4852 13.0782C35.4713 13.0782 35.7235 12.8234 35.725 11.8454C35.7264 8.11856 35.725 4.39173 35.725 0.664911C35.725 0.456843 35.725 0.24736 35.725 0.00390625H45.045V0.568662C45.045 8.72861 45.0421 16.8885 45.0537 25.0485C45.0537 25.4335 44.9383 25.6288 44.5909 25.8213C42.2642 27.1193 39.9576 28.4554 37.6337 29.759C37.3684 29.9077 37.0325 29.994 36.7269 30.0025C35.6327 30.0308 34.5385 30.0138 33.4054 30.0138C33.2396 28.9183 32.7163 28.0534 31.8254 27.4377C31.4938 27.2084 31.1147 26.982 30.7269 26.9084C27.7514 26.3422 24.9215 25.3146 22.0743 24.3394C21.3809 24.1016 20.6716 23.8978 19.9566 23.735C18.1849 23.333 16.5832 23.8595 15.0436 24.6677C14.872 24.7583 14.6962 24.8418 14.4641 24.9579V19.6854C15.0176 19.9232 15.5424 20.1327 16.0498 20.3762C16.3136 20.5021 16.4838 20.4894 16.7 20.2714C17.7048 19.2594 18.7226 18.2615 19.7505 17.2735C19.9537 17.0782 19.9854 16.9154 19.8485 16.6791C19.7346 16.4809 19.6913 16.236 19.5573 16.0563C19.0527 15.3854 19.2329 14.7357 19.6077 14.1044C19.7014 13.9459 19.9177 13.8383 20.1008 13.7562C20.588 13.5382 21.2757 13.4731 21.5294 13.1079C21.7846 12.7428 21.6202 12.0888 21.6246 11.5623C21.6318 10.5729 21.6145 9.58352 21.6332 8.59556C21.639 8.29973 21.551 8.13696 21.2613 8.05628C21.0378 7.99541 20.8302 7.86095 20.6039 7.82415C19.7678 7.68968 19.4448 7.09237 19.2387 6.39457C19.1998 6.2601 19.2243 6.086 19.2776 5.95295C19.4419 5.54389 19.6178 5.13625 19.8225 4.74418C19.9653 4.47241 19.9609 4.29124 19.7173 4.06052C18.6966 3.08954 17.6947 2.10016 16.7014 1.10228C16.4895 0.888549 16.3252 0.857409 16.0542 0.99046C15.5597 1.23533 15.0421 1.43349 14.4453 1.68968L14.4496 1.6911Z" fill="#F7C531"/>
<path d="M13.3488 38.6391C11.7414 35.8507 10.1527 33.0948 8.54102 30.2993C9.77215 29.5987 10.9615 28.9136 12.1595 28.2427C13.5795 27.4487 14.9951 26.6447 16.4339 25.886C17.7169 25.2095 19.0706 25.1288 20.4545 25.586C22.5968 26.2937 24.7318 27.0269 26.887 27.7006C27.8774 28.0106 28.9009 28.2187 29.9144 28.4494C31.1585 28.7325 31.8808 29.6681 31.6386 30.7169C31.3834 31.8195 30.4103 32.3546 29.11 32.0361C27.2301 31.5747 25.3618 31.0651 23.4877 30.5754C23.3666 30.5442 23.2455 30.5088 23.1229 30.4791C22.5593 30.3432 22.0965 30.5754 21.9725 31.0524C21.8529 31.5124 22.108 31.9582 22.6443 32.0927C25.1643 32.724 27.6756 33.3991 30.2186 33.9299C32.0307 34.3078 33.7779 33.9653 35.4026 33.0198C38.5237 31.2024 41.6549 29.3991 44.8149 27.6483C45.775 27.1161 46.8361 26.7594 47.8683 26.3616C48.158 26.2498 48.504 26.2526 48.8255 26.2498C49.9427 26.2399 50.6419 26.7226 50.9029 27.6525C51.1897 28.673 50.8452 29.5605 49.9355 30.1111C44.2469 33.5548 38.5569 37 32.8654 40.4381C31.2421 41.419 29.5511 41.7006 27.6597 41.1727C23.6722 40.0587 19.6501 39.0637 15.6496 37.9908C15.0773 37.8365 14.6044 37.8676 14.1302 38.2045C13.9009 38.3659 13.6386 38.4805 13.3502 38.6391H13.3488Z" fill="#3E1A51"/>
<path d="M19.9021 10.7108C19.9021 12.0002 19.9064 12.0087 18.6782 12.4617C18.3812 12.5706 18.2255 12.7178 18.1289 13.0278C17.9603 13.5643 17.7527 14.0979 17.4788 14.589C17.2827 14.9387 17.2712 15.209 17.4398 15.5614C17.9545 16.6386 17.943 16.6471 17.0866 17.4808C16.7435 17.8148 16.4278 18.3201 16.0227 18.4079C15.6508 18.4885 15.1851 18.088 14.7426 17.9535C14.5523 17.8955 14.3014 17.9295 14.1068 18.0002C13.5359 18.2097 12.9939 18.4956 12.4158 18.6754C12.0684 18.7844 11.8867 18.9429 11.7628 19.2755C11.3259 20.4404 11.313 20.439 10.0588 20.4333C9.59312 20.4319 9.01792 20.5706 8.69355 20.3541C8.37207 20.1404 8.33027 19.5473 8.11402 19.1467C8.02032 18.9712 7.82282 18.8155 7.63541 18.7306C7.08327 18.4801 6.49653 18.3017 5.95449 18.0328C5.63589 17.8743 5.38937 17.8474 5.06213 17.996C3.90595 18.5211 3.89874 18.5112 3.0208 17.6435C2.69211 17.3194 2.18178 17.0207 2.10537 16.6428C2.02897 16.2692 2.42253 15.8162 2.55804 15.3831C2.61715 15.1934 2.60273 14.9471 2.53209 14.7589C2.32017 14.1984 2.02032 13.6676 1.843 13.1C1.72767 12.732 1.53882 12.5565 1.18995 12.4277C0.0424238 12.0073 0.0453069 11.9946 0.0496318 10.7858C0.0496318 10.3272 -0.0959713 9.76526 0.121713 9.44255C0.33363 9.12691 0.936225 9.07878 1.34276 8.86788C1.52152 8.77446 1.68875 8.58763 1.77524 8.40504C1.97851 7.97475 2.0578 7.47369 2.31873 7.08869C2.72383 6.48855 2.68923 5.9521 2.3072 5.39725C1.97707 4.91884 2.04771 4.53101 2.53065 4.20405C2.61859 4.1446 2.69788 4.06533 2.75843 3.98041C3.42878 3.03066 4.21734 2.67538 5.27981 3.44255C5.38793 3.52039 5.64886 3.45387 5.81321 3.39017C6.31201 3.19485 6.78053 2.89902 7.29375 2.77163C7.85021 2.63434 8.11979 2.34842 8.29278 1.82896C8.59408 0.927329 8.62724 0.937237 9.58303 0.937237C10.0328 0.937237 10.484 0.959884 10.9309 0.93016C11.2438 0.908929 11.4067 1.02641 11.4658 1.30808C11.6532 2.18989 12.1188 2.79145 13.0876 2.91884C13.2418 2.93865 13.4105 3.00659 13.5316 3.10001C14.1904 3.61098 14.842 3.52889 15.4893 3.10001C15.8959 2.82967 16.1842 2.93158 16.4898 3.28402C16.8502 3.70015 17.2582 4.07666 17.669 4.4475C17.8939 4.65132 17.9458 4.83957 17.7757 5.08727C17.2409 5.8601 17.3822 6.5579 17.7469 7.41424C18.1477 8.35267 18.5542 9.07737 19.6325 9.27836C19.7421 9.29817 19.8762 9.51615 19.8906 9.65344C19.9266 10.0031 19.9021 10.3583 19.9036 10.7122L19.9021 10.7108ZM10.0112 6.09506C7.42637 6.071 5.3418 8.07241 5.29855 10.6202C5.2553 13.175 7.32546 15.2529 9.93334 15.2741C12.5225 15.2953 14.6099 13.2911 14.6445 10.7504C14.6791 8.18423 12.6263 6.12054 10.0112 6.09506Z" fill="#3E1A51"/>
<path d="M13.7053 42.9361C13.6851 43.6579 13.4011 44.0797 12.8922 44.3628C12.0792 44.8143 11.2675 45.2701 10.4501 45.7146C9.48282 46.2411 8.73895 46.0387 8.19113 45.0889C6.33722 41.8816 4.49051 38.6714 2.64092 35.4612C1.91579 34.2015 1.18777 32.9431 0.465523 31.6834C-0.161579 30.5907 0.0359217 29.9113 1.16038 29.2843C1.91002 28.8653 2.65822 28.4449 3.41362 28.0359C4.33482 27.5362 5.07004 27.733 5.59335 28.6388C8.20988 33.1668 10.8192 37.6962 13.4242 42.2298C13.5712 42.4845 13.6448 42.7804 13.7053 42.9347V42.9361ZM3.80863 32.4562C4.33626 32.4577 4.77451 32.0401 4.7846 31.5291C4.79325 31.0182 4.36509 30.5822 3.84034 30.5681C3.28388 30.5525 2.8413 30.9785 2.84707 31.5249C2.85284 32.0514 3.26946 32.4548 3.80863 32.4577V32.4562Z" fill="#3E1A51"/>
<path d="M33.9683 0V11.3475H25.5176V0H33.9683Z" fill="#F7C531"/>
<path d="M10.0102 6.09396C12.6238 6.11803 14.6781 8.18314 14.6435 10.7493C14.6089 13.2914 12.5215 15.2942 9.93233 15.273C7.32445 15.2518 5.25429 13.1725 5.29754 10.6191C5.34079 8.07132 7.42536 6.0699 10.0102 6.09396Z" fill="white"/>
<path d="M3.80927 32.4563C3.27155 32.4549 2.85492 32.0515 2.84771 31.5236C2.84195 30.9786 3.28452 30.5526 3.84098 30.5667C4.36573 30.5809 4.79389 31.0169 4.78524 31.5278C4.77659 32.0402 4.3369 32.4563 3.80927 32.4549V32.4563Z" fill="white"/>
</g>
<defs>
<clipPath id="clip0_9050_539">
<rect width="51" height="46" fill="white"/>
</clipPath>
</defs>
</svg>
