<svg width="40" height="49" viewBox="0 0 40 49" fill="none" xmlns="http://www.w3.org/2000/svg">
<g clip-path="url(#clip0_9052_562)">
<path d="M27.3218 22.8368C27.0332 22.9263 26.7471 23.0556 26.4511 23.0954C25.8889 23.1699 25.3093 23.1476 24.7521 23.247C23.3267 23.5031 22.3143 24.3459 22.0108 25.7431C21.7347 27.0061 21.1974 27.9831 20.2222 28.8408C19.1004 29.8278 18.9063 31.409 19.5332 32.7714C19.7123 33.1593 19.9461 33.5222 20.0954 33.92C20.2272 34.2681 20.277 34.646 20.3839 35.1059C20.0606 35.1059 19.8939 35.1059 19.7272 35.1059C13.4262 35.1059 7.12772 35.1059 0.826726 35.1059C0.0456318 35.1059 -0.0886966 34.9418 0.0456318 34.1612C1.31678 26.7724 6.84911 21.1164 14.2322 19.7963C18.8367 18.9733 23.1302 19.8932 27.0431 22.4863C27.1327 22.5459 27.2148 22.6155 27.3019 22.6802C27.3093 22.7324 27.3143 22.7871 27.3218 22.8393V22.8368Z" fill="#3E1A51"/>
<path d="M17.3167 0.896559C22.2022 0.916449 26.16 4.89676 26.1376 9.76711C26.1152 14.6101 22.1152 18.5805 17.2794 18.5581C12.3764 18.5357 8.43856 14.5504 8.4709 9.63286C8.50075 4.81223 12.4858 0.87667 17.3167 0.896559Z" fill="#3E1A51"/>
<path d="M39.9998 31.2766C39.9078 31.5923 39.8381 31.9155 39.7187 32.2188C39.5968 32.5271 39.4451 32.8279 39.2709 33.1064C38.8306 33.8075 38.7809 34.5558 38.9152 35.3439C38.9774 35.7019 39.0346 36.0649 39.0346 36.4278C39.0371 37.2582 38.6938 37.9543 37.9177 38.2601C35.8854 39.0557 35.5296 39.364 34.567 41.0645C34.1416 41.8153 33.3008 42.1012 32.4874 41.7905C31.0371 41.236 29.6565 41.241 28.2063 41.7905C27.3704 42.1062 26.5296 41.8054 26.0943 41.0347C25.3331 39.6847 24.2958 38.7797 22.8207 38.28C21.9799 37.9941 21.6142 37.2458 21.6665 36.3433C21.6938 35.871 21.7361 35.3961 21.8157 34.9287C21.9102 34.3867 21.8132 33.8945 21.567 33.4146C21.363 33.0218 21.1565 32.629 20.9675 32.2288C20.5396 31.3238 20.6839 30.5034 21.3829 29.7948C21.4053 29.7725 21.4252 29.7476 21.45 29.7277C22.6142 28.8998 23.1938 27.7587 23.4127 26.3565C23.5744 25.3223 24.3331 24.7604 25.3779 24.6883C25.4102 24.6883 25.4426 24.6833 25.4724 24.6858C26.8306 24.7977 27.9699 24.3402 28.9724 23.4278C29.5893 22.866 30.3456 22.7093 31.1341 23.0723C31.4326 23.209 31.7262 23.393 31.9625 23.6143C32.8232 24.4248 33.8431 24.6933 35.0023 24.6908C36.4028 24.6858 37.0346 25.2477 37.3505 26.6151C37.4326 26.9681 37.4675 27.3435 37.6117 27.6717C37.7908 28.0819 38.0172 28.4871 38.2983 28.8327C38.6068 29.2106 39.0048 29.5114 39.3555 29.8545C39.7436 30.2374 39.9476 30.7072 39.9998 31.2741V31.2766ZM24.3928 32.3804C24.3829 35.6447 27.0719 38.3397 30.3356 38.3447C33.5893 38.3496 36.2958 35.6497 36.3008 32.3953C36.3058 29.136 33.6192 26.4435 30.3505 26.4361C27.0844 26.4261 24.4028 29.1037 24.3928 32.3804Z" fill="#F7C531"/>
<path d="M21.7793 46.0478C22.5927 44.295 23.3589 42.6492 24.1748 40.8965C25.1649 42.776 26.5504 43.7506 28.7146 43.2832C27.9783 44.8619 27.2793 46.3809 26.5629 47.89C26.4136 48.2057 26.2494 48.064 26.1251 47.8502C25.7494 47.2088 25.3664 46.5748 25.0082 45.9235C24.8738 45.6773 24.732 45.5953 24.4485 45.6574C23.7843 45.7967 23.1126 45.9036 22.4435 46.013C22.2669 46.0428 22.0853 46.0329 21.7793 46.0453V46.0478Z" fill="#F7C531"/>
<path d="M31.9707 43.2846C34.1498 43.7545 35.5304 42.765 36.5155 40.9004C37.3314 42.6581 38.0951 44.3064 38.8588 45.9547C38.8239 45.997 38.7891 46.0368 38.7568 46.079C38.2493 45.9995 37.7443 45.9199 37.2369 45.8453C36.7866 45.7782 36.2617 45.542 35.906 45.6962C35.5752 45.8403 35.4185 46.3972 35.1921 46.7751C34.9732 47.1406 34.7642 47.5135 34.5453 47.8815C34.4209 48.0903 34.2543 48.1699 34.1299 47.9038C33.416 46.3923 32.712 44.8757 31.9707 43.2846Z" fill="#F7C531"/>
<path d="M24.3926 32.3819C24.4025 29.1052 27.0841 26.4276 30.3503 26.4375C33.619 26.4475 36.3055 29.1375 36.3006 32.3968C36.2956 35.6536 33.5891 38.3511 30.3354 38.3461C27.0717 38.3412 24.3851 35.6437 24.3926 32.3819ZM28.0344 35.1415C28.119 35.2559 28.1961 35.4597 28.3379 35.5269C28.4797 35.594 28.721 35.584 28.8603 35.507C29.2011 35.313 29.5219 35.0744 29.8254 34.8233C30.1737 34.5374 30.4871 34.5125 30.8404 34.8133C31.104 35.0371 31.3802 35.2658 31.6886 35.4125C31.8976 35.5119 32.2234 35.5716 32.3976 35.4722C32.5294 35.3976 32.5692 35.0321 32.5319 34.8183C32.4622 34.433 32.313 34.0625 32.1836 33.6896C32.0742 33.3763 32.1513 33.1377 32.42 32.9487C32.7682 32.7026 33.1364 32.4739 33.4423 32.183C33.5816 32.0487 33.6836 31.7579 33.6389 31.5814C33.6015 31.4347 33.3279 31.283 33.1413 31.2582C32.7682 31.2084 32.3826 31.2209 32.0045 31.2482C31.5443 31.2805 31.2981 31.0742 31.1861 30.6441C31.1065 30.3383 31.0344 30.0225 30.8851 29.7491C30.7632 29.5253 30.5617 29.2419 30.3478 29.1947C29.9921 29.1151 29.8677 29.4656 29.7732 29.7615C29.6812 30.0474 29.5642 30.3259 29.4996 30.6167C29.3926 31.114 29.0966 31.2855 28.609 31.2482C28.2632 31.2209 27.9075 31.2035 27.5692 31.2582C27.3677 31.2905 27.0891 31.4421 27.0369 31.6012C26.9846 31.7628 27.114 32.0562 27.2583 32.1954C27.5269 32.459 27.8503 32.6678 28.1687 32.8717C28.5369 33.1078 28.6115 33.4062 28.4622 33.8064C28.308 34.2191 28.1886 34.6468 28.0319 35.144L28.0344 35.1415Z" fill="white"/>
<path d="M28.0342 35.1405C28.1934 34.6432 28.3103 34.2181 28.4645 33.8029C28.6138 33.4027 28.5392 33.1068 28.171 32.8681C27.8526 32.6643 27.5267 32.453 27.2606 32.1919C27.1163 32.0502 26.9869 31.7593 27.0392 31.5977C27.0914 31.4361 27.3725 31.287 27.5715 31.2546C27.9098 31.1999 28.2655 31.2173 28.6113 31.2447C29.0989 31.282 29.3949 31.1104 29.5019 30.6132C29.564 30.3223 29.6834 30.0414 29.7755 29.758C29.87 29.4621 29.9944 29.1116 30.3501 29.1911C30.564 29.2384 30.7655 29.5218 30.8874 29.7456C31.0367 30.019 31.1088 30.3348 31.1884 30.6406C31.3004 31.0731 31.5441 31.277 32.0068 31.2447C32.3849 31.2173 32.7705 31.2049 33.1436 31.2546C33.3302 31.2795 33.6014 31.4312 33.6412 31.5778C33.6884 31.7544 33.5864 32.0452 33.4446 32.1795C33.1387 32.4704 32.7705 32.6991 32.4223 32.9452C32.1536 33.1366 32.0765 33.3728 32.1859 33.6861C32.3153 34.059 32.467 34.4294 32.5342 34.8148C32.5715 35.0286 32.5342 35.3941 32.3999 35.4686C32.2257 35.5681 31.8999 35.5084 31.6909 35.409C31.3825 35.2598 31.1063 35.0336 30.8426 34.8098C30.4894 34.509 30.176 34.5363 29.8277 34.8198C29.5242 35.0709 29.2033 35.3095 28.8626 35.5035C28.7232 35.583 28.482 35.593 28.3402 35.5233C28.1984 35.4562 28.1213 35.2524 28.0367 35.138L28.0342 35.1405Z" fill="#F7C531"/>
</g>
<defs>
<clipPath id="clip0_9052_562">
<rect width="40" height="47.1795" fill="white" transform="translate(0 0.896484)"/>
</clipPath>
</defs>
</svg>
