<svg width="42" height="45" viewBox="0 0 42 45" fill="none" xmlns="http://www.w3.org/2000/svg">
<path d="M35.7736 4.2576C35.5925 2.15164 33.7385 0.591103 31.6325 0.772092C29.9822 0.913967 28.6671 2.08337 28.2623 3.59624H25.5477C25.0014 3.59624 24.5586 4.03907 24.5586 4.58535C24.5586 5.13173 25.0016 5.57446 25.5477 5.57446H28.2635C28.7326 7.33538 30.4095 8.56013 32.2881 8.39861C34.3942 8.21754 35.9546 6.36355 35.7736 4.2576Z" fill="#3E1A51"/>
<path d="M13.4278 11.6816C12.663 11.6816 12.043 12.3017 12.043 13.0664V13.7545L15.0282 13.7659C15.717 13.7684 16.3569 13.9739 16.8936 14.3243C16.8936 13.0829 16.8936 11.9456 16.8936 11.6816H13.4278Z" fill="#F7C531"/>
<path d="M25.2342 24.1753C23.5115 24.6055 21.7632 23.5558 21.3331 21.8325C20.9035 20.1111 21.9544 18.361 23.6759 17.9314L26.1544 17.3128V13.0664C26.1544 12.3017 25.5343 11.6816 24.7696 11.6816H21.3038C21.3038 12.5095 21.3038 17.2121 21.3038 17.8261L20.5688 17.091L19.8337 17.8261L19.0988 17.091L18.4082 17.7815C18.1339 19.4141 16.7115 20.6553 15.0021 20.6487L12.043 20.6374V24.4083C12.043 25.173 12.663 25.793 13.4278 25.793H24.7698C25.5345 25.793 26.1545 25.173 26.1545 24.4083V23.9455L25.2342 24.1753Z" fill="#F7C531"/>
<path d="M41.2454 41.8862L37.9292 33.094L39.1715 25.1812C39.1866 25.0857 39.2339 25.8006 38.1623 11.8739C38.04 10.4513 36.7875 9.3971 35.3649 9.51942L30.7712 9.91431C29.3486 10.0366 28.2945 11.2892 28.4167 12.7117L28.7563 16.6623L31.8258 12.3797L29.8549 17.9174L24.0352 19.3698C23.1034 19.6024 22.5412 20.5453 22.7728 21.4722C23.0028 22.3945 23.9408 22.968 24.8751 22.7347L31.5969 21.0571C32.1378 20.9221 32.609 20.5223 32.8107 19.9561L34.9871 13.841L34.2853 20.121C34.1991 20.8919 33.3839 22.1404 31.9563 22.4967L29.3148 23.156L29.4783 25.0568L26.6181 31.3858C26.5606 31.5128 26.516 31.6454 26.4852 31.7814L24.1257 42.1594C23.8709 43.2801 24.5729 44.3949 25.6934 44.6498C26.8142 44.9045 27.929 44.2024 28.1838 43.0821L30.4965 32.9082L33.8165 25.5616L34.9141 25.4673C34.6713 27.0133 33.972 31.4675 33.7328 32.9914C33.6768 33.3472 33.7144 33.7116 33.8414 34.0485L37.3514 43.3548C37.757 44.43 38.9573 44.973 40.0327 44.5674C41.1079 44.1619 41.6509 42.9614 41.2454 41.8862Z" fill="#3E1A51"/>
<path d="M15.0217 15.3163L9.65398 15.296L6.76662 11.6065L9.48094 13.6139V11.8253C9.48094 10.4645 8.37771 9.36133 7.01693 9.36133H2.50469C1.14382 9.36133 0.0406821 10.4646 0.0406821 11.8253C0.0406821 41.366 -0.055182 8.7892 0.0474048 42.5796C0.0508971 43.7541 1.00404 44.7036 2.17754 44.7036C2.17964 44.7036 2.18191 44.7036 2.18409 44.7035C3.36056 44.7 4.31143 43.7433 4.30777 42.5667C4.25311 24.5574 4.32278 25.7555 4.30777 25.5947H5.21918L5.22048 42.5733C5.22057 43.7499 6.17432 44.7035 7.35097 44.7034C8.52745 44.7033 9.48111 43.7496 9.48102 42.5729L9.48085 20.6282C8.91143 20.626 8.52273 20.6245 7.98649 20.6225C7.0997 20.6191 6.34082 20.0747 6.01961 19.3047L3.78767 13.9375L7.24035 18.3493C7.59517 18.8028 8.13997 19.0728 8.72258 19.075L15.0074 19.0989C16.0518 19.1029 16.9018 18.2593 16.9058 17.2148C16.9097 16.1703 16.0672 15.3204 15.0217 15.3163Z" fill="#3E1A51"/>
<path d="M5.86856 7.83868C8.03315 7.83868 9.7879 6.08393 9.7879 3.91934C9.7879 1.75475 8.03315 0 5.86856 0C3.70397 0 1.94922 1.75475 1.94922 3.91934C1.94922 6.08393 3.70397 7.83868 5.86856 7.83868Z" fill="#3E1A51"/>
</svg>
