<svg width="51" height="49" viewBox="0 0 51 49" fill="none" xmlns="http://www.w3.org/2000/svg">
<g clip-path="url(#clip0_9052_563)">
<path d="M14.002 20.7536C14.002 18.6207 14.0077 16.4877 13.9963 14.3547C13.9949 14.0398 14.1017 13.8859 14.3922 13.7634C18.7567 11.9097 23.2935 11.156 28.0225 11.562C31.0371 11.8214 33.9235 12.5722 36.7103 13.7406C37.0093 13.866 37.136 14.0213 37.1375 14.3647C37.156 18.169 37.2115 21.9719 37.2115 25.7762C37.2115 26.7664 37.0791 27.7595 36.9609 28.7469C36.7003 30.944 35.497 32.5897 33.8523 33.9704C31.366 36.0563 28.6163 37.7505 25.8282 39.389C25.7071 39.4603 25.475 39.4745 25.3597 39.4061C22.5217 37.7476 19.752 35.9951 17.2002 33.902C15.0187 32.1124 14.0518 29.7913 13.9934 27.0457C13.9479 24.9498 13.9849 22.8524 13.9849 20.7551C13.992 20.7551 13.9977 20.7551 14.0048 20.7551L14.002 20.7536ZM22.9688 25.8816C22.0461 24.9512 21.2315 24.1148 20.3942 23.2984C20.1849 23.0932 19.9272 22.9023 19.6552 22.8054C19.0984 22.6073 18.489 22.861 18.17 23.3525C17.8282 23.8811 17.8781 24.5138 18.3622 25.011C19.4658 26.1423 20.5893 27.2537 21.7072 28.3722C22.5872 29.2513 23.2251 29.2485 24.1165 28.358C26.9289 25.5453 29.7413 22.7299 32.5522 19.9158C32.6904 19.7776 32.8299 19.638 32.941 19.4798C33.3155 18.9427 33.2443 18.2246 32.7843 17.7743C32.3244 17.3241 31.6067 17.2671 31.0784 17.6575C30.8947 17.7943 30.7324 17.9624 30.57 18.1248C28.1592 20.5356 25.7484 22.9479 23.3433 25.3644C23.2066 25.5012 23.1126 25.6807 22.9688 25.883V25.8816Z" fill="#F7C531"/>
<path d="M12.2693 23.2117C12.3177 25.7621 12.2693 28.2727 13.014 30.749C11.16 30.6023 9.57512 31.1181 8.32486 32.4788C7.39785 33.4875 6.93363 34.6901 6.92651 36.0665C6.91369 38.8278 8.94287 41.1218 11.7068 41.4395C14.0536 41.7103 17.2162 40.331 17.679 36.427C19.9132 37.8746 22.156 39.3279 24.4415 40.8083C23.748 42.0095 23.0446 43.2377 22.3212 44.4545C22.2657 44.5485 22.0563 44.6084 21.931 44.5927C21.0168 44.4687 20.1026 44.3362 19.1941 44.1766C18.7712 44.1026 18.4266 44.1382 18.0578 44.4146C17.5922 44.7623 17.0696 45.0458 16.5398 45.2894C16.1838 45.4519 15.9916 45.6756 15.862 46.0332C15.5544 46.8838 15.1927 47.7159 14.8866 48.5666C14.7727 48.8829 14.6203 49.0054 14.2757 48.9997C12.9428 48.9798 11.61 48.9826 10.2786 48.9997C9.96244 49.004 9.80865 48.9014 9.69901 48.6007C9.37007 47.7003 9.02546 46.8055 8.64526 45.9263C8.54558 45.6941 8.32344 45.4818 8.10415 45.3407C7.56873 44.9959 7.0148 44.6739 6.44236 44.3932C6.16325 44.2564 5.81865 44.1467 5.51961 44.1781C4.56697 44.2778 3.62429 44.463 2.67449 44.5799C2.51785 44.5984 2.26154 44.4858 2.18322 44.3547C1.46268 43.1508 0.762081 41.9354 0.0842644 40.7072C0.0116412 40.5747 0.0472408 40.2982 0.142648 40.1714C0.743569 39.3792 1.39006 38.6212 1.98671 37.8247C2.12626 37.6381 2.18179 37.3517 2.19034 37.1095C2.2117 36.4897 2.12768 35.8613 2.19461 35.2486C2.2416 34.8155 2.14335 34.512 1.87279 34.1928C1.28753 33.5018 0.747841 32.7709 0.16116 32.0812C-0.0524381 31.8305 -0.0396223 31.6509 0.117016 31.3873C0.786289 30.256 1.44987 29.1219 2.07927 27.9692C2.26866 27.6229 2.4851 27.5488 2.84395 27.6101C3.78805 27.7711 4.73642 27.9193 5.68622 28.0404C5.887 28.0661 6.12908 27.9962 6.3142 27.8979C6.9379 27.5631 7.55306 27.2112 8.15398 26.835C8.34622 26.7139 8.54416 26.5272 8.63102 26.3235C9.01122 25.4244 9.36437 24.514 9.69758 23.5964C9.80723 23.2929 9.96244 23.1946 10.2757 23.206C10.9279 23.2288 11.5801 23.2131 12.2707 23.2131L12.2693 23.2117Z" fill="#3E1A51"/>
<path d="M38.8447 25.7877V18.2916C40.5221 18.172 41.9347 17.5251 42.9728 16.1729C43.7104 15.2097 44.0693 14.1155 44.0678 12.9001C44.0621 10.4707 42.4687 8.37196 40.1405 7.73221C37.5132 7.01124 35.3388 8.08414 33.6799 10.9124C32.3926 10.6602 31.1096 10.4023 29.8237 10.1615C29.4236 10.086 29.0063 9.9749 28.6105 10.0162C27.5895 10.1202 26.9914 9.56739 26.5258 8.78374C26.4489 8.6555 26.4375 8.41185 26.5073 8.28504C27.1908 7.05969 27.8914 5.84431 28.6133 4.64175C28.6916 4.51209 28.9508 4.40665 29.1089 4.42517C30.0416 4.53916 30.9729 4.68449 31.8999 4.8398C32.2687 4.90107 32.5663 4.85262 32.8896 4.62465C33.3951 4.26986 33.9718 4.01767 34.4873 3.67428C34.7308 3.51328 34.9757 3.27533 35.091 3.01459C35.4641 2.17109 35.7902 1.30621 36.1063 0.439914C36.2188 0.130725 36.3612 -0.00748338 36.713 -0.00178405C38.0458 0.0195884 39.3787 0.0153139 40.7101 0.00106562C41.0205 -0.00178405 41.1843 0.0851307 41.2953 0.392895C41.6214 1.29339 41.9675 2.18818 42.3477 3.06873C42.4473 3.29955 42.6695 3.51185 42.8873 3.65149C43.4242 3.99487 44.0151 4.25562 44.5363 4.62037C44.8596 4.84692 45.1572 4.90249 45.5246 4.84122C46.4345 4.69019 47.3515 4.57478 48.26 4.41092C48.5534 4.3582 48.7057 4.41662 48.8524 4.68022C49.5217 5.8728 50.2024 7.05969 50.9044 8.23232C51.0653 8.50162 51.0169 8.66405 50.8389 8.88062C50.2066 9.64861 49.5801 10.4223 48.9763 11.2131C48.8524 11.3755 48.7969 11.622 48.7898 11.8329C48.767 12.541 48.7641 13.2506 48.7898 13.9587C48.7983 14.1853 48.8667 14.4474 49.0005 14.6227C49.59 15.4021 50.2009 16.1658 50.8303 16.9138C51.0382 17.1603 51.0397 17.3399 50.8802 17.6091C50.2095 18.739 49.5445 19.8732 48.9136 21.0259C48.7257 21.3693 48.5135 21.4519 48.1518 21.3907C47.2077 21.2297 46.2593 21.0829 45.3095 20.9632C45.1088 20.9376 44.8667 21.0088 44.683 21.1071C44.0593 21.4419 43.4427 21.7939 42.8432 22.17C42.651 22.2912 42.4502 22.4764 42.3647 22.6787C41.9845 23.5778 41.6314 24.4882 41.2996 25.4058C41.19 25.7107 41.0333 25.8076 40.7215 25.7948C40.1191 25.772 39.5139 25.7877 38.8475 25.7877H38.8447Z" fill="#3E1A51"/>
<path d="M22.9683 25.8827C23.1121 25.6818 23.2061 25.5009 23.3428 25.3641C25.7479 22.9476 28.1587 20.5353 30.5695 18.1245C30.7319 17.9621 30.8942 17.7925 31.0779 17.6571C31.6062 17.2667 32.3239 17.3223 32.7838 17.774C33.2438 18.2242 33.315 18.9423 32.9405 19.4795C32.8294 19.6377 32.6899 19.7787 32.5517 19.9155C29.7408 22.731 26.9284 25.545 24.116 28.3576C23.2246 29.2482 22.5867 29.2524 21.7067 28.3719C20.5888 27.2548 19.4653 26.142 18.3617 25.0107C17.8776 24.5134 17.8277 23.8808 18.1695 23.3522C18.4885 22.8606 19.0979 22.607 19.6547 22.8051C19.9267 22.902 20.1844 23.0929 20.3937 23.2981C21.2296 24.1131 22.0456 24.9509 22.9683 25.8813V25.8827Z" fill="white"/>
</g>
<defs>
<clipPath id="clip0_9052_563">
<rect width="51" height="49" fill="white"/>
</clipPath>
</defs>
</svg>
