<svg width="59" height="51" viewBox="0 0 59 51" fill="none" xmlns="http://www.w3.org/2000/svg">
<path d="M38.3629 41.2373C37.7802 40.9552 37.2301 40.6908 36.6836 40.4229C35.9422 40.0592 34.5299 40.6394 34.2756 41.4183C33.5631 43.5917 33.8481 43.3717 31.5069 43.3788C30.9784 43.3788 30.4499 43.3788 29.9196 43.3735C29.4416 43.3681 29.135 43.1304 28.9835 42.6904C28.9257 42.5271 28.8464 42.3639 28.8283 42.1954C28.7147 41.0528 27.9319 40.5471 26.9236 40.2934C26.7035 40.2384 26.4077 40.3058 26.1967 40.4123C24.0052 41.5176 24.3713 41.4608 22.7173 39.8392C20.9605 38.1164 21.0525 38.5369 22.1347 36.3617C22.2501 36.1311 22.2339 35.7993 22.1816 35.5332C21.976 34.4757 21.2653 33.9985 20.2173 33.7714C19.1856 33.5478 19.0936 33.3154 19.0918 32.2526C19.0918 31.4933 19.099 30.7339 19.09 29.9763C19.0828 29.3784 19.3317 28.981 19.9377 28.8266C20.0658 28.7947 20.1867 28.7202 20.3147 28.7113C21.498 28.6208 21.9615 27.8064 22.2465 26.8359C22.2988 26.6567 22.261 26.4172 22.1834 26.2416C21.9814 25.7856 21.7325 25.3509 21.5016 24.9074C21.2743 24.4709 21.3158 24.0717 21.6729 23.7186C22.3566 23.0426 23.042 22.3684 23.7274 21.6925C24.1044 21.3217 24.5228 21.2649 24.99 21.515C25.1451 21.5984 25.3147 21.657 25.459 21.7528C26.2183 22.262 26.9543 22.4075 27.82 21.9018C28.2115 21.6729 28.455 21.4742 28.5938 21.0466C29.263 18.9779 29.0213 19.1287 31.2688 19.1358C31.7756 19.1358 32.2825 19.1429 32.7893 19.1358C33.3449 19.1269 33.7128 19.3665 33.877 19.8952C33.9221 20.0407 33.9978 20.1808 34.0123 20.3281C34.1295 21.4654 34.9015 21.9763 35.9116 22.2389C36.0974 22.2868 36.3391 22.2531 36.5212 22.1768C36.965 21.9888 37.3942 21.7634 37.8163 21.5328C38.3069 21.2666 38.7398 21.3146 39.1348 21.7067C39.8022 22.3684 40.475 23.0267 41.1442 23.6849C41.5194 24.054 41.5789 24.4691 41.33 24.9286C41.2362 25.1007 41.1695 25.2888 41.0576 25.4467C40.558 26.1546 40.4552 26.8395 40.9079 27.6503C41.1496 28.0814 41.3715 28.3582 41.8603 28.5037C43.8426 29.0963 43.7722 28.9331 43.756 31.0408C43.7524 31.5607 43.7524 32.0823 43.756 32.6022C43.7596 33.177 43.489 33.5443 42.9227 33.7004C42.7964 33.7359 42.6738 33.8068 42.5457 33.8175C41.3895 33.9257 40.8628 34.6762 40.6013 35.6769C40.5526 35.8614 40.576 36.0974 40.6536 36.2712C40.8646 36.7467 41.2073 37.1796 41.3354 37.6711C41.4238 38.0135 41.3733 38.5298 41.1586 38.7818C40.5255 39.5269 39.7896 40.1905 39.0717 40.8629C38.8949 41.0279 38.628 41.1024 38.3647 41.2373H38.3629ZM31.3554 37.9372C35.0386 38.0047 38.15 35.0204 38.2131 31.3566C38.2763 27.7408 35.2713 24.659 31.6151 24.5933C27.8002 24.5241 24.6888 27.4498 24.6238 31.165C24.5589 34.8359 27.5711 37.8663 31.3536 37.9372H31.3554Z" fill="#FFC127"/>
<path d="M19.7787 0H33.4383V14.7544C32.3128 14.7544 31.2179 14.7668 30.1231 14.7385C29.9932 14.7349 29.8128 14.5291 29.7515 14.3801C29.1563 12.8915 28.0542 12.0807 26.4363 12.031C24.9536 11.9849 23.7938 12.8525 23.112 14.3641C23.0308 14.5433 22.7512 14.7296 22.551 14.7438C21.8494 14.7899 21.1405 14.7314 20.4389 14.7722C19.914 14.8023 19.7643 14.6231 19.7697 14.1122C19.7931 11.3603 19.7805 8.60852 19.7805 5.85493C19.7805 3.92813 19.7805 2.00132 19.7805 0L19.7787 0Z" fill="#3E1A51"/>
<path d="M1.07602 50.2183V40.2383H17.4539V50.2183C16.5376 50.2183 15.6411 50.2183 14.7465 50.2183C14.0845 50.2183 13.4226 50.197 12.7624 50.2254C12.3259 50.2449 12.187 50.0888 12.1924 49.6665C12.2122 48.2347 12.205 46.8047 12.1978 45.3729C12.1924 44.413 11.8587 44.0919 10.8847 44.0866C9.76098 44.0812 8.63545 44.0777 7.51173 44.0883C6.70546 44.0972 6.34291 44.4485 6.3357 45.2451C6.32307 46.6982 6.31225 48.1513 6.34111 49.6044C6.35013 50.0941 6.19501 50.2378 5.70259 50.2289C4.18565 50.2005 2.66691 50.2183 1.07422 50.2183H1.07602Z" fill="#3E1A51"/>
<path d="M48.0285 51.001C48.0285 49.4503 47.9798 47.9777 48.0394 46.5087C48.1277 44.3619 49.9982 42.6036 52.1789 42.5522C53.014 42.5326 53.851 42.538 54.6879 42.5486C56.8776 42.5752 58.6363 44.0922 58.9627 46.2301C58.9988 46.4643 58.9988 46.7056 58.9988 46.9434C59.0024 48.2811 58.9988 49.6189 58.9988 51.001H48.0267H48.0285Z" fill="#3E1A51"/>
<path d="M34.9453 14.6966V5.44939C35.8111 5.44939 36.6607 5.44584 37.5102 5.44939C38.5005 5.45471 39.6296 5.17616 40.4413 5.55407C41.2475 5.9302 41.6804 7.02312 42.3749 7.7062C43.3164 8.63234 43.6645 9.67204 43.5527 10.9725C43.4499 12.195 43.5311 13.4334 43.5311 14.6594C43.0008 14.8758 42.7609 14.7321 42.5715 14.23C42.0592 12.8816 40.793 12.0424 39.3663 12.0229C37.9593 12.0034 36.6156 12.8372 36.1268 14.1679C35.8869 14.8226 35.5135 14.8315 34.9471 14.6949L34.9453 14.6966Z" fill="#3E1A51"/>
<path d="M18.4702 38.7576H0.0811499C-0.0956156 38.369 0.0162157 38.1526 0.418447 37.9663C3.26834 36.6498 6.1038 35.305 8.9555 33.9938C9.17375 33.8927 9.52548 33.8927 9.74193 33.9938C12.5449 35.305 15.3389 36.6356 18.1221 37.9876C18.3403 38.094 18.4612 38.3974 18.6271 38.6086C18.5748 38.6582 18.5225 38.7079 18.4702 38.7576Z" fill="#3E1A51"/>
<path d="M31.6565 50.7105C28.2637 50.6839 25.2479 50.0008 22.416 48.569C21.6494 48.1804 21.4077 47.7564 21.6567 47.2241C21.9254 46.6511 22.4377 46.5624 23.2349 46.9456C28.3142 49.3905 33.4621 49.543 38.6731 47.3767C39.0374 47.2259 39.3855 47.0378 39.7427 46.8711C40.3992 46.5659 40.8989 46.6795 41.164 47.1887C41.4255 47.689 41.2145 48.1733 40.5778 48.498C38.1644 49.7276 35.6067 50.4603 32.8903 50.6377C32.4069 50.6697 31.9235 50.6945 31.6565 50.7087V50.7105Z" fill="#FFC127"/>
<path d="M11.6523 30.6476C11.8814 25.7915 13.6202 21.5707 16.9643 18.0045C17.4748 17.4598 18.0339 17.3782 18.4542 17.7667C18.8925 18.1712 18.8546 18.6698 18.3171 19.2447C15.2057 22.5749 13.6166 26.5048 13.503 31.0202C13.4831 31.7795 13.1494 32.1734 12.5434 32.1521C11.968 32.1326 11.656 31.7352 11.6523 31.0166C11.6523 30.8871 11.6523 30.7558 11.6523 30.6458V30.6476Z" fill="#FFC127"/>
<path d="M51.1905 30.6469C51.1905 30.7977 51.1941 30.9503 51.1905 31.1011C51.1761 31.7576 50.8424 32.1462 50.285 32.155C49.7186 32.1657 49.3994 31.7913 49.3381 31.1366C49.228 29.9745 49.1685 28.8 48.943 27.6591C48.3262 24.5276 46.8669 21.7936 44.6953 19.4268C44.6357 19.3629 44.5744 19.3008 44.5167 19.2351C43.9936 18.6567 43.9557 18.1582 44.4031 17.7572C44.8269 17.3775 45.3753 17.4645 45.8911 18.0163C49.2316 21.586 50.9668 25.8086 51.1923 30.6452L51.1905 30.6469Z" fill="#FFC127"/>
<path d="M53.5433 34.7323C55.1504 34.7447 56.4148 36.0168 56.3968 37.6048C56.3788 39.1803 55.062 40.4542 53.4747 40.4293C51.8748 40.4045 50.605 39.1164 50.6212 37.5374C50.6375 35.9494 51.9181 34.7199 53.5415 34.7305L53.5433 34.7323Z" fill="#3E1A51"/>
<path d="M10.7826 50.2162C9.8266 50.2162 8.99148 50.2304 8.15815 50.202C8.02287 50.1967 7.77937 50.0086 7.77756 49.9004C7.75231 48.4544 7.76133 47.0066 7.76133 45.4808C8.70649 45.4808 9.5813 45.4701 10.4561 45.495C10.5679 45.4985 10.7681 45.6884 10.77 45.7948C10.7916 47.2408 10.7844 48.6868 10.7844 50.218L10.7826 50.2162Z" fill="#3E1A51"/>
<path d="M26.4202 17.4949C25.2946 17.4914 24.3531 16.5688 24.3477 15.467C24.3423 14.3404 25.3235 13.3912 26.4653 13.4125C27.5926 13.4338 28.5017 14.3617 28.4926 15.4794C28.4836 16.599 27.5583 17.4985 26.4202 17.4932V17.4949Z" fill="#3E1A51"/>
<path d="M37.2658 15.4279C37.2802 14.3137 38.22 13.4053 39.3455 13.4141C40.4909 13.423 41.4378 14.3935 41.4036 15.5237C41.3711 16.6326 40.4169 17.5197 39.2824 17.4948C38.1442 17.47 37.2514 16.5545 37.2658 15.4296V15.4279Z" fill="#3E1A51"/>
<path d="M31.3557 37.9369C27.5733 37.8659 24.5611 34.8373 24.626 31.1647C24.691 27.4494 27.8024 24.5255 31.6173 24.5929C35.2716 24.6586 38.2767 27.7404 38.2153 31.3563C38.1522 35.0183 35.039 38.0043 31.3576 37.9369H31.3557Z" fill="white"/>
</svg>
