<svg width="46" height="62" viewBox="0 0 46 62" fill="none" xmlns="http://www.w3.org/2000/svg">
<path fill-rule="evenodd" clip-rule="evenodd" d="M40.6538 0.966797H31.0314C28.0849 0.966797 25.6859 3.36582 25.6859 6.3124V9.51883H22.9537C21.9695 9.51883 21.1719 10.317 21.1719 11.3007C21.1719 12.2849 21.9695 13.0826 22.9537 13.0826H25.7244C26.1777 18.2959 30.5549 22.3487 35.8424 22.3487C41.4515 22.3487 45.9994 17.8008 45.9994 12.1916C45.9994 10.2339 45.9994 8.27199 45.9994 6.3124C45.9994 3.36582 43.6004 0.966797 40.6538 0.966797Z" fill="#F7C531"/>
<path fill-rule="evenodd" clip-rule="evenodd" d="M31.6904 26.8065C30.3902 27.3935 29.2353 28.2441 28.2961 29.2886L18.7168 39.0972H5.34554C2.40178 39.0972 0 41.4995 0 44.4433C0 47.3866 2.40224 49.7889 5.34554 49.7889H20.3135C21.9557 49.7889 23.5835 49.3764 24.8062 48.1449L26.3992 46.5412V60.004C26.3992 60.8671 27.0121 61.6225 27.8265 61.7868L44.2199 61.7859C45.2027 61.785 45.9994 60.9873 45.9994 60.004V36.0681C45.9994 28.7508 38.3988 23.7788 31.6904 26.8065Z" fill="#3E1A51"/>
<path fill-rule="evenodd" clip-rule="evenodd" d="M4.89708 35.5341H17.7268C18.711 35.5341 19.5087 34.7365 19.5087 33.7523V21.0416C19.5087 20.0574 18.711 19.2598 17.7268 19.2598H13.094V22.3205C13.094 23.3047 12.2959 24.1024 11.3122 24.1024C10.328 24.1024 9.53034 23.3047 9.53034 22.3205V19.2598H4.89708C3.91335 19.2598 3.11523 20.0574 3.11523 21.0416V33.7523C3.11523 34.7365 3.91335 35.5341 4.89708 35.5341Z" fill="#3E1A51"/>
</svg>
