<svg width="49" height="46" viewBox="0 0 49 46" fill="none" xmlns="http://www.w3.org/2000/svg">
<g clip-path="url(#clip0_9034_1053)">
<path d="M32.0402 4.03883C32.1943 4.02372 32.282 4.00861 32.3696 4.00861C34.2493 4.00861 36.132 3.98141 38.0117 4.02372C42.3302 4.12042 45.9144 7.67735 45.9688 11.9989C46.0262 16.6316 45.9869 21.2674 45.9869 25.9032C45.9869 29.8258 46.002 33.7514 45.9839 37.674C45.9657 41.7236 43.2912 45.0025 39.3445 45.8214C38.7401 45.9453 38.1115 45.9816 37.492 45.9816C29.1542 45.9907 20.8164 45.9544 12.4786 46.0028C8.35353 46.0269 4.90539 43.1862 4.15895 39.3331C4.04714 38.7559 4.00785 38.1576 4.00785 37.5683C3.99879 29.1912 3.99879 20.8111 4.00181 12.428C4.00785 8.06719 6.91807 4.70367 11.2335 4.07207C11.6717 4.00861 12.119 4.01465 12.5632 4.01163C14.1619 4.00558 15.7636 4.01163 17.3622 4.01163C17.5224 4.01163 17.6825 4.01163 17.8971 4.01163C17.8971 4.22317 17.8971 4.39543 17.8971 4.56768C17.8971 7.81032 17.8971 11.053 17.8971 14.2956C17.8971 14.4286 17.8911 14.5615 17.8971 14.6945C17.9485 15.4802 18.5922 15.8459 19.2812 15.4561C20.1425 14.9695 20.9886 14.4497 21.8409 13.945C22.4513 13.5824 23.0648 13.2258 23.6692 12.8541C24.3189 12.4522 24.9656 12.428 25.6426 12.7937C27.2563 13.664 28.8913 14.4951 30.4899 15.3956C31.3542 15.8822 32.0614 15.4047 32.0493 14.4648C32.007 11.1769 32.0342 7.89192 32.0342 4.60395V4.03883H32.0402ZM19.1392 28.8376C19.2419 28.8044 19.2721 28.7893 19.2993 28.7893C22.8955 28.7893 26.4948 28.7621 30.091 28.8134C31.4842 28.8346 32.4996 29.6052 33.0617 30.8714C33.6268 32.1377 33.4545 33.3676 32.6023 34.4646C31.8468 35.4377 30.8072 35.8094 29.5984 35.8034C27.4679 35.7943 25.3343 35.7913 23.2038 35.8034C22.1551 35.8094 21.4147 36.5559 21.4178 37.5501C21.4208 38.5414 22.1793 39.2878 23.2189 39.2938C25.4854 39.3029 27.7489 39.3241 30.0154 39.2878C34.5032 39.2183 37.773 34.9059 36.6579 30.5571C35.8691 27.4747 33.1402 25.3079 29.9429 25.2807C26.5069 25.2535 23.0738 25.2716 19.6378 25.2716C19.4897 25.2716 19.3386 25.2716 19.124 25.2716C19.2177 25.1538 19.2449 25.1175 19.2721 25.0843C20.0035 24.2562 20.0004 23.2348 19.2631 22.5457C18.5408 21.8688 17.5224 21.9111 16.7578 22.6636C15.7243 23.682 14.6968 24.7065 13.6783 25.74C12.9319 26.4986 12.8594 27.4203 13.5816 28.2C14.6696 29.3695 15.7907 30.5148 16.9633 31.5967C17.9394 32.4943 19.4867 31.9171 19.7677 30.6176C19.9219 29.9104 19.6348 29.3544 19.1331 28.8346L19.1392 28.8376Z" fill="#3E1A51"/>
<path d="M19.1397 28.8387C19.6444 29.3615 19.9284 29.9176 19.7743 30.6217C19.4902 31.9212 17.943 32.4984 16.9699 31.6008C15.7943 30.519 14.6731 29.3736 13.5882 28.2041C12.866 27.4244 12.9385 26.5027 13.6849 25.7441C14.7034 24.7106 15.7308 23.6861 16.7644 22.6677C17.5259 21.9152 18.5444 21.8759 19.2696 22.5499C20.004 23.2359 20.007 24.2603 19.2787 25.0884C19.2485 25.1216 19.2243 25.1579 19.1306 25.2757C19.3452 25.2757 19.4933 25.2757 19.6444 25.2757C23.0804 25.2757 26.5134 25.2576 29.9495 25.2848C33.1468 25.312 35.8727 27.4818 36.6644 30.5613C37.7796 34.91 34.5097 39.2254 30.022 39.2919C27.7585 39.3252 25.492 39.304 23.2255 39.298C22.1889 39.2949 21.4304 38.5455 21.4243 37.5542C21.4213 36.56 22.1617 35.8136 23.2104 35.8075C25.3409 35.7954 27.4745 35.7954 29.605 35.8075C30.8138 35.8136 31.8564 35.4418 32.6089 34.4687C33.4611 33.3718 33.6334 32.1418 33.0682 30.8756C32.5061 29.6123 31.4877 28.8387 30.0976 28.8176C26.5014 28.7662 22.9021 28.7964 19.3059 28.7934C19.2787 28.7934 19.2485 28.8085 19.1457 28.8417L19.1397 28.8387Z" fill="#F7C531"/>
</g>
<defs>
<clipPath id="clip0_9034_1053">
<rect width="49" height="46" fill="white"/>
</clipPath>
</defs>
</svg>
