<svg width="46" height="50" viewBox="0 0 46 50" fill="none" xmlns="http://www.w3.org/2000/svg">
<g clip-path="url(#clip0_9113_1033)">
<path d="M27.8067 23.1172C33.4122 25.1338 39.0069 27.1476 44.7323 29.2067C44.4748 29.3302 44.3535 29.403 44.2213 29.4497C37.3196 31.9343 30.418 34.4204 23.5109 36.8872C23.2261 36.9888 22.8472 37.0053 22.5664 36.9064C15.658 34.4396 8.75497 31.9522 1.85334 29.4675C1.70342 29.414 1.55759 29.3481 1.30273 29.2451C1.55759 29.1298 1.70887 29.0488 1.86969 28.9912C7.17812 27.0817 12.4879 25.1777 17.7922 23.2572C18.1302 23.135 18.2829 23.1954 18.4655 23.4947C19.3977 25.0226 20.424 26.4969 21.2812 28.0646C22.1303 29.6185 23.9116 29.5773 24.7375 28.0412C25.5757 26.4818 26.591 25.0198 27.5314 23.5167C27.6105 23.3904 27.7004 23.2723 27.8094 23.1172H27.8067Z" fill="#3E1A51"/>
<path d="M22.9873 27.4918C20.2003 22.8849 17.1556 18.5291 14.9613 13.6751C14.4816 12.6153 14.0291 11.4979 13.8356 10.3613C13.3845 7.70639 14.1981 5.3233 15.9331 3.33007C18.4939 0.385524 21.7635 -0.646782 25.4978 0.395133C29.1966 1.42744 31.3813 4.01507 32.1691 7.79424C32.5275 9.51155 32.1173 11.1177 31.4713 12.6922C30.3224 15.4899 28.8041 18.0899 27.2409 20.6624C25.9121 22.8492 24.5465 25.0154 23.1972 27.1884C23.1468 27.2708 23.0868 27.3477 22.986 27.4904L22.9873 27.4918ZM23.0064 5.9177C20.8844 5.91358 19.1208 7.68854 19.1263 9.82454C19.1318 11.9647 20.9021 13.7341 23.0201 13.7163C25.1366 13.6984 26.8607 11.9633 26.8743 9.83552C26.8893 7.69952 25.1325 5.92044 23.0064 5.91632V5.9177Z" fill="#FFC127"/>
<path d="M1.24414 37.0697C2.21996 36.7141 3.04178 36.4108 3.86633 36.1142C5.66669 35.4663 7.4657 34.8115 9.27424 34.1897C9.53047 34.1018 9.86846 34.1004 10.1233 34.191C14.1861 35.6352 18.2434 37.093 22.2939 38.5687C22.7777 38.7444 23.2056 38.7582 23.6894 38.5811C27.7249 37.1136 31.7673 35.6681 35.8041 34.2034C36.1707 34.0702 36.4924 34.0702 36.859 34.2034C39.2658 35.0833 41.6795 35.9454 44.0904 36.8143C44.2594 36.8747 44.4243 36.9461 44.7242 37.0669C44.4666 37.1809 44.3303 37.2509 44.1872 37.303C37.2624 39.7932 30.3389 42.2861 23.4087 44.7612C23.1675 44.8477 22.8445 44.8463 22.6032 44.7612C15.6743 42.2861 8.7509 39.7946 1.82745 37.3044C1.6789 37.2509 1.53443 37.1864 1.24414 37.0683V37.0697Z" fill="#3E1A51"/>
<path d="M44.5628 4.16859C44.2534 4.16859 44.0231 4.16859 43.7927 4.16859C42.1123 4.16859 40.4319 4.17133 38.7514 4.16584C38.1872 4.16447 37.8574 3.89267 37.8479 3.4479C37.8383 2.99901 38.1681 2.70524 38.7215 2.70387C40.8516 2.69837 42.9805 2.697 45.1107 2.70387C45.7389 2.70524 45.9952 2.96469 45.9965 3.58929C46.0006 5.73352 46.0006 7.87775 45.9965 10.0234C45.9965 10.5807 45.7158 10.9225 45.2783 10.9225C44.8394 10.9225 44.5669 10.593 44.5655 10.0206C44.56 8.2786 44.5628 6.5352 44.5628 4.79319C44.5628 4.61199 44.5628 4.42941 44.5628 4.16859Z" fill="#3E1A51"/>
<path d="M1.43861 4.16916C1.43861 4.62491 1.43861 5.00791 1.43861 5.38953C1.43861 6.96408 1.44406 8.53999 1.43316 10.1145C1.43044 10.606 1.13742 10.9176 0.729914 10.9231C0.322412 10.9272 0.00894946 10.606 0.00758658 10.1324C0.000772171 7.92088 -0.000590711 5.70938 0.00758658 3.49789C0.00894946 2.99134 0.274712 2.71268 0.781704 2.70993C2.97731 2.69758 5.17427 2.69895 7.36988 2.70993C7.84961 2.71268 8.15762 3.02978 8.15353 3.44298C8.14944 3.87265 7.8278 4.16504 7.30718 4.16779C5.55997 4.17603 3.81275 4.17053 2.0669 4.17191C1.88564 4.17191 1.70438 4.17191 1.43861 4.17191V4.16916Z" fill="#3E1A51"/>
<path d="M1.46637 47.5787C2.20642 47.5787 2.90149 47.5787 3.59792 47.5787C4.81225 47.5787 6.02794 47.576 7.24227 47.5787C7.82013 47.5801 8.13632 47.8299 8.15131 48.2788C8.1663 48.7442 7.83648 49.0215 7.23545 49.0215C5.12162 49.0256 3.00915 49.027 0.895323 49.0215C0.241139 49.0187 0.00536033 48.7675 0.00399745 48.099C0.00127168 45.9712 0.00127168 43.8435 0.00399745 41.7143C0.00399745 41.1364 0.262945 40.8262 0.722236 40.8262C1.18698 40.8262 1.43366 41.1199 1.43502 41.7171C1.44048 43.4591 1.43639 45.2025 1.43911 46.9445C1.43911 47.1408 1.45547 47.3371 1.46637 47.5773V47.5787Z" fill="#3E1A51"/>
<path d="M44.5313 47.5772C44.5436 47.348 44.5613 47.153 44.5613 46.9567C44.564 45.2806 44.5613 43.6059 44.5627 41.9297C44.5627 41.7787 44.5586 41.6277 44.5749 41.4781C44.6213 41.069 44.8557 40.8357 45.2645 40.8302C45.6993 40.8247 45.9337 41.0773 45.991 41.5001C46.0046 41.5989 45.9964 41.7005 45.9964 41.8007C45.9964 43.879 45.9964 45.956 45.9964 48.0343C45.9964 48.7948 45.7756 49.02 45.0165 49.0213C42.9531 49.0255 40.8897 49.0213 38.8263 49.0213C38.7431 49.0213 38.66 49.0227 38.5769 49.0159C38.1258 48.9788 37.8423 48.6946 37.8477 48.2883C37.8532 47.8806 38.1421 47.5841 38.5946 47.58C39.9752 47.5676 41.3572 47.5745 42.7378 47.5745C43.3183 47.5745 43.8989 47.5745 44.5286 47.5745L44.5313 47.5772Z" fill="#3E1A51"/>
<path d="M23.0051 5.91797C25.1312 5.92209 26.888 7.70117 26.873 9.83716C26.858 11.9636 25.134 13.7001 23.0188 13.7179C20.9008 13.7358 19.1305 11.9649 19.125 9.82618C19.1196 7.69019 20.8831 5.91522 23.0051 5.91934V5.91797Z" fill="white"/>
</g>
<defs>
<clipPath id="clip0_9113_1033">
<rect width="46" height="49.0263" fill="white"/>
</clipPath>
</defs>
</svg>
