<svg width="40" height="40" viewBox="0 0 40 40" fill="none" xmlns="http://www.w3.org/2000/svg">
<path d="M24.3181 32.1668C27.4839 32.1668 30.6497 32.1708 33.8155 32.1647C34.9376 32.1627 35.6488 31.4442 35.6488 30.3251C35.6519 24.6037 35.6519 18.8823 35.6488 13.161C35.6488 12.0266 34.9295 11.3001 33.7882 11.295C31.7232 11.2869 29.6572 11.291 27.5922 11.294C27.0812 11.294 26.9497 11.4326 26.9477 11.9558C26.9446 12.8392 26.9507 13.7226 26.9457 14.606C26.9416 15.3356 26.631 15.6493 25.9015 15.6533C24.8685 15.6594 23.8365 15.6584 22.8035 15.6533C22.0619 15.6493 21.7341 15.3224 21.73 14.5827C21.725 13.7135 21.73 12.8432 21.728 11.974C21.727 11.4023 21.6147 11.294 21.0299 11.293C19.0327 11.292 17.0355 11.291 15.0382 11.293C13.728 11.293 13.0481 11.9679 13.0471 13.2682C13.0461 18.9076 13.0461 24.548 13.0471 30.1874C13.0471 31.5039 13.7078 32.1657 15.0241 32.1657C18.1221 32.1678 21.2201 32.1657 24.3181 32.1657V32.1668ZM37.383 37.3822C38.0052 37.3822 38.5597 37.3943 39.1141 37.3791C39.6544 37.365 39.9721 37.0472 39.9862 36.5079C40.0014 35.924 40.0024 35.3391 39.9832 34.7552C39.967 34.2614 39.6493 33.9589 39.1556 33.9244C39.02 33.9153 38.8844 33.9184 38.7479 33.9184C26.2496 33.9184 13.7503 33.9184 1.25199 33.9184C1.14373 33.9184 1.03446 33.9164 0.926203 33.9194C0.336346 33.9406 0.0206767 34.2462 0.00651205 34.8301C-0.00461732 35.3189 0.00145324 35.8086 0.00347676 36.2974C0.00752381 37.0958 0.28677 37.3791 1.07898 37.3832C1.57677 37.3862 2.07354 37.3832 2.6118 37.3832C2.6118 37.9003 2.6118 38.3597 2.6118 38.8181C2.61281 39.744 2.86372 39.9909 3.80365 39.9919C4.45624 39.9919 5.10781 39.9919 5.7604 39.9919C6.69324 39.9919 6.95326 39.7349 6.95326 38.813C6.95326 38.3445 6.95326 37.876 6.95326 37.4075H33.0425C33.0425 37.9579 33.0385 38.4851 33.0435 39.0113C33.0506 39.661 33.3703 39.9838 34.026 39.9899C34.8273 39.9969 35.6296 39.999 36.4309 39.9899C37.0653 39.9828 37.3729 39.6681 37.382 39.0285C37.3901 38.5013 37.384 37.9741 37.384 37.3811L37.383 37.3822ZM6.09327 1.61328e-05C3.22391 -0.00706727 0.877638 2.31932 0.860438 5.19013C0.843238 8.03765 3.18951 10.4086 6.05178 10.4349C8.92215 10.4612 11.2927 8.09938 11.2927 5.21138C11.2917 2.32742 8.97678 0.00709953 6.09327 1.61328e-05ZM4.36821 11.9477V32.1374H7.80213V11.9507C6.64366 12.2351 5.51454 12.2401 4.36821 11.9477Z" fill="white"/>
<path d="M24.3188 32.1693C21.2207 32.1693 18.1225 32.1704 15.0244 32.1693C13.708 32.1693 13.0473 31.5075 13.0473 30.191C13.0473 24.5513 13.0463 18.9107 13.0473 13.271C13.0473 11.9707 13.7283 11.2967 15.0386 11.2957C17.0359 11.2937 19.0332 11.2947 21.0305 11.2957C21.6163 11.2957 21.7276 11.405 21.7286 11.9767C21.7306 12.846 21.7256 13.7163 21.7306 14.5856C21.7347 15.3253 22.0625 15.6522 22.8041 15.6562C23.8372 15.6613 24.8692 15.6623 25.9023 15.6562C26.6318 15.6522 26.9424 15.3385 26.9465 14.6088C26.9515 13.7254 26.9455 12.842 26.9485 11.9585C26.9505 11.4353 27.0821 11.2967 27.593 11.2967C29.6581 11.2937 31.7242 11.2896 33.7893 11.2977C34.9296 11.3028 35.649 12.0284 35.65 13.1638C35.652 18.8854 35.652 24.607 35.65 30.3286C35.65 31.4478 34.9387 32.1663 33.8166 32.1683C30.6507 32.1754 27.4848 32.1704 24.3188 32.1704V32.1693ZM18.6719 29.5595C19.3782 29.5595 20.0834 29.5666 20.7896 29.5575C21.3674 29.5494 21.7195 29.2195 21.7246 28.7074C21.7296 28.1812 21.3613 27.8321 20.7704 27.8291C19.3863 27.823 18.0021 27.824 16.617 27.8291C16.0311 27.8311 15.6568 28.1843 15.6608 28.7054C15.6659 29.2175 16.018 29.5494 16.5947 29.5565C17.2868 29.5656 17.9789 29.5585 18.6709 29.5585L18.6719 29.5595Z" fill="#F7C531"/>
<path d="M37.3834 37.3838C37.3834 37.9768 37.3895 38.504 37.3814 39.0312C37.3713 39.6707 37.0647 39.9854 36.4303 39.9925C35.629 40.0016 34.8277 40.0006 34.0254 39.9925C33.3698 39.9864 33.05 39.6636 33.043 39.014C33.0379 38.4868 33.0419 37.9606 33.0419 37.4101H6.95368C6.95368 37.8786 6.95368 38.3471 6.95368 38.8156C6.95368 39.7365 6.69366 39.9935 5.76082 39.9945C5.10823 39.9945 4.45666 39.9945 3.80407 39.9945C2.86414 39.9945 2.61424 39.7466 2.61222 38.8207C2.61222 38.3613 2.61222 37.9029 2.61222 37.3858C2.07396 37.3858 1.57617 37.3878 1.0794 37.3858C0.2882 37.3818 0.00794202 37.0984 0.00389497 36.3C0.00187145 35.8113 -0.00521088 35.3215 0.00693025 34.8327C0.0210949 34.2489 0.336764 33.9433 0.926621 33.922C1.03488 33.918 1.14415 33.921 1.25241 33.921C13.7507 33.921 26.25 33.921 38.7483 33.921C38.8839 33.921 39.0204 33.918 39.156 33.9271C39.6498 33.9605 39.9674 34.263 39.9836 34.7579C40.0029 35.3417 40.0008 35.9266 39.9867 36.5105C39.9735 37.0499 39.6548 37.3666 39.1145 37.3818C38.5601 37.3969 38.0046 37.3848 37.3834 37.3848V37.3838Z" fill="#3E1A51"/>
<path d="M6.09353 1.61335e-05C8.97717 0.00709984 11.2922 2.32752 11.2922 5.2116C11.2922 8.09972 8.92253 10.4616 6.05103 10.4353C3.18864 10.409 0.842268 8.038 0.859469 5.19035C0.877681 2.31942 3.22405 -0.00706757 6.09353 1.61335e-05ZM8.68577 3.58538C8.66958 3.09256 8.50162 2.82641 8.17279 2.68575C7.81461 2.53193 7.47667 2.5967 7.19741 2.87195C6.62675 3.4346 6.05508 3.99624 5.49859 4.57305C5.13333 4.95152 5.13131 5.47369 5.4652 5.81574C5.79808 6.15778 6.32928 6.16992 6.70668 5.80865C7.29454 5.24499 7.87228 4.66919 8.4308 4.07618C8.57751 3.92034 8.63822 3.68354 8.68678 3.58639L8.68577 3.58538Z" fill="#3E1A51"/>
<path d="M4.36914 11.9492C5.5145 12.2417 6.64469 12.2356 7.8032 11.9523V32.1398H4.36914V11.9492Z" fill="#3E1A51"/>
<path d="M18.6723 29.5578C17.9802 29.5578 17.2881 29.5649 16.5961 29.5558C16.0203 29.5477 15.6672 29.2158 15.6622 28.7048C15.6571 28.1836 16.0325 27.8304 16.6183 27.8284C18.0025 27.8233 19.3866 27.8223 20.7718 27.8284C21.3617 27.8304 21.731 28.1796 21.7259 28.7068C21.7208 29.2188 21.3677 29.5487 20.791 29.5568C20.0858 29.5659 19.3795 29.5588 18.6733 29.5588L18.6723 29.5578Z" fill="white"/>
<path d="M8.6856 3.5872C8.63704 3.68435 8.57633 3.92115 8.42962 4.07699C7.8711 4.66999 7.29336 5.2458 6.7055 5.80946C6.3281 6.17174 5.7969 6.15858 5.46402 5.81654C5.13113 5.4745 5.13215 4.95233 5.49741 4.57386C6.0539 3.99704 6.62557 3.43541 7.19623 2.87276C7.47548 2.59751 7.81343 2.53375 8.17161 2.68656C8.50044 2.82722 8.6684 3.09336 8.68459 3.58619L8.6856 3.5872Z" fill="white"/>
</svg>
