<svg width="92" height="92" viewBox="0 0 92 92" fill="none" xmlns="http://www.w3.org/2000/svg">
<g clip-path="url(#clip0_8077_541)">
<path d="M47.799 11C49.2227 11.2299 50.6629 11.394 52.0702 11.7019C62.4974 13.9758 70.9207 22.8664 72.6283 33.3618C74.9862 47.8633 65.8799 61.2074 51.4818 64.3474C38.4869 67.1836 24.8048 59.4547 20.5006 46.8413C15.8796 33.3208 22.2371 18.9219 35.3637 13.1877C37.9931 12.0385 40.746 11.3571 43.61 11.119C43.8116 11.1026 44.0091 11.041 44.2108 11C45.4082 11 46.6015 11 47.799 11ZM33.3392 55.3255C33.6354 55.1982 33.87 55.112 34.0922 55.0053C37.8902 53.2157 41.6842 51.4138 45.4905 49.6447C45.7703 49.5134 46.2106 49.5011 46.4863 49.6283C50.3173 51.4056 54.1277 53.2157 57.9463 55.0176C58.1603 55.1202 58.3866 55.1982 58.6706 55.3132C58.0986 50.8597 57.5472 46.4965 56.967 42.1374C56.9053 41.6818 56.9834 41.3781 57.3044 41.0415C60.2013 38 63.0859 34.9421 65.9704 31.8842C66.1309 31.7159 66.2749 31.5312 66.4807 31.2931C62.1065 30.4722 57.864 29.6677 53.6216 28.8919C53.0126 28.7811 52.6257 28.5594 52.3171 27.9807C50.379 24.3645 48.3874 20.7771 46.4122 17.1815C46.297 16.9722 46.1653 16.7711 45.9966 16.496C45.8238 16.7916 45.6962 17.0009 45.581 17.2185C43.5853 20.8551 41.5813 24.4877 39.6062 28.1367C39.3757 28.5635 39.0918 28.7729 38.6227 28.8591C35.3267 29.4625 32.0306 30.0781 28.7387 30.6979C27.6976 30.895 26.6565 31.1002 25.5126 31.3218C25.7759 31.605 25.9447 31.7898 26.1175 31.9704C28.9856 35.0078 31.8619 38.041 34.7177 41.0908C34.9069 41.296 35.0839 41.649 35.051 41.9076C34.7382 44.5263 34.3802 47.1368 34.0428 49.7473C33.8041 51.5862 33.5778 53.4209 33.3392 55.3296V55.3255Z" fill="url(#paint0_linear_8077_541)"/>
<path d="M36.4922 81.4344V67.5732C42.825 69.5106 49.1538 69.5229 55.5154 67.5732V81.4385C51.5775 80.8844 48.5818 78.7993 46.0141 75.8112C43.4464 78.7706 40.4548 80.8967 36.4922 81.4344Z" fill="url(#paint1_linear_8077_541)"/>
<path d="M27.1604 62.7834C28.3043 63.5099 29.3989 64.2077 30.4934 64.9014C30.5305 64.926 30.5716 64.9547 30.6128 64.967C32.2094 65.398 32.5468 66.5268 32.3164 67.988C32.2752 68.2548 32.2629 68.5462 32.3164 68.8089C32.555 69.9787 31.9789 70.578 30.9337 70.9105C29.6993 71.3004 28.4771 71.7191 27.1562 72.1542V62.7793L27.1604 62.7834Z" fill="url(#paint2_linear_8077_541)"/>
<path d="M64.8377 72.0024C63.0601 71.7603 61.4553 71.1897 59.9574 70.3196C59.8216 70.2416 59.7188 69.9912 59.7146 69.8188C59.6941 68.6285 59.6941 67.4381 59.7146 66.2478C59.7146 66.0795 59.8422 65.8497 59.9821 65.7635C61.5869 64.7907 63.2041 63.8425 64.8377 62.8779V72.0065V72.0024Z" fill="url(#paint3_linear_8077_541)"/>
<path d="M33.3422 55.3257C33.5809 53.4171 33.8072 51.5782 34.0458 49.7435C34.3833 47.1289 34.7413 44.5183 35.054 41.9037C35.0828 41.6451 34.91 41.2921 34.7207 41.0869C31.8649 38.0372 28.9886 35.0039 26.1205 31.9665C25.9477 31.7859 25.779 31.6012 25.5156 31.318C26.6596 31.0963 27.7006 30.8911 28.7417 30.6941C32.0378 30.0784 35.3297 29.4586 38.6257 28.8552C39.0907 28.769 39.3747 28.5638 39.6092 28.1328C41.5844 24.4838 43.5883 20.8513 45.5841 17.2146C45.7034 16.9971 45.8309 16.7877 45.9997 16.4922C46.1643 16.7672 46.3 16.9683 46.4153 17.1777C48.3904 20.7733 50.3779 24.3607 52.3202 27.9768C52.6288 28.5556 53.0197 28.7772 53.6246 28.8881C57.8712 29.6638 62.1095 30.4683 66.4837 31.2892C66.278 31.5273 66.1339 31.712 65.9734 31.8803C63.0889 34.9341 60.2085 37.9961 57.3074 41.0376C56.9906 41.3701 56.9124 41.678 56.97 42.1336C57.5502 46.4926 58.1016 50.8558 58.6736 55.3093C58.3855 55.1944 58.1633 55.1164 57.9494 55.0138C54.1307 53.2119 50.3162 51.4017 46.4893 49.6244C46.2136 49.4972 45.7733 49.5136 45.4935 49.6409C41.6872 51.4099 37.8933 53.2119 34.0952 55.0015C33.8689 55.1082 33.6385 55.1944 33.3422 55.3216V55.3257ZM38.4035 48.3684C38.7286 48.2248 38.9385 48.1427 39.1401 48.0442C41.2552 47.0509 43.3661 46.037 45.4976 45.0725C45.7816 44.9452 46.2178 44.9329 46.4976 45.056C48.3987 45.9139 50.2792 46.8251 52.1679 47.7158C52.6164 47.9251 53.065 48.1263 53.5711 48.3561C53.5711 48.1714 53.5793 48.0811 53.5711 47.9949C53.2707 45.7005 52.9868 43.406 52.6576 41.1156C52.5547 40.4096 52.6164 39.8596 53.2008 39.3507C53.8879 38.7473 54.4764 38.0331 55.106 37.364C56.1429 36.264 57.1799 35.1681 58.2744 34.0065C58.0234 33.9367 57.8547 33.8792 57.686 33.8464C55.3199 33.3949 52.9497 32.9598 50.5878 32.4755C50.2874 32.4139 49.9335 32.1553 49.7813 31.8885C48.6291 29.8567 47.5222 27.7962 46.3947 25.748C46.2836 25.5428 46.156 25.3499 45.9873 25.0708C44.6993 27.4186 43.4731 29.6433 42.2633 31.8803C42.0617 32.2579 41.8189 32.4508 41.3827 32.5206C40.2264 32.7012 39.0825 32.9434 37.9303 33.1609C36.5601 33.4195 35.1939 33.6822 33.7125 33.9654C33.9594 34.2322 34.1199 34.4169 34.2886 34.5975C35.519 35.8987 36.6588 37.3025 38.0085 38.4641C39.3088 39.5887 39.5187 40.7996 39.1977 42.3922C38.8109 44.3172 38.6669 46.2874 38.3994 48.3684H38.4035Z" fill="white"/>
<path d="M38.4017 48.368C38.6692 46.2869 38.8132 44.3167 39.2 42.3917C39.521 40.7991 39.3152 39.5883 38.0108 38.4636C36.6611 37.2979 35.5213 35.8941 34.2909 34.5971C34.1222 34.4206 33.9576 34.2359 33.7148 33.965C35.1962 33.6817 36.5665 33.4191 37.9326 33.1605C39.0807 32.9429 40.2288 32.7007 41.385 32.5201C41.8212 32.4504 42.0599 32.2533 42.2656 31.8798C43.4713 29.6428 44.7017 27.4181 45.9896 25.0703C46.1583 25.3494 46.2859 25.5423 46.397 25.7476C47.5204 27.7958 48.6273 29.8522 49.7836 31.888C49.9358 32.1548 50.2897 32.4134 50.5901 32.475C52.9521 32.9593 55.3223 33.3903 57.6883 33.8459C57.8612 33.8788 58.0257 33.9362 58.2768 34.006C57.1822 35.1676 56.1452 36.2676 55.1083 37.3636C54.4787 38.0326 53.8903 38.7468 53.2031 39.3502C52.6188 39.8633 52.557 40.4133 52.6599 41.1152C52.9932 43.4055 53.273 45.7 53.5734 47.9945C53.5858 48.0806 53.5734 48.1751 53.5734 48.3557C53.0673 48.1258 52.6188 47.9288 52.1702 47.7153C50.2815 46.8246 48.4051 45.9134 46.4999 45.0556C46.2201 44.9283 45.7839 44.9406 45.5 45.072C43.3684 46.0366 41.2616 47.0504 39.1424 48.0437C38.9367 48.1381 38.7309 48.2243 38.4058 48.368H38.4017Z" fill="url(#paint4_linear_8077_541)"/>
</g>
<mask id="mask0_8077_541" style="mask-type:alpha" maskUnits="userSpaceOnUse" x="0" y="0" width="92" height="92">
<rect width="92" height="92" fill="#B3CDFF"/>
</mask>
<g mask="url(#mask0_8077_541)">
</g>
<defs>
<linearGradient id="paint0_linear_8077_541" x1="45.9995" y1="11" x2="45.9995" y2="64.933" gradientUnits="userSpaceOnUse">
<stop stop-color="#EF7B1B"/>
<stop offset="1" stop-color="#B658E8"/>
</linearGradient>
<linearGradient id="paint1_linear_8077_541" x1="46.0038" y1="67.5732" x2="46.0038" y2="81.4385" gradientUnits="userSpaceOnUse">
<stop stop-color="#EF7B1B"/>
<stop offset="1" stop-color="#B658E8"/>
</linearGradient>
<linearGradient id="paint2_linear_8077_541" x1="29.7689" y1="62.7793" x2="29.7689" y2="72.1542" gradientUnits="userSpaceOnUse">
<stop stop-color="#EF7B1B"/>
<stop offset="1" stop-color="#B658E8"/>
</linearGradient>
<linearGradient id="paint3_linear_8077_541" x1="62.2685" y1="62.8779" x2="62.2685" y2="72.0065" gradientUnits="userSpaceOnUse">
<stop stop-color="#EF7B1B"/>
<stop offset="1" stop-color="#B658E8"/>
</linearGradient>
<linearGradient id="paint4_linear_8077_541" x1="45.9958" y1="25.0703" x2="45.9958" y2="48.368" gradientUnits="userSpaceOnUse">
<stop stop-color="#EF7B1B"/>
<stop offset="1" stop-color="#B658E8"/>
</linearGradient>
<clipPath id="clip0_8077_541">
<rect width="54" height="70.4348" fill="white" transform="translate(19 11)"/>
</clipPath>
</defs>
</svg>
