<svg width="92" height="92" viewBox="0 0 92 92" fill="none" xmlns="http://www.w3.org/2000/svg">
<path d="M60.6077 67.7979C59.7941 67.4165 59.0031 67.1653 58.3537 66.7121C57.372 66.0266 56.4847 65.2051 55.5654 64.4328C54.95 63.9153 54.2722 63.768 53.5303 64.0928C52.813 64.4082 52.4939 64.9974 52.4392 65.7698C52.3618 66.8972 52.2523 68.0226 52.1579 69.15C51.9861 71.1858 50.676 72.5246 48.6504 72.5964C46.8664 72.6587 45.0767 72.6568 43.2946 72.5926C41.3578 72.5228 40.0174 71.1423 39.8758 69.218C39.789 68.0434 39.6889 66.8707 39.5813 65.698C39.5153 64.9672 39.1868 64.3912 38.4883 64.091C37.7747 63.785 37.1102 63.8927 36.5099 64.3893C35.5848 65.156 34.6674 65.9303 33.7329 66.6856C32.2359 67.8961 30.4481 67.9263 29.0398 66.6384C27.7051 65.4185 26.4271 64.1249 25.2189 62.7804C23.9862 61.4075 24.0126 59.6343 25.1717 58.1991C25.9268 57.2643 26.7084 56.3522 27.4899 55.4401C28.0091 54.8339 28.1884 54.1692 27.8845 53.4119C27.5749 52.6434 26.9481 52.3318 26.1685 52.26C25.0433 52.1561 23.9182 52.0485 22.7931 51.9579C20.8599 51.8011 19.4837 50.4679 19.4082 48.5379C19.344 46.8478 19.3422 45.1501 19.4082 43.4581C19.4818 41.5489 20.8165 40.2421 22.7289 40.0627C23.9239 39.9513 25.1226 39.8663 26.3119 39.7058C27.9468 39.483 28.5641 37.8967 27.5296 36.6144C26.7744 35.6797 25.974 34.7846 25.2132 33.8536C24.0145 32.3844 23.9692 30.6244 25.2246 29.2175C26.429 27.8692 27.707 26.5737 29.0455 25.3595C30.4783 24.0602 32.2151 24.0942 33.7329 25.3141C34.6504 26.0525 35.5509 26.8098 36.4532 27.567C37.0668 28.0826 37.7426 28.2393 38.4864 27.9126C39.2396 27.584 39.536 26.9533 39.5945 26.1658C39.6814 24.9912 39.7814 23.8185 39.8872 22.6458C40.042 20.8952 41.32 19.528 43.0832 19.4393C44.9823 19.343 46.8928 19.3241 48.79 19.4298C50.7873 19.5412 51.9937 20.8594 52.1598 22.8497C52.2561 23.9998 52.3599 25.1498 52.4486 26.2999C52.5052 27.0458 52.8432 27.6029 53.5284 27.9107C54.2401 28.2299 54.9084 28.1071 55.5069 27.6161C56.3809 26.8985 57.2493 26.1753 58.1177 25.4501C59.7695 24.0716 61.4969 24.013 63.0789 25.4463C64.4022 26.6436 65.6538 27.9296 66.8394 29.2647C68.0362 30.6093 67.9966 32.3863 66.8601 33.795C66.105 34.7298 65.3235 35.6419 64.5381 36.5521C64.0171 37.1583 63.8359 37.8268 64.1323 38.5803C64.4211 39.3168 65.0101 39.6529 65.7728 39.7266C66.9677 39.8418 68.1627 39.9569 69.3577 40.0684C71.0624 40.2289 72.4065 41.343 72.533 43.0388C72.6802 45.0009 72.6783 46.9913 72.5349 48.9553C72.4103 50.6435 71.0605 51.7822 69.3709 51.9484C68.2458 52.0579 67.1207 52.1618 65.9955 52.2487C65.163 52.3129 64.4702 52.5886 64.1379 53.4138C63.8094 54.2277 64.0624 54.9189 64.6212 55.5553C65.3669 56.4051 66.0956 57.27 66.8092 58.1462C68.0079 59.6154 68.0608 61.3811 66.8035 62.7861C65.567 64.1684 64.2531 65.4941 62.8636 66.7234C62.2879 67.2333 61.4289 67.424 60.6096 67.7998L60.6077 67.7979ZM57.5948 46.0056C57.5948 39.5906 52.4203 34.4107 46.0131 34.4125C39.6134 34.4125 34.4087 39.6076 34.405 45.998C34.4012 52.3733 39.6304 57.608 46.0055 57.608C52.3995 57.608 57.5948 52.4054 57.5948 46.0056Z" fill="url(#paint0_linear_8077_532)"/>
<path d="M75.9188 64.5252C77.1129 64.2408 78.2863 63.9316 79.4747 63.6987C79.7699 63.6415 80.1968 63.7255 80.4092 63.9201C80.7722 64.2503 80.5258 64.8821 79.9918 65.0157C78.149 65.4776 76.3006 65.9108 74.4521 66.3422C73.9143 66.4681 73.6059 66.2028 73.4837 65.6761C73.0681 63.8934 72.6488 62.1127 72.2351 60.332C72.1223 59.8453 72.1637 59.3777 72.7315 59.2555C73.2938 59.1353 73.5063 59.5361 73.6191 60.0285C73.8974 61.2538 74.1907 62.4753 74.516 63.8514C74.7661 63.4449 74.9542 63.1548 75.1253 62.8571C86.1689 43.4771 75.7552 18.568 54.2866 13.4243C42.5134 10.6034 32.1072 13.6285 23.29 22.097C23.1358 22.2439 22.9854 22.3947 22.8387 22.5493C22.4927 22.9119 22.0903 23.1295 21.6804 22.7192C21.2704 22.3088 21.4585 21.8908 21.8346 21.5492C23.0399 20.4537 24.1851 19.278 25.4656 18.2836C32.2539 13.0139 39.9485 10.5786 48.4724 11.0595C63.9933 11.9356 77.0038 23.2498 80.2062 38.6846C82.0508 47.5768 80.68 55.9995 76.1614 63.8686C76.0787 64.0118 75.9959 64.1568 75.9207 64.3038C75.9019 64.34 75.9188 64.3935 75.9188 64.5252Z" fill="url(#paint1_linear_8077_532)"/>
<path d="M16.2117 27.4454C14.9197 27.7488 13.7406 28.0102 12.569 28.3118C12.0425 28.4473 11.593 28.4224 11.4576 27.8175C11.3278 27.2374 11.751 27.0351 12.2249 26.9225C13.9588 26.5122 15.6945 26.1095 17.4227 25.6744C18.0885 25.5065 18.3969 25.7927 18.5379 26.3996C18.9535 28.182 19.3672 29.9625 19.7828 31.7449C19.8863 32.1915 19.8148 32.5808 19.3353 32.7182C18.8313 32.8632 18.536 32.6037 18.4176 32.1018C18.1261 30.8537 17.8308 29.6056 17.5093 28.2411C17.3532 28.4358 17.2309 28.556 17.1463 28.6992C13.7707 34.43 12.176 40.636 12.4675 47.3038C12.868 56.4906 16.4129 64.2615 23.0043 70.5476C28.2209 75.5208 34.4324 78.4959 41.5522 79.2955C52.2413 80.4959 61.4316 77.1849 69.0949 69.5228C69.4729 69.145 69.866 68.8014 70.3455 69.3014C70.716 69.6869 70.5392 70.0743 70.2026 70.4235C67.7729 72.9407 65.048 75.0628 61.992 76.7421C56.5535 79.7325 50.735 81.1333 44.5574 80.9901C28.8396 80.6237 15.0927 69.1106 11.8224 53.5021C9.93247 44.4813 11.3015 35.9586 15.9127 27.9912C15.9935 27.8518 16.0687 27.7087 16.2098 27.4492L16.2117 27.4454Z" fill="url(#paint2_linear_8077_532)"/>
<path d="M56.9715 45.996C56.9715 52.0513 52.0562 56.9706 46.0068 56.9706C39.9769 56.9706 35.0277 52.0191 35.0313 45.9888C35.0348 39.9442 39.9591 35.0303 46.0139 35.0303C52.0759 35.0303 56.9715 39.9281 56.9715 45.996Z" fill="white"/>
<path d="M50.6967 41.3668H47.423C47.9979 41.878 48.4146 42.6095 48.5342 43.6299H50.6967V44.7389H48.5535C48.3548 47.002 46.7479 48.4453 44.2074 48.5337C45.7545 50.3309 47.4424 52.594 49.1091 54.8808H47.205C45.6578 52.7946 44.2091 50.8637 42.3438 48.6439V47.2675H43.4356C45.5787 47.2675 46.7303 46.2686 46.8692 44.7369H42.3455V43.628H46.8112C46.5334 42.3401 45.482 41.6971 43.7555 41.6971H42.3473V40.2539H50.702V41.3629L50.6967 41.3668Z" fill="url(#paint3_linear_8077_532)"/>
<mask id="mask0_8077_532" style="mask-type:alpha" maskUnits="userSpaceOnUse" x="0" y="0" width="92" height="92">
<rect width="92" height="92" fill="#B3CDFF"/>
</mask>
<g mask="url(#mask0_8077_532)">
</g>
<defs>
<linearGradient id="paint0_linear_8077_532" x1="46.0012" y1="19.3584" x2="46.0012" y2="72.642" gradientUnits="userSpaceOnUse">
<stop stop-color="#EF7B1B"/>
<stop offset="1" stop-color="#B658E8"/>
</linearGradient>
<linearGradient id="paint1_linear_8077_532" x1="51.2253" y1="11" x2="51.2253" y2="66.3731" gradientUnits="userSpaceOnUse">
<stop stop-color="#EF7B1B"/>
<stop offset="1" stop-color="#B658E8"/>
</linearGradient>
<linearGradient id="paint2_linear_8077_532" x1="40.7761" y1="25.627" x2="40.7761" y2="81.0001" gradientUnits="userSpaceOnUse">
<stop stop-color="#EF7B1B"/>
<stop offset="1" stop-color="#B658E8"/>
</linearGradient>
<linearGradient id="paint3_linear_8077_532" x1="46.5229" y1="40.2539" x2="46.5229" y2="54.8808" gradientUnits="userSpaceOnUse">
<stop stop-color="#EF7B1B"/>
<stop offset="1" stop-color="#B658E8"/>
</linearGradient>
</defs>
</svg>
