<svg width="92" height="92" viewBox="0 0 92 92" fill="none" xmlns="http://www.w3.org/2000/svg">
<mask id="mask0_8077_542" style="mask-type:alpha" maskUnits="userSpaceOnUse" x="0" y="0" width="92" height="92">
<path d="M0 0H92V92H0V0Z" fill="#B3CDFF"/>
</mask>
<g mask="url(#mask0_8077_542)">
<path d="M46.565 9C51.7859 9.05733 56.4476 12.6879 57.6578 17.7128C58.3555 20.6103 57.9014 23.4381 57.0576 26.2209C55.7421 30.564 53.536 34.4382 51.2773 38.2817C49.8488 40.7123 48.3969 43.1285 46.9645 45.557C46.7131 45.983 46.4851 46.2512 46.144 45.6492C43.4819 40.9641 40.7593 36.3139 38.1791 31.5797C36.7038 28.8726 35.6767 25.9506 35.1817 22.8443C33.8838 14.6761 39.7927 9.86412 44.8285 9.17815C45.4054 9.10034 45.9881 9.05733 46.5669 9H46.565ZM46.4597 29.9497C46.4734 29.8739 46.489 29.7961 46.5026 29.7204C46.793 29.7204 47.0951 29.7736 47.3737 29.7122C48.6931 29.4173 50.032 29.1818 51.3104 28.7477C52.1757 28.4549 52.5889 27.6993 52.5226 26.6407C52.3238 23.4791 49.8079 20.9113 46.7248 20.7987C43.6378 20.6861 40.9191 23.0491 40.5313 26.18C40.3462 27.6809 40.658 28.4508 42.0202 28.9095C43.4565 29.3927 44.9747 29.6159 46.4558 29.9518L46.4597 29.9497ZM49.2856 16.1996C49.3051 14.5533 48.0519 13.208 46.5007 13.21C45.0059 13.2141 43.7606 14.4919 43.7255 16.0563C43.6904 17.7169 44.9045 19.052 46.4734 19.0745C48.0052 19.0971 49.2661 17.807 49.2856 16.1976V16.1996Z" fill="url(#paint0_linear_8077_542)"/>
<path d="M71.0209 81.998C70.858 81.821 70.7195 81.7116 70.634 81.5744C68.0579 77.4214 65.4309 73.2944 62.9343 69.0957C61.2746 66.3052 59.9815 63.3457 59.3013 60.1554C58.0672 54.3735 60.682 49.2759 66.0846 46.9886C71.3956 44.7391 77.735 46.4356 81.034 50.9903C82.9401 53.6217 83.3107 56.5574 82.7792 59.6502C82.1052 63.5744 80.3905 67.1127 78.35 70.4959C76.112 74.2113 73.7457 77.8531 71.4302 81.5246C71.3305 81.6838 71.1838 81.813 71.0209 82V81.998ZM70.9313 66.2734C70.9435 66.2237 70.9537 66.174 70.9659 66.1242C71.6746 66.0745 72.4037 66.1123 73.0859 65.9572C74.1611 65.7125 75.2343 65.4042 76.2566 64.9985C76.9449 64.726 77.3277 64.1233 77.3013 63.3317C77.1913 60.219 74.7109 57.6871 71.475 57.4027C68.3654 57.1282 65.4533 59.2823 64.82 62.3273C64.4575 64.0696 64.8241 64.8672 66.5652 65.3923C67.9785 65.8199 69.4732 65.989 70.9313 66.2734ZM73.8902 52.8938C73.8862 51.3106 72.6195 50.0694 71.0026 50.0655C69.3999 50.0615 68.0905 51.3145 68.0701 52.8699C68.0498 54.4471 69.3877 55.7479 71.0168 55.7379C72.6277 55.728 73.8943 54.475 73.8902 52.8918V52.8938Z" fill="url(#paint1_linear_8077_542)"/>
<path d="M22.039 81.998C21.8619 81.8131 21.7214 81.7077 21.6359 81.5705C19.0361 77.3725 16.3834 73.2063 13.8691 68.9626C12.1508 66.0612 10.8235 62.9808 10.2086 59.6439C9.07059 53.4712 12.6761 47.9448 18.8814 46.3817C24.9523 44.8525 31.4467 48.0542 33.3869 53.5527C34.3233 56.2095 34.0831 58.8782 33.3624 61.5331C32.314 65.4069 30.3901 68.895 28.2891 72.2935C26.3611 75.4117 24.3639 78.4881 22.3953 81.5804C22.3179 81.7017 22.2059 81.8051 22.039 82V81.998ZM21.9677 66.2759C21.98 66.2222 21.9901 66.1686 22.0023 66.1149C22.3566 66.095 22.7108 66.0751 23.0651 66.0532C24.4902 65.9657 25.8908 65.7649 27.1673 65.0828C27.9735 64.6512 28.3603 64.0228 28.2952 63.0782C28.0896 60.0595 25.4674 57.5498 22.2955 57.3908C19.1786 57.2356 16.2918 59.4709 15.793 62.424C15.508 64.1103 15.8541 64.866 17.5275 65.3751C18.9628 65.8126 20.4836 65.9856 21.9657 66.2759H21.9677ZM19.0992 52.9024C19.0992 54.4814 20.3716 55.7303 21.984 55.7362C23.5822 55.7422 24.8973 54.4854 24.9197 52.9323C24.9421 51.3553 23.6066 50.0547 21.9759 50.0647C20.3614 50.0746 19.0972 51.3195 19.0992 52.9024Z" fill="url(#paint2_linear_8077_542)"/>
<path d="M46.8801 77.998C41.217 77.9509 36.3422 76.6986 31.8284 74.1737C31.2495 73.8504 30.8329 73.4657 31.0658 72.7639C31.3029 72.0518 31.9993 71.8963 32.8281 72.2544C34.834 73.122 36.7951 74.1573 38.8907 74.7527C46.1666 76.8255 53.1499 75.9784 59.7764 72.4304C59.8917 72.369 60.0028 72.2974 60.1203 72.236C60.8808 71.837 61.5046 71.9475 61.8464 72.5409C62.1732 73.1076 61.9788 73.6581 61.261 74.0693C57.5953 76.1646 53.6433 77.4373 49.3901 77.8343C48.4096 77.9263 47.4248 77.9652 46.8801 78V77.998Z" fill="url(#paint3_linear_8077_542)"/>
<path d="M21.9333 40.9996C21.2954 41.0201 20.7737 40.2642 21.1003 39.4239C21.9859 37.1539 23.1982 35.0442 24.6932 33.0761C26.71 30.424 29.141 28.1664 32.0017 26.3154C32.758 25.8265 33.4705 25.9148 33.8409 26.5188C34.1807 27.0714 33.9768 27.6302 33.2228 28.1273C30.8114 29.7132 28.7201 31.6073 26.9533 33.8177C25.4385 35.7118 24.2241 37.762 23.3297 39.9745C23.1149 40.5086 22.8321 40.9482 21.9333 40.9996Z" fill="url(#paint4_linear_8077_542)"/>
<path d="M72 40.2075C71.8035 40.4168 71.5611 40.8975 71.214 40.9784C70.8275 41.0675 70.3013 40.8665 69.9279 40.6489C69.6987 40.5142 69.6332 40.1184 69.5109 39.8324C67.5196 35.1368 64.3645 31.3053 60.0457 28.338C59.0239 27.6355 58.7684 27.0843 59.2029 26.4688C59.6658 25.814 60.3055 25.8389 61.3841 26.5828C66.1309 29.8548 69.5851 34.0759 71.7205 39.2647C71.7904 39.4325 71.8559 39.6024 71.9148 39.7744C71.9411 39.8469 71.9454 39.9257 71.9978 40.2096L72 40.2075Z" fill="url(#paint5_linear_8077_542)"/>
<path d="M46.4542 30C45.1 29.6333 43.7155 29.3895 42.4041 28.8618C41.1584 28.3609 40.8755 27.5201 41.0445 25.8809C41.3969 22.464 43.881 19.8812 46.6997 20.0042C49.5149 20.1272 51.8122 22.9336 51.9937 26.3841C52.0542 27.5402 51.677 28.3653 50.8869 28.6851C49.7195 29.1592 48.497 29.4164 47.2923 29.7384C47.0378 29.8055 46.762 29.7473 46.4969 29.7473C46.4844 29.8301 46.4702 29.915 46.4577 29.9978L46.4542 30Z" fill="white"/>
<path d="M50.9996 16.0564C50.9681 17.703 48.9274 19.0227 46.4484 18.9997C43.9094 18.9767 41.9444 17.6108 42.0012 15.9119C42.0548 14.3114 44.0702 13.0042 46.4925 13C49.0031 12.9958 51.0312 14.3721 50.9996 16.0585V16.0564Z" fill="white"/>
<path d="M69.9259 67C68.307 66.6802 66.6474 66.4901 65.0783 66.0094C63.1451 65.419 62.7381 64.52 63.1406 62.5634C63.8437 59.1397 67.077 56.7179 70.5296 57.0265C74.1223 57.3485 76.8785 60.1952 76.9984 63.6926C77.03 64.5826 76.6049 65.2602 75.8384 65.5666C74.7034 66.0228 73.5141 66.3694 72.318 66.6444C71.5583 66.8189 70.7512 66.7764 69.9643 66.8323C69.9508 66.8882 69.9395 66.9441 69.9259 67Z" fill="white"/>
<path d="M73 52.4912C73.0035 53.885 71.9154 54.9912 70.5316 55C69.1321 55.0087 67.9827 53.8604 68.0002 52.4719C68.0177 51.101 69.1443 49.9948 70.5193 50C71.9084 50.0035 72.9982 51.0975 73 52.493V52.4912Z" fill="white"/>
<path d="M22.9587 67C21.3118 66.6735 19.6219 66.479 18.027 65.987C16.1696 65.4145 15.7828 64.5648 16.0995 62.6684C16.6537 59.3476 19.8617 56.8341 23.3252 57.0086C26.8498 57.1852 29.7637 60.0073 29.9922 63.4042C30.0646 64.4641 29.6347 65.173 28.7389 65.6583C27.3204 66.4253 25.764 66.6512 24.1804 66.7495C23.7867 66.7741 23.3931 66.7965 22.9994 66.8189C22.9859 66.8792 22.9746 66.9396 22.961 67H22.9587Z" fill="white"/>
<path d="M20 52.5018C20 51.1063 21.0842 50.0071 22.471 50C23.8718 49.9913 25.019 51.1378 24.9998 52.5281C24.9805 53.8973 23.8508 55.0052 22.478 55C21.093 54.9947 20.0017 53.8938 20 52.5018Z" fill="white"/>
</g>
<defs>
<linearGradient id="paint0_linear_8077_542" x1="46.5" y1="9" x2="46.5" y2="46" gradientUnits="userSpaceOnUse">
<stop stop-color="#EF7B1B"/>
<stop offset="1" stop-color="#B658E8"/>
</linearGradient>
<linearGradient id="paint1_linear_8077_542" x1="71" y1="46" x2="71" y2="82" gradientUnits="userSpaceOnUse">
<stop stop-color="#EF7B1B"/>
<stop offset="1" stop-color="#B658E8"/>
</linearGradient>
<linearGradient id="paint2_linear_8077_542" x1="22" y1="46" x2="22" y2="82" gradientUnits="userSpaceOnUse">
<stop stop-color="#EF7B1B"/>
<stop offset="1" stop-color="#B658E8"/>
</linearGradient>
<linearGradient id="paint3_linear_8077_542" x1="46.5" y1="72" x2="46.5" y2="78" gradientUnits="userSpaceOnUse">
<stop stop-color="#EF7B1B"/>
<stop offset="1" stop-color="#B658E8"/>
</linearGradient>
<linearGradient id="paint4_linear_8077_542" x1="27.5" y1="26" x2="27.5" y2="41" gradientUnits="userSpaceOnUse">
<stop stop-color="#EF7B1B"/>
<stop offset="1" stop-color="#B658E8"/>
</linearGradient>
<linearGradient id="paint5_linear_8077_542" x1="65.5" y1="26" x2="65.5" y2="41" gradientUnits="userSpaceOnUse">
<stop stop-color="#EF7B1B"/>
<stop offset="1" stop-color="#B658E8"/>
</linearGradient>
</defs>
</svg>
