<svg width="474" height="291" viewBox="0 0 474 291" fill="none" xmlns="http://www.w3.org/2000/svg">
<g clip-path="url(#clip0_8405_567)">
<g opacity="0.15" filter="url(#filter0_f_8405_567)">
<ellipse cx="236.5" cy="274.5" rx="226.5" ry="7.5" fill="black"/>
</g>
<path d="M127.992 78.6465H406.769C411.398 78.6465 415.161 82.4102 415.161 87.0405V262.732C415.161 267.362 411.398 271.112 406.783 271.112H127.992C123.363 271.112 119.613 267.362 119.613 262.732V87.0405C119.613 82.4102 123.376 78.66 127.992 78.66V78.6465Z" fill="url(#paint0_linear_8405_567)"/>
<path d="M404.318 74.9639H125.527C120.9 74.9639 117.148 78.7159 117.148 83.3443V259.049C117.148 263.677 120.9 267.429 125.527 267.429H404.318C408.945 267.429 412.696 263.677 412.696 259.049V83.3443C412.696 78.7159 408.945 74.9639 404.318 74.9639Z" fill="white"/>
<path d="M134.554 256.152C131.522 256.152 129.059 253.769 129.059 250.832V91.5492C129.059 88.6113 131.522 86.2285 134.554 86.2285H395.289C398.32 86.2285 400.784 88.6113 400.784 91.5492V250.832C400.784 253.769 398.32 256.152 395.289 256.152H134.554Z" fill="url(#paint1_linear_8405_567)"/>
<path d="M383.203 129.159H107.309C107.309 140.18 116.242 149.129 127.273 149.129C137.168 149.129 145.37 141.899 146.927 132.449C148.497 141.899 156.686 149.129 166.594 149.129C176.502 149.129 184.691 141.899 186.261 132.449C187.831 141.913 196.02 149.129 205.928 149.129C215.836 149.129 224.025 141.899 225.595 132.449C227.166 141.913 235.355 149.129 245.262 149.129C255.17 149.129 263.359 141.899 264.93 132.449C266.5 141.899 274.689 149.129 284.597 149.129C294.505 149.129 302.694 141.899 304.264 132.449C305.834 141.899 314.023 149.129 323.931 149.129C333.839 149.129 342.028 141.899 343.598 132.449C345.168 141.913 353.357 149.129 363.265 149.129C373.173 149.129 381.362 141.899 382.932 132.449C384.502 141.913 392.691 149.129 402.599 149.129C413.617 149.129 422.551 140.193 422.551 129.159H383.216H383.203Z" fill="url(#paint2_linear_8405_567)"/>
<path d="M397.578 82.7891H375.163H372.009H132.282L107.309 129.159H372.009H375.163H422.537L397.578 82.7891Z" fill="url(#paint3_linear_8405_567)"/>
<mask id="mask0_8405_567" style="mask-type:luminance" maskUnits="userSpaceOnUse" x="107" y="82" width="316" height="68">
<path d="M397.58 82.7891H132.284L107.324 129.159C107.324 140.179 116.258 149.129 127.289 149.129C137.184 149.129 145.386 141.899 146.943 132.449C148.513 141.899 156.702 149.129 166.61 149.129C176.518 149.129 184.707 141.899 186.277 132.449C187.847 141.912 196.036 149.129 205.944 149.129C215.852 149.129 224.041 141.899 225.611 132.449C227.181 141.912 235.37 149.129 245.278 149.129C255.186 149.129 263.375 141.899 264.945 132.449C266.515 141.899 274.704 149.129 284.612 149.129C294.52 149.129 302.709 141.899 304.279 132.449C305.85 141.899 314.039 149.129 323.947 149.129C333.855 149.129 342.043 141.899 343.614 132.449C345.184 141.912 353.373 149.129 363.281 149.129C373.189 149.129 381.378 141.899 382.948 132.449C384.518 141.912 392.707 149.129 402.615 149.129C413.633 149.129 422.566 140.193 422.566 129.159L397.607 82.7891H397.58Z" fill="white"/>
</mask>
<g mask="url(#mask0_8405_567)">
<path style="mix-blend-mode:screen" opacity="0.3" d="M186.17 67.8428H146.66V176.667H186.17V67.8428Z" fill="url(#paint4_linear_8405_567)"/>
<path style="mix-blend-mode:screen" opacity="0.3" d="M264.932 67.8428H225.422V176.667H264.932V67.8428Z" fill="url(#paint5_linear_8405_567)"/>
<path style="mix-blend-mode:screen" opacity="0.3" d="M343.088 67.8428H303.578V176.667H343.088V67.8428Z" fill="url(#paint6_linear_8405_567)"/>
<path style="mix-blend-mode:screen" opacity="0.3" d="M422.541 67.8428H383.031V176.667H422.541V67.8428Z" fill="url(#paint7_linear_8405_567)"/>
</g>
<path opacity="0.4" d="M301.867 132.489H227.977V220.843H301.867V132.489Z" fill="white"/>
<path d="M271.979 155.438H258.836V159.12H271.979V155.438Z" fill="white"/>
<path d="M273.32 159.12H279.235V155.438H273.32V159.12Z" fill="white"/>
<path d="M279.222 202.741V160.379H251.298V202.525C250.297 202.66 249.512 203.513 249.512 204.556C249.512 205.679 250.419 206.6 251.556 206.6H261.91C263.034 206.6 263.954 205.679 263.954 204.556C263.954 203.757 263.507 203.093 262.844 202.741V165.632C263.71 165.713 264.59 165.767 265.511 165.767C266.242 165.767 266.959 165.74 267.649 165.686V202.538C266.648 202.674 265.863 203.527 265.863 204.569C265.863 205.693 266.783 206.613 267.906 206.613H278.261C279.385 206.613 280.305 205.693 280.305 204.569C280.305 203.77 279.858 203.107 279.195 202.755L279.222 202.741Z" fill="white"/>
<path d="M257.523 159.12V155.438H251.297V159.12H257.523Z" fill="white"/>
<path opacity="0.4" d="M217.379 132.489H143.488V220.843H217.379V132.489Z" fill="white"/>
<path d="M200.23 163.141C198.281 159.824 194.126 158.619 190.728 160.284C189.645 159.12 188.441 158.145 187.155 157.374C187.182 157.604 187.195 157.834 187.195 158.064C187.195 161.787 184.177 164.82 180.441 164.82C176.705 164.82 173.687 161.801 173.687 158.064C173.687 157.82 173.7 157.577 173.728 157.333C172.428 158.105 171.196 159.093 170.1 160.271C166.716 158.633 162.588 159.851 160.639 163.141L153.465 175.326L163.847 181.445V204.705H196.589L196.914 181.513L207.404 175.326L200.23 163.141Z" fill="white"/>
<path opacity="0.4" d="M386.371 132.489H312.48V220.843H386.371V132.489Z" fill="white"/>
<path d="M367.151 164.197L366.812 160.257H360.423H357.635H351.246H347.592H341.203H338.428H332.026L331.688 164.197H367.151Z" fill="white"/>
<path d="M331.5 166.553L328.738 198.951H332.988H342.274H346.524H352.317H356.567H365.853H370.103L367.355 166.553H331.5Z" fill="white"/>
<path opacity="0.4" d="M379.806 237.251C379.806 241.665 376.232 245.239 371.82 245.239H327.017C322.605 245.239 319.031 241.665 319.031 237.251C319.031 232.838 322.605 229.264 327.017 229.264H371.82C376.232 229.264 379.806 232.838 379.806 237.251Z" fill="white"/>
<path d="M335.68 237.419V229.019H339.976C341.08 229.019 341.904 229.223 342.448 229.631C342.992 230.031 343.264 230.559 343.264 231.215C343.264 231.647 343.148 232.027 342.916 232.355C342.692 232.675 342.372 232.931 341.956 233.123C341.548 233.307 341.06 233.399 340.492 233.399L340.732 232.823C341.324 232.823 341.84 232.915 342.28 233.099C342.72 233.275 343.06 233.535 343.3 233.879C343.548 234.215 343.672 234.627 343.672 235.115C343.672 235.843 343.376 236.411 342.784 236.819C342.2 237.219 341.344 237.419 340.216 237.419H335.68ZM338.032 235.703H340.024C340.432 235.703 340.74 235.635 340.948 235.499C341.164 235.355 341.272 235.139 341.272 234.851C341.272 234.563 341.164 234.351 340.948 234.215C340.74 234.071 340.432 233.999 340.024 233.999H337.864V232.355H339.664C340.064 232.355 340.364 232.287 340.564 232.151C340.764 232.015 340.864 231.811 340.864 231.539C340.864 231.267 340.764 231.067 340.564 230.939C340.364 230.803 340.064 230.735 339.664 230.735H338.032V235.703ZM348.779 237.587C347.539 237.587 346.571 237.247 345.875 236.567C345.179 235.887 344.831 234.923 344.831 233.675V229.019H347.207V233.603C347.207 234.323 347.347 234.839 347.627 235.151C347.915 235.463 348.307 235.619 348.803 235.619C349.299 235.619 349.687 235.463 349.967 235.151C350.247 234.839 350.387 234.323 350.387 233.603V229.019H352.727V233.675C352.727 234.923 352.379 235.887 351.683 236.567C350.987 237.247 350.019 237.587 348.779 237.587ZM356.343 237.419V233.867L356.895 235.295L353.139 229.019H355.647L358.359 233.567H356.907L359.631 229.019H361.935L358.191 235.295L358.719 233.867V237.419H356.343Z" fill="white"/>
<path opacity="0.4" d="M295.302 237.251C295.302 241.665 291.728 245.239 287.316 245.239H242.513C238.101 245.239 234.527 241.665 234.527 237.251C234.527 232.838 238.101 229.264 242.513 229.264H287.316C291.728 229.264 295.302 232.838 295.302 237.251Z" fill="white"/>
<path d="M251.192 237.419V229.019H255.488C256.592 229.019 257.416 229.223 257.96 229.631C258.504 230.031 258.776 230.559 258.776 231.215C258.776 231.647 258.66 232.027 258.428 232.355C258.204 232.675 257.884 232.931 257.468 233.123C257.06 233.307 256.572 233.399 256.004 233.399L256.244 232.823C256.836 232.823 257.352 232.915 257.792 233.099C258.232 233.275 258.572 233.535 258.812 233.879C259.06 234.215 259.184 234.627 259.184 235.115C259.184 235.843 258.888 236.411 258.296 236.819C257.712 237.219 256.856 237.419 255.728 237.419H251.192ZM253.544 235.703H255.536C255.944 235.703 256.252 235.635 256.46 235.499C256.676 235.355 256.784 235.139 256.784 234.851C256.784 234.563 256.676 234.351 256.46 234.215C256.252 234.071 255.944 233.999 255.536 233.999H253.376V232.355H255.176C255.576 232.355 255.876 232.287 256.076 232.151C256.276 232.015 256.376 231.811 256.376 231.539C256.376 231.267 256.276 231.067 256.076 230.939C255.876 230.803 255.576 230.735 255.176 230.735H253.544V235.703ZM264.29 237.587C263.05 237.587 262.082 237.247 261.386 236.567C260.69 235.887 260.342 234.923 260.342 233.675V229.019H262.718V233.603C262.718 234.323 262.858 234.839 263.138 235.151C263.426 235.463 263.818 235.619 264.314 235.619C264.81 235.619 265.198 235.463 265.478 235.151C265.758 234.839 265.898 234.323 265.898 233.603V229.019H268.238V233.675C268.238 234.923 267.89 235.887 267.194 236.567C266.498 237.247 265.53 237.587 264.29 237.587ZM271.855 237.419V233.867L272.407 235.295L268.651 229.019H271.159L273.871 233.567H272.419L275.143 229.019H277.447L273.703 235.295L274.231 233.867V237.419H271.855Z" fill="white"/>
<path opacity="0.4" d="M210.813 237.251C210.813 241.665 207.24 245.239 202.828 245.239H158.025C153.612 245.239 150.039 241.665 150.039 237.251C150.039 232.838 153.612 229.264 158.025 229.264H202.828C207.24 229.264 210.813 232.838 210.813 237.251Z" fill="white"/>
<path d="M166.688 237.419V229.019H170.984C172.088 229.019 172.912 229.223 173.456 229.631C174 230.031 174.272 230.559 174.272 231.215C174.272 231.647 174.156 232.027 173.924 232.355C173.7 232.675 173.38 232.931 172.964 233.123C172.556 233.307 172.068 233.399 171.5 233.399L171.74 232.823C172.332 232.823 172.848 232.915 173.288 233.099C173.728 233.275 174.068 233.535 174.308 233.879C174.556 234.215 174.68 234.627 174.68 235.115C174.68 235.843 174.384 236.411 173.792 236.819C173.208 237.219 172.352 237.419 171.224 237.419H166.688ZM169.04 235.703H171.032C171.44 235.703 171.748 235.635 171.956 235.499C172.172 235.355 172.28 235.139 172.28 234.851C172.28 234.563 172.172 234.351 171.956 234.215C171.748 234.071 171.44 233.999 171.032 233.999H168.872V232.355H170.672C171.072 232.355 171.372 232.287 171.572 232.151C171.772 232.015 171.872 231.811 171.872 231.539C171.872 231.267 171.772 231.067 171.572 230.939C171.372 230.803 171.072 230.735 170.672 230.735H169.04V235.703ZM179.786 237.587C178.546 237.587 177.578 237.247 176.882 236.567C176.186 235.887 175.838 234.923 175.838 233.675V229.019H178.214V233.603C178.214 234.323 178.354 234.839 178.634 235.151C178.922 235.463 179.314 235.619 179.81 235.619C180.306 235.619 180.694 235.463 180.974 235.151C181.254 234.839 181.394 234.323 181.394 233.603V229.019H183.734V233.675C183.734 234.923 183.386 235.887 182.69 236.567C181.994 237.247 181.026 237.587 179.786 237.587ZM187.351 237.419V233.867L187.903 235.295L184.147 229.019H186.655L189.367 233.567H187.915L190.639 229.019H192.943L189.199 235.295L189.727 233.867V237.419H187.351Z" fill="white"/>
<path d="M473.998 42.8764C473.998 51.9608 466.634 59.3258 457.552 59.3258H365.362C356.279 59.3258 348.93 51.9608 348.93 42.8764C348.93 33.7919 356.279 26.4404 365.362 26.4404H457.552C466.634 26.4404 473.998 33.8055 473.998 42.8764Z" fill="url(#paint8_linear_8405_567)"/>
<path d="M471.535 40.4262C471.535 49.5106 464.172 56.8621 455.103 56.8621H362.913C353.83 56.8621 346.48 49.4971 346.48 40.4262C346.48 31.3417 353.83 23.9902 362.913 23.9902H455.103C464.185 23.9902 471.535 31.3553 471.535 40.4262Z" fill="white"/>
<path d="M364.44 32.9258L366.877 37.8674L372.331 38.6526L368.393 42.4976L369.313 47.9266L364.44 45.3678L359.567 47.9266L360.501 42.4976L356.562 38.6526L362.004 37.8674L364.44 32.9258Z" fill="url(#paint9_linear_8405_567)"/>
<path d="M386.721 32.9258L389.158 37.8674L394.613 38.6526L390.674 42.4976L391.594 47.9266L386.721 45.3678L381.849 47.9266L382.783 42.4976L378.844 38.6526L384.285 37.8674L386.721 32.9258Z" fill="url(#paint10_linear_8405_567)"/>
<path d="M408.999 32.9258L411.435 37.8674L416.89 38.6526L412.951 42.4976L413.872 47.9266L408.999 45.3678L404.126 47.9266L405.06 42.4976L401.121 38.6526L406.562 37.8674L408.999 32.9258Z" fill="url(#paint11_linear_8405_567)"/>
<path d="M431.28 32.9258L433.716 37.8674L439.171 38.6526L435.232 42.4976L436.153 47.9266L431.28 45.3678L426.407 47.9266L427.341 42.4976L423.402 38.6526L428.857 37.8674L431.28 32.9258Z" fill="url(#paint12_linear_8405_567)"/>
<path d="M453.557 32.9258L455.994 37.8674L461.449 38.6526L457.51 42.4976L458.43 47.9266L453.557 45.3678L448.698 47.9266L449.619 42.4976L445.68 38.6526L451.134 37.8674L453.557 32.9258Z" fill="url(#paint13_linear_8405_567)"/>
<path style="mix-blend-mode:multiply" d="M51.1931 200.074C51.2202 202.024 49.6772 203.608 47.7145 203.608C45.7519 203.608 44.1547 202.024 44.1141 200.074C44.0735 198.111 45.63 196.527 47.5927 196.527C49.5553 196.527 51.1661 198.111 51.1931 200.074Z" fill="url(#paint14_linear_8405_567)"/>
<path style="mix-blend-mode:multiply" d="M97.5916 200.074C97.6322 202.024 96.0756 203.608 94.1129 203.608C92.1503 203.608 90.5531 202.024 90.5125 200.074C90.4719 198.111 92.0285 196.527 93.9911 196.527C95.9538 196.527 97.5645 198.111 97.5916 200.074Z" fill="url(#paint15_linear_8405_567)"/>
<path d="M46.7674 199.032C46.7133 199.763 47.1464 200.386 47.7285 200.413C48.297 200.453 48.8113 199.898 48.8519 199.167C48.8519 199.086 49.3663 191.734 52.5606 184.505C56.6484 175.258 63.0777 170.452 71.6592 170.181C80.2408 170.452 86.4671 175.258 90.1623 184.505C93.0589 191.734 93.2619 199.1 93.2619 199.167C93.2755 199.885 93.7627 200.44 94.3312 200.413C94.9132 200.372 95.3599 199.749 95.3464 199.032C95.3464 198.734 94.4124 169.233 72.7962 167.609C72.6879 167.568 72.5797 167.527 72.4714 167.527C72.2007 167.527 71.957 167.527 71.6999 167.541C71.4427 167.541 71.1855 167.527 70.9283 167.527C70.82 167.527 70.6982 167.554 70.5899 167.609C48.9196 169.233 46.781 198.734 46.7539 199.032H46.7674Z" fill="#3E4992"/>
<path d="M108.744 190.543H77.2607H42.7857H18.4083L0 291H46.4674H80.9423H127.41L108.744 190.543Z" fill="url(#paint16_linear_8405_567)"/>
<path d="M121.264 190.543H89.7802H55.3053H23.8217L12.5195 291H58.9869H93.4619H139.929L121.264 190.543Z" fill="url(#paint17_linear_8405_567)"/>
<path style="mix-blend-mode:multiply" d="M58.9604 200.074C59.177 202.024 57.7693 203.608 55.8202 203.608C53.8711 203.608 52.0979 202.024 51.8814 200.074C51.6648 198.111 53.0725 196.527 55.0351 196.527C56.9978 196.527 58.7574 198.111 58.9604 200.074Z" fill="url(#paint18_linear_8405_567)"/>
<path style="mix-blend-mode:multiply" d="M105.359 200.074C105.575 202.024 104.168 203.608 102.219 203.608C100.27 203.608 98.4964 202.024 98.2798 200.074C98.0632 198.111 99.4709 196.527 101.42 196.527C103.369 196.527 105.142 198.111 105.359 200.074Z" fill="url(#paint19_linear_8405_567)"/>
<path d="M54.4392 199.032C54.4528 199.763 54.94 200.386 55.5221 200.413C56.1041 200.453 56.5508 199.898 56.5372 199.167C56.5372 199.086 56.3613 191.734 58.8789 184.505C62.1003 175.258 68.083 170.452 76.6375 170.181C85.2325 170.452 91.9191 175.258 96.4805 184.505C100.04 191.734 100.934 199.1 100.947 199.167C101.028 199.885 101.57 200.44 102.138 200.413C102.707 200.372 103.099 199.749 103.018 199.032C102.978 198.734 99.3094 169.233 77.5579 167.609C77.4496 167.568 77.3413 167.527 77.2195 167.527C76.9488 167.527 76.7051 167.527 76.448 167.541C76.1908 167.541 75.9336 167.527 75.6629 167.527C75.5546 167.527 75.4463 167.554 75.3381 167.609C53.8166 169.233 54.4122 198.734 54.4257 199.032H54.4392Z" fill="#3E4992"/>
<mask id="mask1_8405_567" style="mask-type:luminance" maskUnits="userSpaceOnUse" x="12" y="190" width="128" height="101">
<path d="M121.264 190.543H89.7802H55.3053H23.8217L12.5195 291H58.9869H93.4619H139.929L121.264 190.543Z" fill="white"/>
</mask>
<g mask="url(#mask1_8405_567)">
<g style="mix-blend-mode:screen" opacity="0.3">
<path d="M13.9963 302.088C14.8897 289.51 16.365 277.786 28.7365 271.897C42.5562 266.278 58.6094 268.58 72.2802 263.679C87.6836 257.613 95.4936 244.102 103.317 230.59C112.548 213.599 123.228 196.879 139.443 186.468C192.286 153.027 204.333 235.559 200.028 269.988C190.784 346.21 116.447 413.809 37.5887 383.063C15.986 374.452 -8.03949 354.889 -3.80287 328.691C-1.59659 317.116 5.96976 308.803 15.9048 303.943C16.0402 303.212 15.1468 300.043 15.5935 301.627" fill="url(#paint20_linear_8405_567)"/>
</g>
</g>
<path style="mix-blend-mode:multiply" d="M144.626 226.691C144.653 228.072 143.557 229.196 142.162 229.196C140.768 229.196 139.645 228.072 139.618 226.691C139.591 225.31 140.687 224.187 142.081 224.187C143.475 224.187 144.612 225.31 144.626 226.691Z" fill="url(#paint21_linear_8405_567)"/>
<path style="mix-blend-mode:multiply" d="M177.45 226.691C177.477 228.072 176.381 229.196 174.987 229.196C173.592 229.196 172.455 228.072 172.442 226.691C172.415 225.31 173.511 224.187 174.905 224.187C176.3 224.187 177.423 225.31 177.45 226.691Z" fill="url(#paint22_linear_8405_567)"/>
<path d="M141.498 225.947C141.471 226.461 141.769 226.894 142.175 226.922C142.581 226.949 142.933 226.556 142.973 226.042C142.973 225.987 143.339 220.775 145.599 215.671C148.482 209.132 153.03 205.734 159.108 205.544C165.171 205.734 169.584 209.132 172.196 215.671C174.24 220.775 174.389 225.987 174.389 226.042C174.403 226.556 174.741 226.949 175.161 226.922C175.567 226.894 175.892 226.461 175.878 225.947C175.878 225.73 175.215 204.867 159.933 203.716C159.865 203.689 159.784 203.662 159.703 203.662C159.514 203.662 159.338 203.662 159.162 203.662C158.986 203.662 158.796 203.662 158.607 203.662C158.525 203.662 158.444 203.676 158.363 203.716C143.041 204.867 141.525 225.73 141.511 225.947H141.498Z" fill="#3E4992"/>
<path d="M185.342 219.949H163.076H138.685H121.455L108.434 291H141.298H165.689H198.553L185.342 219.949Z" fill="url(#paint23_linear_8405_567)"/>
<path d="M194.194 219.949H171.928H147.551H125.285L117.285 291H150.149H174.54H207.405L194.194 219.949Z" fill="url(#paint24_linear_8405_567)"/>
<path style="mix-blend-mode:multiply" d="M150.125 226.691C150.273 228.072 149.285 229.196 147.905 229.196C146.524 229.196 145.279 228.072 145.116 226.691C144.968 225.31 145.956 224.187 147.336 224.187C148.717 224.187 149.962 225.31 150.125 226.691Z" fill="url(#paint25_linear_8405_567)"/>
<path style="mix-blend-mode:multiply" d="M182.949 226.691C183.098 228.072 182.11 229.196 180.729 229.196C179.348 229.196 178.103 228.072 177.941 226.691C177.792 225.31 178.78 224.187 180.16 224.187C181.541 224.187 182.786 225.31 182.949 226.691Z" fill="url(#paint26_linear_8405_567)"/>
<path d="M146.942 225.947C146.956 226.461 147.308 226.894 147.714 226.922C148.12 226.949 148.445 226.556 148.431 226.042C148.431 225.987 148.309 220.775 150.083 215.671C152.357 209.132 156.593 205.734 162.644 205.544C168.735 205.734 173.445 209.132 176.68 215.671C179.198 220.775 179.834 225.987 179.834 226.042C179.888 226.556 180.267 226.949 180.673 226.922C181.079 226.894 181.363 226.461 181.296 225.947C181.268 225.73 178.683 204.867 163.28 203.716C163.199 203.689 163.117 203.662 163.036 203.662C162.86 203.662 162.671 203.662 162.495 203.662C162.305 203.662 162.129 203.662 161.94 203.662C161.859 203.662 161.777 203.676 161.71 203.716C146.482 204.867 146.915 225.73 146.915 225.947H146.942Z" fill="#3E4992"/>
<mask id="mask2_8405_567" style="mask-type:luminance" maskUnits="userSpaceOnUse" x="117" y="219" width="91" height="72">
<path d="M194.194 219.949H171.928H147.551H125.285L117.285 291H150.149H174.54H207.405L194.194 219.949Z" fill="white"/>
</mask>
<g mask="url(#mask2_8405_567)">
<g style="mix-blend-mode:screen" opacity="0.3">
<path d="M118.328 298.839C118.964 289.944 120.006 281.658 128.75 277.488C138.523 273.508 149.879 275.146 159.544 271.68C170.44 267.388 175.962 257.83 181.485 248.272C188.009 236.25 195.562 224.43 207.04 217.065C244.411 193.413 252.939 251.792 249.893 276.134C243.355 330.045 190.783 377.864 134.99 356.107C119.709 350.015 102.721 336.178 105.713 317.658C107.269 309.467 112.629 303.591 119.641 300.152C119.736 299.638 119.099 297.39 119.424 298.514" fill="url(#paint27_linear_8405_567)"/>
</g>
</g>
<path d="M208.691 76.2632C208.691 93.9447 194.371 108.269 176.693 108.269C159.016 108.269 144.695 93.9447 144.695 76.2632C144.695 58.5817 159.016 44.2578 176.693 44.2578C194.371 44.2578 208.691 58.5817 208.691 76.2632Z" fill="#DC8208"/>
<mask id="mask3_8405_567" style="mask-type:luminance" maskUnits="userSpaceOnUse" x="144" y="41" width="65" height="65">
<path d="M208.691 73.6636C208.691 91.3451 194.371 105.669 176.693 105.669C159.016 105.669 144.695 91.3451 144.695 73.6636C144.695 55.9821 159.016 41.6582 176.693 41.6582C194.371 41.6582 208.691 55.9956 208.691 73.6636Z" fill="white"/>
</mask>
<g mask="url(#mask3_8405_567)">
<path d="M208.691 73.6636C208.691 91.3451 194.371 105.669 176.693 105.669C159.016 105.669 144.695 91.3451 144.695 73.6636C144.695 55.9821 159.016 41.6582 176.693 41.6582C194.371 41.6582 208.691 55.9956 208.691 73.6636Z" fill="url(#paint28_linear_8405_567)"/>
<path style="mix-blend-mode:multiply" d="M201.625 73.6638C201.625 87.4326 190.471 98.5885 176.706 98.5885C162.94 98.5885 151.773 87.4326 151.773 73.6638C151.773 59.895 162.94 48.7256 176.706 48.7256C190.471 48.7256 201.625 59.895 201.625 73.6638Z" fill="url(#paint29_linear_8405_567)"/>
</g>
<path d="M252.518 27.3072C252.518 41.252 241.216 52.5568 227.261 52.5568C213.306 52.5568 202.004 41.252 202.004 27.3072C202.004 13.3624 213.32 2.05762 227.275 2.05762C241.23 2.05762 252.532 13.3624 252.532 27.3072H252.518Z" fill="#DC8208"/>
<mask id="mask4_8405_567" style="mask-type:luminance" maskUnits="userSpaceOnUse" x="202" y="0" width="51" height="51">
<path d="M252.518 25.2631C252.518 39.208 241.216 50.5127 227.261 50.5127C213.306 50.5127 202.004 39.208 202.004 25.2631C202.004 11.3183 213.32 0 227.275 0C241.23 0 252.532 11.3048 252.532 25.2631H252.518Z" fill="white"/>
</mask>
<g mask="url(#mask4_8405_567)">
<path d="M252.518 25.2631C252.518 39.208 241.216 50.5127 227.261 50.5127C213.306 50.5127 202.004 39.208 202.004 25.2631C202.004 11.3183 213.32 0 227.275 0C241.23 0 252.532 11.3048 252.532 25.2631H252.518Z" fill="url(#paint30_linear_8405_567)"/>
<path style="mix-blend-mode:multiply" d="M246.944 25.2635C246.944 36.135 238.145 44.9351 227.276 44.9351C216.407 44.9351 207.609 36.1215 207.609 25.2635C207.609 14.4055 216.407 5.5918 227.276 5.5918C238.145 5.5918 246.944 14.4055 246.944 25.2635Z" fill="url(#paint31_linear_8405_567)"/>
</g>
<path d="M264.93 45.5176H273.105" stroke="white" stroke-width="3" stroke-linecap="round" stroke-linejoin="round"/>
<path d="M269.016 41.4287V49.6061" stroke="white" stroke-width="3" stroke-linecap="round" stroke-linejoin="round"/>
<path d="M54.8867 241.489H63.0757" stroke="white" stroke-width="3" stroke-linecap="round" stroke-linejoin="round"/>
<path d="M58.9727 237.4V245.578" stroke="white" stroke-width="3" stroke-linecap="round" stroke-linejoin="round"/>
<path d="M189.634 0.0947266C188.118 0.0947266 186.887 1.32674 186.887 2.84307C186.887 4.3594 188.118 5.59142 189.634 5.59142C191.15 5.59142 192.382 4.3594 192.382 2.84307C192.382 1.32674 191.15 0.0947266 189.634 0.0947266Z" fill="white"/>
<path d="M429.602 194.849C428.668 194.849 427.91 195.607 427.91 196.541C427.91 197.475 428.668 198.233 429.602 198.233C430.536 198.233 431.294 197.475 431.294 196.541C431.294 195.607 430.536 194.849 429.602 194.849Z" fill="white"/>
<path d="M141.621 48.6855C139.185 48.6855 137.195 46.7088 137.195 44.2719C137.195 41.8349 139.185 39.8447 141.621 39.8447C144.058 39.8447 146.034 41.8214 146.034 44.2719C146.034 46.7224 144.058 48.6855 141.621 48.6855ZM141.621 42.2952C140.539 42.2952 139.659 43.1752 139.659 44.2583C139.659 45.3414 140.539 46.2214 141.621 46.2214C142.704 46.2214 143.584 45.3414 143.584 44.2583C143.584 43.1752 142.704 42.2952 141.621 42.2952Z" fill="white"/>
<path d="M221.52 28.216V26.152H225.6C227.232 26.152 228.416 25.816 229.152 25.144C229.888 24.472 230.256 23.616 230.256 22.576C230.256 21.328 229.856 20.344 229.056 19.624C228.256 18.904 227.04 18.552 225.408 18.568H219.696V17.2H235.08V18.568H228.792L229.536 17.896C230.672 18.328 231.472 18.968 231.936 19.816C232.416 20.648 232.656 21.584 232.656 22.624C232.656 23.792 232.376 24.8 231.816 25.648C231.256 26.48 230.456 27.12 229.416 27.568C228.392 28 227.144 28.216 225.672 28.216H221.52ZM230.352 34L225.96 27.328H228.552L232.968 34H230.352ZM219.696 21.904V20.536H235.08V21.904H219.696Z" fill="#9C7B29"/>
<path d="M170.52 78.216V76.152H174.6C176.232 76.152 177.416 75.816 178.152 75.144C178.888 74.472 179.256 73.616 179.256 72.576C179.256 71.328 178.856 70.344 178.056 69.624C177.256 68.904 176.04 68.552 174.408 68.568H168.696V67.2H184.08V68.568H177.792L178.536 67.896C179.672 68.328 180.472 68.968 180.936 69.816C181.416 70.648 181.656 71.584 181.656 72.624C181.656 73.792 181.376 74.8 180.816 75.648C180.256 76.48 179.456 77.12 178.416 77.568C177.392 78 176.144 78.216 174.672 78.216H170.52ZM179.352 84L174.96 77.328H177.552L181.968 84H179.352ZM168.696 71.904V70.536H184.08V71.904H168.696Z" fill="#9C7B29"/>
</g>
<defs>
<filter id="filter0_f_8405_567" x="3.5" y="260.5" width="466" height="28" filterUnits="userSpaceOnUse" color-interpolation-filters="sRGB">
<feFlood flood-opacity="0" result="BackgroundImageFix"/>
<feBlend mode="normal" in="SourceGraphic" in2="BackgroundImageFix" result="shape"/>
<feGaussianBlur stdDeviation="3.25" result="effect1_foregroundBlur_8405_567"/>
</filter>
<linearGradient id="paint0_linear_8405_567" x1="119.6" y1="174.879" x2="415.148" y2="174.879" gradientUnits="userSpaceOnUse">
<stop stop-color="#F185DE"/>
<stop offset="0.31" stop-color="#D879E3"/>
<stop offset="0.96" stop-color="#9A5DF0"/>
<stop offset="1" stop-color="#965CF1"/>
</linearGradient>
<linearGradient id="paint1_linear_8405_567" x1="264.928" y1="234.247" x2="264.928" y2="115.269" gradientUnits="userSpaceOnUse">
<stop stop-color="#FFB9BF"/>
<stop offset="0.19" stop-color="#FCA0B8"/>
<stop offset="0.74" stop-color="#F462A7"/>
<stop offset="0.99" stop-color="#F24AA1"/>
</linearGradient>
<linearGradient id="paint2_linear_8405_567" x1="107.309" y1="139.137" x2="422.537" y2="139.137" gradientUnits="userSpaceOnUse">
<stop stop-color="#595AD3"/>
<stop offset="0.36" stop-color="#5072DD"/>
<stop offset="1" stop-color="#3FA6F5"/>
</linearGradient>
<linearGradient id="paint3_linear_8405_567" x1="107.309" y1="105.967" x2="422.537" y2="105.967" gradientUnits="userSpaceOnUse">
<stop stop-color="#3FA6F5"/>
<stop offset="0.64" stop-color="#5072DD"/>
<stop offset="1" stop-color="#595AD3"/>
</linearGradient>
<linearGradient id="paint4_linear_8405_567" x1="191.354" y1="158.227" x2="137.371" y2="80.4184" gradientUnits="userSpaceOnUse">
<stop stop-color="#FDDFDF"/>
<stop offset="0.47" stop-color="#FDC5DB"/>
<stop offset="0.99" stop-color="#FDADD8"/>
</linearGradient>
<linearGradient id="paint5_linear_8405_567" x1="270.13" y1="158.227" x2="216.133" y2="80.4184" gradientUnits="userSpaceOnUse">
<stop stop-color="#FDDFDF"/>
<stop offset="0.47" stop-color="#FDC5DB"/>
<stop offset="0.99" stop-color="#FDADD8"/>
</linearGradient>
<linearGradient id="paint6_linear_8405_567" x1="348.272" y1="158.227" x2="294.289" y2="80.4184" gradientUnits="userSpaceOnUse">
<stop stop-color="#FDDFDF"/>
<stop offset="0.47" stop-color="#FDC5DB"/>
<stop offset="0.99" stop-color="#FDADD8"/>
</linearGradient>
<linearGradient id="paint7_linear_8405_567" x1="427.739" y1="158.227" x2="373.742" y2="80.4184" gradientUnits="userSpaceOnUse">
<stop stop-color="#FDDFDF"/>
<stop offset="0.47" stop-color="#FDC5DB"/>
<stop offset="0.99" stop-color="#FDADD8"/>
</linearGradient>
<linearGradient id="paint8_linear_8405_567" x1="348.93" y1="42.8764" x2="473.998" y2="42.8764" gradientUnits="userSpaceOnUse">
<stop stop-color="#F185DE"/>
<stop offset="0.31" stop-color="#D879E3"/>
<stop offset="0.96" stop-color="#9A5DF0"/>
<stop offset="1" stop-color="#965CF1"/>
</linearGradient>
<linearGradient id="paint9_linear_8405_567" x1="356.562" y1="40.4262" x2="372.331" y2="40.4262" gradientUnits="userSpaceOnUse">
<stop stop-color="#FFEC95"/>
<stop offset="1" stop-color="#FFC255"/>
</linearGradient>
<linearGradient id="paint10_linear_8405_567" x1="378.844" y1="-0.000251062" x2="394.613" y2="-0.000251062" gradientUnits="userSpaceOnUse">
<stop stop-color="#FFEC95"/>
<stop offset="1" stop-color="#FFC255"/>
</linearGradient>
<linearGradient id="paint11_linear_8405_567" x1="401.121" y1="-0.000251062" x2="416.89" y2="-0.000251062" gradientUnits="userSpaceOnUse">
<stop stop-color="#FFEC95"/>
<stop offset="1" stop-color="#FFC255"/>
</linearGradient>
<linearGradient id="paint12_linear_8405_567" x1="423.402" y1="-0.000251062" x2="439.171" y2="-0.000251062" gradientUnits="userSpaceOnUse">
<stop stop-color="#FFEC95"/>
<stop offset="1" stop-color="#FFC255"/>
</linearGradient>
<linearGradient id="paint13_linear_8405_567" x1="445.68" y1="-0.000251062" x2="461.449" y2="-0.000251062" gradientUnits="userSpaceOnUse">
<stop stop-color="#FFEC95"/>
<stop offset="1" stop-color="#FFC255"/>
</linearGradient>
<linearGradient id="paint14_linear_8405_567" x1="44.0328" y1="203.608" x2="44.0328" y2="196.527" gradientUnits="userSpaceOnUse">
<stop stop-color="#F185DE"/>
<stop offset="0.31" stop-color="#D879E3"/>
<stop offset="0.96" stop-color="#9A5DF0"/>
<stop offset="1" stop-color="#965CF1"/>
</linearGradient>
<linearGradient id="paint15_linear_8405_567" x1="90.4448" y1="203.608" x2="90.4448" y2="196.527" gradientUnits="userSpaceOnUse">
<stop stop-color="#F185DE"/>
<stop offset="0.31" stop-color="#D879E3"/>
<stop offset="0.96" stop-color="#9A5DF0"/>
<stop offset="1" stop-color="#965CF1"/>
</linearGradient>
<linearGradient id="paint16_linear_8405_567" x1="53.0321" y1="291" x2="53.0321" y2="190.543" gradientUnits="userSpaceOnUse">
<stop stop-color="#F185DE"/>
<stop offset="0.31" stop-color="#D879E3"/>
<stop offset="0.96" stop-color="#9A5DF0"/>
<stop offset="1" stop-color="#965CF1"/>
</linearGradient>
<linearGradient id="paint17_linear_8405_567" x1="1.85355" y1="240.771" x2="129.263" y2="240.771" gradientUnits="userSpaceOnUse">
<stop stop-color="#965CF1"/>
<stop offset="0.04" stop-color="#9A5DF0"/>
<stop offset="0.69" stop-color="#D879E3"/>
<stop offset="1" stop-color="#F185DE"/>
</linearGradient>
<linearGradient id="paint18_linear_8405_567" x1="33.1888" y1="203.608" x2="33.1888" y2="196.527" gradientUnits="userSpaceOnUse">
<stop stop-color="#F185DE"/>
<stop offset="0.31" stop-color="#D879E3"/>
<stop offset="0.96" stop-color="#9A5DF0"/>
<stop offset="1" stop-color="#965CF1"/>
</linearGradient>
<linearGradient id="paint19_linear_8405_567" x1="79.6008" y1="203.608" x2="79.6008" y2="196.527" gradientUnits="userSpaceOnUse">
<stop stop-color="#F185DE"/>
<stop offset="0.31" stop-color="#D879E3"/>
<stop offset="0.96" stop-color="#9A5DF0"/>
<stop offset="1" stop-color="#965CF1"/>
</linearGradient>
<linearGradient id="paint20_linear_8405_567" x1="102.776" y1="285.178" x2="71.8385" y2="247.615" gradientUnits="userSpaceOnUse">
<stop stop-opacity="0"/>
<stop offset="0.04" stop-color="#0B0B0B" stop-opacity="0.05"/>
<stop offset="0.31" stop-color="#616161" stop-opacity="0.38"/>
<stop offset="0.56" stop-color="#A4A4A4" stop-opacity="0.65"/>
<stop offset="0.76" stop-color="#D5D5D5" stop-opacity="0.84"/>
<stop offset="0.91" stop-color="#F3F3F3" stop-opacity="0.96"/>
<stop offset="1" stop-color="white"/>
</linearGradient>
<linearGradient id="paint21_linear_8405_567" x1="138.034" y1="229.196" x2="138.034" y2="224.187" gradientUnits="userSpaceOnUse">
<stop stop-color="#F185DE"/>
<stop offset="0.31" stop-color="#D879E3"/>
<stop offset="0.96" stop-color="#9A5DF0"/>
<stop offset="1" stop-color="#965CF1"/>
</linearGradient>
<linearGradient id="paint22_linear_8405_567" x1="170.858" y1="229.196" x2="170.858" y2="224.187" gradientUnits="userSpaceOnUse">
<stop stop-color="#F185DE"/>
<stop offset="0.31" stop-color="#D879E3"/>
<stop offset="0.96" stop-color="#9A5DF0"/>
<stop offset="1" stop-color="#965CF1"/>
</linearGradient>
<linearGradient id="paint23_linear_8405_567" x1="142.814" y1="291" x2="142.814" y2="219.949" gradientUnits="userSpaceOnUse">
<stop stop-color="#F37556"/>
<stop offset="0.55" stop-color="#E65241"/>
<stop offset="1" stop-color="#DE3A33"/>
</linearGradient>
<linearGradient id="paint24_linear_8405_567" x1="106.619" y1="255.475" x2="196.739" y2="255.475" gradientUnits="userSpaceOnUse">
<stop stop-color="#F37556"/>
<stop offset="0.55" stop-color="#E65241"/>
<stop offset="1" stop-color="#DE3A33"/>
</linearGradient>
<linearGradient id="paint25_linear_8405_567" x1="122.444" y1="229.196" x2="122.444" y2="224.187" gradientUnits="userSpaceOnUse">
<stop stop-color="#F185DE"/>
<stop offset="0.31" stop-color="#D879E3"/>
<stop offset="0.96" stop-color="#9A5DF0"/>
<stop offset="1" stop-color="#965CF1"/>
</linearGradient>
<linearGradient id="paint26_linear_8405_567" x1="155.269" y1="229.196" x2="155.269" y2="224.187" gradientUnits="userSpaceOnUse">
<stop stop-color="#F185DE"/>
<stop offset="0.31" stop-color="#D879E3"/>
<stop offset="0.96" stop-color="#9A5DF0"/>
<stop offset="1" stop-color="#965CF1"/>
</linearGradient>
<linearGradient id="paint27_linear_8405_567" x1="181.119" y1="286.884" x2="159.24" y2="260.313" gradientUnits="userSpaceOnUse">
<stop stop-opacity="0"/>
<stop offset="0.04" stop-color="#0B0B0B" stop-opacity="0.05"/>
<stop offset="0.31" stop-color="#616161" stop-opacity="0.38"/>
<stop offset="0.56" stop-color="#A4A4A4" stop-opacity="0.65"/>
<stop offset="0.76" stop-color="#D5D5D5" stop-opacity="0.84"/>
<stop offset="0.91" stop-color="#F3F3F3" stop-opacity="0.96"/>
<stop offset="1" stop-color="white"/>
</linearGradient>
<linearGradient id="paint28_linear_8405_567" x1="144.695" y1="73.6636" x2="208.691" y2="73.6636" gradientUnits="userSpaceOnUse">
<stop stop-color="#FFEC95"/>
<stop offset="1" stop-color="#FFC255"/>
</linearGradient>
<linearGradient id="paint29_linear_8405_567" x1="151.76" y1="73.6638" x2="201.625" y2="73.6638" gradientUnits="userSpaceOnUse">
<stop stop-color="#FFEC95"/>
<stop offset="1" stop-color="#FFC255"/>
</linearGradient>
<linearGradient id="paint30_linear_8405_567" x1="202.017" y1="25.2631" x2="252.518" y2="25.2631" gradientUnits="userSpaceOnUse">
<stop stop-color="#FFEC95"/>
<stop offset="1" stop-color="#FFC255"/>
</linearGradient>
<linearGradient id="paint31_linear_8405_567" x1="207.609" y1="25.2499" x2="246.944" y2="25.2499" gradientUnits="userSpaceOnUse">
<stop stop-color="#FFEC95"/>
<stop offset="1" stop-color="#FFC255"/>
</linearGradient>
<clipPath id="clip0_8405_567">
<rect width="474" height="291" fill="white"/>
</clipPath>
</defs>
</svg>
