<svg width="92" height="92" viewBox="0 0 92 92" fill="none" xmlns="http://www.w3.org/2000/svg">
<path d="M41.3767 81.0314C41.1483 79.0207 40.9198 77.0044 40.697 74.9937C40.6056 74.1769 40.5371 73.36 40.4171 72.5489C40.3943 72.3776 40.2115 72.1605 40.0458 72.0977C38.0409 71.3094 36.0245 70.5497 33.8653 69.7271C32.9057 70.504 31.7575 71.4293 30.6037 72.3604C29.4727 73.2743 28.336 74.1883 27.2678 75.0565C25.1829 72.9716 23.1265 70.9152 21.0074 68.7903C21.0987 68.6704 21.2758 68.4419 21.4529 68.2191C23.0123 66.2884 24.566 64.3463 26.1483 62.4328C26.4281 62.0958 26.4053 61.873 26.2339 61.4846C25.4628 59.7424 24.7317 57.9773 24.0405 56.2066C23.8863 55.8181 23.7549 55.6296 23.3093 55.5839C20.7046 55.3326 18.0999 55.0527 15.4952 54.7557C15.3238 54.7386 15.0382 54.4986 15.0325 54.3616C14.9982 53.0421 15.0096 51.7226 15.0096 50.3459H35.379C35.5047 53.6133 36.7614 56.3494 39.3318 58.4114C41.2111 59.9194 43.3817 60.662 45.7865 60.6449C48.6311 60.6277 51.0816 59.5996 53.0923 57.5889C55.0801 55.5954 56.034 53.1392 56.1254 50.3174H76.4948C76.4948 51.7054 76.5062 53.0649 76.4719 54.4244C76.4719 54.5443 76.1863 54.7328 76.015 54.7557C73.4331 55.047 70.8569 55.3326 68.2694 55.5725C67.7667 55.6182 67.6182 55.8296 67.4468 56.2694C66.7671 58.023 66.0359 59.7652 65.2762 61.4846C65.1048 61.873 65.082 62.0958 65.3619 62.4328C66.927 64.3292 68.4636 66.2542 70.0115 68.1677C70.1943 68.3962 70.3771 68.6304 70.5085 68.7961C68.4179 70.8867 66.3615 72.943 64.2423 75.0565C62.0489 73.2858 59.7526 71.4293 57.6448 69.7271C55.4799 70.5497 53.4693 71.3094 51.4643 72.1034C51.2815 72.1776 51.1045 72.4747 51.0816 72.686C50.7903 75.245 50.5275 77.8041 50.2534 80.3631C50.2305 80.5859 50.1734 80.8086 50.1334 81.0314H41.3767Z" fill="url(#paint0_linear_8566_832)"/>
<path d="M61.2089 46.1477H30.3121C30.2893 46.0334 30.2607 45.9477 30.2607 45.862C30.2607 42.5604 30.2093 39.2531 30.2778 35.9515C30.3578 32.113 33.4195 29.1084 37.2695 29.0742C42.9187 29.0285 48.568 29.0342 54.2173 29.0742C58.1015 29.1027 61.1518 32.1187 61.2318 35.9972C61.3003 39.2531 61.2489 42.5148 61.2489 45.7707C61.2489 45.8792 61.226 45.9877 61.2089 46.1477Z" fill="url(#paint1_linear_8566_832)"/>
<path d="M45.7698 26.8682C41.3829 26.874 37.8128 23.3039 37.8242 18.917C37.83 14.5644 41.3886 11.0057 45.7412 11C50.1224 10.9943 53.6982 14.5758 53.6868 18.957C53.6754 23.3096 50.1224 26.8625 45.7698 26.8682Z" fill="url(#paint2_linear_8566_832)"/>
<path d="M26.1519 46.1354H15.0419C15.0305 45.8955 15.0076 45.6955 15.0076 45.4956C15.0076 42.8509 14.9905 40.2062 15.0076 37.5615C15.0248 34.854 16.1215 32.7462 18.6005 31.5295C19.2746 31.1982 20.0685 30.964 20.8168 30.9355C22.9931 30.8555 25.1752 30.9069 27.38 30.9069C27.123 31.6038 26.7689 32.2835 26.626 33.0032C26.3976 34.1571 26.1976 35.3338 26.1748 36.5048C26.112 39.4465 26.1519 42.3825 26.1519 45.3243C26.1519 45.5699 26.1519 45.8212 26.1519 46.1354Z" fill="url(#paint3_linear_8566_832)"/>
<path d="M76.4028 46.1359H65.3498C65.3498 45.8217 65.3498 45.559 65.3498 45.2905C65.3441 42.1203 65.3441 38.9558 65.327 35.7856C65.3213 34.2376 64.9386 32.7696 64.2759 31.3701C64.2074 31.233 64.156 31.0845 64.0703 30.8674C64.3274 30.856 64.5216 30.8389 64.7101 30.8389C66.8064 30.8731 68.9085 30.816 70.9934 30.9645C73.7638 31.1587 76.2714 33.6664 76.3742 36.4424C76.4942 39.6469 76.4028 42.8571 76.4028 46.1359Z" fill="url(#paint4_linear_8566_832)"/>
<path d="M28.7341 14.6789C33.9721 14.6617 37.4908 19.974 35.4459 24.5836C35.2688 24.9892 35.0346 25.2234 34.5833 25.3319C32.4641 25.8289 30.6934 26.937 29.1683 28.4793C28.9569 28.6964 28.5399 28.8563 28.2372 28.822C25.2155 28.5193 22.7707 26.3944 22.0224 23.4812C21.3027 20.6651 22.4337 17.6491 24.907 15.9241C26.0894 15.1015 27.4146 14.6446 28.7341 14.6731V14.6789Z" fill="url(#paint5_linear_8566_832)"/>
<path d="M62.5813 14.6787C66.2999 14.6787 69.5387 17.7061 69.6872 21.3333C69.8472 25.2518 67.0311 28.5134 63.1868 28.8333C62.9241 28.8562 62.5642 28.7077 62.3757 28.5134C60.8277 26.9198 58.9999 25.8345 56.8521 25.2747C56.5779 25.2004 56.2638 24.9319 56.1381 24.6749C53.9503 20.1281 57.469 14.6844 62.5813 14.6787Z" fill="url(#paint6_linear_8566_832)"/>
<defs>
<linearGradient id="paint0_linear_8566_832" x1="45.7522" y1="50.3174" x2="45.7522" y2="81.0314" gradientUnits="userSpaceOnUse">
<stop stop-color="#D01430"/>
<stop offset="1" stop-color="#B658E8"/>
</linearGradient>
<linearGradient id="paint1_linear_8566_832" x1="45.7548" y1="29.042" x2="45.7548" y2="46.1477" gradientUnits="userSpaceOnUse">
<stop stop-color="#D01430"/>
<stop offset="1" stop-color="#B658E8"/>
</linearGradient>
<linearGradient id="paint2_linear_8566_832" x1="45.7555" y1="11" x2="45.7555" y2="26.8683" gradientUnits="userSpaceOnUse">
<stop stop-color="#D01430"/>
<stop offset="1" stop-color="#B658E8"/>
</linearGradient>
<linearGradient id="paint3_linear_8566_832" x1="21.19" y1="30.8906" x2="21.19" y2="46.1354" gradientUnits="userSpaceOnUse">
<stop stop-color="#D01430"/>
<stop offset="1" stop-color="#B658E8"/>
</linearGradient>
<linearGradient id="paint4_linear_8566_832" x1="70.2532" y1="30.8389" x2="70.2532" y2="46.1359" gradientUnits="userSpaceOnUse">
<stop stop-color="#D01430"/>
<stop offset="1" stop-color="#B658E8"/>
</linearGradient>
<linearGradient id="paint5_linear_8566_832" x1="28.9223" y1="14.6719" x2="28.9223" y2="28.8267" gradientUnits="userSpaceOnUse">
<stop stop-color="#D01430"/>
<stop offset="1" stop-color="#B658E8"/>
</linearGradient>
<linearGradient id="paint6_linear_8566_832" x1="62.5851" y1="14.6787" x2="62.5851" y2="28.8356" gradientUnits="userSpaceOnUse">
<stop stop-color="#D01430"/>
<stop offset="1" stop-color="#B658E8"/>
</linearGradient>
</defs>
</svg>
