<svg width="426" height="395" viewBox="0 0 426 395" fill="none" xmlns="http://www.w3.org/2000/svg">
<path d="M407.99 292.601C407.99 297.758 403.805 301.935 398.637 301.935H87.4288C82.2612 301.935 78.0605 297.758 78.0605 292.601V96.9357C78.0605 91.7791 82.2461 87.6025 87.4288 87.6025H398.637C403.805 87.6025 407.99 91.7791 407.99 96.9357V292.601Z" fill="url(#paint0_linear_6924_643)"/>
<path d="M84.6788 83.4863H395.887C401.055 83.4863 405.24 87.678 405.24 92.8195V288.485C405.24 293.642 401.04 297.818 395.887 297.818H84.6788C79.5112 297.818 75.3105 293.627 75.3105 288.47V92.8346C75.3105 87.678 79.5112 83.5014 84.6637 83.5014L84.6788 83.4863Z" fill="white"/>
<path d="M94.7578 285.274C91.3731 285.274 88.623 282.62 88.623 279.348V101.957C88.623 98.685 91.3731 96.0312 94.7578 96.0312H385.824C389.209 96.0312 391.959 98.685 391.959 101.957V279.348C391.959 282.62 389.209 285.274 385.824 285.274H94.7578Z" fill="url(#paint1_linear_6924_643)"/>
<path opacity="0.4" d="M281.533 147.552H199.047V245.95H281.533V147.552Z" fill="white"/>
<path d="M248.17 173.108H233.498V177.21H248.17V173.108Z" fill="white"/>
<path d="M249.652 177.21H256.255V173.108H249.652V177.21Z" fill="white"/>
<path d="M256.255 225.791V178.612H225.082V225.55C223.964 225.701 223.088 226.65 223.088 227.811C223.088 229.063 224.1 230.088 225.37 230.088H236.929C238.183 230.088 239.21 229.063 239.21 227.811C239.21 226.922 238.712 226.183 237.971 225.791V184.463C238.938 184.553 239.921 184.613 240.948 184.613C241.764 184.613 242.565 184.583 243.335 184.523V225.565C242.217 225.716 241.341 226.666 241.341 227.827C241.341 229.078 242.368 230.103 243.623 230.103H255.182C256.436 230.103 257.463 229.078 257.463 227.827C257.463 226.937 256.965 226.198 256.224 225.806L256.255 225.791Z" fill="white"/>
<path d="M232.017 177.21V173.108H225.066V177.21H232.017Z" fill="white"/>
<path opacity="0.4" d="M187.201 147.552H104.715V245.95H187.201V147.552Z" fill="white"/>
<path d="M168.071 181.688C165.895 177.994 161.256 176.652 157.463 178.507C156.255 177.21 154.91 176.124 153.474 175.265C153.505 175.521 153.52 175.778 153.52 176.034C153.52 180.18 150.15 183.558 145.98 183.558C141.809 183.558 138.44 180.195 138.44 176.034C138.44 175.763 138.455 175.491 138.485 175.22C137.035 176.079 135.66 177.18 134.436 178.492C130.658 176.667 126.049 178.024 123.874 181.688L115.865 195.258L127.455 202.073V227.977H164.006L164.369 202.149L176.079 195.258L168.071 181.688Z" fill="white"/>
<path opacity="0.4" d="M375.867 147.552H293.381V245.95H375.867V147.552Z" fill="white"/>
<path d="M354.411 182.864L354.033 178.477H346.886H343.788H336.656H332.577H325.445H322.332H315.2L314.822 182.864H354.411Z" fill="white"/>
<path d="M314.596 185.487L311.514 221.569H316.258H326.639H331.383H337.851H342.595H352.961H357.705L354.638 185.487H314.596Z" fill="white"/>
<path d="M372.33 143.843H64.3398C64.3398 156.116 74.3125 166.083 86.6273 166.083C97.6728 166.083 106.83 158.031 108.567 147.507C110.32 158.031 119.462 166.083 130.522 166.083C141.583 166.083 150.724 158.031 152.477 147.507C154.23 158.046 163.372 166.083 174.432 166.083C185.493 166.083 194.635 158.031 196.387 147.507C198.14 158.046 207.282 166.083 218.342 166.083C229.403 166.083 238.545 158.031 240.297 147.507C242.05 158.031 251.192 166.083 262.252 166.083C273.313 166.083 282.455 158.031 284.207 147.507C285.96 158.031 295.102 166.083 306.162 166.083C317.223 166.083 326.365 158.031 328.117 147.507C329.87 158.046 339.012 166.083 350.072 166.083C361.133 166.083 370.275 158.031 372.027 147.507C373.78 158.046 382.922 166.083 393.982 166.083C406.282 166.083 416.255 156.131 416.255 143.843H372.345H372.33Z" fill="url(#paint2_linear_6924_643)"/>
<path d="M388.377 92.2012H363.354H359.834H92.2029L64.3398 143.843H359.834H363.354H416.24L388.377 92.2012Z" fill="url(#paint3_linear_6924_643)"/>
<mask id="mask0_6924_643" style="mask-type:luminance" maskUnits="userSpaceOnUse" x="64" y="92" width="353" height="75">
<path d="M388.377 92.2012H92.2029L64.3398 143.843C64.3398 156.116 74.3125 166.083 86.6273 166.083C97.6728 166.083 106.83 158.031 108.567 147.507C110.32 158.031 119.462 166.083 130.522 166.083C141.583 166.083 150.724 158.031 152.477 147.507C154.23 158.046 163.372 166.083 174.432 166.083C185.493 166.083 194.635 158.031 196.387 147.507C198.14 158.046 207.282 166.083 218.342 166.083C229.403 166.083 238.545 158.031 240.297 147.507C242.05 158.031 251.192 166.083 262.252 166.083C273.313 166.083 282.455 158.031 284.207 147.507C285.96 158.031 295.102 166.083 306.162 166.083C317.223 166.083 326.365 158.031 328.117 147.507C329.87 158.046 339.012 166.083 350.072 166.083C361.133 166.083 370.275 158.031 372.027 147.507C373.78 158.046 382.922 166.083 393.982 166.083C406.282 166.083 416.255 156.131 416.255 143.843L388.392 92.2012H388.377Z" fill="white"/>
</mask>
<g mask="url(#mask0_6924_643)">
<path style="mix-blend-mode:screen" opacity="0.3" d="M152.356 75.5557H108.25V196.752H152.356V75.5557Z" fill="url(#paint4_linear_6924_643)"/>
<path style="mix-blend-mode:screen" opacity="0.3" d="M240.298 75.5557H196.191V196.752H240.298V75.5557Z" fill="url(#paint5_linear_6924_643)"/>
<path style="mix-blend-mode:screen" opacity="0.3" d="M327.528 75.5557H283.422V196.752H327.528V75.5557Z" fill="url(#paint6_linear_6924_643)"/>
<path style="mix-blend-mode:screen" opacity="0.3" d="M416.239 75.5557H372.133V196.752H416.239V75.5557Z" fill="url(#paint7_linear_6924_643)"/>
</g>
<path opacity="0.4" d="M368.522 264.225C368.522 269.14 364.533 273.121 359.607 273.121H309.593C304.667 273.121 300.678 269.14 300.678 264.225C300.678 259.31 304.667 255.329 309.593 255.329H359.607C364.533 255.329 368.522 259.31 368.522 264.225Z" fill="white"/>
<path d="M319.182 268.047V259.647H323.478C324.582 259.647 325.406 259.851 325.95 260.259C326.494 260.659 326.766 261.187 326.766 261.843C326.766 262.275 326.65 262.655 326.418 262.983C326.194 263.303 325.874 263.559 325.458 263.751C325.05 263.935 324.562 264.027 323.994 264.027L324.234 263.451C324.826 263.451 325.342 263.543 325.782 263.727C326.222 263.903 326.562 264.163 326.802 264.507C327.05 264.843 327.174 265.255 327.174 265.743C327.174 266.471 326.878 267.039 326.286 267.447C325.702 267.847 324.846 268.047 323.718 268.047H319.182ZM321.534 266.331H323.526C323.934 266.331 324.242 266.263 324.45 266.127C324.666 265.983 324.774 265.767 324.774 265.479C324.774 265.191 324.666 264.979 324.45 264.843C324.242 264.699 323.934 264.627 323.526 264.627H321.366V262.983H323.166C323.566 262.983 323.866 262.915 324.066 262.779C324.266 262.643 324.366 262.439 324.366 262.167C324.366 261.895 324.266 261.695 324.066 261.567C323.866 261.431 323.566 261.363 323.166 261.363H321.534V266.331ZM332.28 268.215C331.04 268.215 330.072 267.875 329.376 267.195C328.68 266.515 328.332 265.551 328.332 264.303V259.647H330.708V264.231C330.708 264.951 330.848 265.467 331.128 265.779C331.416 266.091 331.808 266.247 332.304 266.247C332.8 266.247 333.188 266.091 333.468 265.779C333.748 265.467 333.888 264.951 333.888 264.231V259.647H336.228V264.303C336.228 265.551 335.88 266.515 335.184 267.195C334.488 267.875 333.52 268.215 332.28 268.215ZM339.845 268.047V264.495L340.397 265.923L336.641 259.647H339.149L341.861 264.195H340.409L343.133 259.647H345.437L341.693 265.923L342.221 264.495V268.047H339.845Z" fill="white"/>
<path opacity="0.4" d="M274.204 264.225C274.204 269.14 270.215 273.121 265.289 273.121H215.274C210.348 273.121 206.359 269.14 206.359 264.225C206.359 259.31 210.348 255.329 215.274 255.329H265.289C270.215 255.329 274.204 259.31 274.204 264.225Z" fill="white"/>
<path d="M224.863 268.047V259.647H229.159C230.263 259.647 231.087 259.851 231.631 260.259C232.175 260.659 232.447 261.187 232.447 261.843C232.447 262.275 232.331 262.655 232.099 262.983C231.875 263.303 231.555 263.559 231.139 263.751C230.731 263.935 230.243 264.027 229.675 264.027L229.915 263.451C230.507 263.451 231.023 263.543 231.463 263.727C231.903 263.903 232.243 264.163 232.483 264.507C232.731 264.843 232.855 265.255 232.855 265.743C232.855 266.471 232.559 267.039 231.967 267.447C231.383 267.847 230.527 268.047 229.399 268.047H224.863ZM227.215 266.331H229.207C229.615 266.331 229.923 266.263 230.131 266.127C230.347 265.983 230.455 265.767 230.455 265.479C230.455 265.191 230.347 264.979 230.131 264.843C229.923 264.699 229.615 264.627 229.207 264.627H227.047V262.983H228.847C229.247 262.983 229.547 262.915 229.747 262.779C229.947 262.643 230.047 262.439 230.047 262.167C230.047 261.895 229.947 261.695 229.747 261.567C229.547 261.431 229.247 261.363 228.847 261.363H227.215V266.331ZM237.962 268.215C236.722 268.215 235.754 267.875 235.058 267.195C234.362 266.515 234.014 265.551 234.014 264.303V259.647H236.39V264.231C236.39 264.951 236.53 265.467 236.81 265.779C237.098 266.091 237.49 266.247 237.986 266.247C238.482 266.247 238.87 266.091 239.15 265.779C239.43 265.467 239.57 264.951 239.57 264.231V259.647H241.91V264.303C241.91 265.551 241.562 266.515 240.866 267.195C240.17 267.875 239.202 268.215 237.962 268.215ZM245.527 268.047V264.495L246.079 265.923L242.322 259.647H244.831L247.543 264.195H246.09L248.815 259.647H251.119L247.375 265.923L247.903 264.495V268.047H245.527Z" fill="white"/>
<path opacity="0.4" d="M179.872 264.225C179.872 269.14 175.883 273.121 170.957 273.121H120.942C116.016 273.121 112.027 269.14 112.027 264.225C112.027 259.31 116.016 255.329 120.942 255.329H170.957C175.883 255.329 179.872 259.31 179.872 264.225Z" fill="white"/>
<path d="M130.531 263.047V254.647H134.827C135.931 254.647 136.755 254.851 137.299 255.259C137.843 255.659 138.115 256.187 138.115 256.843C138.115 257.275 137.999 257.655 137.767 257.983C137.543 258.303 137.223 258.559 136.807 258.751C136.399 258.935 135.911 259.027 135.343 259.027L135.583 258.451C136.175 258.451 136.691 258.543 137.131 258.727C137.571 258.903 137.911 259.163 138.151 259.507C138.399 259.843 138.523 260.255 138.523 260.743C138.523 261.471 138.227 262.039 137.635 262.447C137.051 262.847 136.195 263.047 135.067 263.047H130.531ZM132.883 261.331H134.875C135.283 261.331 135.591 261.263 135.799 261.127C136.015 260.983 136.123 260.767 136.123 260.479C136.123 260.191 136.015 259.979 135.799 259.843C135.591 259.699 135.283 259.627 134.875 259.627H132.715V257.983H134.515C134.915 257.983 135.215 257.915 135.415 257.779C135.615 257.643 135.715 257.439 135.715 257.167C135.715 256.895 135.615 256.695 135.415 256.567C135.215 256.431 134.915 256.363 134.515 256.363H132.883V261.331ZM143.63 263.215C142.39 263.215 141.422 262.875 140.726 262.195C140.03 261.515 139.682 260.551 139.682 259.303V254.647H142.058V259.231C142.058 259.951 142.198 260.467 142.478 260.779C142.766 261.091 143.158 261.247 143.654 261.247C144.15 261.247 144.538 261.091 144.818 260.779C145.098 260.467 145.238 259.951 145.238 259.231V254.647H147.578V259.303C147.578 260.551 147.23 261.515 146.534 262.195C145.838 262.875 144.87 263.215 143.63 263.215ZM151.194 263.047V259.495L151.746 260.923L147.99 254.647H150.498L153.21 259.195H151.758L154.482 254.647H156.786L153.042 260.923L153.57 259.495V263.047H151.194Z" fill="white"/>
<path d="M399.633 52.7733C399.633 62.8905 391.413 71.0929 381.274 71.0929H278.359C268.22 71.0929 260.016 62.8905 260.016 52.7733C260.016 42.656 268.22 34.4688 278.359 34.4688H381.274C391.413 34.4688 399.633 42.6711 399.633 52.7733Z" fill="url(#paint8_linear_6924_643)"/>
<path d="M396.884 50.0438C396.884 60.1611 388.664 68.3483 378.54 68.3483H275.625C265.486 68.3483 257.281 60.146 257.281 50.0438C257.281 39.9265 265.486 31.7393 275.625 31.7393H378.54C388.679 31.7393 396.884 39.9416 396.884 50.0438Z" fill="white"/>
<path d="M277.333 41.6904L280.053 47.1939L286.142 48.0684L281.745 52.3505L282.773 58.3967L277.333 55.547L271.909 58.3967L272.936 52.3505L268.539 48.0684L274.613 47.1939L277.333 41.6904Z" fill="url(#paint9_linear_6924_643)"/>
<path d="M302.219 41.6904L304.939 47.1939L311.013 48.0684L306.616 52.3505L307.659 58.3967L302.219 55.547L296.765 58.3967L297.807 52.3505L293.41 48.0684L299.5 47.1939L302.219 41.6904Z" fill="url(#paint10_linear_6924_643)"/>
<path d="M327.09 41.6904L329.81 47.1939L335.885 48.0684L331.488 52.3505L332.53 58.3967L327.09 55.547L321.651 58.3967L322.678 52.3505L318.281 48.0684L324.371 47.1939L327.09 41.6904Z" fill="url(#paint11_linear_6924_643)"/>
<path d="M351.962 41.6904L354.681 47.1939L360.756 48.0684L356.359 52.3505L357.401 58.3967L351.962 55.547L346.522 58.3967L347.549 52.3505L343.152 48.0684L349.242 47.1939L351.962 41.6904Z" fill="url(#paint12_linear_6924_643)"/>
<path d="M376.833 41.6904L379.552 47.1939L385.627 48.0684L381.23 52.3505L382.272 58.3967L376.833 55.547L371.393 58.3967L372.42 52.3505L368.023 48.0684L374.113 47.1939L376.833 41.6904Z" fill="url(#paint13_linear_6924_643)"/>
<path style="mix-blend-mode:multiply" opacity="0.4" d="M134.057 394.015C208.095 394.015 268.114 385.192 268.114 374.308C268.114 363.425 208.095 354.602 134.057 354.602C60.0194 354.602 0 363.425 0 374.308C0 385.192 60.0194 394.015 134.057 394.015Z" fill="url(#paint14_linear_6924_643)"/>
<path style="mix-blend-mode:multiply" d="M93.9386 274.583C93.9688 276.754 92.2463 278.519 90.0553 278.519C87.8643 278.519 86.0814 276.754 86.036 274.583C85.9907 272.397 87.7284 270.633 89.9193 270.633C92.1103 270.633 93.9084 272.397 93.9386 274.583Z" fill="url(#paint15_linear_6924_643)"/>
<path style="mix-blend-mode:multiply" d="M145.735 274.583C145.781 276.754 144.043 278.519 141.852 278.519C139.661 278.519 137.878 276.754 137.833 274.583C137.788 272.397 139.525 270.633 141.716 270.633C143.907 270.633 145.705 272.397 145.735 274.583Z" fill="url(#paint16_linear_6924_643)"/>
<path d="M88.9975 273.422C88.9371 274.236 89.4206 274.93 90.0704 274.96C90.705 275.005 91.2792 274.387 91.3245 273.573C91.3245 273.482 91.8987 265.295 95.4647 257.244C100.028 246.945 107.205 241.593 116.785 241.291C126.365 241.593 133.316 246.945 137.441 257.244C140.674 265.295 140.901 273.498 140.901 273.573C140.916 274.372 141.46 274.99 142.095 274.96C142.744 274.915 143.243 274.221 143.228 273.422C143.228 273.09 142.185 240.236 118.054 238.426C117.933 238.381 117.813 238.336 117.692 238.336C117.389 238.336 117.117 238.336 116.83 238.351C116.543 238.351 116.256 238.336 115.969 238.336C115.848 238.336 115.712 238.366 115.591 238.426C91.4 240.236 89.0126 273.09 88.9824 273.422H88.9975Z" fill="#623F91"/>
<path d="M158.188 263.969H123.042H84.5561H57.3428L36.793 375.847H88.6661H127.152H179.025L158.188 263.969Z" fill="url(#paint17_linear_6924_643)"/>
<path d="M172.164 263.969H137.018H98.5327H63.4016L50.7695 375.847H102.643H141.128H193.016L172.164 263.969Z" fill="url(#paint18_linear_6924_643)"/>
<path style="mix-blend-mode:multiply" d="M102.613 274.583C102.854 276.754 101.283 278.519 99.1071 278.519C96.9313 278.519 94.9519 276.754 94.7101 274.583C94.4683 272.397 96.0398 270.633 98.2308 270.633C100.422 270.633 102.386 272.397 102.613 274.583Z" fill="url(#paint19_linear_6924_643)"/>
<path style="mix-blend-mode:multiply" d="M154.41 274.583C154.651 276.754 153.08 278.519 150.904 278.519C148.728 278.519 146.749 276.754 146.507 274.583C146.265 272.397 147.837 270.633 150.013 270.633C152.188 270.633 154.168 272.397 154.41 274.583Z" fill="url(#paint20_linear_6924_643)"/>
<path d="M97.5819 273.422C97.597 274.236 98.1409 274.93 98.7907 274.96C99.4404 275.005 99.9391 274.387 99.9239 273.573C99.9239 273.482 99.7275 265.295 102.538 257.244C106.134 246.945 112.813 241.593 122.363 241.291C131.957 241.593 139.422 246.945 144.514 257.244C148.488 265.295 149.485 273.498 149.5 273.573C149.591 274.372 150.195 274.99 150.83 274.96C151.465 274.915 151.903 274.221 151.812 273.422C151.767 273.09 147.672 240.236 123.39 238.426C123.269 238.381 123.148 238.336 123.012 238.336C122.71 238.336 122.438 238.336 122.151 238.351C121.864 238.351 121.577 238.336 121.275 238.336C121.154 238.336 121.033 238.366 120.912 238.426C96.8868 240.236 97.5517 273.09 97.5668 273.422H97.5819Z" fill="#623F91"/>
<mask id="mask1_6924_643" style="mask-type:luminance" maskUnits="userSpaceOnUse" x="50" y="263" width="144" height="113">
<path d="M172.164 263.969H137.018H98.5327H63.4016L50.7695 375.847H102.643H141.128H193.016L172.164 263.969Z" fill="white"/>
</mask>
<g mask="url(#mask1_6924_643)">
<g style="mix-blend-mode:screen" opacity="0.3">
<path d="M52.4169 388.21C53.4142 374.203 55.0612 361.146 68.8719 354.587C84.2993 348.33 102.22 350.893 117.481 345.435C134.677 338.68 143.395 323.632 152.129 308.584C162.434 289.662 174.356 271.04 192.458 259.445C251.448 222.203 264.896 314.118 260.091 352.461C249.77 437.349 166.786 512.633 78.7539 478.391C54.6381 468.802 27.8176 447.014 32.5471 417.839C35.0101 404.947 43.4566 395.689 54.5475 390.276C54.6986 389.462 53.7013 385.934 54.1999 387.698" fill="url(#paint21_linear_6924_643)"/>
</g>
</g>
<path style="mix-blend-mode:multiply" d="M198.259 304.226C198.289 305.764 197.066 307.015 195.509 307.015C193.953 307.015 192.699 305.764 192.669 304.226C192.638 302.688 193.862 301.437 195.419 301.437C196.975 301.437 198.244 302.688 198.259 304.226Z" fill="url(#paint22_linear_6924_643)"/>
<path style="mix-blend-mode:multiply" d="M234.902 304.226C234.932 305.764 233.708 307.015 232.152 307.015C230.595 307.015 229.326 305.764 229.311 304.226C229.281 302.688 230.505 301.437 232.061 301.437C233.617 301.437 234.872 302.688 234.902 304.226Z" fill="url(#paint23_linear_6924_643)"/>
<path d="M194.769 303.412C194.739 303.985 195.072 304.467 195.525 304.498C195.978 304.528 196.371 304.09 196.417 303.517C196.417 303.457 196.824 297.652 199.348 291.968C202.566 284.685 207.643 280.901 214.428 280.69C221.197 280.901 226.123 284.685 229.039 291.968C231.321 297.652 231.487 303.457 231.487 303.517C231.502 304.09 231.88 304.528 232.348 304.498C232.802 304.467 233.164 303.985 233.149 303.412C233.149 303.171 232.409 279.936 215.35 278.654C215.274 278.624 215.183 278.594 215.093 278.594C214.881 278.594 214.685 278.594 214.488 278.594C214.292 278.594 214.08 278.594 213.869 278.594C213.778 278.594 213.687 278.609 213.597 278.654C196.492 279.936 194.8 303.171 194.785 303.412H194.769Z" fill="#916444"/>
<path d="M243.696 296.718H218.839H191.626H172.376L157.84 375.846H194.527H221.756H258.443L243.696 296.718Z" fill="url(#paint24_linear_6924_643)"/>
<path d="M253.578 296.718H228.722H201.509H176.653L167.723 375.846H204.41H231.639H268.326L253.578 296.718Z" fill="url(#paint25_linear_6924_643)"/>
<path style="mix-blend-mode:multiply" d="M204.394 304.226C204.561 305.764 203.458 307.015 201.916 307.015C200.375 307.015 198.985 305.764 198.804 304.226C198.637 302.688 199.741 301.437 201.282 301.437C202.823 301.437 204.213 302.688 204.394 304.226Z" fill="url(#paint26_linear_6924_643)"/>
<path style="mix-blend-mode:multiply" d="M241.037 304.226C241.203 305.764 240.1 307.015 238.559 307.015C237.018 307.015 235.628 305.764 235.446 304.226C235.28 302.688 236.383 301.437 237.924 301.437C239.466 301.437 240.856 302.688 241.037 304.226Z" fill="url(#paint27_linear_6924_643)"/>
<path d="M200.829 303.412C200.844 303.985 201.236 304.467 201.69 304.498C202.143 304.528 202.506 304.09 202.491 303.517C202.491 303.457 202.355 297.652 204.334 291.968C206.873 284.685 211.602 280.901 218.356 280.69C225.156 280.901 230.414 284.685 234.025 291.968C236.836 297.652 237.546 303.457 237.546 303.517C237.607 304.09 238.03 304.528 238.483 304.498C238.936 304.467 239.254 303.985 239.178 303.412C239.148 303.171 236.262 279.936 219.066 278.654C218.976 278.624 218.885 278.594 218.794 278.594C218.598 278.594 218.386 278.594 218.19 278.594C217.978 278.594 217.782 278.594 217.571 278.594C217.48 278.594 217.389 278.609 217.314 278.654C200.315 279.936 200.798 303.171 200.798 303.412H200.829Z" fill="#916444"/>
<mask id="mask2_6924_643" style="mask-type:luminance" maskUnits="userSpaceOnUse" x="167" y="296" width="102" height="80">
<path d="M253.578 296.718H228.722H201.509H176.653L167.723 375.846H204.41H231.639H268.326L253.578 296.718Z" fill="white"/>
</mask>
<g mask="url(#mask2_6924_643)">
<g style="mix-blend-mode:screen" opacity="0.3">
<path d="M168.886 384.591C169.597 374.685 170.76 365.458 180.521 360.814C191.431 356.381 204.108 358.205 214.897 354.345C227.06 349.566 233.225 338.921 239.39 328.276C246.673 314.886 255.105 301.723 267.918 293.521C309.637 267.18 319.157 332.196 315.757 359.306C308.459 419.346 249.771 472.601 187.487 448.371C170.428 441.586 151.464 426.176 154.804 405.55C156.541 396.428 162.525 389.884 170.352 386.054C170.458 385.481 169.748 382.978 170.11 384.23" fill="url(#paint28_linear_6924_643)"/>
</g>
</g>
<path d="M177.513 84.9332C177.513 104.625 161.526 120.577 141.793 120.577C122.059 120.577 106.072 104.625 106.072 84.9332C106.072 65.2415 122.059 49.2891 141.793 49.2891C161.526 49.2891 177.513 65.2415 177.513 84.9332Z" fill="#DC8208"/>
<mask id="mask3_6924_643" style="mask-type:luminance" maskUnits="userSpaceOnUse" x="106" y="46" width="72" height="72">
<path d="M177.513 82.0386C177.513 101.73 161.526 117.683 141.793 117.683C122.059 117.683 106.072 101.73 106.072 82.0386C106.072 62.3469 122.059 46.3945 141.793 46.3945C161.526 46.3945 177.513 62.362 177.513 82.0386Z" fill="white"/>
</mask>
<g mask="url(#mask3_6924_643)">
<path d="M177.513 82.0386C177.513 101.73 161.526 117.683 141.793 117.683C122.059 117.683 106.072 101.73 106.072 82.0386C106.072 62.3469 122.059 46.3945 141.793 46.3945C161.526 46.3945 177.513 62.362 177.513 82.0386Z" fill="url(#paint29_linear_6924_643)"/>
<path style="mix-blend-mode:multiply" d="M169.61 82.0391C169.61 97.3733 157.159 109.797 141.792 109.797C126.425 109.797 113.959 97.3733 113.959 82.0391C113.959 66.7049 126.425 54.2656 141.792 54.2656C157.159 54.2656 169.61 66.7049 169.61 82.0391Z" fill="url(#paint30_linear_6924_643)"/>
</g>
<path d="M226.44 30.4122C226.44 45.9424 213.823 58.5325 198.244 58.5325C182.666 58.5325 170.049 45.9424 170.049 30.4122C170.049 14.882 182.681 2.29199 198.259 2.29199C213.838 2.29199 226.455 14.882 226.455 30.4122H226.44Z" fill="#DC8208"/>
<mask id="mask4_6924_643" style="mask-type:luminance" maskUnits="userSpaceOnUse" x="170" y="0" width="57" height="57">
<path d="M226.44 28.1353C226.44 43.6655 213.823 56.2556 198.244 56.2556C182.666 56.2556 170.049 43.6655 170.049 28.1353C170.049 12.6051 182.681 0 198.259 0C213.838 0 226.455 12.59 226.455 28.1353H226.44Z" fill="white"/>
</mask>
<g mask="url(#mask4_6924_643)">
<path d="M226.44 28.1353C226.44 43.6655 213.823 56.2556 198.244 56.2556C182.666 56.2556 170.049 43.6655 170.049 28.1353C170.049 12.6051 182.681 0 198.259 0C213.838 0 226.455 12.59 226.455 28.1353H226.44Z" fill="url(#paint31_linear_6924_643)"/>
<path style="mix-blend-mode:multiply" d="M220.215 28.1357C220.215 40.2432 210.393 50.0438 198.26 50.0438C186.126 50.0438 176.305 40.2282 176.305 28.1357C176.305 16.0432 186.126 6.22754 198.26 6.22754C210.393 6.22754 220.215 16.0432 220.215 28.1357Z" fill="url(#paint32_linear_6924_643)"/>
</g>
<path d="M240.281 50.6924H249.423" stroke="white" stroke-width="3" stroke-linecap="round" stroke-linejoin="round"/>
<path d="M244.859 46.1387V55.2457" stroke="white" stroke-width="3" stroke-linecap="round" stroke-linejoin="round"/>
<path d="M156.239 0.105469C154.547 0.105469 153.172 1.47756 153.172 3.16628C153.172 4.855 154.547 6.22709 156.239 6.22709C157.932 6.22709 159.307 4.855 159.307 3.16628C159.307 1.47756 157.932 0.105469 156.239 0.105469Z" fill="white"/>
<path d="M423.889 267C422.846 267 422 267.844 422 268.885C422 269.925 422.846 270.769 423.889 270.769C424.931 270.769 425.778 269.925 425.778 268.885C425.778 267.844 424.931 267 423.889 267Z" fill="white"/>
<path d="M102.642 54.2199C99.9224 54.2199 97.7012 52.0185 97.7012 49.3045C97.7012 46.5905 99.9224 44.374 102.642 44.374C105.362 44.374 107.568 46.5754 107.568 49.3045C107.568 52.0336 105.362 54.2199 102.642 54.2199ZM102.642 47.1031C101.433 47.1031 100.451 48.0832 100.451 49.2894C100.451 50.4956 101.433 51.4757 102.642 51.4757C103.851 51.4757 104.833 50.4956 104.833 49.2894C104.833 48.0832 103.851 47.1031 102.642 47.1031Z" fill="white"/>
<path d="M133.459 70.7064H139.501C139.747 70.7064 140.064 70.7181 140.45 70.7415C140.848 70.7532 141.211 70.7884 141.539 70.8469C142.991 71.0694 144.191 71.5612 145.14 72.3224C146.1 73.0718 146.809 74.0145 147.265 75.1503C147.734 76.2862 147.968 77.5509 147.968 78.9444C147.968 80.9819 147.482 82.7091 146.51 84.1261C145.55 85.5313 144.08 86.4622 142.101 86.9189C141.621 87.0243 141.199 87.0945 140.836 87.1297C140.473 87.1531 140.023 87.1648 139.484 87.1648H133.459V83.2127H139.326C139.572 83.2127 139.835 83.201 140.116 83.1775C140.409 83.1541 140.684 83.1073 140.942 83.037C141.633 82.8497 142.177 82.5394 142.575 82.1061C142.985 81.6611 143.272 81.1576 143.436 80.5955C143.612 80.0334 143.699 79.483 143.699 78.9444C143.699 78.4057 143.612 77.8554 143.436 77.2933C143.272 76.7195 142.985 76.2101 142.575 75.7651C142.177 75.3201 141.633 75.0098 140.942 74.8342C140.684 74.7639 140.409 74.7229 140.116 74.7112C139.835 74.6878 139.572 74.6761 139.326 74.6761H133.459V70.7064ZM133.459 87.1648L138.061 86.1109L149.197 96H143.296L133.459 87.1648ZM133.582 80.5428V77.346H150.954V80.5428H133.582ZM138.975 73.9032V70.7064H150.848V73.9032H138.975Z" fill="white"/>
<path d="M191.744 20.0576H196.031C196.205 20.0576 196.429 20.0659 196.703 20.0825C196.986 20.0908 197.243 20.1157 197.476 20.1573C198.506 20.3151 199.357 20.664 200.03 21.2039C200.711 21.7355 201.214 22.4042 201.538 23.21C201.87 24.0157 202.036 24.9128 202.036 25.9013C202.036 27.3467 201.692 28.5719 201.002 29.577C200.321 30.5738 199.279 31.2342 197.875 31.5582C197.534 31.6329 197.235 31.6828 196.978 31.7077C196.72 31.7243 196.4 31.7326 196.018 31.7326H191.744V28.9291H195.906C196.08 28.9291 196.267 28.9208 196.467 28.9042C196.674 28.8876 196.87 28.8544 197.052 28.8045C197.542 28.6716 197.929 28.4515 198.211 28.1441C198.502 27.8285 198.705 27.4713 198.822 27.0726C198.946 26.6739 199.009 26.2834 199.009 25.9013C199.009 25.5192 198.946 25.1288 198.822 24.7301C198.705 24.3231 198.502 23.9617 198.211 23.6461C197.929 23.3304 197.542 23.1103 197.052 22.9857C196.87 22.9359 196.674 22.9068 196.467 22.8985C196.267 22.8819 196.08 22.8736 195.906 22.8736H191.744V20.0576ZM191.744 31.7326L195.009 30.985L202.909 38H198.722L191.744 31.7326ZM191.832 27.0352V24.7675H204.155V27.0352H191.832ZM195.657 22.3253V20.0576H204.08V22.3253H195.657Z" fill="white"/>
<defs>
<linearGradient id="paint0_linear_6924_643" x1="78.0605" y1="194.761" x2="407.99" y2="194.761" gradientUnits="userSpaceOnUse">
<stop stop-color="#F185DE"/>
<stop offset="0.31" stop-color="#D879E3"/>
<stop offset="0.96" stop-color="#9A5DF0"/>
<stop offset="1" stop-color="#965CF1"/>
</linearGradient>
<linearGradient id="paint1_linear_6924_643" x1="240.283" y1="260.878" x2="240.283" y2="128.373" gradientUnits="userSpaceOnUse">
<stop stop-color="#FFB9BF"/>
<stop offset="0.19" stop-color="#FCA0B8"/>
<stop offset="0.74" stop-color="#F462A7"/>
<stop offset="0.99" stop-color="#F24AA1"/>
</linearGradient>
<linearGradient id="paint2_linear_6924_643" x1="64.3398" y1="154.955" x2="416.24" y2="154.955" gradientUnits="userSpaceOnUse">
<stop stop-color="#7D5AD1"/>
<stop offset="0.32" stop-color="#9552DA"/>
<stop offset="0.99" stop-color="#D340F3"/>
<stop offset="1" stop-color="#D540F4"/>
</linearGradient>
<linearGradient id="paint3_linear_6924_643" x1="64.3398" y1="118.014" x2="416.24" y2="118.014" gradientUnits="userSpaceOnUse">
<stop stop-color="#D540F4"/>
<stop offset="0.01" stop-color="#D340F3"/>
<stop offset="0.68" stop-color="#9552DA"/>
<stop offset="1" stop-color="#7D5AD1"/>
</linearGradient>
<linearGradient id="paint4_linear_6924_643" x1="158.159" y1="176.216" x2="98.0733" y2="89.4276" gradientUnits="userSpaceOnUse">
<stop stop-color="#FDDFDF"/>
<stop offset="0.47" stop-color="#FDC5DB"/>
<stop offset="0.99" stop-color="#FDADD8"/>
</linearGradient>
<linearGradient id="paint5_linear_6924_643" x1="246.085" y1="176.216" x2="186.015" y2="89.4277" gradientUnits="userSpaceOnUse">
<stop stop-color="#FDDFDF"/>
<stop offset="0.47" stop-color="#FDC5DB"/>
<stop offset="0.99" stop-color="#FDADD8"/>
</linearGradient>
<linearGradient id="paint6_linear_6924_643" x1="333.331" y1="176.216" x2="273.245" y2="89.4277" gradientUnits="userSpaceOnUse">
<stop stop-color="#FDDFDF"/>
<stop offset="0.47" stop-color="#FDC5DB"/>
<stop offset="0.99" stop-color="#FDADD8"/>
</linearGradient>
<linearGradient id="paint7_linear_6924_643" x1="422.042" y1="176.216" x2="361.956" y2="89.4276" gradientUnits="userSpaceOnUse">
<stop stop-color="#FDDFDF"/>
<stop offset="0.47" stop-color="#FDC5DB"/>
<stop offset="0.99" stop-color="#FDADD8"/>
</linearGradient>
<linearGradient id="paint8_linear_6924_643" x1="260.016" y1="52.7733" x2="399.633" y2="52.7733" gradientUnits="userSpaceOnUse">
<stop stop-color="#F185DE"/>
<stop offset="0.31" stop-color="#D879E3"/>
<stop offset="0.96" stop-color="#9A5DF0"/>
<stop offset="1" stop-color="#965CF1"/>
</linearGradient>
<linearGradient id="paint9_linear_6924_643" x1="268.539" y1="50.0436" x2="286.142" y2="50.0436" gradientUnits="userSpaceOnUse">
<stop stop-color="#FFEC95"/>
<stop offset="1" stop-color="#FFC255"/>
</linearGradient>
<linearGradient id="paint10_linear_6924_643" x1="293.41" y1="9.98559e-05" x2="311.013" y2="9.98559e-05" gradientUnits="userSpaceOnUse">
<stop stop-color="#FFEC95"/>
<stop offset="1" stop-color="#FFC255"/>
</linearGradient>
<linearGradient id="paint11_linear_6924_643" x1="318.281" y1="9.98559e-05" x2="335.885" y2="9.98559e-05" gradientUnits="userSpaceOnUse">
<stop stop-color="#FFEC95"/>
<stop offset="1" stop-color="#FFC255"/>
</linearGradient>
<linearGradient id="paint12_linear_6924_643" x1="343.152" y1="9.98559e-05" x2="360.756" y2="9.98559e-05" gradientUnits="userSpaceOnUse">
<stop stop-color="#FFEC95"/>
<stop offset="1" stop-color="#FFC255"/>
</linearGradient>
<linearGradient id="paint13_linear_6924_643" x1="368.023" y1="9.98559e-05" x2="385.627" y2="9.98559e-05" gradientUnits="userSpaceOnUse">
<stop stop-color="#FFEC95"/>
<stop offset="1" stop-color="#FFC255"/>
</linearGradient>
<linearGradient id="paint14_linear_6924_643" x1="0" y1="374.308" x2="268.129" y2="374.308" gradientUnits="userSpaceOnUse">
<stop stop-color="#FDDFDF"/>
<stop offset="0.47" stop-color="#FDC5DB"/>
<stop offset="0.99" stop-color="#FDADD8"/>
</linearGradient>
<linearGradient id="paint15_linear_6924_643" x1="85.0085" y1="278.534" x2="85.0085" y2="270.648" gradientUnits="userSpaceOnUse">
<stop stop-color="#F185DE"/>
<stop offset="0.31" stop-color="#D879E3"/>
<stop offset="0.96" stop-color="#9A5DF0"/>
<stop offset="1" stop-color="#965CF1"/>
</linearGradient>
<linearGradient id="paint16_linear_6924_643" x1="136.805" y1="278.534" x2="136.805" y2="270.648" gradientUnits="userSpaceOnUse">
<stop stop-color="#F185DE"/>
<stop offset="0.31" stop-color="#D879E3"/>
<stop offset="0.96" stop-color="#9A5DF0"/>
<stop offset="1" stop-color="#965CF1"/>
</linearGradient>
<linearGradient id="paint17_linear_6924_643" x1="94.0906" y1="375.847" x2="94.0906" y2="263.969" gradientUnits="userSpaceOnUse">
<stop stop-color="#F185DE"/>
<stop offset="0.31" stop-color="#D879E3"/>
<stop offset="0.96" stop-color="#9A5DF0"/>
<stop offset="1" stop-color="#965CF1"/>
</linearGradient>
<linearGradient id="paint18_linear_6924_643" x1="36.9438" y1="319.908" x2="179.191" y2="319.908" gradientUnits="userSpaceOnUse">
<stop stop-color="#965CF1"/>
<stop offset="0.04" stop-color="#9A5DF0"/>
<stop offset="0.69" stop-color="#D879E3"/>
<stop offset="1" stop-color="#F185DE"/>
</linearGradient>
<linearGradient id="paint19_linear_6924_643" x1="68.086" y1="278.534" x2="68.086" y2="270.648" gradientUnits="userSpaceOnUse">
<stop stop-color="#F185DE"/>
<stop offset="0.31" stop-color="#D879E3"/>
<stop offset="0.96" stop-color="#9A5DF0"/>
<stop offset="1" stop-color="#965CF1"/>
</linearGradient>
<linearGradient id="paint20_linear_6924_643" x1="119.898" y1="278.534" x2="119.898" y2="270.648" gradientUnits="userSpaceOnUse">
<stop stop-color="#F185DE"/>
<stop offset="0.31" stop-color="#D879E3"/>
<stop offset="0.96" stop-color="#9A5DF0"/>
<stop offset="1" stop-color="#965CF1"/>
</linearGradient>
<linearGradient id="paint21_linear_6924_643" x1="151.524" y1="369.363" x2="117.086" y2="327.45" gradientUnits="userSpaceOnUse">
<stop stop-opacity="0"/>
<stop offset="0.04" stop-color="#0B0B0B" stop-opacity="0.05"/>
<stop offset="0.31" stop-color="#616161" stop-opacity="0.38"/>
<stop offset="0.56" stop-color="#A4A4A4" stop-opacity="0.65"/>
<stop offset="0.76" stop-color="#D5D5D5" stop-opacity="0.84"/>
<stop offset="0.91" stop-color="#F3F3F3" stop-opacity="0.96"/>
<stop offset="1" stop-color="white"/>
</linearGradient>
<linearGradient id="paint22_linear_6924_643" x1="189.934" y1="307.015" x2="189.934" y2="301.437" gradientUnits="userSpaceOnUse">
<stop stop-color="#EF890F"/>
<stop offset="0.27" stop-color="#E9A123"/>
<stop offset="0.85" stop-color="#DBDF56"/>
<stop offset="1" stop-color="#D8F165"/>
</linearGradient>
<linearGradient id="paint23_linear_6924_643" x1="226.576" y1="-0.000163248" x2="226.576" y2="-0.000163248" gradientUnits="userSpaceOnUse">
<stop stop-color="#EF890F"/>
<stop offset="0.27" stop-color="#E9A123"/>
<stop offset="0.85" stop-color="#DBDF56"/>
<stop offset="1" stop-color="#D8F165"/>
</linearGradient>
<linearGradient id="paint24_linear_6924_643" x1="194.316" y1="375.846" x2="194.316" y2="296.718" gradientUnits="userSpaceOnUse">
<stop stop-color="#F3B02B"/>
<stop offset="0.47" stop-color="#E8961B"/>
<stop offset="1" stop-color="#DE7E0D"/>
</linearGradient>
<linearGradient id="paint25_linear_6924_643" x1="153.897" y1="336.282" x2="254.5" y2="336.282" gradientUnits="userSpaceOnUse">
<stop stop-color="#F3B02B"/>
<stop offset="0.47" stop-color="#E8961B"/>
<stop offset="1" stop-color="#DE7E0D"/>
</linearGradient>
<linearGradient id="paint26_linear_6924_643" x1="167.722" y1="-0.000163248" x2="167.722" y2="-0.000163248" gradientUnits="userSpaceOnUse">
<stop stop-color="#EF890F"/>
<stop offset="0.27" stop-color="#E9A123"/>
<stop offset="0.85" stop-color="#DBDF56"/>
<stop offset="1" stop-color="#D8F165"/>
</linearGradient>
<linearGradient id="paint27_linear_6924_643" x1="204.365" y1="-0.000163248" x2="204.365" y2="-0.000163248" gradientUnits="userSpaceOnUse">
<stop stop-color="#EF890F"/>
<stop offset="0.27" stop-color="#E9A123"/>
<stop offset="0.85" stop-color="#DBDF56"/>
<stop offset="1" stop-color="#D8F165"/>
</linearGradient>
<linearGradient id="paint28_linear_6924_643" x1="238.982" y1="371.263" x2="214.627" y2="341.614" gradientUnits="userSpaceOnUse">
<stop stop-opacity="0"/>
<stop offset="0.04" stop-color="#0B0B0B" stop-opacity="0.05"/>
<stop offset="0.31" stop-color="#616161" stop-opacity="0.38"/>
<stop offset="0.56" stop-color="#A4A4A4" stop-opacity="0.65"/>
<stop offset="0.76" stop-color="#D5D5D5" stop-opacity="0.84"/>
<stop offset="0.91" stop-color="#F3F3F3" stop-opacity="0.96"/>
<stop offset="1" stop-color="white"/>
</linearGradient>
<linearGradient id="paint29_linear_6924_643" x1="106.072" y1="82.0386" x2="177.513" y2="82.0386" gradientUnits="userSpaceOnUse">
<stop stop-color="#FFEC95"/>
<stop offset="1" stop-color="#FFC255"/>
</linearGradient>
<linearGradient id="paint30_linear_6924_643" x1="113.959" y1="82.0391" x2="169.61" y2="82.0391" gradientUnits="userSpaceOnUse">
<stop stop-color="#FFEC95"/>
<stop offset="1" stop-color="#FFC255"/>
</linearGradient>
<linearGradient id="paint31_linear_6924_643" x1="170.064" y1="28.1353" x2="226.44" y2="28.1353" gradientUnits="userSpaceOnUse">
<stop stop-color="#FFEC95"/>
<stop offset="1" stop-color="#FFC255"/>
</linearGradient>
<linearGradient id="paint32_linear_6924_643" x1="176.29" y1="28.1206" x2="220.215" y2="28.1206" gradientUnits="userSpaceOnUse">
<stop stop-color="#FFEC95"/>
<stop offset="1" stop-color="#FFC255"/>
</linearGradient>
</defs>
</svg>
