<svg width="92" height="92" viewBox="0 0 92 92" fill="none" xmlns="http://www.w3.org/2000/svg">
<g clip-path="url(#clip0_6878_1000)">
<path d="M46.4332 57.0266C46.6193 57.6988 45.6679 59.55 46.3815 59.8602L62.6699 62.756C66.0311 63.0559 68.3476 61.3702 69.5887 58.3503L84.9154 52.8174C88.6178 51.8453 90.7585 56.8404 87.1596 58.702L54.4999 70.5538C49.5564 72.4567 44.5406 69.8815 39.6386 70.2745C36.8669 70.4917 34.0539 71.6603 31.7374 73.1185L21.9746 59.1363C26.1217 56.1578 29.9999 53.2621 34.9847 51.8039C40.4556 50.1906 44.5613 50.3043 50.1252 51.1524C54.3137 51.7832 60.1569 52.5485 64.1282 53.6448C67.9133 54.6893 67.5617 59.3535 63.7972 59.9223L46.4435 57.0369L46.4332 57.0266Z" fill="url(#paint0_linear_6878_1000)"/>
<path d="M16.8044 57.0648L4.00586 65.9766L18.2186 86.388L31.0171 77.4762L16.8044 57.0648Z" fill="url(#paint1_linear_6878_1000)"/>
<path d="M51.4295 15.2041V22.9709C51.4295 23.7672 52.8256 24.76 53.5909 24.1705L59.0411 18.8548C59.4548 18.7824 63.7777 23.6638 64.6257 24.1705C65.391 24.76 66.7872 23.7568 66.7872 22.9709V15.2041H85.2061V49.9218C83.0446 49.9011 80.5729 51.742 78.5666 52.0109C77.2635 52.1867 68.2971 52.2281 67.356 51.9385C66.5183 51.6903 65.784 51.0491 64.5223 50.7388C57.7587 49.1048 46.2275 47.0158 39.4846 47.8328C37.2818 48.1017 35.1513 48.7118 33.0312 49.3427V15.2041H51.4502H51.4295Z" fill="url(#paint2_linear_6878_1000)"/>
<path d="M51.4287 6V12.1431H33.0098V6.85838C33.0098 6.79633 33.8164 6 33.8681 6H51.4183H51.4287Z" fill="url(#paint3_linear_6878_1000)"/>
<path d="M85.1845 12.1431H66.7656V6H84.3158C84.3779 6 85.1742 6.80667 85.1742 6.85838V12.1327L85.1845 12.1431Z" fill="url(#paint4_linear_6878_1000)"/>
<path d="M63.7049 6V19.2376C62.5776 18.5861 60.3127 15.3284 59.1648 15.2663C57.9548 15.2043 55.6485 18.5757 54.4902 19.2376V6H63.6945H63.7049Z" fill="url(#paint5_linear_6878_1000)"/>
</g>
<defs>
<linearGradient id="paint0_linear_6878_1000" x1="55.4922" y1="50.5439" x2="55.4922" y2="73.1185" gradientUnits="userSpaceOnUse">
<stop stop-color="#F58220"/>
<stop offset="1" stop-color="#B658E8"/>
</linearGradient>
<linearGradient id="paint1_linear_6878_1000" x1="10.4051" y1="61.5207" x2="24.6179" y2="81.9321" gradientUnits="userSpaceOnUse">
<stop stop-color="#F58220"/>
<stop offset="1" stop-color="#B658E8"/>
</linearGradient>
<linearGradient id="paint2_linear_6878_1000" x1="59.1187" y1="15.2041" x2="59.1187" y2="52.1494" gradientUnits="userSpaceOnUse">
<stop stop-color="#B658E8"/>
<stop offset="1" stop-color="#F58220"/>
</linearGradient>
<linearGradient id="paint3_linear_6878_1000" x1="42.2192" y1="6" x2="42.2192" y2="12.1431" gradientUnits="userSpaceOnUse">
<stop stop-color="#B658E8"/>
<stop offset="1" stop-color="#F58220"/>
</linearGradient>
<linearGradient id="paint4_linear_6878_1000" x1="75.9751" y1="6" x2="75.9751" y2="12.1431" gradientUnits="userSpaceOnUse">
<stop stop-color="#B658E8"/>
<stop offset="1" stop-color="#F58220"/>
</linearGradient>
<linearGradient id="paint5_linear_6878_1000" x1="59.0975" y1="6" x2="59.0975" y2="19.2376" gradientUnits="userSpaceOnUse">
<stop stop-color="#B658E8"/>
<stop offset="1" stop-color="#F58220"/>
</linearGradient>
<clipPath id="clip0_6878_1000">
<rect width="85" height="80.3875" fill="white" transform="translate(4 6)"/>
</clipPath>
</defs>
</svg>
