<svg width="66" height="64" viewBox="0 0 66 64" fill="none" xmlns="http://www.w3.org/2000/svg">
<g opacity="0.7">
<path d="M31.2109 59.7922C31.2109 62.0737 31.917 63.9252 32.7906 63.9252C33.6642 63.9252 34.3702 62.0737 34.3702 59.7922C34.3702 59.7922 34.2805 50.8692 32.7906 37.5742C31.3007 50.8692 31.2109 59.7922 31.2109 59.7922Z" fill="url(#paint0_linear_11054_1312)"/>
<path d="M13.0275 52.0417C11.5555 53.7916 10.9093 55.661 11.5735 56.2225C12.2436 56.7839 13.9729 55.8163 15.4448 54.0664C15.4448 54.0664 21.1231 47.174 28.5427 36.0352C18.8434 45.2628 13.0275 52.0417 13.0275 52.0417Z" fill="url(#paint1_linear_11054_1312)"/>
<path d="M4.09588 34.4382C1.84609 34.8324 0.140798 35.8537 0.290385 36.7078C0.439973 37.5679 2.39059 37.9382 4.64038 37.544C4.64038 37.544 13.4301 35.9075 26.2827 32.1328C12.9096 32.9749 4.0899 34.4382 4.0899 34.4382H4.09588Z" fill="url(#paint2_linear_11054_1312)"/>
<path d="M7.00446 17.9562C7.00446 17.9562 14.789 22.3401 27.0671 27.6975C16.2789 19.7659 8.57812 15.2267 8.57812 15.2267C6.59759 14.086 4.64098 13.7694 4.20419 14.522C3.7674 15.2745 5.01794 16.8095 6.99848 17.9562H7.00446Z" fill="url(#paint3_linear_11054_1312)"/>
<path d="M21.5098 0.0378928C20.69 0.336522 20.6601 2.31345 21.444 4.46358C21.444 4.46358 24.5853 12.8192 30.5389 24.8002C27.3856 11.7979 24.4118 3.38254 24.4118 3.38254C23.6279 1.23838 22.3295 -0.260736 21.5098 0.0378928Z" fill="url(#paint4_linear_11054_1312)"/>
<path d="M44.076 0.0378928C43.2562 -0.260736 41.9578 1.23838 41.174 3.38254C41.174 3.38254 38.2002 11.7979 35.0469 24.8002C41.0004 12.8192 44.1418 4.46358 44.1418 4.46358C44.9256 2.31942 44.8957 0.336522 44.076 0.0378928Z" fill="url(#paint5_linear_11054_1312)"/>
<path d="M58.5686 17.9538C60.5492 16.8131 61.7997 15.2781 61.3629 14.5196C60.9261 13.767 58.9695 14.0776 56.989 15.2243C56.989 15.2243 49.2942 19.7635 38.5 27.6951C50.7781 22.3377 58.5626 17.9538 58.5626 17.9538H58.5686Z" fill="url(#paint6_linear_11054_1312)"/>
<path d="M61.474 34.4382C61.474 34.4382 52.6543 32.9749 39.2812 32.1328C52.1398 35.9075 60.9235 37.544 60.9235 37.544C63.1733 37.9382 65.1239 37.5679 65.2735 36.7078C65.4231 35.8477 63.7238 34.8324 61.468 34.4382H61.474Z" fill="url(#paint7_linear_11054_1312)"/>
<path d="M37.0312 36.0352C44.4508 47.174 50.1291 54.0664 50.1291 54.0664C51.601 55.8163 53.3303 56.7779 54.0004 56.2225C54.6706 55.661 54.0184 53.7916 52.5464 52.0417C52.5464 52.0417 46.7305 45.2628 37.0312 36.0352Z" fill="url(#paint8_linear_11054_1312)"/>
<path d="M38.5973 52.2737C39.1658 53.9101 40.1351 55.0569 40.7574 54.8419C41.3797 54.6269 41.4275 53.1277 40.8591 51.4913C40.8591 51.4913 38.5674 45.1245 34.1875 35.9805C36.4373 45.8651 38.5973 52.2737 38.5973 52.2737Z" fill="url(#paint9_linear_11054_1312)"/>
<path d="M23.6497 51.2356C23.0334 52.8541 23.0334 54.3532 23.6497 54.5862C24.266 54.8191 25.2653 53.7022 25.8816 52.0837C25.8816 52.0837 28.2271 45.7408 30.7581 35.9219C26.1149 44.9345 23.6437 51.2296 23.6437 51.2296L23.6497 51.2356Z" fill="url(#paint10_linear_11054_1312)"/>
<path d="M12.8649 40.8663C11.3511 41.7084 10.3877 42.8612 10.7108 43.4345C11.034 44.0079 12.5179 43.7929 14.0317 42.9507C14.0317 42.9507 19.9135 39.5942 28.1766 33.6992C18.8185 37.6292 12.8649 40.8603 12.8649 40.8603V40.8663Z" fill="url(#paint11_linear_11054_1312)"/>
<path d="M10.8374 28.3377C10.8374 28.3377 17.503 29.5382 27.627 30.3266C17.9278 27.3284 11.2861 25.9905 11.2861 25.9905C9.58682 25.668 8.10291 25.9248 7.97726 26.5758C7.85161 27.2209 9.13207 28.0092 10.8374 28.3377Z" fill="url(#paint12_linear_11054_1312)"/>
<path d="M16.7472 11.9109C16.2326 12.329 16.7053 13.7504 17.8003 15.0943C17.8003 15.0943 22.1323 20.2904 29.3783 27.3918C23.8795 18.8689 19.6552 13.5892 19.6552 13.5892C18.5602 12.2454 17.2558 11.4988 16.7472 11.9169V11.9109Z" fill="url(#paint13_linear_11054_1312)"/>
<path d="M32.8949 6.30867C32.2367 6.29672 31.6803 7.69431 31.6563 9.42636C31.6563 9.42636 31.6264 16.1873 32.6077 26.275C33.8822 16.2172 34.0497 9.46219 34.0497 9.46219C34.0737 7.73014 33.5591 6.32061 32.9009 6.31464L32.8949 6.30867Z" fill="url(#paint14_linear_11054_1312)"/>
<path d="M47.7454 15.5274C48.8763 14.2194 49.3909 12.8099 48.8942 12.3739C48.3976 11.9379 47.0693 12.6546 45.9384 13.9626C45.9384 13.9626 41.5645 19.1229 35.8203 27.4845C43.2698 20.5981 47.7514 15.5274 47.7514 15.5274H47.7454Z" fill="url(#paint15_linear_11054_1312)"/>
<path d="M53.9371 26.6089C53.9371 26.6089 47.2596 27.7556 37.4766 30.4731C47.6186 29.9774 54.3141 28.968 54.3141 28.968C56.0254 28.6933 57.3238 27.9408 57.2221 27.2898C57.1144 26.6387 55.6424 26.3341 53.9312 26.6089H53.9371Z" fill="url(#paint16_linear_11054_1312)"/>
<path d="M36.8359 33.8203C44.9256 39.9482 50.7057 43.472 50.7057 43.472C52.1956 44.3559 53.6735 44.6187 54.0145 44.0513C54.3556 43.4839 53.4222 42.3074 51.9323 41.4234C51.9323 41.4234 46.0804 38.019 36.8359 33.8203Z" fill="url(#paint17_linear_11054_1312)"/>
<path d="M34.098 29.2031L32.5423 30.2364L30.8131 29.5495L31.3157 31.3413L30.125 32.7688L31.9859 32.8464L32.9851 34.4172L33.6313 32.6732L35.4383 32.2193L33.9724 31.0606L34.098 29.2031Z" fill="url(#paint18_linear_11054_1312)"/>
</g>
<defs>
<linearGradient id="paint0_linear_11054_1312" x1="32.7906" y1="62.4978" x2="32.7906" y2="39.9274" gradientUnits="userSpaceOnUse">
<stop offset="0.39" stop-color="#B92C83"/>
<stop offset="1" stop-color="#D670B4"/>
</linearGradient>
<linearGradient id="paint1_linear_11054_1312" x1="19.9264" y1="55.2788" x2="19.9264" y2="37.8508" gradientUnits="userSpaceOnUse">
<stop offset="0.39" stop-color="#B92C83"/>
<stop offset="1" stop-color="#D670B4"/>
</linearGradient>
<linearGradient id="paint2_linear_11054_1312" x1="13.2805" y1="37.4006" x2="13.2805" y2="32.6285" gradientUnits="userSpaceOnUse">
<stop offset="0.39" stop-color="#B92C83"/>
<stop offset="1" stop-color="#D670B4"/>
</linearGradient>
<linearGradient id="paint3_linear_11054_1312" x1="15.5968" y1="26.9628" x2="15.5968" y2="15.3223" gradientUnits="userSpaceOnUse">
<stop offset="0.39" stop-color="#B92C83"/>
<stop offset="1" stop-color="#D670B4"/>
</linearGradient>
<linearGradient id="paint4_linear_11054_1312" x1="25.7042" y1="23.4564" x2="25.7042" y2="2.21191" gradientUnits="userSpaceOnUse">
<stop offset="0.39" stop-color="#B92C83"/>
<stop offset="1" stop-color="#D670B4"/>
</linearGradient>
<linearGradient id="paint5_linear_11054_1312" x1="39.8815" y1="23.4564" x2="39.8815" y2="2.21191" gradientUnits="userSpaceOnUse">
<stop offset="0.39" stop-color="#B92C83"/>
<stop offset="1" stop-color="#D670B4"/>
</linearGradient>
<linearGradient id="paint6_linear_11054_1312" x1="49.9823" y1="26.9605" x2="49.9823" y2="15.3199" gradientUnits="userSpaceOnUse">
<stop offset="0.39" stop-color="#B92C83"/>
<stop offset="1" stop-color="#D670B4"/>
</linearGradient>
<linearGradient id="paint7_linear_11054_1312" x1="52.2834" y1="37.4006" x2="52.2834" y2="32.6285" gradientUnits="userSpaceOnUse">
<stop offset="0.39" stop-color="#B92C83"/>
<stop offset="1" stop-color="#D670B4"/>
</linearGradient>
<linearGradient id="paint8_linear_11054_1312" x1="45.6475" y1="55.2788" x2="45.6475" y2="37.8508" gradientUnits="userSpaceOnUse">
<stop offset="0.39" stop-color="#B92C83"/>
<stop offset="1" stop-color="#D670B4"/>
</linearGradient>
<linearGradient id="paint9_linear_11054_1312" x1="40.3991" y1="53.8292" x2="34.7902" y2="37.6659" gradientUnits="userSpaceOnUse">
<stop stop-color="#901BE6"/>
<stop offset="1" stop-color="#B158F5"/>
</linearGradient>
<linearGradient id="paint10_linear_11054_1312" x1="29.3919" y1="51.8517" x2="25.0598" y2="39.368" gradientUnits="userSpaceOnUse">
<stop stop-color="#901BE6"/>
<stop offset="1" stop-color="#B158F5"/>
</linearGradient>
<linearGradient id="paint11_linear_11054_1312" x1="20.178" y1="40.7059" x2="18.9932" y2="37.2915" gradientUnits="userSpaceOnUse">
<stop stop-color="#901BE6"/>
<stop offset="1" stop-color="#B158F5"/>
</linearGradient>
<linearGradient id="paint12_linear_11054_1312" x1="19.2335" y1="32.658" x2="16.3409" y2="24.3224" gradientUnits="userSpaceOnUse">
<stop stop-color="#901BE6"/>
<stop offset="1" stop-color="#B158F5"/>
</linearGradient>
<linearGradient id="paint13_linear_11054_1312" x1="25.5858" y1="27.6369" x2="20.3078" y2="12.4274" gradientUnits="userSpaceOnUse">
<stop stop-color="#901BE6"/>
<stop offset="1" stop-color="#B158F5"/>
</linearGradient>
<linearGradient id="paint14_linear_11054_1312" x1="35.7289" y1="24.1225" x2="30.4509" y2="8.91299" gradientUnits="userSpaceOnUse">
<stop stop-color="#901BE6"/>
<stop offset="1" stop-color="#B158F5"/>
</linearGradient>
<linearGradient id="paint15_linear_11054_1312" x1="43.8428" y1="24.1196" x2="40.9502" y2="15.784" gradientUnits="userSpaceOnUse">
<stop stop-color="#901BE6"/>
<stop offset="1" stop-color="#B158F5"/>
</linearGradient>
<linearGradient id="paint16_linear_11054_1312" x1="48.099" y1="31.0165" x2="46.9142" y2="27.6021" gradientUnits="userSpaceOnUse">
<stop stop-color="#901BE6"/>
<stop offset="1" stop-color="#B158F5"/>
</linearGradient>
<linearGradient id="paint17_linear_11054_1312" x1="47.7961" y1="45.4591" x2="43.466" y2="32.9811" gradientUnits="userSpaceOnUse">
<stop stop-color="#901BE6"/>
<stop offset="1" stop-color="#B158F5"/>
</linearGradient>
<linearGradient id="paint18_linear_11054_1312" x1="32.9225" y1="33.595" x2="32.1485" y2="27.1162" gradientUnits="userSpaceOnUse">
<stop stop-color="#901BE6"/>
<stop offset="1" stop-color="#B158F5"/>
</linearGradient>
</defs>
</svg>
