<svg width="58" height="58" viewBox="0 0 58 58" fill="none" xmlns="http://www.w3.org/2000/svg">
<g opacity="0.7">
<path d="M27.5938 53.3513C27.5938 55.387 28.2237 57.039 29.0032 57.039C29.7826 57.039 30.4126 55.387 30.4126 53.3513C30.4126 53.3513 30.3325 45.3898 29.0032 33.5273C27.6738 45.3898 27.5938 53.3513 27.5938 53.3513Z" fill="url(#paint0_linear_11054_4786)"/>
<path d="M11.3739 46.4341C10.0606 47.9956 9.484 49.6635 10.0766 50.1645C10.6745 50.6654 12.2175 49.8021 13.5308 48.2407C13.5308 48.2407 18.5973 42.091 25.2174 32.1523C16.5632 40.3857 11.3739 46.4341 11.3739 46.4341Z" fill="url(#paint1_linear_11054_4786)"/>
<path d="M3.40361 30.7289C1.39623 31.0806 -0.125318 31.9919 0.00815108 32.7539C0.14162 33.5213 1.88206 33.8517 3.88944 33.5C3.88944 33.5 11.7321 32.0398 23.1998 28.6719C11.2676 29.4233 3.39827 30.7289 3.39827 30.7289H3.40361Z" fill="url(#paint2_linear_11054_4786)"/>
<path d="M5.99805 16.0226C5.99805 16.0226 12.9438 19.9341 23.8989 24.7142C14.2731 17.6373 7.40214 13.5872 7.40214 13.5872C5.63501 12.5694 3.88923 12.2869 3.4995 12.9584C3.10977 13.6298 4.22558 14.9994 5.99271 16.0226H5.99805Z" fill="url(#paint3_linear_11054_4786)"/>
<path d="M18.9414 0.0338099C18.21 0.300262 18.1833 2.06417 18.8827 3.98263C18.8827 3.98263 21.6855 11.4379 26.9976 22.128C24.1841 10.5267 21.5307 3.01807 21.5307 3.01807C20.8313 1.10495 19.6728 -0.232642 18.9414 0.0338099Z" fill="url(#paint4_linear_11054_4786)"/>
<path d="M39.0718 0.0338099C38.3404 -0.232642 37.1819 1.10495 36.4825 3.01807C36.4825 3.01807 33.8292 10.5267 31.0156 22.128C36.3277 11.4379 39.1306 3.98263 39.1306 3.98263C39.8299 2.0695 39.8032 0.300262 39.0718 0.0338099Z" fill="url(#paint5_linear_11054_4786)"/>
<path d="M52 16.02C53.7671 15.0022 54.8829 13.6326 54.4932 12.9559C54.1035 12.2844 52.3577 12.5615 50.5905 13.5847C50.5905 13.5847 43.7249 17.6347 34.0938 24.7117C45.0489 19.9316 51.9946 16.02 51.9946 16.02H52Z" fill="url(#paint6_linear_11054_4786)"/>
<path d="M54.5984 30.7289C54.5984 30.7289 46.729 29.4233 34.7969 28.6719C46.2699 32.0398 54.1072 33.5 54.1072 33.5C56.1146 33.8517 57.855 33.5213 57.9885 32.7539C58.122 31.9865 56.6057 31.0806 54.593 30.7289H54.5984Z" fill="url(#paint7_linear_11054_4786)"/>
<path d="M32.7891 32.1523C39.4091 42.091 44.4756 48.2407 44.4756 48.2407C45.789 49.8021 47.3319 50.6601 47.9298 50.1645C48.5278 49.6635 47.9458 47.9956 46.6325 46.4341C46.6325 46.4341 41.4432 40.3857 32.7891 32.1523Z" fill="url(#paint8_linear_11054_4786)"/>
<path d="M34.1847 46.6392C34.6919 48.0993 35.5567 49.1225 36.112 48.9307C36.6672 48.7388 36.7099 47.4012 36.2027 45.9411C36.2027 45.9411 34.158 40.2603 30.25 32.1016C32.2574 40.9211 34.1847 46.6392 34.1847 46.6392Z" fill="url(#paint9_linear_11054_4786)"/>
<path d="M20.8499 45.7183C20.3 47.1625 20.3 48.5001 20.8499 48.7079C21.3998 48.9157 22.2914 47.9192 22.8413 46.475C22.8413 46.475 24.9341 40.8156 27.1924 32.0547C23.0495 40.0962 20.8446 45.713 20.8446 45.713L20.8499 45.7183Z" fill="url(#paint10_linear_11054_4786)"/>
<path d="M11.2276 36.4652C9.87693 37.2165 9.01739 38.2451 9.30568 38.7566C9.59398 39.2682 10.918 39.0764 12.2687 38.325C12.2687 38.325 17.5167 35.3301 24.8896 30.0703C16.5397 33.5768 11.2276 36.4598 11.2276 36.4598V36.4652Z" fill="url(#paint11_linear_11054_4786)"/>
<path d="M9.4189 25.2847C9.4189 25.2847 15.3663 26.3558 24.3995 27.0593C15.7453 24.3841 9.81931 23.1904 9.81931 23.1904C8.3031 22.9026 6.97908 23.1318 6.86697 23.7126C6.75485 24.2882 7.89735 24.9916 9.4189 25.2847Z" fill="url(#paint12_linear_11054_4786)"/>
<path d="M14.6935 10.6295C14.2344 11.0025 14.6561 12.2708 15.6331 13.4699C15.6331 13.4699 19.4984 18.1061 25.9637 24.4423C21.0573 16.8378 17.2882 12.127 17.2882 12.127C16.3112 10.9279 15.1473 10.2618 14.6935 10.6348V10.6295Z" fill="url(#paint13_linear_11054_4786)"/>
<path d="M29.1052 5.62897C28.5179 5.61832 28.0214 6.86531 28.0001 8.41073C28.0001 8.41073 27.9734 14.4432 28.849 23.4439C29.9861 14.4698 30.1356 8.4427 30.1356 8.4427C30.157 6.89728 29.6978 5.63963 29.1106 5.6343L29.1052 5.62897Z" fill="url(#paint14_linear_11054_4786)"/>
<path d="M42.3511 13.8574C43.3601 12.6904 43.8193 11.4327 43.3761 11.0437C42.933 10.6547 41.7478 11.2941 40.7388 12.4612C40.7388 12.4612 36.8362 17.0655 31.7109 24.5261C38.3577 18.3818 42.3564 13.8574 42.3564 13.8574H42.3511Z" fill="url(#paint15_linear_11054_4786)"/>
<path d="M47.8745 23.7425C47.8745 23.7425 41.9164 24.7657 33.1875 27.1904C42.2367 26.7481 48.2108 25.8475 48.2108 25.8475C49.7377 25.6024 50.8962 24.9309 50.8054 24.35C50.7093 23.7692 49.396 23.4974 47.8691 23.7425H47.8745Z" fill="url(#paint16_linear_11054_4786)"/>
<path d="M32.6172 30.1797C39.8352 35.6473 44.9925 38.7914 44.9925 38.7914C46.3218 39.5801 47.6405 39.8146 47.9448 39.3083C48.2491 38.8021 47.4163 37.7522 46.0869 36.9636C46.0869 36.9636 40.8656 33.926 32.6172 30.1797Z" fill="url(#paint17_linear_11054_4786)"/>
<path d="M30.1778 26.0586L28.7897 26.9805L27.2468 26.3677L27.6952 27.9664L26.6328 29.24L28.2932 29.3093L29.1847 30.7108L29.7613 29.1548L31.3736 28.7498L30.0656 27.7159L30.1778 26.0586Z" fill="url(#paint18_linear_11054_4786)"/>
</g>
<defs>
<linearGradient id="paint0_linear_11054_4786" x1="29.0032" y1="55.7654" x2="29.0032" y2="35.627" gradientUnits="userSpaceOnUse">
<stop offset="0.39" stop-color="#B92C83"/>
<stop offset="1" stop-color="#D670B4"/>
</linearGradient>
<linearGradient id="paint1_linear_11054_4786" x1="17.5295" y1="49.3225" x2="17.5295" y2="33.7724" gradientUnits="userSpaceOnUse">
<stop offset="0.39" stop-color="#B92C83"/>
<stop offset="1" stop-color="#D670B4"/>
</linearGradient>
<linearGradient id="paint2_linear_11054_4786" x1="11.5986" y1="33.3721" x2="11.5986" y2="29.1142" gradientUnits="userSpaceOnUse">
<stop offset="0.39" stop-color="#B92C83"/>
<stop offset="1" stop-color="#D670B4"/>
</linearGradient>
<linearGradient id="paint3_linear_11054_4786" x1="13.6645" y1="24.0588" x2="13.6645" y2="13.6725" gradientUnits="userSpaceOnUse">
<stop offset="0.39" stop-color="#B92C83"/>
<stop offset="1" stop-color="#D670B4"/>
</linearGradient>
<linearGradient id="paint4_linear_11054_4786" x1="22.6839" y1="20.9289" x2="22.6839" y2="1.97358" gradientUnits="userSpaceOnUse">
<stop offset="0.39" stop-color="#B92C83"/>
<stop offset="1" stop-color="#D670B4"/>
</linearGradient>
<linearGradient id="paint5_linear_11054_4786" x1="35.3293" y1="20.9289" x2="35.3293" y2="1.97358" gradientUnits="userSpaceOnUse">
<stop offset="0.39" stop-color="#B92C83"/>
<stop offset="1" stop-color="#D670B4"/>
</linearGradient>
<linearGradient id="paint6_linear_11054_4786" x1="44.3388" y1="24.0562" x2="44.3388" y2="13.6699" gradientUnits="userSpaceOnUse">
<stop offset="0.39" stop-color="#B92C83"/>
<stop offset="1" stop-color="#D670B4"/>
</linearGradient>
<linearGradient id="paint7_linear_11054_4786" x1="46.398" y1="33.3721" x2="46.398" y2="29.1142" gradientUnits="userSpaceOnUse">
<stop offset="0.39" stop-color="#B92C83"/>
<stop offset="1" stop-color="#D670B4"/>
</linearGradient>
<linearGradient id="paint8_linear_11054_4786" x1="40.4769" y1="49.3225" x2="40.4769" y2="33.7724" gradientUnits="userSpaceOnUse">
<stop offset="0.39" stop-color="#B92C83"/>
<stop offset="1" stop-color="#D670B4"/>
</linearGradient>
<linearGradient id="paint9_linear_11054_4786" x1="35.7923" y1="48.0271" x2="30.7877" y2="33.6054" gradientUnits="userSpaceOnUse">
<stop stop-color="#901BE6"/>
<stop offset="1" stop-color="#B158F5"/>
</linearGradient>
<linearGradient id="paint10_linear_11054_4786" x1="25.9733" y1="46.2681" x2="22.1081" y2="35.1295" gradientUnits="userSpaceOnUse">
<stop stop-color="#901BE6"/>
<stop offset="1" stop-color="#B158F5"/>
</linearGradient>
<linearGradient id="paint11_linear_11054_4786" x1="17.7528" y1="36.322" x2="16.6956" y2="33.2755" gradientUnits="userSpaceOnUse">
<stop stop-color="#901BE6"/>
<stop offset="1" stop-color="#B158F5"/>
</linearGradient>
<linearGradient id="paint12_linear_11054_4786" x1="16.9103" y1="29.1394" x2="14.3294" y2="21.702" gradientUnits="userSpaceOnUse">
<stop stop-color="#901BE6"/>
<stop offset="1" stop-color="#B158F5"/>
</linearGradient>
<linearGradient id="paint13_linear_11054_4786" x1="22.5797" y1="24.661" x2="17.8705" y2="11.0903" gradientUnits="userSpaceOnUse">
<stop stop-color="#901BE6"/>
<stop offset="1" stop-color="#B158F5"/>
</linearGradient>
<linearGradient id="paint14_linear_11054_4786" x1="31.6338" y1="21.5234" x2="26.9245" y2="7.95268" gradientUnits="userSpaceOnUse">
<stop stop-color="#901BE6"/>
<stop offset="1" stop-color="#B158F5"/>
</linearGradient>
<linearGradient id="paint15_linear_11054_4786" x1="38.869" y1="21.5238" x2="36.2881" y2="14.0864" gradientUnits="userSpaceOnUse">
<stop stop-color="#901BE6"/>
<stop offset="1" stop-color="#B158F5"/>
</linearGradient>
<linearGradient id="paint16_linear_11054_4786" x1="42.6654" y1="27.6752" x2="41.6082" y2="24.6288" gradientUnits="userSpaceOnUse">
<stop stop-color="#901BE6"/>
<stop offset="1" stop-color="#B158F5"/>
</linearGradient>
<linearGradient id="paint17_linear_11054_4786" x1="42.3964" y1="40.5644" x2="38.5329" y2="29.4309" gradientUnits="userSpaceOnUse">
<stop stop-color="#901BE6"/>
<stop offset="1" stop-color="#B158F5"/>
</linearGradient>
<linearGradient id="paint18_linear_11054_4786" x1="29.1289" y1="29.9772" x2="28.4383" y2="24.1966" gradientUnits="userSpaceOnUse">
<stop stop-color="#901BE6"/>
<stop offset="1" stop-color="#B158F5"/>
</linearGradient>
</defs>
</svg>
