<svg width="364" height="353" viewBox="0 0 364 353" fill="none" xmlns="http://www.w3.org/2000/svg">
<g opacity="0.8">
<path d="M129.616 227.788L129.344 228.066L138.776 237.287L139.048 237.008L129.616 227.788Z" fill="url(#paint0_linear_11128_5)"/>
<path d="M155.463 227.78L146.031 237L146.304 237.279L155.736 228.059L155.463 227.78Z" fill="url(#paint1_linear_11128_5)"/>
<path d="M142.491 239.616C142.371 239.616 142.281 239.516 142.281 239.386V231.906C142.281 231.776 142.381 231.676 142.491 231.676C142.601 231.676 142.701 231.776 142.701 231.906V239.386C142.701 239.516 142.601 239.616 142.491 239.616Z" fill="url(#paint2_linear_11128_5)"/>
<path d="M142.472 234.775C142.472 234.775 145.382 232.325 145.422 228.635C145.462 224.945 142.572 221.265 142.612 219.445C142.612 219.445 138.602 224.925 138.942 228.835C139.282 232.745 142.472 234.775 142.472 234.775Z" fill="url(#paint3_linear_11128_5)"/>
<path d="M142.53 233.718C142.53 233.718 144.29 231.108 144.2 228.628C144.11 226.148 142.66 223.908 142.34 222.828C142.34 222.828 137.76 228.638 142.53 233.718Z" fill="url(#paint4_radial_11128_5)"/>
<path opacity="0.37" d="M150.297 224.616C149.707 231.466 145.977 236.696 141.947 236.296C137.917 235.896 135.137 230.016 135.717 223.166C136.307 216.316 140.037 211.086 144.067 211.486C148.097 211.886 150.877 217.766 150.297 224.616Z" fill="url(#paint5_radial_11128_5)"/>
<path d="M146.878 236.657C146.878 236.507 146.758 236.387 146.608 236.387H138.418C138.268 236.387 138.148 236.507 138.148 236.657V239.617C138.148 240.437 146.878 240.437 146.878 239.617V236.657Z" fill="url(#paint6_linear_11128_5)"/>
<path style="mix-blend-mode:multiply" opacity="0.14" d="M140.618 236.387H138.418C138.268 236.387 138.148 236.507 138.148 236.657V239.617C138.148 239.987 139.978 240.197 141.968 240.227C140.848 239.017 140.598 237.507 140.618 236.387Z" fill="url(#paint7_linear_11128_5)"/>
<path d="M161.525 187.825C142.165 181.715 127.805 186.215 123.815 187.755C123.155 188.015 122.735 188.665 122.785 189.375L125.475 227.415C125.525 228.185 126.165 228.775 126.935 228.775H158.495C159.265 228.775 159.895 228.185 159.955 227.415L162.645 189.485C162.695 188.745 162.235 188.055 161.525 187.825Z" fill="url(#paint8_linear_11128_5)"/>
<path opacity="0.37" d="M141.966 226.113C150.636 226.113 157.666 215.672 157.666 202.793C157.666 189.913 150.636 179.473 141.966 179.473C133.295 179.473 126.266 189.913 126.266 202.793C126.266 215.672 133.295 226.113 141.966 226.113Z" fill="url(#paint9_radial_11128_5)"/>
</g>
<g opacity="0.6">
<path d="M183.331 340.046L183.219 340.16L186.966 343.823L187.078 343.709L183.331 340.046Z" fill="url(#paint10_linear_11128_5)"/>
<path d="M193.599 340.028L189.852 343.691L189.963 343.806L193.71 340.143L193.599 340.028Z" fill="url(#paint11_linear_11128_5)"/>
<path d="M188.442 344.744C188.442 344.744 188.352 344.704 188.352 344.654V341.684C188.352 341.634 188.392 341.594 188.442 341.594C188.492 341.594 188.532 341.634 188.532 341.684V344.654C188.532 344.704 188.492 344.744 188.442 344.744Z" fill="url(#paint12_linear_11128_5)"/>
<path d="M188.433 342.817C188.433 342.817 189.593 341.847 189.603 340.377C189.613 338.907 188.473 337.447 188.483 336.727C188.483 336.727 186.893 338.907 187.023 340.457C187.153 342.007 188.423 342.817 188.423 342.817H188.433Z" fill="url(#paint13_linear_11128_5)"/>
<path d="M188.452 342.396C188.452 342.396 189.152 341.356 189.112 340.376C189.082 339.396 188.502 338.496 188.372 338.066C188.372 338.066 186.552 340.376 188.452 342.396Z" fill="url(#paint14_radial_11128_5)"/>
<path opacity="0.37" d="M191.541 338.776C191.311 341.496 189.821 343.576 188.221 343.416C186.621 343.256 185.511 340.916 185.741 338.196C185.971 335.476 187.461 333.396 189.061 333.556C190.661 333.716 191.771 336.056 191.541 338.776Z" fill="url(#paint15_radial_11128_5)"/>
<path d="M190.183 343.567C190.183 343.507 190.133 343.457 190.073 343.457H186.813C186.753 343.457 186.703 343.507 186.703 343.567V344.747C186.703 345.067 190.173 345.067 190.173 344.747V343.567H190.183Z" fill="url(#paint16_linear_11128_5)"/>
<path style="mix-blend-mode:multiply" opacity="0.14" d="M187.691 343.457H186.821C186.761 343.457 186.711 343.507 186.711 343.567V344.747C186.711 344.897 187.441 344.977 188.231 344.987C187.781 344.507 187.691 343.907 187.691 343.467V343.457Z" fill="url(#paint17_linear_11128_5)"/>
<path style="mix-blend-mode:screen" opacity="0.3" d="M167.842 339.276C166.022 330.556 173.792 322.346 185.202 320.956C196.612 319.566 207.333 325.506 209.153 334.226C210.973 342.946 203.203 351.156 191.793 352.546C180.383 353.936 169.662 347.996 167.842 339.276Z" fill="url(#paint18_radial_11128_5)"/>
<path d="M196.001 324.156C188.311 321.726 182.601 323.516 181.021 324.126C180.761 324.226 180.591 324.486 180.611 324.776L181.681 339.896C181.701 340.196 181.951 340.436 182.261 340.436H194.801C195.101 340.436 195.361 340.196 195.381 339.896L196.451 324.826C196.471 324.526 196.291 324.256 196.011 324.166L196.001 324.156Z" fill="url(#paint19_linear_11128_5)"/>
<path opacity="0.37" d="M188.232 339.376C191.678 339.376 194.472 335.226 194.472 330.106C194.472 324.986 191.678 320.836 188.232 320.836C184.786 320.836 181.992 324.986 181.992 330.106C181.992 335.226 184.786 339.376 188.232 339.376Z" fill="url(#paint20_radial_11128_5)"/>
</g>
<g opacity="0.6">
<path d="M219.518 143.073L219.406 143.188L223.153 146.85L223.265 146.736L219.518 143.073Z" fill="url(#paint21_linear_11128_5)"/>
<path d="M229.778 143.064L226.031 146.727L226.143 146.841L229.89 143.178L229.778 143.064Z" fill="url(#paint22_linear_11128_5)"/>
<path d="M224.621 147.767C224.621 147.767 224.531 147.727 224.531 147.677V144.707C224.531 144.657 224.571 144.617 224.621 144.617C224.671 144.617 224.711 144.657 224.711 144.707V147.677C224.711 147.727 224.671 147.767 224.621 147.767Z" fill="url(#paint23_linear_11128_5)"/>
<path d="M224.621 145.848C224.621 145.848 225.781 144.878 225.791 143.408C225.801 141.938 224.661 140.478 224.671 139.758C224.671 139.758 223.081 141.938 223.211 143.488C223.341 145.038 224.611 145.848 224.611 145.848H224.621Z" fill="url(#paint24_linear_11128_5)"/>
<path d="M224.639 145.428C224.639 145.428 225.339 144.388 225.299 143.408C225.259 142.428 224.689 141.528 224.559 141.098C224.559 141.098 222.739 143.408 224.639 145.428Z" fill="url(#paint25_radial_11128_5)"/>
<path opacity="0.37" d="M227.721 141.807C227.491 144.527 226.001 146.607 224.401 146.447C222.801 146.287 221.691 143.957 221.921 141.227C222.151 138.507 223.641 136.427 225.241 136.587C226.841 136.747 227.951 139.077 227.721 141.807Z" fill="url(#paint26_radial_11128_5)"/>
<path d="M226.371 146.598C226.371 146.538 226.321 146.488 226.261 146.488H223.001C222.941 146.488 222.891 146.538 222.891 146.598V147.778C222.891 148.098 226.361 148.098 226.361 147.778V146.598H226.371Z" fill="url(#paint27_linear_11128_5)"/>
<path style="mix-blend-mode:multiply" opacity="0.14" d="M223.886 146.488H223.016C222.956 146.488 222.906 146.538 222.906 146.598V147.778C222.906 147.928 223.636 148.008 224.426 148.018C223.976 147.538 223.886 146.938 223.886 146.488Z" fill="url(#paint28_linear_11128_5)"/>
<path style="mix-blend-mode:screen" opacity="0.3" d="M204.03 142.307C202.21 133.587 209.98 125.377 221.39 123.987C232.8 122.597 243.52 128.537 245.34 137.257C247.16 145.977 239.39 154.187 227.98 155.577C216.57 156.967 205.85 151.027 204.03 142.307Z" fill="url(#paint29_radial_11128_5)"/>
<path d="M232.188 127.188C224.498 124.758 218.788 126.548 217.208 127.158C216.948 127.258 216.778 127.518 216.798 127.808L217.868 142.928C217.888 143.228 218.138 143.468 218.448 143.468H230.988C231.288 143.468 231.548 143.228 231.568 142.928L232.638 127.858C232.658 127.558 232.478 127.288 232.198 127.198L232.188 127.188Z" fill="url(#paint30_linear_11128_5)"/>
<path opacity="0.37" d="M224.42 142.407C227.866 142.407 230.66 138.257 230.66 133.137C230.66 128.018 227.866 123.867 224.42 123.867C220.973 123.867 218.18 128.018 218.18 133.137C218.18 138.257 220.973 142.407 224.42 142.407Z" fill="url(#paint31_radial_11128_5)"/>
</g>
<g opacity="0.4">
<path d="M340 12.8386L339.93 12.9102L342.425 15.3498L342.495 15.2783L340 12.8386Z" fill="url(#paint32_linear_11128_5)"/>
<path d="M346.808 12.8065L344.312 15.2461L344.382 15.3176L346.878 12.878L346.808 12.8065Z" fill="url(#paint33_linear_11128_5)"/>
<path d="M343.388 15.9555C343.388 15.9555 343.328 15.9255 343.328 15.8955V13.9155C343.328 13.9155 343.358 13.8555 343.388 13.8555C343.418 13.8555 343.448 13.8855 343.448 13.9155V15.8955C343.448 15.8955 343.418 15.9555 343.388 15.9555Z" fill="url(#paint34_linear_11128_5)"/>
<path d="M343.381 14.675C343.381 14.675 344.151 14.025 344.161 13.055C344.171 12.085 343.411 11.105 343.421 10.625C343.421 10.625 342.361 12.075 342.451 13.105C342.541 14.135 343.381 14.675 343.381 14.675Z" fill="url(#paint35_linear_11128_5)"/>
<path d="M343.401 14.3934C343.401 14.3934 343.861 13.7034 343.841 13.0534C343.821 12.4034 343.431 11.8034 343.351 11.5234C343.351 11.5234 342.141 13.0534 343.401 14.4034V14.3934Z" fill="url(#paint36_radial_11128_5)"/>
<path opacity="0.37" d="M345.45 11.9946C345.3 13.8046 344.31 15.1846 343.24 15.0846C342.18 14.9746 341.44 13.4246 341.59 11.6146C341.74 9.80464 342.73 8.42464 343.8 8.52464C344.86 8.63464 345.6 10.1846 345.45 11.9946Z" fill="url(#paint37_radial_11128_5)"/>
<path d="M344.55 15.1755C344.55 15.1755 344.52 15.1055 344.48 15.1055H342.32C342.32 15.1055 342.25 15.1355 342.25 15.1755V15.9555C342.25 16.1755 344.56 16.1755 344.56 15.9555V15.1755H344.55Z" fill="url(#paint38_linear_11128_5)"/>
<path style="mix-blend-mode:multiply" opacity="0.14" d="M342.9 15.1055H342.32C342.32 15.1055 342.25 15.1355 342.25 15.1755V15.9555C342.25 16.0555 342.73 16.1055 343.26 16.1155C342.96 15.7955 342.9 15.3955 342.9 15.1055Z" fill="url(#paint39_linear_11128_5)"/>
<path style="mix-blend-mode:screen" opacity="0.3" d="M329.699 12.3154C328.489 6.5154 333.659 1.0654 341.239 0.1354C348.819 -0.7946 355.959 3.1654 357.169 8.9654C358.379 14.7654 353.209 20.2154 345.629 21.1454C338.049 22.0754 330.909 18.1154 329.699 12.3154Z" fill="url(#paint40_radial_11128_5)"/>
<path d="M348.42 2.26353C343.31 0.65353 339.51 1.83353 338.46 2.24353C338.28 2.31353 338.17 2.48353 338.19 2.67353L338.9 12.7235C338.91 12.9235 339.08 13.0835 339.29 13.0835H347.63C347.83 13.0835 348 12.9235 348.02 12.7235L348.73 2.70353C348.74 2.50353 348.62 2.32353 348.43 2.26353H348.42Z" fill="url(#paint41_linear_11128_5)"/>
<path opacity="0.37" d="M347.394 6.22641C347.394 9.62641 345.534 12.3864 343.244 12.3864C340.954 12.3864 339.094 9.62641 339.094 6.22641C339.094 2.82641 340.954 0.0664062 343.244 0.0664062C345.534 0.0664062 347.394 2.82641 347.394 6.22641Z" fill="url(#paint42_radial_11128_5)"/>
</g>
<g opacity="0.4">
<path d="M241.929 217.272L241.859 217.344L244.355 219.783L244.425 219.712L241.929 217.272Z" fill="url(#paint43_linear_11128_5)"/>
<path d="M248.761 217.256L246.266 219.695L246.336 219.767L248.831 217.327L248.761 217.256Z" fill="url(#paint44_linear_11128_5)"/>
<path d="M245.333 220.389C245.333 220.389 245.273 220.359 245.273 220.329V218.349C245.273 218.349 245.303 218.289 245.333 218.289C245.363 218.289 245.393 218.319 245.393 218.349V220.329C245.393 220.329 245.363 220.389 245.333 220.389Z" fill="url(#paint45_linear_11128_5)"/>
<path d="M245.326 219.109C245.326 219.109 246.096 218.459 246.106 217.489C246.116 216.519 245.356 215.539 245.366 215.059C245.366 215.059 244.306 216.509 244.396 217.539C244.486 218.569 245.326 219.109 245.326 219.109Z" fill="url(#paint46_linear_11128_5)"/>
<path d="M245.339 218.827C245.339 218.827 245.799 218.137 245.779 217.487C245.759 216.837 245.369 216.237 245.289 215.957C245.289 215.957 244.079 217.487 245.339 218.837V218.827Z" fill="url(#paint47_radial_11128_5)"/>
<path opacity="0.37" d="M247.395 216.428C247.245 218.238 246.255 219.618 245.185 219.518C244.125 219.408 243.385 217.858 243.535 216.048C243.685 214.238 244.675 212.858 245.745 212.958C246.805 213.068 247.545 214.618 247.395 216.428Z" fill="url(#paint48_radial_11128_5)"/>
<path d="M246.488 219.609C246.488 219.609 246.457 219.539 246.417 219.539H244.257C244.257 219.539 244.188 219.569 244.188 219.609V220.389C244.188 220.609 246.497 220.609 246.497 220.389V219.609H246.488Z" fill="url(#paint49_linear_11128_5)"/>
<path style="mix-blend-mode:multiply" opacity="0.14" d="M244.837 219.539H244.257C244.257 219.539 244.188 219.569 244.188 219.609V220.389C244.188 220.489 244.667 220.539 245.197 220.549C244.897 220.229 244.837 219.829 244.837 219.539Z" fill="url(#paint50_linear_11128_5)"/>
<path style="mix-blend-mode:screen" opacity="0.3" d="M231.637 216.757C230.427 210.957 235.597 205.507 243.177 204.577C250.757 203.647 257.897 207.607 259.107 213.407C260.317 219.207 255.147 224.657 247.567 225.587C239.987 226.517 232.847 222.557 231.637 216.757Z" fill="url(#paint51_radial_11128_5)"/>
<path d="M250.365 206.697C245.245 205.087 241.455 206.267 240.405 206.677C240.225 206.747 240.115 206.917 240.135 207.107L240.845 217.157C240.855 217.357 241.025 217.517 241.235 217.517H249.575C249.775 217.517 249.945 217.357 249.965 217.157L250.675 207.137C250.685 206.937 250.565 206.757 250.375 206.697H250.365Z" fill="url(#paint52_linear_11128_5)"/>
<path opacity="0.37" d="M245.197 216.816C247.489 216.816 249.347 214.058 249.347 210.656C249.347 207.254 247.489 204.496 245.197 204.496C242.905 204.496 241.047 207.254 241.047 210.656C241.047 214.058 242.905 216.816 245.197 216.816Z" fill="url(#paint53_radial_11128_5)"/>
</g>
<g opacity="0.4">
<path d="M150.195 115.159L150.125 115.23L152.621 117.67L152.691 117.599L150.195 115.159Z" fill="url(#paint54_linear_11128_5)"/>
<path d="M157.043 115.146L154.547 117.586L154.617 117.657L157.112 115.218L157.043 115.146Z" fill="url(#paint55_linear_11128_5)"/>
<path d="M153.599 118.287C153.599 118.287 153.539 118.258 153.539 118.228V116.247C153.539 116.247 153.569 116.188 153.599 116.188C153.629 116.188 153.659 116.217 153.659 116.247V118.228C153.659 118.228 153.629 118.287 153.599 118.287Z" fill="url(#paint56_linear_11128_5)"/>
<path d="M153.599 117.007C153.599 117.007 154.369 116.357 154.379 115.387C154.379 114.407 153.629 113.437 153.639 112.957C153.639 112.957 152.579 114.407 152.669 115.437C152.759 116.467 153.599 117.007 153.599 117.007Z" fill="url(#paint57_linear_11128_5)"/>
<path d="M153.612 116.725C153.612 116.725 154.072 116.035 154.052 115.385C154.032 114.735 153.642 114.135 153.562 113.855C153.562 113.855 152.352 115.385 153.612 116.735V116.725Z" fill="url(#paint58_radial_11128_5)"/>
<path opacity="0.37" d="M155.661 114.327C155.511 116.137 154.521 117.517 153.451 117.417C152.391 117.307 151.651 115.757 151.801 113.947C151.951 112.137 152.941 110.757 154.011 110.857C155.071 110.967 155.811 112.517 155.661 114.327Z" fill="url(#paint59_radial_11128_5)"/>
<path d="M154.761 117.507C154.761 117.507 154.731 117.438 154.691 117.438H152.531C152.531 117.438 152.461 117.467 152.461 117.507V118.287C152.461 118.507 154.771 118.507 154.771 118.287V117.507H154.761Z" fill="url(#paint60_linear_11128_5)"/>
<path style="mix-blend-mode:multiply" opacity="0.14" d="M153.111 117.438H152.531C152.531 117.438 152.461 117.467 152.461 117.507V118.287C152.461 118.387 152.941 118.438 153.471 118.448C153.171 118.128 153.111 117.727 153.111 117.438Z" fill="url(#paint61_linear_11128_5)"/>
<path style="mix-blend-mode:screen" opacity="0.3" d="M139.91 114.655C138.7 108.855 143.87 103.405 151.45 102.475C159.03 101.545 166.17 105.505 167.38 111.305C168.59 117.105 163.42 122.555 155.84 123.485C148.26 124.415 141.12 120.455 139.91 114.655Z" fill="url(#paint62_radial_11128_5)"/>
<path d="M158.631 104.596C153.511 102.986 149.721 104.166 148.671 104.576C148.491 104.646 148.381 104.816 148.401 105.006L149.111 115.056C149.121 115.256 149.291 115.416 149.501 115.416H157.841C158.041 115.416 158.211 115.256 158.231 115.056L158.941 105.036C158.951 104.836 158.831 104.656 158.641 104.596H158.631Z" fill="url(#paint63_linear_11128_5)"/>
<path opacity="0.37" d="M153.462 114.715C155.754 114.715 157.612 111.957 157.612 108.555C157.612 105.152 155.754 102.395 153.462 102.395C151.171 102.395 149.312 105.152 149.312 108.555C149.312 111.957 151.171 114.715 153.462 114.715Z" fill="url(#paint64_radial_11128_5)"/>
</g>
<g filter="url(#filter0_f_11128_5)">
<circle cx="145" cy="198" r="45" fill="url(#paint65_radial_11128_5)"/>
</g>
<defs>
<filter id="filter0_f_11128_5" x="0" y="53" width="290" height="290" filterUnits="userSpaceOnUse" color-interpolation-filters="sRGB">
<feFlood flood-opacity="0" result="BackgroundImageFix"/>
<feBlend mode="normal" in="SourceGraphic" in2="BackgroundImageFix" result="shape"/>
<feGaussianBlur stdDeviation="50" result="effect1_foregroundBlur_11128_5"/>
</filter>
<linearGradient id="paint0_linear_11128_5" x1="134.386" y1="237.441" x2="134.036" y2="227.631" gradientUnits="userSpaceOnUse">
<stop stop-color="#820DB7"/>
<stop offset="1" stop-color="#9F44C6"/>
</linearGradient>
<linearGradient id="paint1_linear_11128_5" x1="150.71" y1="237.256" x2="151.06" y2="227.446" gradientUnits="userSpaceOnUse">
<stop stop-color="#820DB7"/>
<stop offset="1" stop-color="#9F44C6"/>
</linearGradient>
<linearGradient id="paint2_linear_11128_5" x1="142.651" y1="240.096" x2="142.351" y2="231.606" gradientUnits="userSpaceOnUse">
<stop stop-color="#820DB7"/>
<stop offset="1" stop-color="#9F44C6"/>
</linearGradient>
<linearGradient id="paint3_linear_11128_5" x1="139.788" y1="235.417" x2="142.569" y2="227.148" gradientUnits="userSpaceOnUse">
<stop stop-color="#FDA01D"/>
<stop offset="1" stop-color="#FFC069"/>
</linearGradient>
<radialGradient id="paint4_radial_11128_5" cx="0" cy="0" r="1" gradientUnits="userSpaceOnUse" gradientTransform="translate(134.53 223.569) rotate(5.68) scale(10.0842 10.9074)">
<stop offset="0.09" stop-color="white"/>
<stop offset="0.13" stop-color="#FFFAF8" stop-opacity="0.96"/>
<stop offset="0.37" stop-color="#FFD8C6" stop-opacity="0.62"/>
<stop offset="0.58" stop-color="#FFBD9E" stop-opacity="0.35"/>
<stop offset="0.76" stop-color="#FFAA81" stop-opacity="0.16"/>
<stop offset="0.89" stop-color="#FF9E6F" stop-opacity="0.04"/>
<stop offset="0.97" stop-color="#FF9A69" stop-opacity="0"/>
</radialGradient>
<radialGradient id="paint5_radial_11128_5" cx="0" cy="0" r="1" gradientUnits="userSpaceOnUse" gradientTransform="translate(131.39 228.314) rotate(5.68) scale(6.4876 7.5468)">
<stop stop-color="white"/>
<stop offset="0.09" stop-color="#FFFCFB" stop-opacity="0.98"/>
<stop offset="0.22" stop-color="#FFF5F1" stop-opacity="0.91"/>
<stop offset="0.36" stop-color="#FFEAE0" stop-opacity="0.8"/>
<stop offset="0.52" stop-color="#FFDAC9" stop-opacity="0.64"/>
<stop offset="0.69" stop-color="#FFC6AB" stop-opacity="0.44"/>
<stop offset="0.86" stop-color="#FFAE87" stop-opacity="0.21"/>
<stop offset="1" stop-color="#FF9A69" stop-opacity="0"/>
</radialGradient>
<linearGradient id="paint6_linear_11128_5" x1="148.838" y1="236.517" x2="133.968" y2="240.297" gradientUnits="userSpaceOnUse">
<stop stop-color="#A814EA"/>
<stop offset="1" stop-color="#C957F8"/>
</linearGradient>
<linearGradient id="paint7_linear_11128_5" x1="138.148" y1="238.307" x2="141.968" y2="238.307" gradientUnits="userSpaceOnUse">
<stop offset="0.1" stop-color="#AF4934"/>
<stop offset="0.21" stop-color="#AA4433"/>
<stop offset="0.34" stop-color="#9D3530"/>
<stop offset="0.48" stop-color="#871D2C"/>
<stop offset="0.51" stop-color="#82182B"/>
</linearGradient>
<linearGradient id="paint8_linear_11128_5" x1="171.835" y1="206.425" x2="116.705" y2="207.215" gradientUnits="userSpaceOnUse">
<stop offset="0.35" stop-color="#FDA01D"/>
<stop offset="0.76" stop-color="#FFC069"/>
</linearGradient>
<radialGradient id="paint9_radial_11128_5" cx="0" cy="0" r="1" gradientUnits="userSpaceOnUse" gradientTransform="translate(144.696 208.313) scale(18.09 20.8035)">
<stop stop-color="white"/>
<stop offset="0.22" stop-color="#FFFEFD" stop-opacity="0.99"/>
<stop offset="0.35" stop-color="#FFFAF8" stop-opacity="0.96"/>
<stop offset="0.45" stop-color="#FFF5F0" stop-opacity="0.9"/>
<stop offset="0.54" stop-color="#FFEDE5" stop-opacity="0.83"/>
<stop offset="0.62" stop-color="#FFE3D5" stop-opacity="0.73"/>
<stop offset="0.69" stop-color="#FFD6C3" stop-opacity="0.6"/>
<stop offset="0.76" stop-color="#FFC8AD" stop-opacity="0.46"/>
<stop offset="0.83" stop-color="#FFB693" stop-opacity="0.29"/>
<stop offset="0.89" stop-color="#FFA377" stop-opacity="0.1"/>
<stop offset="0.92" stop-color="#FF9A69" stop-opacity="0"/>
</radialGradient>
<linearGradient id="paint10_linear_11128_5" x1="185.224" y1="343.887" x2="185.084" y2="339.987" gradientUnits="userSpaceOnUse">
<stop stop-color="#820DB7"/>
<stop offset="1" stop-color="#9F44C6"/>
</linearGradient>
<linearGradient id="paint11_linear_11128_5" x1="191.703" y1="343.627" x2="191.843" y2="339.727" gradientUnits="userSpaceOnUse">
<stop stop-color="#820DB7"/>
<stop offset="1" stop-color="#9F44C6"/>
</linearGradient>
<linearGradient id="paint12_linear_11128_5" x1="188.502" y1="344.924" x2="188.382" y2="341.554" gradientUnits="userSpaceOnUse">
<stop stop-color="#820DB7"/>
<stop offset="1" stop-color="#9F44C6"/>
</linearGradient>
<linearGradient id="paint13_linear_11128_5" x1="187.344" y1="343.052" x2="188.45" y2="339.77" gradientUnits="userSpaceOnUse">
<stop stop-color="#FDA01D"/>
<stop offset="1" stop-color="#FFC069"/>
</linearGradient>
<radialGradient id="paint14_radial_11128_5" cx="0" cy="0" r="1" gradientUnits="userSpaceOnUse" gradientTransform="translate(178.629 337.769) rotate(5.68001) scale(4.00821 4.33542)">
<stop offset="0.09" stop-color="white"/>
<stop offset="0.13" stop-color="#FFFAF8" stop-opacity="0.96"/>
<stop offset="0.37" stop-color="#FFD8C6" stop-opacity="0.62"/>
<stop offset="0.58" stop-color="#FFBD9E" stop-opacity="0.35"/>
<stop offset="0.76" stop-color="#FFAA81" stop-opacity="0.16"/>
<stop offset="0.89" stop-color="#FF9E6F" stop-opacity="0.04"/>
<stop offset="0.97" stop-color="#FF9A69" stop-opacity="0"/>
</radialGradient>
<radialGradient id="paint15_radial_11128_5" cx="0" cy="0" r="1" gradientUnits="userSpaceOnUse" gradientTransform="translate(175.417 341.08) rotate(5.68001) scale(2.5774 2.9982)">
<stop stop-color="white"/>
<stop offset="0.09" stop-color="#FFFCFB" stop-opacity="0.98"/>
<stop offset="0.22" stop-color="#FFF5F1" stop-opacity="0.91"/>
<stop offset="0.36" stop-color="#FFEAE0" stop-opacity="0.8"/>
<stop offset="0.52" stop-color="#FFDAC9" stop-opacity="0.64"/>
<stop offset="0.69" stop-color="#FFC6AB" stop-opacity="0.44"/>
<stop offset="0.86" stop-color="#FFAE87" stop-opacity="0.21"/>
<stop offset="1" stop-color="#FF9A69" stop-opacity="0"/>
</radialGradient>
<linearGradient id="paint16_linear_11128_5" x1="190.963" y1="343.507" x2="185.053" y2="345.017" gradientUnits="userSpaceOnUse">
<stop stop-color="#A814EA"/>
<stop offset="1" stop-color="#C957F8"/>
</linearGradient>
<linearGradient id="paint17_linear_11128_5" x1="186.711" y1="344.217" x2="188.231" y2="344.217" gradientUnits="userSpaceOnUse">
<stop offset="0.1" stop-color="#AF4934"/>
<stop offset="0.21" stop-color="#AA4433"/>
<stop offset="0.34" stop-color="#9D3530"/>
<stop offset="0.48" stop-color="#871D2C"/>
<stop offset="0.51" stop-color="#82182B"/>
</linearGradient>
<radialGradient id="paint18_radial_11128_5" cx="0" cy="0" r="1" gradientUnits="userSpaceOnUse" gradientTransform="translate(168.084 340.15) rotate(-6.96) scale(20.864 16.137)">
<stop stop-color="#FFA74E"/>
<stop offset="1" stop-color="#FFA74E" stop-opacity="0"/>
</radialGradient>
<linearGradient id="paint19_linear_11128_5" x1="200.101" y1="331.556" x2="178.191" y2="331.866" gradientUnits="userSpaceOnUse">
<stop offset="0.35" stop-color="#FDA01D"/>
<stop offset="0.76" stop-color="#FFC069"/>
</linearGradient>
<radialGradient id="paint20_radial_11128_5" cx="0" cy="0" r="1" gradientUnits="userSpaceOnUse" gradientTransform="translate(189.312 330.319) scale(7.19 8.2685)">
<stop stop-color="white"/>
<stop offset="0.22" stop-color="#FFFEFD" stop-opacity="0.99"/>
<stop offset="0.35" stop-color="#FFFAF8" stop-opacity="0.96"/>
<stop offset="0.45" stop-color="#FFF5F0" stop-opacity="0.9"/>
<stop offset="0.54" stop-color="#FFEDE5" stop-opacity="0.83"/>
<stop offset="0.62" stop-color="#FFE3D5" stop-opacity="0.73"/>
<stop offset="0.69" stop-color="#FFD6C3" stop-opacity="0.6"/>
<stop offset="0.76" stop-color="#FFC8AD" stop-opacity="0.46"/>
<stop offset="0.83" stop-color="#FFB693" stop-opacity="0.29"/>
<stop offset="0.89" stop-color="#FFA377" stop-opacity="0.1"/>
<stop offset="0.92" stop-color="#FF9A69" stop-opacity="0"/>
</radialGradient>
<linearGradient id="paint21_linear_11128_5" x1="221.402" y1="146.908" x2="221.262" y2="143.008" gradientUnits="userSpaceOnUse">
<stop stop-color="#820DB7"/>
<stop offset="1" stop-color="#9F44C6"/>
</linearGradient>
<linearGradient id="paint22_linear_11128_5" x1="227.894" y1="146.746" x2="228.024" y2="142.846" gradientUnits="userSpaceOnUse">
<stop stop-color="#820DB7"/>
<stop offset="1" stop-color="#9F44C6"/>
</linearGradient>
<linearGradient id="paint23_linear_11128_5" x1="224.691" y1="147.957" x2="224.571" y2="144.587" gradientUnits="userSpaceOnUse">
<stop stop-color="#820DB7"/>
<stop offset="1" stop-color="#9F44C6"/>
</linearGradient>
<linearGradient id="paint24_linear_11128_5" x1="223.535" y1="146.095" x2="224.642" y2="142.803" gradientUnits="userSpaceOnUse">
<stop stop-color="#FDA01D"/>
<stop offset="1" stop-color="#FFC069"/>
</linearGradient>
<radialGradient id="paint25_radial_11128_5" cx="0" cy="0" r="1" gradientUnits="userSpaceOnUse" gradientTransform="translate(217.496 141.043) rotate(5.68) scale(4.0082 4.3354)">
<stop offset="0.09" stop-color="white"/>
<stop offset="0.13" stop-color="#FFFAF8" stop-opacity="0.96"/>
<stop offset="0.37" stop-color="#FFD8C6" stop-opacity="0.62"/>
<stop offset="0.58" stop-color="#FFBD9E" stop-opacity="0.35"/>
<stop offset="0.76" stop-color="#FFAA81" stop-opacity="0.16"/>
<stop offset="0.89" stop-color="#FF9E6F" stop-opacity="0.04"/>
<stop offset="0.97" stop-color="#FF9A69" stop-opacity="0"/>
</radialGradient>
<radialGradient id="paint26_radial_11128_5" cx="0" cy="0" r="1" gradientUnits="userSpaceOnUse" gradientTransform="translate(214.347 143.839) rotate(5.68) scale(2.5774 2.9982)">
<stop stop-color="white"/>
<stop offset="0.09" stop-color="#FFFCFB" stop-opacity="0.98"/>
<stop offset="0.22" stop-color="#FFF5F1" stop-opacity="0.91"/>
<stop offset="0.36" stop-color="#FFEAE0" stop-opacity="0.8"/>
<stop offset="0.52" stop-color="#FFDAC9" stop-opacity="0.64"/>
<stop offset="0.69" stop-color="#FFC6AB" stop-opacity="0.44"/>
<stop offset="0.86" stop-color="#FFAE87" stop-opacity="0.21"/>
<stop offset="1" stop-color="#FF9A69" stop-opacity="0"/>
</radialGradient>
<linearGradient id="paint27_linear_11128_5" x1="227.151" y1="146.538" x2="221.241" y2="148.038" gradientUnits="userSpaceOnUse">
<stop stop-color="#A814EA"/>
<stop offset="1" stop-color="#C957F8"/>
</linearGradient>
<linearGradient id="paint28_linear_11128_5" x1="222.906" y1="147.248" x2="224.426" y2="147.248" gradientUnits="userSpaceOnUse">
<stop offset="0.1" stop-color="#AF4934"/>
<stop offset="0.21" stop-color="#AA4433"/>
<stop offset="0.34" stop-color="#9D3530"/>
<stop offset="0.48" stop-color="#871D2C"/>
<stop offset="0.51" stop-color="#82182B"/>
</linearGradient>
<radialGradient id="paint29_radial_11128_5" cx="0" cy="0" r="1" gradientUnits="userSpaceOnUse" gradientTransform="translate(220.413 140.536) rotate(-6.96) scale(20.864 16.137)">
<stop stop-color="#FFA74E"/>
<stop offset="1" stop-color="#FFA74E" stop-opacity="0"/>
</radialGradient>
<linearGradient id="paint30_linear_11128_5" x1="236.288" y1="134.578" x2="214.378" y2="134.898" gradientUnits="userSpaceOnUse">
<stop offset="0.35" stop-color="#FDA01D"/>
<stop offset="0.76" stop-color="#FFC069"/>
</linearGradient>
<radialGradient id="paint31_radial_11128_5" cx="0" cy="0" r="1" gradientUnits="userSpaceOnUse" gradientTransform="translate(225.5 134.142) scale(7.19 8.2685)">
<stop stop-color="white"/>
<stop offset="0.22" stop-color="#FFFEFD" stop-opacity="0.99"/>
<stop offset="0.35" stop-color="#FFFAF8" stop-opacity="0.96"/>
<stop offset="0.45" stop-color="#FFF5F0" stop-opacity="0.9"/>
<stop offset="0.54" stop-color="#FFEDE5" stop-opacity="0.83"/>
<stop offset="0.62" stop-color="#FFE3D5" stop-opacity="0.73"/>
<stop offset="0.69" stop-color="#FFD6C3" stop-opacity="0.6"/>
<stop offset="0.76" stop-color="#FFC8AD" stop-opacity="0.46"/>
<stop offset="0.83" stop-color="#FFB693" stop-opacity="0.29"/>
<stop offset="0.89" stop-color="#FFA377" stop-opacity="0.1"/>
<stop offset="0.92" stop-color="#FF9A69" stop-opacity="0"/>
</radialGradient>
<linearGradient id="paint32_linear_11128_5" x1="341.267" y1="15.3743" x2="341.167" y2="12.7842" gradientUnits="userSpaceOnUse">
<stop stop-color="#820DB7"/>
<stop offset="1" stop-color="#9F44C6"/>
</linearGradient>
<linearGradient id="paint33_linear_11128_5" x1="345.551" y1="15.1548" x2="345.641" y2="12.5648" gradientUnits="userSpaceOnUse">
<stop stop-color="#820DB7"/>
<stop offset="1" stop-color="#9F44C6"/>
</linearGradient>
<linearGradient id="paint34_linear_11128_5" x1="343.428" y1="16.0755" x2="343.348" y2="13.8355" gradientUnits="userSpaceOnUse">
<stop stop-color="#820DB7"/>
<stop offset="1" stop-color="#9F44C6"/>
</linearGradient>
<linearGradient id="paint35_linear_11128_5" x1="342.674" y1="14.8398" x2="343.407" y2="12.6579" gradientUnits="userSpaceOnUse">
<stop stop-color="#FDA01D"/>
<stop offset="1" stop-color="#FFC069"/>
</linearGradient>
<radialGradient id="paint36_radial_11128_5" cx="0" cy="0" r="1" gradientUnits="userSpaceOnUse" gradientTransform="translate(337.789 11.3901) rotate(5.68) scale(2.6656 2.8832)">
<stop offset="0.09" stop-color="white"/>
<stop offset="0.13" stop-color="#FFFAF8" stop-opacity="0.96"/>
<stop offset="0.37" stop-color="#FFD8C6" stop-opacity="0.62"/>
<stop offset="0.58" stop-color="#FFBD9E" stop-opacity="0.35"/>
<stop offset="0.76" stop-color="#FFAA81" stop-opacity="0.16"/>
<stop offset="0.89" stop-color="#FF9E6F" stop-opacity="0.04"/>
<stop offset="0.97" stop-color="#FF9A69" stop-opacity="0"/>
</radialGradient>
<radialGradient id="paint37_radial_11128_5" cx="0" cy="0" r="1" gradientUnits="userSpaceOnUse" gradientTransform="translate(334.672 13.448) rotate(5.68) scale(1.715 1.995)">
<stop stop-color="white"/>
<stop offset="0.09" stop-color="#FFFCFB" stop-opacity="0.98"/>
<stop offset="0.22" stop-color="#FFF5F1" stop-opacity="0.91"/>
<stop offset="0.36" stop-color="#FFEAE0" stop-opacity="0.8"/>
<stop offset="0.52" stop-color="#FFDAC9" stop-opacity="0.64"/>
<stop offset="0.69" stop-color="#FFC6AB" stop-opacity="0.44"/>
<stop offset="0.86" stop-color="#FFAE87" stop-opacity="0.21"/>
<stop offset="1" stop-color="#FF9A69" stop-opacity="0"/>
</radialGradient>
<linearGradient id="paint38_linear_11128_5" x1="345.07" y1="15.1355" x2="341.14" y2="16.1355" gradientUnits="userSpaceOnUse">
<stop stop-color="#A814EA"/>
<stop offset="1" stop-color="#C957F8"/>
</linearGradient>
<linearGradient id="paint39_linear_11128_5" x1="342.24" y1="15.6055" x2="343.25" y2="15.6055" gradientUnits="userSpaceOnUse">
<stop offset="0.1" stop-color="#AF4934"/>
<stop offset="0.21" stop-color="#AA4433"/>
<stop offset="0.34" stop-color="#9D3530"/>
<stop offset="0.48" stop-color="#871D2C"/>
<stop offset="0.51" stop-color="#82182B"/>
</linearGradient>
<radialGradient id="paint40_radial_11128_5" cx="0" cy="0" r="1" gradientUnits="userSpaceOnUse" gradientTransform="translate(349.027 9.79057) rotate(-6.96) scale(13.8752 10.7316)">
<stop stop-color="#FFA74E"/>
<stop offset="1" stop-color="#FFA74E" stop-opacity="0"/>
</radialGradient>
<linearGradient id="paint41_linear_11128_5" x1="351.15" y1="7.18353" x2="336.58" y2="7.39353" gradientUnits="userSpaceOnUse">
<stop offset="0.35" stop-color="#FDA01D"/>
<stop offset="0.76" stop-color="#FFC069"/>
</linearGradient>
<radialGradient id="paint42_radial_11128_5" cx="0" cy="0" r="1" gradientUnits="userSpaceOnUse" gradientTransform="translate(343.964 6.68691) scale(4.77999 5.497)">
<stop stop-color="white"/>
<stop offset="0.22" stop-color="#FFFEFD" stop-opacity="0.99"/>
<stop offset="0.35" stop-color="#FFFAF8" stop-opacity="0.96"/>
<stop offset="0.45" stop-color="#FFF5F0" stop-opacity="0.9"/>
<stop offset="0.54" stop-color="#FFEDE5" stop-opacity="0.83"/>
<stop offset="0.62" stop-color="#FFE3D5" stop-opacity="0.73"/>
<stop offset="0.69" stop-color="#FFD6C3" stop-opacity="0.6"/>
<stop offset="0.76" stop-color="#FFC8AD" stop-opacity="0.46"/>
<stop offset="0.83" stop-color="#FFB693" stop-opacity="0.29"/>
<stop offset="0.89" stop-color="#FFA377" stop-opacity="0.1"/>
<stop offset="0.92" stop-color="#FF9A69" stop-opacity="0"/>
</radialGradient>
<linearGradient id="paint43_linear_11128_5" x1="243.191" y1="219.805" x2="243.101" y2="217.215" gradientUnits="userSpaceOnUse">
<stop stop-color="#820DB7"/>
<stop offset="1" stop-color="#9F44C6"/>
</linearGradient>
<linearGradient id="paint44_linear_11128_5" x1="247.496" y1="219.705" x2="247.586" y2="217.115" gradientUnits="userSpaceOnUse">
<stop stop-color="#820DB7"/>
<stop offset="1" stop-color="#9F44C6"/>
</linearGradient>
<linearGradient id="paint45_linear_11128_5" x1="245.373" y1="220.519" x2="245.293" y2="218.269" gradientUnits="userSpaceOnUse">
<stop stop-color="#820DB7"/>
<stop offset="1" stop-color="#9F44C6"/>
</linearGradient>
<linearGradient id="paint46_linear_11128_5" x1="244.598" y1="219.27" x2="245.332" y2="217.078" gradientUnits="userSpaceOnUse">
<stop stop-color="#FDA01D"/>
<stop offset="1" stop-color="#FFC069"/>
</linearGradient>
<radialGradient id="paint47_radial_11128_5" cx="0" cy="0" r="1" gradientUnits="userSpaceOnUse" gradientTransform="translate(237.075 215.595) rotate(5.67999) scale(2.66561 2.8832)">
<stop offset="0.09" stop-color="white"/>
<stop offset="0.13" stop-color="#FFFAF8" stop-opacity="0.96"/>
<stop offset="0.37" stop-color="#FFD8C6" stop-opacity="0.62"/>
<stop offset="0.58" stop-color="#FFBD9E" stop-opacity="0.35"/>
<stop offset="0.76" stop-color="#FFAA81" stop-opacity="0.16"/>
<stop offset="0.89" stop-color="#FF9E6F" stop-opacity="0.04"/>
<stop offset="0.97" stop-color="#FF9A69" stop-opacity="0"/>
</radialGradient>
<radialGradient id="paint48_radial_11128_5" cx="0" cy="0" r="1" gradientUnits="userSpaceOnUse" gradientTransform="translate(233.891 218.199) rotate(5.68) scale(1.715 1.995)">
<stop stop-color="white"/>
<stop offset="0.09" stop-color="#FFFCFB" stop-opacity="0.98"/>
<stop offset="0.22" stop-color="#FFF5F1" stop-opacity="0.91"/>
<stop offset="0.36" stop-color="#FFEAE0" stop-opacity="0.8"/>
<stop offset="0.52" stop-color="#FFDAC9" stop-opacity="0.64"/>
<stop offset="0.69" stop-color="#FFC6AB" stop-opacity="0.44"/>
<stop offset="0.86" stop-color="#FFAE87" stop-opacity="0.21"/>
<stop offset="1" stop-color="#FF9A69" stop-opacity="0"/>
</radialGradient>
<linearGradient id="paint49_linear_11128_5" x1="247.007" y1="219.569" x2="243.077" y2="220.569" gradientUnits="userSpaceOnUse">
<stop stop-color="#A814EA"/>
<stop offset="1" stop-color="#C957F8"/>
</linearGradient>
<linearGradient id="paint50_linear_11128_5" x1="244.188" y1="220.039" x2="245.197" y2="220.039" gradientUnits="userSpaceOnUse">
<stop offset="0.1" stop-color="#AF4934"/>
<stop offset="0.21" stop-color="#AA4433"/>
<stop offset="0.34" stop-color="#9D3530"/>
<stop offset="0.48" stop-color="#871D2C"/>
<stop offset="0.51" stop-color="#82182B"/>
</linearGradient>
<radialGradient id="paint51_radial_11128_5" cx="0" cy="0" r="1" gradientUnits="userSpaceOnUse" gradientTransform="translate(234.666 216.889) rotate(-6.96) scale(13.8752 10.7316)">
<stop stop-color="#FFA74E"/>
<stop offset="1" stop-color="#FFA74E" stop-opacity="0"/>
</radialGradient>
<linearGradient id="paint52_linear_11128_5" x1="253.085" y1="211.617" x2="238.515" y2="211.827" gradientUnits="userSpaceOnUse">
<stop offset="0.35" stop-color="#FDA01D"/>
<stop offset="0.76" stop-color="#FFC069"/>
</linearGradient>
<radialGradient id="paint53_radial_11128_5" cx="0" cy="0" r="1" gradientUnits="userSpaceOnUse" gradientTransform="translate(245.917 210.294) scale(4.78 5.497)">
<stop stop-color="white"/>
<stop offset="0.22" stop-color="#FFFEFD" stop-opacity="0.99"/>
<stop offset="0.35" stop-color="#FFFAF8" stop-opacity="0.96"/>
<stop offset="0.45" stop-color="#FFF5F0" stop-opacity="0.9"/>
<stop offset="0.54" stop-color="#FFEDE5" stop-opacity="0.83"/>
<stop offset="0.62" stop-color="#FFE3D5" stop-opacity="0.73"/>
<stop offset="0.69" stop-color="#FFD6C3" stop-opacity="0.6"/>
<stop offset="0.76" stop-color="#FFC8AD" stop-opacity="0.46"/>
<stop offset="0.83" stop-color="#FFB693" stop-opacity="0.29"/>
<stop offset="0.89" stop-color="#FFA377" stop-opacity="0.1"/>
<stop offset="0.92" stop-color="#FF9A69" stop-opacity="0"/>
</radialGradient>
<linearGradient id="paint54_linear_11128_5" x1="151.464" y1="117.703" x2="151.364" y2="115.113" gradientUnits="userSpaceOnUse">
<stop stop-color="#820DB7"/>
<stop offset="1" stop-color="#9F44C6"/>
</linearGradient>
<linearGradient id="paint55_linear_11128_5" x1="155.775" y1="117.482" x2="155.865" y2="114.892" gradientUnits="userSpaceOnUse">
<stop stop-color="#820DB7"/>
<stop offset="1" stop-color="#9F44C6"/>
</linearGradient>
<linearGradient id="paint56_linear_11128_5" x1="153.639" y1="118.417" x2="153.559" y2="116.168" gradientUnits="userSpaceOnUse">
<stop stop-color="#820DB7"/>
<stop offset="1" stop-color="#9F44C6"/>
</linearGradient>
<linearGradient id="paint57_linear_11128_5" x1="152.872" y1="117.161" x2="153.616" y2="114.98" gradientUnits="userSpaceOnUse">
<stop stop-color="#FDA01D"/>
<stop offset="1" stop-color="#FFC069"/>
</linearGradient>
<radialGradient id="paint58_radial_11128_5" cx="0" cy="0" r="1" gradientUnits="userSpaceOnUse" gradientTransform="translate(146.981 113.648) rotate(5.68) scale(2.66561 2.8832)">
<stop offset="0.09" stop-color="white"/>
<stop offset="0.13" stop-color="#FFFAF8" stop-opacity="0.96"/>
<stop offset="0.37" stop-color="#FFD8C6" stop-opacity="0.62"/>
<stop offset="0.58" stop-color="#FFBD9E" stop-opacity="0.35"/>
<stop offset="0.76" stop-color="#FFAA81" stop-opacity="0.16"/>
<stop offset="0.89" stop-color="#FF9E6F" stop-opacity="0.04"/>
<stop offset="0.97" stop-color="#FF9A69" stop-opacity="0"/>
</radialGradient>
<radialGradient id="paint59_radial_11128_5" cx="0" cy="0" r="1" gradientUnits="userSpaceOnUse" gradientTransform="translate(143.832 116.02) rotate(5.68) scale(1.715 1.995)">
<stop stop-color="white"/>
<stop offset="0.09" stop-color="#FFFCFB" stop-opacity="0.98"/>
<stop offset="0.22" stop-color="#FFF5F1" stop-opacity="0.91"/>
<stop offset="0.36" stop-color="#FFEAE0" stop-opacity="0.8"/>
<stop offset="0.52" stop-color="#FFDAC9" stop-opacity="0.64"/>
<stop offset="0.69" stop-color="#FFC6AB" stop-opacity="0.44"/>
<stop offset="0.86" stop-color="#FFAE87" stop-opacity="0.21"/>
<stop offset="1" stop-color="#FF9A69" stop-opacity="0"/>
</radialGradient>
<linearGradient id="paint60_linear_11128_5" x1="155.281" y1="117.468" x2="151.351" y2="118.467" gradientUnits="userSpaceOnUse">
<stop stop-color="#A814EA"/>
<stop offset="1" stop-color="#C957F8"/>
</linearGradient>
<linearGradient id="paint61_linear_11128_5" x1="152.451" y1="117.938" x2="153.461" y2="117.938" gradientUnits="userSpaceOnUse">
<stop offset="0.1" stop-color="#AF4934"/>
<stop offset="0.21" stop-color="#AA4433"/>
<stop offset="0.34" stop-color="#9D3530"/>
<stop offset="0.48" stop-color="#871D2C"/>
<stop offset="0.51" stop-color="#82182B"/>
</linearGradient>
<radialGradient id="paint62_radial_11128_5" cx="0" cy="0" r="1" gradientUnits="userSpaceOnUse" gradientTransform="translate(152.141 113.264) rotate(-6.96) scale(13.8752 10.7316)">
<stop stop-color="#FFA74E"/>
<stop offset="1" stop-color="#FFA74E" stop-opacity="0"/>
</radialGradient>
<linearGradient id="paint63_linear_11128_5" x1="161.361" y1="109.516" x2="146.791" y2="109.726" gradientUnits="userSpaceOnUse">
<stop offset="0.35" stop-color="#FDA01D"/>
<stop offset="0.76" stop-color="#FFC069"/>
</linearGradient>
<radialGradient id="paint64_radial_11128_5" cx="0" cy="0" r="1" gradientUnits="userSpaceOnUse" gradientTransform="translate(154.182 108.598) scale(4.78 5.497)">
<stop stop-color="white"/>
<stop offset="0.22" stop-color="#FFFEFD" stop-opacity="0.99"/>
<stop offset="0.35" stop-color="#FFFAF8" stop-opacity="0.96"/>
<stop offset="0.45" stop-color="#FFF5F0" stop-opacity="0.9"/>
<stop offset="0.54" stop-color="#FFEDE5" stop-opacity="0.83"/>
<stop offset="0.62" stop-color="#FFE3D5" stop-opacity="0.73"/>
<stop offset="0.69" stop-color="#FFD6C3" stop-opacity="0.6"/>
<stop offset="0.76" stop-color="#FFC8AD" stop-opacity="0.46"/>
<stop offset="0.83" stop-color="#FFB693" stop-opacity="0.29"/>
<stop offset="0.89" stop-color="#FFA377" stop-opacity="0.1"/>
<stop offset="0.92" stop-color="#FF9A69" stop-opacity="0"/>
</radialGradient>
<radialGradient id="paint65_radial_11128_5" cx="0" cy="0" r="1" gradientUnits="userSpaceOnUse" gradientTransform="translate(145 198) rotate(90) scale(76.2805)">
<stop stop-color="#F5B327"/>
<stop offset="1" stop-color="#FFF969"/>
</radialGradient>
</defs>
</svg>
