<svg width="305" height="357" viewBox="0 0 305 357" fill="none" xmlns="http://www.w3.org/2000/svg">
<g opacity="0.9">
<path d="M140.877 169.135L140.562 169.457L151.303 179.957L151.618 179.635L140.877 169.135Z" fill="url(#paint0_linear_11054_4394)"/>
<path d="M170.287 169.11L159.547 179.609L159.861 179.931L170.602 169.432L170.287 169.11Z" fill="url(#paint1_linear_11054_4394)"/>
<path d="M155.537 182.606C155.407 182.606 155.297 182.486 155.297 182.346V173.826C155.297 173.676 155.407 173.566 155.537 173.566C155.667 173.566 155.777 173.686 155.777 173.826V182.346C155.777 182.496 155.667 182.606 155.537 182.606Z" fill="url(#paint2_linear_11054_4394)"/>
<path d="M155.505 177.083C155.505 177.083 158.815 174.293 158.855 170.093C158.895 165.893 155.605 161.693 155.655 159.633C155.655 159.633 151.095 165.873 151.485 170.323C151.875 174.773 155.505 177.083 155.505 177.083Z" fill="url(#paint3_linear_11054_4394)"/>
<path d="M155.581 175.886C155.581 175.886 157.581 172.916 157.481 170.096C157.381 167.276 155.721 164.726 155.361 163.496C155.361 163.496 150.151 170.106 155.581 175.886Z" fill="url(#paint4_radial_11054_4394)"/>
<path opacity="0.37" d="M164.416 165.525C163.746 173.325 159.496 179.275 154.906 178.825C150.326 178.365 147.146 171.675 147.816 163.875C148.486 156.075 152.736 150.125 157.326 150.575C161.906 151.035 165.086 157.725 164.416 165.525Z" fill="url(#paint5_radial_11054_4394)"/>
<path d="M160.528 179.236C160.528 179.066 160.388 178.926 160.218 178.926H150.888C150.718 178.926 150.578 179.066 150.578 179.236V182.606C150.578 183.536 160.518 183.536 160.518 182.606V179.236H160.528Z" fill="url(#paint6_linear_11054_4394)"/>
<path style="mix-blend-mode:multiply" opacity="0.14" d="M153.398 178.926H150.888C150.718 178.926 150.578 179.066 150.578 179.236V182.606C150.578 183.036 152.668 183.266 154.928 183.296C153.648 181.916 153.378 180.206 153.388 178.926H153.398Z" fill="url(#paint7_linear_11054_4394)"/>
<path d="M177.199 123.627C155.159 116.667 138.809 121.787 134.269 123.547C133.509 123.837 133.039 124.587 133.099 125.397L136.169 168.707C136.229 169.577 136.959 170.257 137.829 170.257H173.759C174.629 170.257 175.359 169.577 175.419 168.707L178.479 125.517C178.539 124.667 178.019 123.887 177.209 123.627H177.199Z" fill="url(#paint8_linear_11054_4394)"/>
<path opacity="0.37" d="M154.935 167.237C164.81 167.237 172.815 155.346 172.815 140.677C172.815 126.009 164.81 114.117 154.935 114.117C145.06 114.117 137.055 126.009 137.055 140.677C137.055 155.346 145.06 167.237 154.935 167.237Z" fill="url(#paint9_radial_11054_4394)"/>
<g filter="url(#filter0_f_11054_4394)">
<circle cx="160" cy="145" r="45" fill="url(#paint10_radial_11054_4394)"/>
</g>
</g>
<g opacity="0.6">
<path d="M158.187 296.255L158.047 296.398L162.824 301.068L162.963 300.925L158.187 296.255Z" fill="url(#paint11_linear_11054_4394)"/>
<path d="M171.269 296.217L166.492 300.887L166.632 301.03L171.409 296.36L171.269 296.217Z" fill="url(#paint12_linear_11054_4394)"/>
<path d="M164.704 302.237C164.644 302.237 164.594 302.187 164.594 302.117V298.327C164.594 298.267 164.644 298.207 164.704 298.207C164.764 298.207 164.814 298.257 164.814 298.327V302.117C164.814 302.177 164.764 302.237 164.704 302.237Z" fill="url(#paint13_linear_11054_4394)"/>
<path d="M164.691 299.776C164.691 299.776 166.161 298.536 166.181 296.666C166.201 294.796 164.741 292.926 164.761 292.016C164.761 292.016 162.731 294.796 162.901 296.776C163.071 298.756 164.691 299.786 164.691 299.786V299.776Z" fill="url(#paint14_linear_11054_4394)"/>
<path d="M164.717 299.247C164.717 299.247 165.607 297.927 165.567 296.667C165.527 295.417 164.787 294.277 164.627 293.727C164.627 293.727 162.307 296.667 164.727 299.247H164.717Z" fill="url(#paint15_radial_11054_4394)"/>
<path opacity="0.37" d="M168.662 294.637C168.362 298.107 166.472 300.757 164.432 300.557C162.392 300.357 160.982 297.377 161.272 293.907C161.562 290.437 163.462 287.787 165.502 287.987C167.542 288.187 168.952 291.167 168.662 294.637Z" fill="url(#paint16_radial_11054_4394)"/>
<path d="M166.922 300.738C166.922 300.658 166.862 300.598 166.782 300.598H162.632C162.552 300.598 162.492 300.658 162.492 300.738V302.238C162.492 302.648 166.912 302.648 166.912 302.238V300.738H166.922Z" fill="url(#paint17_linear_11054_4394)"/>
<path style="mix-blend-mode:multiply" opacity="0.14" d="M163.75 300.598H162.64C162.56 300.598 162.5 300.658 162.5 300.738V302.238C162.5 302.428 163.43 302.528 164.44 302.548C163.87 301.938 163.75 301.168 163.75 300.608V300.598Z" fill="url(#paint18_linear_11054_4394)"/>
<path style="mix-blend-mode:screen" opacity="0.3" d="M138.446 295.265C136.126 284.145 146.026 273.685 160.576 271.915C175.116 270.135 188.786 277.715 191.116 288.835C193.436 299.955 183.536 310.415 168.986 312.185C154.446 313.965 140.776 306.385 138.446 295.265Z" fill="url(#paint19_radial_11054_4394)"/>
<path d="M174.342 275.995C164.532 272.895 157.262 275.175 155.242 275.955C154.902 276.085 154.692 276.415 154.722 276.775L156.092 296.045C156.122 296.435 156.442 296.735 156.832 296.735H172.822C173.212 296.735 173.532 296.435 173.562 296.045L174.922 276.825C174.952 276.445 174.712 276.095 174.352 275.985L174.342 275.995Z" fill="url(#paint20_linear_11054_4394)"/>
<path opacity="0.37" d="M164.437 295.406C168.833 295.406 172.397 290.114 172.397 283.586C172.397 277.058 168.833 271.766 164.437 271.766C160.04 271.766 156.477 277.058 156.477 283.586C156.477 290.114 160.04 295.406 164.437 295.406Z" fill="url(#paint21_radial_11054_4394)"/>
</g>
<g opacity="0.4">
<path d="M51.9996 16.8386L51.9297 16.9102L54.4253 19.3498L54.4952 19.2783L51.9996 16.8386Z" fill="url(#paint22_linear_11054_4394)"/>
<path d="M58.8081 16.8065L56.3125 19.2461L56.3824 19.3176L58.878 16.878L58.8081 16.8065Z" fill="url(#paint23_linear_11054_4394)"/>
<path d="M55.3881 19.9555C55.3881 19.9555 55.3281 19.9255 55.3281 19.8955V17.9155C55.3281 17.9155 55.3581 17.8555 55.3881 17.8555C55.4181 17.8555 55.4481 17.8855 55.4481 17.9155V19.8955C55.4481 19.8955 55.4181 19.9555 55.3881 19.9555Z" fill="url(#paint24_linear_11054_4394)"/>
<path d="M55.3807 18.675C55.3807 18.675 56.1507 18.025 56.1607 17.055C56.1707 16.085 55.4107 15.105 55.4207 14.625C55.4207 14.625 54.3607 16.075 54.4507 17.105C54.5407 18.135 55.3807 18.675 55.3807 18.675Z" fill="url(#paint25_linear_11054_4394)"/>
<path d="M55.4014 18.3934C55.4014 18.3934 55.8614 17.7034 55.8414 17.0534C55.8214 16.4034 55.4314 15.8034 55.3514 15.5234C55.3514 15.5234 54.1414 17.0534 55.4014 18.4034V18.3934Z" fill="url(#paint26_radial_11054_4394)"/>
<path opacity="0.37" d="M57.4496 15.9946C57.2996 17.8046 56.3096 19.1846 55.2396 19.0846C54.1796 18.9746 53.4396 17.4246 53.5896 15.6146C53.7396 13.8046 54.7296 12.4246 55.7996 12.5246C56.8596 12.6346 57.5996 14.1846 57.4496 15.9946Z" fill="url(#paint27_radial_11054_4394)"/>
<path d="M56.55 19.1755C56.55 19.1755 56.52 19.1055 56.48 19.1055H54.32C54.32 19.1055 54.25 19.1355 54.25 19.1755V19.9555C54.25 20.1755 56.56 20.1755 56.56 19.9555V19.1755H56.55Z" fill="url(#paint28_linear_11054_4394)"/>
<path style="mix-blend-mode:multiply" opacity="0.14" d="M54.9 19.1055H54.32C54.32 19.1055 54.25 19.1355 54.25 19.1755V19.9555C54.25 20.0555 54.73 20.1055 55.26 20.1155C54.96 19.7955 54.9 19.3955 54.9 19.1055Z" fill="url(#paint29_linear_11054_4394)"/>
<path style="mix-blend-mode:screen" opacity="0.3" d="M41.6991 16.3154C40.4891 10.5154 45.6591 5.0654 53.2391 4.1354C60.8191 3.2054 67.9591 7.1654 69.1691 12.9654C70.3791 18.7654 65.2091 24.2154 57.6291 25.1454C50.0491 26.0754 42.9091 22.1154 41.6991 16.3154Z" fill="url(#paint30_radial_11054_4394)"/>
<path d="M60.4198 6.26353C55.3098 4.65353 51.5098 5.83353 50.4598 6.24353C50.2798 6.31353 50.1698 6.48353 50.1898 6.67353L50.8998 16.7235C50.9098 16.9235 51.0798 17.0835 51.2898 17.0835H59.6298C59.8298 17.0835 59.9998 16.9235 60.0198 16.7235L60.7298 6.70353C60.7398 6.50353 60.6198 6.32353 60.4298 6.26353H60.4198Z" fill="url(#paint31_linear_11054_4394)"/>
<path opacity="0.37" d="M59.3937 10.2264C59.3937 13.6264 57.5337 16.3864 55.2437 16.3864C52.9537 16.3864 51.0938 13.6264 51.0938 10.2264C51.0938 6.82641 52.9537 4.06641 55.2437 4.06641C57.5337 4.06641 59.3937 6.82641 59.3937 10.2264Z" fill="url(#paint32_radial_11054_4394)"/>
</g>
<g opacity="0.4">
<path d="M110.632 223.366L110.562 223.438L113.058 225.877L113.128 225.806L110.632 223.366Z" fill="url(#paint33_linear_11054_4394)"/>
<path d="M117.449 223.322L114.953 225.762L115.023 225.833L117.519 223.394L117.449 223.322Z" fill="url(#paint34_linear_11054_4394)"/>
<path d="M114.029 226.475C114.029 226.475 113.969 226.445 113.969 226.415V224.435C113.969 224.435 113.999 224.375 114.029 224.375C114.059 224.375 114.089 224.405 114.089 224.435V226.415C114.089 226.415 114.059 226.475 114.029 226.475Z" fill="url(#paint35_linear_11054_4394)"/>
<path d="M114.021 225.195C114.021 225.195 114.791 224.545 114.801 223.575C114.801 222.595 114.051 221.625 114.061 221.145C114.061 221.145 113.001 222.595 113.091 223.625C113.181 224.655 114.021 225.195 114.021 225.195Z" fill="url(#paint36_linear_11054_4394)"/>
<path d="M114.042 224.917C114.042 224.917 114.502 224.227 114.482 223.577C114.462 222.927 114.072 222.327 113.992 222.047C113.992 222.047 112.782 223.577 114.042 224.927V224.917Z" fill="url(#paint37_radial_11054_4394)"/>
<path opacity="0.37" d="M116.09 222.506C115.94 224.316 114.95 225.696 113.88 225.596C112.82 225.486 112.08 223.936 112.23 222.126C112.38 220.316 113.37 218.936 114.44 219.036C115.5 219.146 116.24 220.696 116.09 222.506Z" fill="url(#paint38_radial_11054_4394)"/>
<path d="M115.191 225.695C115.191 225.695 115.161 225.625 115.121 225.625H112.961C112.961 225.625 112.891 225.655 112.891 225.695V226.475C112.891 226.695 115.201 226.695 115.201 226.475V225.695H115.191Z" fill="url(#paint39_linear_11054_4394)"/>
<path style="mix-blend-mode:multiply" opacity="0.14" d="M113.525 225.617H112.945C112.945 225.617 112.875 225.647 112.875 225.687V226.467C112.875 226.567 113.355 226.617 113.885 226.627C113.585 226.307 113.525 225.907 113.525 225.617Z" fill="url(#paint40_linear_11054_4394)"/>
<path style="mix-blend-mode:screen" opacity="0.3" d="M100.332 222.835C99.1219 217.035 104.292 211.585 111.872 210.655C119.452 209.725 126.592 213.685 127.802 219.485C129.012 225.285 123.842 230.735 116.262 231.665C108.682 232.595 101.542 228.635 100.332 222.835Z" fill="url(#paint41_radial_11054_4394)"/>
<path d="M119.06 212.784C113.95 211.164 110.15 212.354 109.1 212.764C108.92 212.834 108.81 213.004 108.83 213.194L109.54 223.244C109.55 223.444 109.72 223.604 109.93 223.604H118.27C118.47 223.604 118.64 223.444 118.66 223.244L119.37 213.224C119.38 213.024 119.26 212.844 119.07 212.784H119.06Z" fill="url(#paint42_linear_11054_4394)"/>
<path opacity="0.37" d="M113.892 222.906C116.184 222.906 118.042 220.148 118.042 216.746C118.042 213.344 116.184 210.586 113.892 210.586C111.6 210.586 109.742 213.344 109.742 216.746C109.742 220.148 111.6 222.906 113.892 222.906Z" fill="url(#paint43_radial_11054_4394)"/>
</g>
<g opacity="0.4">
<path d="M219.578 154.647L219.508 154.719L222.003 157.158L222.073 157.087L219.578 154.647Z" fill="url(#paint44_linear_11054_4394)"/>
<path d="M226.386 154.631L223.891 157.07L223.961 157.142L226.456 154.702L226.386 154.631Z" fill="url(#paint45_linear_11054_4394)"/>
<path d="M222.966 157.768C222.966 157.768 222.906 157.738 222.906 157.708V155.728C222.906 155.728 222.936 155.668 222.966 155.668C222.996 155.668 223.026 155.698 223.026 155.728V157.708C223.026 157.708 222.996 157.768 222.966 157.768Z" fill="url(#paint46_linear_11054_4394)"/>
<path d="M222.959 156.488C222.959 156.488 223.729 155.838 223.739 154.868C223.739 153.888 222.989 152.917 222.999 152.438C222.999 152.438 221.939 153.888 222.029 154.918C222.119 155.948 222.959 156.488 222.959 156.488Z" fill="url(#paint47_linear_11054_4394)"/>
<path d="M222.98 156.206C222.98 156.206 223.44 155.516 223.42 154.866C223.4 154.216 223.01 153.616 222.93 153.336C222.93 153.336 221.72 154.866 222.98 156.216V156.206Z" fill="url(#paint48_radial_11054_4394)"/>
<path opacity="0.37" d="M225.028 153.807C224.878 155.617 223.888 156.997 222.818 156.897C221.758 156.787 221.018 155.237 221.168 153.427C221.318 151.617 222.308 150.237 223.378 150.337C224.438 150.447 225.178 151.997 225.028 153.807Z" fill="url(#paint49_radial_11054_4394)"/>
<path d="M224.128 156.988C224.128 156.988 224.098 156.918 224.058 156.918H221.898C221.898 156.918 221.828 156.948 221.828 156.988V157.768C221.828 157.988 224.138 157.988 224.138 157.768V156.988H224.128Z" fill="url(#paint50_linear_11054_4394)"/>
<path style="mix-blend-mode:multiply" opacity="0.14" d="M222.462 156.918H221.883C221.883 156.918 221.812 156.948 221.812 156.988V157.768C221.812 157.868 222.292 157.918 222.822 157.928C222.522 157.608 222.462 157.208 222.462 156.918Z" fill="url(#paint51_linear_11054_4394)"/>
<path style="mix-blend-mode:screen" opacity="0.3" d="M209.269 154.136C208.059 148.336 213.229 142.886 220.809 141.956C228.389 141.026 235.529 144.986 236.739 150.786C237.949 156.586 232.779 162.036 225.199 162.966C217.619 163.896 210.479 159.936 209.269 154.136Z" fill="url(#paint52_radial_11054_4394)"/>
<path d="M227.998 144.084C222.878 142.474 219.088 143.654 218.038 144.064C217.858 144.134 217.748 144.304 217.768 144.494L218.478 154.544C218.488 154.744 218.658 154.904 218.868 154.904H227.208C227.408 154.904 227.578 154.744 227.598 154.544L228.308 144.524C228.318 144.324 228.198 144.144 228.008 144.084H227.998Z" fill="url(#paint53_linear_11054_4394)"/>
<path opacity="0.37" d="M222.83 154.195C225.122 154.195 226.98 151.437 226.98 148.035C226.98 144.633 225.122 141.875 222.83 141.875C220.538 141.875 218.68 144.633 218.68 148.035C218.68 151.437 220.538 154.195 222.83 154.195Z" fill="url(#paint54_radial_11054_4394)"/>
</g>
<defs>
<filter id="filter0_f_11054_4394" x="15" y="0" width="290" height="290" filterUnits="userSpaceOnUse" color-interpolation-filters="sRGB">
<feFlood flood-opacity="0" result="BackgroundImageFix"/>
<feBlend mode="normal" in="SourceGraphic" in2="BackgroundImageFix" result="shape"/>
<feGaussianBlur stdDeviation="50" result="effect1_foregroundBlur_11054_4394"/>
</filter>
<linearGradient id="paint0_linear_11054_4394" x1="146.296" y1="180.116" x2="145.896" y2="168.946" gradientUnits="userSpaceOnUse">
<stop stop-color="#820DB7"/>
<stop offset="1" stop-color="#9F44C6"/>
</linearGradient>
<linearGradient id="paint1_linear_11054_4394" x1="164.873" y1="179.914" x2="165.273" y2="168.744" gradientUnits="userSpaceOnUse">
<stop stop-color="#820DB7"/>
<stop offset="1" stop-color="#9F44C6"/>
</linearGradient>
<linearGradient id="paint2_linear_11054_4394" x1="155.717" y1="183.146" x2="155.367" y2="173.476" gradientUnits="userSpaceOnUse">
<stop stop-color="#820DB7"/>
<stop offset="1" stop-color="#9F44C6"/>
</linearGradient>
<linearGradient id="paint3_linear_11054_4394" x1="152.437" y1="177.83" x2="155.605" y2="168.421" gradientUnits="userSpaceOnUse">
<stop stop-color="#FDA01D"/>
<stop offset="1" stop-color="#FFC069"/>
</linearGradient>
<radialGradient id="paint4_radial_11054_4394" cx="0" cy="0" r="1" gradientTransform="matrix(11.4195 1.13579 -1.22851 12.3517 147.83 164.412)" gradientUnits="userSpaceOnUse">
<stop offset="0.09" stop-color="white"/>
<stop offset="0.13" stop-color="#FFFAF8" stop-opacity="0.96"/>
<stop offset="0.37" stop-color="#FFD8C6" stop-opacity="0.62"/>
<stop offset="0.58" stop-color="#FFBD9E" stop-opacity="0.35"/>
<stop offset="0.76" stop-color="#FFAA81" stop-opacity="0.16"/>
<stop offset="0.89" stop-color="#FF9E6F" stop-opacity="0.04"/>
<stop offset="0.97" stop-color="#FF9A69" stop-opacity="0"/>
</radialGradient>
<radialGradient id="paint5_radial_11054_4394" cx="0" cy="0" r="1" gradientUnits="userSpaceOnUse" gradientTransform="translate(144.73 169.316) rotate(5.68) scale(7.3794 8.5842)">
<stop stop-color="white"/>
<stop offset="0.09" stop-color="#FFFCFB" stop-opacity="0.98"/>
<stop offset="0.22" stop-color="#FFF5F1" stop-opacity="0.91"/>
<stop offset="0.36" stop-color="#FFEAE0" stop-opacity="0.8"/>
<stop offset="0.52" stop-color="#FFDAC9" stop-opacity="0.64"/>
<stop offset="0.69" stop-color="#FFC6AB" stop-opacity="0.44"/>
<stop offset="0.86" stop-color="#FFAE87" stop-opacity="0.21"/>
<stop offset="1" stop-color="#FF9A69" stop-opacity="0"/>
</radialGradient>
<linearGradient id="paint6_linear_11054_4394" x1="162.758" y1="179.066" x2="145.828" y2="183.376" gradientUnits="userSpaceOnUse">
<stop stop-color="#A814EA"/>
<stop offset="1" stop-color="#C957F8"/>
</linearGradient>
<linearGradient id="paint7_linear_11054_4394" x1="150.588" y1="181.106" x2="154.938" y2="181.106" gradientUnits="userSpaceOnUse">
<stop offset="0.1" stop-color="#AF4934"/>
<stop offset="0.21" stop-color="#AA4433"/>
<stop offset="0.34" stop-color="#9D3530"/>
<stop offset="0.48" stop-color="#871D2C"/>
<stop offset="0.51" stop-color="#82182B"/>
</linearGradient>
<linearGradient id="paint8_linear_11054_4394" x1="188.939" y1="144.817" x2="126.169" y2="145.707" gradientUnits="userSpaceOnUse">
<stop offset="0.35" stop-color="#FDA01D"/>
<stop offset="0.76" stop-color="#FFC069"/>
</linearGradient>
<radialGradient id="paint9_radial_11054_4394" cx="0" cy="0" r="1" gradientUnits="userSpaceOnUse" gradientTransform="translate(158.045 147.572) scale(20.6 23.69)">
<stop stop-color="white"/>
<stop offset="0.22" stop-color="#FFFEFD" stop-opacity="0.99"/>
<stop offset="0.35" stop-color="#FFFAF8" stop-opacity="0.96"/>
<stop offset="0.45" stop-color="#FFF5F0" stop-opacity="0.9"/>
<stop offset="0.54" stop-color="#FFEDE5" stop-opacity="0.83"/>
<stop offset="0.62" stop-color="#FFE3D5" stop-opacity="0.73"/>
<stop offset="0.69" stop-color="#FFD6C3" stop-opacity="0.6"/>
<stop offset="0.76" stop-color="#FFC8AD" stop-opacity="0.46"/>
<stop offset="0.83" stop-color="#FFB693" stop-opacity="0.29"/>
<stop offset="0.89" stop-color="#FFA377" stop-opacity="0.1"/>
<stop offset="0.92" stop-color="#FF9A69" stop-opacity="0"/>
</radialGradient>
<radialGradient id="paint10_radial_11054_4394" cx="0" cy="0" r="1" gradientUnits="userSpaceOnUse" gradientTransform="translate(160 145) rotate(90) scale(76.2805)">
<stop stop-color="#F5B327"/>
<stop offset="1" stop-color="#FFF969"/>
</radialGradient>
<linearGradient id="paint11_linear_11054_4394" x1="160.606" y1="301.129" x2="160.426" y2="296.149" gradientUnits="userSpaceOnUse">
<stop stop-color="#820DB7"/>
<stop offset="1" stop-color="#9F44C6"/>
</linearGradient>
<linearGradient id="paint12_linear_11054_4394" x1="168.855" y1="300.891" x2="169.035" y2="295.911" gradientUnits="userSpaceOnUse">
<stop stop-color="#820DB7"/>
<stop offset="1" stop-color="#9F44C6"/>
</linearGradient>
<linearGradient id="paint13_linear_11054_4394" x1="164.784" y1="302.477" x2="164.634" y2="298.177" gradientUnits="userSpaceOnUse">
<stop stop-color="#820DB7"/>
<stop offset="1" stop-color="#9F44C6"/>
</linearGradient>
<linearGradient id="paint14_linear_11054_4394" x1="163.309" y1="300.107" x2="164.719" y2="295.919" gradientUnits="userSpaceOnUse">
<stop stop-color="#FDA01D"/>
<stop offset="1" stop-color="#FFC069"/>
</linearGradient>
<radialGradient id="paint15_radial_11054_4394" cx="0" cy="0" r="1" gradientUnits="userSpaceOnUse" gradientTransform="translate(155.011 293.573) rotate(5.67999) scale(5.10579 5.52259)">
<stop offset="0.09" stop-color="white"/>
<stop offset="0.13" stop-color="#FFFAF8" stop-opacity="0.96"/>
<stop offset="0.37" stop-color="#FFD8C6" stop-opacity="0.62"/>
<stop offset="0.58" stop-color="#FFBD9E" stop-opacity="0.35"/>
<stop offset="0.76" stop-color="#FFAA81" stop-opacity="0.16"/>
<stop offset="0.89" stop-color="#FF9E6F" stop-opacity="0.04"/>
<stop offset="0.97" stop-color="#FF9A69" stop-opacity="0"/>
</radialGradient>
<radialGradient id="paint16_radial_11054_4394" cx="0" cy="0" r="1" gradientUnits="userSpaceOnUse" gradientTransform="translate(151.832 297.005) rotate(5.67998) scale(3.28301 3.81899)">
<stop stop-color="white"/>
<stop offset="0.09" stop-color="#FFFCFB" stop-opacity="0.98"/>
<stop offset="0.22" stop-color="#FFF5F1" stop-opacity="0.91"/>
<stop offset="0.36" stop-color="#FFEAE0" stop-opacity="0.8"/>
<stop offset="0.52" stop-color="#FFDAC9" stop-opacity="0.64"/>
<stop offset="0.69" stop-color="#FFC6AB" stop-opacity="0.44"/>
<stop offset="0.86" stop-color="#FFAE87" stop-opacity="0.21"/>
<stop offset="1" stop-color="#FF9A69" stop-opacity="0"/>
</radialGradient>
<linearGradient id="paint17_linear_11054_4394" x1="167.922" y1="300.668" x2="160.382" y2="302.578" gradientUnits="userSpaceOnUse">
<stop stop-color="#A814EA"/>
<stop offset="1" stop-color="#C957F8"/>
</linearGradient>
<linearGradient id="paint18_linear_11054_4394" x1="162.5" y1="301.578" x2="164.44" y2="301.578" gradientUnits="userSpaceOnUse">
<stop offset="0.1" stop-color="#AF4934"/>
<stop offset="0.21" stop-color="#AA4433"/>
<stop offset="0.34" stop-color="#9D3530"/>
<stop offset="0.48" stop-color="#871D2C"/>
<stop offset="0.51" stop-color="#82182B"/>
</linearGradient>
<radialGradient id="paint19_radial_11054_4394" cx="0" cy="0" r="1" gradientUnits="userSpaceOnUse" gradientTransform="translate(146.409 295.142) rotate(-6.96) scale(26.5984 20.5722)">
<stop stop-color="#FFA74E"/>
<stop offset="1" stop-color="#FFA74E" stop-opacity="0"/>
</radialGradient>
<linearGradient id="paint20_linear_11054_4394" x1="179.562" y1="285.425" x2="151.632" y2="285.815" gradientUnits="userSpaceOnUse">
<stop offset="0.35" stop-color="#FDA01D"/>
<stop offset="0.76" stop-color="#FFC069"/>
</linearGradient>
<radialGradient id="paint21_radial_11054_4394" cx="0" cy="0" r="1" gradientUnits="userSpaceOnUse" gradientTransform="translate(165.817 284.858) scale(9.16999 10.5455)">
<stop stop-color="white"/>
<stop offset="0.22" stop-color="#FFFEFD" stop-opacity="0.99"/>
<stop offset="0.35" stop-color="#FFFAF8" stop-opacity="0.96"/>
<stop offset="0.45" stop-color="#FFF5F0" stop-opacity="0.9"/>
<stop offset="0.54" stop-color="#FFEDE5" stop-opacity="0.83"/>
<stop offset="0.62" stop-color="#FFE3D5" stop-opacity="0.73"/>
<stop offset="0.69" stop-color="#FFD6C3" stop-opacity="0.6"/>
<stop offset="0.76" stop-color="#FFC8AD" stop-opacity="0.46"/>
<stop offset="0.83" stop-color="#FFB693" stop-opacity="0.29"/>
<stop offset="0.89" stop-color="#FFA377" stop-opacity="0.1"/>
<stop offset="0.92" stop-color="#FF9A69" stop-opacity="0"/>
</radialGradient>
<linearGradient id="paint22_linear_11054_4394" x1="53.267" y1="19.3743" x2="53.167" y2="16.7842" gradientUnits="userSpaceOnUse">
<stop stop-color="#820DB7"/>
<stop offset="1" stop-color="#9F44C6"/>
</linearGradient>
<linearGradient id="paint23_linear_11054_4394" x1="57.5507" y1="19.1548" x2="57.6407" y2="16.5648" gradientUnits="userSpaceOnUse">
<stop stop-color="#820DB7"/>
<stop offset="1" stop-color="#9F44C6"/>
</linearGradient>
<linearGradient id="paint24_linear_11054_4394" x1="55.4281" y1="20.0755" x2="55.3481" y2="17.8355" gradientUnits="userSpaceOnUse">
<stop stop-color="#820DB7"/>
<stop offset="1" stop-color="#9F44C6"/>
</linearGradient>
<linearGradient id="paint25_linear_11054_4394" x1="54.6737" y1="18.8398" x2="55.4072" y2="16.6579" gradientUnits="userSpaceOnUse">
<stop stop-color="#FDA01D"/>
<stop offset="1" stop-color="#FFC069"/>
</linearGradient>
<radialGradient id="paint26_radial_11054_4394" cx="0" cy="0" r="1" gradientUnits="userSpaceOnUse" gradientTransform="translate(49.7894 15.3901) rotate(5.68) scale(2.6656 2.8832)">
<stop offset="0.09" stop-color="white"/>
<stop offset="0.13" stop-color="#FFFAF8" stop-opacity="0.96"/>
<stop offset="0.37" stop-color="#FFD8C6" stop-opacity="0.62"/>
<stop offset="0.58" stop-color="#FFBD9E" stop-opacity="0.35"/>
<stop offset="0.76" stop-color="#FFAA81" stop-opacity="0.16"/>
<stop offset="0.89" stop-color="#FF9E6F" stop-opacity="0.04"/>
<stop offset="0.97" stop-color="#FF9A69" stop-opacity="0"/>
</radialGradient>
<radialGradient id="paint27_radial_11054_4394" cx="0" cy="0" r="1" gradientUnits="userSpaceOnUse" gradientTransform="translate(46.6715 17.448) rotate(5.68) scale(1.715 1.995)">
<stop stop-color="white"/>
<stop offset="0.09" stop-color="#FFFCFB" stop-opacity="0.98"/>
<stop offset="0.22" stop-color="#FFF5F1" stop-opacity="0.91"/>
<stop offset="0.36" stop-color="#FFEAE0" stop-opacity="0.8"/>
<stop offset="0.52" stop-color="#FFDAC9" stop-opacity="0.64"/>
<stop offset="0.69" stop-color="#FFC6AB" stop-opacity="0.44"/>
<stop offset="0.86" stop-color="#FFAE87" stop-opacity="0.21"/>
<stop offset="1" stop-color="#FF9A69" stop-opacity="0"/>
</radialGradient>
<linearGradient id="paint28_linear_11054_4394" x1="57.07" y1="19.1355" x2="53.14" y2="20.1355" gradientUnits="userSpaceOnUse">
<stop stop-color="#A814EA"/>
<stop offset="1" stop-color="#C957F8"/>
</linearGradient>
<linearGradient id="paint29_linear_11054_4394" x1="54.24" y1="19.6055" x2="55.25" y2="19.6055" gradientUnits="userSpaceOnUse">
<stop offset="0.1" stop-color="#AF4934"/>
<stop offset="0.21" stop-color="#AA4433"/>
<stop offset="0.34" stop-color="#9D3530"/>
<stop offset="0.48" stop-color="#871D2C"/>
<stop offset="0.51" stop-color="#82182B"/>
</linearGradient>
<radialGradient id="paint30_radial_11054_4394" cx="0" cy="0" r="1" gradientUnits="userSpaceOnUse" gradientTransform="translate(61.0271 13.7906) rotate(-6.96) scale(13.8752 10.7316)">
<stop stop-color="#FFA74E"/>
<stop offset="1" stop-color="#FFA74E" stop-opacity="0"/>
</radialGradient>
<linearGradient id="paint31_linear_11054_4394" x1="63.1498" y1="11.1835" x2="48.5798" y2="11.3935" gradientUnits="userSpaceOnUse">
<stop offset="0.35" stop-color="#FDA01D"/>
<stop offset="0.76" stop-color="#FFC069"/>
</linearGradient>
<radialGradient id="paint32_radial_11054_4394" cx="0" cy="0" r="1" gradientUnits="userSpaceOnUse" gradientTransform="translate(55.9637 10.6869) scale(4.77999 5.497)">
<stop stop-color="white"/>
<stop offset="0.22" stop-color="#FFFEFD" stop-opacity="0.99"/>
<stop offset="0.35" stop-color="#FFFAF8" stop-opacity="0.96"/>
<stop offset="0.45" stop-color="#FFF5F0" stop-opacity="0.9"/>
<stop offset="0.54" stop-color="#FFEDE5" stop-opacity="0.83"/>
<stop offset="0.62" stop-color="#FFE3D5" stop-opacity="0.73"/>
<stop offset="0.69" stop-color="#FFD6C3" stop-opacity="0.6"/>
<stop offset="0.76" stop-color="#FFC8AD" stop-opacity="0.46"/>
<stop offset="0.83" stop-color="#FFB693" stop-opacity="0.29"/>
<stop offset="0.89" stop-color="#FFA377" stop-opacity="0.1"/>
<stop offset="0.92" stop-color="#FF9A69" stop-opacity="0"/>
</radialGradient>
<linearGradient id="paint33_linear_11054_4394" x1="111.9" y1="225.898" x2="111.81" y2="223.308" gradientUnits="userSpaceOnUse">
<stop stop-color="#820DB7"/>
<stop offset="1" stop-color="#9F44C6"/>
</linearGradient>
<linearGradient id="paint34_linear_11054_4394" x1="116.175" y1="225.673" x2="116.275" y2="223.083" gradientUnits="userSpaceOnUse">
<stop stop-color="#820DB7"/>
<stop offset="1" stop-color="#9F44C6"/>
</linearGradient>
<linearGradient id="paint35_linear_11054_4394" x1="114.069" y1="226.595" x2="113.989" y2="224.355" gradientUnits="userSpaceOnUse">
<stop stop-color="#820DB7"/>
<stop offset="1" stop-color="#9F44C6"/>
</linearGradient>
<linearGradient id="paint36_linear_11054_4394" x1="113.294" y1="225.357" x2="114.027" y2="223.175" gradientUnits="userSpaceOnUse">
<stop stop-color="#FDA01D"/>
<stop offset="1" stop-color="#FFC069"/>
</linearGradient>
<radialGradient id="paint37_radial_11054_4394" cx="0" cy="0" r="1" gradientUnits="userSpaceOnUse" gradientTransform="translate(105.405 221.637) rotate(5.68001) scale(2.6656 2.8832)">
<stop offset="0.09" stop-color="white"/>
<stop offset="0.13" stop-color="#FFFAF8" stop-opacity="0.96"/>
<stop offset="0.37" stop-color="#FFD8C6" stop-opacity="0.62"/>
<stop offset="0.58" stop-color="#FFBD9E" stop-opacity="0.35"/>
<stop offset="0.76" stop-color="#FFAA81" stop-opacity="0.16"/>
<stop offset="0.89" stop-color="#FF9E6F" stop-opacity="0.04"/>
<stop offset="0.97" stop-color="#FF9A69" stop-opacity="0"/>
</radialGradient>
<radialGradient id="paint38_radial_11054_4394" cx="0" cy="0" r="1" gradientUnits="userSpaceOnUse" gradientTransform="translate(102.226 224.205) rotate(5.67998) scale(1.71501 1.995)">
<stop stop-color="white"/>
<stop offset="0.09" stop-color="#FFFCFB" stop-opacity="0.98"/>
<stop offset="0.22" stop-color="#FFF5F1" stop-opacity="0.91"/>
<stop offset="0.36" stop-color="#FFEAE0" stop-opacity="0.8"/>
<stop offset="0.52" stop-color="#FFDAC9" stop-opacity="0.64"/>
<stop offset="0.69" stop-color="#FFC6AB" stop-opacity="0.44"/>
<stop offset="0.86" stop-color="#FFAE87" stop-opacity="0.21"/>
<stop offset="1" stop-color="#FF9A69" stop-opacity="0"/>
</radialGradient>
<linearGradient id="paint39_linear_11054_4394" x1="115.711" y1="225.655" x2="111.781" y2="226.655" gradientUnits="userSpaceOnUse">
<stop stop-color="#A814EA"/>
<stop offset="1" stop-color="#C957F8"/>
</linearGradient>
<linearGradient id="paint40_linear_11054_4394" x1="112.875" y1="226.127" x2="113.885" y2="226.127" gradientUnits="userSpaceOnUse">
<stop offset="0.1" stop-color="#AF4934"/>
<stop offset="0.21" stop-color="#AA4433"/>
<stop offset="0.34" stop-color="#9D3530"/>
<stop offset="0.48" stop-color="#871D2C"/>
<stop offset="0.51" stop-color="#82182B"/>
</linearGradient>
<radialGradient id="paint41_radial_11054_4394" cx="0" cy="0" r="1" gradientUnits="userSpaceOnUse" gradientTransform="translate(101.996 223.218) rotate(-6.96) scale(13.8752 10.7316)">
<stop stop-color="#FFA74E"/>
<stop offset="1" stop-color="#FFA74E" stop-opacity="0"/>
</radialGradient>
<linearGradient id="paint42_linear_11054_4394" x1="121.78" y1="217.704" x2="107.21" y2="217.914" gradientUnits="userSpaceOnUse">
<stop offset="0.35" stop-color="#FDA01D"/>
<stop offset="0.76" stop-color="#FFC069"/>
</linearGradient>
<radialGradient id="paint43_radial_11054_4394" cx="0" cy="0" r="1" gradientUnits="userSpaceOnUse" gradientTransform="translate(114.612 216.364) scale(4.77999 5.497)">
<stop stop-color="white"/>
<stop offset="0.22" stop-color="#FFFEFD" stop-opacity="0.99"/>
<stop offset="0.35" stop-color="#FFFAF8" stop-opacity="0.96"/>
<stop offset="0.45" stop-color="#FFF5F0" stop-opacity="0.9"/>
<stop offset="0.54" stop-color="#FFEDE5" stop-opacity="0.83"/>
<stop offset="0.62" stop-color="#FFE3D5" stop-opacity="0.73"/>
<stop offset="0.69" stop-color="#FFD6C3" stop-opacity="0.6"/>
<stop offset="0.76" stop-color="#FFC8AD" stop-opacity="0.46"/>
<stop offset="0.83" stop-color="#FFB693" stop-opacity="0.29"/>
<stop offset="0.89" stop-color="#FFA377" stop-opacity="0.1"/>
<stop offset="0.92" stop-color="#FF9A69" stop-opacity="0"/>
</radialGradient>
<linearGradient id="paint44_linear_11054_4394" x1="220.834" y1="157.192" x2="220.744" y2="154.592" gradientUnits="userSpaceOnUse">
<stop stop-color="#820DB7"/>
<stop offset="1" stop-color="#9F44C6"/>
</linearGradient>
<linearGradient id="paint45_linear_11054_4394" x1="225.124" y1="157.096" x2="225.225" y2="154.496" gradientUnits="userSpaceOnUse">
<stop stop-color="#820DB7"/>
<stop offset="1" stop-color="#9F44C6"/>
</linearGradient>
<linearGradient id="paint46_linear_11054_4394" x1="223.006" y1="157.898" x2="222.926" y2="155.648" gradientUnits="userSpaceOnUse">
<stop stop-color="#820DB7"/>
<stop offset="1" stop-color="#9F44C6"/>
</linearGradient>
<linearGradient id="paint47_linear_11054_4394" x1="222.231" y1="156.665" x2="222.966" y2="154.473" gradientUnits="userSpaceOnUse">
<stop stop-color="#FDA01D"/>
<stop offset="1" stop-color="#FFC069"/>
</linearGradient>
<radialGradient id="paint48_radial_11054_4394" cx="0" cy="0" r="1" gradientTransform="matrix(2.65253 0.263821 -0.285359 2.86905 215.067 152.98)" gradientUnits="userSpaceOnUse">
<stop offset="0.09" stop-color="white"/>
<stop offset="0.13" stop-color="#FFFAF8" stop-opacity="0.96"/>
<stop offset="0.37" stop-color="#FFD8C6" stop-opacity="0.62"/>
<stop offset="0.58" stop-color="#FFBD9E" stop-opacity="0.35"/>
<stop offset="0.76" stop-color="#FFAA81" stop-opacity="0.16"/>
<stop offset="0.89" stop-color="#FF9E6F" stop-opacity="0.04"/>
<stop offset="0.97" stop-color="#FF9A69" stop-opacity="0"/>
</radialGradient>
<radialGradient id="paint49_radial_11054_4394" cx="0" cy="0" r="1" gradientUnits="userSpaceOnUse" gradientTransform="translate(211.908 155.356) rotate(5.68002) scale(1.71499 1.995)">
<stop stop-color="white"/>
<stop offset="0.09" stop-color="#FFFCFB" stop-opacity="0.98"/>
<stop offset="0.22" stop-color="#FFF5F1" stop-opacity="0.91"/>
<stop offset="0.36" stop-color="#FFEAE0" stop-opacity="0.8"/>
<stop offset="0.52" stop-color="#FFDAC9" stop-opacity="0.64"/>
<stop offset="0.69" stop-color="#FFC6AB" stop-opacity="0.44"/>
<stop offset="0.86" stop-color="#FFAE87" stop-opacity="0.21"/>
<stop offset="1" stop-color="#FF9A69" stop-opacity="0"/>
</radialGradient>
<linearGradient id="paint50_linear_11054_4394" x1="224.648" y1="156.948" x2="220.718" y2="157.948" gradientUnits="userSpaceOnUse">
<stop stop-color="#A814EA"/>
<stop offset="1" stop-color="#C957F8"/>
</linearGradient>
<linearGradient id="paint51_linear_11054_4394" x1="221.812" y1="157.428" x2="222.822" y2="157.428" gradientUnits="userSpaceOnUse">
<stop offset="0.1" stop-color="#AF4934"/>
<stop offset="0.21" stop-color="#AA4433"/>
<stop offset="0.34" stop-color="#9D3530"/>
<stop offset="0.48" stop-color="#871D2C"/>
<stop offset="0.51" stop-color="#82182B"/>
</linearGradient>
<radialGradient id="paint52_radial_11054_4394" cx="0" cy="0" r="1" gradientUnits="userSpaceOnUse" gradientTransform="translate(215.841 153.72) rotate(-6.96) scale(13.8752 10.7316)">
<stop stop-color="#FFA74E"/>
<stop offset="1" stop-color="#FFA74E" stop-opacity="0"/>
</radialGradient>
<linearGradient id="paint53_linear_11054_4394" x1="230.718" y1="148.994" x2="216.148" y2="149.204" gradientUnits="userSpaceOnUse">
<stop offset="0.35" stop-color="#FDA01D"/>
<stop offset="0.76" stop-color="#FFC069"/>
</linearGradient>
<radialGradient id="paint54_radial_11054_4394" cx="0" cy="0" r="1" gradientUnits="userSpaceOnUse" gradientTransform="translate(223.55 147.938) scale(4.78001 5.497)">
<stop stop-color="white"/>
<stop offset="0.22" stop-color="#FFFEFD" stop-opacity="0.99"/>
<stop offset="0.35" stop-color="#FFFAF8" stop-opacity="0.96"/>
<stop offset="0.45" stop-color="#FFF5F0" stop-opacity="0.9"/>
<stop offset="0.54" stop-color="#FFEDE5" stop-opacity="0.83"/>
<stop offset="0.62" stop-color="#FFE3D5" stop-opacity="0.73"/>
<stop offset="0.69" stop-color="#FFD6C3" stop-opacity="0.6"/>
<stop offset="0.76" stop-color="#FFC8AD" stop-opacity="0.46"/>
<stop offset="0.83" stop-color="#FFB693" stop-opacity="0.29"/>
<stop offset="0.89" stop-color="#FFA377" stop-opacity="0.1"/>
<stop offset="0.92" stop-color="#FF9A69" stop-opacity="0"/>
</radialGradient>
</defs>
</svg>
