<svg width="217" height="217" viewBox="0 0 217 217" fill="none" xmlns="http://www.w3.org/2000/svg">
<path style="mix-blend-mode:screen" d="M157.486 166.549C125.155 193.87 76.798 189.809 49.4767 157.479C22.1553 125.148 26.216 76.7911 58.5465 49.4697C90.8769 22.1483 139.234 26.209 166.556 58.5395C193.877 90.8699 189.816 139.227 157.486 166.549Z" fill="url(#paint0_radial_11054_4900)"/>
<path style="mix-blend-mode:screen" d="M63.7205 156.471C37.6471 131.319 36.9005 89.7922 62.0529 63.7188C87.2054 37.6454 128.732 36.8988 154.806 62.0512C180.879 87.2037 181.626 128.73 156.473 154.804C131.321 180.877 89.7939 181.624 63.7205 156.471Z" fill="url(#paint1_radial_11054_4900)"/>
<path d="M112.955 149.572C112.955 152.892 111.93 155.586 110.661 155.586C109.393 155.586 108.367 152.892 108.367 149.572C108.367 149.572 108.498 136.59 110.661 117.246C112.825 136.59 112.955 149.572 112.955 149.572Z" fill="url(#paint2_linear_11054_4900)"/>
<path d="M139.353 138.293C141.491 140.839 142.429 143.559 141.465 144.375C140.491 145.192 137.98 143.785 135.842 141.238C135.842 141.238 127.596 131.21 116.82 115.004C130.907 128.43 139.353 138.293 139.353 138.293Z" fill="url(#paint3_linear_11054_4900)"/>
<path d="M148.098 88.6889C148.098 88.6889 136.792 95.0672 118.961 102.862C134.629 91.3219 145.812 84.7177 145.812 84.7177C148.689 83.0579 151.53 82.5973 152.165 83.6923C152.799 84.7872 150.983 87.0205 148.107 88.6889H148.098Z" fill="url(#paint4_linear_11054_4900)"/>
<path d="M127.05 62.6215C128.241 63.056 128.284 65.9324 127.146 69.0607C127.146 69.0607 122.584 81.2178 113.938 98.6495C118.517 79.7318 122.836 67.4878 122.836 67.4878C123.974 64.3682 125.86 62.187 127.05 62.6215Z" fill="url(#paint5_linear_11054_4900)"/>
<path d="M94.2656 62.6215C95.4562 62.187 97.3418 64.3682 98.4802 67.4878C98.4802 67.4878 102.799 79.7318 107.379 98.6495C98.7322 81.2178 94.1701 69.0607 94.1701 69.0607C93.0317 65.9411 93.0751 63.056 94.2656 62.6215Z" fill="url(#paint6_linear_11054_4900)"/>
<path d="M73.2157 88.6911C70.3394 87.0314 68.5232 84.7981 69.1576 83.6945C69.792 82.5996 72.6335 83.0514 75.5099 84.7199C75.5099 84.7199 86.685 91.3241 102.361 102.864C84.5299 95.0695 73.2157 88.6911 73.2157 88.6911Z" fill="url(#paint7_linear_11054_4900)"/>
<path d="M68.9845 112.675C68.9845 112.675 81.7933 110.546 101.215 109.32C82.5406 114.812 69.7839 117.193 69.7839 117.193C66.5166 117.767 63.6837 117.228 63.4664 115.977C63.2492 114.725 65.7171 113.248 68.9932 112.675H68.9845Z" fill="url(#paint8_linear_11054_4900)"/>
<path d="M104.496 115.004C93.7205 131.21 85.4738 141.238 85.4738 141.238C83.3361 143.785 80.8248 145.184 79.8515 144.376C78.8782 143.559 79.8254 140.839 81.9631 138.293C81.9631 138.293 90.4096 128.43 104.496 115.004Z" fill="url(#paint9_linear_11054_4900)"/>
<path d="M102.221 138.624C101.396 141.005 99.988 142.673 99.0843 142.36C98.1805 142.048 98.111 139.866 98.9365 137.485C98.9365 137.485 102.265 128.222 108.626 114.918C105.358 129.3 102.221 138.624 102.221 138.624Z" fill="url(#paint10_linear_11054_4900)"/>
<path d="M123.917 137.128C124.812 139.483 124.812 141.664 123.917 142.003C123.022 142.342 121.571 140.717 120.676 138.362C120.676 138.362 117.27 129.134 113.594 114.848C120.337 127.961 123.926 137.12 123.926 137.12L123.917 137.128Z" fill="url(#paint11_linear_11054_4900)"/>
<path d="M142.524 103.805C142.524 103.805 132.844 105.551 118.141 106.698C132.227 102.336 141.873 100.39 141.873 100.39C144.34 99.9204 146.496 100.294 146.678 101.241C146.86 102.18 145.001 103.327 142.524 103.805Z" fill="url(#paint12_linear_11054_4900)"/>
<path d="M133.954 79.9063C134.701 80.5146 134.014 82.5828 132.424 84.538C132.424 84.538 126.133 92.0981 115.609 102.43C123.595 90.0299 129.73 82.3481 129.73 82.3481C131.321 80.3929 133.215 79.3067 133.954 79.915V79.9063Z" fill="url(#paint13_linear_11054_4900)"/>
<path d="M110.491 71.754C111.447 71.7366 112.255 73.7701 112.29 76.2901C112.29 76.2901 112.333 86.127 110.908 100.804C109.057 86.1704 108.814 76.3422 108.814 76.3422C108.779 73.8222 109.526 71.7714 110.482 71.7627L110.491 71.754Z" fill="url(#paint14_linear_11054_4900)"/>
<path d="M88.9355 85.1648C87.2931 83.2617 86.5458 81.2109 87.267 80.5765C87.9883 79.9422 89.9174 80.9849 91.5598 82.888C91.5598 82.888 97.9121 90.396 106.254 102.562C95.4355 92.5424 88.9268 85.1648 88.9268 85.1648H88.9355Z" fill="url(#paint15_linear_11054_4900)"/>
<path d="M79.9429 101.284C79.9429 101.284 89.6407 102.952 103.849 106.906C89.1193 106.185 79.3954 104.716 79.3954 104.716C76.9101 104.317 75.0245 103.222 75.1722 102.274C75.3286 101.327 77.4663 100.884 79.9516 101.284H79.9429Z" fill="url(#paint16_linear_11054_4900)"/>
<path d="M104.777 111.777C93.0285 120.693 84.6341 125.82 84.6341 125.82C82.4703 127.106 80.3239 127.489 79.8286 126.663C79.3333 125.837 80.6889 124.126 82.8527 122.839C82.8527 122.839 91.3513 117.886 104.777 111.777Z" fill="url(#paint17_linear_11054_4900)"/>
<path d="M108.751 105.062L111.002 106.557L113.522 105.558L112.783 108.165L114.521 110.25L111.81 110.355L110.368 112.649L109.429 110.103L106.805 109.442L108.925 107.765L108.751 105.062Z" fill="url(#paint18_linear_11054_4900)"/>
<defs>
<radialGradient id="paint0_radial_11054_4900" cx="0" cy="0" r="1" gradientUnits="userSpaceOnUse" gradientTransform="translate(108.012 107.967) rotate(-100.45) scale(76.6428)">
<stop offset="0.02" stop-color="#F2AF5C" stop-opacity="0.69"/>
<stop offset="0.14" stop-color="#F2AF5C" stop-opacity="0.51"/>
<stop offset="0.26" stop-color="#F2AF5C" stop-opacity="0.35"/>
<stop offset="0.39" stop-color="#F2AF5C" stop-opacity="0.22"/>
<stop offset="0.52" stop-color="#F2AF5C" stop-opacity="0.12"/>
<stop offset="0.66" stop-color="#F2AF5C" stop-opacity="0.05"/>
<stop offset="0.81" stop-color="#F2AF5C" stop-opacity="0.01"/>
<stop offset="1" stop-color="#F2AF5C" stop-opacity="0"/>
</radialGradient>
<radialGradient id="paint1_radial_11054_4900" cx="0" cy="0" r="1" gradientUnits="userSpaceOnUse" gradientTransform="translate(109.245 109.252) rotate(-100.45) scale(65.5966)">
<stop offset="0.02" stop-color="#F2AF5C" stop-opacity="0.69"/>
<stop offset="0.14" stop-color="#F2AF5C" stop-opacity="0.51"/>
<stop offset="0.26" stop-color="#F2AF5C" stop-opacity="0.35"/>
<stop offset="0.39" stop-color="#F2AF5C" stop-opacity="0.22"/>
<stop offset="0.52" stop-color="#F2AF5C" stop-opacity="0.12"/>
<stop offset="0.66" stop-color="#F2AF5C" stop-opacity="0.05"/>
<stop offset="0.81" stop-color="#F2AF5C" stop-opacity="0.01"/>
<stop offset="1" stop-color="#F2AF5C" stop-opacity="0"/>
</radialGradient>
<linearGradient id="paint2_linear_11054_4900" x1="110.661" y1="153.5" x2="110.661" y2="120.661" gradientUnits="userSpaceOnUse">
<stop offset="0.39" stop-color="#D69F15"/>
<stop offset="0.84" stop-color="#E9C56D"/>
<stop offset="1" stop-color="#F1D48F"/>
</linearGradient>
<linearGradient id="paint3_linear_11054_4900" x1="129.334" y1="142.994" x2="129.334" y2="117.637" gradientUnits="userSpaceOnUse">
<stop offset="0.39" stop-color="#D69F15"/>
<stop offset="0.84" stop-color="#E9C56D"/>
<stop offset="1" stop-color="#F1D48F"/>
</linearGradient>
<linearGradient id="paint4_linear_11054_4900" x1="135.628" y1="101.793" x2="135.628" y2="84.8567" gradientUnits="userSpaceOnUse">
<stop offset="0.39" stop-color="#D69F15"/>
<stop offset="0.84" stop-color="#E9C56D"/>
<stop offset="1" stop-color="#F1D48F"/>
</linearGradient>
<linearGradient id="paint5_linear_11054_4900" x1="120.959" y1="96.6943" x2="120.959" y2="65.7846" gradientUnits="userSpaceOnUse">
<stop offset="0.39" stop-color="#D69F15"/>
<stop offset="0.84" stop-color="#E9C56D"/>
<stop offset="1" stop-color="#F1D48F"/>
</linearGradient>
<linearGradient id="paint6_linear_11054_4900" x1="100.366" y1="96.6943" x2="100.366" y2="65.7846" gradientUnits="userSpaceOnUse">
<stop offset="0.39" stop-color="#D69F15"/>
<stop offset="0.84" stop-color="#E9C56D"/>
<stop offset="1" stop-color="#F1D48F"/>
</linearGradient>
<linearGradient id="paint7_linear_11054_4900" x1="85.6943" y1="101.795" x2="85.6943" y2="84.8589" gradientUnits="userSpaceOnUse">
<stop offset="0.39" stop-color="#D69F15"/>
<stop offset="0.84" stop-color="#E9C56D"/>
<stop offset="1" stop-color="#F1D48F"/>
</linearGradient>
<linearGradient id="paint8_linear_11054_4900" x1="82.332" y1="116.985" x2="82.332" y2="110.042" gradientUnits="userSpaceOnUse">
<stop offset="0.39" stop-color="#D69F15"/>
<stop offset="0.84" stop-color="#E9C56D"/>
<stop offset="1" stop-color="#F1D48F"/>
</linearGradient>
<linearGradient id="paint9_linear_11054_4900" x1="91.9825" y1="142.994" x2="91.9825" y2="117.637" gradientUnits="userSpaceOnUse">
<stop offset="0.39" stop-color="#FFCB47"/>
<stop offset="0.84" stop-color="#E9C56D"/>
<stop offset="1" stop-color="#F1D48F"/>
</linearGradient>
<linearGradient id="paint10_linear_11054_4900" x1="99.5472" y1="140.915" x2="107.72" y2="117.407" gradientUnits="userSpaceOnUse">
<stop stop-color="#EA6F0C"/>
<stop offset="1" stop-color="#F8CEA9"/>
</linearGradient>
<linearGradient id="paint11_linear_11054_4900" x1="115.524" y1="138.033" x2="121.833" y2="119.885" gradientUnits="userSpaceOnUse">
<stop stop-color="#EA6F0C"/>
<stop offset="1" stop-color="#F8CEA9"/>
</linearGradient>
<linearGradient id="paint12_linear_11054_4900" x1="130.282" y1="110.118" x2="134.496" y2="97.9949" gradientUnits="userSpaceOnUse">
<stop stop-color="#EA6F0C"/>
<stop offset="1" stop-color="#F8CEA9"/>
</linearGradient>
<linearGradient id="paint13_linear_11054_4900" x1="121.052" y1="102.812" x2="128.742" y2="80.6911" gradientUnits="userSpaceOnUse">
<stop stop-color="#EA6F0C"/>
<stop offset="1" stop-color="#F8CEA9"/>
</linearGradient>
<linearGradient id="paint14_linear_11054_4900" x1="106.318" y1="97.6883" x2="114.011" y2="75.5597" gradientUnits="userSpaceOnUse">
<stop stop-color="#EA6F0C"/>
<stop offset="1" stop-color="#F8CEA9"/>
</linearGradient>
<linearGradient id="paint15_linear_11054_4900" x1="94.5486" y1="97.6854" x2="98.7604" y2="85.5704" gradientUnits="userSpaceOnUse">
<stop stop-color="#EA6F0C"/>
<stop offset="1" stop-color="#F8CEA9"/>
</linearGradient>
<linearGradient id="paint16_linear_11054_4900" x1="88.3642" y1="107.724" x2="90.0906" y2="102.758" gradientUnits="userSpaceOnUse">
<stop stop-color="#EA6F0C"/>
<stop offset="1" stop-color="#F8CEA9"/>
</linearGradient>
<linearGradient id="paint17_linear_11054_4900" x1="88.7941" y1="128.736" x2="95.1031" y2="110.588" gradientUnits="userSpaceOnUse">
<stop stop-color="#EA6F0C"/>
<stop offset="1" stop-color="#F8CEA9"/>
</linearGradient>
<linearGradient id="paint18_linear_11054_4900" x1="110.432" y1="111.395" x2="111.56" y2="101.969" gradientUnits="userSpaceOnUse">
<stop stop-color="#F0D4FF"/>
<stop offset="1" stop-color="white"/>
</linearGradient>
</defs>
</svg>
