<svg width="56" height="40" viewBox="0 0 56 40" fill="none" xmlns="http://www.w3.org/2000/svg">
<path d="M24.4286 5.53192L17.1429 16.5957C19.3333 17.3522 21.1429 18.7234 22.5714 20.7092C24 22.6005 24.7143 24.9173 24.7143 27.6596C24.7143 31.0638 23.5238 33.9953 21.1429 36.4539C18.7619 38.818 15.8571 40 12.4286 40C9 40 6.04762 38.818 3.57143 36.4539C1.19048 33.9953 0 31.0638 0 27.6596C0 25.8629 0.285714 24.2553 0.857143 22.8369C1.52381 21.4184 2.42857 19.9054 3.57143 18.2979L16 0L24.4286 5.53192ZM55.7143 5.53192L48.4286 16.5957C50.619 17.3522 52.4286 18.7234 53.8571 20.7092C55.2857 22.6005 56 24.9173 56 27.6596C56 31.0638 54.8095 33.9953 52.4286 36.4539C50.0476 38.818 47.1429 40 43.7143 40C40.2857 40 37.3333 38.818 34.8571 36.4539C32.4762 33.9953 31.2857 31.0638 31.2857 27.6596C31.2857 25.8629 31.5714 24.2553 32.1429 22.8369C32.8095 21.4184 33.7143 19.9054 34.8571 18.2979L47.2857 0L55.7143 5.53192Z" fill="white"/>
</svg>
