<svg width="217" height="217" viewBox="0 0 217 217" fill="none" xmlns="http://www.w3.org/2000/svg">
<path style="mix-blend-mode:screen" d="M58.5454 166.549C90.8759 193.87 139.233 189.809 166.555 157.479C193.876 125.148 189.815 76.7911 157.485 49.4697C125.154 22.1483 76.797 26.209 49.4756 58.5395C22.1543 90.8699 26.2149 139.227 58.5454 166.549Z" fill="url(#paint0_radial_11054_4854)"/>
<path style="mix-blend-mode:screen" d="M152.303 156.471C178.376 131.319 179.123 89.7922 153.97 63.7188C128.818 37.6454 87.2913 36.8988 61.2179 62.0512C35.1445 87.2037 34.3979 128.73 59.5503 154.804C84.7027 180.877 126.23 181.624 152.303 156.471Z" fill="url(#paint1_radial_11054_4854)"/>
<path d="M103.076 149.572C103.076 152.892 104.101 155.586 105.37 155.586C106.639 155.586 107.664 152.892 107.664 149.572C107.664 149.572 107.534 136.59 105.37 117.246C103.206 136.59 103.076 149.572 103.076 149.572Z" fill="url(#paint2_linear_11054_4854)"/>
<path d="M76.6782 138.293C74.5405 140.839 73.602 143.559 74.5666 144.375C75.5399 145.192 78.0512 143.785 80.1889 141.238C80.1889 141.238 88.4356 131.21 99.2109 115.004C85.1247 128.43 76.6782 138.293 76.6782 138.293Z" fill="url(#paint3_linear_11054_4854)"/>
<path d="M67.9333 88.6889C67.9333 88.6889 79.2388 95.0672 97.0703 102.862C81.4026 91.3219 70.2188 84.7177 70.2188 84.7177C67.3424 83.0579 64.5009 82.5973 63.8665 83.6923C63.2322 84.7872 65.0483 87.0205 67.9247 88.6889H67.9333Z" fill="url(#paint4_linear_11054_4854)"/>
<path d="M88.9808 62.6215C87.7903 63.056 87.7469 65.9324 88.8852 69.0607C88.8852 69.0607 93.4474 81.2178 102.094 98.6495C97.5142 79.7318 93.1954 67.4878 93.1954 67.4878C92.057 64.3682 90.1713 62.187 88.9808 62.6215Z" fill="url(#paint5_linear_11054_4854)"/>
<path d="M121.766 62.6215C120.575 62.187 118.689 64.3682 117.551 67.4878C117.551 67.4878 113.232 79.7318 108.653 98.6495C117.299 81.2178 121.861 69.0607 121.861 69.0607C123 65.9411 122.956 63.056 121.766 62.6215Z" fill="url(#paint6_linear_11054_4854)"/>
<path d="M142.816 88.6911C145.692 87.0314 147.508 84.7981 146.874 83.6945C146.239 82.5996 143.398 83.0514 140.521 84.7199C140.521 84.7199 129.346 91.3241 113.67 102.864C131.501 95.0695 142.816 88.6911 142.816 88.6911Z" fill="url(#paint7_linear_11054_4854)"/>
<path d="M147.047 112.675C147.047 112.675 134.238 110.546 114.816 109.32C133.491 114.812 146.247 117.193 146.247 117.193C149.515 117.767 152.348 117.228 152.565 115.977C152.782 114.725 150.314 113.248 147.038 112.675H147.047Z" fill="url(#paint8_linear_11054_4854)"/>
<path d="M111.535 115.004C122.311 131.21 130.557 141.238 130.557 141.238C132.695 143.785 135.206 145.184 136.18 144.376C137.153 143.559 136.206 140.839 134.068 138.293C134.068 138.293 125.622 128.43 111.535 115.004Z" fill="url(#paint9_linear_11054_4854)"/>
<path d="M113.81 138.624C114.635 141.005 116.043 142.673 116.947 142.36C117.851 142.048 117.92 139.866 117.095 137.485C117.095 137.485 113.767 128.222 107.406 114.918C110.673 129.3 113.81 138.624 113.81 138.624Z" fill="url(#paint10_linear_11054_4854)"/>
<path d="M92.114 137.128C91.2189 139.483 91.2189 141.664 92.114 142.003C93.009 142.342 94.4602 140.717 95.3553 138.362C95.3553 138.362 98.7617 129.134 102.438 114.848C95.6942 127.961 92.1053 137.12 92.1053 137.12L92.114 137.128Z" fill="url(#paint11_linear_11054_4854)"/>
<path d="M73.507 103.805C73.507 103.805 83.1874 105.551 97.8906 106.698C83.8044 102.336 74.1587 100.39 74.1587 100.39C71.6908 99.9204 69.5357 100.294 69.3533 101.241C69.1708 102.18 71.0304 103.327 73.507 103.805Z" fill="url(#paint12_linear_11054_4854)"/>
<path d="M82.0777 79.9063C81.3303 80.5146 82.0168 82.5828 83.6071 84.538C83.6071 84.538 89.8985 92.0981 100.422 102.43C92.4359 90.0299 86.3009 82.3481 86.3009 82.3481C84.7107 80.3929 82.8163 79.3067 82.0777 79.915V79.9063Z" fill="url(#paint13_linear_11054_4854)"/>
<path d="M105.54 71.754C104.585 71.7366 103.776 73.7701 103.742 76.2901C103.742 76.2901 103.698 86.127 105.123 100.804C106.974 86.1704 107.218 76.3422 107.218 76.3422C107.252 73.8222 106.505 71.7714 105.549 71.7627L105.54 71.754Z" fill="url(#paint14_linear_11054_4854)"/>
<path d="M127.096 85.1648C128.738 83.2617 129.485 81.2109 128.764 80.5765C128.043 79.9422 126.114 80.9849 124.471 82.888C124.471 82.888 118.119 90.396 109.777 102.562C120.596 92.5424 127.104 85.1648 127.104 85.1648H127.096Z" fill="url(#paint15_linear_11054_4854)"/>
<path d="M136.088 101.284C136.088 101.284 126.391 102.952 112.183 106.906C126.912 106.185 136.636 104.716 136.636 104.716C139.121 104.317 141.007 103.222 140.859 102.274C140.703 101.327 138.565 100.884 136.08 101.284H136.088Z" fill="url(#paint16_linear_11054_4854)"/>
<path d="M111.254 111.777C123.003 120.693 131.397 125.82 131.397 125.82C133.561 127.106 135.707 127.489 136.203 126.663C136.698 125.837 135.342 124.126 133.179 122.839C133.179 122.839 124.68 117.886 111.254 111.777Z" fill="url(#paint17_linear_11054_4854)"/>
<path d="M107.28 105.062L105.029 106.557L102.509 105.558L103.248 108.165L101.51 110.25L104.221 110.355L105.664 112.649L106.602 110.103L109.227 109.442L107.106 107.765L107.28 105.062Z" fill="url(#paint18_linear_11054_4854)"/>
<defs>
<radialGradient id="paint0_radial_11054_4854" cx="0" cy="0" r="1" gradientUnits="userSpaceOnUse" gradientTransform="translate(108.02 107.967) rotate(-79.55) scale(76.6428)">
<stop offset="0.02" stop-color="#F2AF5C" stop-opacity="0.69"/>
<stop offset="0.14" stop-color="#F2AF5C" stop-opacity="0.51"/>
<stop offset="0.26" stop-color="#F2AF5C" stop-opacity="0.35"/>
<stop offset="0.39" stop-color="#F2AF5C" stop-opacity="0.22"/>
<stop offset="0.52" stop-color="#F2AF5C" stop-opacity="0.12"/>
<stop offset="0.66" stop-color="#F2AF5C" stop-opacity="0.05"/>
<stop offset="0.81" stop-color="#F2AF5C" stop-opacity="0.01"/>
<stop offset="1" stop-color="#F2AF5C" stop-opacity="0"/>
</radialGradient>
<radialGradient id="paint1_radial_11054_4854" cx="0" cy="0" r="1" gradientUnits="userSpaceOnUse" gradientTransform="translate(106.779 109.252) rotate(-79.55) scale(65.5966)">
<stop offset="0.02" stop-color="#F2AF5C" stop-opacity="0.69"/>
<stop offset="0.14" stop-color="#F2AF5C" stop-opacity="0.51"/>
<stop offset="0.26" stop-color="#F2AF5C" stop-opacity="0.35"/>
<stop offset="0.39" stop-color="#F2AF5C" stop-opacity="0.22"/>
<stop offset="0.52" stop-color="#F2AF5C" stop-opacity="0.12"/>
<stop offset="0.66" stop-color="#F2AF5C" stop-opacity="0.05"/>
<stop offset="0.81" stop-color="#F2AF5C" stop-opacity="0.01"/>
<stop offset="1" stop-color="#F2AF5C" stop-opacity="0"/>
</radialGradient>
<linearGradient id="paint2_linear_11054_4854" x1="105.37" y1="153.5" x2="105.37" y2="120.661" gradientUnits="userSpaceOnUse">
<stop offset="0.39" stop-color="#D69F15"/>
<stop offset="0.84" stop-color="#E9C56D"/>
<stop offset="1" stop-color="#F1D48F"/>
</linearGradient>
<linearGradient id="paint3_linear_11054_4854" x1="86.6976" y1="142.994" x2="86.6976" y2="117.637" gradientUnits="userSpaceOnUse">
<stop offset="0.39" stop-color="#D69F15"/>
<stop offset="0.84" stop-color="#E9C56D"/>
<stop offset="1" stop-color="#F1D48F"/>
</linearGradient>
<linearGradient id="paint4_linear_11054_4854" x1="80.4032" y1="101.793" x2="80.4032" y2="84.8567" gradientUnits="userSpaceOnUse">
<stop offset="0.39" stop-color="#D69F15"/>
<stop offset="0.84" stop-color="#E9C56D"/>
<stop offset="1" stop-color="#F1D48F"/>
</linearGradient>
<linearGradient id="paint5_linear_11054_4854" x1="95.0724" y1="96.6943" x2="95.0724" y2="65.7846" gradientUnits="userSpaceOnUse">
<stop offset="0.39" stop-color="#D69F15"/>
<stop offset="0.84" stop-color="#E9C56D"/>
<stop offset="1" stop-color="#F1D48F"/>
</linearGradient>
<linearGradient id="paint6_linear_11054_4854" x1="115.665" y1="96.6943" x2="115.665" y2="65.7846" gradientUnits="userSpaceOnUse">
<stop offset="0.39" stop-color="#D69F15"/>
<stop offset="0.84" stop-color="#E9C56D"/>
<stop offset="1" stop-color="#F1D48F"/>
</linearGradient>
<linearGradient id="paint7_linear_11054_4854" x1="130.337" y1="101.795" x2="130.337" y2="84.8589" gradientUnits="userSpaceOnUse">
<stop offset="0.39" stop-color="#D69F15"/>
<stop offset="0.84" stop-color="#E9C56D"/>
<stop offset="1" stop-color="#F1D48F"/>
</linearGradient>
<linearGradient id="paint8_linear_11054_4854" x1="133.699" y1="116.985" x2="133.699" y2="110.042" gradientUnits="userSpaceOnUse">
<stop offset="0.39" stop-color="#D69F15"/>
<stop offset="0.84" stop-color="#E9C56D"/>
<stop offset="1" stop-color="#F1D48F"/>
</linearGradient>
<linearGradient id="paint9_linear_11054_4854" x1="124.049" y1="142.994" x2="124.049" y2="117.637" gradientUnits="userSpaceOnUse">
<stop offset="0.39" stop-color="#FFCB47"/>
<stop offset="0.84" stop-color="#E9C56D"/>
<stop offset="1" stop-color="#F1D48F"/>
</linearGradient>
<linearGradient id="paint10_linear_11054_4854" x1="116.484" y1="140.915" x2="108.312" y2="117.407" gradientUnits="userSpaceOnUse">
<stop stop-color="#EA6F0C"/>
<stop offset="1" stop-color="#F8CEA9"/>
</linearGradient>
<linearGradient id="paint11_linear_11054_4854" x1="100.507" y1="138.033" x2="94.1983" y2="119.885" gradientUnits="userSpaceOnUse">
<stop stop-color="#EA6F0C"/>
<stop offset="1" stop-color="#F8CEA9"/>
</linearGradient>
<linearGradient id="paint12_linear_11054_4854" x1="85.7494" y1="110.118" x2="81.5348" y2="97.9949" gradientUnits="userSpaceOnUse">
<stop stop-color="#EA6F0C"/>
<stop offset="1" stop-color="#F8CEA9"/>
</linearGradient>
<linearGradient id="paint13_linear_11054_4854" x1="94.9796" y1="102.812" x2="87.2894" y2="80.6911" gradientUnits="userSpaceOnUse">
<stop stop-color="#EA6F0C"/>
<stop offset="1" stop-color="#F8CEA9"/>
</linearGradient>
<linearGradient id="paint14_linear_11054_4854" x1="109.713" y1="97.6883" x2="102.02" y2="75.5597" gradientUnits="userSpaceOnUse">
<stop stop-color="#EA6F0C"/>
<stop offset="1" stop-color="#F8CEA9"/>
</linearGradient>
<linearGradient id="paint15_linear_11054_4854" x1="121.483" y1="97.6854" x2="117.271" y2="85.5704" gradientUnits="userSpaceOnUse">
<stop stop-color="#EA6F0C"/>
<stop offset="1" stop-color="#F8CEA9"/>
</linearGradient>
<linearGradient id="paint16_linear_11054_4854" x1="127.667" y1="107.724" x2="125.941" y2="102.758" gradientUnits="userSpaceOnUse">
<stop stop-color="#EA6F0C"/>
<stop offset="1" stop-color="#F8CEA9"/>
</linearGradient>
<linearGradient id="paint17_linear_11054_4854" x1="127.237" y1="128.736" x2="120.928" y2="110.588" gradientUnits="userSpaceOnUse">
<stop stop-color="#EA6F0C"/>
<stop offset="1" stop-color="#F8CEA9"/>
</linearGradient>
<linearGradient id="paint18_linear_11054_4854" x1="105.599" y1="111.395" x2="104.471" y2="101.969" gradientUnits="userSpaceOnUse">
<stop stop-color="#F0D4FF"/>
<stop offset="1" stop-color="white"/>
</linearGradient>
</defs>
</svg>
