<svg width="1156" height="592" viewBox="0 0 1156 592" fill="none" xmlns="http://www.w3.org/2000/svg">
<g filter="url(#filter0_f_11054_4819)">
<ellipse cx="578.064" cy="361.732" rx="422.76" ry="74.298" fill="url(#paint0_linear_11054_4819)" fill-opacity="0.9"/>
</g>
<path d="M117.052 283.705C147.914 365.617 214.59 367.979 222.091 367.979L226.803 367.979C227.169 367.979 227.458 368.291 227.43 368.656C226.608 379.401 236.125 387.312 244.91 383.188C244.935 383.177 244.965 383.19 244.974 383.216C251.922 404.652 273.136 420.254 298.247 420.254L877.452 420.254C902.564 420.254 923.777 404.652 930.73 383.216C930.738 383.189 930.768 383.176 930.793 383.188C939.579 387.312 949.095 379.405 948.273 368.656C948.246 368.291 948.535 367.979 948.901 367.979L953.613 367.979C961.114 367.979 1027.79 365.613 1058.65 283.704C1065.62 265.199 1073.92 250.071 1082.71 237.714C1093.98 221.861 1093.98 198.953 1082.71 183.1C1073.92 170.743 1065.63 155.615 1058.65 137.11C1027.79 55.2018 961.114 52.8351 953.613 52.8351L948.723 52.8351C948.461 52.8351 948.254 52.6124 948.273 52.351C949.387 37.7964 926.767 24.7789 915.902 15.0309C905.91 6.06701 892.372 0.560586 877.456 0.560586L298.247 0.560612C283.33 0.560612 269.791 6.06691 259.8 15.0306C248.934 24.7795 226.313 37.7949 227.426 52.351C227.445 52.6124 227.238 52.8351 226.976 52.8351L222.087 52.8351C214.586 52.8351 147.91 55.2019 117.048 137.11C110.075 155.615 101.781 170.743 92.9943 183.1C81.7211 198.953 81.7209 221.862 92.9945 237.715C101.782 250.071 110.077 265.199 117.052 283.705Z" fill="url(#paint1_linear_11054_4819)"/>
<path d="M117.052 283.705C117.914 285.986 118.811 288.187 119.724 290.348C119.957 290.903 120.194 291.455 120.435 292.002C121.289 293.96 122.155 295.879 123.048 297.739C123.127 297.909 123.206 298.084 123.289 298.25C124.257 300.249 125.257 302.177 126.269 304.064C126.529 304.548 126.79 305.023 127.055 305.503C127.952 307.134 128.865 308.726 129.794 310.272C129.94 310.519 130.086 310.774 130.233 311.021C131.292 312.764 132.375 314.441 133.469 316.081C133.738 316.485 134.011 316.879 134.283 317.278C135.224 318.654 136.176 319.999 137.137 321.299C137.338 321.572 137.536 321.855 137.742 322.124C138.872 323.625 140.014 325.078 141.168 326.485C141.441 326.817 141.717 327.14 141.994 327.471C142.966 328.632 143.95 329.766 144.938 330.86C145.187 331.134 145.432 331.416 145.677 331.689C146.855 332.971 148.041 334.209 149.234 335.405C149.499 335.67 149.764 335.921 150.029 336.181C151.032 337.167 152.04 338.122 153.052 339.045C153.332 339.301 153.613 339.565 153.894 339.816C155.099 340.896 156.308 341.941 157.518 342.94C157.763 343.142 158.008 343.33 158.249 343.528C159.272 344.357 160.296 345.159 161.32 345.935C161.628 346.168 161.94 346.405 162.248 346.634C163.454 347.526 164.663 348.391 165.868 349.207C166.094 349.359 166.319 349.503 166.544 349.655C167.568 350.341 168.588 351 169.607 351.636C169.943 351.847 170.279 352.058 170.619 352.264C171.804 352.986 172.986 353.685 174.164 354.339C174.358 354.447 174.551 354.545 174.745 354.653C175.764 355.213 176.776 355.751 177.784 356.267C178.144 356.45 178.499 356.63 178.855 356.809C179.95 357.356 181.041 357.88 182.119 358.373C182.333 358.472 182.538 358.562 182.752 358.656C183.74 359.1 184.716 359.521 185.688 359.924C186.068 360.081 186.443 360.234 186.818 360.386C187.723 360.749 188.621 361.099 189.51 361.431C189.79 361.534 190.071 361.641 190.348 361.744C191.312 362.094 192.257 362.421 193.193 362.735C193.588 362.865 193.976 362.99 194.363 363.116C195.098 363.353 195.821 363.573 196.541 363.788C196.849 363.878 197.161 363.981 197.465 364.066C198.248 364.29 199.019 364.505 199.777 364.707C199.765 364.703 199.754 364.694 199.742 364.689C211.187 367.724 219.696 367.979 222.103 367.979L227.493 367.979L227.442 368.656C226.77 377.419 232.979 384.296 240.057 384.3C241.657 384.3 243.302 383.95 244.922 383.188L244.969 383.166C251.889 404.628 273.116 420.254 298.247 420.254L877.452 420.254C902.583 420.254 923.81 404.628 930.746 383.166L930.793 383.188C932.414 383.95 934.058 384.3 935.658 384.3C942.737 384.3 948.945 377.424 948.273 368.656L948.222 367.979L953.613 367.979C956.02 367.979 964.528 367.719 975.974 364.689C975.962 364.694 975.95 364.703 975.938 364.707C976.697 364.505 977.467 364.295 978.25 364.066C978.554 363.977 978.87 363.878 979.179 363.788C979.894 363.573 980.617 363.353 981.352 363.116C981.74 362.99 982.131 362.865 982.522 362.735C983.459 362.421 984.407 362.094 985.372 361.744C985.648 361.641 985.929 361.538 986.209 361.43C987.099 361.099 987.992 360.749 988.901 360.386C989.276 360.234 989.652 360.081 990.027 359.924C990.999 359.521 991.983 359.095 992.971 358.651C993.177 358.557 993.379 358.472 993.584 358.378C994.663 357.885 995.758 357.356 996.856 356.809C997.212 356.63 997.572 356.45 997.927 356.267C998.935 355.751 999.951 355.213 1000.97 354.653C1001.16 354.55 1001.35 354.451 1001.54 354.344C1002.72 353.685 1003.9 352.986 1005.08 352.264C1005.42 352.058 1005.76 351.851 1006.09 351.641C1007.11 351.004 1008.14 350.345 1009.16 349.66C1009.38 349.512 1009.61 349.368 1009.83 349.216C1011.04 348.395 1012.25 347.535 1013.45 346.638C1013.76 346.41 1014.07 346.172 1014.38 345.939C1015.4 345.164 1016.42 344.366 1017.44 343.536C1017.69 343.335 1017.94 343.147 1018.18 342.94C1019.4 341.941 1020.6 340.896 1021.81 339.816C1022.09 339.565 1022.37 339.305 1022.65 339.05C1023.66 338.122 1024.67 337.167 1025.67 336.181C1025.94 335.921 1026.2 335.67 1026.47 335.41C1027.66 334.213 1028.85 332.976 1030.03 331.689C1030.27 331.42 1030.52 331.142 1030.76 330.869C1031.75 329.771 1032.74 328.637 1033.71 327.467C1033.99 327.14 1034.26 326.821 1034.53 326.49C1035.69 325.082 1036.83 323.63 1037.96 322.124C1038.16 321.859 1038.36 321.581 1038.55 321.308C1039.52 319.999 1040.48 318.654 1041.42 317.274C1041.69 316.879 1041.96 316.485 1042.23 316.086C1043.32 314.445 1044.41 312.764 1045.47 311.021C1045.62 310.783 1045.76 310.528 1045.9 310.29C1046.83 308.739 1047.75 307.139 1048.65 305.503C1048.91 305.028 1049.17 304.557 1049.43 304.077C1050.44 302.186 1051.44 300.258 1052.41 298.255C1052.49 298.093 1052.56 297.923 1052.64 297.762C1053.54 295.897 1054.41 293.969 1055.26 292.002C1055.5 291.459 1055.73 290.912 1055.97 290.361C1056.88 288.196 1057.78 286 1058.64 283.714C1061.97 274.879 1065.6 266.81 1069.44 259.45C1072.33 253.928 1075.32 248.804 1078.41 244.048C1082.51 237.705 1086.77 232.017 1091.07 226.916C1096.45 220.542 1101.91 215.082 1107.29 210.416C1101.91 205.75 1096.45 200.295 1091.07 193.916C1086.77 188.815 1082.51 183.127 1078.41 176.784C1075.32 172.028 1072.33 166.9 1069.44 161.378C1065.6 154.018 1061.97 145.949 1058.64 137.114C1057.78 134.828 1056.88 132.628 1055.97 130.467C1055.73 129.916 1055.5 129.369 1055.26 128.826C1054.41 126.863 1053.54 124.94 1052.64 123.075C1052.56 122.91 1052.49 122.739 1052.41 122.573C1051.44 120.57 1050.44 118.642 1049.43 116.755C1049.17 116.275 1048.91 115.8 1048.65 115.33C1047.75 113.694 1046.83 112.098 1045.91 110.551C1045.76 110.305 1045.62 110.054 1045.47 109.812C1044.41 108.068 1043.32 106.387 1042.23 104.747C1041.96 104.343 1041.69 103.953 1041.42 103.559C1040.48 102.178 1039.52 100.829 1038.55 99.52C1038.36 99.2511 1038.16 98.9732 1037.96 98.7087C1036.83 97.2026 1035.69 95.7503 1034.53 94.3428C1034.26 94.0111 1033.99 93.6928 1033.71 93.3656C1032.74 92.2002 1031.75 91.0661 1030.76 89.9634C1030.52 89.69 1030.27 89.4121 1030.03 89.1431C1028.85 87.8612 1027.66 86.624 1026.47 85.4272C1026.2 85.1627 1025.94 84.9072 1025.67 84.6472C1024.67 83.6611 1023.67 82.7063 1022.66 81.7829C1022.37 81.523 1022.09 81.263 1021.81 81.0075C1020.61 79.9272 1019.4 78.8873 1018.19 77.8877C1017.94 77.6815 1017.69 77.4842 1017.44 77.2825C1016.42 76.4578 1015.4 75.6599 1014.38 74.8889C1014.07 74.6558 1013.76 74.4182 1013.45 74.1852C1012.25 73.2931 1011.04 72.4325 1009.83 71.6122C1009.61 71.4598 1009.38 71.3164 1009.15 71.164C1008.13 70.4782 1007.11 69.8192 1006.09 69.1872C1005.75 68.9765 1005.42 68.7658 1005.08 68.5641C1003.9 67.8424 1002.71 67.1432 1001.54 66.4843C1001.35 66.3767 1001.16 66.2781 1000.96 66.175C999.943 65.6147 998.931 65.0768 997.923 64.5613C997.564 64.3775 997.2 64.1937 996.841 64.0144C995.742 63.4676 994.647 62.9386 993.564 62.4456C993.363 62.3559 993.169 62.2663 992.967 62.1811C991.972 61.7329 990.987 61.307 990.011 60.9036C989.632 60.7467 989.26 60.5943 988.885 60.4419C987.98 60.0788 987.087 59.7292 986.205 59.402C985.921 59.2944 985.632 59.1868 985.348 59.0837C984.391 58.7341 983.447 58.4114 982.514 58.0976C982.123 57.9676 981.736 57.8421 981.344 57.7166C980.609 57.479 979.886 57.2594 979.167 57.0442C978.851 56.9501 978.531 56.847 978.218 56.7573C977.444 56.5332 976.677 56.3225 975.926 56.1208C975.938 56.1253 975.95 56.1343 975.962 56.1387C964.516 53.1041 956.008 52.8486 953.601 52.8486L948.226 52.8486L948.262 52.3645C948.933 43.6013 942.725 36.7207 935.646 36.7207C934.046 36.7207 932.402 37.0703 930.782 37.8323C923.905 16.2851 902.639 0.574102 877.444 0.574103L298.247 0.574129C273.053 0.57413 251.787 16.2852 244.906 37.8324C243.286 37.0704 241.642 36.7207 240.041 36.7207C232.963 36.7207 226.754 43.5968 227.426 52.3646L227.462 52.8486L222.087 52.8486C219.68 52.8486 211.171 53.1086 199.726 56.1388C199.738 56.1343 199.75 56.1253 199.761 56.1209C199.011 56.3181 198.244 56.5332 197.469 56.7574C197.157 56.847 196.837 56.9456 196.521 57.0398C195.805 57.2549 195.078 57.4746 194.343 57.7121C193.956 57.8376 193.565 57.9631 193.173 58.0931C192.241 58.4024 191.3 58.7296 190.344 59.0793C190.059 59.1824 189.775 59.29 189.486 59.3975C188.601 59.7292 187.708 60.0744 186.803 60.4419C186.427 60.5943 186.052 60.7468 185.676 60.9036C184.7 61.3115 183.716 61.7329 182.72 62.1811C182.523 62.2708 182.325 62.356 182.123 62.4456C181.04 62.9387 179.95 63.4676 178.847 64.0145C178.487 64.1938 178.128 64.3775 177.764 64.5613C176.76 65.0768 175.749 65.6102 174.733 66.1705C174.539 66.2781 174.346 66.3767 174.152 66.4843C172.978 67.1432 171.797 67.838 170.611 68.5597C170.275 68.7659 169.935 68.9766 169.599 69.1872C168.58 69.8237 167.56 70.4782 166.54 71.164C166.315 71.3164 166.09 71.4599 165.861 71.6123C164.655 72.4326 163.45 73.2932 162.244 74.1852C161.932 74.4138 161.624 74.6559 161.312 74.8889C160.292 75.6599 159.272 76.4578 158.253 77.2826C158.004 77.4843 157.755 77.677 157.506 77.8832C156.297 78.8828 155.087 79.9227 153.886 81.003C153.605 81.254 153.325 81.5185 153.04 81.7785C152.028 82.7019 151.024 83.6566 150.021 84.6428C149.756 84.9028 149.491 85.1583 149.226 85.4227C148.033 86.6151 146.847 87.8522 145.669 89.1387C145.42 89.4076 145.179 89.69 144.93 89.9635C143.942 91.0617 142.958 92.1957 141.982 93.3567C141.709 93.6839 141.433 94.0066 141.16 94.3383C140.006 95.7458 138.864 97.1937 137.734 98.6998C137.532 98.9687 137.334 99.2511 137.133 99.5201C136.169 100.824 135.216 102.169 134.272 103.55C133.999 103.949 133.726 104.339 133.457 104.742C132.363 106.383 131.28 108.059 130.221 109.803C130.074 110.045 129.932 110.3 129.782 110.542C128.853 112.089 127.94 113.689 127.039 115.321C126.778 115.796 126.518 116.271 126.257 116.755C125.245 118.642 124.245 120.57 123.277 122.569C123.194 122.739 123.115 122.919 123.036 123.089C122.143 124.945 121.277 126.863 120.424 128.817C120.186 129.364 119.949 129.916 119.712 130.472C118.799 132.632 117.902 134.833 117.041 137.115C103.73 172.454 85.5938 195.476 68.4062 210.407C85.5938 225.338 103.73 248.36 117.052 283.705ZM222.091 56.7305L227.466 56.7305C228.426 56.7305 229.343 56.2733 229.995 55.4709C230.643 54.6685 230.967 53.5927 230.884 52.5035L230.849 52.0149C230.619 49.0475 231.461 46.2191 233.216 44.0496C234.986 41.8576 237.476 40.6026 240.045 40.6026C241.25 40.6026 242.444 40.876 243.598 41.4184C244.017 41.6156 244.463 41.7142 244.91 41.7142C245.384 41.7142 245.855 41.6022 246.297 41.3825C247.155 40.9522 247.819 40.1454 248.139 39.1458C254.66 18.7192 275.266 4.45596 298.251 4.45596L877.456 4.45593C900.441 4.45593 921.048 18.7236 927.568 39.1457C927.889 40.1453 928.553 40.9522 929.41 41.3825C929.853 41.6021 930.323 41.7142 930.797 41.7142C931.244 41.7142 931.69 41.6155 932.109 41.4183C933.263 40.8759 934.457 40.6025 935.662 40.6025C938.231 40.6025 940.717 41.8576 942.492 44.0495C944.246 46.219 945.084 49.0475 944.859 52.0149L944.823 52.499C944.74 53.5837 945.064 54.664 945.713 55.4664C946.361 56.2687 947.281 56.7259 948.242 56.7259L953.617 56.7259C957.166 56.7259 974.397 57.2997 994.584 67.1298C1011.68 79.7434 1029.17 100.479 1041.08 134.685C1053.79 171.199 1071.11 194.983 1087.52 210.407C1071.11 225.831 1053.79 249.615 1041.08 286.13C1029.17 320.34 1011.68 341.071 994.584 353.685C974.397 363.51 957.17 364.089 953.621 364.089L948.23 364.089C947.27 364.089 946.349 364.546 945.701 365.348C945.053 366.151 944.728 367.231 944.811 368.316L944.863 368.992C945.088 371.96 944.25 374.788 942.495 376.958C940.725 379.15 938.235 380.405 935.666 380.405C934.461 380.405 933.267 380.131 932.07 379.567C931.647 379.369 931.2 379.271 930.754 379.271C930.284 379.271 929.817 379.378 929.375 379.598C928.517 380.024 927.853 380.826 927.529 381.821C920.957 402.154 900.37 416.354 877.46 416.354L298.247 416.354C275.337 416.354 254.747 402.154 248.178 381.821C247.858 380.826 247.167 380.033 246.313 379.607C245.878 379.392 245.412 379.284 244.942 379.284C244.471 379.284 244.025 379.387 243.598 379.584C242.444 380.127 241.25 380.4 240.045 380.4C237.476 380.4 234.986 379.141 233.216 376.953C231.461 374.784 230.623 371.955 230.849 368.988L230.9 368.311C230.983 367.226 230.659 366.146 230.011 365.344C229.363 364.541 228.442 364.084 227.481 364.084L222.091 364.084C218.542 364.084 201.315 363.51 181.127 353.68C164.035 341.067 146.539 320.331 134.631 286.125C121.917 249.611 104.603 225.827 88.1943 210.403C104.599 194.979 121.913 171.195 134.631 134.681C146.543 100.475 164.035 79.739 181.127 67.1253C201.315 57.2953 218.546 56.7215 222.095 56.7215L222.091 56.7305Z" fill="url(#paint2_linear_11054_4819)"/>
<path d="M412.139 183.335C416.707 183.335 420.096 184.176 422.308 185.859C424.567 187.541 425.697 189.777 425.697 192.566C425.697 195.018 424.976 197.229 423.534 199.2C422.091 201.124 420.24 202.782 417.981 204.177C415.721 205.523 413.365 206.581 410.913 207.35C415.336 208.071 418.413 209.513 420.144 211.677C421.875 213.792 422.74 216.268 422.74 219.105C422.74 221.701 422.115 223.961 420.865 225.884C419.615 227.759 417.957 229.322 415.889 230.572C413.822 231.822 411.514 232.759 408.966 233.384C406.418 234.009 403.846 234.322 401.249 234.322C399.422 234.322 397.523 234.298 395.552 234.25C393.581 234.153 391.345 234.105 388.845 234.105C387.739 234.105 386.634 234.129 385.528 234.178C384.422 234.178 383.388 234.202 382.427 234.25C381.513 234.25 380.72 234.274 380.047 234.322L380.335 232.879C381.97 232.783 383.244 232.591 384.158 232.302C385.071 232.014 385.792 231.437 386.321 230.572C386.85 229.706 387.331 228.408 387.763 226.677L397.283 190.907C397.62 189.465 397.812 188.311 397.86 187.445C397.908 186.532 397.571 185.859 396.85 185.426C396.177 184.945 394.903 184.705 393.028 184.705L393.389 183.263C394.062 183.311 394.855 183.359 395.769 183.407C396.682 183.407 397.668 183.431 398.725 183.479C399.831 183.479 400.913 183.479 401.971 183.479C403.653 183.479 405.312 183.455 406.947 183.407C408.629 183.359 410.36 183.335 412.139 183.335ZM398.437 208.432L398.725 207.206H404.351C407.283 207.206 409.807 206.556 411.923 205.258C414.038 203.912 415.673 202.157 416.827 199.994C417.981 197.83 418.558 195.522 418.558 193.071C418.558 190.234 417.933 188.142 416.683 186.796C415.481 185.402 413.509 184.705 410.769 184.705C408.654 184.705 407.163 185.041 406.298 185.715C405.432 186.34 404.735 187.71 404.206 189.825L394.47 226.677C394.086 228.12 393.869 229.298 393.821 230.211C393.821 231.076 394.134 231.701 394.759 232.086C395.384 232.471 396.514 232.663 398.148 232.663C402.379 232.663 405.745 232.086 408.245 230.932C410.793 229.778 412.644 228.12 413.798 225.956C414.952 223.745 415.529 221.1 415.529 218.023C415.529 216.004 415.168 214.297 414.447 212.903C413.726 211.46 412.596 210.355 411.057 209.585C409.567 208.816 407.62 208.432 405.216 208.432H398.437Z" fill="white"/>
<path d="M434.051 217.951C436.744 217.038 439.171 216.148 441.335 215.283C443.547 214.369 445.301 213.408 446.6 212.398C448.33 211.004 449.701 209.321 450.71 207.35C451.72 205.379 452.225 203.215 452.225 200.859C452.225 199.465 452.129 198.575 451.936 198.191C451.744 197.806 451.455 197.614 451.071 197.614C449.869 197.614 448.571 198.143 447.177 199.2C445.782 200.258 444.412 201.725 443.066 203.6C441.72 205.427 440.47 207.518 439.316 209.874C438.21 212.23 437.32 214.754 436.647 217.446C435.974 220.091 435.638 222.735 435.638 225.379C435.638 227.831 436.094 229.61 437.008 230.716C437.921 231.774 439.123 232.302 440.614 232.302C442.345 232.302 444.172 231.774 446.095 230.716C448.018 229.658 449.893 227.783 451.72 225.091L452.874 225.668C451.96 227.254 450.758 228.793 449.268 230.283C447.777 231.774 446.095 233 444.22 233.961C442.393 234.875 440.446 235.331 438.378 235.331C436.455 235.331 434.772 234.947 433.33 234.178C431.888 233.408 430.782 232.278 430.013 230.788C429.243 229.249 428.859 227.374 428.859 225.163C428.859 223.095 429.243 220.788 430.013 218.24C430.782 215.643 431.864 213.071 433.258 210.523C434.7 207.927 436.407 205.547 438.378 203.383C440.349 201.22 442.537 199.489 444.941 198.191C447.345 196.893 449.917 196.244 452.657 196.244C454.148 196.244 455.398 196.652 456.408 197.47C457.465 198.239 457.994 199.417 457.994 201.003C457.994 202.927 457.417 204.73 456.263 206.412C455.158 208.047 453.667 209.561 451.792 210.956C449.965 212.302 447.97 213.504 445.806 214.562C443.643 215.619 441.527 216.533 439.46 217.302C437.393 218.071 435.566 218.696 433.979 219.177L434.051 217.951Z" fill="white"/>
<path d="M464.536 234.322H458.262L472.541 186.219C473.022 184.585 472.95 183.383 472.325 182.613C471.748 181.844 470.281 181.46 467.926 181.46L468.358 179.945C471.003 179.897 473.382 179.633 475.498 179.152C477.613 178.623 479.561 177.902 481.339 176.988L464.536 234.322ZM466.555 223.648C468.382 218.6 470.113 214.321 471.748 210.811C473.431 207.302 475.089 204.489 476.724 202.374C478.359 200.21 480.041 198.648 481.772 197.686C483.503 196.724 485.306 196.244 487.181 196.244C489.441 196.244 490.979 196.797 491.796 197.902C492.662 198.96 493.046 200.33 492.95 202.013C492.854 203.696 492.518 205.403 491.941 207.133L484.945 228.192C484.561 229.442 484.392 230.5 484.44 231.365C484.489 232.23 485.041 232.663 486.099 232.663C487.013 232.663 487.902 232.158 488.768 231.149C489.681 230.139 490.643 228.192 491.652 225.307L492.59 222.639H493.96L492.157 227.903C491.484 229.923 490.643 231.461 489.633 232.519C488.671 233.577 487.638 234.298 486.532 234.682C485.474 235.115 484.44 235.331 483.431 235.331C481.508 235.331 480.161 234.899 479.392 234.033C478.623 233.168 478.286 231.966 478.383 230.427C478.527 228.889 478.911 227.158 479.536 225.235L486.388 204.609C486.628 203.888 486.844 203.047 487.037 202.085C487.229 201.124 487.181 200.306 486.892 199.633C486.652 198.912 485.955 198.551 484.801 198.551C483.599 198.551 482.301 199.104 480.907 200.21C479.56 201.268 478.166 202.806 476.724 204.826C475.282 206.845 473.863 209.273 472.469 212.11C471.075 214.946 469.728 218.119 468.43 221.629C467.18 225.091 466.002 228.841 464.897 232.879L466.555 223.648Z" fill="white"/>
<path d="M511.206 184.128C511.446 182.878 512.071 181.796 513.081 180.883C514.138 179.969 515.268 179.512 516.47 179.512C517.72 179.512 518.682 179.969 519.355 180.883C520.076 181.796 520.317 182.878 520.076 184.128C519.836 185.378 519.187 186.46 518.129 187.373C517.119 188.287 515.989 188.743 514.739 188.743C513.537 188.743 512.576 188.287 511.855 187.373C511.182 186.46 510.965 185.378 511.206 184.128ZM508.97 203.383C509.98 200.402 509.643 198.912 507.96 198.912C506.855 198.912 505.869 199.513 505.004 200.715C504.138 201.917 503.225 203.768 502.263 206.268L501.253 208.936H499.883L501.758 203.672C502.479 201.652 503.345 200.114 504.354 199.056C505.364 197.999 506.422 197.277 507.528 196.893C508.682 196.46 509.739 196.244 510.701 196.244C512.239 196.244 513.369 196.556 514.09 197.181C514.812 197.806 515.244 198.624 515.388 199.633C515.533 200.643 515.485 201.749 515.244 202.951C515.004 204.104 514.691 205.234 514.307 206.34L506.59 228.192C506.109 229.586 505.941 230.692 506.085 231.509C506.278 232.278 506.831 232.663 507.744 232.663C508.706 232.663 509.619 232.134 510.484 231.076C511.35 230.019 512.311 228.096 513.369 225.307L514.379 222.639H515.749L513.874 227.903C513.201 229.778 512.384 231.269 511.422 232.375C510.46 233.432 509.427 234.178 508.321 234.61C507.215 235.091 506.109 235.331 505.004 235.331C502.936 235.331 501.542 234.851 500.821 233.889C500.1 232.927 499.835 231.677 500.027 230.139C500.22 228.6 500.628 226.966 501.253 225.235L508.97 203.383Z" fill="white"/>
<path d="M528.136 234.322H521.862L530.516 203.383C530.708 202.806 530.852 202.181 530.948 201.508C531.093 200.787 531.069 200.186 530.876 199.705C530.684 199.176 530.203 198.912 529.434 198.912C528.376 198.912 527.439 199.441 526.621 200.499C525.804 201.508 524.891 203.431 523.881 206.268L522.943 208.936H521.573L523.376 203.672C524.434 200.643 525.732 198.648 527.27 197.686C528.857 196.724 530.42 196.244 531.958 196.244C533.4 196.244 534.434 196.556 535.059 197.181C535.732 197.806 536.093 198.624 536.141 199.633C536.237 200.595 536.165 201.677 535.925 202.878C535.732 204.032 535.492 205.186 535.203 206.34L528.136 234.322ZM531.453 219.321C533.136 214.994 534.771 211.364 536.357 208.432C537.944 205.499 539.506 203.143 541.045 201.364C542.583 199.537 544.146 198.239 545.733 197.47C547.367 196.652 549.05 196.244 550.781 196.244C553.04 196.244 554.579 196.797 555.396 197.902C556.262 198.96 556.646 200.33 556.55 202.013C556.454 203.648 556.117 205.355 555.541 207.133L548.545 228.192C548.112 229.49 547.92 230.572 547.968 231.437C548.064 232.254 548.641 232.663 549.699 232.663C550.612 232.663 551.502 232.158 552.367 231.149C553.281 230.139 554.242 228.192 555.252 225.307L556.19 222.639H557.56L555.757 227.903C555.084 229.923 554.242 231.461 553.233 232.519C552.271 233.577 551.237 234.298 550.132 234.682C549.074 235.115 548.04 235.331 547.031 235.331C545.877 235.331 544.915 235.139 544.146 234.754C543.425 234.37 542.872 233.865 542.487 233.24C541.958 232.375 541.79 231.245 541.982 229.85C542.175 228.456 542.559 226.918 543.136 225.235L549.987 204.609C550.228 203.936 550.42 203.143 550.564 202.229C550.757 201.268 550.733 200.426 550.492 199.705C550.252 198.936 549.555 198.551 548.401 198.551C547.247 198.551 546.021 199.056 544.723 200.066C543.425 201.076 542.079 202.518 540.684 204.393C539.29 206.22 537.92 208.432 536.574 211.028C535.227 213.576 533.929 216.413 532.679 219.538C531.477 222.615 530.371 225.908 529.362 229.418L531.453 219.321Z" fill="white"/>
<path d="M587.783 228.192C587.446 229.298 587.302 230.331 587.35 231.293C587.446 232.206 588.023 232.663 589.081 232.663C590.042 232.663 590.932 232.134 591.749 231.076C592.567 229.971 593.432 228.048 594.345 225.307L595.211 222.639H596.581L594.922 227.903C594.345 229.826 593.576 231.341 592.615 232.447C591.653 233.504 590.643 234.25 589.586 234.682C588.528 235.115 587.518 235.331 586.557 235.331C583.672 235.331 582.158 233.961 582.013 231.221C581.965 230.451 582.013 229.562 582.158 228.552C582.35 227.543 582.614 226.437 582.951 225.235L593.336 186.219C593.768 184.585 593.696 183.383 593.119 182.613C592.542 181.844 591.076 181.46 588.72 181.46L589.153 179.945C591.797 179.897 594.129 179.633 596.148 179.152C598.168 178.623 600.091 177.902 601.918 176.988L587.783 228.192ZM571.628 233.024C572.83 233.024 574.177 232.327 575.667 230.932C577.205 229.49 578.744 227.567 580.282 225.163C581.869 222.711 583.311 219.946 584.61 216.869C585.956 213.744 587.013 210.523 587.783 207.206L586.701 214.994C584.826 219.946 582.951 223.913 581.076 226.894C579.249 229.875 577.374 232.038 575.451 233.384C573.576 234.682 571.604 235.331 569.537 235.331C568.047 235.331 566.724 234.995 565.57 234.322C564.465 233.601 563.599 232.543 562.974 231.149C562.349 229.754 562.037 227.975 562.037 225.812C562.037 223.504 562.397 221.028 563.118 218.384C563.888 215.691 564.97 213.047 566.364 210.451C567.758 207.855 569.417 205.499 571.34 203.383C573.311 201.22 575.475 199.489 577.83 198.191C580.186 196.893 582.686 196.244 585.331 196.244C586.437 196.244 587.47 196.676 588.432 197.542C589.393 198.359 589.922 199.609 590.018 201.292L589.441 202.734C589.249 201.003 588.768 199.777 587.999 199.056C587.23 198.287 586.364 197.902 585.403 197.902C583.576 197.902 581.797 198.527 580.066 199.777C578.383 201.027 576.845 202.686 575.451 204.754C574.056 206.821 572.83 209.129 571.773 211.677C570.715 214.177 569.898 216.749 569.321 219.393C568.744 221.99 568.455 224.442 568.455 226.749C568.455 228.865 568.72 230.451 569.248 231.509C569.777 232.519 570.571 233.024 571.628 233.024Z" fill="white"/>
<path d="M632.923 209.369L633.355 207.927H645.832L645.399 209.369H632.923ZM640.279 207.927C641.865 207.927 643.163 207.614 644.173 206.989C645.183 206.316 646 205.475 646.625 204.465C647.298 203.455 647.851 202.422 648.284 201.364C648.716 200.258 649.125 199.273 649.51 198.407H651.168C650.255 201.148 649.606 203.239 649.221 204.681C648.885 206.124 648.548 207.446 648.212 208.648C648.019 209.417 647.803 210.259 647.563 211.172C647.37 212.037 647.13 213.095 646.841 214.345C646.601 215.547 646.288 217.062 645.904 218.889H644.245C644.389 217.735 644.534 216.605 644.678 215.499C644.822 214.345 644.798 213.312 644.606 212.398C644.462 211.485 644.029 210.763 643.308 210.234C642.586 209.658 641.433 209.369 639.846 209.369L640.279 207.927ZM659.39 196.244C659.871 193.407 660.063 191.171 659.967 189.537C659.871 187.854 659.27 186.676 658.164 186.003C657.106 185.282 655.303 184.921 652.755 184.921H647.49C645.856 184.921 644.582 185.065 643.668 185.354C642.803 185.594 642.106 186.147 641.577 187.013C641.048 187.83 640.543 189.128 640.062 190.907L630.471 226.677C629.99 228.408 629.774 229.706 629.822 230.572C629.918 231.437 630.35 232.014 631.12 232.302C631.889 232.543 633.091 232.663 634.726 232.663H639.99C643.019 232.663 645.423 232.254 647.202 231.437C648.981 230.62 650.471 229.298 651.673 227.471C652.875 225.596 654.053 223.071 655.207 219.898H656.866C656.625 220.523 656.361 221.293 656.072 222.206C655.784 223.119 655.52 224.081 655.279 225.091C655.039 226.004 654.726 227.326 654.342 229.057C653.957 230.74 653.62 232.495 653.332 234.322C650.88 234.226 648.115 234.178 645.038 234.178C641.961 234.129 639.221 234.105 636.817 234.105C635.759 234.105 634.389 234.105 632.706 234.105C631.072 234.105 629.293 234.129 627.37 234.178C625.446 234.178 623.499 234.202 621.528 234.25C619.557 234.25 617.706 234.274 615.975 234.322L616.336 232.879C617.97 232.783 619.244 232.591 620.158 232.302C621.071 232.014 621.768 231.437 622.249 230.572C622.778 229.706 623.283 228.408 623.764 226.677L633.355 190.907C633.836 189.128 634.028 187.83 633.932 187.013C633.884 186.147 633.476 185.57 632.706 185.282C631.985 184.945 630.807 184.753 629.173 184.705L629.533 183.263C631.312 183.311 633.187 183.359 635.158 183.407C637.13 183.407 639.077 183.431 641 183.479C642.923 183.479 644.702 183.479 646.337 183.479C648.019 183.479 649.39 183.479 650.447 183.479C652.563 183.479 654.943 183.479 657.587 183.479C660.279 183.431 662.683 183.359 664.799 183.263C664.174 184.945 663.621 186.58 663.14 188.167C662.659 189.753 662.299 190.955 662.058 191.772C661.818 192.638 661.601 193.479 661.409 194.297C661.265 195.066 661.145 195.715 661.049 196.244H659.39Z" fill="white"/>
<path d="M696.7 206.989C695.354 206.316 694.104 205.33 692.95 204.032C691.796 202.734 691.291 201.124 691.435 199.2C691.532 198.095 691.916 197.325 692.589 196.893C693.31 196.412 693.984 196.172 694.609 196.172C696.291 196.172 697.445 197.133 698.07 199.056C698.695 200.931 698.839 203.359 698.503 206.34C698.166 209.177 697.589 211.989 696.772 214.778C695.955 217.566 694.897 220.187 693.599 222.639C692.349 225.091 690.834 227.278 689.056 229.201C687.277 231.125 685.281 232.639 683.07 233.745C680.858 234.803 678.406 235.331 675.714 235.331C673.55 235.331 671.843 234.899 670.593 234.033C669.391 233.12 668.55 231.99 668.069 230.644C667.589 229.249 667.396 227.831 667.492 226.389C667.685 223.696 668.502 220.812 669.944 217.735C671.435 214.61 673.382 211.46 675.786 208.287C678.238 205.066 681.05 201.965 684.224 198.984C683.454 199.273 682.637 199.681 681.772 200.21C680.906 200.691 680.065 201.196 679.248 201.725C678.43 202.205 677.637 202.638 676.868 203.023C676.098 203.359 675.377 203.528 674.704 203.528C673.791 203.528 672.997 203.239 672.324 202.662C671.699 202.037 670.978 201.725 670.161 201.725C669.391 201.725 668.742 202.061 668.214 202.734C667.733 203.359 667.204 204.513 666.627 206.196L665.834 208.864H664.463L666.05 203.6C666.867 200.715 667.877 198.768 669.079 197.758C670.329 196.749 671.579 196.244 672.829 196.244C673.743 196.244 674.512 196.484 675.137 196.965C675.762 197.446 676.387 197.926 677.012 198.407C677.685 198.84 678.478 199.056 679.392 199.056C680.546 199.056 681.627 198.888 682.637 198.551C683.695 198.167 684.632 197.59 685.45 196.821L686.171 195.45L687.685 196.172C685.762 198.527 684.031 200.883 682.493 203.239C681.002 205.595 679.704 207.975 678.598 210.379C677.541 212.783 676.675 215.211 676.002 217.663C675.377 220.115 674.945 222.615 674.704 225.163C674.512 227.951 674.704 229.947 675.281 231.149C675.906 232.351 676.747 232.952 677.805 232.952C680.065 232.952 682.156 232.351 684.079 231.149C686.003 229.947 687.709 228.36 689.2 226.389C690.738 224.418 692.036 222.278 693.094 219.97C694.2 217.615 695.041 215.307 695.618 213.047C696.243 210.787 696.604 208.768 696.7 206.989Z" fill="white"/>
<path d="M707.027 217.951C709.72 217.038 712.148 216.148 714.311 215.283C716.523 214.369 718.278 213.408 719.576 212.398C721.307 211.004 722.677 209.321 723.687 207.35C724.696 205.379 725.201 203.215 725.201 200.859C725.201 199.465 725.105 198.575 724.913 198.191C724.72 197.806 724.432 197.614 724.047 197.614C722.845 197.614 721.547 198.143 720.153 199.2C718.759 200.258 717.388 201.725 716.042 203.6C714.696 205.427 713.446 207.518 712.292 209.874C711.186 212.23 710.297 214.754 709.624 217.446C708.951 220.091 708.614 222.735 708.614 225.379C708.614 227.831 709.071 229.61 709.984 230.716C710.898 231.774 712.1 232.302 713.59 232.302C715.321 232.302 717.148 231.774 719.071 230.716C720.994 229.658 722.869 227.783 724.696 225.091L725.85 225.668C724.937 227.254 723.735 228.793 722.244 230.283C720.754 231.774 719.071 233 717.196 233.961C715.369 234.875 713.422 235.331 711.355 235.331C709.431 235.331 707.749 234.947 706.306 234.178C704.864 233.408 703.758 232.278 702.989 230.788C702.22 229.249 701.835 227.374 701.835 225.163C701.835 223.095 702.22 220.788 702.989 218.24C703.758 215.643 704.84 213.071 706.234 210.523C707.677 207.927 709.383 205.547 711.355 203.383C713.326 201.22 715.513 199.489 717.917 198.191C720.321 196.893 722.893 196.244 725.634 196.244C727.124 196.244 728.374 196.652 729.384 197.47C730.442 198.239 730.97 199.417 730.97 201.003C730.97 202.927 730.394 204.73 729.24 206.412C728.134 208.047 726.643 209.561 724.768 210.956C722.941 212.302 720.946 213.504 718.783 214.562C716.619 215.619 714.504 216.533 712.436 217.302C710.369 218.071 708.542 218.696 706.955 219.177L707.027 217.951Z" fill="white"/>
<path d="M740.613 234.322H734.339L742.993 203.383C743.474 201.749 743.618 200.595 743.426 199.922C743.282 199.249 742.801 198.912 741.984 198.912C740.926 198.912 739.964 199.465 739.099 200.571C738.233 201.677 737.32 203.576 736.358 206.268L735.421 208.936H734.051L735.854 203.672C736.575 201.652 737.416 200.114 738.378 199.056C739.387 197.999 740.421 197.277 741.479 196.893C742.585 196.46 743.618 196.244 744.58 196.244C746.022 196.244 747.032 196.556 747.609 197.181C748.234 197.806 748.57 198.624 748.618 199.633C748.715 200.643 748.642 201.749 748.402 202.951C748.21 204.104 747.969 205.234 747.681 206.34L740.613 234.322ZM759.148 198.047C758.042 198.047 756.888 198.575 755.686 199.633C754.532 200.643 753.33 202.133 752.08 204.104C750.878 206.028 749.652 208.359 748.402 211.1C747.2 213.792 745.998 216.797 744.796 220.115C743.642 223.432 742.512 227.014 741.407 230.86L743.21 221.629C744.796 216.917 746.263 212.951 747.609 209.73C749.003 206.508 750.373 203.912 751.719 201.941C753.066 199.922 754.436 198.479 755.83 197.614C757.273 196.7 758.787 196.244 760.374 196.244C761.72 196.244 762.753 196.628 763.475 197.398C764.244 198.167 764.629 199.152 764.629 200.354C764.629 201.316 764.388 202.205 763.907 203.023C763.427 203.792 762.802 204.417 762.032 204.898C761.311 205.33 760.494 205.547 759.58 205.547C758.763 205.547 758.066 205.33 757.489 204.898C756.96 204.417 756.696 203.768 756.696 202.951C756.696 202.181 756.84 201.508 757.128 200.931C757.417 200.306 757.801 199.777 758.282 199.345C758.763 198.912 759.316 198.575 759.941 198.335C759.845 198.239 759.725 198.167 759.58 198.119C759.484 198.071 759.34 198.047 759.148 198.047Z" fill="white"/>
<path d="M783.003 231.437L778.171 236.702L772.69 203.528C772.45 202.037 772.161 201.003 771.825 200.426C771.488 199.85 771.007 199.561 770.382 199.561C769.853 199.561 769.252 199.994 768.579 200.859C767.906 201.677 767.089 203.455 766.127 206.196L765.19 208.864H763.819L765.622 203.6C766.632 200.667 767.882 198.72 769.373 197.758C770.863 196.749 772.377 196.244 773.916 196.244C775.406 196.244 776.56 196.724 777.378 197.686C778.195 198.6 778.772 200.33 779.108 202.878L783.003 231.437ZM767.209 244.49C769.276 243.385 771.464 241.87 773.772 239.947C776.128 238.072 778.556 235.524 781.056 232.302C783.892 228.697 786.464 224.658 788.772 220.187C791.128 215.667 792.763 211.124 793.676 206.556C792.907 206.124 792.066 205.595 791.152 204.97C790.287 204.297 789.565 203.528 788.989 202.662C788.412 201.749 788.147 200.739 788.195 199.633C788.291 198.527 788.676 197.686 789.349 197.109C790.022 196.532 790.864 196.244 791.873 196.244C793.171 196.244 794.109 196.749 794.686 197.758C795.311 198.72 795.623 200.162 795.623 202.085C795.623 204.537 795.215 207.182 794.397 210.018C793.58 212.807 792.474 215.643 791.08 218.528C789.734 221.413 788.219 224.201 786.537 226.894C784.854 229.538 783.147 231.942 781.416 234.105C780.647 235.067 779.589 236.269 778.243 237.711C776.897 239.154 775.286 240.62 773.411 242.11C771.584 243.649 769.517 244.971 767.209 246.077C765.767 246.75 764.517 247.207 763.459 247.447C762.449 247.736 761.608 247.88 760.935 247.88C759.973 247.88 759.132 247.615 758.411 247.087C757.689 246.606 757.329 245.885 757.329 244.923C757.329 243.865 757.738 243.048 758.555 242.471C759.324 241.942 760.214 241.678 761.223 241.678C762.329 241.678 763.363 241.966 764.324 242.543C765.334 243.12 766.296 243.769 767.209 244.49Z" fill="white"/>
<path d="M327.219 351.098C331.273 351.098 334.314 350.511 336.341 349.337C338.368 348.164 339.382 346.243 339.382 343.576C339.382 341.762 338.902 340.322 337.941 339.255C336.981 338.188 335.274 337.121 332.82 336.054L315.856 328.212C309.561 325.331 304.707 321.49 301.292 316.689C297.878 311.888 296.171 304.9 296.171 295.724C296.171 283.988 299.212 275.239 305.293 269.478C311.482 263.61 321.671 260.622 335.861 260.516C341.729 260.516 347.064 260.782 351.865 261.316C356.666 261.849 360.507 262.436 363.388 263.076C366.268 263.61 367.709 263.876 367.709 263.876L364.508 289.643C364.508 289.643 363.174 289.483 360.507 289.163C357.946 288.843 354.745 288.576 350.905 288.362C347.064 288.042 343.329 287.882 339.702 287.882C335.861 287.882 332.927 288.469 330.9 289.643C328.979 290.71 328.019 292.79 328.019 295.884C328.019 297.591 328.766 299.032 330.259 300.205C331.753 301.272 333.834 302.393 336.501 303.566L350.104 309.488C357.359 312.688 362.641 316.689 365.948 321.49C369.256 326.185 370.909 332.907 370.909 341.655C370.909 353.498 367.815 362.621 361.627 369.022C355.439 375.424 345.25 378.678 331.06 378.784C324.018 378.784 317.456 378.304 311.375 377.344C305.293 376.491 299.905 375.477 295.211 374.303L298.412 348.537C298.412 348.537 299.692 348.75 302.253 349.177C304.92 349.604 308.441 350.031 312.815 350.458C317.19 350.884 321.991 351.098 327.219 351.098Z" fill="url(#paint3_linear_11054_4819)"/>
<path d="M382.22 377.184V283.881L373.418 261.956H419.509C429.111 261.956 437.06 263.29 443.355 265.957C449.649 268.518 454.344 272.892 457.438 279.08C460.532 285.268 462.079 293.697 462.079 304.366C462.079 319.09 458.558 329.706 451.517 336.214C444.475 342.722 433.806 345.976 419.509 345.976H413.427V377.184H382.22ZM413.427 323.091C418.549 323.091 422.336 321.704 424.79 318.93C427.351 316.156 428.631 311.195 428.631 304.046C428.631 298.605 428.151 294.497 427.191 291.723C426.337 288.949 424.79 287.082 422.55 286.122C420.416 285.055 417.375 284.521 413.427 284.521V323.091Z" fill="url(#paint4_linear_11054_4819)"/>
<path d="M491.351 361.66L488.311 377.184H454.862L477.908 276.359L474.227 260.676H522.559L547.685 377.184H514.557L511.516 361.66H491.351ZM494.552 336.854H508.155L501.434 294.924L494.552 336.854Z" fill="url(#paint5_linear_11054_4819)"/>
<path d="M592.348 261.956C601.737 261.956 609.579 263.183 615.874 265.637C622.169 267.984 626.864 271.985 629.958 277.64C633.158 283.188 634.759 290.816 634.759 300.525C634.759 308.634 633.532 315.302 631.078 320.53C628.624 325.652 624.89 329.759 619.875 332.853L639.4 377.184H604.671L592.028 339.735H586.907V377.184H555.699V283.881L546.897 261.956H592.348ZM586.907 318.29C591.815 318.29 595.443 317.063 597.79 314.609C600.137 312.155 601.311 307.834 601.311 301.646C601.311 296.738 600.884 293.11 600.03 290.763C599.177 288.309 597.683 286.655 595.549 285.802C593.522 284.948 590.641 284.521 586.907 284.521V318.29Z" fill="url(#paint6_linear_11054_4819)"/>
<path d="M647.403 261.956H678.611V308.207L695.735 261.956H729.343L707.898 317.81L728.223 377.184H694.615L678.611 328.372V377.184H647.403V261.956Z" fill="url(#paint7_linear_11054_4819)"/>
<path d="M737.894 261.956H769.102V349.977H804.47L799.509 377.184H737.894V261.956Z" fill="url(#paint8_linear_11054_4819)"/>
<path d="M802.897 261.956H879.556L874.755 287.562H842.907V305.167H872.834L868.033 330.773H842.907V351.578H880.676L875.875 377.184H811.699V283.881L802.897 261.956Z" fill="url(#paint9_linear_11054_4819)"/>
<path d="M327.219 351.098C331.273 351.098 334.314 350.511 336.341 349.337C338.368 348.164 339.382 346.243 339.382 343.576C339.382 341.762 338.902 340.322 337.941 339.255C336.981 338.188 335.274 337.121 332.82 336.054L315.856 328.212C309.561 325.331 304.707 321.49 301.292 316.689C297.878 311.888 296.171 304.9 296.171 295.724C296.171 283.988 299.212 275.239 305.293 269.478C311.482 263.61 321.671 260.622 335.861 260.516C341.729 260.516 347.064 260.782 351.865 261.316C356.666 261.849 360.507 262.436 363.388 263.076C366.268 263.61 367.709 263.876 367.709 263.876L364.508 289.643C364.508 289.643 363.174 289.483 360.507 289.163C357.946 288.843 354.745 288.576 350.905 288.362C347.064 288.042 343.329 287.882 339.702 287.882C335.861 287.882 332.927 288.469 330.9 289.643C328.979 290.71 328.019 292.79 328.019 295.884C328.019 297.591 328.766 299.032 330.259 300.205C331.753 301.272 333.834 302.393 336.501 303.566L350.104 309.488C357.359 312.688 362.641 316.689 365.948 321.49C369.256 326.185 370.909 332.907 370.909 341.655C370.909 353.498 367.815 362.621 361.627 369.022C355.439 375.424 345.25 378.678 331.06 378.784C324.018 378.784 317.456 378.304 311.375 377.344C305.293 376.491 299.905 375.477 295.211 374.303L298.412 348.537C298.412 348.537 299.692 348.75 302.253 349.177C304.92 349.604 308.441 350.031 312.815 350.458C317.19 350.884 321.991 351.098 327.219 351.098Z" stroke="url(#paint10_linear_11054_4819)"/>
<path d="M382.22 377.184V283.881L373.418 261.956H419.509C429.111 261.956 437.06 263.29 443.355 265.957C449.649 268.518 454.344 272.892 457.438 279.08C460.532 285.268 462.079 293.697 462.079 304.366C462.079 319.09 458.558 329.706 451.517 336.214C444.475 342.722 433.806 345.976 419.509 345.976H413.427V377.184H382.22ZM413.427 323.091C418.549 323.091 422.336 321.704 424.79 318.93C427.351 316.156 428.631 311.195 428.631 304.046C428.631 298.605 428.151 294.497 427.191 291.723C426.337 288.949 424.79 287.082 422.55 286.122C420.416 285.055 417.375 284.521 413.427 284.521V323.091Z" stroke="url(#paint11_linear_11054_4819)"/>
<path d="M491.351 361.66L488.311 377.184H454.862L477.908 276.359L474.227 260.676H522.559L547.685 377.184H514.557L511.516 361.66H491.351ZM494.552 336.854H508.155L501.434 294.924L494.552 336.854Z" stroke="url(#paint12_linear_11054_4819)"/>
<path d="M592.348 261.956C601.737 261.956 609.579 263.183 615.874 265.637C622.169 267.984 626.864 271.985 629.958 277.64C633.158 283.188 634.759 290.816 634.759 300.525C634.759 308.634 633.532 315.302 631.078 320.53C628.624 325.652 624.89 329.759 619.875 332.853L639.4 377.184H604.671L592.028 339.735H586.907V377.184H555.699V283.881L546.897 261.956H592.348ZM586.907 318.29C591.815 318.29 595.443 317.063 597.79 314.609C600.137 312.155 601.311 307.834 601.311 301.646C601.311 296.738 600.884 293.11 600.03 290.763C599.177 288.309 597.683 286.655 595.549 285.802C593.522 284.948 590.641 284.521 586.907 284.521V318.29Z" stroke="url(#paint13_linear_11054_4819)"/>
<path d="M647.403 261.956H678.611V308.207L695.735 261.956H729.343L707.898 317.81L728.223 377.184H694.615L678.611 328.372V377.184H647.403V261.956Z" stroke="url(#paint14_linear_11054_4819)"/>
<path d="M737.894 261.956H769.102V349.977H804.47L799.509 377.184H737.894V261.956Z" stroke="url(#paint15_linear_11054_4819)"/>
<path d="M802.897 261.956H879.556L874.755 287.562H842.907V305.167H872.834L868.033 330.773H842.907V351.578H880.676L875.875 377.184H811.699V283.881L802.897 261.956Z" stroke="url(#paint16_linear_11054_4819)"/>
<g filter="url(#filter1_f_11054_4819)">
<mask id="path-6-outside-1_11054_4819" maskUnits="userSpaceOnUse" x="288.211" y="254.516" width="600" height="131" fill="black">
<rect fill="white" x="288.211" y="254.516" width="600" height="131"/>
<path d="M327.219 351.098C331.273 351.098 334.314 350.511 336.341 349.337C338.368 348.164 339.382 346.243 339.382 343.576C339.382 341.762 338.902 340.322 337.941 339.255C336.981 338.188 335.274 337.121 332.82 336.054L315.856 328.212C309.561 325.331 304.707 321.49 301.292 316.689C297.878 311.888 296.171 304.9 296.171 295.724C296.171 283.988 299.212 275.239 305.293 269.478C311.482 263.61 321.671 260.622 335.861 260.516C341.729 260.516 347.064 260.782 351.865 261.316C356.666 261.849 360.507 262.436 363.388 263.076C366.268 263.61 367.709 263.876 367.709 263.876L364.508 289.643C364.508 289.643 363.174 289.483 360.507 289.163C357.946 288.843 354.745 288.576 350.905 288.362C347.064 288.042 343.329 287.882 339.702 287.882C335.861 287.882 332.927 288.469 330.9 289.643C328.979 290.71 328.019 292.79 328.019 295.884C328.019 297.591 328.766 299.032 330.259 300.205C331.753 301.272 333.834 302.393 336.501 303.566L350.104 309.488C357.359 312.688 362.641 316.689 365.948 321.49C369.256 326.185 370.909 332.907 370.909 341.655C370.909 353.498 367.815 362.621 361.627 369.022C355.439 375.424 345.25 378.678 331.06 378.784C324.018 378.784 317.456 378.304 311.375 377.344C305.293 376.491 299.905 375.477 295.211 374.303L298.412 348.537C298.412 348.537 299.692 348.75 302.253 349.177C304.92 349.604 308.441 350.031 312.815 350.458C317.19 350.884 321.991 351.098 327.219 351.098Z"/>
<path d="M382.22 377.184V283.881L373.418 261.956H419.509C429.111 261.956 437.06 263.29 443.355 265.957C449.649 268.518 454.344 272.892 457.438 279.08C460.532 285.268 462.079 293.697 462.079 304.366C462.079 319.09 458.558 329.706 451.517 336.214C444.475 342.722 433.806 345.976 419.509 345.976H413.427V377.184H382.22ZM413.427 323.091C418.549 323.091 422.336 321.704 424.79 318.93C427.351 316.156 428.631 311.195 428.631 304.046C428.631 298.605 428.151 294.497 427.191 291.723C426.337 288.949 424.79 287.082 422.55 286.122C420.416 285.055 417.375 284.521 413.427 284.521V323.091Z"/>
<path d="M491.351 361.66L488.311 377.184H454.862L477.908 276.359L474.227 260.676H522.559L547.685 377.184H514.557L511.516 361.66H491.351ZM494.552 336.854H508.155L501.434 294.924L494.552 336.854Z"/>
<path d="M592.348 261.956C601.737 261.956 609.579 263.183 615.874 265.637C622.169 267.984 626.864 271.985 629.958 277.64C633.158 283.188 634.759 290.816 634.759 300.525C634.759 308.634 633.532 315.302 631.078 320.53C628.624 325.652 624.89 329.759 619.875 332.853L639.4 377.184H604.671L592.028 339.735H586.907V377.184H555.699V283.881L546.897 261.956H592.348ZM586.907 318.29C591.815 318.29 595.443 317.063 597.79 314.609C600.137 312.155 601.311 307.834 601.311 301.646C601.311 296.738 600.884 293.11 600.03 290.763C599.177 288.309 597.683 286.655 595.549 285.802C593.522 284.948 590.641 284.521 586.907 284.521V318.29Z"/>
<path d="M647.403 261.956H678.611V308.207L695.735 261.956H729.343L707.898 317.81L728.223 377.184H694.615L678.611 328.372V377.184H647.403V261.956Z"/>
<path d="M737.894 261.956H769.102V349.977H804.47L799.509 377.184H737.894V261.956Z"/>
<path d="M802.897 261.956H879.556L874.755 287.562H842.907V305.167H872.834L868.033 330.773H842.907V351.578H880.676L875.875 377.184H811.699V283.881L802.897 261.956Z"/>
</mask>
<path d="M327.219 351.098C331.273 351.098 334.314 350.511 336.341 349.337C338.368 348.164 339.382 346.243 339.382 343.576C339.382 341.762 338.902 340.322 337.941 339.255C336.981 338.188 335.274 337.121 332.82 336.054L315.856 328.212C309.561 325.331 304.707 321.49 301.292 316.689C297.878 311.888 296.171 304.9 296.171 295.724C296.171 283.988 299.212 275.239 305.293 269.478C311.482 263.61 321.671 260.622 335.861 260.516C341.729 260.516 347.064 260.782 351.865 261.316C356.666 261.849 360.507 262.436 363.388 263.076C366.268 263.61 367.709 263.876 367.709 263.876L364.508 289.643C364.508 289.643 363.174 289.483 360.507 289.163C357.946 288.843 354.745 288.576 350.905 288.362C347.064 288.042 343.329 287.882 339.702 287.882C335.861 287.882 332.927 288.469 330.9 289.643C328.979 290.71 328.019 292.79 328.019 295.884C328.019 297.591 328.766 299.032 330.259 300.205C331.753 301.272 333.834 302.393 336.501 303.566L350.104 309.488C357.359 312.688 362.641 316.689 365.948 321.49C369.256 326.185 370.909 332.907 370.909 341.655C370.909 353.498 367.815 362.621 361.627 369.022C355.439 375.424 345.25 378.678 331.06 378.784C324.018 378.784 317.456 378.304 311.375 377.344C305.293 376.491 299.905 375.477 295.211 374.303L298.412 348.537C298.412 348.537 299.692 348.75 302.253 349.177C304.92 349.604 308.441 350.031 312.815 350.458C317.19 350.884 321.991 351.098 327.219 351.098Z" stroke="url(#paint17_linear_11054_4819)" stroke-width="12" mask="url(#path-6-outside-1_11054_4819)"/>
<path d="M382.22 377.184V283.881L373.418 261.956H419.509C429.111 261.956 437.06 263.29 443.355 265.957C449.649 268.518 454.344 272.892 457.438 279.08C460.532 285.268 462.079 293.697 462.079 304.366C462.079 319.09 458.558 329.706 451.517 336.214C444.475 342.722 433.806 345.976 419.509 345.976H413.427V377.184H382.22ZM413.427 323.091C418.549 323.091 422.336 321.704 424.79 318.93C427.351 316.156 428.631 311.195 428.631 304.046C428.631 298.605 428.151 294.497 427.191 291.723C426.337 288.949 424.79 287.082 422.55 286.122C420.416 285.055 417.375 284.521 413.427 284.521V323.091Z" stroke="url(#paint18_linear_11054_4819)" stroke-width="12" mask="url(#path-6-outside-1_11054_4819)"/>
<path d="M491.351 361.66L488.311 377.184H454.862L477.908 276.359L474.227 260.676H522.559L547.685 377.184H514.557L511.516 361.66H491.351ZM494.552 336.854H508.155L501.434 294.924L494.552 336.854Z" stroke="url(#paint19_linear_11054_4819)" stroke-width="12" mask="url(#path-6-outside-1_11054_4819)"/>
<path d="M592.348 261.956C601.737 261.956 609.579 263.183 615.874 265.637C622.169 267.984 626.864 271.985 629.958 277.64C633.158 283.188 634.759 290.816 634.759 300.525C634.759 308.634 633.532 315.302 631.078 320.53C628.624 325.652 624.89 329.759 619.875 332.853L639.4 377.184H604.671L592.028 339.735H586.907V377.184H555.699V283.881L546.897 261.956H592.348ZM586.907 318.29C591.815 318.29 595.443 317.063 597.79 314.609C600.137 312.155 601.311 307.834 601.311 301.646C601.311 296.738 600.884 293.11 600.03 290.763C599.177 288.309 597.683 286.655 595.549 285.802C593.522 284.948 590.641 284.521 586.907 284.521V318.29Z" stroke="url(#paint20_linear_11054_4819)" stroke-width="12" mask="url(#path-6-outside-1_11054_4819)"/>
<path d="M647.403 261.956H678.611V308.207L695.735 261.956H729.343L707.898 317.81L728.223 377.184H694.615L678.611 328.372V377.184H647.403V261.956Z" stroke="url(#paint21_linear_11054_4819)" stroke-width="12" mask="url(#path-6-outside-1_11054_4819)"/>
<path d="M737.894 261.956H769.102V349.977H804.47L799.509 377.184H737.894V261.956Z" stroke="url(#paint22_linear_11054_4819)" stroke-width="12" mask="url(#path-6-outside-1_11054_4819)"/>
<path d="M802.897 261.956H879.556L874.755 287.562H842.907V305.167H872.834L868.033 330.773H842.907V351.578H880.676L875.875 377.184H811.699V283.881L802.897 261.956Z" stroke="url(#paint23_linear_11054_4819)" stroke-width="12" mask="url(#path-6-outside-1_11054_4819)"/>
</g>
<path d="M402.273 133.438C406.328 133.438 409.368 132.851 411.396 131.677C413.423 130.504 414.436 128.583 414.436 125.916C414.436 124.102 413.956 122.662 412.996 121.595C412.036 120.528 410.329 119.461 407.875 118.394L390.911 110.552C384.616 107.671 379.761 103.83 376.347 99.0292C372.933 94.228 371.226 87.2396 371.226 78.0641C371.226 66.3279 374.267 57.5791 380.348 51.8177C386.536 45.9496 396.725 42.9622 410.916 42.8555C416.784 42.8555 422.118 43.1222 426.919 43.6557C431.721 44.1891 435.562 44.7759 438.442 45.4161C441.323 45.9496 442.763 46.2163 442.763 46.2163L439.563 71.9826C439.563 71.9826 438.229 71.8225 435.562 71.5025C433.001 71.1824 429.8 70.9156 425.959 70.7023C422.118 70.3822 418.384 70.2221 414.756 70.2221C410.916 70.2221 407.981 70.809 405.954 71.9826C404.034 73.0495 403.074 75.13 403.074 78.2241C403.074 79.9312 403.82 81.3715 405.314 82.5451C406.808 83.6121 408.888 84.7324 411.556 85.906L425.159 91.8274C432.414 95.0282 437.695 99.0292 441.003 103.83C444.31 108.525 445.964 115.246 445.964 123.995C445.964 135.838 442.87 144.96 436.682 151.362C430.494 157.763 420.305 161.018 406.114 161.124C399.073 161.124 392.511 160.644 386.43 159.684C380.348 158.83 374.96 157.817 370.266 156.643L373.466 130.877C373.466 130.877 374.747 131.09 377.307 131.517C379.975 131.944 383.496 132.371 387.87 132.797C392.244 133.224 397.045 133.438 402.273 133.438Z" fill="url(#paint24_linear_11054_4819)"/>
<path d="M457.274 159.524V66.2212L448.472 44.2958H494.563C504.166 44.2958 512.114 45.6295 518.409 48.2968C524.704 50.8574 529.399 55.2318 532.493 61.42C535.587 67.6082 537.134 76.0369 537.134 86.7062C537.134 101.43 533.613 112.046 526.571 118.554C519.53 125.062 508.86 128.316 494.563 128.316H488.482V159.524H457.274ZM488.482 105.431C493.603 105.431 497.391 104.044 499.845 101.27C502.405 98.4957 503.686 93.5345 503.686 86.3861C503.686 80.9448 503.206 76.8371 502.245 74.0631C501.392 71.2891 499.845 69.422 497.604 68.4617C495.47 67.3948 492.43 66.8613 488.482 66.8613V105.431Z" fill="url(#paint25_linear_11054_4819)"/>
<path d="M566.406 144L563.365 159.524H529.917L552.963 58.6993L549.282 43.0155H597.614L622.74 159.524H589.612L586.571 144H566.406ZM569.607 119.194H583.21L576.488 77.2639L569.607 119.194Z" fill="url(#paint26_linear_11054_4819)"/>
<path d="M667.403 44.2958C676.792 44.2958 684.634 45.5228 690.929 47.9767C697.224 50.324 701.918 54.3249 705.012 59.9796C708.213 65.5277 709.813 73.1562 709.813 82.8652C709.813 90.9739 708.587 97.6422 706.133 102.87C703.679 107.991 699.944 112.099 694.93 115.193L714.455 159.524H679.726L667.083 122.075H661.962V159.524H630.754V66.2212L621.952 44.2958H667.403ZM661.962 100.63C666.87 100.63 670.497 99.4026 672.844 96.9487C675.192 94.4947 676.365 90.1737 676.365 83.9855C676.365 79.0776 675.939 75.4501 675.085 73.1028C674.231 70.6489 672.738 68.9952 670.604 68.1416C668.577 67.2881 665.696 66.8613 661.962 66.8613V100.63Z" fill="url(#paint27_linear_11054_4819)"/>
<path d="M722.458 44.2958H753.665V90.5471L770.79 44.2958H804.398L782.953 100.149L803.278 159.524H769.669L753.665 110.712V159.524H722.458V44.2958Z" fill="url(#paint28_linear_11054_4819)"/>
<defs>
<filter id="filter0_f_11054_4819" x="0.304688" y="132.434" width="1155.52" height="458.598" filterUnits="userSpaceOnUse" color-interpolation-filters="sRGB">
<feFlood flood-opacity="0" result="BackgroundImageFix"/>
<feBlend mode="normal" in="SourceGraphic" in2="BackgroundImageFix" result="shape"/>
<feGaussianBlur stdDeviation="77.5" result="effect1_foregroundBlur_11054_4819"/>
</filter>
<filter id="filter1_f_11054_4819" x="244.602" y="210.516" width="687.305" height="218.27" filterUnits="userSpaceOnUse" color-interpolation-filters="sRGB">
<feFlood flood-opacity="0" result="BackgroundImageFix"/>
<feBlend mode="normal" in="SourceGraphic" in2="BackgroundImageFix" result="shape"/>
<feGaussianBlur stdDeviation="22" result="effect1_foregroundBlur_11054_4819"/>
</filter>
<linearGradient id="paint0_linear_11054_4819" x1="1029.81" y1="277.989" x2="283.193" y2="766.887" gradientUnits="userSpaceOnUse">
<stop stop-color="#FF8F26"/>
<stop offset="0.961538" stop-color="#FB3CB2"/>
</linearGradient>
<linearGradient id="paint1_linear_11054_4819" x1="68.4062" y1="210.407" x2="1054.04" y2="210.253" gradientUnits="userSpaceOnUse">
<stop stop-color="#6C2A71"/>
<stop offset="0.5" stop-color="#461A65"/>
<stop offset="1" stop-color="#200B5A"/>
</linearGradient>
<linearGradient id="paint2_linear_11054_4819" x1="587.852" y1="10.31" x2="587.852" y2="443.706" gradientUnits="userSpaceOnUse">
<stop stop-color="#D7B88D"/>
<stop offset="0.35" stop-color="#E7CEA5"/>
<stop offset="0.74" stop-color="#F4E1B9"/>
<stop offset="1" stop-color="#F9E8C1"/>
</linearGradient>
<linearGradient id="paint3_linear_11054_4819" x1="294.984" y1="398.232" x2="852.304" y2="196.151" gradientUnits="userSpaceOnUse">
<stop stop-color="#FFE8B8"/>
<stop offset="1" stop-color="#F5B327"/>
</linearGradient>
<linearGradient id="paint4_linear_11054_4819" x1="294.984" y1="398.232" x2="852.304" y2="196.151" gradientUnits="userSpaceOnUse">
<stop stop-color="#FFE8B8"/>
<stop offset="1" stop-color="#F5B327"/>
</linearGradient>
<linearGradient id="paint5_linear_11054_4819" x1="294.984" y1="398.232" x2="852.304" y2="196.151" gradientUnits="userSpaceOnUse">
<stop stop-color="#FFE8B8"/>
<stop offset="1" stop-color="#F5B327"/>
</linearGradient>
<linearGradient id="paint6_linear_11054_4819" x1="294.984" y1="398.232" x2="852.304" y2="196.151" gradientUnits="userSpaceOnUse">
<stop stop-color="#FFE8B8"/>
<stop offset="1" stop-color="#F5B327"/>
</linearGradient>
<linearGradient id="paint7_linear_11054_4819" x1="294.984" y1="398.232" x2="852.304" y2="196.151" gradientUnits="userSpaceOnUse">
<stop stop-color="#FFE8B8"/>
<stop offset="1" stop-color="#F5B327"/>
</linearGradient>
<linearGradient id="paint8_linear_11054_4819" x1="294.984" y1="398.232" x2="852.304" y2="196.151" gradientUnits="userSpaceOnUse">
<stop stop-color="#FFE8B8"/>
<stop offset="1" stop-color="#F5B327"/>
</linearGradient>
<linearGradient id="paint9_linear_11054_4819" x1="294.984" y1="398.232" x2="852.304" y2="196.151" gradientUnits="userSpaceOnUse">
<stop stop-color="#FFE8B8"/>
<stop offset="1" stop-color="#F5B327"/>
</linearGradient>
<linearGradient id="paint10_linear_11054_4819" x1="295.211" y1="319.65" x2="880.676" y2="319.65" gradientUnits="userSpaceOnUse">
<stop stop-color="#FBDD4E"/>
<stop offset="1" stop-color="#F5B327"/>
</linearGradient>
<linearGradient id="paint11_linear_11054_4819" x1="295.211" y1="319.65" x2="880.676" y2="319.65" gradientUnits="userSpaceOnUse">
<stop stop-color="#FBDD4E"/>
<stop offset="1" stop-color="#F5B327"/>
</linearGradient>
<linearGradient id="paint12_linear_11054_4819" x1="295.211" y1="319.65" x2="880.676" y2="319.65" gradientUnits="userSpaceOnUse">
<stop stop-color="#FBDD4E"/>
<stop offset="1" stop-color="#F5B327"/>
</linearGradient>
<linearGradient id="paint13_linear_11054_4819" x1="295.211" y1="319.65" x2="880.676" y2="319.65" gradientUnits="userSpaceOnUse">
<stop stop-color="#FBDD4E"/>
<stop offset="1" stop-color="#F5B327"/>
</linearGradient>
<linearGradient id="paint14_linear_11054_4819" x1="295.211" y1="319.65" x2="880.676" y2="319.65" gradientUnits="userSpaceOnUse">
<stop stop-color="#FBDD4E"/>
<stop offset="1" stop-color="#F5B327"/>
</linearGradient>
<linearGradient id="paint15_linear_11054_4819" x1="295.211" y1="319.65" x2="880.676" y2="319.65" gradientUnits="userSpaceOnUse">
<stop stop-color="#FBDD4E"/>
<stop offset="1" stop-color="#F5B327"/>
</linearGradient>
<linearGradient id="paint16_linear_11054_4819" x1="295.211" y1="319.65" x2="880.676" y2="319.65" gradientUnits="userSpaceOnUse">
<stop stop-color="#FBDD4E"/>
<stop offset="1" stop-color="#F5B327"/>
</linearGradient>
<linearGradient id="paint17_linear_11054_4819" x1="295.211" y1="319.65" x2="880.676" y2="319.65" gradientUnits="userSpaceOnUse">
<stop stop-color="#FBDD4E"/>
<stop offset="1" stop-color="#F5B327"/>
</linearGradient>
<linearGradient id="paint18_linear_11054_4819" x1="295.211" y1="319.65" x2="880.676" y2="319.65" gradientUnits="userSpaceOnUse">
<stop stop-color="#FBDD4E"/>
<stop offset="1" stop-color="#F5B327"/>
</linearGradient>
<linearGradient id="paint19_linear_11054_4819" x1="295.211" y1="319.65" x2="880.676" y2="319.65" gradientUnits="userSpaceOnUse">
<stop stop-color="#FBDD4E"/>
<stop offset="1" stop-color="#F5B327"/>
</linearGradient>
<linearGradient id="paint20_linear_11054_4819" x1="295.211" y1="319.65" x2="880.676" y2="319.65" gradientUnits="userSpaceOnUse">
<stop stop-color="#FBDD4E"/>
<stop offset="1" stop-color="#F5B327"/>
</linearGradient>
<linearGradient id="paint21_linear_11054_4819" x1="295.211" y1="319.65" x2="880.676" y2="319.65" gradientUnits="userSpaceOnUse">
<stop stop-color="#FBDD4E"/>
<stop offset="1" stop-color="#F5B327"/>
</linearGradient>
<linearGradient id="paint22_linear_11054_4819" x1="295.211" y1="319.65" x2="880.676" y2="319.65" gradientUnits="userSpaceOnUse">
<stop stop-color="#FBDD4E"/>
<stop offset="1" stop-color="#F5B327"/>
</linearGradient>
<linearGradient id="paint23_linear_11054_4819" x1="295.211" y1="319.65" x2="880.676" y2="319.65" gradientUnits="userSpaceOnUse">
<stop stop-color="#FBDD4E"/>
<stop offset="1" stop-color="#F5B327"/>
</linearGradient>
<linearGradient id="paint24_linear_11054_4819" x1="832.018" y1="43.2526" x2="397.304" y2="-20.5617" gradientUnits="userSpaceOnUse">
<stop stop-color="#FC5982"/>
<stop offset="1" stop-color="#FE7158"/>
</linearGradient>
<linearGradient id="paint25_linear_11054_4819" x1="832.018" y1="43.2526" x2="397.304" y2="-20.5617" gradientUnits="userSpaceOnUse">
<stop stop-color="#FC5982"/>
<stop offset="1" stop-color="#FE7158"/>
</linearGradient>
<linearGradient id="paint26_linear_11054_4819" x1="832.018" y1="43.2526" x2="397.304" y2="-20.5617" gradientUnits="userSpaceOnUse">
<stop stop-color="#FC5982"/>
<stop offset="1" stop-color="#FE7158"/>
</linearGradient>
<linearGradient id="paint27_linear_11054_4819" x1="832.018" y1="43.2526" x2="397.304" y2="-20.5617" gradientUnits="userSpaceOnUse">
<stop stop-color="#FC5982"/>
<stop offset="1" stop-color="#FE7158"/>
</linearGradient>
<linearGradient id="paint28_linear_11054_4819" x1="832.018" y1="43.2526" x2="397.304" y2="-20.5617" gradientUnits="userSpaceOnUse">
<stop stop-color="#FC5982"/>
<stop offset="1" stop-color="#FE7158"/>
</linearGradient>
</defs>
</svg>
