<svg width="212" height="55" viewBox="0 0 212 55" fill="none" xmlns="http://www.w3.org/2000/svg">
<path d="M72.0825 40.2704C74.8471 40.2704 77.0657 38.9052 78.7381 35.7651L82.4584 28.8023V34.707C82.4584 38.1884 84.7111 40.2704 88.1925 40.2704C90.923 40.2704 92.9368 39.0758 94.8822 35.7651L103.449 21.2934C105.326 18.1192 103.995 15.73 99.8654 15.73C97.6469 15.73 96.2134 16.4467 94.9164 18.8701L89.0117 29.9628V20.0988C89.0117 17.1635 87.6123 15.73 85.0183 15.73C82.9704 15.73 81.3321 16.6174 80.0692 19.0749L74.5058 29.9628V20.2012C74.5058 17.0611 73.2088 15.73 70.0687 15.73H63.6521C61.2287 15.73 60 16.8563 60 18.9383C60 21.0203 61.297 22.2149 63.6521 22.2149H66.2802V34.6729C66.2802 38.1884 68.6352 40.2704 72.0825 40.2704Z" fill="#873EFF"/>
<path fill-rule="evenodd" clip-rule="evenodd" d="M115.977 15.73C108.98 15.73 103.622 20.9521 103.622 28.0173C103.622 35.0825 109.014 40.2704 115.977 40.2704C122.94 40.2704 128.264 35.0483 128.299 28.0173C128.299 20.9521 122.94 15.73 115.977 15.73ZM115.977 32.7274C113.349 32.7274 111.54 30.7478 111.54 28.0173C111.54 25.2868 113.349 23.273 115.977 23.273C118.605 23.273 120.414 25.2868 120.414 28.0173C120.414 30.7478 118.64 32.7274 115.977 32.7274Z" fill="#873EFF"/>
<path fill-rule="evenodd" clip-rule="evenodd" d="M130.037 28.0173C130.037 20.9521 135.396 15.73 142.358 15.73C149.321 15.73 154.68 20.9862 154.68 28.0173C154.68 35.0483 149.321 40.2704 142.358 40.2704C135.396 40.2704 130.037 35.0825 130.037 28.0173ZM137.955 28.0173C137.955 30.7478 139.696 32.7274 142.358 32.7274C144.986 32.7274 146.795 30.7478 146.795 28.0173C146.795 25.2868 144.986 23.273 142.358 23.273C139.73 23.273 137.955 25.2868 137.955 28.0173Z" fill="#873EFF"/>
</svg>
