<svg width="201" height="63" viewBox="0 0 201 63" fill="none" xmlns="http://www.w3.org/2000/svg">
<path d="M79.5078 25.4166C77.9724 26.9336 77.2119 28.8671 77.2119 31.2022C77.2119 33.7158 77.9724 35.7533 79.4927 37.3001C81.0136 38.8469 82.9965 39.6203 85.4564 39.6203C86.2765 39.6055 87.0816 39.4716 87.8571 39.2485V35.5303C87.1709 35.7385 86.4701 35.8575 85.7549 35.8872C84.5319 35.8872 83.5633 35.4856 82.8324 34.6676C82.1021 33.8496 81.7294 32.7341 81.7294 31.3361C81.7294 30.0273 82.0871 28.9564 82.8174 28.1086C83.4886 27.2906 84.5023 26.8296 85.5607 26.8444C86.3362 26.8444 87.1111 26.9634 87.8571 27.1716V23.4385C87.037 23.2303 86.1873 23.1261 85.3369 23.1411C82.9965 23.1411 81.0438 23.8996 79.5078 25.4166ZM95.4901 23.1411C93.3583 23.1411 91.7035 23.8401 90.5106 25.253C89.3177 26.6659 88.7213 28.6292 88.7364 31.1576C88.7364 33.8943 89.3328 35.9913 90.5106 37.434C91.6884 38.8767 93.418 39.6055 95.6692 39.6055C97.8456 39.6055 99.5306 38.8767 100.708 37.434C101.886 35.9765 102.483 33.9537 102.483 31.3361C102.483 28.7184 101.886 26.6957 100.679 25.2828C99.501 23.855 97.7715 23.1411 95.4901 23.1411ZM97.324 35.0841C96.9362 35.7088 96.2355 36.0806 95.5051 36.0508C94.8044 36.0657 94.1483 35.6938 93.8202 35.0841C93.433 34.4446 93.2388 33.1506 93.2388 31.2022C93.2388 28.183 93.9993 26.6659 95.5353 26.6659C97.1599 26.6659 97.9801 28.1978 97.9801 31.2468C97.965 33.1654 97.7413 34.4296 97.324 35.0841ZM113.888 23.5872L113.068 27.0973C112.859 28.0045 112.651 28.9266 112.472 29.8636L112.01 32.3028C111.562 29.8786 110.966 26.9634 110.205 23.6021H104.853L102.84 39.2485H106.851L107.939 28.4656L110.682 39.2485H113.545L116.154 28.4656L117.287 39.2188H121.477L119.345 23.5872H113.888ZM133.091 23.5872L132.271 27.0973C132.062 28.0045 131.853 28.9266 131.674 29.8636L131.212 32.3028C130.765 29.8786 130.168 26.9634 129.408 23.6021H124.056L122.043 39.2336H126.054L127.142 28.4507L129.885 39.2336H132.748L135.372 28.4656L136.505 39.2188H140.694L138.562 23.5872H133.091ZM146.106 33.0316H149.878V29.7744H146.106V26.9039H150.445V23.5872H141.872V39.2336H150.475V35.8872H146.106V33.0316ZM162.402 30.5627C163.594 28.6738 163.117 26.19 161.329 24.8663C160.18 24.0186 158.6 23.5872 156.602 23.5872H151.668V39.2336H155.902V32.0946H155.976L159.405 39.2188H163.878L160.493 32.1689C161.284 31.8418 161.955 31.2766 162.402 30.5627ZM155.902 30.3098V26.5916C156.9 26.6213 157.631 26.7849 158.064 27.0973C158.495 27.4096 158.719 27.9301 158.719 28.6441C158.719 29.7298 157.78 30.2801 155.902 30.3098ZM165.578 25.4166C164.042 26.9336 163.267 28.8671 163.267 31.2022C163.267 33.7158 164.027 35.7533 165.548 37.2853C167.068 38.8321 169.066 39.6055 171.511 39.6055C172.331 39.5906 173.136 39.4716 173.927 39.2485V35.5303C173.241 35.7385 172.54 35.8575 171.824 35.8872C170.602 35.8872 169.633 35.4856 168.887 34.6676C168.156 33.8496 167.784 32.7341 167.784 31.3361C167.784 30.0273 168.142 28.9564 168.872 28.1086C169.543 27.2906 170.557 26.8296 171.616 26.8444C172.391 26.8444 173.166 26.9634 173.911 27.1716V23.4385C173.092 23.2303 172.242 23.1261 171.392 23.1411C169.051 23.1411 167.113 23.8996 165.578 25.4166ZM179.323 35.8723V33.0316H183.095V29.7744H179.323V26.9039H183.662V23.5872H175.089V39.2336H183.692V35.8872H179.323V35.8723Z" fill="black"/>
<path fill-rule="evenodd" clip-rule="evenodd" d="M22.5705 17.2656H68.4453C71.3376 17.2656 73.6931 19.6156 73.6931 22.5009V39.9618C73.6931 42.8472 71.3376 45.1971 68.4453 45.1971H51.9859L54.2372 50.715L44.2929 45.1971H22.5556C19.6632 45.1971 17.3076 42.8472 17.3076 39.9618V22.5009C17.3076 19.6156 19.6632 17.2656 22.5705 17.2656Z" fill="#7F54B3"/>
<path d="M20.1554 22.0101C20.5132 21.5788 21.0351 21.3111 21.6016 21.2962C22.7645 21.2218 23.4354 21.7721 23.6143 22.9471C24.3299 27.7363 25.1052 31.8114 25.9252 35.1578L30.9794 25.5796C31.4415 24.717 32.008 24.256 32.7088 24.2113C33.7226 24.137 34.3488 24.7765 34.6022 26.1448C35.0793 28.822 35.8099 31.4545 36.7789 33.9978C37.3902 28.1675 38.404 23.9436 39.8204 21.3408C40.1037 20.7459 40.6851 20.3592 41.3411 20.3295C41.8629 20.2848 42.3847 20.4485 42.7873 20.7905C43.2047 21.1028 43.4582 21.5937 43.488 22.1143C43.5178 22.5009 43.4432 22.8876 43.2644 23.2148C42.3698 24.8806 41.6243 27.647 41.0429 31.514C40.4763 35.2471 40.2527 38.1771 40.4018 40.2742C40.4614 40.7948 40.3571 41.3153 40.1334 41.7763C39.9098 42.2523 39.4327 42.5795 38.9109 42.6093C38.2997 42.6538 37.7033 42.3713 37.092 41.7615C34.9451 39.5751 33.2455 36.318 31.9932 31.9899C30.5172 34.9348 29.399 37.1508 28.6684 38.6084C27.3117 41.2112 26.1488 42.5349 25.1947 42.6093C24.5685 42.6538 24.0317 42.1333 23.5994 41.0327C22.4216 38.0283 21.1543 32.213 19.7976 23.5867C19.6783 23.0215 19.8125 22.4563 20.1554 22.0101Z" fill="white"/>
<path d="M55.2366 25.6243C54.4613 24.2411 53.1195 23.2594 51.554 22.962C51.1365 22.8728 50.7191 22.8281 50.3016 22.8281C48.0951 22.8281 46.2911 23.9733 44.8897 26.2638C43.6969 28.2121 43.0708 30.458 43.1006 32.7336C43.1006 34.5034 43.4733 36.0205 44.2039 37.2847C44.9792 38.6679 46.321 39.6495 47.8864 39.947C48.3038 40.0362 48.7213 40.0808 49.1388 40.0808C51.3602 40.0808 53.1642 38.9356 54.5507 36.6451C55.7434 34.6819 56.3696 32.4361 56.3398 30.1308C56.3398 28.3609 55.967 26.8587 55.2366 25.6243ZM52.3293 32.0048C52.0162 33.507 51.4347 34.6373 50.57 35.4107C49.8991 36.0205 49.2729 36.2585 48.7064 36.1543C48.1399 36.0503 47.6926 35.5446 47.3497 34.667C47.0962 33.9978 46.9471 33.2987 46.9471 32.5699C46.9471 32.0048 47.0068 31.4396 47.1111 30.8893C47.3348 29.9077 47.7373 28.9856 48.3337 28.1526C49.094 27.0372 49.8991 26.5613 50.734 26.7397C51.3006 26.8587 51.7478 27.3495 52.0907 28.227C52.3442 28.8963 52.4933 29.5953 52.4933 30.3093C52.4933 30.8744 52.4485 31.4396 52.3293 32.0048Z" fill="white"/>
<path d="M69.6679 25.6243C68.893 24.2411 67.5512 23.2594 65.9856 22.962C65.5683 22.8728 65.151 22.8281 64.7331 22.8281C62.5271 22.8281 60.7227 23.9733 59.3213 26.2638C58.1286 28.2121 57.5024 30.458 57.5323 32.7336C57.5323 34.5034 57.905 36.0205 58.6355 37.2847C59.4108 38.6679 60.7529 39.6495 62.3178 39.947C62.7357 40.0362 63.153 40.0808 63.5704 40.0808C65.792 40.0808 67.5958 38.9356 68.9822 36.6451C70.1751 34.6819 70.801 32.4361 70.7715 30.1308C70.7715 28.3609 70.3988 26.8587 69.6679 25.6243ZM66.7611 32.0048C66.4476 33.507 65.8662 34.6373 65.0014 35.4107C64.3308 36.0205 63.7048 36.2585 63.138 36.1543C62.5717 36.0503 62.1242 35.5446 61.7811 34.667C61.5278 33.9978 61.3788 33.2987 61.3788 32.5699C61.3788 32.0048 61.4385 31.4396 61.5429 30.8893C61.7666 29.9077 62.1688 28.9856 62.7653 28.1526C63.5257 27.0372 64.3308 26.5613 65.1654 26.7397C65.7323 26.8587 66.1792 27.3495 66.5223 28.227C66.7756 28.8963 66.9252 29.5953 66.9252 30.3093C66.9252 30.8744 66.8799 31.4396 66.7611 32.0048Z" fill="white"/>
</svg>
