<svg width="758" height="293" viewBox="0 0 758 293" fill="none" xmlns="http://www.w3.org/2000/svg">
<g filter="url(#filter0_d_12824_2)">
<g filter="url(#filter1_f_12824_2)">
<ellipse cx="379" cy="172.758" rx="285" ry="78.7581" fill="#414F90" fill-opacity="0.7"/>
</g>
<g filter="url(#filter2_i_12824_2)">
<path d="M555.82 19.2227L558.171 27.5973L566.545 29.9485L558.171 32.2996L555.82 40.6743L553.468 32.2996L545.094 29.9485L553.468 27.5973L555.82 19.2227Z" fill="white" fill-opacity="0.5"/>
</g>
<path d="M369.129 94.5664C249.268 94.5664 152.101 116.857 152.101 144.354C152.101 144.356 152.101 144.358 152.101 144.359H152.094V176.043L152.203 176.062C155.743 202.849 251.508 224.313 369.129 224.313C486.751 224.313 582.518 202.848 586.055 176.062L586.156 176.043V144.354C586.156 116.857 488.99 94.5665 369.129 94.5664Z" fill="url(#paint0_linear_12824_2)"/>
<g filter="url(#filter3_i_12824_2)">
<ellipse cx="217.028" cy="49.7878" rx="217.028" ry="49.7878" transform="matrix(-1 0 0 1 586.164 94.5547)" fill="url(#paint1_linear_12824_2)"/>
</g>
<circle cx="150.08" cy="42.8226" r="24.8226" fill="url(#paint2_linear_12824_2)"/>
<g clip-path="url(#clip0_12824_2)">
<path fill-rule="evenodd" clip-rule="evenodd" d="M144.884 35.5674C144.884 32.9664 146.999 30.8516 149.6 30.8516C152.201 30.8516 154.316 32.9665 154.316 35.5674V42.2685C154.316 44.8692 152.201 46.9843 149.6 46.9843C146.999 46.9843 144.884 44.8692 144.884 42.2685V35.5674ZM158.741 35.4227V39.9219C158.741 40.459 158.305 40.8955 157.768 40.8955C157.231 40.8955 156.795 40.459 156.795 39.9219V35.4227C156.795 34.8856 157.231 34.449 157.768 34.449C158.305 34.449 158.741 34.8856 158.741 35.4227ZM138.892 36.4943V38.8502C138.892 39.3875 138.456 39.8238 137.918 39.8238C137.38 39.8238 136.945 39.3885 136.945 38.8502V36.4943C136.945 35.956 137.38 35.5207 137.918 35.5207C138.456 35.5207 138.892 35.9571 138.892 36.4943ZM140.456 39.9219V35.4227C140.456 34.8842 140.894 34.449 141.432 34.449C141.969 34.449 142.405 34.8856 142.405 35.4227V39.9219C142.405 40.459 141.969 40.8955 141.432 40.8955C140.894 40.8955 140.456 40.4603 140.456 39.9219ZM162.255 36.4943V38.8502C162.255 39.3875 161.819 39.8238 161.281 39.8238C160.744 39.8238 160.308 39.3875 160.308 38.8502V36.4943C160.308 35.9571 160.744 35.5207 161.281 35.5207C161.819 35.5207 162.255 35.9571 162.255 36.4943ZM150.786 51.8035C152.635 51.5715 154.383 50.8018 155.808 49.5919C157.152 48.4501 158.157 46.962 158.713 45.3041C158.834 44.9461 158.779 44.5851 158.559 44.2784C158.338 43.9719 158.013 43.8053 157.636 43.8053H157.534C157.037 43.8053 156.615 44.1091 156.456 44.5801C155.479 47.4883 152.752 49.5053 149.6 49.5053C146.448 49.5053 143.719 47.4886 142.741 44.58C142.583 44.109 142.161 43.8053 141.664 43.8053H141.562C141.184 43.8053 140.859 43.9719 140.639 44.2785C140.418 44.5851 140.364 44.9461 140.484 45.3042C141.041 46.9624 142.048 48.4503 143.393 49.5919C144.817 50.8018 146.565 51.5715 148.414 51.8035V53.3927H143.667C143.012 53.3927 142.481 53.9242 142.481 54.579C142.481 55.2335 143.013 55.7655 143.667 55.7655H155.531C156.186 55.7655 156.719 55.2349 156.719 54.579C156.719 53.9228 156.186 53.3927 155.531 53.3927H150.786V51.8035H150.786Z" fill="url(#paint3_linear_12824_2)"/>
</g>
<circle cx="604.547" cy="87.2576" r="25.7419" fill="url(#paint4_linear_12824_2)"/>
<g clip-path="url(#clip1_12824_2)">
<path d="M604.889 88.9387C604.889 89.251 604.764 89.5506 604.544 89.7715C604.323 89.9923 604.023 90.1164 603.711 90.1164H600.178C599.865 90.1164 599.566 89.9923 599.345 89.7715C599.124 89.5506 599 89.251 599 88.9387C599 88.6263 599.124 88.3268 599.345 88.1059C599.566 87.885 599.865 87.7609 600.178 87.7609H603.711C604.023 87.7609 604.323 87.885 604.544 88.1059C604.764 88.3268 604.889 88.6263 604.889 88.9387ZM607.244 83.05C607.556 83.05 607.856 83.1741 608.077 83.395C608.298 83.6158 608.422 83.9154 608.422 84.2277C608.422 84.5401 608.298 84.8397 608.077 85.0605C607.856 85.2814 607.556 85.4055 607.244 85.4055H600.178C599.865 85.4055 599.566 85.2814 599.345 85.0605C599.124 84.8397 599 84.5401 599 84.2277C599 83.9154 599.124 83.6158 599.345 83.395C599.566 83.1741 599.865 83.05 600.178 83.05H607.244ZM604.889 98.4195C604.873 98.5734 604.828 98.7229 604.755 98.8594C604.682 98.9958 604.583 99.1165 604.463 99.2145C604.343 99.3125 604.206 99.386 604.057 99.4306C603.909 99.4753 603.754 99.4903 603.6 99.4747C601.808 99.2947 600.073 98.7425 598.507 97.8536L594.748 99.4451C594.54 99.5335 594.31 99.5598 594.087 99.521C593.864 99.4822 593.657 99.3799 593.49 99.2264C593.324 99.0729 593.205 98.8746 593.149 98.6553C593.092 98.4361 593.1 98.2051 593.171 97.9902L594.424 94.2126C593.243 92.5928 592.454 90.7212 592.119 88.7448C591.785 86.7685 591.913 84.7415 592.495 82.8233C593.077 80.9051 594.095 79.1481 595.471 77.6905C596.847 76.2329 598.543 75.1145 600.424 74.4233C602.306 73.7322 604.322 73.4871 606.314 73.7074C608.307 73.9277 610.221 74.6073 611.906 75.6929C613.591 76.7784 615.001 78.2402 616.025 79.9632C617.049 81.6862 617.66 83.6234 617.808 85.6223C617.823 85.7785 617.807 85.9362 617.76 86.086C617.714 86.2358 617.638 86.3748 617.536 86.4948C617.435 86.6147 617.311 86.7133 617.171 86.7846C617.031 86.8559 616.879 86.8986 616.722 86.9101C616.566 86.9216 616.409 86.9017 616.26 86.8515C616.111 86.8014 615.974 86.7221 615.856 86.6182C615.739 86.5143 615.643 86.3879 615.575 86.2465C615.507 86.1051 615.468 85.9516 615.46 85.7948C615.337 84.1361 614.825 82.5297 613.967 81.1052C613.108 79.6808 611.926 78.4785 610.517 77.5954C609.107 76.7124 607.51 76.1734 605.854 76.0221C604.197 75.8707 602.529 76.1113 600.982 76.7243C599.436 77.3373 598.056 78.3056 596.953 79.5508C595.851 80.796 595.057 82.2832 594.635 83.8922C594.214 85.5011 594.177 87.1867 594.528 88.8125C594.878 90.4384 595.607 91.9589 596.654 93.2511C596.778 93.4045 596.861 93.5865 596.897 93.7806C596.932 93.9746 596.918 94.1744 596.856 94.3616L596.226 96.2616L598.14 95.4507C598.316 95.3763 598.507 95.3457 598.697 95.3615C598.887 95.3773 599.071 95.4391 599.232 95.5415C600.621 96.4225 602.197 96.9667 603.833 97.1305C603.987 97.1459 604.137 97.1914 604.273 97.2644C604.409 97.3375 604.53 97.4367 604.628 97.5564C604.726 97.6761 604.799 97.8139 604.844 97.962C604.889 98.1101 604.904 98.2655 604.889 98.4195ZM619.854 99.8834L617.877 97.9063C618.795 96.5728 619.182 94.9442 618.961 93.3403C618.74 91.7364 617.928 90.2729 616.684 89.237C615.439 88.2012 613.853 87.6678 612.235 87.7415C610.618 87.8153 609.087 88.4909 607.942 89.6357C606.797 90.7805 606.121 92.3119 606.047 93.9293C605.973 95.5466 606.507 97.1332 607.542 98.3776C608.578 99.6221 610.042 100.434 611.646 100.655C613.249 100.876 614.878 100.49 616.212 99.5716L618.189 101.549C618.411 101.763 618.708 101.882 619.017 101.879C619.326 101.877 619.621 101.753 619.84 101.534C620.058 101.316 620.182 101.021 620.185 100.712C620.187 100.403 620.069 100.106 619.854 99.8834ZM612.544 98.3606C611.729 98.3606 610.932 98.1188 610.254 97.6659C609.576 97.2129 609.048 96.5692 608.736 95.8159C608.424 95.0627 608.342 94.2339 608.501 93.4343C608.66 92.6347 609.053 91.9002 609.629 91.3237C610.206 90.7473 610.94 90.3547 611.74 90.1956C612.539 90.0366 613.368 90.1182 614.121 90.4302C614.874 90.7422 615.518 91.2705 615.971 91.9484C616.424 92.6263 616.666 93.4232 616.666 94.2385C616.665 95.3313 616.23 96.379 615.457 97.1518C614.684 97.9245 613.637 98.3593 612.544 98.3606Z" fill="url(#paint5_linear_12824_2)"/>
</g>
<g clip-path="url(#clip2_12824_2)">
<path d="M304.414 127.224H303.299L290.32 77.7422H273.383L291.601 138.16H300.313L292.431 162.999H308.859L335.77 77.7422H318.958L304.414 127.224Z" fill="url(#paint6_linear_12824_2)"/>
<path d="M384.606 119.668C384.059 121.11 383.316 122.439 382.366 123.649C381.171 125.171 379.66 126.381 377.828 127.284C375.996 128.184 373.821 128.635 371.31 128.635C368.539 128.635 366.334 128.111 364.694 127.06C363.055 126.009 361.882 124.51 361.177 122.556C360.476 120.602 360.122 118.321 360.122 115.703V77.7383H343.758V118.082C343.758 123.361 344.47 127.8 345.899 131.401C347.328 135.006 349.54 137.731 352.545 139.571C355.549 141.415 359.439 142.337 364.212 142.337C368.343 142.337 371.785 141.669 374.533 140.341C377.281 139.013 379.456 137.222 381.055 134.968C382.653 132.714 383.791 130.217 384.474 127.474H385.167L384.666 140.857H400.966V77.7421H384.602V119.672L384.606 119.668Z" fill="url(#paint7_linear_12824_2)"/>
<path d="M500.66 78.9956C497.825 77.2159 494.131 76.3242 489.57 76.3242C485.48 76.3242 482.102 76.9883 479.437 78.3202C476.772 79.6521 474.676 81.4431 473.142 83.6933C471.607 85.9473 470.499 88.4214 469.817 91.1269H469.195C468.249 86.7555 466.549 83.3214 464.095 80.8322C461.132 77.8307 456.732 76.328 450.893 76.328C447.014 76.328 443.776 76.9807 441.175 78.2898C438.574 79.5989 436.52 81.3672 435.008 83.5984C433.496 85.8297 432.418 88.3379 431.781 91.1269H431.118L431.653 77.7434H415.289V140.866H431.653V98.8868C432.151 97.4525 432.822 96.1433 433.666 94.9556C434.752 93.434 436.135 92.2197 437.82 91.3204C439.501 90.4211 441.518 89.9695 443.859 89.9695C446.373 89.9695 448.368 90.4856 449.834 91.5139C451.304 92.5423 452.36 93.9918 452.997 95.8587C453.638 97.7257 453.954 99.9455 453.954 102.518V140.866H470.318V100.135C470.318 99.7596 470.307 99.3725 470.288 98.9741C470.786 97.5056 471.453 96.1661 472.301 94.9556C473.364 93.434 474.751 92.2197 476.455 91.3204C478.159 90.4211 480.161 89.9695 482.464 89.9695C484.978 89.9695 486.972 90.4856 488.439 91.5139C489.909 92.5423 490.964 93.9918 491.602 95.8587C492.242 97.7257 492.559 99.9455 492.559 102.518V140.866H508.987V100.135C508.987 94.9025 508.305 90.516 506.94 86.9794C505.576 83.4391 503.476 80.7791 500.645 78.9994L500.66 78.9956Z" fill="url(#paint8_linear_12824_2)"/>
<path d="M539.106 77.7422H522.742V140.865H539.106V77.7422Z" fill="url(#paint9_linear_12824_2)"/>
<path d="M537.759 55.4141C536.266 53.9115 533.989 53.1602 530.921 53.1602C527.853 53.1602 525.519 53.9115 524.049 55.4141C522.579 56.9168 521.844 58.9735 521.844 61.5917V61.9143C521.844 64.5325 522.579 66.5816 524.049 68.0615C525.519 69.5414 527.811 70.2813 530.921 70.2813C534.031 70.2813 536.266 69.5528 537.759 68.0919C539.252 66.6347 539.998 64.5743 539.998 61.9143V61.5917C539.998 58.9773 539.252 56.9168 537.759 55.4141Z" fill="url(#paint10_linear_12824_2)"/>
<path d="M246.968 56.9241C244.054 54.5904 240.461 53.2812 236.575 53.2812C228.79 53.2812 222.212 58.5368 219.807 66.6875L198 140.864H215.714L236.111 71.5446C236.258 71.0437 236.439 70.7136 236.571 70.5428C236.703 70.7136 236.876 71.0437 237.031 71.5446L257.417 140.864H275.142L253.323 66.6913C252.132 62.6083 249.889 59.2615 246.96 56.9278L246.968 56.9241Z" fill="url(#paint11_linear_12824_2)"/>
<path d="M277.052 55.3832H279.89L285.262 63.5074H288.293V63.3936L282.699 55.2428L282.755 55.1593C284.127 54.8595 285.266 54.1765 286.163 53.0989C287.064 52.025 287.512 50.7993 287.512 49.4143C287.512 47.7333 286.906 46.3179 285.692 45.172C284.478 44.0222 283.008 43.4492 281.281 43.4492H274.492V63.5036H277.052V55.3794V55.3832ZM277.052 45.9157H281.338C282.356 45.9157 283.208 46.2648 283.882 46.9668C284.561 47.665 284.896 48.4846 284.896 49.4181C284.896 50.4275 284.534 51.2699 283.811 51.9529C283.087 52.6359 282.205 52.9774 281.168 52.9774H277.048V45.9157H277.052Z" fill="white"/>
<path d="M295.08 54.5951C293.301 54.5951 291.876 55.0163 290.809 55.8549C289.742 56.6935 289.211 57.8243 289.211 59.2435C289.211 60.5868 289.716 61.71 290.726 62.6055C291.737 63.501 292.996 63.9488 294.496 63.9488C296.256 63.9488 297.67 63.1633 298.725 61.5961H298.839V63.501H301.289V55.0429C301.289 53.2708 300.742 51.8744 299.645 50.8575C298.552 49.8405 297.056 49.332 295.167 49.332C292.736 49.332 290.9 50.2276 289.656 52.0224L291.91 53.4492C292.743 52.2349 293.874 51.6278 295.303 51.6278C296.249 51.6278 297.074 51.9427 297.779 52.565C298.484 53.1911 298.835 53.9538 298.835 54.8494V55.4375C297.851 54.8759 296.599 54.5951 295.076 54.5951H295.08ZM297.572 60.4502C296.728 61.2546 295.77 61.6531 294.692 61.6531C293.931 61.6531 293.267 61.4292 292.702 60.9814C292.136 60.5336 291.853 59.9721 291.853 59.3004C291.853 58.5529 292.2 57.9268 292.898 57.4259C293.591 56.9212 294.462 56.6708 295.499 56.6708C296.927 56.6708 298.039 56.9895 298.839 57.6232C298.839 58.7047 298.416 59.6495 297.572 60.4502Z" fill="white"/>
<path d="M306.634 63.5008L306.521 61.5959H306.634C307.078 62.3055 307.716 62.8747 308.541 63.3035C309.367 63.7323 310.279 63.9486 311.282 63.9486C313.08 63.9486 314.603 63.239 315.847 61.8198C317.128 60.4006 317.765 58.6741 317.765 56.6364C317.765 54.5987 317.125 52.8911 315.847 51.453C314.603 50.0338 313.084 49.3242 311.282 49.3242C310.279 49.3242 309.367 49.5405 308.541 49.9693C307.716 50.3981 307.078 50.9673 306.634 51.6769H306.521V49.772H304.07V69.5494H306.63V63.5008H306.634ZM307.746 53.0809C308.579 52.1474 309.619 51.6807 310.863 51.6807C312.107 51.6807 313.117 52.1474 313.951 53.0809C314.784 54.0143 315.202 55.202 315.202 56.6402C315.202 58.0783 314.784 59.2812 313.951 60.1995C313.117 61.133 312.085 61.5997 310.863 61.5997C309.642 61.5997 308.583 61.1406 307.746 60.2261C306.928 59.2926 306.521 58.0973 306.521 56.6402C306.521 55.1831 306.928 54.0181 307.746 53.0809Z" fill="white"/>
<path d="M321.466 43.2227C320.964 43.2227 320.538 43.401 320.184 43.7539C319.83 44.1106 319.656 44.5394 319.656 45.0441C319.656 45.5487 319.833 45.9775 320.184 46.3342C320.538 46.6909 320.964 46.8655 321.466 46.8655C321.967 46.8655 322.393 46.6871 322.747 46.3342C323.098 45.9813 323.275 45.5487 323.275 45.0441C323.275 44.5394 323.098 44.1106 322.747 43.7539C322.393 43.401 321.967 43.2227 321.466 43.2227Z" fill="white"/>
<path d="M322.739 49.7773H320.18V63.5024H322.739V49.7773Z" fill="white"/>
<path d="M331.644 63.9514C332.647 63.9514 333.559 63.7351 334.385 63.3063C335.21 62.8775 335.847 62.3083 336.292 61.5987H336.405V63.5036H338.855V43.4492H336.296V49.7786L336.409 51.6835H336.296C335.851 50.9739 335.214 50.4047 334.388 49.9759C333.563 49.5471 332.651 49.3308 331.648 49.3308C329.869 49.3308 328.338 50.0404 327.056 51.4596C325.794 52.8977 325.164 54.6243 325.164 56.643C325.164 58.6617 325.794 60.3883 327.056 61.8264C328.338 63.2456 329.865 63.9552 331.648 63.9552L331.644 63.9514ZM328.971 53.0837C329.804 52.1502 330.834 51.6835 332.059 51.6835C333.284 51.6835 334.332 52.1502 335.146 53.0837C335.979 54.0171 336.398 55.2048 336.398 56.643C336.398 58.0811 335.979 59.3144 335.146 60.2289C334.347 61.1434 333.318 61.6025 332.059 61.6025C330.8 61.6025 329.804 61.1358 328.971 60.2023C328.138 59.2878 327.72 58.1001 327.72 56.643C327.72 55.1859 328.138 54.0209 328.971 53.0837Z" fill="white"/>
<path d="M350.988 60.5767C350.246 61.1839 349.292 61.4874 348.124 61.4874C347.585 61.4874 347.076 61.3888 346.593 61.1953C346.111 60.9979 345.67 60.7285 345.27 60.3832C344.87 60.0379 344.524 59.6243 344.226 59.1348C343.928 58.6491 343.698 58.1103 343.528 57.5107L341.078 58.5201C341.561 60.2011 342.431 61.5254 343.694 62.4968C344.957 63.4682 346.412 63.9539 348.063 63.9539C349.918 63.9539 351.494 63.4303 352.794 62.383C354.076 61.3167 354.713 59.9013 354.713 58.1444C354.713 56.6835 354.283 55.4541 353.42 54.4523C352.557 53.4505 351.113 52.6043 349.092 51.9099C347.106 51.2231 345.817 50.6273 345.225 50.1265C344.686 49.6256 344.418 49.0298 344.418 48.343C344.418 47.5082 344.761 46.829 345.447 46.3091C346.133 45.7513 346.978 45.4705 347.98 45.4705C348.927 45.4705 349.729 45.7171 350.385 46.2142C351.045 46.7075 351.486 47.3298 351.708 48.0774L354.102 47.068C353.729 45.9107 352.99 44.9468 351.878 44.1841C350.766 43.3987 349.447 43.0078 347.928 43.0078C346.201 43.0078 344.746 43.5315 343.559 44.575C342.39 45.6223 341.806 46.8821 341.806 48.3582C341.806 50.468 342.861 52.0655 344.976 53.1469C345.364 53.3519 346.359 53.7427 347.954 54.3233C349.53 54.8659 350.608 55.4237 351.181 56.0043C351.791 56.6 352.101 57.321 352.101 58.1596C352.101 59.169 351.727 59.9772 350.988 60.5843V60.5767Z" fill="white"/>
<path d="M364.231 49.3308C363.361 49.3308 362.52 49.5547 361.713 50.0025C360.907 50.4502 360.307 51.0118 359.919 51.6835H359.806L359.919 49.7786V43.4492H357.359V63.5036H359.919V56.0245C359.919 54.8671 360.277 53.854 360.99 52.985C361.702 52.1161 362.58 51.6835 363.621 51.6835C365.792 51.6835 366.878 52.9167 366.878 55.3794V63.5036H369.437V54.8747C369.437 53.1026 368.989 51.7328 368.088 50.7728C367.187 49.8127 365.905 49.3308 364.235 49.3308H364.231Z" fill="white"/>
<path d="M375.804 69.5547L384.349 49.7773H381.564L377.613 59.6395H377.557L373.497 49.7773H370.711L376.331 62.6334L373.161 69.5547H375.804Z" fill="white"/>
<path d="M388.47 63.5008L388.357 61.5959H388.47C388.914 62.3055 389.551 62.8747 390.377 63.3035C391.203 63.7323 392.115 63.9486 393.118 63.9486C394.916 63.9486 396.439 63.239 397.683 61.8198C398.964 60.4006 399.601 58.6741 399.601 56.6364C399.601 54.5987 398.96 52.8911 397.683 51.453C396.439 50.0338 394.919 49.3242 393.118 49.3242C392.115 49.3242 391.203 49.5405 390.377 49.9693C389.551 50.3981 388.914 50.9673 388.47 51.6769H388.357V49.772H385.906V69.5494H388.466V63.5008H388.47ZM389.582 53.0809C390.415 52.1474 391.455 51.6807 392.699 51.6807C393.943 51.6807 394.953 52.1474 395.786 53.0809C396.62 54.0143 397.038 55.202 397.038 56.6402C397.038 58.0783 396.62 59.2812 395.786 60.1995C394.953 61.133 393.92 61.5997 392.699 61.5997C391.478 61.5997 390.419 61.1406 389.582 60.2261C388.764 59.2926 388.357 58.0973 388.357 56.6402C388.357 55.1831 388.764 54.0181 389.582 53.0809Z" fill="white"/>
</g>
</g>
<defs>
<filter id="filter0_d_12824_2" x="90" y="18" width="578" height="241.516" filterUnits="userSpaceOnUse" color-interpolation-filters="sRGB">
<feFlood flood-opacity="0" result="BackgroundImageFix"/>
<feColorMatrix in="SourceAlpha" type="matrix" values="0 0 0 0 0 0 0 0 0 0 0 0 0 0 0 0 0 0 127 0" result="hardAlpha"/>
<feOffset dy="4"/>
<feGaussianBlur stdDeviation="2"/>
<feComposite in2="hardAlpha" operator="out"/>
<feColorMatrix type="matrix" values="0 0 0 0 0 0 0 0 0 0 0 0 0 0 0 0 0 0 0.25 0"/>
<feBlend mode="normal" in2="BackgroundImageFix" result="effect1_dropShadow_12824_2"/>
<feBlend mode="normal" in="SourceGraphic" in2="effect1_dropShadow_12824_2" result="shape"/>
</filter>
<filter id="filter1_f_12824_2" x="0" y="0" width="758" height="345.516" filterUnits="userSpaceOnUse" color-interpolation-filters="sRGB">
<feFlood flood-opacity="0" result="BackgroundImageFix"/>
<feBlend mode="normal" in="SourceGraphic" in2="BackgroundImageFix" result="shape"/>
<feGaussianBlur stdDeviation="47" result="effect1_foregroundBlur_12824_2"/>
</filter>
<filter id="filter2_i_12824_2" x="545.094" y="19.2227" width="21.4531" height="25.4531" filterUnits="userSpaceOnUse" color-interpolation-filters="sRGB">
<feFlood flood-opacity="0" result="BackgroundImageFix"/>
<feBlend mode="normal" in="SourceGraphic" in2="BackgroundImageFix" result="shape"/>
<feColorMatrix in="SourceAlpha" type="matrix" values="0 0 0 0 0 0 0 0 0 0 0 0 0 0 0 0 0 0 127 0" result="hardAlpha"/>
<feOffset dy="4"/>
<feGaussianBlur stdDeviation="12"/>
<feComposite in2="hardAlpha" operator="arithmetic" k2="-1" k3="1"/>
<feColorMatrix type="matrix" values="0 0 0 0 1 0 0 0 0 1 0 0 0 0 1 0 0 0 1 0"/>
<feBlend mode="normal" in2="shape" result="effect1_innerShadow_12824_2"/>
</filter>
<filter id="filter3_i_12824_2" x="152.109" y="94.5547" width="434.055" height="99.5742" filterUnits="userSpaceOnUse" color-interpolation-filters="sRGB">
<feFlood flood-opacity="0" result="BackgroundImageFix"/>
<feBlend mode="normal" in="SourceGraphic" in2="BackgroundImageFix" result="shape"/>
<feColorMatrix in="SourceAlpha" type="matrix" values="0 0 0 0 0 0 0 0 0 0 0 0 0 0 0 0 0 0 127 0" result="hardAlpha"/>
<feOffset/>
<feGaussianBlur stdDeviation="32"/>
<feComposite in2="hardAlpha" operator="arithmetic" k2="-1" k3="1"/>
<feColorMatrix type="matrix" values="0 0 0 0 0 0 0 0 0 0 0 0 0 0 0 0 0 0 0.1 0"/>
<feBlend mode="normal" in2="shape" result="effect1_innerShadow_12824_2"/>
</filter>
<linearGradient id="paint0_linear_12824_2" x1="144.106" y1="107.765" x2="415.541" y2="-94.9451" gradientUnits="userSpaceOnUse">
<stop stop-color="#F7C538"/>
<stop offset="1" stop-color="#B158F5"/>
</linearGradient>
<linearGradient id="paint1_linear_12824_2" x1="434.055" y1="49.7878" x2="0" y2="49.7878" gradientUnits="userSpaceOnUse">
<stop stop-color="white"/>
<stop offset="1" stop-color="white"/>
</linearGradient>
<linearGradient id="paint2_linear_12824_2" x1="175.817" y1="23.0502" x2="129.753" y2="12.7673" gradientUnits="userSpaceOnUse">
<stop stop-color="#FF3700"/>
<stop offset="1" stop-color="#B158F5"/>
</linearGradient>
<linearGradient id="paint3_linear_12824_2" x1="149.6" y1="30.8516" x2="149.6" y2="55.7655" gradientUnits="userSpaceOnUse">
<stop stop-color="white"/>
<stop offset="1" stop-color="white" stop-opacity="0.09"/>
</linearGradient>
<linearGradient id="paint4_linear_12824_2" x1="631.236" y1="66.7529" x2="583.466" y2="56.0892" gradientUnits="userSpaceOnUse">
<stop stop-color="#FF3700"/>
<stop offset="1" stop-color="#B158F5"/>
</linearGradient>
<linearGradient id="paint5_linear_12824_2" x1="606.061" y1="73.6289" x2="606.061" y2="101.879" gradientUnits="userSpaceOnUse">
<stop stop-color="white"/>
<stop offset="1" stop-color="white" stop-opacity="0.1"/>
</linearGradient>
<linearGradient id="paint6_linear_12824_2" x1="304.577" y1="164.991" x2="304.577" y2="55.6539" gradientUnits="userSpaceOnUse">
<stop stop-color="#460875"/>
<stop offset="1" stop-color="#EE8A34"/>
</linearGradient>
<linearGradient id="paint7_linear_12824_2" x1="372.366" y1="164.991" x2="372.366" y2="55.6538" gradientUnits="userSpaceOnUse">
<stop stop-color="#460875"/>
<stop offset="1" stop-color="#EE8A34"/>
</linearGradient>
<linearGradient id="paint8_linear_12824_2" x1="462.149" y1="164.992" x2="462.149" y2="55.6551" gradientUnits="userSpaceOnUse">
<stop stop-color="#460875"/>
<stop offset="1" stop-color="#EE8A34"/>
</linearGradient>
<linearGradient id="paint9_linear_12824_2" x1="530.926" y1="164.991" x2="530.926" y2="55.6539" gradientUnits="userSpaceOnUse">
<stop stop-color="#460875"/>
<stop offset="1" stop-color="#EE8A34"/>
</linearGradient>
<linearGradient id="paint10_linear_12824_2" x1="530.921" y1="164.99" x2="530.921" y2="55.6532" gradientUnits="userSpaceOnUse">
<stop stop-color="#460875"/>
<stop offset="1" stop-color="#EE8A34"/>
</linearGradient>
<linearGradient id="paint11_linear_12824_2" x1="236.575" y1="164.99" x2="236.575" y2="55.6529" gradientUnits="userSpaceOnUse">
<stop stop-color="#460875"/>
<stop offset="1" stop-color="#EE8A34"/>
</linearGradient>
<clipPath id="clip0_12824_2">
<rect width="25.3093" height="25.3093" fill="white" transform="translate(136.945 30.6562)"/>
</clipPath>
<clipPath id="clip1_12824_2">
<rect width="28.2657" height="28.2657" fill="white" transform="translate(591.93 73.6289)"/>
</clipPath>
<clipPath id="clip2_12824_2">
<rect width="342" height="120" fill="white" transform="translate(198 43)"/>
</clipPath>
</defs>
</svg>
