<svg width="135" height="272" viewBox="0 0 135 272" fill="none" xmlns="http://www.w3.org/2000/svg">
<g filter="url(#filter0_i_12791_2)">
<path d="M-36.1596 109.754C-35.5186 112.329 -36.587 113.474 -37.4417 114.547C-46.0602 126.353 -54.4651 138.373 -65.9327 147.745C-66.7874 148.461 -67.4997 149.462 -68.1408 150.393C-68.7818 151.323 -68.0695 152.897 -66.8587 153.111C-63.5822 153.755 -60.4482 153.398 -57.5279 151.68C-54.2514 149.749 -51.0462 147.745 -47.8409 145.742C-46.7013 145.027 -45.989 143.524 -44.2796 144.025C-44.1371 144.311 -43.9234 144.669 -43.9947 144.812C-51.8297 159.264 -60.5906 173.002 -73.554 183.591C-76.4744 185.952 -79.6796 188.098 -82.7424 190.316C-83.4547 190.817 -83.9533 191.675 -83.4547 192.606C-83.241 193.035 -82.5999 193.393 -82.1013 193.607C-79.0386 194.68 -75.9045 194.823 -72.6281 194.394C-65.5053 193.464 -59.0949 190.888 -53.0405 187.168C-52.0433 186.596 -51.1174 185.809 -49.9778 185.451C-49.2655 185.165 -48.1971 185.165 -47.556 185.522C-46.5588 186.023 -47.1286 187.096 -47.4848 187.812C-51.9721 195.682 -56.8156 203.409 -63.0124 210.063C-73.2691 221.081 -84.9505 230.168 -98.4124 236.965C-99.9794 237.752 -101.546 238.539 -103.042 239.469C-103.683 239.898 -104.253 240.685 -104.467 241.401C-104.823 242.546 -103.683 242.832 -102.971 243.19C-100.336 244.62 -97.4153 244.835 -94.4949 245.05C-86.8736 245.694 -79.3235 245.407 -72.1295 242.474C-71.2748 242.116 -70.3488 242.259 -70.0639 243.19C-69.9214 243.619 -70.1351 244.334 -70.42 244.764C-79.6084 259.932 -91.9307 271.594 -108.313 278.677C-111.233 279.965 -114.225 281.181 -117.074 282.541C-117.501 282.755 -117.929 283.471 -118 283.9C-118 284.329 -117.573 285.045 -117.216 285.188C-114.795 286.118 -112.302 287.12 -109.809 287.692C-82.2438 293.917 -55.391 292.557 -29.4642 280.466C-28.9656 280.251 -28.3958 280.036 -27.826 279.822C-26.7576 279.464 -25.5467 280.68 -25.8316 281.825C-27.0425 287.334 -29.6067 292.271 -31.886 297.351C-32.7407 299.211 -33.6667 301 -34.3789 302.932C-35.0912 304.863 -33.5954 306.58 -31.6011 306.08C-29.1081 305.436 -26.5439 304.649 -24.1222 303.647C-16.6433 300.356 -8.8795 297.637 -2.54025 292.199C-1.89921 291.627 -0.902033 291.484 -0.189758 292.128C0.166379 292.414 0.308837 293.201 0.23761 293.702C-1.18694 303.719 -4.60584 312.948 -10.5889 321.176C-12.0847 323.179 -15.0051 325.254 -13.2244 327.902C-11.9423 329.833 -8.87951 328.689 -6.60023 328.402C2.73056 327.329 11.9901 327.401 21.3209 328.116C23.0304 328.259 24.8111 328.259 26.5206 328.188C28.23 328.116 29.156 326.471 28.3013 325.111C27.3041 323.68 26.2356 322.321 25.1672 320.89C19.469 312.877 16.2638 303.79 15.0529 294.06C14.9817 293.273 15.3378 292.414 15.5515 291.627C17.6883 291.198 18.9704 292.557 20.395 293.559C26.7342 297.923 33.7858 300.642 40.7661 303.647C43.1166 304.649 45.8232 305.15 48.3162 305.65C50.3818 306.08 51.5214 304.506 50.7379 302.359C50.0256 300.427 49.0284 298.639 48.2449 296.778C46.2506 291.913 44.3274 286.976 42.4755 282.111C42.1906 281.396 42.3331 280.323 42.6892 279.679C43.1878 278.82 44.1137 278.963 44.9685 279.392C71.1802 292.915 98.7452 293.058 126.88 287.477C129.729 286.905 132.721 286.69 135 284.544C134.858 282.684 133.433 282.326 132.151 281.825C125.313 279.178 118.689 276.244 112.563 272.166C101.666 264.94 93.3319 255.209 86.0667 244.477C85.7818 244.048 85.9243 243.404 85.8531 242.832C87.1351 241.401 88.5597 242.474 89.7706 242.903C97.9617 245.765 106.367 245.551 114.843 244.549C116.267 244.406 117.692 243.833 118.974 243.333C119.971 242.903 121.253 242.617 121.467 241.186C121.68 239.755 120.541 239.183 119.544 238.61C114.7 235.963 109.714 233.531 104.942 230.669C90.9814 222.369 78.944 211.852 69.8981 198.186C68.1174 195.467 66.4792 192.749 64.9834 189.887C63.3452 186.81 63.2027 184.521 64.4136 184.378C66.4079 184.163 67.69 185.451 68.9721 186.524C74.8128 191.318 81.6506 193.607 88.9871 194.752C91.6225 195.11 94.2579 195.324 96.7508 194.394C97.748 194.036 99.1014 193.464 99.5287 192.606C100.099 191.461 98.9589 190.531 97.9617 189.815C94.6853 187.383 91.2663 185.093 88.1323 182.446C81.3657 176.794 75.5963 170.211 70.8241 162.77C67.1914 157.118 63.6301 151.394 59.9975 145.742C59.5701 145.027 59.0715 143.953 60.1399 143.452C60.7098 143.166 61.8494 143.524 62.348 143.953C66.1943 147.101 70.183 150.035 74.884 151.895C77.6619 153.04 80.4398 153.684 83.4313 153.04C84.8559 152.754 85.6394 150.679 84.6422 149.606C83.645 148.532 82.5766 147.602 81.4369 146.601C71.3226 137.586 63.2027 126.925 55.2252 116.05C54.0856 114.476 52.5898 112.902 52.8747 110.04C55.3677 111.042 57.7182 111.972 59.9975 112.973C65.2683 115.191 70.824 115.191 76.3798 114.547C77.5194 114.404 78.6591 113.975 79.6562 113.474C81.0096 112.83 82.5054 112.043 82.6478 110.541C82.7903 108.824 81.2233 108.251 79.8699 107.679C61.422 100.453 48.1025 87.2878 38.1306 70.5457C27.0192 51.8003 19.0417 31.6955 13.0586 10.8037C11.9901 7.15474 10.8505 3.57737 9.78211 0C7.07547 0.286189 7.00424 2.21797 6.43442 3.79201C2.87304 14.0233 -0.545882 24.3261 -4.24971 34.4858C-8.8795 47.1497 -14.7202 59.3128 -21.8429 70.7604C-32.0997 87.2162 -44.4932 101.311 -63.4397 107.965C-63.9383 108.18 -64.4369 108.609 -64.8643 108.895C-65.719 109.467 -65.719 111.185 -64.7931 111.9C-62.7275 113.689 -60.2345 114.476 -57.5991 114.69C-53.183 115.048 -48.8381 114.619 -44.7069 113.045C-42.0715 112.043 -39.4361 110.97 -36.1596 109.754Z" fill="#006832"/>
</g>
<g filter="url(#filter1_i_12791_2)">
<path d="M104.911 34.4227C105.152 35.0169 104.866 35.6943 104.272 35.9358L101.045 37.2484L104.032 39.0433C104.589 39.3615 104.782 40.071 104.464 40.6281C104.146 41.1852 103.437 41.3789 102.88 41.0608C102.865 41.0522 102.85 41.0433 102.835 41.0341L99.8483 39.2394L100.205 42.7067C100.26 43.3458 99.7866 43.9087 99.1474 43.9639C98.5227 44.018 97.9679 43.5664 97.894 42.9438L97.3596 37.7439L91.6515 34.3149V40.9739L95.8332 44.1101C96.3464 44.4951 96.4504 45.2232 96.0655 45.7364C95.6806 46.2496 94.9525 46.3536 94.4393 45.9687L91.6514 43.8779V47.3626C91.6514 48.0041 91.1313 48.5242 90.4898 48.5242C89.8483 48.5242 89.3282 48.0041 89.3282 47.3626V43.8779L86.5404 45.9687C86.0272 46.3536 85.2991 46.2496 84.9142 45.7364C84.5292 45.2232 84.6332 44.4951 85.1464 44.1101L89.3281 40.9739V34.3149L83.6205 37.7448L83.0862 42.9446C83.0309 43.5838 82.4681 44.0571 81.8289 44.0019C81.1897 43.9466 80.7164 43.3838 80.7716 42.7446C80.7727 42.7323 80.7739 42.7198 80.7754 42.7075L81.1319 39.2402L78.1449 41.0349C77.6026 41.3775 76.8851 41.2157 76.5425 40.6733C76.1998 40.131 76.3617 39.4135 76.904 39.0708C76.9186 39.0616 76.9335 39.0527 76.9484 39.0441L79.9356 37.2492L76.708 35.9366C76.1176 35.6856 75.8424 35.0036 76.0934 34.4132C76.3387 33.836 76.9979 33.5578 77.5825 33.7846L82.4247 35.7537L88.2348 32.262L82.4242 28.7706L77.582 30.7403C76.9839 30.9724 76.311 30.6756 76.0789 30.0775C75.8521 29.4928 76.1303 28.8336 76.7075 28.5883L79.9351 27.2757L76.9481 25.4804C76.391 25.1622 76.1974 24.4527 76.5154 23.8957C76.8336 23.3386 77.5431 23.145 78.1001 23.463C78.1151 23.4716 78.1299 23.4805 78.1445 23.4897L81.1315 25.2844L80.775 21.8172C80.7096 21.179 81.1738 20.6085 81.812 20.5431C82.4502 20.4776 83.0206 20.9419 83.0861 21.58L83.6204 26.7799L89.3284 30.2094V23.5502L85.1467 20.414C84.6333 20.0292 84.529 19.3013 84.9138 18.7878C85.2985 18.2744 86.0265 18.1701 86.5399 18.5549C86.5402 18.5551 86.5404 18.5553 86.5407 18.5555L89.3285 20.6463V17.1616C89.3284 16.5201 89.8485 16 90.49 16C91.1315 16 91.6516 16.5201 91.6516 17.1616V20.6464L94.4395 18.5556C94.9527 18.1706 95.6808 18.2746 96.0657 18.7878C96.4506 19.3011 96.3466 20.0291 95.8334 20.4141L91.6517 23.5503V30.2094L97.3596 26.7795L97.894 21.5796C97.9697 20.9426 98.5475 20.4875 99.1846 20.5632C99.8072 20.6372 100.259 21.1919 100.205 21.8167L99.8483 25.2839L102.835 23.4892C103.378 23.1466 104.095 23.3084 104.438 23.8509C104.78 24.3933 104.618 25.1107 104.076 25.4534C104.061 25.4626 104.047 25.4715 104.032 25.4801L101.044 27.275L104.272 28.5876C104.862 28.8386 105.138 29.5207 104.887 30.1111C104.641 30.6882 103.982 30.9664 103.397 30.7396L98.5553 28.7705L92.7451 32.2623L98.5558 35.7536L103.398 33.7845C103.991 33.5425 104.668 33.8273 104.91 34.4205C104.91 34.4211 104.911 34.422 104.911 34.4227Z" fill="#C4DFE8"/>
</g>
<defs>
<filter id="filter0_i_12791_2" x="-118" y="0" width="253" height="333" filterUnits="userSpaceOnUse" color-interpolation-filters="sRGB">
<feFlood flood-opacity="0" result="BackgroundImageFix"/>
<feBlend mode="normal" in="SourceGraphic" in2="BackgroundImageFix" result="shape"/>
<feColorMatrix in="SourceAlpha" type="matrix" values="0 0 0 0 0 0 0 0 0 0 0 0 0 0 0 0 0 0 127 0" result="hardAlpha"/>
<feOffset dy="4"/>
<feGaussianBlur stdDeviation="27"/>
<feComposite in2="hardAlpha" operator="arithmetic" k2="-1" k3="1"/>
<feColorMatrix type="matrix" values="0 0 0 0 1 0 0 0 0 1 0 0 0 0 1 0 0 0 0.98 0"/>
<feBlend mode="normal" in2="shape" result="effect1_innerShadow_12791_2"/>
</filter>
<filter id="filter1_i_12791_2" x="76" y="16" width="29" height="32.5234" filterUnits="userSpaceOnUse" color-interpolation-filters="sRGB">
<feFlood flood-opacity="0" result="BackgroundImageFix"/>
<feBlend mode="normal" in="SourceGraphic" in2="BackgroundImageFix" result="shape"/>
<feColorMatrix in="SourceAlpha" type="matrix" values="0 0 0 0 0 0 0 0 0 0 0 0 0 0 0 0 0 0 127 0" result="hardAlpha"/>
<feOffset/>
<feGaussianBlur stdDeviation="11.5"/>
<feComposite in2="hardAlpha" operator="arithmetic" k2="-1" k3="1"/>
<feColorMatrix type="matrix" values="0 0 0 0 1 0 0 0 0 1 0 0 0 0 1 0 0 0 0.45 0"/>
<feBlend mode="normal" in2="shape" result="effect1_innerShadow_12791_2"/>
</filter>
</defs>
</svg>
