<svg width="786" height="402" viewBox="0 0 786 402" fill="none" xmlns="http://www.w3.org/2000/svg">
<g clip-path="url(#clip0_12791_4)">
<rect width="786" height="402" rx="24" fill="white"/>
<g filter="url(#filter0_i_12791_4)">
<path d="M-36.1596 239.754C-35.5186 242.329 -36.587 243.474 -37.4417 244.547C-46.0602 256.353 -54.4651 268.373 -65.9327 277.745C-66.7874 278.461 -67.4997 279.462 -68.1408 280.393C-68.7818 281.323 -68.0695 282.897 -66.8587 283.111C-63.5822 283.755 -60.4482 283.398 -57.5279 281.68C-54.2514 279.749 -51.0462 277.745 -47.8409 275.742C-46.7013 275.027 -45.989 273.524 -44.2796 274.025C-44.1371 274.311 -43.9234 274.669 -43.9947 274.812C-51.8297 289.264 -60.5906 303.002 -73.554 313.591C-76.4744 315.952 -79.6796 318.098 -82.7424 320.316C-83.4547 320.817 -83.9533 321.675 -83.4547 322.606C-83.241 323.035 -82.5999 323.393 -82.1013 323.607C-79.0386 324.68 -75.9045 324.823 -72.6281 324.394C-65.5053 323.464 -59.0949 320.888 -53.0405 317.168C-52.0433 316.596 -51.1174 315.809 -49.9778 315.451C-49.2655 315.165 -48.1971 315.165 -47.556 315.522C-46.5588 316.023 -47.1286 317.096 -47.4848 317.812C-51.9721 325.682 -56.8156 333.409 -63.0124 340.063C-73.2691 351.081 -84.9505 360.168 -98.4124 366.965C-99.9794 367.752 -101.546 368.539 -103.042 369.469C-103.683 369.898 -104.253 370.685 -104.467 371.401C-104.823 372.546 -103.683 372.832 -102.971 373.19C-100.336 374.62 -97.4153 374.835 -94.4949 375.05C-86.8736 375.694 -79.3235 375.407 -72.1295 372.474C-71.2748 372.116 -70.3488 372.259 -70.0639 373.19C-69.9214 373.619 -70.1351 374.334 -70.42 374.764C-79.6084 389.932 -91.9307 401.594 -108.313 408.677C-111.233 409.965 -114.225 411.181 -117.074 412.541C-117.501 412.755 -117.929 413.471 -118 413.9C-118 414.329 -117.573 415.045 -117.216 415.188C-114.795 416.118 -112.302 417.12 -109.809 417.692C-82.2438 423.917 -55.391 422.557 -29.4642 410.466C-28.9656 410.251 -28.3958 410.036 -27.826 409.822C-26.7576 409.464 -25.5467 410.68 -25.8316 411.825C-27.0425 417.334 -29.6067 422.271 -31.886 427.351C-32.7407 429.211 -33.6667 431 -34.3789 432.932C-35.0912 434.863 -33.5954 436.58 -31.6011 436.08C-29.1081 435.436 -26.5439 434.649 -24.1222 433.647C-16.6433 430.356 -8.8795 427.637 -2.54025 422.199C-1.89921 421.627 -0.902033 421.484 -0.189758 422.128C0.166379 422.414 0.308837 423.201 0.23761 423.702C-1.18694 433.719 -4.60584 442.948 -10.5889 451.176C-12.0847 453.179 -15.0051 455.254 -13.2244 457.902C-11.9423 459.833 -8.87951 458.689 -6.60023 458.402C2.73056 457.329 11.9901 457.401 21.3209 458.116C23.0304 458.259 24.8111 458.259 26.5206 458.188C28.23 458.116 29.156 456.471 28.3013 455.111C27.3041 453.68 26.2356 452.321 25.1672 450.89C19.469 442.877 16.2638 433.79 15.0529 424.06C14.9817 423.273 15.3378 422.414 15.5515 421.627C17.6883 421.198 18.9704 422.557 20.395 423.559C26.7342 427.923 33.7858 430.642 40.7661 433.647C43.1166 434.649 45.8232 435.15 48.3162 435.65C50.3818 436.08 51.5214 434.506 50.7379 432.359C50.0256 430.427 49.0284 428.639 48.2449 426.778C46.2506 421.913 44.3274 416.976 42.4755 412.111C42.1906 411.396 42.3331 410.323 42.6892 409.679C43.1878 408.82 44.1137 408.963 44.9685 409.392C71.1802 422.915 98.7452 423.058 126.88 417.477C129.729 416.905 132.721 416.69 135 414.544C134.858 412.684 133.433 412.326 132.151 411.825C125.313 409.178 118.689 406.244 112.563 402.166C101.666 394.94 93.3319 385.209 86.0667 374.477C85.7818 374.048 85.9243 373.404 85.8531 372.832C87.1351 371.401 88.5597 372.474 89.7706 372.903C97.9617 375.765 106.367 375.551 114.843 374.549C116.267 374.406 117.692 373.833 118.974 373.333C119.971 372.903 121.253 372.617 121.467 371.186C121.68 369.755 120.541 369.183 119.544 368.61C114.7 365.963 109.714 363.531 104.942 360.669C90.9814 352.369 78.944 341.852 69.8981 328.186C68.1174 325.467 66.4792 322.749 64.9834 319.887C63.3452 316.81 63.2027 314.521 64.4136 314.378C66.4079 314.163 67.69 315.451 68.9721 316.524C74.8128 321.318 81.6506 323.607 88.9871 324.752C91.6225 325.11 94.2579 325.324 96.7508 324.394C97.748 324.036 99.1014 323.464 99.5287 322.606C100.099 321.461 98.9589 320.531 97.9617 319.815C94.6853 317.383 91.2663 315.093 88.1323 312.446C81.3657 306.794 75.5963 300.211 70.8241 292.77C67.1914 287.118 63.6301 281.394 59.9975 275.742C59.5701 275.027 59.0715 273.953 60.1399 273.452C60.7098 273.166 61.8494 273.524 62.348 273.953C66.1943 277.101 70.183 280.035 74.884 281.895C77.6619 283.04 80.4398 283.684 83.4313 283.04C84.8559 282.754 85.6394 280.679 84.6422 279.606C83.645 278.532 82.5766 277.602 81.4369 276.601C71.3226 267.586 63.2027 256.925 55.2252 246.05C54.0856 244.476 52.5898 242.902 52.8747 240.04C55.3677 241.042 57.7182 241.972 59.9975 242.973C65.2683 245.191 70.824 245.191 76.3798 244.547C77.5194 244.404 78.6591 243.975 79.6562 243.474C81.0096 242.83 82.5054 242.043 82.6478 240.541C82.7903 238.824 81.2233 238.251 79.8699 237.679C61.422 230.453 48.1025 217.288 38.1306 200.546C27.0192 181.8 19.0417 161.695 13.0586 140.804C11.9901 137.155 10.8505 133.577 9.78211 130C7.07547 130.286 7.00424 132.218 6.43442 133.792C2.87304 144.023 -0.545882 154.326 -4.24971 164.486C-8.8795 177.15 -14.7202 189.313 -21.8429 200.76C-32.0997 217.216 -44.4932 231.311 -63.4397 237.965C-63.9383 238.18 -64.4369 238.609 -64.8643 238.895C-65.719 239.467 -65.719 241.185 -64.7931 241.9C-62.7275 243.689 -60.2345 244.476 -57.5991 244.69C-53.183 245.048 -48.8381 244.619 -44.7069 243.045C-42.0715 242.043 -39.4361 240.97 -36.1596 239.754Z" fill="#006832"/>
</g>
<g filter="url(#filter1_i_12791_4)">
<path d="M104.911 164.423C105.152 165.017 104.866 165.694 104.272 165.936L101.045 167.248L104.032 169.043C104.589 169.361 104.782 170.071 104.464 170.628C104.146 171.185 103.437 171.379 102.88 171.061C102.865 171.052 102.85 171.043 102.835 171.034L99.8483 169.239L100.205 172.707C100.26 173.346 99.7866 173.909 99.1474 173.964C98.5227 174.018 97.9679 173.566 97.894 172.944L97.3596 167.744L91.6515 164.315V170.974L95.8332 174.11C96.3464 174.495 96.4504 175.223 96.0655 175.736C95.6806 176.25 94.9525 176.354 94.4393 175.969L91.6514 173.878V177.363C91.6514 178.004 91.1313 178.524 90.4898 178.524C89.8483 178.524 89.3282 178.004 89.3282 177.363V173.878L86.5404 175.969C86.0272 176.354 85.2991 176.25 84.9142 175.736C84.5292 175.223 84.6332 174.495 85.1464 174.11L89.3281 170.974V164.315L83.6205 167.745L83.0862 172.945C83.0309 173.584 82.4681 174.057 81.8289 174.002C81.1897 173.947 80.7164 173.384 80.7716 172.745C80.7727 172.732 80.7739 172.72 80.7754 172.707L81.1319 169.24L78.1449 171.035C77.6026 171.378 76.8851 171.216 76.5425 170.673C76.1998 170.131 76.3617 169.413 76.904 169.071C76.9186 169.062 76.9335 169.053 76.9484 169.044L79.9356 167.249L76.708 165.937C76.1176 165.686 75.8424 165.004 76.0934 164.413C76.3387 163.836 76.9979 163.558 77.5825 163.785L82.4247 165.754L88.2348 162.262L82.4242 158.771L77.582 160.74C76.9839 160.972 76.311 160.676 76.0789 160.077C75.8521 159.493 76.1303 158.834 76.7075 158.588L79.9351 157.276L76.9481 155.48C76.391 155.162 76.1974 154.453 76.5154 153.896C76.8336 153.339 77.5431 153.145 78.1001 153.463C78.1151 153.472 78.1299 153.481 78.1445 153.49L81.1315 155.284L80.775 151.817C80.7096 151.179 81.1738 150.609 81.812 150.543C82.4502 150.478 83.0206 150.942 83.0861 151.58L83.6204 156.78L89.3284 160.209V153.55L85.1467 150.414C84.6333 150.029 84.529 149.301 84.9138 148.788C85.2985 148.274 86.0265 148.17 86.5399 148.555C86.5402 148.555 86.5404 148.555 86.5407 148.555L89.3285 150.646V147.162C89.3284 146.52 89.8485 146 90.49 146C91.1315 146 91.6516 146.52 91.6516 147.162V150.646L94.4395 148.556C94.9527 148.171 95.6808 148.275 96.0657 148.788C96.4506 149.301 96.3466 150.029 95.8334 150.414L91.6517 153.55V160.209L97.3596 156.779L97.894 151.58C97.9697 150.943 98.5475 150.488 99.1846 150.563C99.8072 150.637 100.259 151.192 100.205 151.817L99.8483 155.284L102.835 153.489C103.378 153.147 104.095 153.308 104.438 153.851C104.78 154.393 104.618 155.111 104.076 155.453C104.061 155.463 104.047 155.471 104.032 155.48L101.044 157.275L104.272 158.588C104.862 158.839 105.138 159.521 104.887 160.111C104.641 160.688 103.982 160.966 103.397 160.74L98.5553 158.771L92.7451 162.262L98.5558 165.754L103.398 163.785C103.991 163.543 104.668 163.827 104.91 164.421C104.91 164.421 104.911 164.422 104.911 164.423Z" fill="#C4DFE8"/>
</g>
<g filter="url(#filter2_i_12791_4)">
<path d="M722.84 239.754C723.481 242.329 722.413 243.474 721.558 244.547C712.94 256.353 704.535 268.373 693.067 277.745C692.213 278.461 691.5 279.462 690.859 280.393C690.218 281.323 690.93 282.897 692.141 283.111C695.418 283.755 698.552 283.398 701.472 281.68C704.749 279.749 707.954 277.745 711.159 275.742C712.299 275.027 713.011 273.524 714.72 274.025C714.863 274.311 715.077 274.669 715.005 274.812C707.17 289.264 698.409 303.002 685.446 313.591C682.526 315.952 679.32 318.098 676.258 320.316C675.545 320.817 675.047 321.675 675.545 322.606C675.759 323.035 676.4 323.393 676.899 323.607C679.961 324.68 683.095 324.824 686.372 324.394C693.495 323.464 699.905 320.888 705.959 317.168C706.957 316.596 707.883 315.809 709.022 315.451C709.735 315.165 710.803 315.165 711.444 315.522C712.441 316.023 711.871 317.096 711.515 317.812C707.028 325.682 702.184 333.409 695.988 340.063C685.731 351.081 674.05 360.168 660.588 366.965C659.021 367.752 657.454 368.539 655.958 369.469C655.317 369.898 654.747 370.685 654.533 371.401C654.177 372.546 655.317 372.832 656.029 373.19C658.664 374.62 661.585 374.835 664.505 375.05C672.126 375.694 679.677 375.407 686.87 372.474C687.725 372.116 688.651 372.259 688.936 373.19C689.079 373.619 688.865 374.334 688.58 374.764C679.392 389.932 667.069 401.594 650.687 408.677C647.767 409.965 644.775 411.181 641.926 412.541C641.499 412.755 641.071 413.471 641 413.9C641 414.329 641.427 415.045 641.784 415.188C644.205 416.118 646.698 417.12 649.191 417.692C676.756 423.917 703.609 422.557 729.536 410.466C730.034 410.251 730.604 410.036 731.174 409.822C732.242 409.464 733.453 410.68 733.168 411.825C731.957 417.334 729.393 422.271 727.114 427.351C726.259 429.211 725.333 431 724.621 432.932C723.909 434.863 725.405 436.58 727.399 436.08C729.892 435.436 732.456 434.649 734.878 433.647C742.357 430.356 750.121 427.637 756.46 422.199C757.101 421.627 758.098 421.484 758.81 422.128C759.166 422.414 759.309 423.201 759.238 423.702C757.813 433.719 754.394 442.948 748.411 451.176C746.915 453.179 743.995 455.254 745.776 457.902C747.058 459.833 750.12 458.689 752.4 458.402C761.731 457.329 770.99 457.401 780.321 458.116C782.03 458.259 783.811 458.259 785.521 458.188C787.23 458.116 788.156 456.471 787.301 455.111C786.304 453.68 785.236 452.321 784.167 450.89C778.469 442.877 775.264 433.79 774.053 424.06C773.982 423.273 774.338 422.414 774.552 421.627C776.688 421.198 777.97 422.557 779.395 423.559C785.734 427.923 792.786 430.642 799.766 433.647C802.117 434.649 804.823 435.15 807.316 435.65C809.382 436.08 810.521 434.506 809.738 432.359C809.026 430.427 808.028 428.639 807.245 426.778C805.251 421.913 803.327 416.976 801.476 412.111C801.191 411.396 801.333 410.323 801.689 409.679C802.188 408.82 803.114 408.963 803.968 409.392C830.18 422.915 857.745 423.058 885.88 417.477C888.729 416.905 891.721 416.69 894 414.544C893.858 412.684 892.433 412.326 891.151 411.825C884.313 409.178 877.689 406.244 871.563 402.166C860.666 394.94 852.332 385.209 845.067 374.477C844.782 374.048 844.924 373.404 844.853 372.832C846.135 371.401 847.56 372.474 848.771 372.903C856.962 375.765 865.367 375.551 873.843 374.549C875.267 374.406 876.692 373.833 877.974 373.333C878.971 372.903 880.253 372.617 880.467 371.186C880.68 369.755 879.541 369.183 878.544 368.61C873.7 365.963 868.714 363.531 863.942 360.669C849.981 352.369 837.944 341.852 828.898 328.186C827.117 325.467 825.479 322.749 823.983 319.887C822.345 316.81 822.203 314.521 823.414 314.378C825.408 314.163 826.69 315.451 827.972 316.524C833.813 321.318 840.651 323.607 847.987 324.752C850.622 325.11 853.258 325.324 855.751 324.394C856.748 324.036 858.101 323.464 858.529 322.606C859.099 321.461 857.959 320.531 856.962 319.815C853.685 317.383 850.266 315.093 847.132 312.446C840.366 306.794 834.596 300.211 829.824 292.77C826.191 287.118 822.63 281.394 818.997 275.742C818.57 275.027 818.072 273.953 819.14 273.452C819.71 273.166 820.849 273.524 821.348 273.953C825.194 277.101 829.183 280.035 833.884 281.895C836.662 283.04 839.44 283.684 842.431 283.04C843.856 282.754 844.639 280.679 843.642 279.606C842.645 278.532 841.577 277.602 840.437 276.601C830.323 267.586 822.203 256.925 814.225 246.05C813.086 244.476 811.59 242.902 811.875 240.04C814.368 241.042 816.718 241.972 818.997 242.973C824.268 245.191 829.824 245.191 835.38 244.547C836.519 244.404 837.659 243.975 838.656 243.474C840.01 242.83 841.505 242.043 841.648 240.541C841.79 238.824 840.223 238.251 838.87 237.679C820.422 230.453 807.102 217.288 797.131 200.546C786.019 181.8 778.042 161.695 772.059 140.804C770.99 137.155 769.851 133.577 768.782 130C766.075 130.286 766.004 132.218 765.434 133.792C761.873 144.023 758.454 154.326 754.75 164.486C750.121 177.15 744.28 189.313 737.157 200.76C726.9 217.216 714.507 231.311 695.56 237.965C695.062 238.18 694.563 238.609 694.136 238.895C693.281 239.467 693.281 241.185 694.207 241.9C696.273 243.689 698.766 244.476 701.401 244.69C705.817 245.048 710.162 244.619 714.293 243.045C716.928 242.043 719.564 240.97 722.84 239.754Z" fill="#006832"/>
</g>
<g filter="url(#filter3_i_12791_4)">
<path d="M686.911 148.423C687.152 149.017 686.866 149.694 686.272 149.936L683.045 151.248L686.032 153.043C686.589 153.361 686.782 154.071 686.464 154.628C686.146 155.185 685.437 155.379 684.88 155.061C684.865 155.052 684.85 155.043 684.835 155.034L681.848 153.239L682.205 156.707C682.26 157.346 681.787 157.909 681.147 157.964C680.523 158.018 679.968 157.566 679.894 156.944L679.36 151.744L673.652 148.315V154.974L677.833 158.11C678.346 158.495 678.45 159.223 678.066 159.736C677.681 160.25 676.952 160.354 676.439 159.969L673.651 157.878V161.363C673.651 162.004 673.131 162.524 672.49 162.524C671.848 162.524 671.328 162.004 671.328 161.363V157.878L668.54 159.969C668.027 160.354 667.299 160.25 666.914 159.736C666.529 159.223 666.633 158.495 667.146 158.11L671.328 154.974V148.315L665.621 151.745L665.086 156.945C665.031 157.584 664.468 158.057 663.829 158.002C663.19 157.947 662.716 157.384 662.772 156.745C662.773 156.732 662.774 156.72 662.775 156.707L663.132 153.24L660.145 155.035C659.603 155.378 658.885 155.216 658.542 154.673C658.2 154.131 658.362 153.413 658.904 153.071C658.919 153.062 658.933 153.053 658.948 153.044L661.936 151.249L658.708 149.937C658.118 149.686 657.842 149.004 658.093 148.413C658.339 147.836 658.998 147.558 659.583 147.785L664.425 149.754L670.235 146.262L664.424 142.771L659.582 144.74C658.984 144.972 658.311 144.676 658.079 144.077C657.852 143.493 658.13 142.834 658.707 142.588L661.935 141.276L658.948 139.48C658.391 139.162 658.197 138.453 658.515 137.896C658.834 137.339 659.543 137.145 660.1 137.463C660.115 137.472 660.13 137.481 660.145 137.49L663.131 139.284L662.775 135.817C662.71 135.179 663.174 134.609 663.812 134.543C664.45 134.478 665.021 134.942 665.086 135.58L665.62 140.78L671.328 144.209V137.55L667.147 134.414C666.633 134.029 666.529 133.301 666.914 132.788C667.298 132.274 668.026 132.17 668.54 132.555C668.54 132.555 668.54 132.555 668.541 132.555L671.329 134.646V131.162C671.328 130.52 671.849 130 672.49 130C673.132 130 673.652 130.52 673.652 131.162V134.646L676.439 132.556C676.953 132.171 677.681 132.275 678.066 132.788C678.451 133.301 678.347 134.029 677.833 134.414L673.652 137.55V144.209L679.36 140.779L679.894 135.58C679.97 134.943 680.548 134.488 681.185 134.563C681.807 134.637 682.259 135.192 682.205 135.817L681.848 139.284L684.835 137.489C685.378 137.147 686.095 137.308 686.438 137.851C686.78 138.393 686.618 139.111 686.076 139.453C686.061 139.463 686.047 139.471 686.032 139.48L683.044 141.275L686.272 142.588C686.862 142.839 687.138 143.521 686.887 144.111C686.641 144.688 685.982 144.966 685.397 144.74L680.555 142.771L674.745 146.262L680.556 149.754L685.398 147.785C685.991 147.543 686.668 147.827 686.91 148.421C686.91 148.421 686.911 148.422 686.911 148.423Z" fill="#C4DFE8"/>
</g>
</g>
<defs>
<filter id="filter0_i_12791_4" x="-118" y="130" width="253" height="333" filterUnits="userSpaceOnUse" color-interpolation-filters="sRGB">
<feFlood flood-opacity="0" result="BackgroundImageFix"/>
<feBlend mode="normal" in="SourceGraphic" in2="BackgroundImageFix" result="shape"/>
<feColorMatrix in="SourceAlpha" type="matrix" values="0 0 0 0 0 0 0 0 0 0 0 0 0 0 0 0 0 0 127 0" result="hardAlpha"/>
<feOffset dy="4"/>
<feGaussianBlur stdDeviation="27"/>
<feComposite in2="hardAlpha" operator="arithmetic" k2="-1" k3="1"/>
<feColorMatrix type="matrix" values="0 0 0 0 1 0 0 0 0 1 0 0 0 0 1 0 0 0 0.98 0"/>
<feBlend mode="normal" in2="shape" result="effect1_innerShadow_12791_4"/>
</filter>
<filter id="filter1_i_12791_4" x="76" y="146" width="29" height="32.5234" filterUnits="userSpaceOnUse" color-interpolation-filters="sRGB">
<feFlood flood-opacity="0" result="BackgroundImageFix"/>
<feBlend mode="normal" in="SourceGraphic" in2="BackgroundImageFix" result="shape"/>
<feColorMatrix in="SourceAlpha" type="matrix" values="0 0 0 0 0 0 0 0 0 0 0 0 0 0 0 0 0 0 127 0" result="hardAlpha"/>
<feOffset/>
<feGaussianBlur stdDeviation="11.5"/>
<feComposite in2="hardAlpha" operator="arithmetic" k2="-1" k3="1"/>
<feColorMatrix type="matrix" values="0 0 0 0 1 0 0 0 0 1 0 0 0 0 1 0 0 0 0.45 0"/>
<feBlend mode="normal" in2="shape" result="effect1_innerShadow_12791_4"/>
</filter>
<filter id="filter2_i_12791_4" x="641" y="130" width="253" height="333" filterUnits="userSpaceOnUse" color-interpolation-filters="sRGB">
<feFlood flood-opacity="0" result="BackgroundImageFix"/>
<feBlend mode="normal" in="SourceGraphic" in2="BackgroundImageFix" result="shape"/>
<feColorMatrix in="SourceAlpha" type="matrix" values="0 0 0 0 0 0 0 0 0 0 0 0 0 0 0 0 0 0 127 0" result="hardAlpha"/>
<feOffset dy="4"/>
<feGaussianBlur stdDeviation="27"/>
<feComposite in2="hardAlpha" operator="arithmetic" k2="-1" k3="1"/>
<feColorMatrix type="matrix" values="0 0 0 0 1 0 0 0 0 1 0 0 0 0 1 0 0 0 0.98 0"/>
<feBlend mode="normal" in2="shape" result="effect1_innerShadow_12791_4"/>
</filter>
<filter id="filter3_i_12791_4" x="658" y="130" width="29" height="32.5234" filterUnits="userSpaceOnUse" color-interpolation-filters="sRGB">
<feFlood flood-opacity="0" result="BackgroundImageFix"/>
<feBlend mode="normal" in="SourceGraphic" in2="BackgroundImageFix" result="shape"/>
<feColorMatrix in="SourceAlpha" type="matrix" values="0 0 0 0 0 0 0 0 0 0 0 0 0 0 0 0 0 0 127 0" result="hardAlpha"/>
<feOffset/>
<feGaussianBlur stdDeviation="11.5"/>
<feComposite in2="hardAlpha" operator="arithmetic" k2="-1" k3="1"/>
<feColorMatrix type="matrix" values="0 0 0 0 1 0 0 0 0 1 0 0 0 0 1 0 0 0 0.45 0"/>
<feBlend mode="normal" in2="shape" result="effect1_innerShadow_12791_4"/>
</filter>
<clipPath id="clip0_12791_4">
<rect width="786" height="402" rx="24" fill="white"/>
</clipPath>
</defs>
</svg>
