<svg width="145" height="272" viewBox="0 0 145 272" fill="none" xmlns="http://www.w3.org/2000/svg">
<g filter="url(#filter0_i_12791_3)">
<path d="M81.8404 109.754C82.4814 112.329 81.413 113.474 80.5583 114.547C71.9398 126.353 63.5349 138.373 52.0673 147.745C51.2126 148.461 50.5003 149.462 49.8592 150.393C49.2182 151.323 49.9305 152.897 51.1413 153.111C54.4178 153.755 57.5518 153.398 60.4721 151.68C63.7486 149.749 66.9538 147.745 70.1591 145.742C71.2987 145.027 72.011 143.524 73.7204 144.025C73.8629 144.311 74.0766 144.669 74.0053 144.812C66.1703 159.264 57.4093 173.002 44.446 183.591C41.5256 185.952 38.3204 188.098 35.2576 190.316C34.5453 190.817 34.0467 191.675 34.5453 192.606C34.759 193.035 35.4001 193.393 35.8987 193.607C38.9614 194.68 42.0955 194.824 45.3719 194.394C52.4947 193.464 58.9051 190.888 64.9595 187.168C65.9566 186.596 66.8826 185.809 68.0222 185.451C68.7345 185.165 69.8029 185.165 70.444 185.522C71.4412 186.023 70.8713 187.096 70.5152 187.812C66.0279 195.682 61.1844 203.409 54.9876 210.063C44.7309 221.081 33.0496 230.168 19.5876 236.965C18.0206 237.752 16.4536 238.539 14.9578 239.469C14.3167 239.898 13.7469 240.685 13.5332 241.401C13.1771 242.546 14.3167 242.832 15.029 243.19C17.6644 244.62 20.5847 244.835 23.5051 245.05C31.1264 245.694 38.6765 245.407 45.8705 242.474C46.7252 242.116 47.6512 242.259 47.9361 243.19C48.0786 243.619 47.8649 244.334 47.58 244.764C38.3916 259.932 26.0693 271.594 9.68695 278.677C6.76662 279.965 3.77507 281.181 0.92598 282.541C0.498611 282.755 0.071228 283.471 0 283.9C0 284.329 0.427383 285.045 0.783508 285.188C3.20525 286.118 5.69821 287.12 8.19116 287.692C35.7562 293.917 62.609 292.557 88.5358 280.466C89.0344 280.251 89.6042 280.036 90.174 279.822C91.2424 279.464 92.4533 280.68 92.1684 281.825C90.9575 287.334 88.3933 292.271 86.114 297.351C85.2593 299.211 84.3333 301 83.6211 302.932C82.9088 304.863 84.4046 306.58 86.3989 306.08C88.8919 305.436 91.4561 304.649 93.8778 303.647C101.357 300.356 109.12 297.637 115.46 292.199C116.101 291.627 117.098 291.484 117.81 292.128C118.166 292.414 118.309 293.201 118.238 293.702C116.813 303.719 113.394 312.948 107.411 321.176C105.915 323.179 102.995 325.254 104.776 327.902C106.058 329.833 109.12 328.689 111.4 328.402C120.731 327.329 129.99 327.401 139.321 328.116C141.03 328.259 142.811 328.259 144.521 328.188C146.23 328.116 147.156 326.471 146.301 325.111C145.304 323.68 144.236 322.321 143.167 320.89C137.469 312.877 134.264 303.79 133.053 294.06C132.982 293.273 133.338 292.414 133.552 291.627C135.688 291.198 136.97 292.557 138.395 293.559C144.734 297.923 151.786 300.642 158.766 303.647C161.117 304.649 163.823 305.15 166.316 305.65C168.382 306.08 169.521 304.506 168.738 302.359C168.026 300.427 167.028 298.639 166.245 296.778C164.251 291.913 162.327 286.977 160.476 282.111C160.191 281.396 160.333 280.323 160.689 279.679C161.188 278.82 162.114 278.963 162.968 279.392C189.18 292.915 216.745 293.058 244.88 287.477C247.729 286.905 250.721 286.69 253 284.544C252.858 282.684 251.433 282.326 250.151 281.825C243.313 279.178 236.689 276.244 230.563 272.166C219.666 264.94 211.332 255.209 204.067 244.477C203.782 244.048 203.924 243.404 203.853 242.832C205.135 241.401 206.56 242.474 207.771 242.903C215.962 245.765 224.367 245.551 232.843 244.549C234.267 244.406 235.692 243.833 236.974 243.333C237.971 242.903 239.253 242.617 239.467 241.186C239.68 239.755 238.541 239.183 237.544 238.61C232.7 235.963 227.714 233.531 222.942 230.669C208.981 222.369 196.944 211.852 187.898 198.186C186.117 195.467 184.479 192.749 182.983 189.887C181.345 186.81 181.203 184.521 182.414 184.378C184.408 184.163 185.69 185.451 186.972 186.524C192.813 191.318 199.651 193.607 206.987 194.752C209.622 195.11 212.258 195.324 214.751 194.394C215.748 194.036 217.101 193.464 217.529 192.606C218.099 191.461 216.959 190.531 215.962 189.815C212.685 187.383 209.266 185.093 206.132 182.446C199.366 176.794 193.596 170.211 188.824 162.77C185.191 157.118 181.63 151.394 177.997 145.742C177.57 145.027 177.072 143.953 178.14 143.452C178.71 143.166 179.849 143.524 180.348 143.953C184.194 147.101 188.183 150.035 192.884 151.895C195.662 153.04 198.44 153.684 201.431 153.04C202.856 152.754 203.639 150.679 202.642 149.606C201.645 148.532 200.577 147.602 199.437 146.601C189.323 137.586 181.203 126.925 173.225 116.05C172.086 114.476 170.59 112.902 170.875 110.04C173.368 111.042 175.718 111.972 177.997 112.973C183.268 115.191 188.824 115.191 194.38 114.547C195.519 114.404 196.659 113.975 197.656 113.474C199.01 112.83 200.505 112.043 200.648 110.541C200.79 108.824 199.223 108.251 197.87 107.679C179.422 100.453 166.102 87.2878 156.131 70.5457C145.019 51.8003 137.042 31.6955 131.059 10.8037C129.99 7.15474 128.851 3.57737 127.782 0C125.075 0.286189 125.004 2.21797 124.434 3.79201C120.873 14.0233 117.454 24.3261 113.75 34.4858C109.12 47.1497 103.28 59.3128 96.1571 70.7604C85.9003 87.2162 73.5068 101.311 54.5603 107.965C54.0617 108.18 53.5631 108.609 53.1357 108.895C52.281 109.467 52.281 111.185 53.2069 111.9C55.2725 113.689 57.7655 114.476 60.4009 114.69C64.817 115.048 69.1619 114.619 73.2931 113.045C75.9285 112.043 78.5639 110.97 81.8404 109.754Z" fill="#006832"/>
</g>
<g filter="url(#filter1_i_12791_3)">
<path d="M45.9111 18.4227C46.1525 19.0169 45.8665 19.6943 45.2722 19.9358L42.0446 21.2484L45.0317 23.0433C45.5889 23.3615 45.7825 24.071 45.4644 24.6281C45.1463 25.1852 44.4368 25.3789 43.8797 25.0608C43.8647 25.0522 43.8499 25.0433 43.8352 25.0341L40.8483 23.2394L41.2047 26.7067C41.26 27.3458 40.7866 27.9087 40.1474 27.9639C39.5227 28.018 38.9679 27.5664 38.894 26.9438L38.3596 21.7439L32.6515 18.3149V24.9739L36.8332 28.1101C37.3464 28.4951 37.4504 29.2232 37.0655 29.7364C36.6806 30.2496 35.9525 30.3536 35.4393 29.9687L32.6514 27.8779V31.3626C32.6514 32.0041 32.1313 32.5242 31.4898 32.5242C30.8483 32.5242 30.3282 32.0041 30.3282 31.3626V27.8779L27.5404 29.9687C27.0272 30.3536 26.2991 30.2496 25.9142 29.7364C25.5292 29.2232 25.6332 28.4951 26.1464 28.1101L30.3281 24.9739V18.3149L24.6205 21.7448L24.0862 26.9446C24.0309 27.5838 23.4681 28.0571 22.8289 28.0019C22.1897 27.9466 21.7164 27.3838 21.7716 26.7446C21.7727 26.7323 21.7739 26.7198 21.7754 26.7075L22.1319 23.2402L19.1449 25.0349C18.6026 25.3775 17.8851 25.2157 17.5425 24.6733C17.1998 24.131 17.3617 23.4135 17.904 23.0708C17.9186 23.0616 17.9335 23.0527 17.9484 23.0441L20.9356 21.2492L17.708 19.9366C17.1176 19.6856 16.8424 19.0036 17.0934 18.4132C17.3387 17.836 17.9979 17.5578 18.5825 17.7846L23.4247 19.7537L29.2348 16.262L23.4242 12.7706L18.582 14.7403C17.9839 14.9724 17.311 14.6756 17.0789 14.0775C16.8521 13.4928 17.1303 12.8336 17.7075 12.5883L20.9351 11.2757L17.9481 9.48038C17.391 9.16222 17.1974 8.45274 17.5154 7.89572C17.8336 7.33859 18.5431 7.14496 19.1001 7.46303C19.1151 7.47163 19.1299 7.48053 19.1445 7.48974L22.1315 9.28443L21.775 5.81716C21.7096 5.179 22.1738 4.60852 22.812 4.54307C23.4502 4.47762 24.0206 4.94187 24.0861 5.58002L24.6204 10.7799L30.3284 14.2094V7.55023L26.1467 4.41398C25.6333 4.02925 25.529 3.30125 25.9138 2.78784C26.2985 2.27442 27.0265 2.17012 27.5399 2.55485C27.5402 2.55505 27.5404 2.55526 27.5407 2.55546L30.3285 4.64626V1.16159C30.3284 0.520095 30.8485 0 31.49 0C32.1315 0 32.6516 0.520095 32.6516 1.16159V4.64636L35.4395 2.55556C35.9527 2.17062 36.6808 2.27462 37.0657 2.78784C37.4506 3.30105 37.3466 4.02915 36.8334 4.41408L32.6517 7.55034V14.2094L38.3596 10.7795L38.894 5.57962C38.9697 4.94257 39.5475 4.48753 40.1846 4.5632C40.8072 4.63715 41.2587 5.19195 41.2047 5.81665L40.8483 9.28392L43.8352 7.48923C44.3776 7.14658 45.0951 7.30845 45.4377 7.8509C45.7804 8.39325 45.6184 9.11072 45.076 9.45337C45.0615 9.46258 45.0467 9.47148 45.0316 9.48008L42.0444 11.275L45.272 12.5876C45.8624 12.8386 46.1376 13.5207 45.8866 14.1111C45.6413 14.6882 44.9821 14.9664 44.3974 14.7396L39.5553 12.7705L33.7451 16.2623L39.5558 19.7536L44.3979 17.7845C44.9912 17.5425 45.6683 17.8273 45.9102 18.4205C45.9105 18.4211 45.9108 18.422 45.9111 18.4227Z" fill="#C4DFE8"/>
</g>
<defs>
<filter id="filter0_i_12791_3" x="0" y="0" width="253" height="333" filterUnits="userSpaceOnUse" color-interpolation-filters="sRGB">
<feFlood flood-opacity="0" result="BackgroundImageFix"/>
<feBlend mode="normal" in="SourceGraphic" in2="BackgroundImageFix" result="shape"/>
<feColorMatrix in="SourceAlpha" type="matrix" values="0 0 0 0 0 0 0 0 0 0 0 0 0 0 0 0 0 0 127 0" result="hardAlpha"/>
<feOffset dy="4"/>
<feGaussianBlur stdDeviation="27"/>
<feComposite in2="hardAlpha" operator="arithmetic" k2="-1" k3="1"/>
<feColorMatrix type="matrix" values="0 0 0 0 1 0 0 0 0 1 0 0 0 0 1 0 0 0 0.98 0"/>
<feBlend mode="normal" in2="shape" result="effect1_innerShadow_12791_3"/>
</filter>
<filter id="filter1_i_12791_3" x="17" y="0" width="29" height="32.5234" filterUnits="userSpaceOnUse" color-interpolation-filters="sRGB">
<feFlood flood-opacity="0" result="BackgroundImageFix"/>
<feBlend mode="normal" in="SourceGraphic" in2="BackgroundImageFix" result="shape"/>
<feColorMatrix in="SourceAlpha" type="matrix" values="0 0 0 0 0 0 0 0 0 0 0 0 0 0 0 0 0 0 127 0" result="hardAlpha"/>
<feOffset/>
<feGaussianBlur stdDeviation="11.5"/>
<feComposite in2="hardAlpha" operator="arithmetic" k2="-1" k3="1"/>
<feColorMatrix type="matrix" values="0 0 0 0 1 0 0 0 0 1 0 0 0 0 1 0 0 0 0.45 0"/>
<feBlend mode="normal" in2="shape" result="effect1_innerShadow_12791_3"/>
</filter>
</defs>
</svg>
