<svg width="29" height="33" viewBox="0 0 29 33" fill="none" xmlns="http://www.w3.org/2000/svg">
<g filter="url(#filter0_i_12601_12517)">
<path d="M28.9111 18.4227C29.1525 19.0169 28.8665 19.6943 28.2722 19.9358L25.0446 21.2484L28.0317 23.0433C28.5889 23.3615 28.7825 24.071 28.4644 24.6281C28.1463 25.1852 27.4368 25.3789 26.8797 25.0608C26.8647 25.0522 26.8499 25.0433 26.8352 25.0341L23.8483 23.2394L24.2047 26.7067C24.26 27.3458 23.7866 27.9087 23.1474 27.9639C22.5227 28.018 21.9679 27.5664 21.894 26.9438L21.3596 21.7439L15.6515 18.3149V24.9739L19.8332 28.1101C20.3464 28.4951 20.4504 29.2232 20.0655 29.7364C19.6806 30.2496 18.9525 30.3536 18.4393 29.9687L15.6514 27.8779V31.3626C15.6514 32.0041 15.1313 32.5242 14.4898 32.5242C13.8483 32.5242 13.3282 32.0041 13.3282 31.3626V27.8779L10.5404 29.9687C10.0272 30.3536 9.2991 30.2496 8.91416 29.7364C8.52922 29.2232 8.63322 28.4951 9.14644 28.1101L13.3281 24.9739V18.3149L7.62055 21.7448L7.08619 26.9446C7.03095 27.5838 6.46806 28.0571 5.82889 28.0019C5.18973 27.9466 4.71637 27.3838 4.77161 26.7446C4.77272 26.7323 4.77393 26.7198 4.77545 26.7075L5.13186 23.2402L2.14493 25.0349C1.60257 25.3775 0.885104 25.2157 0.542454 24.6733C0.199804 24.131 0.36167 23.4135 0.904022 23.0708C0.91859 23.0616 0.933461 23.0527 0.948434 23.0441L3.93557 21.2492L0.707962 19.9366C0.117556 19.6856 -0.157616 19.0036 0.0933773 18.4132C0.338705 17.836 0.997904 17.5578 1.58254 17.7846L6.42466 19.7537L12.2348 16.262L6.42415 12.7706L1.58204 14.7403C0.983943 14.9724 0.310986 14.6756 0.0789104 14.0775C-0.147904 13.4928 0.130303 12.8336 0.707456 12.5883L3.93506 11.2757L0.94813 9.48038C0.391008 9.16222 0.197376 8.45274 0.515443 7.89572C0.83361 7.33859 1.54309 7.14496 2.10011 7.46303C2.11508 7.47163 2.12985 7.48053 2.14452 7.48974L5.13145 9.28443L4.77505 5.81716C4.70959 5.179 5.17384 4.60852 5.812 4.54307C6.45016 4.47762 7.02063 4.94187 7.08609 5.58002L7.62045 10.7799L13.3284 14.2094V7.55023L9.14674 4.41398C8.63332 4.02925 8.52902 3.30125 8.91375 2.78784C9.29849 2.27442 10.0265 2.17012 10.5399 2.55485C10.5402 2.55505 10.5404 2.55526 10.5407 2.55546L13.3285 4.64626V1.16159C13.3284 0.520095 13.8485 0 14.49 0C15.1315 0 15.6516 0.520095 15.6516 1.16159V4.64636L18.4395 2.55556C18.9527 2.17062 19.6808 2.27462 20.0657 2.78784C20.4506 3.30105 20.3466 4.02915 19.8334 4.41408L15.6517 7.55034V14.2094L21.3596 10.7795L21.894 5.57962C21.9697 4.94257 22.5475 4.48753 23.1846 4.5632C23.8072 4.63715 24.2587 5.19195 24.2047 5.81665L23.8483 9.28392L26.8352 7.48923C27.3776 7.14658 28.0951 7.30845 28.4377 7.8509C28.7804 8.39325 28.6184 9.11072 28.076 9.45337C28.0615 9.46258 28.0467 9.47148 28.0316 9.48008L25.0444 11.275L28.272 12.5876C28.8624 12.8386 29.1376 13.5207 28.8866 14.1111C28.6413 14.6882 27.9821 14.9664 27.3974 14.7396L22.5553 12.7705L16.7451 16.2623L22.5558 19.7536L27.3979 17.7845C27.9912 17.5425 28.6683 17.8273 28.9102 18.4205C28.9105 18.4211 28.9108 18.422 28.9111 18.4227Z" fill="white" fill-opacity="0.1"/>
</g>
<defs>
<filter id="filter0_i_12601_12517" x="0" y="0" width="29" height="32.5234" filterUnits="userSpaceOnUse" color-interpolation-filters="sRGB">
<feFlood flood-opacity="0" result="BackgroundImageFix"/>
<feBlend mode="normal" in="SourceGraphic" in2="BackgroundImageFix" result="shape"/>
<feColorMatrix in="SourceAlpha" type="matrix" values="0 0 0 0 0 0 0 0 0 0 0 0 0 0 0 0 0 0 127 0" result="hardAlpha"/>
<feOffset/>
<feGaussianBlur stdDeviation="11.5"/>
<feComposite in2="hardAlpha" operator="arithmetic" k2="-1" k3="1"/>
<feColorMatrix type="matrix" values="0 0 0 0 1 0 0 0 0 1 0 0 0 0 1 0 0 0 0.45 0"/>
<feBlend mode="normal" in2="shape" result="effect1_innerShadow_12601_12517"/>
</filter>
</defs>
</svg>
