<svg width="41" height="41" viewBox="0 0 41 41" fill="none" xmlns="http://www.w3.org/2000/svg">
<mask id="mask0_2635_574" style="mask-type:alpha" maskUnits="userSpaceOnUse" x="0" y="0" width="41" height="41">
<rect x="0.322266" y="0.580811" width="40" height="40" fill="#D9D9D9"/>
</mask>
<g mask="url(#mask0_2635_574)">
<path d="M18.9335 36.9558L6.71102 29.9141C6.27129 29.6564 5.9299 29.3164 5.68685 28.8941C5.44379 28.4722 5.32227 28.0112 5.32227 27.5112V13.6504C5.32227 13.1504 5.44379 12.6894 5.68685 12.2675C5.9299 11.8453 6.27129 11.5053 6.71102 11.2475L18.9335 4.20581C19.3746 3.95581 19.8391 3.83081 20.3268 3.83081C20.8146 3.83081 21.276 3.95581 21.711 4.20581L33.9335 11.2475C34.3732 11.5053 34.7146 11.8453 34.9577 12.2675C35.2007 12.6894 35.3223 13.1504 35.3223 13.6504V27.5112C35.3223 28.0112 35.2007 28.4722 34.9577 28.8941C34.7146 29.3164 34.3732 29.6564 33.9335 29.9141L21.711 36.9558C21.2699 37.2058 20.8055 37.3308 20.3177 37.3308C19.8299 37.3308 19.3685 37.2058 18.9335 36.9558ZM18.9335 21.3725V33.7612L20.3223 34.5529L21.711 33.7612V21.3679L32.5443 15.0808V13.6641L31.0027 12.7891L20.3223 18.9975L9.61393 12.7891L8.10018 13.6546V15.1087L18.9335 21.3725Z" fill="#3E1A51"/>
</g>
</svg>
