<svg width="41" height="41" viewBox="0 0 41 41" fill="none" xmlns="http://www.w3.org/2000/svg">
<mask id="mask0_1412_1971" style="mask-type:alpha" maskUnits="userSpaceOnUse" x="0" y="0" width="41" height="41">
<rect x="0.434326" y="0.291016" width="40" height="40" fill="#D9D9D9"/>
</mask>
<g mask="url(#mask0_1412_1971)">
<path d="M13.601 30.6243H15.8231V27.0689H19.3789V24.8464H15.8231V21.291H13.601V24.8464H10.0456V27.0689H13.601V30.6243ZM22.351 29.2356H30.7122V27.041H22.351V29.2356ZM22.351 24.8743H30.7122V22.6523H22.351V24.8743ZM23.9897 18.2356L26.4622 15.7631L28.9343 18.2356L30.5177 16.6523L28.0456 14.1523L30.5177 11.6798L28.9343 10.0964L26.4622 12.5689L23.9897 10.0964L22.4064 11.6798L24.8789 14.1523L22.4064 16.6523L23.9897 18.2356ZM10.601 15.2631H18.8231V13.041H10.601V15.2631ZM8.21224 35.291C7.46224 35.291 6.81169 35.0156 6.26058 34.4648C5.70974 33.9137 5.43433 33.2631 5.43433 32.5131V8.06893C5.43433 7.31893 5.70974 6.66838 6.26058 6.11727C6.81169 5.56643 7.46224 5.29102 8.21224 5.29102H32.6564C33.4064 5.29102 34.057 5.56643 34.6081 6.11727C35.1589 6.66838 35.4343 7.31893 35.4343 8.06893V32.5131C35.4343 33.2631 35.1589 33.9137 34.6081 34.4648C34.057 35.0156 33.4064 35.291 32.6564 35.291H8.21224Z" fill="#9A5EBA"/>
</g>
</svg>
