<svg width="41" height="41" viewBox="0 0 41 41" fill="none" xmlns="http://www.w3.org/2000/svg">
<mask id="mask0_1412_1974" style="mask-type:alpha" maskUnits="userSpaceOnUse" x="0" y="0" width="41" height="41">
<rect x="0.624268" y="0.458984" width="40" height="40" fill="#D9D9D9"/>
</mask>
<g mask="url(#mask0_1412_1974)">
<path d="M8.40218 35.459C7.6383 35.459 6.98427 35.187 6.4401 34.6432C5.89621 34.099 5.62427 33.445 5.62427 32.6811V11.0561C5.62427 10.7436 5.67288 10.4422 5.7701 10.1519C5.86732 9.86162 6.01316 9.59357 6.2076 9.34774L8.34635 6.52857C8.59635 6.19523 8.9176 5.93357 9.3101 5.74357C9.7026 5.55385 10.1129 5.45898 10.5409 5.45898H30.6797C31.108 5.45898 31.5183 5.55385 31.9105 5.74357C32.303 5.93357 32.6243 6.19523 32.8743 6.52857L35.0409 9.34774C35.2354 9.59357 35.3812 9.86162 35.4784 10.1519C35.5757 10.4422 35.6243 10.7436 35.6243 11.0561V32.6811C35.6243 33.445 35.3523 34.099 34.8084 34.6432C34.2643 35.187 33.6102 35.459 32.8464 35.459H8.40218ZM9.09635 10.0702H32.1243L30.6405 8.2369H10.5689L9.09635 10.0702ZM27.2909 12.8477H13.9576V26.7923L20.6243 23.459L27.2909 26.7923V12.8477Z" fill="#9A5EBA"/>
</g>
</svg>
