<svg width="41" height="41" viewBox="0 0 41 41" fill="none" xmlns="http://www.w3.org/2000/svg">
<mask id="mask0_1412_1968" style="mask-type:alpha" maskUnits="userSpaceOnUse" x="0" y="0" width="41" height="41">
<rect x="0.434326" y="0.458984" width="40" height="40" fill="#D9D9D9"/>
</mask>
<g mask="url(#mask0_1412_1968)">
<path d="M20.4368 20.1811C21.2777 20.1811 21.9967 19.8816 22.5939 19.2827C23.1912 18.6841 23.4898 17.9643 23.4898 17.1232C23.4898 16.2823 23.1903 15.5633 22.5914 14.9661C21.9928 14.3688 21.273 14.0702 20.4318 14.0702C19.591 14.0702 18.872 14.3697 18.2748 14.9686C17.6775 15.5672 17.3789 16.287 17.3789 17.1282C17.3789 17.969 17.6784 18.688 18.2773 19.2852C18.8759 19.8825 19.5957 20.1811 20.4368 20.1811ZM20.4343 37.1257C15.9621 33.3201 12.6218 29.7854 10.4135 26.5215C8.20518 23.2576 7.10101 20.2368 7.10101 17.459C7.10101 13.2923 8.44129 9.97287 11.1218 7.50065C13.8024 5.02843 16.9066 3.79232 20.4343 3.79232C21.0268 3.79232 21.6102 3.83162 22.1843 3.91024C22.7585 3.98912 23.3234 4.09412 23.8789 4.22523V10.1257H29.101V15.3477H33.621C33.6724 15.6905 33.7098 16.0355 33.7331 16.3827C33.7562 16.73 33.7677 17.0887 33.7677 17.459C33.7677 20.2368 32.6635 23.2576 30.4552 26.5215C28.2468 29.7854 24.9066 33.3201 20.4343 37.1257ZM30.7677 13.6811V8.45898H25.5456V5.68107H30.7677V0.458984H33.5456V5.68107H38.7677V8.45898H33.5456V13.6811H30.7677Z" fill="#FCBF04"/>
</g>
</svg>
