<svg width="41" height="41" viewBox="0 0 41 41" fill="none" xmlns="http://www.w3.org/2000/svg">
<mask id="mask0_1412_1977" style="mask-type:alpha" maskUnits="userSpaceOnUse" x="0" y="0" width="41" height="41">
<rect x="0.624268" y="0.291016" width="40" height="40" fill="#D9D9D9"/>
</mask>
<g mask="url(#mask0_1412_1977)">
<path d="M8.40218 35.291C7.67052 35.291 7.02468 35.0156 6.46468 34.4648C5.90441 33.9137 5.62427 33.2631 5.62427 32.5131V8.06893C5.62427 7.33727 5.90441 6.69143 6.46468 6.13143C7.02468 5.57115 7.67052 5.29102 8.40218 5.29102H32.8464C33.5964 5.29102 34.2469 5.57115 34.798 6.13143C35.3489 6.69143 35.6243 7.33727 35.6243 8.06893V9.56893H22.7909C21.0595 9.56893 19.6359 10.1267 18.5201 11.2423C17.4043 12.3581 16.8464 13.7725 16.8464 15.4856V25.1243C16.8464 26.8374 17.4043 28.2517 18.5201 29.3673C19.6359 30.4831 21.0595 31.041 22.7909 31.041H35.6243V32.5131C35.6243 33.2631 35.3489 33.9137 34.798 34.4648C34.2469 35.0156 33.5964 35.291 32.8464 35.291H8.40218ZM22.7909 28.2631C21.8557 28.2631 21.0941 27.9692 20.5064 27.3814C19.9183 26.7934 19.6243 26.041 19.6243 25.1243V15.4856C19.6243 14.5503 19.9183 13.7934 20.5064 13.2148C21.0941 12.6359 21.8557 12.3464 22.7909 12.3464H34.1522C35.0872 12.3464 35.8487 12.6359 36.4368 13.2148C37.0248 13.7934 37.3189 14.5503 37.3189 15.4856V25.1243C37.3189 26.041 37.0248 26.7934 36.4368 27.3814C35.8487 27.9692 35.0872 28.2631 34.1522 28.2631H22.7909ZM27.6243 22.9023C28.3279 22.9023 28.939 22.643 29.4576 22.1243C29.9762 21.6057 30.2355 20.9853 30.2355 20.2631C30.2355 19.5595 29.9762 18.9531 29.4576 18.4439C28.939 17.9345 28.3279 17.6798 27.6243 17.6798C26.9207 17.6798 26.3095 17.9345 25.7909 18.4439C25.2723 18.9531 25.013 19.5595 25.013 20.2631C25.013 20.9853 25.2723 21.6057 25.7909 22.1243C26.3095 22.643 26.9207 22.9023 27.6243 22.9023Z" fill="#FCBF04"/>
</g>
</svg>
