<svg width="41" height="41" viewBox="0 0 41 41" fill="none" xmlns="http://www.w3.org/2000/svg">
<mask id="mask0_1412_1965" style="mask-type:alpha" maskUnits="userSpaceOnUse" x="0" y="0" width="41" height="41">
<rect x="0.243896" y="0.291016" width="40" height="40" fill="#D9D9D9"/>
</mask>
<g mask="url(#mask0_1412_1965)">
<path d="M12.0993 36.9304C11.2421 36.9304 10.5101 36.6253 9.90344 36.015C9.29705 35.4044 8.99386 34.6707 8.99386 33.8138C8.99386 32.9565 9.29914 32.2246 9.90969 31.6179C10.52 31.0115 11.2537 30.7083 12.1109 30.7083C12.9682 30.7083 13.7 31.0136 14.3064 31.6242C14.9127 32.2344 15.2159 32.9682 15.2159 33.8254C15.2159 34.6826 14.9108 35.4144 14.3005 36.0208C13.69 36.6272 12.9562 36.9304 12.0993 36.9304ZM28.7659 36.9304C27.9087 36.9304 27.1768 36.6253 26.5701 36.015C25.9637 35.4044 25.6605 34.6707 25.6605 33.8138C25.6605 32.9565 25.9658 32.2246 26.5764 31.6179C27.1866 31.0115 27.9204 30.7083 28.7776 30.7083C29.6348 30.7083 30.3666 31.0136 30.973 31.6242C31.5794 32.2344 31.8826 32.9682 31.8826 33.8254C31.8826 34.6826 31.5775 35.4144 30.9672 36.0208C30.3566 36.6272 29.6229 36.9304 28.7659 36.9304ZM8.82719 6.93042H33.3847C34.023 6.93042 34.5087 7.21986 34.8418 7.79875C35.1746 8.37736 35.179 8.95833 34.8551 9.54167L29.1326 19.8471C28.8271 20.3843 28.4261 20.8103 27.9297 21.125C27.4333 21.4397 26.8898 21.5971 26.2993 21.5971H13.7439L11.5772 25.5971H31.8826V28.375H11.8272C10.6327 28.375 9.75775 27.9329 9.20219 27.0488C8.64664 26.1643 8.64205 25.2175 9.18844 24.2083L11.7159 19.5696L5.49386 6.40292H2.21594V3.625H7.27178L8.82719 6.93042Z" fill="#FCBF04"/>
</g>
</svg>
