<svg width="41" height="41" viewBox="0 0 41 41" fill="none" xmlns="http://www.w3.org/2000/svg">
<mask id="mask0_2633_560" style="mask-type:alpha" maskUnits="userSpaceOnUse" x="0" y="0" width="41" height="41">
<rect x="0.314453" y="0.553467" width="40" height="40" fill="#D9D9D9"/>
</mask>
<g mask="url(#mask0_2633_560)">
<path d="M9.87255 33.859C8.50005 33.859 7.33227 33.3783 6.36922 32.4169C5.40644 31.4555 4.92505 30.2881 4.92505 28.9148H1.98047V9.99813C1.98047 9.24813 2.25589 8.59758 2.80672 8.04647C3.35783 7.49563 4.00839 7.22021 4.75839 7.22021H28.6192V14.0815H33.2026L38.6471 21.3315V28.9148H35.5638C35.5638 30.2881 35.0834 31.4555 34.1226 32.4169C33.1617 33.3783 31.9951 33.859 30.6226 33.859C29.2501 33.859 28.0823 33.3783 27.1192 32.4169C26.1564 31.4555 25.6751 30.2881 25.6751 28.9148H14.8138C14.8138 30.2851 14.3334 31.4517 13.3726 32.4148C12.4117 33.3776 11.2451 33.859 9.87255 33.859ZM9.86922 31.0815C10.4712 31.0815 10.9828 30.8708 11.4042 30.4494C11.8253 30.028 12.0359 29.5165 12.0359 28.9148C12.0359 28.3129 11.8253 27.8012 11.4042 27.3798C10.9828 26.9587 10.4712 26.7481 9.86922 26.7481C9.26755 26.7481 8.75602 26.9587 8.33464 27.3798C7.91325 27.8012 7.70255 28.3129 7.70255 28.9148C7.70255 29.5165 7.91325 30.028 8.33464 30.4494C8.75602 30.8708 9.26755 31.0815 9.86922 31.0815ZM30.6192 31.0815C31.2212 31.0815 31.7328 30.8708 32.1542 30.4494C32.5753 30.028 32.7859 29.5165 32.7859 28.9148C32.7859 28.3129 32.5753 27.8012 32.1542 27.3798C31.7328 26.9587 31.2212 26.7481 30.6192 26.7481C30.0176 26.7481 29.506 26.9587 29.0846 27.3798C28.6632 27.8012 28.4526 28.3129 28.4526 28.9148C28.4526 29.5165 28.6632 30.028 29.0846 30.4494C29.506 30.8708 30.0176 31.0815 30.6192 31.0815ZM28.6192 22.6369H36.1471L31.8138 16.859H28.6192V22.6369Z" fill="#3E1A51"/>
</g>
</svg>
