<svg width="41" height="41" viewBox="0 0 41 41" fill="none" xmlns="http://www.w3.org/2000/svg">
<mask id="mask0_2633_563" style="mask-type:alpha" maskUnits="userSpaceOnUse" x="0" y="0" width="41" height="41">
<rect x="0.355469" y="0.553467" width="40" height="40" fill="#D9D9D9"/>
</mask>
<g mask="url(#mask0_2633_563)">
<path d="M3.68945 37.2201C3.68945 34.2109 4.11306 31.6206 4.96029 29.4492C5.80751 27.2778 6.88848 25.4746 8.2032 24.0396C9.5182 22.6044 10.9813 21.4909 12.5924 20.6992C14.2035 19.9076 15.7729 19.3867 17.3007 19.1367V13.6088C13.4951 13.1366 10.2751 12.0094 7.6407 10.2271C5.00654 8.44464 3.68945 6.33116 3.68945 3.88672H37.0228C37.0228 6.33116 35.7057 8.44464 33.0715 10.2271C30.4371 12.0094 27.2171 13.1366 23.4115 13.6088V19.1367C24.9393 19.3867 26.5088 19.9076 28.1199 20.6992C29.731 21.4909 31.194 22.6044 32.509 24.0396C33.8238 25.4746 34.9047 27.2778 35.752 29.4492C36.5992 31.6206 37.0228 34.2109 37.0228 37.2201H27.0228V34.4421H34.0924C33.5924 30.2199 32.039 27.0302 29.4324 24.873C26.826 22.7155 23.8006 21.6367 20.3561 21.6367C16.9117 21.6367 13.8863 22.7155 11.2799 24.873C8.6732 27.0302 7.11987 30.2199 6.61987 34.4421H13.6895V37.2201H3.68945ZM20.3561 37.2201C19.4395 37.2201 18.6547 36.8937 18.002 36.2409C17.3492 35.5881 17.0228 34.8034 17.0228 33.8867C17.0228 33.4145 17.1131 32.9839 17.2936 32.5951C17.4742 32.2062 17.7172 31.8589 18.0228 31.5534C18.6895 30.8867 19.8283 30.1899 21.4395 29.463C23.0506 28.7363 24.9117 27.9887 27.0228 27.2201C26.2264 29.3312 25.4718 31.1923 24.759 32.8034C24.046 34.4145 23.3561 35.5534 22.6895 36.2201C22.3839 36.5256 22.0367 36.7687 21.6478 36.9492C21.2589 37.1298 20.8283 37.2201 20.3561 37.2201Z" fill="#F5C42F"/>
</g>
</svg>
