<svg xmlns="http://www.w3.org/2000/svg" width="21.834" height="23.497" viewBox="0 0 21.834 23.497">
  <g id="Icon_akar-shipping-box-02" data-name="Icon akar-shipping-box-02" transform="translate(-1.75 -1.13)">
    <path id="Path_31" data-name="Path 31" d="M11.57,2.191a2.259,2.259,0,0,1,2.194,0l8.489,4.715a1.13,1.13,0,0,1,.581.987v9.3a2.259,2.259,0,0,1-1.162,1.974l-7.908,4.395a2.259,2.259,0,0,1-2.194,0L3.662,19.171A2.259,2.259,0,0,1,2.5,17.2v-9.3a1.13,1.13,0,0,1,.581-.987l8.491-4.715Z" transform="translate(0 0)" fill="none" stroke="#000" stroke-linecap="round" stroke-linejoin="round" stroke-width="1.5"/>
    <path id="Path_32" data-name="Path 32" d="M6.695,3.75,16.862,9.4v3.954M5,12.593l3.389,1.889" transform="translate(0.889 0.655)" fill="none" stroke="#000" stroke-linecap="round" stroke-linejoin="round" stroke-width="1.5"/>
    <path id="Path_33" data-name="Path 33" d="M2.5,5.833l10.167,5.648m0,0L22.834,5.833M12.667,11.482v11.3" transform="translate(0 1.396)" fill="none" stroke="#000" stroke-linejoin="round" stroke-width="1.5"/>
  </g>
</svg>
