<svg xmlns="http://www.w3.org/2000/svg" width="18.68" height="18.681" viewBox="0 0 18.68 18.681">
  <path id="Icon_akar-phone" data-name="Icon akar-phone" d="M10.324,6.63l-2.9-3.343a.911.911,0,0,0-1.334.005L3.711,5.678a2.3,2.3,0,0,0-.5,2.609A25.007,25.007,0,0,0,14.821,19.914a2.3,2.3,0,0,0,2.606-.5L19.831,17a.913.913,0,0,0,0-1.339l-3.356-2.881a.922.922,0,0,0-1.248.091l-1.168,1.17a.4.4,0,0,1-.473.075A12.464,12.464,0,0,1,9,9.523a.4.4,0,0,1,.075-.474l1.164-1.165a.926.926,0,0,0,.086-1.254Z" transform="translate(-2.194 -2.248)" fill="none" stroke="#000" stroke-linecap="round" stroke-linejoin="round" stroke-width="1.5"/>
</svg>
