<svg xmlns="http://www.w3.org/2000/svg" width="21.434" height="21.434" viewBox="0 0 21.434 21.434">
  <g id="Icon_akar-reciept" data-name="Icon akar-reciept" transform="translate(-1.75 -1.75)">
    <path id="Path_34" data-name="Path 34" d="M20.219,22.434H6.93A4.43,4.43,0,0,1,2.5,18V4.715A2.215,2.215,0,0,1,4.715,2.5H15.789A2.215,2.215,0,0,1,18,4.715v14.4C18,20.947,18.384,22.434,20.219,22.434Z" transform="translate(0 0)" fill="none" stroke="#000" stroke-linecap="round" stroke-linejoin="round" stroke-width="1.5"/>
    <path id="Path_35" data-name="Path 35" d="M18.6,8.882a2.215,2.215,0,0,0-2.215-2.215H14.167V18.295c0,1.528.687,2.769,2.215,2.769s2.215-1.24,2.215-2.769Z" transform="translate(3.838 1.371)" fill="none" stroke="#000" stroke-linecap="round" stroke-linejoin="round" stroke-width="1.5"/>
    <path id="Path_36" data-name="Path 36" d="M12.478,10.263H5.833m6.645-4.43H5.833m3.322,8.86H5.833" transform="translate(1.096 1.096)" fill="none" stroke="#000" stroke-linecap="round" stroke-width="1.5"/>
  </g>
</svg>
