<svg xmlns="http://www.w3.org/2000/svg" width="21.2" height="26" viewBox="0 0 21.2 26">
  <g id="Icon_akar-copy" data-name="Icon akar-copy" transform="translate(-5 -2)">
    <path id="Path_15" data-name="Path 15" d="M12,5.4V19.8a2.4,2.4,0,0,0,2.4,2.4H24a2.4,2.4,0,0,0,2.4-2.4V9.29a2.4,2.4,0,0,0-.722-1.716L21.7,3.684A2.4,2.4,0,0,0,20.022,3H14.4A2.4,2.4,0,0,0,12,5.4Z" transform="translate(-1.2)" fill="none" stroke="#fff" stroke-linecap="round" stroke-linejoin="round" stroke-width="2"/>
    <path id="Path_16" data-name="Path 16" d="M20.4,23.7v2.4A2.4,2.4,0,0,1,18,28.5H8.4A2.4,2.4,0,0,1,6,26.1V12.9a2.4,2.4,0,0,1,2.4-2.4h2.4" transform="translate(0 -1.5)" fill="none" stroke="#fff" stroke-linecap="round" stroke-linejoin="round" stroke-width="2"/>
  </g>
</svg>
