<svg xmlns="http://www.w3.org/2000/svg" width="14.748" height="14.748" viewBox="0 0 14.748 14.748">
  <path id="Icon_akar-instagram-fill" data-name="Icon akar-instagram-fill" d="M5.834,1.544C6.62,1.508,6.871,1.5,8.874,1.5s2.254.009,3.039.044a5.427,5.427,0,0,1,1.791.343A3.775,3.775,0,0,1,15.86,4.043a5.423,5.423,0,0,1,.343,1.79c.036.788.044,1.038.044,3.041s-.009,2.254-.044,3.04a5.406,5.406,0,0,1-.343,1.79A3.765,3.765,0,0,1,13.7,15.86a5.423,5.423,0,0,1-1.79.343c-.787.036-1.038.044-3.041.044s-2.254-.009-3.04-.044a5.406,5.406,0,0,1-1.79-.343A3.768,3.768,0,0,1,1.887,13.7a5.442,5.442,0,0,1-.343-1.79c-.036-.788-.044-1.038-.044-3.041s.009-2.254.044-3.039a5.427,5.427,0,0,1,.343-1.791A3.778,3.778,0,0,1,4.043,1.887a5.442,5.442,0,0,1,1.79-.343Zm6.02,1.327c-.778-.036-1.011-.043-2.98-.043s-2.2.007-2.98.043a4.076,4.076,0,0,0-1.37.254,2.435,2.435,0,0,0-1.4,1.4,4.076,4.076,0,0,0-.254,1.37c-.036.778-.043,1.011-.043,2.98s.007,2.2.043,2.98a4.076,4.076,0,0,0,.254,1.37,2.435,2.435,0,0,0,1.4,1.4,4.076,4.076,0,0,0,1.37.254c.778.036,1.01.043,2.98.043s2.2-.007,2.98-.043a4.076,4.076,0,0,0,1.37-.254,2.435,2.435,0,0,0,1.4-1.4,4.076,4.076,0,0,0,.254-1.37c.036-.778.043-1.011.043-2.98s-.007-2.2-.043-2.98a4.076,4.076,0,0,0-.254-1.37,2.435,2.435,0,0,0-1.4-1.4,4.076,4.076,0,0,0-1.37-.254ZM7.932,11.147A2.46,2.46,0,1,0,6.414,8.874a2.46,2.46,0,0,0,1.518,2.273ZM6.194,6.194a3.79,3.79,0,1,1,0,5.36,3.79,3.79,0,0,1,0-5.36ZM13.5,5.648a.9.9,0,1,0-1.249-.018.9.9,0,0,0,1.249.018Z" transform="translate(-1.5 -1.5)" opacity="0.612"/>
</svg>
