<svg xmlns="http://www.w3.org/2000/svg" width="14.407" height="14.407" viewBox="0 0 14.407 14.407">
  <path id="Icon_akar-linkedin-fill" data-name="Icon akar-linkedin-fill" d="M8.351,8.02h2.675V9.353A3.069,3.069,0,0,1,13.885,7.9c2.846,0,3.522,1.526,3.522,4.325v5.184H14.526V12.86c0-1.594-.385-2.493-1.367-2.493-1.361,0-1.926.969-1.926,2.492v4.548H8.351ZM3.411,17.285H6.292V7.9H3.411ZM6.7,4.837a1.822,1.822,0,0,1-.542,1.3A1.852,1.852,0,0,1,3,4.837a1.825,1.825,0,0,1,.542-1.3,1.864,1.864,0,0,1,2.62,0A1.828,1.828,0,0,1,6.7,4.837Z" transform="translate(-3 -3)" opacity="0.612"/>
</svg>
