<svg xmlns="http://www.w3.org/2000/svg" width="20.334" height="17.623" viewBox="0 0 20.334 17.623">
  <path id="Icon_core-truck" data-name="Icon core-truck" d="M18.667,5.842a1.357,1.357,0,0,0-1.111-.578H14.181V3.231a1.357,1.357,0,0,0-1.356-1.356H1.981A1.357,1.357,0,0,0,.625,3.231V17.126H2.874a2.88,2.88,0,0,0,5.67,0h4.5a2.88,2.88,0,0,0,5.67,0h2.249V9.438a1.012,1.012,0,0,0-.184-.583ZM1.98,3.231H12.825v7.456H1.981ZM5.709,18.142a1.525,1.525,0,1,1,1.525-1.525A1.525,1.525,0,0,1,5.709,18.142Zm10.167,0A1.525,1.525,0,1,1,17.4,16.617,1.525,1.525,0,0,1,15.876,18.142ZM19.6,15.77h-.975a2.881,2.881,0,0,0-5.507,0H8.462a2.881,2.881,0,0,0-5.507,0H1.981V12.042H19.6Zm0-5.084H14.181V6.62h3.375L19.6,9.544Z" transform="translate(-0.625 -1.875)"/>
</svg>
