<svg xmlns="http://www.w3.org/2000/svg" xmlns:xlink="http://www.w3.org/1999/xlink" width="438" height="113" viewBox="0 0 438 113">
  <defs>
    <filter id="Ellipse_3" x="332" y="0" width="106" height="106" filterUnits="userSpaceOnUse">
      <feOffset dy="3" input="SourceAlpha"/>
      <feGaussianBlur stdDeviation="8" result="blur"/>
      <feFlood flood-color="#a55bdb"/>
      <feComposite operator="in" in2="blur"/>
      <feComposite in="SourceGraphic"/>
    </filter>
    <clipPath id="clip-path">
      <rect id="Rectangle_14" data-name="Rectangle 14" width="32.856" height="32.791" fill="#fff"/>
    </clipPath>
    <clipPath id="clip-path-2">
      <rect id="Rectangle_15" data-name="Rectangle 15" width="33.512" height="21.2" fill="#fff"/>
    </clipPath>
    <clipPath id="clip-path-3">
      <rect id="Rectangle_16" data-name="Rectangle 16" width="33.596" height="28.728" fill="#fff"/>
    </clipPath>
    <clipPath id="clip-path-4">
      <rect id="Rectangle_17" data-name="Rectangle 17" width="27.109" height="27.032" fill="#fff"/>
    </clipPath>
  </defs>
  <g id="Group_521" data-name="Group 521" transform="translate(-88 -499)">
    <text id="Order_Packed" data-name="Order Packed" transform="translate(130 608)" fill="#fff" font-size="14" font-family="SegoeUI, Segoe UI"><tspan x="-41.583" y="0">Order Packed</tspan></text>
    <text id="Order_Shipped" data-name="Order Shipped" transform="translate(238 608)" fill="#fff" font-size="14" font-family="SegoeUI, Segoe UI"><tspan x="-45.233" y="0">Order Shipped</tspan></text>
    <text id="Out_For_Delivery" data-name="Out For Delivery" transform="translate(355 608)" fill="#fff" font-size="14" font-family="SegoeUI, Segoe UI"><tspan x="-50.193" y="0">Out For Delivery</tspan></text>
    <text id="Delivery_Failed" data-name="Delivery Failed" transform="translate(473 608)" fill="#fff" font-size="14" font-family="SegoeUI, Segoe UI"><tspan x="-44.625" y="0">Delivery Failed</tspan></text>
    <line id="Line_1" data-name="Line 1" x2="346" transform="translate(127.5 549.5)" fill="none" stroke="#fff" stroke-width="1" stroke-dasharray="5"/>
    <line id="Line_4" data-name="Line 4" x2="330" transform="translate(143.5 549.5)" fill="none" stroke="#0ed065" stroke-linecap="round" stroke-width="4"/>
    <circle id="Ellipse_1" data-name="Ellipse 1" cx="26" cy="26" r="26" transform="translate(101 523)" fill="#0ed065"/>
    <circle id="Ellipse_16" data-name="Ellipse 16" cx="26" cy="26" r="26" transform="translate(217 523)" fill="#0ed065"/>
    <circle id="Ellipse_17" data-name="Ellipse 17" cx="26" cy="26" r="26" transform="translate(331 523)" fill="#0ed065"/>
    <g transform="matrix(1, 0, 0, 1, 88, 499)" filter="url(#Ellipse_3)">
      <g id="Ellipse_3-2" data-name="Ellipse 3" transform="translate(359 24)" fill="#f03d3d" stroke="#ffd9d9" stroke-width="3">
        <circle cx="26" cy="26" r="26" stroke="none"/>
        <circle cx="26" cy="26" r="27.5" fill="none"/>
      </g>
    </g>
    <g id="Group_2" data-name="Group 2" transform="translate(109.572 533.604)" clip-path="url(#clip-path)">
      <path id="Path_1" data-name="Path 1" d="M0,8.131V7.747a1.1,1.1,0,0,1,.731-.51Q5.759,5.679,10.785,4.115a.677.677,0,0,0,.473-.409,6.407,6.407,0,0,1,11.808.443.665.665,0,0,0,.495.462c2.868.872,5.731,1.758,8.6,2.635a1.052,1.052,0,0,1,.7.5v.384c-.151.176-.293.361-.456.525q-1.625,1.632-3.257,3.257c-.08.08-.156.164-.289.3a2.732,2.732,0,0,1,.31.228q1.622,1.612,3.236,3.232c.163.164.3.35.456.525v.384a1.06,1.06,0,0,1-.7.5c-1.081.331-2.156.683-3.24,1.005a.356.356,0,0,0-.3.419q.013,4.769.006,9.538c0,.609-.107.757-.688.95q-4.176,1.388-8.352,2.776c-.989.33-1.974.676-2.96,1.014h-.385c-.084-.041-.166-.09-.254-.123Q11.1,30.838,6.212,29.012c-.608-.227-.693-.347-.694-.983q0-4.592,0-9.185v-.388c-1.142-.379-2.266-.751-3.388-1.127-.609-.2-.751-.584-.427-1.129.283-.477.571-.95.857-1.426L4.1,12.212a2.094,2.094,0,0,1-.289-.205Q2.13,10.336.457,8.657c-.163-.164-.3-.35-.457-.526M17.087,31.255l10.238-3.407V18.609c-.15.043-.281.078-.411.119q-3.36,1.052-6.719,2.1a.715.715,0,0,1-.952-.284q-.533-.661-1.062-1.324l-1.1-1.365ZM15.761,31.2V18.366L14.4,20.623c-.326.54-.518.615-1.1.421q-1.854-.614-3.707-1.233L6.8,18.887v.35c0,2.765,0,5.529-.007,8.294a.4.4,0,0,0,.315.456q4.173,1.546,8.338,3.113c.1.036.2.065.313.1m1.321-19.678a5.123,5.123,0,1,0-5.145-5.163,5.14,5.14,0,0,0,5.145,5.163m.425,4.8c.811,1.013,1.6,1.983,2.366,2.966a.385.385,0,0,0,.506.147c2.562-.813,5.129-1.612,7.693-2.417.962-.3,1.924-.606,2.921-.921-.1-.1-.166-.184-.239-.258-.9-.9-1.8-1.79-2.691-2.7a.506.506,0,0,0-.613-.136c-2.173.733-4.351,1.453-6.527,2.178l-3.416,1.14m-2.043.037-10.3-3.426L3.133,16.312l10.3,3.428,2.027-3.376M7.022,12.129l0,.069c.079.03.156.062.236.088q4.436,1.476,8.875,2.943a1.046,1.046,0,0,0,.612-.008q4.411-1.451,8.813-2.928c.094-.031.184-.073.306-.122a.892.892,0,0,0-.117-.069c-1.265-.423-2.529-.851-3.8-1.258a.467.467,0,0,0-.376.118,6.4,6.4,0,0,1-9.3-.327.349.349,0,0,0-.436-.12c-.715.25-1.436.485-2.155.725l-2.664.887M1.845,8.235C2.9,9.291,3.913,10.3,4.936,11.3a.439.439,0,0,0,.365.037c1.1-.353,2.189-.721,3.282-1.084l2.783-.923a6.642,6.642,0,0,1-.654-3.858L1.845,8.235M23.477,5.919a6.805,6.805,0,0,1-.9,3.772c1.716.572,3.385,1.133,5.06,1.676a.474.474,0,0,0,.37-.141c.93-.913,1.85-1.837,2.771-2.759.065-.065.123-.138.209-.235L23.477,5.919" transform="translate(0 0)" fill="#fff"/>
      <path id="Path_2" data-name="Path 2" d="M121.321,331.62a2.926,2.926,0,0,1-.319-.086q-1.785-.664-3.567-1.335a1.471,1.471,0,0,1-.176-.075.634.634,0,0,1,.48-1.173c.265.082.521.189.781.286.979.366,1.96.729,2.938,1.1.448.17.634.5.5.859a.633.633,0,0,1-.637.424" transform="translate(-107.502 -302.532)" fill="#fff"/>
      <path id="Path_3" data-name="Path 3" d="M149.036,307.879c-.6-.245-1.208-.462-1.784-.749a.529.529,0,0,1-.176-.711.575.575,0,0,1,.665-.371c.565.182,1.125.387,1.67.622a.569.569,0,0,1,.277.71.756.756,0,0,1-.651.5" transform="translate(-135.222 -281.48)" fill="#fff"/>
      <path id="Path_4" data-name="Path 4" d="M117.513,295.464a.636.636,0,1,1-.652.62.658.658,0,0,1,.652-.62" transform="translate(-107.487 -271.763)" fill="#fff"/>
      <path id="Path_5" data-name="Path 5" d="M182.75,51.5c1.121-1.122,2.176-2.178,3.234-3.232a1.766,1.766,0,0,1,.341-.286.584.584,0,0,1,.736.1.6.6,0,0,1,.113.759,1.78,1.78,0,0,1-.266.317q-1.753,1.755-3.51,3.5c-.474.472-.771.471-1.246,0-.356-.353-.718-.7-1.062-1.065a.641.641,0,1,1,.915-.888c.25.244.479.51.744.8" transform="translate(-166.348 -44.048)" fill="#fff"/>
    </g>
    <g id="Group_4" data-name="Group 4" transform="translate(225.926 539.198)" clip-path="url(#clip-path-2)">
      <path id="Path_6" data-name="Path 6" d="M0,14.92a.69.69,0,0,1,.669-.374c1.581.007,3.163,0,4.744,0a1.355,1.355,0,0,1,.163.006.53.53,0,0,1,.507.537.51.51,0,0,1-.538.5c-.621.01-1.243,0-1.865,0H3.306v1.2H4.389c.567,0,1.134-.007,1.7,0a.314.314,0,0,0,.338-.223,3.189,3.189,0,0,1,3.062-2.013,3.182,3.182,0,0,1,3.035,2,.32.32,0,0,0,.334.232q5.219-.009,10.438-.005c.053,0,.106-.008.2-.016v-.356c0-1.145-.012-2.291.012-3.435a.85.85,0,0,1,.26-.583c.324-.26.768.026.774.48.009.8,0,1.592,0,2.389,0,.414-.006.829,0,1.243a.944.944,0,0,0,.1.273c.079-.071.192-.126.233-.214a3.322,3.322,0,0,1,6.078-.07.406.406,0,0,0,.459.3c.334-.024.67-.006,1.023-.006V14.474c-.226,0-.441.008-.656,0a1.614,1.614,0,0,1-1.558-1.585c-.01-.371-.009-.742,0-1.112a.524.524,0,0,1,.592-.581c.5-.007,1,0,1.5,0a1.482,1.482,0,0,0-1.353-1.162c-2.125-.03-4.25-.011-6.42-.011,0,.195.006.377,0,.558a.519.519,0,0,1-.493.546.529.529,0,0,1-.55-.528c-.008-.1,0-.2,0-.294q0-4.417,0-8.834v-.4H3.283v.393q0,4.417,0,8.834c0,.1,0,.2,0,.294a.52.52,0,0,1-.5.536.532.532,0,0,1-.538-.508,2.726,2.726,0,0,1-.005-.294q0-4.5,0-9C2.234.4,2.633,0,3.543,0h19.7c.921,0,1.309.39,1.31,1.313,0,.292,0,.585,0,.9.143.006.259.016.375.016,1.123,0,2.247.022,3.37,0a2.3,2.3,0,0,1,2.39,2.859c-.023.174-.211.326-.361.543.252,1.007.519,2.1.8,3.179a.376.376,0,0,0,.234.212,2.764,2.764,0,0,1,2.147,2.771c0,1.789,0,3.577,0,5.366,0,.505-.179.681-.695.684-.5,0-1,0-1.527,0A3.4,3.4,0,0,1,29.9,20.555a3.229,3.229,0,0,1-2.149.637A3.365,3.365,0,0,1,24.6,17.871H12.815a3.359,3.359,0,0,1-1.487,2.759,3.184,3.184,0,0,1-2.14.555A3.363,3.363,0,0,1,6.14,17.858c-.1,0-.2-.014-.308-.014-.611,0-1.223-.027-1.832,0-1.374.071-1.863-.3-1.768-1.789.009-.14,0-.28,0-.464-.525,0-1.024-.014-1.522.005A.712.712,0,0,1,0,15.247ZM24.568,8.942h5.475a1.662,1.662,0,0,0-.023-.209c-.242-.971-.492-1.941-.724-2.915a.316.316,0,0,0-.374-.291c-1.351.011-2.7.005-4.054.006-.095,0-.19.013-.3.022Zm3.366,11.209a2.274,2.274,0,1,0-2.263-2.281,2.292,2.292,0,0,0,2.263,2.281m-18.466,0A2.274,2.274,0,1,0,7.2,17.873a2.285,2.285,0,0,0,2.264,2.277m15.1-15.7h5.063a1.113,1.113,0,0,0-1.189-1.164c-1.209-.007-2.418,0-3.628,0a2.191,2.191,0,0,0-.247.027Zm7.867,8.954V12.268H31.3c-.085,1.038.107,1.228,1.142,1.138" transform="translate(0 0)" fill="#fff"/>
      <path id="Path_7" data-name="Path 7" d="M112.14,62.5l4.238-4.243c.146-.147.289-.3.441-.438a.525.525,0,1,1,.732.747c-.813.822-1.633,1.637-2.45,2.455s-1.619,1.621-2.43,2.429c-.37.368-.605.369-.972,0q-1.3-1.294-2.593-2.59a.58.58,0,0,1-.211-.639.522.522,0,0,1,.9-.153c.693.68,1.377,1.369,2.06,2.058a3.856,3.856,0,0,1,.284.37" transform="translate(-99.345 -52.6)" fill="#fff"/>
      <path id="Path_8" data-name="Path 8" d="M158.184,167.435H154.52a1.932,1.932,0,0,1-.358-.017.434.434,0,0,1-.4-.48.981.981,0,0,1,.339-.5c.078-.071.25-.05.379-.05q3.713,0,7.427,0a1.718,1.718,0,0,1,.229.008.528.528,0,0,1,.491.551.509.509,0,0,1-.52.483c-.4.013-.807.005-1.21.006h-2.715" transform="translate(-140.316 -151.838)" fill="#fff"/>
      <path id="Path_9" data-name="Path 9" d="M16.659,141.828q-1.6,0-3.2,0c-.413,0-.652-.2-.65-.521s.25-.524.656-.524q3.237,0,6.474,0c.247,0,.483.058.564.3a.617.617,0,0,1-.041.509.784.784,0,0,1-.529.229c-1.089.02-2.18.01-3.269.01" transform="translate(-11.685 -128.471)" fill="#fff"/>
      <path id="Path_10" data-name="Path 10" d="M308.346,192.133a1.075,1.075,0,0,1,1.084,1.077,1.083,1.083,0,1,1-2.166,0,1.072,1.072,0,0,1,1.081-1.078" transform="translate(-280.399 -175.334)" fill="#fff"/>
      <path id="Path_11" data-name="Path 11" d="M98.142,193.222a1.083,1.083,0,0,1-1.09,1.075,1.106,1.106,0,0,1-1.074-1.1,1.081,1.081,0,0,1,1.1-1.065,1.063,1.063,0,0,1,1.065,1.09" transform="translate(-87.586 -175.333)" fill="#fff"/>
    </g>
    <g id="Group_6" data-name="Group 6" transform="translate(340.202 534.636)" clip-path="url(#clip-path-3)">
      <path id="Path_12" data-name="Path 12" d="M7.634,18.978H5.261a1.765,1.765,0,0,1-1.994-2c0-1.444,0-2.887.005-4.331a.415.415,0,0,0-.244-.42,5.946,5.946,0,1,1,8.848-5.837,5.877,5.877,0,0,1-1.6,4.777c-.051.056-.1.114-.2.224a2.337,2.337,0,0,1,1.884.5c.7-1.887,1.63-3.521,3.73-4.162-.12-.113-.214-.2-.306-.29A4.335,4.335,0,1,1,22.7,3.69a2.251,2.251,0,0,1,.044.671.684.684,0,0,1-.27.46.312.312,0,0,0-.189.427,2.694,2.694,0,0,0,.341.9,1.136,1.136,0,0,1-.215,1.644,1.119,1.119,0,0,0-.284.425A1.818,1.818,0,0,1,20.56,9.525,2.625,2.625,0,0,0,23.3,11.383a2.268,2.268,0,0,1,2.316.747c.058-.123.1-.22.149-.314a2.67,2.67,0,0,1,2.228-1.492c.491-.047.719.17.72.658q0,2.047,0,4.094c0,.469-.232.679-.7.645a3.125,3.125,0,0,1-.434-.069c-.129-.028-.254-.072-.426-.121.036.1.055.174.083.24.577,1.345,1.158,2.689,1.729,4.036a.348.348,0,0,0,.362.26,4.327,4.327,0,1,1-4.337,5.047c-.008-.044-.016-.088-.029-.157H16.769a4.343,4.343,0,0,1-1.825,2.953,4.283,4.283,0,0,1-2.578.776,4.362,4.362,0,0,1-4.2-3.754h-1.4c-.636,0-.795-.159-.78-.806a9.663,9.663,0,0,1,1.06-4.258,9.306,9.306,0,0,1,.6-.891M5.968,2.2a4.872,4.872,0,1,0,4.877,4.883A4.878,4.878,0,0,0,5.968,2.2M17.34,23.837a3.283,3.283,0,0,1-.539-2.229c.012-.349,0-.7,0-1.048a1.532,1.532,0,0,0-1.578-1.581c-1.668,0-3.335-.013-5,0a2.372,2.372,0,0,0-2.205,1.365,9.494,9.494,0,0,0-.513,1.21,7.825,7.825,0,0,0-.44,2.28Zm4.542-11.5a3.755,3.755,0,0,1-1.817-1.53c-.212-.292-.418-.588-.64-.872a3.016,3.016,0,0,0-1.573-1.112,3.38,3.38,0,0,0-3.729,1.249A7.982,7.982,0,0,0,12.738,13.2a6.013,6.013,0,0,0-.252,1.972h4.426l1.1-2.116c-.175-.258-.409-.576-.613-.912a.533.533,0,1,1,.91-.557c.052.073.092.155.14.231a4.921,4.921,0,0,0,2.634,2.064,3.734,3.734,0,0,0,.4.095l.4-1.638m-17.529.488c0,1.5-.008,2.984.006,4.471a.606.606,0,0,0,.657.592q2.859.009,5.718,0a.615.615,0,0,0,.648-.639q.015-2.064,0-4.127a.609.609,0,0,0-.581-.634c-.334-.022-.67,0-1.038,0,0,.52,0,1.013,0,1.506,0,.448-.2.65-.631.653q-1.269.008-2.538,0c-.418,0-.613-.207-.619-.63,0-.323,0-.647,0-.951l-1.621-.234m21.226,1.855-2.655.605c0-.027,0,.017.01.06.469,2.016.944,4.03,1.4,6.048a2.393,2.393,0,0,1,.055.934c-.094.509-.275,1-.424,1.518.458,0,.972-.009,1.486,0a.464.464,0,0,0,.443-.226q1.006-1.439,2.038-2.861a.427.427,0,0,0,.054-.487c-.6-1.36-1.176-2.726-1.761-4.09l-.647-1.506M17.886,7.525V6.311a2.255,2.255,0,0,1,2.486-2.493h1.233a3.217,3.217,0,0,0-3.367-2.7,3.311,3.311,0,0,0-3.058,3.316,3.185,3.185,0,0,0,2.705,3.091M20.03,21.678c0-1.062.042-2.1-.013-3.128a2.089,2.089,0,0,0-1.235-1.884,4,4,0,0,0-1.484-.378c-1.52-.048-3.042-.018-4.563-.016a2.309,2.309,0,0,0-.241.024l-.073,1.6h2.668a2.612,2.612,0,0,1,2.8,2.78c0,.333,0,.665,0,1Zm-1.216-7.819-.733,1.367c.133.051.173.072.216.082a3.525,3.525,0,0,1,2.839,3.576c0,.868,0,1.735.005,2.6,0,.1.056.274.123.3a2.125,2.125,0,0,1,1.468,1.656,1.646,1.646,0,0,0,.55-1.7c-.468-2.132-.972-4.256-1.47-6.381a.334.334,0,0,0-.192-.222,6.228,6.228,0,0,1-2.806-1.272m9.112,8.773c1.466-.7,2.713-.366,3.284.808a2.169,2.169,0,0,1-.98,2.885c-1.2.6-2.329.1-3.095-1.379H26.092a.517.517,0,0,0-.007.111,3.246,3.246,0,1,0,3.067-3.908.416.416,0,0,0-.271.147c-.31.414-.6.84-.954,1.336M9.3,24.94a3.2,3.2,0,0,0,6.322-.007c-.236,0-.473.016-.707,0a.4.4,0,0,0-.475.293,2.069,2.069,0,0,1-1.962,1.307,2.138,2.138,0,0,1-2-1.312l-.121-.276Zm12.383-18-.657-2.029c-.3,0-.671-.022-1.039.005a1.109,1.109,0,0,0-1.017,1.077c-.018.652-.009,1.3,0,1.957,0,.079.065.21.126.228a6.268,6.268,0,0,0,1.078.253c.588.06.857-.207.967-.785a1.5,1.5,0,0,1,.33-.539.837.837,0,0,1,.213-.167m-.025,16.852a.993.993,0,0,0-1.015-1.019c-.416-.008-.833,0-1.249,0H17.988a1.4,1.4,0,0,0,1.111,1c.844.07,1.7.019,2.565.019m3.417-10.24c-.323-1-.819-1.336-1.574-1.073a1.343,1.343,0,0,0-.806,1.609,4.3,4.3,0,0,0,2.381-.536m2.534-2a1.519,1.519,0,0,0-1.064,1.515A1.5,1.5,0,0,0,27.614,14.5Zm.726,13.389a1.08,1.08,0,0,0,1.351.45,1.081,1.081,0,0,0-.311-2.068.907.907,0,0,0-.976.535c.252,0,.5,0,.745,0,.4.005.641.207.646.533s-.239.541-.632.548c-.254,0-.509,0-.824,0M8.672,12.427l-1.6.527v.586h1.6ZM11.549,24.95a1.077,1.077,0,0,0,1.067.5.893.893,0,0,0,.738-.5Z" transform="translate(0 0)" fill="#fff"/>
      <path id="Path_13" data-name="Path 13" d="M61.154,38.262a2.222,2.222,0,0,1,0,.405A1.924,1.924,0,0,0,62,40.7a4.638,4.638,0,0,1,.6.594.542.542,0,1,1-.773.759c-.533-.519-1.064-1.042-1.574-1.584a.782.782,0,0,1-.176-.486c-.016-1.026-.011-2.053-.006-3.079a.548.548,0,0,1,.527-.62c.33-.008.549.234.553.628.005.451,0,.9,0,1.353" transform="translate(-54.638 -33.001)" fill="#fff"/>
    </g>
    <g id="Group_8" data-name="Group 8" transform="translate(459.946 536.283)" clip-path="url(#clip-path-4)">
      <path id="Path_14" data-name="Path 14" d="M27.1,13.539c0,2.078-.006,4.156.005,6.234a.85.85,0,0,1-.532.859q-6.282,3.127-12.551,6.278a.964.964,0,0,1-.951-.006Q6.789,23.748.493,20.612A.8.8,0,0,1,0,19.818Q.009,13.512,0,7.206A.776.776,0,0,1,.48,6.433Q6.8,3.284,13.112.116a.911.911,0,0,1,.9.005q6.284,3.153,12.578,6.289a.832.832,0,0,1,.52.837c-.01,2.1,0,4.194,0,6.292M1.262,8.071c-.008.112-.017.186-.017.261q0,5.513-.007,11.026a.373.373,0,0,0,.264.38Q7.059,22.51,12.613,25.29c.091.046.186.084.32.144v-.349q0-5.441.006-10.881a.435.435,0,0,0-.287-.454Q7.105,10.986,1.564,8.21c-.091-.046-.185-.085-.3-.139m15.682,4.456c-.132.059-.22.095-.3.137-.731.364-1.457.737-2.194,1.088a.431.431,0,0,0-.278.46q.011,5.44.005,10.88v.344c.131-.059.217-.094.3-.135q5.569-2.783,11.14-5.563a.4.4,0,0,0,.253-.417q-.01-5.469-.005-10.938c0-.092-.008-.184-.014-.309-.115.052-.2.087-.284.128-.739.368-1.475.744-2.22,1.1a.391.391,0,0,0-.258.414c.009,1.924,0,3.848.006,5.772,0,.338.042.69-.334.882s-.638-.044-.912-.242c-.449-.324-.9-.644-1.364-.974-.087.12-.156.212-.221.305Q19.195,17,18.128,18.545a.638.638,0,0,1-.757.332c-.281-.084-.425-.317-.425-.705q0-1.861,0-3.723V12.527M6.189,4.966c.066.045.087.064.112.076q5.628,2.817,11.26,5.627a.439.439,0,0,0,.338-.017c.812-.395,1.617-.8,2.424-1.207l.916-.459c-.069-.043-.107-.071-.149-.092q-5.6-2.8-11.209-5.6a.507.507,0,0,0-.39.018c-.941.457-1.875.93-2.81,1.4-.152.076-.3.156-.491.252m10.127,6.481c-.09-.055-.122-.077-.156-.094q-5.606-2.8-11.216-5.6a.443.443,0,0,0-.338.008c-.5.236-1,.491-1.5.74-.348.175-.7.351-1.085.548.132.074.219.127.31.172,3.53,1.766,7.066,3.523,10.585,5.309a1.11,1.11,0,0,0,1.282-.012,6.039,6.039,0,0,1,.77-.392l1.346-.677M25.089,7.06c-.117-.066-.187-.109-.261-.146q-5.54-2.772-11.083-5.536a.509.509,0,0,0-.388.007c-.514.238-1.017.5-1.523.753l-.742.372.33.168C14.856,4.4,18.3,6.095,21.716,7.85a1.6,1.6,0,0,0,1.832,0,14.254,14.254,0,0,1,1.541-.79m-6.918,9.154.056.023,1.422-2.053c.427-.615.664-.659,1.267-.231l.931.658v-4.55c-1.211.605-2.395,1.194-3.574,1.792a.273.273,0,0,0-.1.209c-.006,1.383,0,2.767,0,4.15" transform="translate(0 -0.001)" fill="#fff"/>
    </g>
    <circle id="Ellipse_19" data-name="Ellipse 19" cx="11.5" cy="11.5" r="11.5" transform="translate(480 517)" fill="#fff"/>
    <path id="Path_40" data-name="Path 40" d="M9.06,12.2h1.569v1.569H9.06Zm0-6.276h1.569v4.707H9.06ZM9.837,2a7.845,7.845,0,1,0,7.853,7.845A7.841,7.841,0,0,0,9.837,2Zm.008,14.121a6.276,6.276,0,1,1,6.276-6.276A6.274,6.274,0,0,1,9.845,16.121Z" transform="translate(481.655 518.655)" fill="#f03d3d"/>
  </g>
</svg>
