<svg xmlns="http://www.w3.org/2000/svg" width="57.417" height="52.998" viewBox="0 0 57.417 52.998">
  <g id="Group_508" data-name="Group 508" transform="translate(-274 -133)">
    <g id="Group_507" data-name="Group 507" transform="translate(274 133)">
      <g id="Group_506" data-name="Group 506">
        <g id="Group_505" data-name="Group 505">
          <g id="Group_504" data-name="Group 504">
            <path id="Path_381" data-name="Path 381" d="M21.833,34.083a1.1,1.1,0,0,1-.784-.32l-3.931-3.931-2.661.883A1.1,1.1,0,0,1,13,29.666V21.937a1.1,1.1,0,0,1,.707-1.027l23.188-8.833a1.1,1.1,0,1,1,.784,2.065L15.208,22.7v5.433l1.855-.618a1.1,1.1,0,0,1,1.1.265l2.562,2.54V25.25a1.1,1.1,0,0,1,.685-1.027L44.6,14.738a1.1,1.1,0,0,1,.839,2.043l-22.5,9.209v6.989A1.1,1.1,0,0,1,21.833,34.083Z" transform="translate(-4.167 -8.687)" fill="#0ed065"/>
            <path id="Path_382" data-name="Path 382" d="M30.4,61.167a1.1,1.1,0,0,1-.375-.066L5.729,52.267A1.1,1.1,0,0,1,5,51.229V18.1a1.1,1.1,0,1,1,2.208,0V50.456l22.083,8.027V26.938a1.1,1.1,0,1,1,2.208,0V60.063A1.1,1.1,0,0,1,30.4,61.167ZM54.686,26.938a1.1,1.1,0,0,1-1.1-1.1V18.1a1.1,1.1,0,1,1,2.208,0v7.729A1.1,1.1,0,0,1,54.686,26.938Z" transform="translate(-5 -8.168)" fill="#0ed065"/>
            <path id="Path_383" data-name="Path 383" d="M30.4,62a1.1,1.1,0,0,1-.375-2.142l23.562-8.568v-2.54a1.1,1.1,0,1,1,2.208,0v3.312a1.1,1.1,0,0,1-.729,1.038L30.771,61.933A1.1,1.1,0,0,1,30.4,62Zm0-33.124a1.1,1.1,0,0,1-.375-.066L5.729,19.975a1.1,1.1,0,0,1,0-2.076L30.02,9.066a1.1,1.1,0,0,1,.751,0L55.062,17.9a1.1,1.1,0,0,1,0,2.076L30.771,28.808a1.1,1.1,0,0,1-.375.066ZM9.339,18.937,30.4,26.6l21.056-7.663L30.4,11.274ZM35.916,53.773a1.1,1.1,0,0,1-.375-2.142l4.417-1.6a1.1,1.1,0,0,1,.751,2.032l-4.417,1.6A1.1,1.1,0,0,1,35.916,53.773Zm0-4.417a1.1,1.1,0,0,1-.375-2.142l2.208-.806a1.1,1.1,0,0,1,.751,2.076l-2.208.806A1.1,1.1,0,0,1,35.916,49.356Z" transform="translate(-5 -9)" fill="#0ed065"/>
            <path id="Path_384" data-name="Path 384" d="M49.593,47.188a11.594,11.594,0,1,1,9.154-18.716A1.105,1.105,0,1,1,57,29.83a9.385,9.385,0,1,0-2.959,14.045,1.1,1.1,0,1,1,1.049,1.943A11.627,11.627,0,0,1,49.593,47.188Z" transform="translate(-1.563 -7.439)" fill="#0ed065"/>
            <path id="Path_385" data-name="Path 385" d="M56.521,30.625H52.1a1.1,1.1,0,0,1,0-2.208h3.313V25.1a1.1,1.1,0,1,1,2.208,0v4.417A1.1,1.1,0,0,1,56.521,30.625Z" transform="translate(-0.21 -7.438)" fill="#0ed065"/>
          </g>
        </g>
      </g>
    </g>
  </g>
</svg>
