<svg xmlns="http://www.w3.org/2000/svg" width="57.674" height="50.448" viewBox="0 0 57.674 50.448">
  <g id="Group_501" data-name="Group 501" transform="translate(-64 -112.986)">
    <path id="Path_378" data-name="Path 378" d="M65.506,159.067H99.257a12.791,12.791,0,1,0,18.953-17.175v-27.4a1.506,1.506,0,0,0-1.506-1.506h-51.2A1.506,1.506,0,0,0,64,114.492v43.069A1.506,1.506,0,0,0,65.506,159.067Zm43.368,1.355a9.788,9.788,0,1,1,9.788-9.788A9.8,9.8,0,0,1,108.874,160.422ZM87.076,116h8.4v13.247h-8.4Zm-20.064,0H84.064v14.753a1.506,1.506,0,0,0,1.506,1.506H96.986a1.506,1.506,0,0,0,1.506-1.506V116H115.2v23.515a12.792,12.792,0,0,0-17.916,16.542H67.012Z" transform="translate(0)" fill="#f03d3d"/>
    <path id="Path_379" data-name="Path 379" d="M117.421,301.365H103.411a1.506,1.506,0,0,0-1.506,1.506v8.994a1.506,1.506,0,0,0,1.506,1.506h14.011a1.506,1.506,0,0,0,1.506-1.506v-8.994A1.506,1.506,0,0,0,117.421,301.365Zm-1.506,8.994h-11v-5.983h11Zm27.716-4.682h-5.272v-.706a.3.3,0,0,0-.47-.249l-3.341,2.269a.3.3,0,0,0,0,.5l3.341,2.269a.3.3,0,0,0,.47-.249v-.821h5.272a1.958,1.958,0,0,1,0,3.915h-6.776a1.506,1.506,0,1,0,0,3.012h6.776a4.969,4.969,0,0,0,0-9.939Z" transform="translate(-32.197 -160.012)" fill="#f03d3d"/>
  </g>
</svg>
