<svg width="85" height="86" viewBox="0 0 85 86" fill="none" xmlns="http://www.w3.org/2000/svg">
<path d="M44.9887 0.0894335C57.8373 1.2163 65.7432 13.3137 65.0814 25.578C64.4912 36.5664 54.9575 50.8876 48.2977 59.4315C47.3557 60.6418 45.2212 63.611 44.1599 64.4219C42.7469 65.5011 41.471 65.0599 40.3322 63.9211C38.9609 62.5557 37.3392 60.2603 36.1229 58.6684C29.1113 49.5223 19.3511 34.8075 19.9235 22.9129C20.466 11.5369 27.9129 1.13282 39.8433 0.0894335C41.1967 -0.0298112 43.6353 -0.0298112 44.9887 0.0894335ZM41.1311 15.2395C33.0642 16.3305 33.0285 29.3044 41.9181 29.9662C52.5846 30.7651 52.5309 13.6952 41.1311 15.2395Z" fill="url(#paint0_linear_5563_1681)"/>
<path d="M84.9998 81.7704V83.4279C84.7553 83.887 83.7656 85.0854 83.2588 85.0854H49.9717L79.6099 69.6611L84.9998 81.7645V81.7704Z" fill="url(#paint1_linear_5563_1681)"/>
<path d="M28.2218 64.6718L32.3655 62.5791L32.7471 62.5374C36.08 66.1862 37.8985 70.652 43.7236 69.9663C47.4917 69.5251 51.6533 63.2886 53.8534 60.3373C57.4486 55.5019 60.7875 50.434 63.6076 45.1098C65.6944 45.2707 68.598 44.281 69.8143 46.5705L77.6904 64.9342L45.2559 81.9146L28.2158 64.6778L28.2218 64.6718Z" fill="url(#paint2_linear_5563_1681)"/>
<path d="M40.6713 84.4253C40.0095 84.4849 39.6041 85.1527 38.9363 85.105H2.0659C-1.60087 84.0974 0.509755 80.5319 1.6068 78.2782L23.6253 67.1885L40.6654 84.4253H40.6713Z" fill="url(#paint3_linear_5563_1681)"/>
<path d="M21.3894 45.1045C23.7743 49.7848 26.7614 54.1074 29.7127 58.4301L4.64746 71.3085L15.296 46.3506C16.5719 44.3473 19.3682 45.2595 21.3834 45.1045H21.3894Z" fill="url(#paint4_linear_5563_1681)"/>
<path d="M41.9531 20.0507C45.7212 19.4425 46.0491 24.8384 42.7222 25.1484C39.3953 25.4584 38.9243 20.5396 41.9531 20.0507Z" fill="url(#paint5_linear_5563_1681)"/>
<defs>
<linearGradient id="paint0_linear_5563_1681" x1="56.965" y1="1.59411" x2="-0.18332" y2="54.2562" gradientUnits="userSpaceOnUse">
<stop stop-color="#BD56D3"/>
<stop offset="1" stop-color="#E54653"/>
</linearGradient>
<linearGradient id="paint1_linear_5563_1681" x1="78.6829" y1="70.0392" x2="70.5455" y2="94.5319" gradientUnits="userSpaceOnUse">
<stop stop-color="#BD56D3"/>
<stop offset="1" stop-color="#E54653"/>
</linearGradient>
<linearGradient id="paint2_linear_5563_1681" x1="68.7683" y1="45.9353" x2="40.9801" y2="95.3379" gradientUnits="userSpaceOnUse">
<stop stop-color="#BD56D3"/>
<stop offset="1" stop-color="#E54653"/>
</linearGradient>
<linearGradient id="paint3_linear_5563_1681" x1="33.3368" y1="67.6277" x2="23.8792" y2="96.0786" gradientUnits="userSpaceOnUse">
<stop stop-color="#BD56D3"/>
<stop offset="1" stop-color="#E54653"/>
</linearGradient>
<linearGradient id="paint4_linear_5563_1681" x1="25.1925" y1="45.6724" x2="2.6458" y2="74.1737" gradientUnits="userSpaceOnUse">
<stop stop-color="#BD56D3"/>
<stop offset="1" stop-color="#E54653"/>
</linearGradient>
<linearGradient id="paint5_linear_5563_1681" x1="44.0976" y1="20.1294" x2="39.706" y2="25.863" gradientUnits="userSpaceOnUse">
<stop stop-color="#BD56D3"/>
<stop offset="1" stop-color="#E54653"/>
</linearGradient>
</defs>
</svg>
