<svg width="85" height="83" viewBox="0 0 85 83" fill="none" xmlns="http://www.w3.org/2000/svg">
<g clip-path="url(#clip0_5563_1663)">
<path d="M22.42 35.8415C42.3184 34.4613 55.1899 56.3375 43.6576 72.1663C33.5637 86.0165 11.7971 85.0511 3.19951 70.2834C-5.39804 55.5158 4.94382 37.0462 22.42 35.8415ZM14.6326 42.1603C14.3763 42.2321 14.1779 42.5352 13.996 42.7187C12.3096 44.4261 8.87059 48.7901 7.53135 50.8086C6.45666 52.4202 8.1679 54.2792 9.5154 55.1966C9.96181 60.6458 9.4162 66.2704 9.79648 71.7594C10.1106 72.9482 11.1026 73.6822 12.3427 73.8018C19.8655 73.3072 28.2399 74.4321 35.6635 73.8018C37.0441 73.6822 38.0775 72.8764 38.3337 71.552V55.5557C38.3833 55.0929 38.8876 55.0052 39.1935 54.7259C40.1111 53.8723 41.3925 52.3803 40.7229 51.0799C38.2511 48.1439 36.0851 44.9048 33.3736 42.1762H14.6243L14.6326 42.1603Z" fill="url(#paint0_linear_5563_1663)"/>
<path d="M66.7887 0.187037C81.5864 -1.19319 90.7047 15.4653 80.9746 26.3715C73.5344 34.7247 59.613 33.2248 54.1321 23.627C48.6511 14.0292 55.2068 1.26409 66.7887 0.187037ZM67.6484 3.0193C58.4639 3.63362 52.5696 12.7926 56.1409 21.0261C60.4066 30.8632 74.7083 31.7169 80.1893 22.4542C85.6702 13.1915 78.2879 2.30924 67.6484 3.02728V3.0193Z" fill="url(#paint1_linear_5563_1663)"/>
<path d="M13.2678 0.186782C24.8662 -0.850385 33.1166 11.1728 27.4868 21.0737C22.4109 30.0013 9.34102 30.9986 2.97552 22.8529C-3.93558 14.013 1.90083 1.20799 13.2678 0.186782ZM12.9206 2.8515C8.37379 3.34615 4.13289 7.07197 3.06646 11.3323C0.520263 21.4327 11.5069 29.5067 20.8485 24.1613C31.736 17.9223 26.1724 1.40745 12.9206 2.8515Z" fill="url(#paint2_linear_5563_1663)"/>
<path d="M69.8966 53.8329C81.2636 53.5537 88.7038 65.5768 82.95 75.1028C77.527 84.0863 64.176 84.5251 58.1494 75.9006C51.7178 66.7017 58.4139 54.1121 69.8966 53.8329ZM69.0286 56.5056C60.9105 57.2635 56.0331 65.6885 59.4225 72.845C63.4154 81.27 75.7248 81.8444 80.6022 73.8343C85.4797 65.8242 78.7505 55.5961 69.0369 56.5056H69.0286Z" fill="url(#paint3_linear_5563_1663)"/>
<path d="M43.3438 42.4555L43.0958 41.9529L41.1035 40.0461L54.7356 27.2012C54.8761 27.265 56.8354 29.1638 56.9015 29.2915C56.9676 29.4191 57.0173 29.4989 56.9015 29.6186L43.3438 42.4475V42.4555Z" fill="url(#paint4_linear_5563_1663)"/>
<path d="M19.6917 29.292L20.5349 34.1108L17.1041 34.797L16.0625 29.9622L19.6917 29.292Z" fill="url(#paint5_linear_5563_1663)"/>
<path d="M54.5696 63.1194L53.8587 66.4384L49.0391 65.6166L49.75 62.3057L54.5696 63.1194Z" fill="url(#paint6_linear_5563_1663)"/>
<path d="M35.7459 55.9553V71.0341C35.7459 71.0341 35.5062 71.2814 35.4896 71.2814H31.0834V64.0372C31.0834 63.9734 30.7858 63.1915 30.7197 63.0559C30.2732 62.1464 29.5954 61.8672 28.5868 61.7794C25.5694 61.5241 22.1552 61.9789 19.0964 61.7954C18.4351 61.8432 17.0958 62.9602 17.0958 63.5346V71.0341C17.0958 71.0341 16.8561 71.2814 16.8396 71.2814H12.6979C12.4829 71.2814 12.2845 70.7629 12.2597 70.5395C11.6728 66.335 12.7227 60.8699 12.2597 56.5297C12.3176 55.7399 13.8139 55.8436 14.6323 55.4846C15.0787 55.2931 15.9715 54.5113 16.1865 54.4793C16.418 54.4474 17.5588 55.3649 17.9639 55.5325C19.2948 56.0909 20.6754 56.075 22.0312 55.6202C22.5602 55.4447 23.9491 54.4634 24.0648 54.4714C24.2632 54.4873 25.5198 55.4367 26.1398 55.6442C28.3388 56.3782 30.1162 55.7399 31.8687 54.4395C33.0261 55.3011 34.2331 55.9792 35.7542 55.9473L35.7459 55.9553Z" fill="url(#paint7_linear_5563_1663)"/>
<path d="M33.7377 52.5643C33.0929 51.8861 33.1342 50.5059 31.8694 50.474C30.6872 50.4501 30.6376 51.5191 30.1994 52.1813C29.3728 53.41 27.4879 53.7291 26.2975 52.8355C25.3633 52.1335 25.3055 50.5059 24.0985 50.482C22.8915 50.458 22.8089 51.7824 22.1971 52.4686C21.1555 53.6413 19.097 53.6334 18.0554 52.4526C17.5181 51.8463 17.3858 50.5298 16.3028 50.466C14.7983 50.3703 14.9967 52.8994 13.1697 53.2584C12.3265 53.4259 10.0035 53.0988 10.0117 52.0457C10.0117 51.5511 15.2943 45.6631 15.8399 44.626H31.8694L32.3736 44.8015L37.962 51.9181C37.5404 53.6015 34.862 53.753 33.7294 52.5723L33.7377 52.5643Z" fill="url(#paint8_linear_5563_1663)"/>
<path d="M28.322 64.4512V71.0332C28.322 71.0332 28.0823 71.2805 28.0658 71.2805H19.9477C19.9477 71.2805 19.6914 71.0491 19.6914 71.0332V64.4512H28.322Z" fill="url(#paint9_linear_5563_1663)"/>
<path d="M67.6475 15.3462C72.4257 14.9154 77.0304 18.0508 78.1464 22.5425C74.4759 27.848 66.3827 28.957 61.2159 24.9519C60.8025 24.6328 58.959 22.8856 58.9259 22.5186C58.8763 22.0399 59.7195 20.4522 60.0172 19.9735C61.5961 17.4046 64.5474 15.6254 67.6475 15.3462Z" fill="url(#paint10_linear_5563_1663)"/>
<path d="M65.1592 13.407C60.6289 9.25833 67.4408 2.34122 72.0124 6.88082C76.2947 11.1332 69.6894 17.5557 65.1592 13.407Z" fill="url(#paint11_linear_5563_1663)"/>
<path d="M14.4841 13.67C18.0223 13.6141 21.7093 15.8719 22.8832 19.135C23.0733 19.6696 23.3213 20.0047 22.9824 20.5551C22.6104 21.1774 20.6181 22.7093 19.9154 23.0922C15.691 25.4059 9.62313 24.64 6.57266 20.8743C5.86997 20.0047 6.02704 20.0286 6.42385 19.0712C7.68868 15.9677 10.9954 13.7258 14.4841 13.67Z" fill="url(#paint12_linear_5563_1663)"/>
<path d="M13.607 5.01412C20.4023 3.88919 20.5759 13.7742 14.0782 13.1359C9.28338 12.6652 9.31645 5.72418 13.607 5.01412Z" fill="url(#paint13_linear_5563_1663)"/>
<path d="M68.854 67.4917C72.4583 67.0209 76.1371 68.5607 77.9475 71.6244C78.1873 72.0313 78.7908 73.212 78.8486 73.603C78.9644 74.4167 76.4264 76.3235 75.6824 76.7384C70.9786 79.3872 64.8032 78.1665 61.7031 73.8583C62.4802 70.6989 65.4976 67.9225 68.854 67.4837V67.4917Z" fill="url(#paint14_linear_5563_1663)"/>
<path d="M69.5409 58.6598C75.0301 57.8301 76.4437 65.4333 71.4919 66.7098C65.4984 68.2496 63.936 59.5135 69.5409 58.6598Z" fill="url(#paint15_linear_5563_1663)"/>
</g>
<defs>
<linearGradient id="paint0_linear_5563_1663" x1="24.0632" y1="35.7793" x2="24.0632" y2="81.9831" gradientUnits="userSpaceOnUse">
<stop stop-color="#E6454E"/>
<stop offset="1" stop-color="#BC56D6"/>
</linearGradient>
<linearGradient id="paint1_linear_5563_1663" x1="68.587" y1="0.106445" x2="68.587" y2="31.8246" gradientUnits="userSpaceOnUse">
<stop stop-color="#E6454E"/>
<stop offset="1" stop-color="#BC56D6"/>
</linearGradient>
<linearGradient id="paint2_linear_5563_1663" x1="14.6506" y1="0.124023" x2="14.6506" y2="28.4081" gradientUnits="userSpaceOnUse">
<stop stop-color="#E6454E"/>
<stop offset="1" stop-color="#BC56D6"/>
</linearGradient>
<linearGradient id="paint3_linear_5563_1663" x1="70.2938" y1="53.8281" x2="70.2938" y2="82.1128" gradientUnits="userSpaceOnUse">
<stop stop-color="#E6454E"/>
<stop offset="1" stop-color="#BC56D6"/>
</linearGradient>
<linearGradient id="paint4_linear_5563_1663" x1="49.0372" y1="27.2012" x2="49.0372" y2="42.4555" gradientUnits="userSpaceOnUse">
<stop stop-color="#E6454E"/>
<stop offset="1" stop-color="#BC56D6"/>
</linearGradient>
<linearGradient id="paint5_linear_5563_1663" x1="18.2987" y1="29.292" x2="18.2987" y2="34.797" gradientUnits="userSpaceOnUse">
<stop stop-color="#E6454E"/>
<stop offset="1" stop-color="#BC56D6"/>
</linearGradient>
<linearGradient id="paint6_linear_5563_1663" x1="51.8043" y1="62.3057" x2="51.8043" y2="66.4384" gradientUnits="userSpaceOnUse">
<stop stop-color="#E6454E"/>
<stop offset="1" stop-color="#BC56D6"/>
</linearGradient>
<linearGradient id="paint7_linear_5563_1663" x1="23.9152" y1="54.4395" x2="23.9152" y2="71.2814" gradientUnits="userSpaceOnUse">
<stop stop-color="#E6454E"/>
<stop offset="1" stop-color="#BC56D6"/>
</linearGradient>
<linearGradient id="paint8_linear_5563_1663" x1="23.9869" y1="44.626" x2="23.9869" y2="53.3457" gradientUnits="userSpaceOnUse">
<stop stop-color="#E6454E"/>
<stop offset="1" stop-color="#BC56D6"/>
</linearGradient>
<linearGradient id="paint9_linear_5563_1663" x1="24.0067" y1="64.4512" x2="24.0067" y2="71.2805" gradientUnits="userSpaceOnUse">
<stop stop-color="#E6454E"/>
<stop offset="1" stop-color="#BC56D6"/>
</linearGradient>
<linearGradient id="paint10_linear_5563_1663" x1="68.5351" y1="15.3066" x2="68.5351" y2="27.3626" gradientUnits="userSpaceOnUse">
<stop stop-color="#E6454E"/>
<stop offset="1" stop-color="#BC56D6"/>
</linearGradient>
<linearGradient id="paint11_linear_5563_1663" x1="68.5326" y1="5.39355" x2="68.5326" y2="14.7471" gradientUnits="userSpaceOnUse">
<stop stop-color="#E6454E"/>
<stop offset="1" stop-color="#BC56D6"/>
</linearGradient>
<linearGradient id="paint12_linear_5563_1663" x1="14.6181" y1="13.6689" x2="14.6181" y2="24.4002" gradientUnits="userSpaceOnUse">
<stop stop-color="#E6454E"/>
<stop offset="1" stop-color="#BC56D6"/>
</linearGradient>
<linearGradient id="paint13_linear_5563_1663" x1="14.632" y1="4.9248" x2="14.632" y2="13.1656" gradientUnits="userSpaceOnUse">
<stop stop-color="#E6454E"/>
<stop offset="1" stop-color="#BC56D6"/>
</linearGradient>
<linearGradient id="paint14_linear_5563_1663" x1="70.2778" y1="67.4082" x2="70.2778" y2="78.1314" gradientUnits="userSpaceOnUse">
<stop stop-color="#E6454E"/>
<stop offset="1" stop-color="#BC56D6"/>
</linearGradient>
<linearGradient id="paint15_linear_5563_1663" x1="70.3003" y1="58.5967" x2="70.3003" y2="66.8914" gradientUnits="userSpaceOnUse">
<stop stop-color="#E6454E"/>
<stop offset="1" stop-color="#BC56D6"/>
</linearGradient>
<clipPath id="clip0_5563_1663">
<rect width="85" height="82" fill="white" transform="translate(0 0.107422)"/>
</clipPath>
</defs>
</svg>
