<svg width="95" height="114" viewBox="0 0 95 114" fill="none" xmlns="http://www.w3.org/2000/svg">
<g clip-path="url(#clip0_4647_594)">
<path d="M46.669 0.0596739C49.6516 -0.553121 52.773 3.56901 55.1395 5.11607C57.0827 6.38519 59.2054 7.12189 61.5888 7.01473C64.1042 6.90423 69.9069 4.86158 71.7554 6.50909C73.7698 8.3006 74.3792 14.6663 77.1959 17.4323C79.7722 19.9604 87.5893 21.4606 88.605 23.2153C89.6985 25.1006 87.5758 31.7844 87.8737 34.7144C88.3781 39.7038 95.1457 43.8662 94.9968 46.9971C94.8952 49.1804 90.037 53.3126 88.8419 55.7303C86.2148 61.0445 90.1047 66.6601 88.693 70.1226C88.0023 71.817 81.3059 73.498 79.322 74.6566C74.5451 77.4527 74.9107 81.2634 72.7575 85.4726C70.6044 89.6818 66.7009 87.0297 63.1089 86.735C55.2817 86.0887 55.1158 89.5613 49.7125 92.8027C47.6914 94.0149 47.2919 94.0082 45.281 92.8027C39.8574 89.5479 39.7626 86.0854 31.8846 86.735C29.6129 86.9226 25.2186 88.6337 23.36 87.1235C21.9245 85.9582 20.7328 81.0391 19.7849 79.1236C17.195 73.8898 13.4066 74.084 8.81254 71.9074C6.12447 70.6349 5.8604 70.1393 6.11432 67.0586C6.45286 62.9331 8.2641 60.0031 6.15494 55.7303C4.98357 53.3528 0.1017 49.1134 0.000135491 46.9971C-0.128513 44.2546 5.72499 39.9215 6.7474 36.3485C7.87815 32.3938 6.31067 29.8656 6.10416 26.2056C5.96535 23.7846 5.9315 23.0747 8.14899 21.9395C13.7621 19.0664 17.1408 20.3522 20.1979 13.5311C21.349 10.9594 22.0092 5.70878 25.5267 5.76235C30.0327 5.82932 33.293 8.20014 38.1071 6.14744C40.7918 5.00222 44.4651 0.515085 46.669 0.0630225V0.0596739ZM44.1502 13.6148C18.3867 15.6943 5.04112 45.7447 20.2318 66.3989C35.8558 87.6358 69.5989 83.3195 78.9902 58.7842C87.9753 35.3038 69.2908 11.5789 44.1502 13.6115V13.6148Z" fill="#3E1A51"/>
<path d="M79.9992 81.9673L89.5665 112.212C89.5564 113.588 88.6795 113.712 87.5014 113.809C80.1041 114.419 71.8672 113.327 64.3752 113.809L62.9092 113.501L56.5039 94.0021C59.8758 90.168 63.5796 92.4651 67.676 92.7531C76.7965 93.3893 76.5595 88.7147 79.4676 82.3155C79.603 82.0208 79.3491 81.8634 79.9958 81.9639L79.9992 81.9673Z" fill="#3E1A51"/>
<path d="M15.5052 81.9677C16.5276 85.4 17.9089 90.3258 21.4298 92.0403C26.2948 94.4111 32.3446 90.4933 36.1567 92.2915C36.5595 92.4823 38.3674 93.7013 38.4994 94.006C38.882 94.9034 33.0285 110.25 32.7069 112.607C32.3243 113.398 31.4982 113.857 30.6282 113.813C23.1361 113.327 14.9026 114.419 7.50194 113.813C6.08004 113.696 5.2506 113.428 5.45711 111.794C8.9103 102.394 11.2801 92.4154 14.6825 83.0292C14.8518 82.5638 14.8518 81.7869 15.5086 81.9711L15.5052 81.9677Z" fill="#3E1A51"/>
<path d="M45.9243 18.625C68.0213 17.3927 83.0968 40.7057 72.6797 60.0774C61.9985 79.948 32.8123 79.8107 22.2293 59.9133C12.5637 41.7371 25.2728 19.7769 45.9243 18.625ZM47.4139 28.1283C46.9975 28.1652 46.4896 28.6306 46.2628 28.9856L41.6484 38.7166C38.483 39.7982 34.3154 39.4969 31.1873 40.4211C29.7552 40.843 29.7078 41.6433 30.4899 42.7383C31.5732 44.2619 37.5012 49.0538 37.8059 50.0617C38.3611 51.9001 35.348 59.2603 35.4462 61.6948C35.7678 62.5721 36.4585 62.9036 37.3522 62.5487L47.5865 57.4554C50.8095 58.5538 54.3473 61.4972 57.4721 62.4683C58.6537 62.8333 59.3883 62.696 59.561 61.3867C59.5136 59.0762 56.6698 51.8097 57.1945 50.0617C57.4992 49.0538 63.4272 44.2619 64.5106 42.7383C65.2926 41.6433 65.2452 40.843 63.8131 40.4211C61.897 39.8552 54.3067 39.4299 53.3419 38.7267L48.7376 28.9856C48.4837 28.5804 47.9115 28.0848 47.4139 28.1283Z" fill="#CD0201"/>
</g>
<defs>
<clipPath id="clip0_4647_594">
<rect width="95" height="114" fill="white"/>
</clipPath>
</defs>
</svg>
