<svg width="645" height="1475" viewBox="0 0 645 1475" fill="none" xmlns="http://www.w3.org/2000/svg">
<g filter="url(#filter0_f_5208_511)">
<circle cx="737.5" cy="737.5" r="296.5" fill="#FFEAAB"/>
</g>
<circle cx="593" cy="943" r="126" stroke="url(#paint0_linear_5208_511)" stroke-width="48"/>
<path d="M630.276 915.494L564.792 953.301L624.777 1057.2L690.26 1019.39L630.276 915.494Z" fill="#FF0013"/>
<mask id="mask0_5208_511" style="mask-type:luminance" maskUnits="userSpaceOnUse" x="564" y="915" width="127" height="143">
<path d="M630.275 915.494L564.791 953.301L624.776 1057.2L690.259 1019.39L630.275 915.494Z" fill="white"/>
</mask>
<g mask="url(#mask0_5208_511)">
<path style="mix-blend-mode:multiply" opacity="0.49" d="M677.672 957.837C739.423 1065.44 781.995 1157 772.755 1162.35C763.515 1167.7 705.976 1084.82 644.226 977.219C582.479 869.626 539.912 778.064 549.143 772.71C558.384 767.36 615.922 850.239 677.669 957.831L677.672 957.837Z" fill="url(#paint1_radial_5208_511)"/>
<path style="mix-blend-mode:multiply" opacity="0.49" d="M637.036 981.298C698.786 1088.9 741.359 1180.46 732.118 1185.81C722.878 1191.16 665.339 1108.28 603.589 1000.68C541.842 893.087 499.275 801.524 508.507 796.171C517.747 790.82 575.286 873.7 637.032 981.292L637.036 981.298Z" fill="url(#paint2_radial_5208_511)"/>
<path style="mix-blend-mode:multiply" opacity="0.62" d="M660.394 967.812C722.144 1075.41 764.717 1166.97 755.477 1172.32C746.236 1177.67 688.698 1094.79 626.948 987.194C565.201 879.601 522.634 788.038 531.865 782.685C541.105 777.334 598.644 860.214 660.391 967.806L660.394 967.812Z" fill="url(#paint3_radial_5208_511)"/>
<path style="mix-blend-mode:multiply" opacity="0.49" d="M611.257 996.181C673.008 1103.78 715.58 1195.34 706.34 1200.69C697.1 1206.04 639.561 1123.16 577.811 1015.56C516.064 907.97 473.497 816.407 482.728 811.054C491.969 805.703 549.507 888.583 611.254 996.175L611.257 996.181Z" fill="url(#paint4_radial_5208_511)"/>
<path style="mix-blend-mode:screen" opacity="0.71" d="M521.533 844.691C511.649 850.365 541.614 920.662 588.465 1001.7C635.306 1082.74 681.294 1143.83 691.175 1138.15C701.058 1132.47 671.09 1062.17 624.243 981.139C577.401 900.103 531.413 839.01 521.533 844.691Z" fill="url(#paint5_radial_5208_511)"/>
<path style="mix-blend-mode:screen" opacity="0.71" d="M548.748 893.924C543.67 896.84 563.028 939.822 591.986 989.924C620.944 1040.03 648.537 1078.28 653.61 1075.37C658.688 1072.46 639.329 1029.47 610.372 979.372C581.414 929.27 553.82 891.011 548.742 893.927L548.748 893.924Z" fill="url(#paint6_radial_5208_511)"/>
</g>
<path d="M707.859 1045.01C708.236 1045.66 708.089 1046.49 707.513 1046.97C706.982 1047.42 706.415 1047.89 706.318 1047.97C686.739 1063.73 666.433 1075.36 641.904 1085.25C641.757 1085.31 640.836 1085.64 640.031 1085.93C639.325 1086.19 638.534 1085.9 638.158 1085.25L622.658 1058.4C648.134 1049.33 671.754 1035.69 692.353 1018.17L707.853 1045.01L707.859 1045.01Z" fill="url(#paint7_linear_5208_511)"/>
<mask id="mask1_5208_511" style="mask-type:luminance" maskUnits="userSpaceOnUse" x="622" y="1018" width="87" height="69">
<path d="M707.858 1045.01C708.235 1045.66 708.088 1046.49 707.512 1046.97C706.981 1047.42 706.414 1047.89 706.317 1047.97C686.738 1063.72 666.432 1075.36 641.903 1085.24C641.757 1085.31 640.835 1085.64 640.03 1085.93C639.324 1086.19 638.533 1085.9 638.157 1085.25L622.657 1058.4C648.133 1049.32 671.753 1035.69 692.352 1018.16L707.852 1045.01L707.858 1045.01Z" fill="white"/>
</mask>
<g mask="url(#mask1_5208_511)">
<path style="mix-blend-mode:multiply" d="M665.99 1071.73C682.105 1062.82 696.28 1056.93 697.649 1058.56C699.017 1060.19 687.063 1068.74 670.951 1077.66C654.836 1086.56 640.661 1092.46 639.292 1090.83C637.921 1089.2 649.878 1080.65 665.99 1071.73Z" fill="url(#paint8_radial_5208_511)"/>
<path style="mix-blend-mode:multiply" d="M647.666 1079.94C664.404 1072.26 678.982 1067.44 680.228 1069.18C681.473 1070.91 668.908 1078.54 652.17 1086.22C635.432 1093.9 620.854 1098.72 619.615 1096.98C618.369 1095.25 630.934 1087.62 647.672 1079.94L647.666 1079.94Z" fill="url(#paint9_radial_5208_511)"/>
<path style="mix-blend-mode:screen" opacity="0.53" d="M588.784 951.666C582.139 955.471 614.713 1024.26 661.546 1105.31C708.37 1186.36 751.719 1248.97 758.361 1245.16C765.006 1241.36 732.428 1172.56 685.598 1091.52C638.769 1010.48 595.42 947.859 588.778 951.67L588.784 951.666Z" fill="url(#paint10_radial_5208_511)"/>
<path style="mix-blend-mode:multiply" d="M665.102 1034.14C680.827 1024.56 694.74 1018.07 696.178 1019.64C697.617 1021.21 686.036 1030.26 670.308 1039.84C654.583 1049.43 640.67 1055.92 639.232 1054.35C637.793 1052.77 649.374 1043.72 665.102 1034.14Z" fill="url(#paint11_radial_5208_511)"/>
<path style="mix-blend-mode:multiply" d="M649.477 1043.13C665.592 1034.22 679.768 1028.32 681.136 1029.95C682.504 1031.58 670.55 1040.14 654.438 1049.05C638.323 1057.96 624.148 1063.86 622.78 1062.23C621.408 1060.59 633.365 1052.05 649.477 1043.13Z" fill="url(#paint12_radial_5208_511)"/>
<path style="mix-blend-mode:multiply" d="M631.153 1051.34C647.892 1043.66 662.469 1038.84 663.715 1040.57C664.96 1042.31 652.396 1049.94 635.658 1057.62C618.919 1065.3 604.342 1070.12 603.102 1068.38C601.856 1066.65 614.421 1059.01 631.159 1051.34L631.153 1051.34Z" fill="url(#paint13_radial_5208_511)"/>
<path style="mix-blend-mode:multiply" d="M675.327 1056.48C654.928 1021.11 643.852 988.322 650.581 983.251C657.31 978.18 679.301 1002.75 699.7 1038.12C720.1 1073.5 731.175 1106.28 724.446 1111.35C717.717 1116.42 695.727 1091.85 675.331 1056.49L675.327 1056.48Z" fill="url(#paint14_radial_5208_511)"/>
<g opacity="0.63">
<path style="mix-blend-mode:screen" opacity="0.65" d="M655.789 1046.76C656.033 1047.3 648.983 1051.32 640.044 1055.75C631.11 1060.18 623.665 1063.34 623.422 1062.81C623.178 1062.28 630.233 1058.25 639.167 1053.82C648.101 1049.39 655.545 1046.23 655.783 1046.77L655.789 1046.76Z" fill="url(#paint15_radial_5208_511)"/>
<path style="mix-blend-mode:screen" opacity="0.65" d="M661.063 1043.43C661.336 1043.95 655.007 1047.9 646.935 1052.26C638.862 1056.62 632.096 1059.74 631.825 1059.21C631.552 1058.7 637.881 1054.75 645.953 1050.39C654.026 1046.03 660.792 1042.91 661.063 1043.43Z" fill="url(#paint16_radial_5208_511)"/>
<path style="mix-blend-mode:screen" opacity="0.27" d="M669.15 1038.5C669.496 1039.09 662.531 1043.76 653.588 1048.91C644.65 1054.07 637.117 1057.76 636.771 1057.17C636.425 1056.57 643.39 1051.9 652.333 1046.75C661.271 1041.59 668.804 1037.9 669.15 1038.5Z" fill="url(#paint17_radial_5208_511)"/>
<path style="mix-blend-mode:screen" opacity="0.28" d="M675.725 1034.79C676.071 1035.39 669.139 1040.09 660.231 1045.31C651.323 1050.52 643.821 1054.27 643.473 1053.68C643.125 1053.09 650.059 1048.37 658.967 1043.16C667.875 1037.94 675.377 1034.2 675.728 1034.79L675.725 1034.79Z" fill="url(#paint18_radial_5208_511)"/>
</g>
</g>
<path d="M628.292 908.059L617.941 913.252C601.117 921.756 584.788 931.183 569.012 941.502L559.338 947.869L564.786 953.305C587.174 941.7 609.026 929.084 630.27 915.498L628.286 908.062L628.292 908.059Z" fill="url(#paint19_linear_5208_511)"/>
<path d="M692.74 1020L682.423 1027.4C670.414 1035.51 648.664 1048.07 635.641 1054.41L624.071 1059.65C623.442 1060.01 622.592 1059.7 622.164 1058.96C621.058 1057.04 621.475 1054.74 623.094 1053.8L631.75 1050.06C645.515 1043.41 667.96 1030.45 680.602 1021.85L688.175 1016.23C689.794 1015.3 692.002 1016.09 693.105 1018C693.533 1018.74 693.369 1019.64 692.746 1020L692.74 1020Z" fill="#ED1C24"/>
<path d="M646.348 943.403C644.755 944.836 643.013 946.119 641.158 947.222C629.988 953.86 598.379 972.11 587.045 978.464C585.157 979.522 583.268 980.36 581.23 981.022L581.143 981.049C580.3 981.535 578.896 980.994 578.485 980.282C578.074 979.57 578.674 979.034 579.523 978.544L579.914 978.413C581.817 977.765 583.673 976.939 585.442 975.949C596.658 969.663 628.742 951.14 639.793 944.57C641.535 943.532 643.182 942.344 644.692 941.014L645 940.74C645.843 940.254 646.613 939.999 647.024 940.711C647.435 941.423 647.202 942.91 646.36 943.396L646.348 943.403Z" fill="#ED1C24"/>
<mask id="mask2_5208_511" style="mask-type:luminance" maskUnits="userSpaceOnUse" x="578" y="940" width="70" height="42">
<path d="M646.348 943.405C644.755 944.838 643.013 946.121 641.158 947.224C629.988 953.862 598.379 972.112 587.045 978.466C585.157 979.524 583.268 980.362 581.23 981.024L581.143 981.051C580.3 981.537 578.896 980.996 578.485 980.284C578.074 979.572 578.674 979.036 579.523 978.546L579.914 978.415C581.817 977.767 583.673 976.941 585.442 975.951C596.658 969.665 628.742 951.142 639.793 944.572C641.535 943.534 643.182 942.346 644.692 941.016L645 940.742C645.843 940.256 646.613 940.001 647.024 940.713C647.435 941.425 647.202 942.912 646.36 943.398L646.348 943.405Z" fill="white"/>
</mask>
<g mask="url(#mask2_5208_511)">
<path style="mix-blend-mode:multiply" opacity="0.38" d="M615.639 960.462C598.8 970.129 584.769 977.32 584.301 976.523C583.839 975.722 597.111 967.245 613.95 957.578C630.79 947.91 644.821 940.72 645.289 941.517C645.751 942.318 632.479 950.795 615.639 960.462Z" fill="url(#paint20_radial_5208_511)"/>
<path style="mix-blend-mode:multiply" opacity="0.38" d="M630.386 951.948C613.546 961.615 599.515 968.806 599.047 968.009C598.585 967.208 611.857 958.731 628.697 949.064C645.536 939.397 659.567 932.206 660.035 933.003C660.497 933.804 647.225 942.281 630.386 951.948Z" fill="url(#paint21_radial_5208_511)"/>
<path style="mix-blend-mode:multiply" opacity="0.38" d="M595.277 972.218C578.437 981.885 564.407 989.076 563.939 988.278C563.476 987.478 576.748 979.001 593.588 969.333C610.428 959.666 624.458 952.475 624.927 953.273C625.389 954.073 612.117 962.551 595.277 972.218Z" fill="url(#paint22_radial_5208_511)"/>
<path style="mix-blend-mode:multiply" opacity="0.38" d="M617.183 963.136C600.344 972.803 586.313 979.994 585.845 979.196C585.377 978.399 598.655 969.918 615.494 960.251C632.334 950.584 646.365 943.393 646.833 944.191C647.295 944.991 634.023 953.469 617.183 963.136Z" fill="url(#paint23_radial_5208_511)"/>
<path style="mix-blend-mode:multiply" opacity="0.38" d="M631.93 954.624C615.091 964.291 601.06 971.482 600.592 970.685C600.13 969.884 613.402 961.407 630.241 951.74C647.081 942.073 661.112 934.882 661.58 935.679C662.042 936.48 648.77 944.957 631.93 954.624Z" fill="url(#paint24_radial_5208_511)"/>
<path style="mix-blend-mode:multiply" opacity="0.38" d="M596.821 974.894C579.981 984.561 565.951 991.752 565.483 990.954C565.02 990.153 578.292 981.676 595.132 972.009C611.972 962.342 626.002 955.151 626.47 955.948C626.933 956.749 613.661 965.226 596.821 974.894Z" fill="url(#paint25_radial_5208_511)"/>
<path style="mix-blend-mode:screen" opacity="0.64" d="M619.339 958.143C619.74 958.837 608.704 965.928 594.683 973.984C580.662 982.039 568.97 988.007 568.569 987.313C568.168 986.619 579.204 979.528 593.225 971.472C607.246 963.416 618.938 957.449 619.339 958.143Z" fill="url(#paint26_radial_5208_511)"/>
<path style="mix-blend-mode:screen" opacity="0.44" d="M651.52 939.556C651.856 940.137 642.278 946.26 630.129 953.243C617.979 960.226 607.854 965.415 607.519 964.833C607.183 964.252 616.761 958.129 628.91 951.146C641.06 944.164 651.184 938.974 651.52 939.556Z" fill="url(#paint27_radial_5208_511)"/>
<path style="mix-blend-mode:screen" d="M649.296 940.855C649.697 941.549 637.629 949.236 622.335 958.019C607.041 966.801 594.317 973.365 593.916 972.671C593.516 971.977 605.583 964.29 620.877 955.507C636.171 946.724 648.895 940.161 649.296 940.855Z" fill="url(#paint28_radial_5208_511)"/>
<path style="mix-blend-mode:multiply" opacity="0.38" d="M643.476 944.033C636.48 948.681 630.393 951.823 629.878 951.054C629.362 950.284 634.619 945.896 641.619 941.254C648.615 936.605 654.702 933.463 655.218 934.233C655.733 935.003 650.476 939.39 643.476 944.033Z" fill="url(#paint29_radial_5208_511)"/>
<path style="mix-blend-mode:multiply" opacity="0.38" d="M645.662 946.245C638.917 951.247 633.002 954.701 632.449 953.961C631.895 953.221 636.918 948.565 643.663 943.564C650.408 938.562 656.323 935.108 656.876 935.848C657.43 936.588 652.407 941.244 645.662 946.245Z" fill="url(#paint30_radial_5208_511)"/>
<path style="mix-blend-mode:multiply" opacity="0.38" d="M582.281 979.365C589.805 975.63 595.569 971.93 595.16 971.099C594.751 970.267 588.323 972.626 580.803 976.367C573.279 980.102 567.514 983.802 567.923 984.633C568.332 985.465 574.76 983.106 582.281 979.365Z" fill="url(#paint31_radial_5208_511)"/>
<path style="mix-blend-mode:multiply" opacity="0.38" d="M583.102 982.362C590.806 979.022 596.755 975.627 596.391 974.777C596.027 973.927 589.483 975.95 581.779 979.29C574.075 982.631 568.127 986.026 568.491 986.876C568.855 987.725 575.398 985.703 583.102 982.362Z" fill="url(#paint32_radial_5208_511)"/>
</g>
<path d="M636.229 925.874C634.636 927.307 632.894 928.59 631.039 929.692C619.869 936.331 588.26 954.581 576.926 960.935C575.038 961.993 573.149 962.831 571.111 963.493L571.024 963.52C570.181 964.006 568.777 963.464 568.366 962.753C567.955 962.041 568.555 961.505 569.403 961.015L569.794 960.884C571.698 960.236 573.554 959.409 575.323 958.42C586.539 952.134 618.622 933.611 629.674 927.04C631.416 926.003 633.063 924.815 634.572 923.484L634.881 923.211C635.724 922.725 636.494 922.47 636.905 923.182C637.316 923.894 637.083 925.38 636.241 925.867L636.229 925.874Z" fill="#ED1C24"/>
<mask id="mask3_5208_511" style="mask-type:luminance" maskUnits="userSpaceOnUse" x="568" y="922" width="70" height="42">
<path d="M636.23 925.874C634.637 927.307 632.895 928.59 631.04 929.692C619.87 936.331 588.261 954.581 576.927 960.935C575.039 961.993 573.15 962.831 571.112 963.493L571.025 963.52C570.182 964.006 568.778 963.464 568.367 962.753C567.956 962.041 568.556 961.505 569.404 961.015L569.795 960.884C571.699 960.236 573.555 959.409 575.324 958.42C586.54 952.134 618.623 933.611 629.675 927.04C631.417 926.003 633.064 924.815 634.573 923.484L634.882 923.211C635.725 922.725 636.495 922.47 636.906 923.182C637.317 923.894 637.084 925.38 636.241 925.867L636.23 925.874Z" fill="white"/>
</mask>
<g mask="url(#mask3_5208_511)">
<path style="mix-blend-mode:multiply" opacity="0.38" d="M605.517 942.925C588.678 952.592 574.647 959.783 574.179 958.985C573.717 958.185 586.989 949.708 603.828 940.04C620.668 930.373 634.699 923.182 635.167 923.98C635.629 924.78 622.357 933.258 605.517 942.925Z" fill="url(#paint33_radial_5208_511)"/>
<path style="mix-blend-mode:multiply" opacity="0.38" d="M620.263 934.411C603.424 944.078 589.393 951.269 588.925 950.472C588.463 949.671 601.735 941.194 618.574 931.527C635.414 921.86 649.445 914.669 649.913 915.466C650.375 916.267 637.103 924.744 620.263 934.411Z" fill="url(#paint34_radial_5208_511)"/>
<path style="mix-blend-mode:multiply" opacity="0.38" d="M585.155 954.681C568.315 964.348 554.285 971.539 553.817 970.741C553.354 969.941 566.626 961.463 583.466 951.796C600.306 942.129 614.336 934.938 614.804 935.736C615.267 936.536 601.995 945.014 585.155 954.681Z" fill="url(#paint35_radial_5208_511)"/>
<path style="mix-blend-mode:multiply" opacity="0.38" d="M607.061 945.599C590.221 955.266 576.191 962.457 575.723 961.659C575.261 960.859 588.533 952.381 605.372 942.714C622.212 933.047 636.242 925.856 636.711 926.654C637.173 927.454 623.901 935.931 607.061 945.599Z" fill="url(#paint36_radial_5208_511)"/>
<path style="mix-blend-mode:multiply" opacity="0.38" d="M621.808 937.087C604.969 946.754 590.938 953.945 590.47 953.148C590.008 952.347 603.28 943.87 620.119 934.203C636.959 924.535 650.99 917.345 651.458 918.142C651.92 918.943 638.648 927.42 621.808 937.087Z" fill="url(#paint37_radial_5208_511)"/>
<path style="mix-blend-mode:multiply" opacity="0.38" d="M586.699 957.356C569.859 967.023 555.829 974.214 555.361 973.417C554.898 972.616 568.17 964.139 585.01 954.472C601.85 944.805 615.88 937.614 616.348 938.411C616.811 939.212 603.539 947.689 586.699 957.356Z" fill="url(#paint38_radial_5208_511)"/>
<path style="mix-blend-mode:screen" opacity="0.64" d="M609.217 940.606C609.618 941.3 598.582 948.391 584.561 956.446C570.539 964.502 558.848 970.47 558.447 969.776C558.046 969.082 569.082 961.991 583.103 953.935C597.124 945.879 608.816 939.912 609.217 940.606Z" fill="url(#paint39_radial_5208_511)"/>
<path style="mix-blend-mode:screen" opacity="0.44" d="M641.398 922.019C641.734 922.6 632.156 928.723 620.006 935.706C607.857 942.689 597.732 947.878 597.397 947.296C597.061 946.715 606.639 940.592 618.788 933.609C630.938 926.626 641.062 921.437 641.398 922.019Z" fill="url(#paint40_radial_5208_511)"/>
<path style="mix-blend-mode:screen" d="M639.174 923.318C639.575 924.012 627.507 931.699 612.213 940.481C596.919 949.264 584.195 955.827 583.794 955.133C583.394 954.439 595.461 946.753 610.755 937.97C626.049 929.187 638.773 922.624 639.174 923.318Z" fill="url(#paint41_radial_5208_511)"/>
<path style="mix-blend-mode:multiply" opacity="0.38" d="M633.354 926.496C626.358 931.144 620.271 934.286 619.756 933.516C619.24 932.747 624.497 928.359 631.497 923.717C638.493 919.068 644.58 915.926 645.095 916.696C645.611 917.466 640.354 921.853 633.354 926.496Z" fill="url(#paint42_radial_5208_511)"/>
<path style="mix-blend-mode:multiply" opacity="0.38" d="M635.54 928.708C628.795 933.71 622.88 937.164 622.327 936.424C621.773 935.684 626.796 931.028 633.541 926.027C640.286 921.025 646.2 917.571 646.754 918.311C647.308 919.051 642.285 923.707 635.54 928.708Z" fill="url(#paint43_radial_5208_511)"/>
<path style="mix-blend-mode:multiply" opacity="0.38" d="M572.159 961.828C579.683 958.093 585.447 954.393 585.038 953.561C584.629 952.73 578.201 955.089 570.681 958.83C563.157 962.565 557.392 966.265 557.801 967.096C558.21 967.928 564.638 965.569 572.159 961.828Z" fill="url(#paint44_radial_5208_511)"/>
<path style="mix-blend-mode:multiply" opacity="0.38" d="M572.98 964.825C580.684 961.484 586.633 958.09 586.269 957.24C585.905 956.39 579.361 958.413 571.657 961.753C563.953 965.094 558.005 968.489 558.369 969.338C558.733 970.188 565.276 968.166 572.98 964.825Z" fill="url(#paint45_radial_5208_511)"/>
</g>
<path d="M590.43 957.75L621.66 939.719C624.287 938.202 627.392 938.648 628.74 940.669C629.067 940.481 628.924 940.563 629.248 940.384C627.655 937.926 624.372 937.117 621.211 938.942L589.982 956.973C586.909 958.746 585.963 961.847 587.106 964.43C587.449 964.271 587.315 964.38 587.655 964.216C586.694 962.058 587.859 959.242 590.434 957.755L590.43 957.75Z" fill="url(#paint46_linear_5208_511)"/>
<path d="M629.141 941.474C629.906 943.594 628.731 946.257 626.258 947.685L595.029 965.716C592.502 967.175 589.534 966.816 588.114 964.986C587.772 965.16 587.903 965.045 587.554 965.207C589.203 967.529 592.537 968.538 595.628 966.754L626.857 948.723C629.859 946.991 630.655 943.739 629.648 941.188C629.322 941.377 629.467 941.285 629.141 941.474Z" fill="url(#paint47_linear_5208_511)"/>
<path d="M623.507 938.138L588.131 958.562C586.29 959.625 585.66 961.979 586.722 963.82L587.921 965.896C588.984 967.737 591.338 968.368 593.179 967.305L628.555 946.881C630.396 945.818 631.027 943.464 629.964 941.623L628.765 939.547C627.702 937.706 625.348 937.075 623.507 938.138Z" fill="#ED1C24"/>
<mask id="mask4_5208_511" style="mask-type:luminance" maskUnits="userSpaceOnUse" x="586" y="937" width="45" height="31">
<path d="M623.507 938.136L588.131 958.56C586.29 959.623 585.66 961.977 586.722 963.818L587.921 965.894C588.984 967.735 591.338 968.366 593.179 967.303L628.555 946.879C630.396 945.816 631.027 943.462 629.964 941.621L628.765 939.545C627.702 937.704 625.348 937.073 623.507 938.136Z" fill="white"/>
</mask>
<g mask="url(#mask4_5208_511)">
<path style="mix-blend-mode:screen" opacity="0.71" d="M500.146 815.139C490.939 820.424 521.449 890.405 568.288 971.45C615.123 1052.49 660.56 1113.9 669.764 1108.61C678.971 1103.33 648.464 1033.34 601.622 952.3C554.787 871.26 509.35 809.849 500.14 815.143L500.146 815.139Z" fill="url(#paint48_radial_5208_511)"/>
<path style="mix-blend-mode:screen" opacity="0.71" d="M542.693 790.576C535.565 794.667 567.748 863.683 614.578 944.726C661.407 1025.77 705.147 1088.16 712.276 1084.07C719.404 1079.98 687.221 1010.96 640.397 929.914C593.567 848.871 549.827 786.48 542.699 790.572L542.693 790.576Z" fill="url(#paint49_radial_5208_511)"/>
</g>
<path d="M623.034 941.267L591.075 959.718C590.135 960.261 589.813 961.463 590.356 962.404L590.965 963.459C591.508 964.399 592.71 964.722 593.651 964.179L625.61 945.727C626.55 945.184 626.872 943.982 626.329 943.042L625.72 941.986C625.177 941.046 623.975 940.724 623.034 941.267Z" fill="url(#paint50_linear_5208_511)"/>
<path d="M624.566 945.838L594.268 963.331C593.034 964.043 591.345 963.966 590.715 963.025C591.456 964.172 592.695 964.729 594.178 963.873L625.081 946.031C626.522 945.199 626.664 943.923 626.125 942.716C626.575 943.729 625.774 945.149 624.564 945.847L624.566 945.838Z" fill="url(#paint51_linear_5208_511)"/>
<path d="M590.503 962.659C590.143 961.665 590.934 960.282 592.091 959.614L622.419 942.105C623.605 941.42 625.257 941.486 625.925 942.342C625.154 941.253 623.954 940.736 622.506 941.572L591.603 959.414C590.198 960.225 590.036 961.465 590.503 962.659Z" fill="url(#paint52_linear_5208_511)"/>
<path style="mix-blend-mode:screen" opacity="0.65" d="M602.187 949.949C602.44 950.388 598.624 953.066 593.659 955.917C588.696 958.774 584.462 960.728 584.209 960.289C583.956 959.85 587.772 957.172 592.737 954.321C597.699 951.464 601.933 949.51 602.187 949.949Z" fill="url(#paint53_radial_5208_511)"/>
<path d="M628.734 963.673L607.968 975.662L619.957 996.428L640.723 984.439L628.734 963.673Z" fill="#FFDA7D"/>
<mask id="mask5_5208_511" style="mask-type:luminance" maskUnits="userSpaceOnUse" x="607" y="963" width="34" height="34">
<path d="M628.735 963.675L607.969 975.664L619.958 996.43L640.724 984.441L628.735 963.675Z" fill="white"/>
</mask>
<g mask="url(#mask5_5208_511)">
<path style="mix-blend-mode:multiply" opacity="0.65" d="M623.232 978.935C601.093 991.629 580.355 997.078 576.912 991.101C573.47 985.125 588.631 969.989 610.769 957.295C632.908 944.6 653.646 939.151 657.089 945.128C660.532 951.104 645.37 966.24 623.232 978.935Z" fill="url(#paint54_radial_5208_511)"/>
<path style="mix-blend-mode:multiply" opacity="0.65" d="M632.333 994.67C616.347 1003.84 602.479 1009.7 601.353 1007.76C600.23 1005.82 612.276 996.807 628.265 987.639C644.251 978.465 658.119 972.609 659.245 974.546C660.368 976.491 648.322 985.502 632.333 994.67Z" fill="url(#paint55_radial_5208_511)"/>
<path style="mix-blend-mode:multiply" opacity="0.65" d="M639.088 972.114C648.262 988.099 654.118 1001.97 652.182 1003.09C650.246 1004.22 641.225 992.17 632.057 976.181C622.883 960.195 617.028 946.327 618.964 945.201C620.909 944.078 629.92 956.124 639.088 972.114Z" fill="url(#paint56_radial_5208_511)"/>
<path style="mix-blend-mode:multiply" opacity="0.65" d="M631.254 984.775C641.667 1015.37 642.18 1042.89 632.393 1046.24C622.606 1049.59 606.232 1027.5 595.819 996.905C585.406 966.308 584.893 938.79 594.68 935.441C604.467 932.091 620.841 954.178 631.254 984.775Z" fill="url(#paint57_radial_5208_511)"/>
</g>
<path d="M627.036 961.457L606.892 973.087C605.398 973.95 604.89 975.864 605.749 977.353L617.379 997.497C618.242 998.991 620.156 999.499 621.645 998.64L641.789 987.01C643.283 986.147 643.791 984.232 642.932 982.744L631.302 962.6C630.439 961.105 628.524 960.597 627.036 961.457ZM642.4 983.193C643.024 984.272 642.65 985.666 641.565 986.293L621.142 998.084C620.057 998.711 618.666 998.343 618.04 997.258L606.29 976.907C605.667 975.827 606.04 974.433 607.126 973.806L627.548 962.015C628.633 961.389 630.024 961.756 630.651 962.842L642.4 983.193Z" fill="url(#paint58_linear_5208_511)"/>
<path d="M642.198 982.841L642.712 983.731C643.335 984.811 642.961 986.205 641.876 986.831L621.454 998.622C620.368 999.249 618.978 998.881 618.351 997.796L617.837 996.906L617.238 997.252L617.694 998.041C618.557 999.536 620.471 1000.04 621.96 999.184L642.104 987.554C643.598 986.691 644.106 984.777 643.247 983.288L642.791 982.499L642.192 982.845L642.198 982.841Z" fill="url(#paint59_linear_5208_511)"/>
<path opacity="0.67" d="M608.093 977.248L618.59 995.428C619.182 996.454 620.498 996.802 621.524 996.209L639.781 985.669C640.754 985.107 641.093 983.859 640.532 982.886L629.981 964.611C629.419 963.639 628.169 963.309 627.196 963.87L608.844 974.466C607.871 975.027 607.532 976.275 608.093 977.248ZM627.657 964.656C628.197 964.344 628.889 964.53 629.198 965.063L639.749 983.338C640.06 983.878 639.875 984.571 639.335 984.882L621.078 995.423C620.485 995.765 619.727 995.562 619.384 994.969L608.888 976.789C608.576 976.249 608.765 975.563 609.305 975.251L627.657 964.656Z" fill="#7F000C"/>
<path d="M627.3 961.586L606.878 973.377C605.579 974.127 605.133 975.792 605.883 977.091L617.674 997.513C618.424 998.812 620.089 999.259 621.388 998.509L641.81 986.718C643.109 985.968 643.556 984.302 642.806 983.003L631.015 962.581C630.265 961.282 628.599 960.836 627.3 961.586ZM639.941 983.083C640.373 983.831 640.117 984.785 639.37 985.217L621.308 995.644C620.561 996.076 619.607 995.82 619.175 995.073L608.802 977.106C608.34 976.305 608.613 975.286 609.414 974.823L627.38 964.45C628.128 964.019 629.082 964.275 629.513 965.022L639.941 983.083Z" fill="#ED1C24"/>
<mask id="mask6_5208_511" style="mask-type:luminance" maskUnits="userSpaceOnUse" x="605" y="961" width="39" height="38">
<path d="M627.3 961.586L606.878 973.377C605.579 974.127 605.133 975.792 605.883 977.091L617.674 997.513C618.424 998.812 620.089 999.259 621.388 998.509L641.81 986.718C643.109 985.968 643.556 984.302 642.806 983.003L631.015 962.581C630.265 961.282 628.599 960.836 627.3 961.586ZM639.941 983.083C640.373 983.831 640.117 984.785 639.37 985.217L621.308 995.644C620.561 996.076 619.607 995.82 619.175 995.073L608.802 977.106C608.34 976.305 608.613 975.286 609.414 974.823L627.38 964.45C628.128 964.019 629.082 964.275 629.513 965.022L639.941 983.083Z" fill="white"/>
</mask>
<g mask="url(#mask6_5208_511)">
<path style="mix-blend-mode:screen" opacity="0.71" d="M514.277 838.93C505.069 844.215 535.574 914.2 582.419 995.241C629.254 1076.28 674.691 1137.69 683.895 1132.4C693.102 1127.12 662.595 1057.13 615.753 976.091C568.918 895.051 523.481 833.64 514.271 838.934L514.277 838.93Z" fill="url(#paint60_radial_5208_511)"/>
<path style="mix-blend-mode:screen" opacity="0.71" d="M556.818 814.368C549.69 818.46 581.873 887.476 628.703 968.519C675.532 1049.56 719.272 1111.95 726.401 1107.86C733.529 1103.77 701.346 1034.75 654.522 953.707C607.692 872.664 563.952 810.273 556.824 814.365L556.818 814.368Z" fill="url(#paint61_radial_5208_511)"/>
</g>
<path style="mix-blend-mode:screen" opacity="0.65" d="M619.347 965.92C619.6 966.359 615.784 969.037 610.819 971.888C605.857 974.745 601.623 976.699 601.369 976.26C601.116 975.821 604.932 973.143 609.897 970.292C614.86 967.435 619.094 965.481 619.347 965.92Z" fill="url(#paint62_radial_5208_511)"/>
<mask id="mask7_5208_511" style="mask-type:luminance" maskUnits="userSpaceOnUse" x="621" y="1015" width="73" height="45">
<path d="M692.733 1019.99L682.416 1027.39C670.408 1035.49 648.657 1048.05 635.634 1054.4L624.064 1059.63C623.435 1060 622.585 1059.69 622.157 1058.95C621.051 1057.03 621.468 1054.73 623.087 1053.79L631.743 1050.04C645.508 1043.39 667.953 1030.43 680.595 1021.84L688.168 1016.22C689.787 1015.28 691.995 1016.08 693.098 1017.99C693.526 1018.73 693.362 1019.62 692.739 1019.98L692.733 1019.99Z" fill="white"/>
</mask>
<g mask="url(#mask7_5208_511)">
<path style="mix-blend-mode:screen" opacity="0.53" d="M681.168 1033.7C680.099 1031.38 658.796 1039.03 633.6 1050.78C608.401 1062.53 588.84 1073.94 589.914 1076.25C590.983 1078.57 612.286 1070.92 637.482 1059.16C662.681 1047.41 682.243 1036.01 681.168 1033.7Z" fill="url(#paint63_radial_5208_511)"/>
<path style="mix-blend-mode:screen" opacity="0.53" d="M700.56 1019.65C699.322 1017.43 678.641 1026.6 654.367 1040.16C630.092 1053.72 611.419 1066.52 612.651 1068.75C613.893 1070.99 634.57 1061.8 658.844 1048.25C683.119 1034.69 701.792 1021.88 700.554 1019.66L700.56 1019.65Z" fill="url(#paint64_radial_5208_511)"/>
<path style="mix-blend-mode:screen" opacity="0.53" d="M716.027 1007.92C714.688 1005.75 694.469 1015.92 670.874 1030.63C647.283 1045.34 629.242 1059.02 630.584 1061.2C631.924 1063.37 652.146 1053.2 675.737 1038.49C699.329 1023.78 717.37 1010.1 716.027 1007.92Z" fill="url(#paint65_radial_5208_511)"/>
<path style="mix-blend-mode:screen" opacity="0.53" d="M728.361 996.206C726.901 994.115 707.276 1005.38 684.534 1021.38C661.793 1037.37 644.538 1052.03 645.998 1054.12C647.459 1056.21 667.084 1044.94 689.825 1028.95C712.567 1012.96 729.822 998.297 728.361 996.206Z" fill="url(#paint66_radial_5208_511)"/>
<path style="mix-blend-mode:multiply" opacity="0.49" d="M634.233 1042.51C695.983 1150.11 738.556 1241.67 729.316 1247.02C720.075 1252.37 662.537 1169.49 600.786 1061.89C539.04 954.296 496.473 862.733 505.704 857.38C514.944 852.029 572.483 934.909 634.23 1042.5L634.233 1042.51Z" fill="url(#paint67_radial_5208_511)"/>
<path style="mix-blend-mode:multiply" opacity="0.49" d="M706.738 1001.68C768.488 1109.28 811.061 1200.84 801.821 1206.19C792.58 1211.54 735.042 1128.66 673.291 1021.06C611.544 913.472 568.978 821.909 578.209 816.556C587.449 811.205 644.988 894.085 706.734 1001.68L706.738 1001.68Z" fill="url(#paint68_radial_5208_511)"/>
<path style="mix-blend-mode:screen" opacity="0.65" d="M653.375 1040.81C653.713 1041.5 646.714 1045.63 637.745 1050.04C628.774 1054.46 621.229 1057.49 620.897 1056.8C620.558 1056.12 627.558 1051.99 636.523 1047.57C645.494 1043.15 653.039 1040.12 653.371 1040.81L653.375 1040.81Z" fill="url(#paint69_radial_5208_511)"/>
<path style="mix-blend-mode:screen" opacity="0.65" d="M658.565 1037.33C658.934 1037.99 652.707 1042.12 644.657 1046.55C636.607 1050.98 629.782 1054.03 629.414 1053.37C629.045 1052.7 635.272 1048.57 643.322 1044.14C651.372 1039.72 658.197 1036.66 658.565 1037.33Z" fill="url(#paint70_radial_5208_511)"/>
<path style="mix-blend-mode:screen" opacity="0.27" d="M666.652 1032.37C667.101 1033.15 660.236 1038 651.315 1043.2C642.389 1048.41 634.782 1052.01 634.334 1051.23C633.885 1050.45 640.75 1045.6 649.671 1040.4C658.597 1035.19 666.203 1031.6 666.652 1032.37Z" fill="url(#paint71_radial_5208_511)"/>
</g>
<path style="mix-blend-mode:screen" d="M645.111 1016.75C645.334 1017.09 643.684 1018.54 641.432 1019.96C639.179 1021.39 637.173 1022.27 636.956 1021.92C636.738 1021.57 638.383 1020.13 640.635 1018.71C642.888 1017.28 644.894 1016.4 645.111 1016.75Z" fill="url(#paint72_radial_5208_511)"/>
<path style="mix-blend-mode:screen" d="M646.711 1019.52C646.934 1019.87 645.284 1021.31 643.031 1022.74C640.779 1024.16 638.773 1025.04 638.555 1024.69C638.332 1024.35 639.982 1022.91 642.235 1021.48C644.487 1020.05 646.493 1019.17 646.711 1019.52Z" fill="url(#paint73_radial_5208_511)"/>
<path style="mix-blend-mode:screen" d="M647.828 1021.37C648.051 1021.72 646.401 1023.16 644.148 1024.59C641.896 1026.02 639.89 1026.9 639.672 1026.55C639.455 1026.2 641.099 1024.76 643.352 1023.33C645.604 1021.91 647.611 1021.02 647.828 1021.37Z" fill="url(#paint74_radial_5208_511)"/>
<path d="M618.922 981.111C618.959 981.177 619.016 981.192 619.081 981.154C619.146 981.116 619.2 980.99 619.23 980.783C619.261 980.575 619.303 980.456 619.348 980.438C619.395 980.451 619.406 980.539 619.363 980.698C619.358 980.717 619.354 980.751 619.358 980.812C619.358 980.867 619.355 980.917 619.354 980.956C619.35 980.99 619.347 981.04 619.335 981.102C619.33 981.16 619.321 981.213 619.305 981.254C619.295 981.291 619.282 981.338 619.26 981.383C619.226 981.474 619.186 981.528 619.139 981.556C619.091 981.583 619.019 981.609 618.932 981.635C618.838 981.666 618.787 981.672 618.773 981.648C618.759 981.624 618.749 981.607 618.742 981.595C618.585 981.322 618.482 980.638 618.441 979.538C618.37 979.579 618.322 979.607 618.277 979.625C618.236 979.649 618.198 979.639 618.168 979.601C618.142 979.569 618.134 979.541 618.16 979.518C618.19 979.501 618.22 979.484 618.249 979.467C618.279 979.45 618.342 979.422 618.419 979.377C618.408 978.743 618.397 978.353 618.389 978.216C618.381 978.078 618.36 977.988 618.333 977.94C618.305 977.893 618.285 977.857 618.262 977.831C618.2 977.669 618.215 977.407 618.309 977.036C618.403 976.665 618.548 976.424 618.738 976.314C618.803 976.276 618.9 976.252 619.034 976.238C619.168 976.224 619.259 976.243 619.311 976.292C619.363 976.341 619.383 976.376 619.381 976.386C619.378 976.395 619.36 976.405 619.327 976.417C619.297 976.418 619.276 976.423 619.27 976.426C618.896 976.642 618.712 977.571 618.727 979.199C619.283 978.847 619.802 978.389 620.284 977.841C620.767 977.294 621.07 976.763 621.202 976.252C621.283 975.968 621.262 975.727 621.149 975.531C620.81 974.944 620.043 974.999 618.845 975.691C618.157 976.088 617.566 976.571 617.063 977.139C616.802 977.44 616.618 977.751 616.506 978.077C616.393 978.403 616.384 978.701 616.483 978.969C616.496 978.992 616.511 979.031 616.535 979.073C616.559 979.114 616.607 979.157 616.677 979.196C616.747 979.235 616.81 979.262 616.875 979.264C616.939 979.266 617.025 979.264 617.141 979.26C617.254 979.251 617.325 979.249 617.368 979.256C617.412 979.263 617.428 979.277 617.424 979.311C617.42 979.345 617.393 979.368 617.333 979.387C617.159 979.456 616.957 979.462 616.736 979.408C616.515 979.353 616.358 979.246 616.269 979.092C616.242 979.044 616.214 978.997 616.205 978.939C616.155 978.881 616.122 978.837 616.115 978.825C615.96 978.392 616.13 977.796 616.618 977.04C617.023 976.466 617.594 975.962 618.341 975.531C618.804 975.264 619.292 975.069 619.815 974.933C620.179 974.865 620.496 974.88 620.76 974.981C621.027 975.087 621.223 975.235 621.336 975.431C621.511 975.733 621.547 976.069 621.44 976.446C621.331 976.818 621.166 977.15 620.945 977.452C620.414 978.162 619.68 978.807 618.729 979.38C618.746 979.876 618.767 980.268 618.803 980.563C618.839 980.859 618.871 981.038 618.912 981.109L618.922 981.111Z" fill="#772400"/>
<path d="M623.305 977.609C623.287 977.358 623.249 977.182 623.191 977.082C623.132 976.981 623.069 976.899 623.011 976.853C622.953 976.807 622.934 976.747 622.952 976.682C622.975 976.613 623.018 976.564 623.091 976.538C623.211 976.5 623.327 976.592 623.45 976.805C623.574 977.019 623.607 977.363 623.559 977.842C623.641 977.984 623.759 978.011 623.901 977.929C624.044 977.847 624.168 977.569 624.278 977.102C624.326 976.869 624.347 976.714 624.355 976.646C624.363 976.578 624.383 976.544 624.413 976.542C624.444 976.54 624.469 976.541 624.475 976.553C624.506 976.607 624.49 976.798 624.427 977.127C624.343 977.666 624.182 978.004 623.957 978.134C623.802 978.223 623.658 978.22 623.523 978.123C623.478 978.292 623.439 978.457 623.393 978.61C623.291 978.898 623.111 979.121 622.861 979.265C622.719 979.347 622.58 979.38 622.447 979.369C622.202 979.369 621.996 979.218 621.835 978.94C621.657 978.631 621.583 978.255 621.605 977.815C621.614 977.557 621.661 977.308 621.742 977.079C621.867 976.707 622.045 976.454 622.277 976.32C622.336 976.286 622.393 976.261 622.456 976.248C622.641 976.212 622.783 976.265 622.865 976.408C622.933 976.526 622.938 976.603 622.873 976.64C622.842 976.642 622.804 976.617 622.763 976.546C622.708 976.451 622.627 976.434 622.526 976.492C622.342 976.599 622.201 976.902 622.112 977.404C622.013 977.904 622.036 978.341 622.181 978.716C622.203 978.782 622.235 978.851 622.273 978.916C622.311 978.982 622.386 979.057 622.484 979.118C622.583 979.18 622.7 979.176 622.824 979.104C622.949 979.032 623.057 978.891 623.146 978.689C623.235 978.487 623.28 978.264 623.302 978.014L623.251 977.98C623.179 977.911 623.15 977.833 623.164 977.761C623.175 977.684 623.221 977.641 623.303 977.618L623.305 977.609Z" fill="#772400"/>
<path d="M625.05 977.85C625.029 977.965 625.049 978.04 625.118 978.064C625.187 978.087 625.242 978.087 625.289 978.06C625.337 978.032 625.387 977.995 625.43 977.947C625.618 977.751 625.758 977.488 625.849 977.167C625.947 976.842 625.933 976.573 625.814 976.365C625.749 976.252 625.543 976.197 625.212 976.214C625.056 976.217 624.964 976.223 624.946 976.218C624.748 976.205 624.605 976.161 624.514 976.087C624.515 976.253 624.503 976.505 624.476 976.829C624.464 976.891 624.436 976.923 624.392 976.917C624.349 976.91 624.326 976.884 624.328 976.819C624.374 976.405 624.372 976.074 624.325 975.841C624.196 975.535 624.253 975.154 624.505 974.701C624.751 974.25 625.036 973.935 625.35 973.754C625.546 973.641 625.709 973.594 625.833 973.617C625.957 973.641 626.04 973.688 626.077 973.753C626.115 973.818 626.145 973.912 626.155 974.025C626.165 974.138 626.136 974.265 626.061 974.411C626.046 974.452 626.012 974.463 625.974 974.437C625.945 974.415 625.941 974.354 625.964 974.269C625.987 974.185 625.978 974.087 625.941 973.982C625.904 973.877 625.828 973.842 625.717 973.882L625.669 973.91C625.468 974.026 625.257 974.25 625.034 974.577C624.815 974.909 624.691 975.242 624.656 975.578C624.636 975.708 624.657 975.814 624.712 975.909C624.767 976.004 624.877 976.044 625.046 976.049C625.116 976.048 625.236 976.05 625.398 976.043C625.561 976.036 625.68 976.038 625.751 976.037C625.821 976.036 625.912 976.055 626.026 976.076C626.135 976.1 626.214 976.141 626.255 976.197C626.367 976.338 626.399 976.557 626.333 976.84C626.247 977.253 625.989 977.655 625.568 978.049C625.469 978.138 625.372 978.217 625.26 978.282C625.147 978.347 625.046 978.35 624.957 978.291C624.925 978.278 624.902 978.252 624.875 978.204C624.847 978.157 624.848 978.062 624.876 977.919C624.908 977.797 624.988 977.648 625.119 977.478C625.137 977.467 625.149 977.46 625.164 977.459C625.183 977.464 625.19 977.476 625.194 977.498C625.205 977.515 625.179 977.554 625.142 977.599C625.108 977.65 625.082 977.728 625.067 977.84L625.05 977.85Z" fill="#772400"/>
<path d="M627.238 973.559C627.621 973.29 627.854 973.132 627.943 973.081C628.032 973.029 628.08 973.017 628.097 973.047C628.114 973.076 628.076 973.146 627.972 973.254C627.868 973.361 627.595 973.574 627.151 973.901C627.155 973.963 627.15 974.036 627.152 974.122C627.147 974.291 627.15 974.392 627.158 974.42C627.204 975.184 627.263 975.656 627.347 975.829C627.374 975.876 627.402 975.939 627.444 976.01C627.485 976.082 627.543 976.127 627.612 976.151C627.731 976.193 627.841 976.137 627.936 975.987C628.031 975.837 628.136 975.579 628.252 975.219C628.369 974.859 628.441 974.533 628.475 974.236C628.48 974.202 628.506 974.179 628.542 974.174C628.64 974.165 628.623 974.451 628.489 975.027C628.366 975.581 628.208 975.964 628.03 976.178C627.927 976.3 627.828 976.389 627.739 976.441C627.532 976.56 627.331 976.542 627.153 976.384C627.121 976.355 627.087 976.311 627.056 976.258C626.95 976.074 626.872 975.747 626.826 975.283C626.837 975.356 626.805 975.548 626.744 975.853C626.727 975.934 626.691 975.954 626.637 975.915C626.63 975.903 626.617 975.894 626.607 975.876C626.597 975.859 626.595 975.828 626.599 975.794C626.669 975.326 626.717 974.943 626.738 974.638C626.738 974.638 626.732 974.491 626.718 974.207C626.672 974.249 626.622 974.286 626.569 974.317C626.515 974.348 626.463 974.354 626.419 974.332C626.375 974.31 626.345 974.272 626.345 974.217C626.332 974.113 626.441 973.987 626.678 973.835C626.671 973.823 626.685 973.807 626.697 973.8L626.667 972.844C626.667 972.789 626.667 972.734 626.663 972.673C626.663 972.617 626.666 972.568 626.664 972.537C626.663 972.507 626.667 972.473 626.661 972.436C626.665 972.402 626.667 972.378 626.672 972.359C626.677 972.34 626.682 972.322 626.685 972.312C626.691 972.269 626.74 972.217 626.841 972.159C626.942 972.1 627.03 972.089 627.1 972.128C627.132 972.141 627.158 972.173 627.185 972.221C627.213 972.268 627.229 972.338 627.228 972.418C627.227 972.498 627.209 972.563 627.185 972.617C627.157 972.664 627.144 972.711 627.147 972.757L627.153 973.631L627.254 973.573L627.238 973.559Z" fill="#772400"/>
<path d="M553.569 943.055L627.013 900.652C627.013 900.652 622.014 901.308 620.342 901.467C607.619 902.675 595.489 905.993 584.723 912.209C573.957 918.424 565.025 927.267 557.61 937.685C556.637 939.053 553.569 943.055 553.569 943.055Z" fill="url(#paint75_linear_5208_511)"/>
<path d="M628.306 908.084L616.759 914.165C600.988 922.519 585.525 931.447 570.404 940.928L559.364 947.887C558.888 948.186 558.268 948.03 557.987 947.543L553.578 943.043L572.387 931.527C584.027 924.387 595.86 917.555 607.863 911.044L627.018 900.634L628.711 906.703C628.992 907.189 628.811 907.808 628.32 908.067L628.306 908.084Z" fill="#ED1C24"/>
<mask id="mask8_5208_511" style="mask-type:luminance" maskUnits="userSpaceOnUse" x="553" y="900" width="76" height="49">
<path d="M628.305 908.084L616.758 914.165C600.987 922.519 585.524 931.447 570.403 940.928L559.363 947.887C558.887 948.186 558.267 948.03 557.986 947.543L553.577 943.043L572.386 931.527C584.026 924.387 595.859 917.555 607.862 911.044L627.017 900.634L628.71 906.703C628.991 907.189 628.81 907.808 628.319 908.067L628.305 908.084Z" fill="white"/>
</mask>
<g mask="url(#mask8_5208_511)">
<path style="mix-blend-mode:multiply" d="M671.87 822.558C718.867 844.838 744.162 890.047 728.365 923.534C712.568 957.021 661.666 966.099 614.663 943.823C567.666 921.544 542.371 876.334 558.168 842.847C573.965 809.36 624.873 800.278 671.87 822.558Z" fill="url(#paint76_radial_5208_511)"/>
<path style="mix-blend-mode:multiply" d="M463.165 944.698C458.961 996.539 485.466 1041.05 522.365 1044.11C559.263 1047.18 592.577 1007.63 596.787 955.788C600.99 903.948 574.485 859.437 537.587 856.374C500.688 853.311 467.368 892.858 463.165 944.698Z" fill="url(#paint77_radial_5208_511)"/>
</g>
<path d="M607.855 911.056C595.852 917.567 584.015 924.393 572.378 931.539L553.569 943.055L557.979 947.555C558.26 948.042 558.885 948.194 559.356 947.899L570.396 940.94C585.516 931.459 600.98 922.531 616.751 914.177L628.298 908.096C628.794 907.833 628.969 907.218 628.688 906.731L626.995 900.662L607.84 911.072L607.855 911.056ZM563.808 938.187L566.416 936.594L569.178 940.283L566.854 941.751L563.812 938.193L563.808 938.187ZM564.793 943.044L562.325 944.603L559.242 940.99L561.737 939.462L564.797 943.05L564.793 943.044ZM568.467 935.339L571.069 933.75L573.556 937.565C572.775 938.048 571.994 938.53 571.216 939.019L568.47 935.345L568.467 935.339ZM573.12 932.494C573.984 931.964 574.861 931.442 575.729 930.917L577.992 934.838C577.196 935.321 576.394 935.808 575.597 936.292L573.117 932.488L573.12 932.494ZM577.787 929.674C578.619 929.169 579.445 928.669 580.28 928.171L582.544 932.091C581.708 932.59 580.876 933.094 580.05 933.594L577.79 929.679L577.787 929.674ZM582.336 926.936C583.165 926.442 584.007 925.955 584.84 925.467L587.097 929.376C586.264 929.864 585.432 930.368 584.603 930.863L582.336 926.936ZM586.916 924.253C587.758 923.766 588.584 923.266 589.426 922.78L591.69 926.7C590.848 927.187 590.009 927.679 589.176 928.168L586.916 924.253ZM591.508 921.578C592.35 921.091 593.2 920.617 594.039 920.14L596.299 924.055C595.457 924.541 594.608 925.015 593.772 925.498L591.508 921.578ZM596.128 918.95C596.974 918.469 597.816 917.983 598.659 917.512L600.926 921.439C600.077 921.913 599.228 922.388 598.385 922.859L596.128 918.95ZM600.752 916.343C601.602 915.869 602.457 915.406 603.316 914.934L605.58 918.855C604.727 919.323 603.878 919.798 603.019 920.27L600.752 916.343ZM605.413 913.771C606.301 913.282 607.191 912.784 608.083 912.301L610.136 916.351C609.316 916.793 608.497 917.25 607.68 917.698L605.416 913.777L605.413 913.771ZM610.196 911.152L612.873 909.693L614.685 913.914C613.873 914.344 613.065 914.779 612.256 915.214L610.196 911.152ZM614.995 908.547L617.682 907.091L619.245 911.511L616.812 912.789L614.998 908.553L614.995 908.547ZM619.815 905.923L622.385 904.526L623.977 909.008L621.392 910.367L619.815 905.923ZM555.482 943.286L557.173 942.255L560.279 945.895L558.898 946.764L555.488 943.283L555.482 943.286ZM627.567 907.118L626.124 907.879L624.525 903.369L626.257 902.425L627.567 907.118Z" fill="#ED1C24"/>
<g opacity="0.28">
<path d="M593.768 925.493C593.904 925.414 594.035 925.339 594.171 925.26L592.093 921.66C592.799 921.252 593.511 920.857 594.217 920.449L594.032 920.129C593.19 920.615 592.337 921.084 591.501 921.566L593.765 925.487L593.768 925.493Z" fill="#35090C"/>
<path d="M603.016 920.265C603.152 920.186 603.283 920.111 603.422 920.038L601.337 916.426C602.056 916.027 602.772 915.637 603.484 915.241L603.303 914.927C602.45 915.396 601.598 915.864 600.739 916.336L603.006 920.263L603.016 920.265Z" fill="#35090C"/>
<path d="M607.68 917.698C607.817 917.619 607.95 917.55 608.09 917.477L606.005 913.865C606.756 913.455 607.499 913.042 608.247 912.626L608.083 912.301C607.192 912.784 606.301 913.282 605.413 913.771L607.68 917.698Z" fill="#35090C"/>
<path d="M598.385 922.858C598.521 922.779 598.652 922.704 598.788 922.625L596.713 919.031C597.419 918.623 598.128 918.222 598.837 917.82L598.652 917.5C597.803 917.974 596.961 918.461 596.121 918.938L598.378 922.846L598.385 922.858Z" fill="#35090C"/>
<path d="M612.257 915.216C612.399 915.134 612.542 915.067 612.685 914.985L610.785 911.241L613.02 910.03L612.877 909.701L610.2 911.16L612.26 915.222L612.257 915.216Z" fill="#35090C"/>
<path d="M616.808 912.785L617.263 912.545L615.583 908.636L617.797 907.429L617.678 907.086L614.995 908.548L616.808 912.785Z" fill="#35090C"/>
<path d="M626.119 907.884L626.592 907.634L625.114 903.458L626.359 902.779L626.258 902.426L624.522 903.364L626.119 907.884Z" fill="#35090C"/>
<path d="M621.386 910.369L621.859 910.12L620.403 906.009L622.504 904.868L622.385 904.525L619.815 905.922L621.386 910.369Z" fill="#35090C"/>
<path d="M575.597 936.292C575.728 936.217 575.852 936.145 575.979 936.064L573.708 932.582C574.44 932.136 575.18 931.693 575.921 931.25L575.732 930.923C574.865 931.448 573.988 931.97 573.124 932.501L575.604 936.304L575.597 936.292Z" fill="#35090C"/>
<path d="M566.416 936.596L563.808 938.188L566.848 941.756L567.182 941.539L564.396 938.276L566.643 936.907L566.416 936.596Z" fill="#35090C"/>
<path d="M589.173 928.161C589.309 928.082 589.44 928.007 589.576 927.928L587.504 924.34C588.21 923.932 588.909 923.513 589.615 923.105L589.43 922.785C588.588 923.271 587.758 923.766 586.919 924.258L589.18 928.173L589.173 928.161Z" fill="#35090C"/>
<path d="M561.734 939.458L559.239 940.985L562.325 944.605L562.662 944.394L559.827 941.073L561.985 939.756L561.734 939.458Z" fill="#35090C"/>
<path d="M559.206 946.571L556.071 943.375L557.415 942.552L557.167 942.26L555.483 943.288L558.892 946.768L559.206 946.571Z" fill="#35090C"/>
<path d="M584.603 930.864C584.74 930.785 584.87 930.71 585.007 930.631L582.928 927.031C583.631 926.617 584.327 926.207 585.033 925.8L584.848 925.48C584.015 925.968 583.173 926.455 582.343 926.949L584.61 930.876L584.603 930.864Z" fill="#35090C"/>
<path d="M580.047 933.589C580.184 933.51 580.314 933.435 580.447 933.35L578.375 929.762C579.074 929.342 579.77 928.917 580.469 928.498L580.281 928.172C579.445 928.67 578.623 929.176 577.787 929.674L580.047 933.589Z" fill="#35090C"/>
<path d="M571.072 933.742L568.47 935.331L571.216 939.005C571.334 938.936 571.455 938.859 571.571 938.784L569.052 935.422L571.272 934.061L571.062 933.739L571.072 933.742Z" fill="#35090C"/>
</g>
<mask id="mask9_5208_511" style="mask-type:luminance" maskUnits="userSpaceOnUse" x="553" y="900" width="76" height="49">
<path d="M607.855 911.058C595.852 917.569 584.015 924.395 572.378 931.541L553.569 943.056L557.979 947.557C558.26 948.044 558.885 948.196 559.356 947.901L570.396 940.942C585.516 931.461 600.98 922.533 616.751 914.179L628.298 908.097C628.794 907.834 628.969 907.219 628.688 906.733L626.995 900.664L607.84 911.074L607.855 911.058ZM563.808 938.189L566.416 936.596L569.178 940.285L566.854 941.753L563.812 938.195L563.808 938.189ZM564.793 943.046L562.325 944.605L559.242 940.991L561.737 939.464L564.797 943.052L564.793 943.046ZM568.467 935.341L571.069 933.752L573.556 937.567C572.775 938.05 571.994 938.532 571.216 939.021L568.47 935.347L568.467 935.341ZM573.12 932.496C573.984 931.966 574.861 931.444 575.729 930.919L577.992 934.84C577.196 935.323 576.394 935.81 575.597 936.294L573.117 932.49L573.12 932.496ZM577.787 929.676C578.619 929.171 579.445 928.671 580.28 928.173L582.544 932.093C581.708 932.591 580.876 933.096 580.05 933.596L577.79 929.681L577.787 929.676ZM582.336 926.938C583.165 926.444 584.007 925.957 584.84 925.469L587.097 929.377C586.264 929.866 585.432 930.37 584.603 930.865L582.336 926.938ZM586.916 924.255C587.758 923.768 588.584 923.268 589.426 922.782L591.69 926.702C590.848 927.189 590.009 927.681 589.176 928.17L586.916 924.255ZM591.508 921.579C592.35 921.093 593.2 920.619 594.039 920.142L596.299 924.057C595.457 924.543 594.608 925.017 593.772 925.5L591.508 921.579ZM596.128 918.952C596.974 918.471 597.816 917.985 598.659 917.514L600.926 921.441C600.077 921.915 599.228 922.39 598.385 922.861L596.128 918.952ZM600.752 916.345C601.602 915.871 602.457 915.408 603.316 914.936L605.58 918.857C604.727 919.325 603.878 919.8 603.019 920.272L600.752 916.345ZM605.413 913.773C606.301 913.284 607.191 912.786 608.083 912.303L610.136 916.353C609.316 916.795 608.497 917.252 607.68 917.7L605.416 913.779L605.413 913.773ZM610.196 911.154L612.873 909.695L614.685 913.916C613.873 914.345 613.065 914.781 612.256 915.216L610.196 911.154ZM614.995 908.549L617.682 907.093L619.245 911.513L616.812 912.791L614.998 908.555L614.995 908.549ZM619.815 905.925L622.385 904.528L623.977 909.01L621.392 910.368L619.815 905.925ZM555.482 943.288L557.173 942.257L560.279 945.897L558.898 946.766L555.488 943.285L555.482 943.288ZM627.567 907.12L626.124 907.881L624.525 903.371L626.257 902.427L627.567 907.12Z" fill="white"/>
</mask>
<g mask="url(#mask9_5208_511)">
<path style="mix-blend-mode:screen" opacity="0.71" d="M483.054 791.318C473.171 796.992 503.135 867.289 549.986 948.327C596.828 1029.36 642.816 1090.46 652.696 1084.78C662.58 1079.1 632.615 1008.8 585.764 927.766C538.923 846.73 492.935 785.637 483.054 791.318Z" fill="url(#paint78_radial_5208_511)"/>
<path style="mix-blend-mode:screen" opacity="0.71" d="M532.257 762.911C522.373 768.586 552.337 838.883 599.188 919.921C646.03 1000.96 692.018 1062.05 701.898 1056.37C711.782 1050.69 681.817 980.398 634.967 899.359C588.116 818.321 542.131 757.234 532.257 762.911Z" fill="url(#paint79_radial_5208_511)"/>
</g>
<path style="mix-blend-mode:screen" opacity="0.65" d="M577.733 928.321C577.999 928.753 573.831 931.807 568.413 935.149C562.998 938.481 558.389 940.841 558.12 940.403C557.855 939.971 562.023 936.917 567.441 933.575C572.856 930.243 577.465 927.883 577.733 928.321Z" fill="url(#paint80_radial_5208_511)"/>
<path style="mix-blend-mode:screen" opacity="0.65" d="M582.011 925.676C582.276 926.109 578.109 929.163 572.691 932.505C567.275 935.837 562.667 938.197 562.398 937.759C562.13 937.321 566.301 934.272 571.719 930.931C577.137 927.589 581.743 925.238 582.011 925.676Z" fill="url(#paint81_radial_5208_511)"/>
<path style="mix-blend-mode:screen" opacity="0.65" d="M584.155 932.102C584.42 932.534 580.252 935.589 574.834 938.931C569.419 942.263 564.81 944.623 564.542 944.185C564.276 943.753 568.444 940.698 573.862 937.357C579.28 934.015 583.886 931.664 584.155 932.102Z" fill="url(#paint82_radial_5208_511)"/>
<path style="mix-blend-mode:screen" opacity="0.65" d="M604.359 912.947C604.601 913.393 609.33 911.311 614.933 908.29C620.526 905.266 624.875 902.455 624.63 902.003C624.388 901.558 619.659 903.64 614.056 906.661C608.462 909.685 604.114 912.496 604.359 912.947Z" fill="url(#paint83_radial_5208_511)"/>
<path style="mix-blend-mode:screen" opacity="0.65" d="M599.936 915.328C600.178 915.774 604.907 913.692 610.51 910.671C616.104 907.647 620.452 904.836 620.207 904.384C619.962 903.932 615.236 906.02 609.633 909.042C604.039 912.065 599.691 914.876 599.936 915.328Z" fill="url(#paint84_radial_5208_511)"/>
<path style="mix-blend-mode:screen" opacity="0.65" d="M604.832 920.163C605.074 920.608 609.803 918.526 615.406 915.505C620.999 912.481 625.348 909.67 625.103 909.219C624.861 908.773 620.132 910.855 614.529 913.876C608.926 916.897 604.587 919.711 604.832 920.163Z" fill="url(#paint85_radial_5208_511)"/>
<circle cx="514" cy="747" r="9" fill="white"/>
<defs>
<filter id="filter0_f_5208_511" x="0.100006" y="0.100006" width="1474.8" height="1474.8" filterUnits="userSpaceOnUse" color-interpolation-filters="sRGB">
<feFlood flood-opacity="0" result="BackgroundImageFix"/>
<feBlend mode="normal" in="SourceGraphic" in2="BackgroundImageFix" result="shape"/>
<feGaussianBlur stdDeviation="220.45" result="effect1_foregroundBlur_5208_511"/>
</filter>
<linearGradient id="paint0_linear_5208_511" x1="593" y1="793" x2="593" y2="1093" gradientUnits="userSpaceOnUse">
<stop stop-color="white"/>
<stop offset="1" stop-color="white" stop-opacity="0"/>
</linearGradient>
<radialGradient id="paint1_radial_5208_511" cx="0" cy="0" r="1" gradientUnits="userSpaceOnUse" gradientTransform="translate(673.14 963.053) rotate(-30.14) scale(19.8044 224.839)">
<stop stop-color="#450000"/>
<stop offset="0.26" stop-color="#7F5050"/>
<stop offset="0.53" stop-color="#B59A9A"/>
<stop offset="0.75" stop-color="#DDD0D0"/>
<stop offset="0.91" stop-color="#F5F2F2"/>
<stop offset="1" stop-color="white"/>
</radialGradient>
<radialGradient id="paint2_radial_5208_511" cx="0" cy="0" r="1" gradientUnits="userSpaceOnUse" gradientTransform="translate(631.498 987.092) rotate(-30.14) scale(19.8044 224.839)">
<stop stop-color="#450000"/>
<stop offset="0.26" stop-color="#7F5050"/>
<stop offset="0.53" stop-color="#B59A9A"/>
<stop offset="0.75" stop-color="#DDD0D0"/>
<stop offset="0.91" stop-color="#F5F2F2"/>
<stop offset="1" stop-color="white"/>
</radialGradient>
<radialGradient id="paint3_radial_5208_511" cx="0" cy="0" r="1" gradientUnits="userSpaceOnUse" gradientTransform="translate(655.438 973.268) rotate(-30.14) scale(19.8044 224.839)">
<stop offset="0.09" stop-color="#840000"/>
<stop offset="0.16" stop-color="#8A0C0C"/>
<stop offset="0.27" stop-color="#9A2E2E"/>
<stop offset="0.43" stop-color="#B46464"/>
<stop offset="0.48" stop-color="#BF7B7B"/>
<stop offset="0.73" stop-color="#DCB8B8"/>
<stop offset="1" stop-color="white"/>
</radialGradient>
<radialGradient id="paint4_radial_5208_511" cx="0" cy="0" r="1" gradientUnits="userSpaceOnUse" gradientTransform="translate(605.091 1002.35) rotate(-30.14) scale(19.8044 224.839)">
<stop stop-color="#450000"/>
<stop offset="0.26" stop-color="#7F5050"/>
<stop offset="0.53" stop-color="#B59A9A"/>
<stop offset="0.75" stop-color="#DDD0D0"/>
<stop offset="0.91" stop-color="#F5F2F2"/>
<stop offset="1" stop-color="white"/>
</radialGradient>
<radialGradient id="paint5_radial_5208_511" cx="0" cy="0" r="1" gradientUnits="userSpaceOnUse" gradientTransform="translate(593.887 1039.76) rotate(-120.03) scale(169.521 20.6878)">
<stop offset="0.06" stop-color="#FF9B82"/>
<stop offset="0.11" stop-color="#F1927B"/>
<stop offset="0.22" stop-color="#CC7C69"/>
<stop offset="0.37" stop-color="#92594D"/>
<stop offset="0.5" stop-color="#593632"/>
<stop offset="1"/>
</radialGradient>
<radialGradient id="paint6_radial_5208_511" cx="0" cy="0" r="1" gradientUnits="userSpaceOnUse" gradientTransform="translate(590.606 1016.25) rotate(-120.02) scale(104.857 10.6394)">
<stop offset="0.06" stop-color="#FF9B82"/>
<stop offset="0.11" stop-color="#F1927B"/>
<stop offset="0.22" stop-color="#CC7C69"/>
<stop offset="0.37" stop-color="#92594D"/>
<stop offset="0.5" stop-color="#593632"/>
<stop offset="1"/>
</radialGradient>
<linearGradient id="paint7_linear_5208_511" x1="631.582" y1="1073.85" x2="701.277" y2="1033.61" gradientUnits="userSpaceOnUse">
<stop/>
<stop offset="0.19" stop-color="#191919"/>
<stop offset="0.35" stop-color="#282828"/>
<stop offset="0.49" stop-color="#2E2E2E"/>
<stop offset="0.7" stop-color="#2B2B2B"/>
<stop offset="0.82" stop-color="#232323"/>
<stop offset="0.91" stop-color="#151515"/>
<stop offset="0.99" stop-color="#020202"/>
<stop offset="1"/>
</linearGradient>
<radialGradient id="paint8_radial_5208_511" cx="0" cy="0" r="1" gradientUnits="userSpaceOnUse" gradientTransform="translate(576.049 963.533) rotate(-129.94) scale(3.70716 32.7465)">
<stop offset="0.26"/>
<stop offset="0.34" stop-color="#232323"/>
<stop offset="0.52" stop-color="#707070"/>
<stop offset="0.69" stop-color="#ADADAD"/>
<stop offset="0.83" stop-color="#D9D9D9"/>
<stop offset="0.94" stop-color="#F4F4F4"/>
<stop offset="1" stop-color="white"/>
</radialGradient>
<radialGradient id="paint9_radial_5208_511" cx="0" cy="0" r="1" gradientUnits="userSpaceOnUse" gradientTransform="translate(568.171 968.161) rotate(-125.69) scale(3.70839 32.7574)">
<stop offset="0.26"/>
<stop offset="0.34" stop-color="#232323"/>
<stop offset="0.52" stop-color="#707070"/>
<stop offset="0.69" stop-color="#ADADAD"/>
<stop offset="0.83" stop-color="#D9D9D9"/>
<stop offset="0.94" stop-color="#F4F4F4"/>
<stop offset="1" stop-color="white"/>
</radialGradient>
<radialGradient id="paint10_radial_5208_511" cx="0" cy="0" r="1" gradientUnits="userSpaceOnUse" gradientTransform="translate(707.487 1114.88) rotate(-120.02) scale(169.521 13.8312)">
<stop offset="0.06" stop-color="white"/>
<stop offset="0.23" stop-color="#C1C1C1"/>
<stop offset="0.64" stop-color="#373737"/>
<stop offset="0.82"/>
</radialGradient>
<radialGradient id="paint11_radial_5208_511" cx="0" cy="0" r="1" gradientUnits="userSpaceOnUse" gradientTransform="translate(568.232 926.992) rotate(-132.39) scale(3.71003 32.7719)">
<stop offset="0.26"/>
<stop offset="0.34" stop-color="#232323"/>
<stop offset="0.52" stop-color="#707070"/>
<stop offset="0.69" stop-color="#ADADAD"/>
<stop offset="0.83" stop-color="#D9D9D9"/>
<stop offset="0.94" stop-color="#F4F4F4"/>
<stop offset="1" stop-color="white"/>
</radialGradient>
<radialGradient id="paint12_radial_5208_511" cx="0" cy="0" r="1" gradientUnits="userSpaceOnUse" gradientTransform="translate(559.707 935.121) rotate(-129.94) scale(3.70716 32.7465)">
<stop offset="0.26"/>
<stop offset="0.34" stop-color="#232323"/>
<stop offset="0.52" stop-color="#707070"/>
<stop offset="0.69" stop-color="#ADADAD"/>
<stop offset="0.83" stop-color="#D9D9D9"/>
<stop offset="0.94" stop-color="#F4F4F4"/>
<stop offset="1" stop-color="white"/>
</radialGradient>
<radialGradient id="paint13_radial_5208_511" cx="0" cy="0" r="1" gradientUnits="userSpaceOnUse" gradientTransform="translate(552.074 940.124) rotate(-125.69) scale(3.70839 32.7574)">
<stop offset="0.26"/>
<stop offset="0.34" stop-color="#232323"/>
<stop offset="0.52" stop-color="#707070"/>
<stop offset="0.69" stop-color="#ADADAD"/>
<stop offset="0.83" stop-color="#D9D9D9"/>
<stop offset="0.94" stop-color="#F4F4F4"/>
<stop offset="1" stop-color="white"/>
</radialGradient>
<radialGradient id="paint14_radial_5208_511" cx="0" cy="0" r="1" gradientUnits="userSpaceOnUse" gradientTransform="translate(547.01 1153.56) rotate(142.98) scale(15.2818 73.3524)">
<stop offset="0.26"/>
<stop offset="0.34" stop-color="#232323"/>
<stop offset="0.52" stop-color="#707070"/>
<stop offset="0.69" stop-color="#ADADAD"/>
<stop offset="0.83" stop-color="#D9D9D9"/>
<stop offset="0.94" stop-color="#F4F4F4"/>
<stop offset="1" stop-color="white"/>
</radialGradient>
<radialGradient id="paint15_radial_5208_511" cx="0" cy="0" r="1" gradientUnits="userSpaceOnUse" gradientTransform="translate(696.115 1034.88) rotate(-26.37) scale(18.0474 1.06161)">
<stop offset="0.14" stop-color="white"/>
<stop offset="0.32" stop-color="#4C4C4C"/>
<stop offset="0.91"/>
</radialGradient>
<radialGradient id="paint16_radial_5208_511" cx="0" cy="0" r="1" gradientUnits="userSpaceOnUse" gradientTransform="translate(666.339 1049.53) rotate(-28.36) scale(16.6142 1.06161)">
<stop offset="0.14" stop-color="white"/>
<stop offset="0.32" stop-color="#4C4C4C"/>
<stop offset="0.91"/>
</radialGradient>
<radialGradient id="paint17_radial_5208_511" cx="0" cy="0" r="1" gradientUnits="userSpaceOnUse" gradientTransform="translate(669.525 1084.53) rotate(-29.97) scale(18.6844 1.27393)">
<stop offset="0.14" stop-color="white"/>
<stop offset="0.32" stop-color="#4C4C4C"/>
<stop offset="0.91"/>
</radialGradient>
<radialGradient id="paint18_radial_5208_511" cx="0" cy="0" r="1" gradientUnits="userSpaceOnUse" gradientTransform="translate(676.024 1080.85) rotate(-30.35) scale(18.6844 1.27394)">
<stop offset="0.14" stop-color="white"/>
<stop offset="0.32" stop-color="#4C4C4C"/>
<stop offset="0.91"/>
</radialGradient>
<linearGradient id="paint19_linear_5208_511" x1="598.961" y1="937.418" x2="592.494" y2="925.532" gradientUnits="userSpaceOnUse">
<stop offset="0.05" stop-color="#A8000A"/>
<stop offset="0.32" stop-color="#BF0912"/>
<stop offset="0.76" stop-color="#E0161F"/>
<stop offset="1" stop-color="#ED1C24"/>
</linearGradient>
<radialGradient id="paint20_radial_5208_511" cx="0" cy="0" r="1" gradientUnits="userSpaceOnUse" gradientTransform="translate(621.552 964.52) rotate(59.59) scale(1.78516 35.108)">
<stop stop-color="#A60000"/>
<stop offset="0.1" stop-color="#B22929"/>
<stop offset="0.33" stop-color="#CE8585"/>
<stop offset="0.43" stop-color="#D9AAAA"/>
<stop offset="0.65" stop-color="#EAD1D1"/>
<stop offset="0.88" stop-color="#F9F2F2"/>
<stop offset="1" stop-color="white"/>
</radialGradient>
<radialGradient id="paint21_radial_5208_511" cx="0" cy="0" r="1" gradientUnits="userSpaceOnUse" gradientTransform="translate(636.187 955.877) rotate(59.59) scale(1.78516 35.108)">
<stop stop-color="#A60000"/>
<stop offset="0.1" stop-color="#B22929"/>
<stop offset="0.33" stop-color="#CE8585"/>
<stop offset="0.43" stop-color="#D9AAAA"/>
<stop offset="0.65" stop-color="#EAD1D1"/>
<stop offset="0.88" stop-color="#F9F2F2"/>
<stop offset="1" stop-color="white"/>
</radialGradient>
<radialGradient id="paint22_radial_5208_511" cx="0" cy="0" r="1" gradientUnits="userSpaceOnUse" gradientTransform="translate(601.343 976.455) rotate(59.59) scale(1.78516 35.108)">
<stop stop-color="#A60000"/>
<stop offset="0.1" stop-color="#B22929"/>
<stop offset="0.33" stop-color="#CE8585"/>
<stop offset="0.43" stop-color="#D9AAAA"/>
<stop offset="0.65" stop-color="#EAD1D1"/>
<stop offset="0.88" stop-color="#F9F2F2"/>
<stop offset="1" stop-color="white"/>
</radialGradient>
<radialGradient id="paint23_radial_5208_511" cx="0" cy="0" r="1" gradientUnits="userSpaceOnUse" gradientTransform="translate(623.207 967.372) rotate(59.59) scale(1.78516 35.108)">
<stop stop-color="#A60000"/>
<stop offset="0.1" stop-color="#B22929"/>
<stop offset="0.33" stop-color="#CE8585"/>
<stop offset="0.43" stop-color="#D9AAAA"/>
<stop offset="0.65" stop-color="#EAD1D1"/>
<stop offset="0.88" stop-color="#F9F2F2"/>
<stop offset="1" stop-color="white"/>
</radialGradient>
<radialGradient id="paint24_radial_5208_511" cx="0" cy="0" r="1" gradientUnits="userSpaceOnUse" gradientTransform="translate(637.836 958.734) rotate(59.59) scale(1.78516 35.108)">
<stop stop-color="#A60000"/>
<stop offset="0.1" stop-color="#B22929"/>
<stop offset="0.33" stop-color="#CE8585"/>
<stop offset="0.43" stop-color="#D9AAAA"/>
<stop offset="0.65" stop-color="#EAD1D1"/>
<stop offset="0.88" stop-color="#F9F2F2"/>
<stop offset="1" stop-color="white"/>
</radialGradient>
<radialGradient id="paint25_radial_5208_511" cx="0" cy="0" r="1" gradientUnits="userSpaceOnUse" gradientTransform="translate(602.991 979.312) rotate(59.59) scale(1.78516 35.108)">
<stop stop-color="#A60000"/>
<stop offset="0.1" stop-color="#B22929"/>
<stop offset="0.33" stop-color="#CE8585"/>
<stop offset="0.43" stop-color="#D9AAAA"/>
<stop offset="0.65" stop-color="#EAD1D1"/>
<stop offset="0.88" stop-color="#F9F2F2"/>
<stop offset="1" stop-color="white"/>
</radialGradient>
<radialGradient id="paint26_radial_5208_511" cx="0" cy="0" r="1" gradientUnits="userSpaceOnUse" gradientTransform="translate(589.107 975.571) rotate(-29.88) scale(29.3307 1.45201)">
<stop offset="0.14" stop-color="white"/>
<stop offset="0.32" stop-color="#4C4C4C"/>
<stop offset="0.91"/>
</radialGradient>
<radialGradient id="paint27_radial_5208_511" cx="0" cy="0" r="1" gradientUnits="userSpaceOnUse" gradientTransform="translate(612.772 931.957) rotate(-29.88) scale(25.4102 1.1616)">
<stop offset="0.14" stop-color="white"/>
<stop offset="0.32" stop-color="#4C4C4C"/>
<stop offset="0.91"/>
</radialGradient>
<radialGradient id="paint28_radial_5208_511" cx="0" cy="0" r="1" gradientUnits="userSpaceOnUse" gradientTransform="translate(617.727 959.069) rotate(-29.88) scale(31.9443 1.45201)">
<stop offset="0.14" stop-color="#FF282C"/>
<stop offset="0.27" stop-color="#A1191C"/>
<stop offset="0.91"/>
</radialGradient>
<radialGradient id="paint29_radial_5208_511" cx="0" cy="0" r="1" gradientUnits="userSpaceOnUse" gradientTransform="translate(641.06 937.304) rotate(56.23) scale(1.78474 15.1703)">
<stop stop-color="#8E0000"/>
<stop offset="0.1" stop-color="#A02929"/>
<stop offset="0.33" stop-color="#C88585"/>
<stop offset="0.43" stop-color="#D9AAAA"/>
<stop offset="0.65" stop-color="#EAD1D1"/>
<stop offset="0.88" stop-color="#F9F2F2"/>
<stop offset="1" stop-color="white"/>
</radialGradient>
<radialGradient id="paint30_radial_5208_511" cx="0" cy="0" r="1" gradientUnits="userSpaceOnUse" gradientTransform="translate(643.047 939.778) rotate(53.27) scale(1.78351 15.1598)">
<stop stop-color="#8E0000"/>
<stop offset="0.1" stop-color="#A02929"/>
<stop offset="0.33" stop-color="#C88585"/>
<stop offset="0.43" stop-color="#D9AAAA"/>
<stop offset="0.65" stop-color="#EAD1D1"/>
<stop offset="0.88" stop-color="#F9F2F2"/>
<stop offset="1" stop-color="white"/>
</radialGradient>
<radialGradient id="paint31_radial_5208_511" cx="0" cy="0" r="1" gradientUnits="userSpaceOnUse" gradientTransform="translate(577.917 973.886) rotate(63.77) scale(1.78474 15.1703)">
<stop stop-color="#8E0000"/>
<stop offset="0.1" stop-color="#A02929"/>
<stop offset="0.33" stop-color="#C88585"/>
<stop offset="0.43" stop-color="#D9AAAA"/>
<stop offset="0.65" stop-color="#EAD1D1"/>
<stop offset="0.88" stop-color="#F9F2F2"/>
<stop offset="1" stop-color="white"/>
</radialGradient>
<radialGradient id="paint32_radial_5208_511" cx="0" cy="0" r="1" gradientUnits="userSpaceOnUse" gradientTransform="translate(579.194 977.142) rotate(66.73) scale(1.78351 15.1598)">
<stop stop-color="#8E0000"/>
<stop offset="0.1" stop-color="#A02929"/>
<stop offset="0.33" stop-color="#C88585"/>
<stop offset="0.43" stop-color="#D9AAAA"/>
<stop offset="0.65" stop-color="#EAD1D1"/>
<stop offset="0.88" stop-color="#F9F2F2"/>
<stop offset="1" stop-color="white"/>
</radialGradient>
<radialGradient id="paint33_radial_5208_511" cx="0" cy="0" r="1" gradientUnits="userSpaceOnUse" gradientTransform="translate(610.738 945.804) rotate(59.59) scale(1.78516 35.108)">
<stop stop-color="#A60000"/>
<stop offset="0.1" stop-color="#B22929"/>
<stop offset="0.33" stop-color="#CE8585"/>
<stop offset="0.43" stop-color="#D9AAAA"/>
<stop offset="0.65" stop-color="#EAD1D1"/>
<stop offset="0.88" stop-color="#F9F2F2"/>
<stop offset="1" stop-color="white"/>
</radialGradient>
<radialGradient id="paint34_radial_5208_511" cx="0" cy="0" r="1" gradientUnits="userSpaceOnUse" gradientTransform="translate(625.373 937.16) rotate(59.59) scale(1.78516 35.108)">
<stop stop-color="#A60000"/>
<stop offset="0.1" stop-color="#B22929"/>
<stop offset="0.33" stop-color="#CE8585"/>
<stop offset="0.43" stop-color="#D9AAAA"/>
<stop offset="0.65" stop-color="#EAD1D1"/>
<stop offset="0.88" stop-color="#F9F2F2"/>
<stop offset="1" stop-color="white"/>
</radialGradient>
<radialGradient id="paint35_radial_5208_511" cx="0" cy="0" r="1" gradientUnits="userSpaceOnUse" gradientTransform="translate(590.53 957.738) rotate(59.59) scale(1.78516 35.108)">
<stop stop-color="#A60000"/>
<stop offset="0.1" stop-color="#B22929"/>
<stop offset="0.33" stop-color="#CE8585"/>
<stop offset="0.43" stop-color="#D9AAAA"/>
<stop offset="0.65" stop-color="#EAD1D1"/>
<stop offset="0.88" stop-color="#F9F2F2"/>
<stop offset="1" stop-color="white"/>
</radialGradient>
<radialGradient id="paint36_radial_5208_511" cx="0" cy="0" r="1" gradientUnits="userSpaceOnUse" gradientTransform="translate(612.386 948.659) rotate(59.59) scale(1.78514 35.108)">
<stop stop-color="#A60000"/>
<stop offset="0.1" stop-color="#B22929"/>
<stop offset="0.33" stop-color="#CE8585"/>
<stop offset="0.43" stop-color="#D9AAAA"/>
<stop offset="0.65" stop-color="#EAD1D1"/>
<stop offset="0.88" stop-color="#F9F2F2"/>
<stop offset="1" stop-color="white"/>
</radialGradient>
<radialGradient id="paint37_radial_5208_511" cx="0" cy="0" r="1" gradientUnits="userSpaceOnUse" gradientTransform="translate(627.022 940.018) rotate(59.59) scale(1.78514 35.108)">
<stop stop-color="#A60000"/>
<stop offset="0.1" stop-color="#B22929"/>
<stop offset="0.33" stop-color="#CE8585"/>
<stop offset="0.43" stop-color="#D9AAAA"/>
<stop offset="0.65" stop-color="#EAD1D1"/>
<stop offset="0.88" stop-color="#F9F2F2"/>
<stop offset="1" stop-color="white"/>
</radialGradient>
<radialGradient id="paint38_radial_5208_511" cx="0" cy="0" r="1" gradientUnits="userSpaceOnUse" gradientTransform="translate(592.178 960.596) rotate(59.59) scale(1.78514 35.108)">
<stop stop-color="#A60000"/>
<stop offset="0.1" stop-color="#B22929"/>
<stop offset="0.33" stop-color="#CE8585"/>
<stop offset="0.43" stop-color="#D9AAAA"/>
<stop offset="0.65" stop-color="#EAD1D1"/>
<stop offset="0.88" stop-color="#F9F2F2"/>
<stop offset="1" stop-color="white"/>
</radialGradient>
<radialGradient id="paint39_radial_5208_511" cx="0" cy="0" r="1" gradientUnits="userSpaceOnUse" gradientTransform="translate(579.059 957.993) rotate(-29.88) scale(29.3307 1.45201)">
<stop offset="0.14" stop-color="white"/>
<stop offset="0.32" stop-color="#4C4C4C"/>
<stop offset="0.91"/>
</radialGradient>
<radialGradient id="paint40_radial_5208_511" cx="0" cy="0" r="1" gradientUnits="userSpaceOnUse" gradientTransform="translate(603.152 915.113) rotate(-29.88) scale(25.4102 1.1616)">
<stop offset="0.14" stop-color="white"/>
<stop offset="0.32" stop-color="#4C4C4C"/>
<stop offset="0.91"/>
</radialGradient>
<radialGradient id="paint41_radial_5208_511" cx="0" cy="0" r="1" gradientUnits="userSpaceOnUse" gradientTransform="translate(607.695 941.483) rotate(-29.88) scale(31.9443 1.45201)">
<stop offset="0.14" stop-color="#FF282C"/>
<stop offset="0.27" stop-color="#A1191C"/>
<stop offset="0.91"/>
</radialGradient>
<radialGradient id="paint42_radial_5208_511" cx="0" cy="0" r="1" gradientUnits="userSpaceOnUse" gradientTransform="translate(630.179 918.639) rotate(56.23) scale(1.78474 15.1703)">
<stop stop-color="#8E0000"/>
<stop offset="0.1" stop-color="#A02929"/>
<stop offset="0.33" stop-color="#C88585"/>
<stop offset="0.43" stop-color="#D9AAAA"/>
<stop offset="0.65" stop-color="#EAD1D1"/>
<stop offset="0.88" stop-color="#F9F2F2"/>
<stop offset="1" stop-color="white"/>
</radialGradient>
<radialGradient id="paint43_radial_5208_511" cx="0" cy="0" r="1" gradientUnits="userSpaceOnUse" gradientTransform="translate(632.126 921.177) rotate(53.27) scale(1.78351 15.1598)">
<stop stop-color="#8E0000"/>
<stop offset="0.1" stop-color="#A02929"/>
<stop offset="0.33" stop-color="#C88585"/>
<stop offset="0.43" stop-color="#D9AAAA"/>
<stop offset="0.65" stop-color="#EAD1D1"/>
<stop offset="0.88" stop-color="#F9F2F2"/>
<stop offset="1" stop-color="white"/>
</radialGradient>
<radialGradient id="paint44_radial_5208_511" cx="0" cy="0" r="1" gradientUnits="userSpaceOnUse" gradientTransform="translate(567.194 955.129) rotate(63.77) scale(1.78474 15.1703)">
<stop stop-color="#8E0000"/>
<stop offset="0.1" stop-color="#A02929"/>
<stop offset="0.33" stop-color="#C88585"/>
<stop offset="0.43" stop-color="#D9AAAA"/>
<stop offset="0.65" stop-color="#EAD1D1"/>
<stop offset="0.88" stop-color="#F9F2F2"/>
<stop offset="1" stop-color="white"/>
</radialGradient>
<radialGradient id="paint45_radial_5208_511" cx="0" cy="0" r="1" gradientUnits="userSpaceOnUse" gradientTransform="translate(568.55 958.38) rotate(66.73) scale(1.78351 15.1598)">
<stop stop-color="#8E0000"/>
<stop offset="0.1" stop-color="#A02929"/>
<stop offset="0.33" stop-color="#C88585"/>
<stop offset="0.43" stop-color="#D9AAAA"/>
<stop offset="0.65" stop-color="#EAD1D1"/>
<stop offset="0.88" stop-color="#F9F2F2"/>
<stop offset="1" stop-color="white"/>
</radialGradient>
<linearGradient id="paint46_linear_5208_511" x1="596.538" y1="938.508" x2="618.87" y2="965.119" gradientUnits="userSpaceOnUse">
<stop offset="0.06" stop-color="#FFBDC0"/>
<stop offset="0.18" stop-color="#F9ABB0"/>
<stop offset="0.42" stop-color="#EA7E88"/>
<stop offset="0.76" stop-color="#D33748"/>
<stop offset="1" stop-color="#C20017"/>
</linearGradient>
<linearGradient id="paint47_linear_5208_511" x1="595.687" y1="937.829" x2="618.563" y2="965.083" gradientUnits="userSpaceOnUse">
<stop offset="0.06" stop-color="#FFBDC0"/>
<stop offset="0.2" stop-color="#EF8B94"/>
<stop offset="0.4" stop-color="#DB505E"/>
<stop offset="0.56" stop-color="#CD2437"/>
<stop offset="0.69" stop-color="#C5091F"/>
<stop offset="0.77" stop-color="#C20017"/>
</linearGradient>
<radialGradient id="paint48_radial_5208_511" cx="0" cy="0" r="1" gradientUnits="userSpaceOnUse" gradientTransform="translate(577.529 1005.93) rotate(-120.03) scale(169.521 19.2692)">
<stop offset="0.06" stop-color="#FF9B82"/>
<stop offset="0.11" stop-color="#F1927B"/>
<stop offset="0.22" stop-color="#CC7C69"/>
<stop offset="0.37" stop-color="#92594D"/>
<stop offset="0.5" stop-color="#593632"/>
<stop offset="1"/>
</radialGradient>
<radialGradient id="paint49_radial_5208_511" cx="0" cy="0" r="1" gradientUnits="userSpaceOnUse" gradientTransform="translate(635.633 968.778) rotate(-120.02) scale(169.521 14.8952)">
<stop offset="0.06" stop-color="#FF9B82"/>
<stop offset="0.11" stop-color="#F1927B"/>
<stop offset="0.22" stop-color="#CC7C69"/>
<stop offset="0.37" stop-color="#92594D"/>
<stop offset="0.5" stop-color="#593632"/>
<stop offset="1"/>
</radialGradient>
<linearGradient id="paint50_linear_5208_511" x1="607.23" y1="950.81" x2="609.413" y2="954.564" gradientUnits="userSpaceOnUse">
<stop offset="0.37" stop-color="#35090C"/>
<stop offset="0.56" stop-color="#280609"/>
<stop offset="0.92" stop-color="#070101"/>
<stop offset="1"/>
</linearGradient>
<linearGradient id="paint51_linear_5208_511" x1="616.519" y1="962.529" x2="600.404" y2="943.33" gradientUnits="userSpaceOnUse">
<stop offset="0.06" stop-color="#FFBDC0"/>
<stop offset="0.18" stop-color="#F9ABB0"/>
<stop offset="0.42" stop-color="#EA7E88"/>
<stop offset="0.76" stop-color="#D33748"/>
<stop offset="1" stop-color="#C20017"/>
</linearGradient>
<linearGradient id="paint52_linear_5208_511" x1="617.716" y1="963.808" x2="601.492" y2="944.475" gradientUnits="userSpaceOnUse">
<stop offset="0.06" stop-color="#FFBDC0"/>
<stop offset="0.2" stop-color="#EF8B94"/>
<stop offset="0.4" stop-color="#DB505E"/>
<stop offset="0.56" stop-color="#CD2437"/>
<stop offset="0.69" stop-color="#C5091F"/>
<stop offset="0.77" stop-color="#C20017"/>
</linearGradient>
<radialGradient id="paint53_radial_5208_511" cx="0" cy="0" r="1" gradientUnits="userSpaceOnUse" gradientTransform="translate(578.204 929.794) rotate(-29.9) scale(10.3507 0.902372)">
<stop offset="0.14" stop-color="white"/>
<stop offset="0.32" stop-color="#4C4C4C"/>
<stop offset="0.91"/>
</radialGradient>
<radialGradient id="paint54_radial_5208_511" cx="0" cy="0" r="1" gradientUnits="userSpaceOnUse" gradientTransform="translate(623.506 969.175) rotate(60.05) scale(12.4903 46.0952)">
<stop offset="0.12" stop-color="#FF8802"/>
<stop offset="0.24" stop-color="#FFA744"/>
<stop offset="0.34" stop-color="#FFC27D"/>
<stop offset="0.45" stop-color="#FFD7AB"/>
<stop offset="0.55" stop-color="#FFE8CF"/>
<stop offset="0.64" stop-color="#FFF5E9"/>
<stop offset="0.72" stop-color="#FFFCF9"/>
<stop offset="0.79" stop-color="white"/>
</radialGradient>
<radialGradient id="paint55_radial_5208_511" cx="0" cy="0" r="1" gradientUnits="userSpaceOnUse" gradientTransform="translate(633.374 990.761) rotate(59.96) scale(4.16249 33.2999)">
<stop stop-color="#D34F00"/>
<stop offset="0.03" stop-color="#D55A10"/>
<stop offset="0.12" stop-color="#DE7D43"/>
<stop offset="0.21" stop-color="#E5986B"/>
<stop offset="0.28" stop-color="#EAAC88"/>
<stop offset="0.35" stop-color="#EDB899"/>
<stop offset="0.4" stop-color="#EFBDA0"/>
<stop offset="0.42" stop-color="#EFC0A5"/>
<stop offset="0.52" stop-color="#F5D7C5"/>
<stop offset="0.63" stop-color="#F9E8DE"/>
<stop offset="0.74" stop-color="#FCF5F0"/>
<stop offset="0.86" stop-color="#FEFCFB"/>
<stop offset="1" stop-color="white"/>
</radialGradient>
<radialGradient id="paint56_radial_5208_511" cx="0" cy="0" r="1" gradientUnits="userSpaceOnUse" gradientTransform="translate(635.078 971.305) rotate(-30.04) scale(4.16248 33.2999)">
<stop stop-color="#D34F00"/>
<stop offset="0.03" stop-color="#D55A10"/>
<stop offset="0.11" stop-color="#DE7D43"/>
<stop offset="0.18" stop-color="#E5986B"/>
<stop offset="0.25" stop-color="#EAAC88"/>
<stop offset="0.3" stop-color="#EDB899"/>
<stop offset="0.35" stop-color="#EFBDA0"/>
<stop offset="0.38" stop-color="#F0C4AA"/>
<stop offset="0.48" stop-color="#F5D9C8"/>
<stop offset="0.59" stop-color="#F9E9E0"/>
<stop offset="0.71" stop-color="#FCF5F1"/>
<stop offset="0.84" stop-color="#FEFCFB"/>
<stop offset="1" stop-color="white"/>
</radialGradient>
<radialGradient id="paint57_radial_5208_511" cx="0" cy="0" r="1" gradientUnits="userSpaceOnUse" gradientTransform="translate(616.047 987.525) rotate(-18.92) scale(18.7355 58.4369)">
<stop offset="0.12" stop-color="#FF8802"/>
<stop offset="0.24" stop-color="#FFA744"/>
<stop offset="0.34" stop-color="#FFC27D"/>
<stop offset="0.45" stop-color="#FFD7AB"/>
<stop offset="0.55" stop-color="#FFE8CF"/>
<stop offset="0.64" stop-color="#FFF5E9"/>
<stop offset="0.72" stop-color="#FFFCF9"/>
<stop offset="0.79" stop-color="white"/>
</radialGradient>
<linearGradient id="paint58_linear_5208_511" x1="611.208" y1="966.151" x2="637.162" y2="993.612" gradientUnits="userSpaceOnUse">
<stop stop-color="#FFBDC0"/>
<stop offset="0.07" stop-color="#F3999F"/>
<stop offset="0.17" stop-color="#E6707B"/>
<stop offset="0.28" stop-color="#DB4D5C"/>
<stop offset="0.39" stop-color="#D13143"/>
<stop offset="0.51" stop-color="#CA1B2F"/>
<stop offset="0.64" stop-color="#C50B21"/>
<stop offset="0.79" stop-color="#C20219"/>
<stop offset="1" stop-color="#C20017"/>
</linearGradient>
<linearGradient id="paint59_linear_5208_511" x1="609.611" y1="968.494" x2="635.56" y2="995.959" gradientUnits="userSpaceOnUse">
<stop stop-color="#FFBDC0"/>
<stop offset="0.07" stop-color="#F3999F"/>
<stop offset="0.17" stop-color="#E6707B"/>
<stop offset="0.28" stop-color="#DB4D5C"/>
<stop offset="0.39" stop-color="#D13143"/>
<stop offset="0.51" stop-color="#CA1B2F"/>
<stop offset="0.64" stop-color="#C50B21"/>
<stop offset="0.79" stop-color="#C20219"/>
<stop offset="1" stop-color="#C20017"/>
</linearGradient>
<radialGradient id="paint60_radial_5208_511" cx="0" cy="0" r="1" gradientUnits="userSpaceOnUse" gradientTransform="translate(591.68 1029.74) rotate(-120.03) scale(169.521 19.2692)">
<stop offset="0.06" stop-color="#FF9B82"/>
<stop offset="0.11" stop-color="#F1927B"/>
<stop offset="0.22" stop-color="#CC7C69"/>
<stop offset="0.37" stop-color="#92594D"/>
<stop offset="0.5" stop-color="#593632"/>
<stop offset="1"/>
</radialGradient>
<radialGradient id="paint61_radial_5208_511" cx="0" cy="0" r="1" gradientUnits="userSpaceOnUse" gradientTransform="translate(649.724 992.508) rotate(-120.02) scale(169.521 14.8952)">
<stop offset="0.06" stop-color="#FF9B82"/>
<stop offset="0.11" stop-color="#F1927B"/>
<stop offset="0.22" stop-color="#CC7C69"/>
<stop offset="0.37" stop-color="#92594D"/>
<stop offset="0.5" stop-color="#593632"/>
<stop offset="1"/>
</radialGradient>
<radialGradient id="paint62_radial_5208_511" cx="0" cy="0" r="1" gradientUnits="userSpaceOnUse" gradientTransform="translate(595.076 945.364) rotate(-29.9) scale(10.3507 0.902372)">
<stop offset="0.14" stop-color="white"/>
<stop offset="0.32" stop-color="#4C4C4C"/>
<stop offset="0.91"/>
</radialGradient>
<radialGradient id="paint63_radial_5208_511" cx="0" cy="0" r="1" gradientUnits="userSpaceOnUse" gradientTransform="translate(629.311 1064.4) rotate(-25) scale(50.3599 4.61041)">
<stop offset="0.06" stop-color="#FF9B82"/>
<stop offset="0.1" stop-color="#F1927B"/>
<stop offset="0.18" stop-color="#CC7C69"/>
<stop offset="0.29" stop-color="#92594D"/>
<stop offset="0.39" stop-color="#593632"/>
<stop offset="1"/>
</radialGradient>
<radialGradient id="paint64_radial_5208_511" cx="0" cy="0" r="1" gradientUnits="userSpaceOnUse" gradientTransform="translate(650.846 1054.08) rotate(-29.19) scale(50.3599 4.61042)">
<stop offset="0.06" stop-color="#FF9B82"/>
<stop offset="0.1" stop-color="#F1927B"/>
<stop offset="0.18" stop-color="#CC7C69"/>
<stop offset="0.29" stop-color="#92594D"/>
<stop offset="0.39" stop-color="#593632"/>
<stop offset="1"/>
</radialGradient>
<radialGradient id="paint65_radial_5208_511" cx="0" cy="0" r="1" gradientUnits="userSpaceOnUse" gradientTransform="translate(668.244 1044.39) rotate(-31.94) scale(50.3599 4.61042)">
<stop offset="0.06" stop-color="#FF9B82"/>
<stop offset="0.1" stop-color="#F1927B"/>
<stop offset="0.18" stop-color="#CC7C69"/>
<stop offset="0.29" stop-color="#92594D"/>
<stop offset="0.39" stop-color="#593632"/>
<stop offset="1"/>
</radialGradient>
<radialGradient id="paint66_radial_5208_511" cx="0" cy="0" r="1" gradientUnits="userSpaceOnUse" gradientTransform="translate(682.756 1035.12) rotate(-35.11) scale(50.3599 4.61042)">
<stop offset="0.06" stop-color="#FF9B82"/>
<stop offset="0.1" stop-color="#F1927B"/>
<stop offset="0.18" stop-color="#CC7C69"/>
<stop offset="0.29" stop-color="#92594D"/>
<stop offset="0.39" stop-color="#593632"/>
<stop offset="1"/>
</radialGradient>
<radialGradient id="paint67_radial_5208_511" cx="0" cy="0" r="1" gradientUnits="userSpaceOnUse" gradientTransform="translate(628.239 1048.61) rotate(-30.14) scale(19.8044 224.838)">
<stop stop-color="#670000"/>
<stop offset="0.27" stop-color="#965050"/>
<stop offset="0.53" stop-color="#C29A9A"/>
<stop offset="0.75" stop-color="#E3D0D0"/>
<stop offset="0.91" stop-color="#F7F2F2"/>
<stop offset="1" stop-color="white"/>
</radialGradient>
<radialGradient id="paint68_radial_5208_511" cx="0" cy="0" r="1" gradientUnits="userSpaceOnUse" gradientTransform="translate(702.532 1006.76) rotate(-30.14) scale(19.8044 224.838)">
<stop stop-color="#670000"/>
<stop offset="0.27" stop-color="#965050"/>
<stop offset="0.53" stop-color="#C29A9A"/>
<stop offset="0.75" stop-color="#E3D0D0"/>
<stop offset="0.91" stop-color="#F7F2F2"/>
<stop offset="1" stop-color="white"/>
</radialGradient>
<radialGradient id="paint69_radial_5208_511" cx="0" cy="0" r="1" gradientUnits="userSpaceOnUse" gradientTransform="translate(634.579 1056.33) rotate(-26.22) scale(18.1005 1.3801)">
<stop offset="0.14" stop-color="white"/>
<stop offset="0.32" stop-color="#4C4C4C"/>
<stop offset="0.91"/>
</radialGradient>
<radialGradient id="paint70_radial_5208_511" cx="0" cy="0" r="1" gradientUnits="userSpaceOnUse" gradientTransform="translate(644.28 1051.5) rotate(-28.82) scale(16.6142 1.3801)">
<stop offset="0.14" stop-color="white"/>
<stop offset="0.32" stop-color="#4C4C4C"/>
<stop offset="0.91"/>
</radialGradient>
<radialGradient id="paint71_radial_5208_511" cx="0" cy="0" r="1" gradientUnits="userSpaceOnUse" gradientTransform="translate(663.243 1068.35) rotate(-30.27) scale(18.6844 1.6455)">
<stop offset="0.14" stop-color="white"/>
<stop offset="0.32" stop-color="#4C4C4C"/>
<stop offset="0.91"/>
</radialGradient>
<radialGradient id="paint72_radial_5208_511" cx="0" cy="0" r="1" gradientUnits="userSpaceOnUse" gradientTransform="translate(622.749 993.728) rotate(-32.38) scale(4.83719 0.727723)">
<stop offset="0.14" stop-color="white"/>
<stop offset="0.32" stop-color="#4C4C4C"/>
<stop offset="0.91"/>
</radialGradient>
<radialGradient id="paint73_radial_5208_511" cx="0" cy="0" r="1" gradientUnits="userSpaceOnUse" gradientTransform="translate(624.31 996.436) rotate(-32.38) scale(4.83719 0.727713)">
<stop offset="0.14" stop-color="white"/>
<stop offset="0.32" stop-color="#4C4C4C"/>
<stop offset="0.91"/>
</radialGradient>
<radialGradient id="paint74_radial_5208_511" cx="0" cy="0" r="1" gradientUnits="userSpaceOnUse" gradientTransform="translate(625.399 998.256) rotate(-32.38) scale(4.83719 0.727713)">
<stop offset="0.14" stop-color="white"/>
<stop offset="0.32" stop-color="#4C4C4C"/>
<stop offset="0.91"/>
</radialGradient>
<linearGradient id="paint75_linear_5208_511" x1="591.515" y1="924.137" x2="584.936" y2="911.88" gradientUnits="userSpaceOnUse">
<stop offset="0.05" stop-color="#A8000A"/>
<stop offset="0.19" stop-color="#B6060F"/>
<stop offset="0.52" stop-color="#D4121A"/>
<stop offset="0.8" stop-color="#E61921"/>
<stop offset="1" stop-color="#ED1C24"/>
</linearGradient>
<radialGradient id="paint76_radial_5208_511" cx="0" cy="0" r="1" gradientUnits="userSpaceOnUse" gradientTransform="translate(645.992 881.701) rotate(-64.75) scale(67.5601 94.3512)">
<stop stop-color="#4B0000"/>
<stop offset="0.27" stop-color="#835050"/>
<stop offset="0.53" stop-color="#B79A9A"/>
<stop offset="0.75" stop-color="#DED0D0"/>
<stop offset="0.91" stop-color="#F6F2F2"/>
<stop offset="1" stop-color="white"/>
</radialGradient>
<radialGradient id="paint77_radial_5208_511" cx="0" cy="0" r="1" gradientUnits="userSpaceOnUse" gradientTransform="translate(525.666 951.977) rotate(-175.25) scale(67.5601 94.3512)">
<stop stop-color="#4B0000"/>
<stop offset="0.27" stop-color="#835050"/>
<stop offset="0.53" stop-color="#B79A9A"/>
<stop offset="0.75" stop-color="#DED0D0"/>
<stop offset="0.91" stop-color="#F6F2F2"/>
<stop offset="1" stop-color="white"/>
</radialGradient>
<radialGradient id="paint78_radial_5208_511" cx="0" cy="0" r="1" gradientUnits="userSpaceOnUse" gradientTransform="translate(555.435 986.44) rotate(-120.03) scale(169.521 20.6878)">
<stop offset="0.06" stop-color="#FF9B82"/>
<stop offset="0.11" stop-color="#F1927B"/>
<stop offset="0.22" stop-color="#CC7C69"/>
<stop offset="0.37" stop-color="#92594D"/>
<stop offset="0.5" stop-color="#593632"/>
<stop offset="1"/>
</radialGradient>
<radialGradient id="paint79_radial_5208_511" cx="0" cy="0" r="1" gradientUnits="userSpaceOnUse" gradientTransform="translate(604.698 957.851) rotate(-120.03) scale(169.521 20.6878)">
<stop offset="0.06" stop-color="#FF9B82"/>
<stop offset="0.11" stop-color="#F1927B"/>
<stop offset="0.22" stop-color="#CC7C69"/>
<stop offset="0.37" stop-color="#92594D"/>
<stop offset="0.5" stop-color="#593632"/>
<stop offset="1"/>
</radialGradient>
<radialGradient id="paint80_radial_5208_511" cx="0" cy="0" r="1" gradientUnits="userSpaceOnUse" gradientTransform="translate(549.577 911.259) rotate(-31.63) scale(11.5185 0.90237)">
<stop offset="0.14" stop-color="white"/>
<stop offset="0.32" stop-color="#4C4C4C"/>
<stop offset="0.91"/>
</radialGradient>
<radialGradient id="paint81_radial_5208_511" cx="0" cy="0" r="1" gradientUnits="userSpaceOnUse" gradientTransform="translate(553.861 908.609) rotate(-31.63) scale(11.5185 0.902374)">
<stop offset="0.14" stop-color="white"/>
<stop offset="0.32" stop-color="#4C4C4C"/>
<stop offset="0.91"/>
</radialGradient>
<radialGradient id="paint82_radial_5208_511" cx="0" cy="0" r="1" gradientUnits="userSpaceOnUse" gradientTransform="translate(555.916 914.921) rotate(-31.63) scale(11.5185 0.90237)">
<stop offset="0.14" stop-color="white"/>
<stop offset="0.32" stop-color="#4C4C4C"/>
<stop offset="0.91"/>
</radialGradient>
<radialGradient id="paint83_radial_5208_511" cx="0" cy="0" r="1" gradientUnits="userSpaceOnUse" gradientTransform="translate(603.584 880.007) rotate(151.63) scale(11.5185 0.90237)">
<stop offset="0.14" stop-color="white"/>
<stop offset="0.32" stop-color="#4C4C4C"/>
<stop offset="0.91"/>
</radialGradient>
<radialGradient id="paint84_radial_5208_511" cx="0" cy="0" r="1" gradientUnits="userSpaceOnUse" gradientTransform="translate(599.147 882.394) rotate(151.63) scale(11.5185 0.902374)">
<stop offset="0.14" stop-color="white"/>
<stop offset="0.32" stop-color="#4C4C4C"/>
<stop offset="0.91"/>
</radialGradient>
<radialGradient id="paint85_radial_5208_511" cx="0" cy="0" r="1" gradientUnits="userSpaceOnUse" gradientTransform="translate(603.984 887.095) rotate(151.63) scale(11.5185 0.90237)">
<stop offset="0.14" stop-color="white"/>
<stop offset="0.32" stop-color="#4C4C4C"/>
<stop offset="0.91"/>
</radialGradient>
</defs>
</svg>
