<svg width="117" height="117" viewBox="0 0 117 117" fill="none" xmlns="http://www.w3.org/2000/svg">
<g clip-path="url(#clip0_4647_612)">
<path d="M117 101.232V117H0V91.6339C5.74945 90.4097 11.5263 89.0359 17.3245 88.0499C34.7618 85.0886 51.7451 85.5191 69.0148 89.2313C85.0566 92.681 101.013 97.4893 117 101.232Z" fill="#3E1A51"/>
<path d="M117 39.9896V40.4476C115.894 41.2016 114.194 45.3748 113.344 45.8358C112.942 46.0526 110.833 44.3705 110.254 44.1049C110.181 44.0804 109.913 44.6422 109.913 44.6727V63.298L98.2589 63.9849V57.7022C98.2589 54.1792 94.8738 50.2838 91.5862 49.2916C85.7057 47.5179 79.0635 51.8224 79.0635 58.1571V64.8977L67.4092 65.5846V43.8759C66.7907 44.1751 64.4568 46.0892 63.9815 45.8358C63.7042 45.6893 60.8859 41.2077 60.5355 40.5758C60.4258 40.3773 60.1912 40.2339 60.4258 39.9866L88.7739 22.0176L116.997 39.9896H117Z" fill="#CD0201"/>
<path d="M117 69.6953V94.1485L61.9277 81.1221V72.4398L117 69.6953Z" fill="#3E1A51"/>
<path d="M21.2519 0C29.0549 1.75843 33.5338 9.92478 30.0543 17.3737C28.4334 20.8448 24.5364 23.8427 20.676 24.2212C6.21251 25.6347 1.50814 6.54834 14.3995 0.802896L16.9101 0H21.2519Z" fill="#3E1A51"/>
<path d="M0 75.6411L5.94141 75.4121V83.6364L0 84.7813V75.6411Z" fill="#3E1A51"/>
<path d="M55.3006 60.3278V80.2079L43.6311 79.4233C42.8937 74.7494 44.6152 70.7258 41.2484 66.7235C35.6787 60.105 25.17 63.7653 24.454 72.3285C24.3565 73.5069 24.6947 80.0278 24.2377 80.3392L12.5682 82.0366V60.3278C11.7821 60.5415 9.75285 62.4404 9.14043 62.0527C8.44574 61.61 6.71512 57.678 5.82848 56.8903L5.81934 56.2126L33.9359 38.4023L62.0525 56.2126C62.2627 56.4599 62.1347 56.643 62.0403 56.8873C61.8727 57.3116 58.9903 61.8878 58.7314 62.0527C58.1189 62.4434 56.0897 60.5415 55.3036 60.3278H55.3006Z" fill="#CD0201"/>
<path d="M36.791 79.5242C35.4595 79.5609 34.1159 79.4785 32.7813 79.512C32.4218 79.5212 31.0781 79.9852 31.0781 79.4082V72.5516C31.0781 71.4037 32.7996 70.036 33.9696 70.0024C34.9842 69.975 36.791 71.0923 36.791 72.0936V79.5212V79.5242Z" fill="#3E1A51"/>
<path d="M91.4062 64.2137C91.1808 64.1405 90.9096 64.4427 90.8334 64.4427H86.2631C86.193 64.4427 86.0864 64.7327 85.9219 64.6717V57.4731C85.9219 56.6152 87.686 55.5528 88.5574 55.5223C89.505 55.4887 91.4062 56.487 91.4062 57.4731V64.2137Z" fill="#3E1A51"/>
</g>
<defs>
<clipPath id="clip0_4647_612">
<rect width="117" height="117" fill="white"/>
</clipPath>
</defs>
</svg>
