<svg width="958" height="13" viewBox="0 0 958 13" fill="none" xmlns="http://www.w3.org/2000/svg">
<g clip-path="url(#clip0_4538_568)">
<path d="M328.21 0H392.04L401.07 12.42H337.25L328.21 0Z" fill="white"/>
<path d="M260.24 0H309.6L318.63 12.42H269.27L260.24 0Z" fill="white"/>
<path d="M193.79 0H243.15L252.18 12.42H202.82L193.79 0Z" fill="white"/>
<path d="M129.14 0H178.5L187.54 12.42H138.18L129.14 0Z" fill="white"/>
<path d="M61.9297 0H111.29L120.33 12.42H70.9597L61.9297 0Z" fill="white"/>
<path d="M-4 0H45.36L54.4 12.42H5.04L-4 0Z" fill="white"/>
<path d="M460.54 0H409.37L418.84 12.42H469.08L460.54 0Z" fill="white"/>
<path d="M816.7 0H880.53L889.56 12.42H825.74L816.7 0Z" fill="white"/>
<path d="M748.73 0H798.091L807.12 12.42H757.76L748.73 0Z" fill="white"/>
<path d="M682.28 0H731.64L740.67 12.42H691.31L682.28 0Z" fill="white"/>
<path d="M617.63 0H666.99L676.03 12.42H626.67L617.63 0Z" fill="white"/>
<path d="M550.42 0H599.78L608.82 12.42H559.46L550.42 0Z" fill="white"/>
<path d="M484.49 0H533.85L542.89 12.42H493.53L484.49 0Z" fill="white"/>
<path d="M949.03 0H897.86L907.34 12.42H957.57L949.03 0Z" fill="white"/>
</g>
<defs>
<clipPath id="clip0_4538_568">
<rect width="961.57" height="12.42" fill="white" transform="translate(-4)"/>
</clipPath>
</defs>
</svg>
