<svg width="94" height="114" viewBox="0 0 94 114" fill="none" xmlns="http://www.w3.org/2000/svg">
<g clip-path="url(#clip0_4647_600)">
<path d="M61.0699 28.3008V55.1832H41.1501C40.0826 55.1832 38.0398 57.5068 38.0398 58.5135V84.3615H5.57129V28.3008H61.0699ZM15.6435 35.2501C14.5298 35.4526 14.4068 35.8578 14.3114 36.9076C14.0591 39.6793 13.9976 46.1682 14.3175 48.8693C14.3945 49.5261 14.5637 50.0142 15.2282 50.2567C27.3277 50.3795 39.498 50.5207 51.5668 50.183L52.2744 49.5077L52.3236 36.6804C52.3021 36.0481 52.0252 35.511 51.413 35.293L15.6466 35.247L15.6435 35.2501Z" fill="#3E1A51"/>
<path d="M38.0398 87.3477V90.9082C38.0398 92.136 40.3748 94.2386 41.6085 94.2386H61.0668V104.349H5.57129V87.3477H38.0398Z" fill="#3E1A51"/>
<path d="M59.9191 15.4323H6.72168C7.04778 14.3979 7.83227 13.3389 8.47524 12.4703C18.129 -0.630214 36.7322 -3.94524 50.3668 5.08513C54.1939 7.62051 57.9441 11.267 59.916 15.4323H59.9191Z" fill="#3E1A51"/>
<path d="M2.97822 18.476L63.2545 18.4238C67.8661 18.8904 67.6415 24.839 63.4883 25.3148H3.38431C-1.04881 24.8175 -1.06419 19.1513 2.97822 18.476Z" fill="#3E1A51"/>
<path d="M66.3642 114H0.273438V108.601C0.273438 108.229 1.40556 107.051 1.987 107.324H64.8783C65.3674 107.158 66.3642 108.325 66.3642 108.601V114Z" fill="#3E1A51"/>
<path d="M90.7764 58.1699L67.5986 76.5223L44.2578 58.1699H90.7764Z" fill="#CD0201"/>
<path d="M45.4113 91.2561L62.8484 77.2747C63.9682 76.9616 66.0264 80.1201 67.6323 80.0188C68.9274 79.9359 71.0625 77.1396 71.9946 77.2286L89.6225 91.2561H45.4082H45.4113Z" fill="#CD0201"/>
<path d="M93.9998 90.3339L74.4307 75.0541L93.9998 59.7773V90.3339Z" fill="#CD0201"/>
<path d="M41.0361 90.3341V60.0078L60.6052 75.0543L41.0361 90.3341Z" fill="#CD0201"/>
<path d="M49.3245 38.1777V47.3677H17.3174V38.5215C17.3174 38.497 17.6373 38.1777 17.6619 38.1777H49.3245ZM21.3998 41.2196C19.0648 41.637 19.5447 44.3627 21.8059 44.3811C29.1031 43.7826 37.6925 45.1823 44.8329 44.3811C47.5278 44.0803 47.3771 41.3823 44.8329 41.1643L21.3998 41.2196Z" fill="#3E1A51"/>
</g>
<defs>
<clipPath id="clip0_4647_600">
<rect width="94" height="114" fill="white"/>
</clipPath>
</defs>
</svg>
