<svg width="92" height="92" viewBox="0 0 92 92" fill="none" xmlns="http://www.w3.org/2000/svg">
<mask id="mask0_7717_514" style="mask-type:alpha" maskUnits="userSpaceOnUse" x="0" y="0" width="92" height="92">
<rect width="92" height="92" fill="#B3CDFF"/>
</mask>
<g mask="url(#mask0_7717_514)">
<path d="M67.8684 11.007C69.086 11.294 70.3391 11.462 71.5068 11.889C78.9615 14.5981 82.6782 22.2772 80.2716 29.8794C79.0612 33.7085 76.8896 36.9985 74.2053 39.9386C72.3042 42.0176 70.1967 43.9287 68.1248 45.8537C67.0923 46.8127 66.0884 46.7637 64.999 45.8607C60.7982 42.3676 57.0958 38.4546 54.4684 33.6525C53.0017 30.9644 52.0903 28.1153 52.1117 25.0283C52.1687 17.9581 57.6654 11.952 64.8068 11.119C64.9634 11.098 65.113 11.042 65.2625 11C66.1311 11 66.9998 11 67.8684 11V11.007ZM66.5868 18.1331C62.5782 18.1191 59.3528 21.2762 59.3457 25.2173C59.3457 29.1304 62.5355 32.2944 66.5014 32.3224C70.5171 32.3434 73.7567 29.2004 73.771 25.2733C73.7923 21.3252 70.5883 18.1541 66.5868 18.1401V18.1331Z" fill="url(#paint0_linear_7717_514)"/>
<path d="M11 57.6075C11.1708 56.7772 11.2988 55.9325 11.5265 55.1166C13.3266 48.4888 19.3886 44.0052 26.0554 44.3518C32.957 44.7128 38.4997 49.6656 39.6736 56.5317C40.3425 60.4521 39.3962 64.0765 37.6174 67.5132C34.9564 72.6393 31.1356 76.7836 26.7812 80.4585C25.9629 81.1516 24.9882 81.1877 24.1984 80.5162C19.3602 76.4298 15.0983 71.8451 12.5582 65.8959C11.8609 64.2643 11.5905 62.4448 11.121 60.7121C11.0925 60.6038 11.0498 60.5027 11.0071 60.3944C11.0071 59.4702 11.0071 58.5389 11.0071 57.6147L11 57.6075ZM25.3511 66.3003C29.2074 66.3941 32.5515 63.1741 32.6511 59.2609C32.7578 55.1094 29.613 51.7305 25.5716 51.6439C21.6228 51.5572 18.3285 54.7701 18.2431 58.7916C18.1506 62.8997 21.2741 66.1992 25.3511 66.3003Z" fill="url(#paint1_linear_7717_514)"/>
<path d="M53.9136 80.9516C48.2561 80.9516 42.5986 80.9516 36.941 80.9516C35.7496 80.9516 35.45 80.6478 35.45 79.4254C35.45 78.8901 35.4357 78.3548 35.4571 77.8268C35.4856 77.1613 35.8352 76.8069 36.4844 76.7635C36.7127 76.7491 36.941 76.7635 37.1693 76.7635C48.2275 76.7635 59.2929 76.7635 70.3511 76.7635C73.7327 76.7635 76.2369 74.608 76.7577 71.2807C77.2785 67.9534 74.7244 64.5754 71.4141 64.2427C70.9147 64.1921 70.4081 64.1704 69.9087 64.1704C64.7078 64.1704 59.514 64.1704 54.3131 64.1704C48.8197 64.1704 44.639 60.532 43.7971 55.0492C42.9695 49.6459 46.9576 44.1197 52.3298 43.3819C53.9065 43.1649 55.5259 43.2445 57.124 43.2228C57.7661 43.2155 58.1371 43.6206 58.1656 44.2716C58.1942 44.9226 58.187 45.5736 58.1656 46.2246C58.1442 47.0275 57.7733 47.3819 56.9599 47.4036C55.633 47.4398 54.2917 47.3457 52.9861 47.541C49.8399 48.004 47.6354 50.919 47.8494 54.1595C48.0563 57.2987 50.6033 59.9027 53.7424 59.9461C59.2857 60.0257 64.8291 59.9823 70.3653 59.9823C73.4045 59.9823 76.0514 61.0022 78.0989 63.2879C81.0525 66.579 81.8088 70.4127 80.1037 74.5212C78.3986 78.6225 75.181 80.8359 70.7934 80.9371C65.1644 81.0601 59.5283 80.9661 53.8922 80.9661L53.9136 80.9516Z" fill="url(#paint2_linear_7717_514)"/>
<path d="M24.7915 66.5538C20.7126 66.4542 17.5822 63.2032 17.6677 59.1554C17.7533 55.2001 21.062 52.0345 25.0126 52.1127C29.0629 52.1981 32.2148 55.5274 32.1078 59.6178C32.008 63.4664 28.6565 66.6463 24.7915 66.5538ZM21.7965 59.3262C21.7965 61.0548 23.1443 62.4136 24.8771 62.4136C26.5956 62.4136 27.9862 61.0477 27.9862 59.3404C27.9862 57.6473 26.5885 56.2388 24.8985 56.2317C23.2013 56.2245 21.8037 57.6188 21.8037 59.3262H21.7965Z" fill="white"/>
<path d="M66.579 22.1114C68.4223 22.119 69.897 23.6167 69.8893 25.4677C69.8816 27.3033 68.3763 28.7932 66.533 28.7779C64.6973 28.7702 63.215 27.2649 63.2227 25.4139C63.2304 23.5706 64.7281 22.1037 66.579 22.1114Z" fill="url(#paint3_linear_7717_514)"/>
<path d="M22.1177 59.3366C22.1177 57.8023 23.3722 56.5493 24.8955 56.5557C26.4188 56.5621 27.6733 57.8279 27.6669 59.3494C27.6669 60.8838 26.4188 62.1112 24.8763 62.1112C23.3274 62.1112 22.1113 60.8838 22.1113 59.3366H22.1177Z" fill="url(#paint4_linear_7717_514)"/>
</g>
<defs>
<linearGradient id="paint0_linear_7717_514" x1="66.5558" y1="11" x2="66.5558" y2="46.5556" gradientUnits="userSpaceOnUse">
<stop stop-color="#25377A"/>
<stop offset="1" stop-color="#B658E8"/>
</linearGradient>
<linearGradient id="paint1_linear_7717_514" x1="25.4444" y1="44.333" x2="25.4444" y2="80.9997" gradientUnits="userSpaceOnUse">
<stop stop-color="#25377A"/>
<stop offset="1" stop-color="#B658E8"/>
</linearGradient>
<linearGradient id="paint2_linear_7717_514" x1="58.2231" y1="43.2227" x2="58.2231" y2="81.0004" gradientUnits="userSpaceOnUse">
<stop stop-color="#25377A"/>
<stop offset="1" stop-color="#B658E8"/>
</linearGradient>
<linearGradient id="paint3_linear_7717_514" x1="66.556" y1="22.1113" x2="66.556" y2="28.778" gradientUnits="userSpaceOnUse">
<stop stop-color="#25377A"/>
<stop offset="1" stop-color="#B658E8"/>
</linearGradient>
<linearGradient id="paint4_linear_7717_514" x1="24.8891" y1="56.5557" x2="24.8891" y2="62.1112" gradientUnits="userSpaceOnUse">
<stop stop-color="#25377A"/>
<stop offset="1" stop-color="#B658E8"/>
</linearGradient>
</defs>
</svg>
