<svg width="92" height="92" viewBox="0 0 92 92" fill="none" xmlns="http://www.w3.org/2000/svg">
<mask id="mask0_7717_512" style="mask-type:alpha" maskUnits="userSpaceOnUse" x="0" y="0" width="92" height="92">
<rect width="92" height="92" fill="#B3CDFF"/>
</mask>
<g mask="url(#mask0_7717_512)">
</g>
<g clip-path="url(#clip0_7717_512)">
<path d="M11 52.1221H55.1013V74.6684H36.6736C36.5152 71.7871 35.3395 69.393 32.9047 67.7088C31.2704 66.5778 29.436 66.1402 27.4348 66.2228C24.0661 66.3631 19.6385 69.1618 19.38 74.6766C19.2049 74.6931 19.0298 74.7344 18.8463 74.7344C17.2704 74.7344 15.6945 74.7509 14.1185 74.7344C12.1007 74.7096 11 73.5869 11 71.5807C11 65.3394 11 59.0981 11 52.8568C11 52.6257 11 52.3945 11 52.1221Z" fill="url(#paint0_linear_7717_512)"/>
<path d="M11.0074 45.9626C11.0074 41.876 10.9824 37.8473 11.0241 33.8185C11.0408 32.5224 12.1331 31.4656 13.4422 31.3005C13.7424 31.2592 14.0509 31.251 14.3594 31.251C26.8502 31.251 39.341 31.251 51.8317 31.251C52.6239 31.251 53.3827 31.3335 54.0331 31.8371C54.7418 32.3903 55.142 33.125 55.1504 34.0001C55.1671 37.9133 55.1504 41.8265 55.1504 45.7397C55.1504 45.8058 55.117 45.8718 55.092 45.9709H11.0074V45.9626Z" fill="url(#paint1_linear_7717_512)"/>
<path d="M57.4355 40.2417C57.7441 40.2417 58.0026 40.2417 58.2527 40.2417C62.6303 40.2417 66.9996 40.2747 71.3772 40.2251C73.3951 40.2004 74.6791 41.026 75.4463 42.8917C77.1139 46.937 78.89 50.941 80.5827 54.9781C80.8328 55.5807 80.9746 56.2742 80.9746 56.9347C81.0079 61.9871 80.9912 67.0396 80.9912 72.0921C80.9912 73.9992 80.2408 74.7339 78.2896 74.7422C77.9644 74.7422 77.6392 74.7422 77.2557 74.7422C77.1306 71.8692 75.9966 69.5576 73.7036 67.8652C72.1276 66.6929 70.3266 66.1563 68.3587 66.2223C66.0407 66.2966 64.0645 67.1717 62.4552 68.8063C60.8542 70.4245 60.0788 72.4058 60.0037 74.6927H57.4355V40.2499V40.2417ZM68.4921 55.4239C70.535 55.4239 72.5862 55.4239 74.6291 55.4239C75.7048 55.4239 75.9299 55.0689 75.513 54.0782C74.3289 51.296 73.1115 48.5221 71.9525 45.7234C71.5856 44.8401 70.9936 44.4851 70.0514 44.5016C67.5082 44.5264 64.9734 44.5016 62.4302 44.5099C61.0877 44.5099 60.6124 44.9887 60.6124 46.3344C60.6124 48.7533 60.6124 51.1804 60.6124 53.5994C60.6124 54.9781 61.071 55.4156 62.4886 55.4239C64.4897 55.4239 66.4826 55.4239 68.4838 55.4239H68.4921Z" fill="url(#paint2_linear_7717_512)"/>
<path d="M76.9559 40.8199C76.0971 39.3917 74.8213 38.5331 73.2287 38.1285C73.3371 37.2452 73.5038 36.4031 73.5455 35.5528C73.829 30.5663 70.7856 26.0752 66.0327 24.4076C61.3216 22.7565 56.0518 24.4076 53.1334 28.4529C52.8415 28.8574 52.5497 29.0308 52.0411 29.0225C50.6069 28.9895 49.181 29.0143 47.5801 29.0143C49.748 24.2507 53.2084 21.1548 58.1614 19.7844C64.3484 18.0755 70.969 20.3458 74.9047 25.4148C78.7236 30.3352 78.882 36.7086 76.9476 40.8199H76.9559Z" fill="url(#paint3_linear_7717_512)"/>
<path d="M28.0182 68.4434C31.537 68.4434 34.4137 71.2833 34.3804 74.7424C34.3553 78.2016 31.5203 80.9838 28.0349 80.992C24.5078 81.0003 21.6811 78.1933 21.6895 74.6929C21.7061 71.2173 24.5078 68.4434 28.0099 68.4434H28.0182ZM28.0182 71.5805C26.2672 71.5805 24.833 73.0253 24.8497 74.7507C24.8664 76.4844 26.3256 77.8879 28.0766 77.8631C29.8026 77.8383 31.1868 76.4431 31.1951 74.7259C31.1951 72.9757 29.7776 71.5723 28.0182 71.5805Z" fill="url(#paint4_linear_7717_512)"/>
<path d="M74.9705 74.7592C74.9538 78.2348 72.1438 81.0005 68.6334 81.0005C65.1146 81.0005 62.2462 78.144 62.2796 74.6931C62.3129 71.201 65.1896 68.4023 68.7001 68.4518C72.2188 68.5014 74.9871 71.2918 74.9621 74.7592H74.9705ZM65.4648 74.7344C65.4648 76.4764 66.9073 77.8798 68.6667 77.8633C70.3844 77.8468 71.8019 76.4433 71.8103 74.7427C71.8186 73.0172 70.3844 71.5807 68.6334 71.5807C66.874 71.5807 65.4565 72.9924 65.4648 74.7344Z" fill="url(#paint5_linear_7717_512)"/>
<path d="M65.6816 14.1373V17.1423H58.9192V14.1373C58.494 14.1373 58.1271 14.1455 57.7685 14.1373C56.8096 14.1043 56.1426 13.4603 56.1426 12.5687C56.1426 11.7018 56.7679 11.0249 57.7018 11.0166C60.7537 10.9919 63.8055 10.9919 66.8573 11.0166C67.8245 11.0166 68.4666 11.7184 68.4416 12.61C68.4166 13.4686 67.7662 14.096 66.8406 14.129C66.4904 14.1455 66.1402 14.129 65.6816 14.129V14.1373Z" fill="url(#paint6_linear_7717_512)"/>
<path d="M32.3623 23.895C34.9221 23.895 37.4903 23.895 40.0502 23.895C40.6005 23.895 41.0925 24.0767 41.1842 24.6215C41.2426 25.0013 41.1258 25.5214 40.884 25.7938C40.6672 26.0333 40.1669 26.1076 39.7917 26.1158C37.4653 26.1406 35.1389 26.1323 32.8126 26.1323C30.2277 26.1323 27.6428 26.1323 25.0579 26.1323C24.7995 26.1323 24.5326 26.1323 24.2908 26.0745C23.6821 25.9259 23.3653 25.5297 23.4153 24.9022C23.4653 24.2831 23.8489 23.9281 24.4743 23.9033C25.2747 23.8785 26.0752 23.895 26.8757 23.895C28.7101 23.895 30.5445 23.895 32.379 23.895H32.3623Z" fill="url(#paint7_linear_7717_512)"/>
<path d="M28.2022 18.166C30.2951 18.166 32.388 18.166 34.481 18.166C35.3565 18.166 35.8318 18.5458 35.8484 19.2227C35.8735 19.9327 35.3732 20.3868 34.4893 20.3951C30.3035 20.4033 26.1176 20.4033 21.9402 20.3951C21.048 20.3951 20.556 19.9575 20.5727 19.2393C20.5894 18.554 21.0563 18.166 21.9235 18.166C24.0164 18.166 26.1093 18.166 28.2022 18.166Z" fill="url(#paint8_linear_7717_512)"/>
<path d="M33.556 12.4365C35.5072 12.4365 37.4584 12.4365 39.4095 12.4365C40.3184 12.4365 40.802 12.8328 40.7937 13.551C40.7853 14.2363 40.2934 14.6573 39.4512 14.6656C35.4822 14.6738 31.5048 14.6738 27.5358 14.6656C26.6936 14.6656 26.2183 14.2198 26.2267 13.5263C26.2267 12.8328 26.702 12.4448 27.5691 12.4448C29.5703 12.4448 31.5632 12.4448 33.5644 12.4448L33.556 12.4365Z" fill="url(#paint9_linear_7717_512)"/>
<path d="M63.4321 33.8431C64.7579 33.8431 65.9919 33.8431 67.2343 33.8431C67.4678 33.8431 67.7013 33.8265 67.9348 33.8431C68.5685 33.9008 68.9937 34.3219 69.0104 34.9163C69.0271 35.5355 68.6018 36.0473 67.9348 36.0556C66.0336 36.0803 64.1325 36.0886 62.2314 36.0556C61.6227 36.0473 61.2058 35.651 61.1891 35.0319C61.1557 33.1743 61.1557 31.3168 61.1891 29.4593C61.1974 28.8401 61.7227 28.4108 62.2981 28.4191C62.8734 28.4191 63.3654 28.8484 63.3904 29.484C63.4321 30.4087 63.4154 31.3416 63.4154 32.2745C63.4154 32.7616 63.4154 33.2486 63.4154 33.8513L63.4321 33.8431Z" fill="url(#paint10_linear_7717_512)"/>
</g>
<defs>
<linearGradient id="paint0_linear_7717_512" x1="33.0506" y1="52.1221" x2="33.0506" y2="74.7417" gradientUnits="userSpaceOnUse">
<stop stop-color="#25377A"/>
<stop offset="1" stop-color="#B658E8"/>
</linearGradient>
<linearGradient id="paint1_linear_7717_512" x1="33.0789" y1="31.251" x2="33.0789" y2="45.9709" gradientUnits="userSpaceOnUse">
<stop stop-color="#25377A"/>
<stop offset="1" stop-color="#B658E8"/>
</linearGradient>
<linearGradient id="paint2_linear_7717_512" x1="69.2155" y1="40.2246" x2="69.2155" y2="74.7422" gradientUnits="userSpaceOnUse">
<stop stop-color="#25377A"/>
<stop offset="1" stop-color="#B658E8"/>
</linearGradient>
<linearGradient id="paint3_linear_7717_512" x1="62.8721" y1="19.2217" x2="62.8721" y2="40.8199" gradientUnits="userSpaceOnUse">
<stop stop-color="#25377A"/>
<stop offset="1" stop-color="#B658E8"/>
</linearGradient>
<linearGradient id="paint4_linear_7717_512" x1="28.0351" y1="68.4434" x2="28.0351" y2="80.992" gradientUnits="userSpaceOnUse">
<stop stop-color="#25377A"/>
<stop offset="1" stop-color="#B658E8"/>
</linearGradient>
<linearGradient id="paint5_linear_7717_512" x1="68.6249" y1="68.4512" x2="68.6249" y2="81.0005" gradientUnits="userSpaceOnUse">
<stop stop-color="#25377A"/>
<stop offset="1" stop-color="#B658E8"/>
</linearGradient>
<linearGradient id="paint6_linear_7717_512" x1="62.2924" y1="10.998" x2="62.2924" y2="17.1423" gradientUnits="userSpaceOnUse">
<stop stop-color="#25377A"/>
<stop offset="1" stop-color="#B658E8"/>
</linearGradient>
<linearGradient id="paint7_linear_7717_512" x1="32.3046" y1="23.8896" x2="32.3046" y2="26.1337" gradientUnits="userSpaceOnUse">
<stop stop-color="#25377A"/>
<stop offset="1" stop-color="#B658E8"/>
</linearGradient>
<linearGradient id="paint8_linear_7717_512" x1="28.2108" y1="18.166" x2="28.2108" y2="20.4012" gradientUnits="userSpaceOnUse">
<stop stop-color="#25377A"/>
<stop offset="1" stop-color="#B658E8"/>
</linearGradient>
<linearGradient id="paint9_linear_7717_512" x1="33.5102" y1="12.4365" x2="33.5102" y2="14.6718" gradientUnits="userSpaceOnUse">
<stop stop-color="#25377A"/>
<stop offset="1" stop-color="#B658E8"/>
</linearGradient>
<linearGradient id="paint10_linear_7717_512" x1="65.0875" y1="28.4189" x2="65.0875" y2="36.0774" gradientUnits="userSpaceOnUse">
<stop stop-color="#25377A"/>
<stop offset="1" stop-color="#B658E8"/>
</linearGradient>
<clipPath id="clip0_7717_512">
<rect width="70" height="70" fill="white" transform="translate(11 11)"/>
</clipPath>
</defs>
</svg>
