<svg width="92" height="92" viewBox="0 0 92 92" fill="none" xmlns="http://www.w3.org/2000/svg">
<mask id="mask0_7717_516" style="mask-type:alpha" maskUnits="userSpaceOnUse" x="0" y="0" width="92" height="92">
<rect width="92" height="92" fill="#B3CDFF"/>
</mask>
<g mask="url(#mask0_7717_516)">
<path d="M39.8353 69.8769C43.103 59.1506 33.5238 48.7014 22.123 51.4087V28.8242H77.9523V39.3605C75.3318 39.3605 72.7433 39.3367 70.1547 39.3763C69.2679 39.3921 68.3731 39.4634 67.5103 39.6613C62.6288 40.7695 59.1854 45.4875 59.7367 50.2609C60.3439 55.5725 64.4983 59.4277 69.6994 59.4831C72.168 59.5068 74.6367 59.4831 77.1054 59.4831C77.3771 59.4831 77.6487 59.4831 77.9523 59.4831C77.9763 59.6493 78.0002 59.7443 78.0002 59.8393C78.0002 63.164 78.0002 66.4888 78.0002 69.8689H39.8433L39.8353 69.8769Z" fill="url(#paint0_linear_7717_516)"/>
<path d="M25.5558 53.9121C32.4291 53.8962 38.0637 59.4925 38.0876 66.352C38.1116 73.3075 32.557 78.9758 25.6917 78.9998C18.6106 79.0158 13 73.4514 13 66.408C13 59.5165 18.6106 53.9281 25.5558 53.9121ZM26.0034 64.7771C25.7077 65.9523 24.7326 66.7118 23.4778 66.7518C22.6626 66.7758 21.8474 66.7758 21.0322 66.7518C20.4887 66.7438 19.9852 66.8157 19.7614 67.3834C19.5456 67.935 19.8254 68.3427 20.225 68.7265C22.287 70.6612 24.341 72.604 26.395 74.5467C27.0264 75.1463 27.6738 75.2023 28.1293 74.7226C28.6009 74.2269 28.5209 73.6273 27.8736 73.0037C26.6028 71.7885 25.324 70.5813 24.0533 69.3661C23.8854 69.2062 23.7336 69.0303 23.5178 68.8064C26.1233 68.5186 27.6738 67.1435 28.3771 64.7771C28.9285 64.7771 29.44 64.7931 29.9435 64.7771C30.6549 64.7451 31.0784 64.3294 31.0705 63.6978C31.0705 63.0662 30.6469 62.6744 29.9196 62.6504C29.3921 62.6345 28.8646 62.6504 28.3851 62.6504C28.1133 62.0109 27.8736 61.4512 27.6018 60.8116C28.3691 60.8116 29.0724 60.8116 29.7837 60.8116C30.6229 60.8037 31.0784 60.4279 31.0784 59.7483C31.0784 59.0688 30.6309 58.685 29.7917 58.677C26.8665 58.677 23.9334 58.677 21.0082 58.677C20.161 58.677 19.7135 59.0528 19.7055 59.7324C19.6975 60.4119 20.1451 60.8037 20.9842 60.8116C21.8234 60.8196 22.6626 60.7957 23.5018 60.8276C24.7086 60.8676 25.6837 61.5791 25.9874 62.6504C25.7236 62.6504 25.4759 62.6504 25.2281 62.6504C23.7735 62.6504 22.3269 62.6345 20.8724 62.6504C20.0092 62.6584 19.4977 63.322 19.7614 64.0655C19.9612 64.6252 20.4088 64.7931 20.9763 64.7931C22.6546 64.7851 24.325 64.7931 26.0194 64.7931L26.0034 64.7771Z" fill="url(#paint1_linear_7717_516)"/>
<path d="M78.0001 42.5088C78.0001 47.8417 78.0001 53.1109 78.0001 58.3722C77.9606 58.4041 77.9211 58.4598 77.8816 58.4598C74.7613 58.42 71.6252 58.5951 68.5365 58.2847C64.8316 57.9026 62.0273 54.3049 62.0352 50.4843C62.0352 46.6876 64.8395 43.2888 68.4812 42.668C68.9235 42.5884 69.3817 42.5247 69.832 42.5247C72.5257 42.5088 75.2194 42.5247 78.0001 42.5247V42.5088ZM72.6047 50.4445C72.5889 48.1521 70.7009 46.2896 68.4417 46.3214C66.1982 46.3533 64.405 48.2078 64.4129 50.4922C64.4208 52.7766 66.2377 54.6073 68.4891 54.6073C70.7799 54.6073 72.6205 52.7448 72.6047 50.4445Z" fill="url(#paint2_linear_7717_516)"/>
<path d="M36.9473 27.6842C41.1776 23.1311 45.3925 18.5948 49.6616 14C53.8145 18.5948 58.0061 23.2312 62.035 27.6842H36.9473Z" fill="url(#paint3_linear_7717_516)"/>
<path d="M66.5971 27.6842C66.2441 27.5398 65.8995 27.5058 65.7062 27.302C62.5793 24.1166 59.4777 20.9058 56.334 17.6695C59.671 16.4803 63.092 15.2487 66.5971 14V27.6842Z" fill="url(#paint4_linear_7717_516)"/>
<path d="M28.9648 27.5218C30.8549 26.8224 32.7449 26.123 34.6666 25.4033C33.8837 27.1164 33.1324 27.684 31.7169 27.684C30.8628 27.684 30.0087 27.684 29.1546 27.684C29.1072 27.684 29.0597 27.6638 29.0044 27.6536C28.9886 27.6029 28.9728 27.5624 28.9648 27.5117V27.5218Z" fill="url(#paint5_linear_7717_516)"/>
<path d="M70.0098 50.451C69.9961 49.2226 69.2194 48.2109 68.2995 48.2109C67.3456 48.2109 66.5757 49.2587 66.5961 50.5323C66.6097 51.7788 67.366 52.7723 68.2995 52.7723C69.2534 52.7723 70.0302 51.7155 70.0166 50.451H70.0098Z" fill="white"/>
<path d="M70.0164 50.451C70.0368 51.7156 69.2532 52.7723 68.2993 52.7723C67.359 52.7723 66.6095 51.7878 66.5959 50.5323C66.5823 49.2497 67.3522 48.202 68.2993 48.211C69.226 48.211 69.9959 49.2226 70.0096 50.451H70.0164Z" fill="url(#paint6_linear_7717_516)"/>
</g>
<defs>
<linearGradient id="paint0_linear_7717_516" x1="50.0616" y1="28.8242" x2="50.0616" y2="69.8769" gradientUnits="userSpaceOnUse">
<stop stop-color="#25377A"/>
<stop offset="1" stop-color="#B658E8"/>
</linearGradient>
<linearGradient id="paint1_linear_7717_516" x1="25.5439" y1="53.9121" x2="25.5439" y2="78.9998" gradientUnits="userSpaceOnUse">
<stop stop-color="#25377A"/>
<stop offset="1" stop-color="#B658E8"/>
</linearGradient>
<linearGradient id="paint2_linear_7717_516" x1="70.0176" y1="42.5088" x2="70.0176" y2="58.4737" gradientUnits="userSpaceOnUse">
<stop stop-color="#25377A"/>
<stop offset="1" stop-color="#B658E8"/>
</linearGradient>
<linearGradient id="paint3_linear_7717_516" x1="49.4911" y1="14" x2="49.4911" y2="27.6842" gradientUnits="userSpaceOnUse">
<stop stop-color="#25377A"/>
<stop offset="1" stop-color="#B658E8"/>
</linearGradient>
<linearGradient id="paint4_linear_7717_516" x1="61.4656" y1="14" x2="61.4656" y2="27.6842" gradientUnits="userSpaceOnUse">
<stop stop-color="#25377A"/>
<stop offset="1" stop-color="#B658E8"/>
</linearGradient>
<linearGradient id="paint5_linear_7717_516" x1="31.8157" y1="25.4033" x2="31.8157" y2="27.684" gradientUnits="userSpaceOnUse">
<stop stop-color="#25377A"/>
<stop offset="1" stop-color="#B658E8"/>
</linearGradient>
<linearGradient id="paint6_linear_7717_516" x1="68.3062" y1="48.2109" x2="68.3062" y2="52.7723" gradientUnits="userSpaceOnUse">
<stop stop-color="#25377A"/>
<stop offset="1" stop-color="#B658E8"/>
</linearGradient>
</defs>
</svg>
