<svg width="32" height="32" viewBox="0 0 32 32" fill="none" xmlns="http://www.w3.org/2000/svg">
<path d="M28.1827 16.6413L24.548 17.68C22.9112 18.1414 21.4202 19.0152 20.2177 20.2177C19.0152 21.4202 18.1415 22.9112 17.68 24.548L16.6413 28.1827C16.5891 28.3098 16.5002 28.4186 16.386 28.4951C16.2719 28.5717 16.1375 28.6125 16 28.6125C15.8625 28.6125 15.7282 28.5717 15.614 28.4951C15.4998 28.4186 15.4109 28.3098 15.3587 28.1827L14.32 24.548C13.8585 22.9112 12.9848 21.4202 11.7823 20.2177C10.5798 19.0152 9.08879 18.1414 7.452 17.68L3.81734 16.6413C3.67778 16.6017 3.55495 16.5177 3.46749 16.4019C3.38002 16.2862 3.3327 16.1451 3.3327 16C3.3327 15.8549 3.38002 15.7138 3.46749 15.5981C3.55495 15.4823 3.67778 15.3983 3.81734 15.3587L7.452 14.32C9.08879 13.8585 10.5798 12.9848 11.7823 11.7823C12.9848 10.5798 13.8585 9.08878 14.32 7.45199L15.3587 3.81733C15.3983 3.67777 15.4823 3.55494 15.5981 3.46748C15.7138 3.38001 15.8549 3.33269 16 3.33269C16.1451 3.33269 16.2862 3.38001 16.4019 3.46748C16.5177 3.55494 16.6017 3.67777 16.6413 3.81733L17.68 7.45199C18.1415 9.08878 19.0152 10.5798 20.2177 11.7823C21.4202 12.9848 22.9112 13.8585 24.548 14.32L28.1827 15.3587C28.3222 15.3983 28.4451 15.4823 28.5325 15.5981C28.62 15.7138 28.6673 15.8549 28.6673 16C28.6673 16.1451 28.62 16.2862 28.5325 16.4019C28.4451 16.5177 28.3222 16.6017 28.1827 16.6413Z" fill="url(#paint0_linear_61_715)"/>
<defs>
<linearGradient id="paint0_linear_61_715" x1="16" y1="28.6125" x2="16" y2="3.33269" gradientUnits="userSpaceOnUse">
<stop stop-color="#932ACE"/>
<stop offset="1" stop-color="#EE8A34"/>
</linearGradient>
</defs>
</svg>
