<svg width="160" height="65" viewBox="0 0 160 65" fill="none" xmlns="http://www.w3.org/2000/svg">
<path d="M49.7856 39.24H49.2636L43.1916 16.1843H35.2679L43.7912 44.3356H47.8668L44.1792 55.9094H51.8648L64.455 16.1843H56.5894L49.7856 39.24Z" fill="white"/>
<path d="M87.302 35.7198C87.0462 36.3917 86.6988 37.0105 86.2544 37.5745C85.6953 38.2835 84.9881 38.8476 84.131 39.2684C83.274 39.6874 82.2564 39.8978 81.0818 39.8978C79.7856 39.8978 78.7539 39.6538 77.9868 39.164C77.2196 38.6743 76.6711 37.9759 76.3414 37.0653C76.0133 36.1548 75.8476 35.0922 75.8476 33.8722V16.1826H68.1919V34.9808C68.1919 37.4402 68.5252 39.5088 69.1936 41.1867C69.862 42.8664 70.8972 44.1359 72.3028 44.9934C73.7083 45.8527 75.5283 46.2823 77.761 46.2823C79.6939 46.2823 81.304 45.9711 82.5897 45.3523C83.8753 44.7335 84.8929 43.8989 85.6407 42.8487C86.3884 41.7985 86.921 40.6351 87.2402 39.3568H87.5647L87.3302 45.5928H94.9559V16.1844H87.3002V35.7216L87.302 35.7198Z" fill="white"/>
<path d="M141.593 16.7682C140.267 15.9389 138.539 15.5234 136.405 15.5234C134.492 15.5234 132.911 15.8329 131.665 16.4534C130.418 17.074 129.437 17.9086 128.719 18.957C128.002 20.0073 127.483 21.1601 127.164 22.4207H126.873C126.43 20.3839 125.635 18.7838 124.487 17.6239C123.101 16.2254 121.043 15.5252 118.311 15.5252C116.496 15.5252 114.981 15.8293 113.764 16.4393C112.547 17.0493 111.586 17.8732 110.879 18.9128C110.172 19.9525 109.668 21.1212 109.37 22.4207H109.059L109.31 16.1847H101.654V45.5966H109.31V26.0364C109.542 25.3681 109.856 24.7581 110.251 24.2047C110.759 23.4957 111.406 22.9299 112.195 22.5109C112.981 22.0918 113.925 21.8814 115.02 21.8814C116.196 21.8814 117.129 22.1219 117.815 22.601C118.503 23.0802 118.997 23.7556 119.295 24.6255C119.595 25.4954 119.743 26.5297 119.743 27.7285V45.5966H127.399V26.6181C127.399 26.4431 127.393 26.2627 127.384 26.0771C127.617 25.3928 127.929 24.7687 128.326 24.2047C128.823 23.4957 129.472 22.9299 130.27 22.5109C131.067 22.0918 132.003 21.8814 133.081 21.8814C134.257 21.8814 135.19 22.1219 135.876 22.601C136.564 23.0802 137.058 23.7556 137.356 24.6255C137.655 25.4954 137.804 26.5297 137.804 27.7285V45.5966H145.489V26.6181C145.489 24.1799 145.17 22.136 144.532 20.4882C143.893 18.8386 142.911 17.5992 141.586 16.7699L141.593 16.7682Z" fill="white"/>
<path d="M159.58 16.1843H151.925V45.5962H159.58V16.1843Z" fill="white"/>
<path d="M158.953 5.78193C158.254 5.08177 157.189 4.73169 155.754 4.73169C154.318 4.73169 153.226 5.08177 152.539 5.78193C151.851 6.48208 151.507 7.44038 151.507 8.66035V8.81064C151.507 10.0306 151.851 10.9854 152.539 11.6749C153.226 12.3645 154.299 12.7092 155.754 12.7092C157.209 12.7092 158.254 12.3698 158.953 11.6891C159.651 11.0101 160 10.0501 160 8.81064V8.66035C160 7.44215 159.651 6.48208 158.953 5.78193Z" fill="white"/>
<path d="M22.9088 6.48568C21.5456 5.39832 19.8649 4.78833 18.0466 4.78833C14.4049 4.78833 11.3274 7.23711 10.2023 11.0349L0 45.5973H8.28703L17.8297 13.2981C17.8985 13.0647 17.9831 12.9109 18.0449 12.8313C18.1066 12.9109 18.1877 13.0647 18.26 13.2981L27.7974 45.5973H36.0897L25.8822 11.0367C25.3249 9.13426 24.2756 7.57482 22.9053 6.48745L22.9088 6.48568Z" fill="white"/>
<path d="M36.982 5.76568H38.3099L40.823 9.55112H42.2409V9.49808L39.6238 5.70026L39.6503 5.66136C40.2922 5.52168 40.8248 5.20343 41.2445 4.70129C41.666 4.20093 41.8759 3.62984 41.8759 2.98449C41.8759 2.20124 41.592 1.54174 41.0241 1.00778C40.4562 0.472057 39.7684 0.205078 38.9607 0.205078H35.7845V9.54936H36.982V5.76391V5.76568ZM36.982 1.35433H38.9872C39.4633 1.35433 39.8619 1.51699 40.1776 1.84408C40.495 2.16941 40.652 2.55131 40.652 2.98626C40.652 3.45657 40.4827 3.84908 40.1441 4.16734C39.8055 4.48559 39.3928 4.64472 38.9078 4.64472H36.9802V1.35433H36.982Z" fill="white"/>
<path d="M45.4173 5.39959C44.5849 5.39959 43.9183 5.59584 43.4192 5.98659C42.9201 6.37733 42.6714 6.90422 42.6714 7.56548C42.6714 8.19138 42.9077 8.71472 43.3804 9.13199C43.853 9.54926 44.442 9.75789 45.1439 9.75789C45.9675 9.75789 46.6289 9.3919 47.1227 8.66168H47.1756V9.54926H48.3219V5.60822C48.3219 4.78253 48.0662 4.13188 47.553 3.65803C47.0415 3.18419 46.3414 2.94727 45.4579 2.94727C44.3204 2.94727 43.4615 3.36453 42.8795 4.20083L43.9341 4.86563C44.3239 4.29984 44.853 4.01695 45.5213 4.01695C45.964 4.01695 46.3502 4.1637 46.68 4.45366C47.0098 4.7454 47.1738 5.10078 47.1738 5.51805V5.7921C46.7135 5.53042 46.128 5.39959 45.4155 5.39959H45.4173ZM46.583 8.12772C46.188 8.50256 45.74 8.6882 45.2356 8.6882C44.8794 8.6882 44.569 8.58389 44.3045 8.37525C44.0399 8.16662 43.9077 7.90495 43.9077 7.592C43.9077 7.24369 44.0699 6.95195 44.3962 6.71857C44.7207 6.48341 45.1281 6.36672 45.6131 6.36672C46.2814 6.36672 46.8017 6.51524 47.1756 6.81051C47.1756 7.31441 46.9781 7.75466 46.583 8.12772Z" fill="white"/>
<path d="M50.8209 9.54889L50.768 8.66131H50.8209C51.029 8.99194 51.327 9.25715 51.7132 9.45695C52.0995 9.65674 52.5262 9.75752 52.9954 9.75752C53.8366 9.75752 54.5491 9.42689 55.131 8.76563C55.7306 8.10437 56.0287 7.2999 56.0287 6.35044C56.0287 5.40098 55.7289 4.60535 55.131 3.93525C54.5491 3.27399 53.8383 2.94336 52.9954 2.94336C52.5262 2.94336 52.0995 3.04414 51.7132 3.24393C51.327 3.44372 51.029 3.70894 50.8209 4.03957H50.768V3.15199H49.6216V12.3672H50.8191V9.54889H50.8209ZM51.3411 4.69375C51.7309 4.25881 52.2176 4.04133 52.7996 4.04133C53.3816 4.04133 53.8542 4.25881 54.244 4.69375C54.6337 5.1287 54.8295 5.68211 54.8295 6.35221C54.8295 7.02231 54.6337 7.58279 54.244 8.01066C53.8542 8.44561 53.371 8.66308 52.7996 8.66308C52.2282 8.66308 51.7326 8.44914 51.3411 8.02304C50.9584 7.58809 50.768 7.03115 50.768 6.35221C50.768 5.67327 50.9584 5.13047 51.3411 4.69375Z" fill="white"/>
<path d="M57.7586 0.101074C57.524 0.101074 57.3248 0.184174 57.159 0.348605C56.9932 0.514804 56.9121 0.714596 56.9121 0.94975C56.9121 1.1849 56.995 1.3847 57.159 1.5509C57.3248 1.71709 57.524 1.79843 57.7586 1.79843C57.9932 1.79843 58.1924 1.71533 58.3582 1.5509C58.5222 1.38646 58.6051 1.1849 58.6051 0.94975C58.6051 0.714596 58.5222 0.514804 58.3582 0.348605C58.1924 0.184174 57.9932 0.101074 57.7586 0.101074Z" fill="white"/>
<path d="M58.3566 3.1543H57.1592V9.54942H58.3566V3.1543Z" fill="white"/>
<path d="M62.5239 9.75798C62.993 9.75798 63.4198 9.6572 63.806 9.45741C64.1923 9.25762 64.4903 8.9924 64.6984 8.66177H64.7513V9.54935H65.8976V0.205078H64.7002V3.15423L64.7531 4.0418H64.7002C64.4921 3.71117 64.194 3.44596 63.8078 3.24616C63.4216 3.04637 62.9948 2.94559 62.5257 2.94559C61.6933 2.94559 60.9773 3.27622 60.3777 3.93748C59.7869 4.60758 59.4923 5.41206 59.4923 6.35267C59.4923 7.29329 59.7869 8.09776 60.3777 8.76786C60.9773 9.42912 61.6915 9.75975 62.5257 9.75975L62.5239 9.75798ZM61.2735 4.69422C61.6633 4.25927 62.1448 4.0418 62.7179 4.0418C63.2911 4.0418 63.7813 4.25927 64.1623 4.69422C64.552 5.12916 64.7478 5.68257 64.7478 6.35267C64.7478 7.02277 64.552 7.59739 64.1623 8.0235C63.7884 8.44961 63.3069 8.66354 62.7179 8.66354C62.1289 8.66354 61.6633 8.44607 61.2735 8.01112C60.8838 7.58502 60.688 7.03161 60.688 6.35267C60.688 5.67373 60.8838 5.13093 61.2735 4.69422Z" fill="white"/>
<path d="M71.5711 8.18618C71.2237 8.46908 70.7775 8.61052 70.2308 8.61052C69.9786 8.61052 69.7405 8.56455 69.5148 8.47438C69.2891 8.38244 69.0827 8.25691 68.8958 8.09601C68.7088 7.93512 68.5466 7.7424 68.4073 7.51432C68.268 7.288 68.1604 7.03694 68.081 6.75758L66.9347 7.22789C67.1604 8.01114 67.5678 8.6282 68.1586 9.08083C68.7494 9.53346 69.4301 9.75977 70.2026 9.75977C71.0703 9.75977 71.8074 9.51578 72.4159 9.02779C73.0155 8.53096 73.3135 7.87147 73.3135 7.05285C73.3135 6.37214 73.1125 5.79928 72.7086 5.33251C72.3048 4.86574 71.6293 4.47146 70.684 4.1479C69.7546 3.82788 69.1515 3.55029 68.8746 3.31691C68.6224 3.08352 68.4972 2.80593 68.4972 2.48591C68.4972 2.09694 68.6577 1.78045 68.9787 1.53822C69.2996 1.27832 69.6947 1.14748 70.1638 1.14748C70.6064 1.14748 70.9821 1.2624 71.2889 1.49402C71.5976 1.72387 71.8039 2.01384 71.908 2.36215L73.0278 1.89184C72.8532 1.35258 72.5076 0.903486 71.9873 0.548103C71.4671 0.182112 70.8498 0 70.1391 0C69.3314 0 68.6506 0.243994 68.0951 0.730215C67.5484 1.2182 67.2751 1.8052 67.2751 2.49298C67.2751 3.47603 67.7689 4.22039 68.7582 4.72429C68.9399 4.81977 69.4055 5.00188 70.1514 5.2724C70.8886 5.52523 71.393 5.78514 71.6611 6.05565C71.9468 6.33324 72.0914 6.66918 72.0914 7.05992C72.0914 7.53023 71.9168 7.90683 71.5711 8.18972V8.18618Z" fill="white"/>
<path d="M77.7684 2.94559C77.361 2.94559 76.9677 3.04991 76.5903 3.25854C76.2129 3.46717 75.9325 3.72885 75.7509 4.0418H75.698L75.7509 3.15423V0.205078H74.5534V9.54935H75.7509V6.06448C75.7509 5.52521 75.9184 5.05314 76.2517 4.64825C76.585 4.24336 76.996 4.0418 77.4827 4.0418C78.4985 4.0418 79.0064 4.61642 79.0064 5.7639V9.54935H80.2039V5.52875C80.2039 4.70306 79.994 4.06478 79.5725 3.61746C79.151 3.17014 78.5514 2.94559 77.7702 2.94559H77.7684Z" fill="white"/>
<path d="M83.1823 12.3695L87.1803 3.1543H85.877L84.0288 7.74952H84.0024L82.103 3.1543H80.7997L83.4292 9.14453L81.946 12.3695H83.1823Z" fill="white"/>
<path d="M89.1064 9.54889L89.0535 8.66131H89.1064C89.3145 8.99194 89.6125 9.25715 89.9987 9.45695C90.385 9.65674 90.8117 9.75752 91.2809 9.75752C92.1221 9.75752 92.8346 9.42689 93.4165 8.76563C94.0161 8.10437 94.3142 7.2999 94.3142 6.35044C94.3142 5.40098 94.0144 4.60535 93.4165 3.93525C92.8346 3.27399 92.1238 2.94336 91.2809 2.94336C90.8117 2.94336 90.385 3.04414 89.9987 3.24393C89.6125 3.44372 89.3145 3.70894 89.1064 4.03957H89.0535V3.15199H87.9071V12.3672H89.1046V9.54889H89.1064ZM89.6266 4.69375C90.0164 4.25881 90.5031 4.04133 91.0851 4.04133C91.6671 4.04133 92.1397 4.25881 92.5295 4.69375C92.9192 5.1287 93.115 5.68211 93.115 6.35221C93.115 7.02231 92.9192 7.58279 92.5295 8.01066C92.1397 8.44561 91.6565 8.66308 91.0851 8.66308C90.5137 8.66308 90.0181 8.44914 89.6266 8.02304C89.2439 7.58809 89.0535 7.03115 89.0535 6.35221C89.0535 5.67327 89.2439 5.13047 89.6266 4.69375Z" fill="white"/>
<path d="M105.232 64.3973H102.832V52.5247H105.223V59.4078L105.232 60.5128V64.3955V64.3973ZM107.624 60.8311H104.455V58.8438H107.476C108.142 58.8438 108.625 58.6882 108.925 58.3752C109.225 58.0623 109.375 57.6096 109.375 57.0138V56.3366C109.375 55.7302 109.227 55.2722 108.931 54.9664C108.634 54.6605 108.153 54.5067 107.484 54.5067H104.455V52.5282H107.624C109.063 52.5282 110.117 52.8535 110.788 53.5042C111.458 54.1548 111.793 55.0778 111.793 56.273V57.0898C111.793 58.285 111.458 59.208 110.788 59.8586C110.117 60.5093 109.063 60.8346 107.624 60.8346V60.8311Z" fill="white"/>
<path d="M115.816 64.3976H113.444V55.2849H115.704L115.602 58.082L115.816 58.1651V64.3994V64.3976ZM115.75 59.1022L115.147 57.5145H115.722C115.89 56.7772 116.191 56.199 116.63 55.7765C117.069 55.3557 117.678 55.1453 118.456 55.1453C118.616 55.1453 118.761 55.1559 118.891 55.1771C119.022 55.1983 119.138 55.2248 119.244 55.2567L119.374 57.6347C119.239 57.5923 119.082 57.5587 118.902 57.5375C118.722 57.5163 118.535 57.5056 118.336 57.5056C117.706 57.5056 117.17 57.6453 116.727 57.9229C116.286 58.2023 115.96 58.5948 115.75 59.1022Z" fill="white"/>
<path d="M124.748 64.6195C123.191 64.6195 122.032 64.2605 121.274 63.5427C120.515 62.8249 120.134 61.7835 120.134 60.4221V59.2321C120.134 57.8813 120.489 56.8452 121.199 56.1203C121.91 55.3954 122.942 55.033 124.295 55.033C125.208 55.033 125.972 55.1939 126.584 55.5156C127.196 55.8374 127.654 56.2954 127.959 56.8859C128.264 57.4782 128.418 58.1854 128.418 59.0094V59.3347C128.418 59.5575 128.407 59.7855 128.386 60.0172C128.365 60.2488 128.335 60.468 128.298 60.6713H126.148C126.167 60.3301 126.178 60.0066 126.18 59.7007C126.183 59.3948 126.185 59.1172 126.185 58.8697C126.185 58.4418 126.116 58.0794 125.981 57.7788C125.845 57.4782 125.638 57.2501 125.36 57.0963C125.081 56.9425 124.727 56.8647 124.295 56.8647C123.658 56.8647 123.189 57.0415 122.885 57.3951C122.582 57.7487 122.432 58.2491 122.432 58.8997V59.7449L122.441 60.0136V60.7297C122.441 61.0144 122.485 61.2778 122.575 61.52C122.665 61.7622 122.815 61.9709 123.025 62.1477C123.235 62.3245 123.515 62.4624 123.862 62.5614C124.212 62.6604 124.649 62.7099 125.175 62.7099C125.742 62.7099 126.286 62.6463 126.801 62.519C127.316 62.3917 127.806 62.2202 128.27 62.0027L128.065 63.8786C127.651 64.1085 127.164 64.2888 126.605 64.4214C126.046 64.554 125.427 64.6212 124.746 64.6212L124.748 64.6195ZM127.815 60.6713H121.393V59.0925H127.815V60.6713Z" fill="white"/>
<path d="M133.051 64.6114C131.982 64.6114 131.169 64.2649 130.614 63.57C130.058 62.877 129.779 61.855 129.779 60.5042V59.2506C129.779 57.8821 130.06 56.8443 130.622 56.1388C131.185 55.4334 132.021 55.0797 133.134 55.0797C133.677 55.0797 134.135 55.1664 134.509 55.3397C134.883 55.5129 135.186 55.7605 135.418 56.0822C135.649 56.404 135.811 56.7824 135.904 57.2156H136.599L135.996 58.9801C135.984 58.5522 135.895 58.1916 135.731 57.8981C135.567 57.6046 135.34 57.38 135.051 57.2244C134.76 57.0688 134.418 56.9928 134.023 56.9928C133.423 56.9928 132.964 57.1661 132.647 57.5126C132.33 57.8592 132.169 58.3772 132.169 59.0632V60.5678C132.169 61.2486 132.328 61.7631 132.647 62.1096C132.964 62.4562 133.43 62.6294 134.042 62.6294C134.388 62.6294 134.696 62.564 134.968 62.4349C135.239 62.3041 135.467 62.1273 135.649 61.901C135.83 61.6747 135.962 61.4201 136.042 61.1354L136.608 62.4632H135.941C135.843 62.8593 135.682 63.22 135.46 63.5453C135.238 63.8706 134.931 64.1288 134.543 64.3215C134.153 64.5124 133.656 64.6097 133.051 64.6097V64.6114ZM138.333 64.3975H135.961L136.044 62.168L135.998 61.6375V57.9122L136.007 57.5321L135.961 54.9224V52.1165H138.333V64.3975Z" fill="white"/>
<path d="M141.604 54.2056C141.153 54.2056 140.821 54.0995 140.608 53.8856C140.394 53.6716 140.289 53.3764 140.289 52.998V52.952C140.289 52.5737 140.394 52.2766 140.608 52.0609C140.821 51.8434 141.153 51.7356 141.604 51.7356C142.056 51.7356 142.38 51.8434 142.595 52.0609C142.812 52.2784 142.92 52.5754 142.92 52.952V52.998C142.92 53.3817 142.812 53.6787 142.595 53.8891C142.378 54.0995 142.049 54.2056 141.604 54.2056ZM142.789 64.3968H140.417V55.2841H142.789V64.3968Z" fill="white"/>
<path d="M148.664 64.6301C147.262 64.6301 146.223 64.2588 145.546 63.5162C144.869 62.7736 144.532 61.7287 144.532 60.3849V59.2711C144.532 57.9326 144.872 56.8965 145.551 56.1592C146.23 55.422 147.269 55.0542 148.664 55.0542C149.029 55.0542 149.369 55.0843 149.688 55.1426C150.006 55.2009 150.297 55.2805 150.56 55.3795C150.822 55.4785 151.052 55.5846 151.249 55.696L151.443 57.6939C151.14 57.503 150.803 57.3403 150.429 57.2113C150.055 57.0822 149.625 57.0168 149.136 57.0168C148.371 57.0168 147.81 57.213 147.454 57.6073C147.099 57.9998 146.921 58.5727 146.921 59.3206V60.3054C146.921 61.048 147.105 61.6208 147.473 62.024C147.84 62.4271 148.408 62.6286 149.173 62.6286C149.662 62.6286 150.094 62.565 150.471 62.4377C150.849 62.3104 151.2 62.1548 151.528 61.9691L151.334 63.9759C151.031 64.1492 150.651 64.303 150.195 64.4356C149.738 64.5682 149.228 64.6354 148.666 64.6354L148.664 64.6301Z" fill="white"/>
<path d="M158.968 57.235H152.24V55.359H159.171L158.966 57.235H158.968ZM156.707 64.5937C155.935 64.5937 155.319 64.477 154.859 64.2454C154.399 64.0138 154.067 63.6619 153.863 63.1916C153.658 62.7213 153.558 62.1414 153.558 61.4536V56.1405H155.912V61.1017C155.912 61.5968 156.025 61.961 156.251 62.1926C156.476 62.4242 156.873 62.5409 157.441 62.5409C157.774 62.5409 158.095 62.5056 158.404 62.4349C158.713 62.3641 158.996 62.2687 159.256 62.152L159.051 64.1393C158.742 64.2825 158.388 64.3939 157.989 64.4735C157.591 64.5548 157.162 64.5937 156.706 64.5937H156.707ZM155.847 55.5358H153.586L153.577 53.1206L155.94 52.8784L155.847 55.5358Z" fill="white"/>
</svg>
