<svg width="160" height="65" viewBox="0 0 160 65" fill="none" xmlns="http://www.w3.org/2000/svg">
<path d="M49.7856 39.239H49.2636L43.1916 16.1833H35.2679L43.7912 44.3364H47.8668L44.1792 55.9085H51.8649L64.455 16.1833H56.5895L49.7856 39.239Z" fill="white"/>
<path d="M87.3021 35.7204C87.0464 36.3923 86.6989 37.0111 86.2545 37.5751C85.6955 38.2841 84.9883 38.8481 84.1312 39.2689C83.2741 39.688 82.2565 39.8984 81.082 39.8984C79.7857 39.8984 78.754 39.6544 77.9869 39.1646C77.2197 38.6749 76.6713 37.9765 76.3415 37.0659C76.0135 36.1553 75.8477 35.0927 75.8477 33.8728V16.1832H68.192V34.9813C68.192 37.4407 68.5253 39.5094 69.1937 41.1873C69.8621 42.867 70.8973 44.1364 72.3029 44.994C73.7085 45.8532 75.5285 46.2829 77.7612 46.2829C79.694 46.2829 81.3042 45.9717 82.5898 45.3529C83.8755 44.7341 84.893 43.8995 85.6408 42.8493C86.3885 41.799 86.9211 40.6356 87.2403 39.3573H87.5648L87.3303 45.5933H94.956V16.1814H87.3003V35.7186L87.3021 35.7204Z" fill="white"/>
<path d="M141.594 16.7684C140.267 15.9392 138.539 15.5237 136.405 15.5237C134.492 15.5237 132.912 15.8331 131.665 16.4537C130.418 17.0743 129.437 17.9088 128.72 18.9573C128.002 20.0075 127.483 21.1603 127.164 22.4209H126.873C126.43 20.3841 125.635 18.784 124.487 17.6242C123.101 16.2256 121.043 15.5255 118.311 15.5255C116.496 15.5255 114.981 15.8296 113.764 16.4396C112.548 17.0495 111.586 17.8735 110.879 18.9131C110.172 19.9527 109.668 21.1214 109.37 22.4209H109.059L109.31 16.185H101.654V45.5969H109.31V26.0367C109.542 25.3683 109.856 24.7584 110.251 24.205C110.759 23.496 111.407 22.9302 112.195 22.5111C112.981 22.0921 113.925 21.8817 115.02 21.8817C116.196 21.8817 117.129 22.1221 117.815 22.6013C118.503 23.0804 118.997 23.7559 119.295 24.6258C119.595 25.4956 119.743 26.53 119.743 27.7287V45.5969H127.399V26.6184C127.399 26.4433 127.393 26.263 127.385 26.0773C127.617 25.3931 127.929 24.769 128.326 24.205C128.824 23.496 129.473 22.9302 130.27 22.5111C131.067 22.0921 132.003 21.8817 133.081 21.8817C134.257 21.8817 135.19 22.1221 135.876 22.6013C136.564 23.0804 137.058 23.7559 137.356 24.6258C137.656 25.4956 137.804 26.53 137.804 27.7287V45.5969H145.489V26.6184C145.489 24.1802 145.17 22.1363 144.532 20.4885C143.893 18.8388 142.911 17.5994 141.587 16.7702L141.594 16.7684Z" fill="white"/>
<path d="M159.58 16.1833H151.925V45.5953H159.58V16.1833Z" fill="white"/>
<path d="M158.952 5.78167C158.254 5.08151 157.189 4.73145 155.753 4.73145C154.318 4.73145 153.226 5.08151 152.538 5.78167C151.851 6.48183 151.507 7.44013 151.507 8.6601V8.81039C151.507 10.0304 151.851 10.9851 152.538 11.6747C153.226 12.3642 154.298 12.709 155.753 12.709C157.208 12.709 158.254 12.3695 158.952 11.6888C159.651 11.0099 160 10.0498 160 8.81039V8.6601C160 7.4419 159.651 6.48183 158.952 5.78167Z" fill="white"/>
<path d="M22.9088 6.48543C21.5455 5.39807 19.8649 4.78809 18.0466 4.78809C14.4049 4.78809 11.3274 7.23688 10.2023 11.0347L0 45.5953H8.28702L17.8297 13.2961C17.8985 13.0627 17.9831 12.9089 18.0449 12.8293C18.1066 12.9089 18.1877 13.0627 18.26 13.2961L27.7974 45.5953H36.0897L25.8822 11.0347C25.3249 9.13226 24.2756 7.5728 22.9053 6.48543H22.9088Z" fill="white"/>
<path d="M36.9821 5.76396H38.31L40.8231 9.54941H42.241V9.49636L39.6239 5.69854L39.6504 5.65965C40.2923 5.51997 40.8249 5.20171 41.2446 4.69957C41.6661 4.19921 41.876 3.62813 41.876 2.98278C41.876 2.19952 41.592 1.54002 41.0242 1.00606C40.4563 0.470334 39.7685 0.203369 38.9608 0.203369H35.7846V9.54764H36.9821V5.76219V5.76396ZM36.9821 1.35262H38.9873C39.4634 1.35262 39.862 1.51526 40.1777 1.84236C40.4951 2.16768 40.6521 2.5496 40.6521 2.98455C40.6521 3.45486 40.4828 3.84736 40.1442 4.16561C39.8055 4.48386 39.3929 4.643 38.9079 4.643H36.9803V1.35439L36.9821 1.35262Z" fill="white"/>
<path d="M45.4173 5.39788C44.5849 5.39788 43.9182 5.59412 43.4191 5.98487C42.92 6.37561 42.6714 6.90251 42.6714 7.56377C42.6714 8.18967 42.9077 8.71302 43.3803 9.13028C43.853 9.54755 44.442 9.75617 45.1439 9.75617C45.9675 9.75617 46.6288 9.39018 47.1226 8.65997H47.1755V9.54755H48.3219V5.6065C48.3219 4.78081 48.0662 4.13015 47.553 3.65631C47.0415 3.18246 46.3414 2.94556 45.4578 2.94556C44.3203 2.94556 43.4615 3.36282 42.8795 4.19912L43.9341 4.86391C44.3239 4.29813 44.8529 4.01523 45.5213 4.01523C45.964 4.01523 46.3502 4.16197 46.68 4.45194C47.0098 4.74367 47.1738 5.09906 47.1738 5.51632V5.79038C46.7135 5.52871 46.128 5.39788 45.4155 5.39788H45.4173ZM46.583 8.12601C46.1879 8.50084 45.74 8.68649 45.2356 8.68649C44.8794 8.68649 44.569 8.58217 44.3045 8.37354C44.0399 8.16491 43.9076 7.90322 43.9076 7.59027C43.9076 7.24196 44.0699 6.95024 44.3962 6.71685C44.7207 6.4817 45.128 6.36501 45.613 6.36501C46.2814 6.36501 46.8017 6.51353 47.1755 6.8088C47.1755 7.3127 46.978 7.75294 46.583 8.12601Z" fill="white"/>
<path d="M50.8209 9.54938L50.768 8.6618H50.8209C51.029 8.99243 51.327 9.25764 51.7132 9.45743C52.0995 9.65723 52.5262 9.758 52.9954 9.758C53.8366 9.758 54.5491 9.42737 55.131 8.76611C55.7307 8.10485 56.0287 7.30037 56.0287 6.35091C56.0287 5.40146 55.7289 4.60584 55.131 3.93574C54.5491 3.27448 53.8383 2.94385 52.9954 2.94385C52.5262 2.94385 52.0995 3.04462 51.7132 3.24441C51.327 3.4442 51.029 3.70942 50.8209 4.04005H50.768V3.15247H49.6216V12.3677H50.8191V9.54938H50.8209ZM51.3411 4.69423C51.7309 4.25928 52.2176 4.04182 52.7996 4.04182C53.3816 4.04182 53.8542 4.25928 54.244 4.69423C54.6337 5.12917 54.8295 5.68258 54.8295 6.35268C54.8295 7.02278 54.6337 7.58326 54.244 8.01114C53.8542 8.44608 53.371 8.66357 52.7996 8.66357C52.2282 8.66357 51.7326 8.44963 51.3411 8.02353C50.9584 7.58858 50.768 7.03162 50.768 6.35268C50.768 5.67374 50.9584 5.13094 51.3411 4.69423Z" fill="white"/>
<path d="M57.7587 0.10083C57.5241 0.10083 57.3248 0.183934 57.1591 0.348365C56.9933 0.514564 56.9122 0.714361 56.9122 0.949515C56.9122 1.18467 56.9951 1.38447 57.1591 1.55067C57.3248 1.71686 57.5241 1.79818 57.7587 1.79818C57.9932 1.79818 58.1925 1.7151 58.3583 1.55067C58.5223 1.38623 58.6052 1.18467 58.6052 0.949515C58.6052 0.714361 58.5223 0.514564 58.3583 0.348365C58.1925 0.183934 57.9932 0.10083 57.7587 0.10083Z" fill="white"/>
<path d="M58.3566 3.1543H57.1591V9.54943H58.3566V3.1543Z" fill="white"/>
<path d="M62.5239 9.75797C62.993 9.75797 63.4198 9.6572 63.806 9.45741C64.1922 9.25762 64.4903 8.99241 64.6984 8.66178H64.7513V9.54935H65.8976V0.205078H64.7001V3.15422L64.753 4.04179H64.7001C64.492 3.71116 64.194 3.44595 63.8078 3.24616C63.4215 3.04637 62.9948 2.9456 62.5257 2.9456C61.6932 2.9456 60.9772 3.27622 60.3776 3.93748C59.7868 4.60758 59.4923 5.41204 59.4923 6.35266C59.4923 7.29328 59.7868 8.09776 60.3776 8.76786C60.9772 9.42912 61.6915 9.75974 62.5257 9.75974L62.5239 9.75797ZM61.2735 4.6942C61.6633 4.25926 62.1447 4.04179 62.7179 4.04179C63.291 4.04179 63.7813 4.25926 64.1622 4.6942C64.552 5.12915 64.7478 5.68256 64.7478 6.35266C64.7478 7.02276 64.552 7.5974 64.1622 8.0235C63.7884 8.44961 63.3069 8.66355 62.7179 8.66355C62.1288 8.66355 61.6633 8.44606 61.2735 8.01112C60.8838 7.58501 60.688 7.0316 60.688 6.35266C60.688 5.67372 60.8838 5.13092 61.2735 4.6942Z" fill="white"/>
<path d="M71.5711 8.18618C71.2236 8.46907 70.7775 8.61052 70.2307 8.61052C69.9786 8.61052 69.7405 8.56455 69.5147 8.47437C69.289 8.38243 69.0827 8.25692 68.8957 8.09603C68.7088 7.93513 68.5465 7.7424 68.4072 7.51432C68.2679 7.28801 68.1603 7.03694 68.081 6.75758L66.9346 7.22789C67.1604 8.01115 67.5678 8.62821 68.1586 9.08083C68.7493 9.53346 69.4301 9.75977 70.2025 9.75977C71.0702 9.75977 71.8074 9.51577 72.4158 9.02778C73.0154 8.53095 73.3135 7.87148 73.3135 7.05286C73.3135 6.37215 73.1124 5.79929 72.7086 5.33252C72.3047 4.86575 71.6293 4.47146 70.684 4.1479C69.7546 3.82788 69.1514 3.5503 68.8746 3.31691C68.6224 3.08353 68.4972 2.80592 68.4972 2.4859C68.4972 2.09693 68.6576 1.78044 68.9786 1.53822C69.2996 1.27831 69.6946 1.14748 70.1637 1.14748C70.6064 1.14748 70.982 1.2624 71.2889 1.49402C71.5975 1.72387 71.8038 2.01384 71.9079 2.36215L73.0278 1.89183C72.8532 1.35257 72.5075 0.903482 71.9873 0.548099C71.467 0.182107 70.8498 0 70.139 0C69.3313 0 68.6506 0.243995 68.0951 0.730216C67.5484 1.2182 67.275 1.8052 67.275 2.49298C67.275 3.47603 67.7688 4.22039 68.7582 4.72429C68.9398 4.81977 69.4054 5.00188 70.1514 5.27239C70.8886 5.52523 71.3929 5.78514 71.661 6.05566C71.9467 6.33325 72.0913 6.66917 72.0913 7.05991C72.0913 7.53022 71.9167 7.90683 71.5711 8.18972V8.18618Z" fill="white"/>
<path d="M77.7682 2.9456C77.3608 2.9456 76.9676 3.04989 76.5902 3.25853C76.2127 3.46716 75.9323 3.72884 75.7507 4.04179H75.6978L75.7507 3.15422V0.205078H74.5532V9.54935H75.7507V6.06446C75.7507 5.5252 75.9182 5.05314 76.2515 4.64825C76.5849 4.24336 76.9958 4.04179 77.4825 4.04179C78.4983 4.04179 79.0062 4.61642 79.0062 5.7639V9.54935H80.2037V5.52875C80.2037 4.70306 79.9938 4.06477 79.5724 3.61745C79.1509 3.17013 78.5512 2.9456 77.77 2.9456H77.7682Z" fill="white"/>
<path d="M83.1824 12.3677L87.1804 3.1543H85.8771L84.0289 7.74775H84.0025L82.1031 3.1543H80.7998L83.4293 9.14454L81.9461 12.3677H83.1824Z" fill="white"/>
<path d="M89.1062 9.54938L89.0533 8.6618H89.1062C89.3143 8.99243 89.6124 9.25764 89.9986 9.45743C90.3848 9.65723 90.8116 9.758 91.2807 9.758C92.1219 9.758 92.8344 9.42737 93.4164 8.76611C94.016 8.10485 94.314 7.30037 94.314 6.35091C94.314 5.40146 94.0142 4.60584 93.4164 3.93574C92.8344 3.27448 92.1237 2.94385 91.2807 2.94385C90.8116 2.94385 90.3848 3.04462 89.9986 3.24441C89.6124 3.4442 89.3143 3.70942 89.1062 4.04005H89.0533V3.15247H87.907V12.3677H89.1044V9.54938H89.1062ZM89.6265 4.69423C90.0162 4.25928 90.503 4.04182 91.0849 4.04182C91.6669 4.04182 92.1396 4.25928 92.5293 4.69423C92.9191 5.12917 93.1148 5.68258 93.1148 6.35268C93.1148 7.02278 92.9191 7.58326 92.5293 8.01114C92.1396 8.44608 91.6563 8.66357 91.0849 8.66357C90.5135 8.66357 90.018 8.44963 89.6265 8.02353C89.2438 7.58858 89.0533 7.03162 89.0533 6.35268C89.0533 5.67374 89.2438 5.13094 89.6265 4.69423Z" fill="white"/>
<path d="M97.3385 64.3968H94.9383V52.5242H97.3297V59.4073L97.3385 60.5123V64.395V64.3968ZM99.7281 60.8288H96.559V58.8415H99.58C100.247 58.8415 100.73 58.6859 101.03 58.373C101.329 58.06 101.479 57.6074 101.479 57.0115V56.3344C101.479 55.7279 101.331 55.27 101.035 54.9641C100.739 54.6582 100.257 54.5044 99.5888 54.5044H96.559V52.5259H99.7281C101.167 52.5259 102.222 52.8513 102.892 53.5019C103.562 54.1526 103.897 55.0755 103.897 56.2707V57.0876C103.897 58.2828 103.562 59.2057 102.892 59.8564C102.222 60.507 101.167 60.8324 99.7281 60.8324V60.8288Z" fill="white"/>
<path d="M107.92 64.3966H105.548V55.284H107.809L107.707 58.0811L107.92 58.1642V64.3984V64.3966ZM107.855 59.1012L107.252 57.5135H107.827C107.994 56.7762 108.296 56.1981 108.735 55.7755C109.174 55.3547 109.782 55.1443 110.56 55.1443C110.721 55.1443 110.865 55.1549 110.996 55.1761C111.126 55.1973 111.243 55.2239 111.348 55.2557L111.479 57.6337C111.343 57.5913 111.186 57.5577 111.006 57.5365C110.826 57.5153 110.639 57.5047 110.44 57.5047C109.811 57.5047 109.274 57.6443 108.832 57.9219C108.391 58.2013 108.065 58.5938 107.855 59.1012Z" fill="white"/>
<path d="M116.528 64.6478C115.119 64.6478 114.052 64.2854 113.327 63.5604C112.6 62.8355 112.239 61.8047 112.239 60.4663V59.2304C112.239 57.8867 112.602 56.8506 113.327 56.1221C114.054 55.3937 115.121 55.0312 116.528 55.0312C117.935 55.0312 118.993 55.3955 119.715 56.1221C120.438 56.8506 120.799 57.8849 120.799 59.2304V60.4663C120.799 61.8047 120.44 62.8355 119.72 63.5604C119 64.2854 117.937 64.6478 116.528 64.6478ZM116.528 62.7436C117.145 62.7436 117.616 62.5579 117.941 62.1866C118.265 61.8154 118.427 61.2832 118.427 60.5883V59.112C118.427 58.4065 118.265 57.8655 117.941 57.4906C117.616 57.1158 117.145 56.9284 116.528 56.9284C115.911 56.9284 115.429 57.1158 115.105 57.4906C114.78 57.8655 114.618 58.4065 114.618 59.112V60.5883C114.618 61.2814 114.78 61.8154 115.105 62.1866C115.429 62.5579 115.904 62.7436 116.528 62.7436Z" fill="white"/>
<path d="M124.905 64.3967H122.533V55.2841H124.905L124.811 57.5967L124.905 57.6993V64.3967ZM130.511 64.3967H128.139V58.8591C128.139 58.4878 128.093 58.1678 128 57.8973C127.906 57.6285 127.755 57.4181 127.541 57.2696C127.328 57.1211 127.039 57.0468 126.676 57.0468C126.335 57.0468 126.044 57.1123 125.799 57.2413C125.556 57.3722 125.355 57.5472 125.196 57.7664C125.039 57.9857 124.923 58.235 124.848 58.5143L124.478 57.213H124.923C125.016 56.8099 125.171 56.4475 125.39 56.1257C125.609 55.8039 125.907 55.5475 126.284 55.3601C126.661 55.1709 127.131 55.0772 127.693 55.0772C128.54 55.0772 129.178 55.2947 129.607 55.7278C130.035 56.161 130.307 56.794 130.418 57.6232C130.443 57.747 130.464 57.892 130.483 58.0546C130.502 58.2191 130.511 58.3729 130.511 58.5143V64.395V64.3967ZM136.118 64.3967H133.737V58.8591C133.737 58.4878 133.691 58.1678 133.598 57.8973C133.504 57.6285 133.352 57.4181 133.139 57.2696C132.926 57.1211 132.636 57.0468 132.273 57.0468C131.94 57.0468 131.649 57.1123 131.402 57.2413C131.155 57.3722 130.954 57.5472 130.799 57.7664C130.644 57.9857 130.531 58.235 130.457 58.5143L130.197 57.213H130.439C130.538 56.8223 130.698 56.4652 130.92 56.1398C131.143 55.8145 131.448 55.5564 131.834 55.3636C132.22 55.1709 132.709 55.0754 133.303 55.0754C133.964 55.0754 134.5 55.2045 134.911 55.4609C135.322 55.7172 135.626 56.1009 135.825 56.6137C136.022 57.1246 136.121 57.7576 136.121 58.5143V64.395L136.118 64.3967Z" fill="white"/>
<path d="M139.296 54.2056C138.844 54.2056 138.513 54.0995 138.299 53.8856C138.086 53.6716 137.98 53.3764 137.98 52.998V52.952C137.98 52.5737 138.086 52.2766 138.299 52.0609C138.513 51.8434 138.844 51.7356 139.296 51.7356C139.747 51.7356 140.072 51.8434 140.287 52.0609C140.504 52.2784 140.611 52.5754 140.611 52.952V52.998C140.611 53.3817 140.504 53.6787 140.287 53.8891C140.07 54.0995 139.74 54.2056 139.296 54.2056ZM140.483 64.3968H138.111V55.2841H140.483V64.3968Z" fill="white"/>
<path d="M145.653 64.6195C144.925 64.6195 144.278 64.5506 143.712 64.4109C143.146 64.2712 142.666 64.1157 142.271 63.9424L142.057 61.879C142.526 62.0965 143.045 62.2839 143.609 62.4466C144.175 62.6075 144.796 62.6888 145.477 62.6888C146.07 62.6888 146.5 62.6128 146.764 62.4607C147.031 62.3087 147.163 62.0806 147.163 61.7783V61.7217C147.163 61.5166 147.103 61.3504 146.981 61.2195C146.861 61.0887 146.65 60.9702 146.346 60.8624C146.043 60.7545 145.618 60.6378 145.068 60.5141C144.308 60.3337 143.706 60.1251 143.265 59.8864C142.825 59.6477 142.507 59.3542 142.315 59.0041C142.123 58.6541 142.027 58.235 142.027 57.7453V57.6622C142.027 56.8011 142.332 56.1522 142.944 55.7155C143.556 55.2788 144.461 55.0596 145.66 55.0596C146.371 55.0596 146.999 55.1285 147.546 55.2682C148.092 55.4079 148.547 55.5741 148.912 55.765L149.126 57.6604C148.694 57.4553 148.209 57.2838 147.671 57.1441C147.133 57.0044 146.556 56.9355 145.937 56.9355C145.535 56.9355 145.219 56.9673 144.987 57.0327C144.756 57.0981 144.59 57.1883 144.491 57.3068C144.392 57.4252 144.343 57.5667 144.343 57.7347V57.7806C144.343 57.9663 144.398 58.1272 144.505 58.2633C144.613 58.3995 144.812 58.5215 145.103 58.6311C145.394 58.7389 145.801 58.8556 146.327 58.9794C147.092 59.1403 147.708 59.3295 148.172 59.5469C148.635 59.7644 148.972 60.0402 149.182 60.3779C149.392 60.7156 149.498 61.1577 149.498 61.7022V61.8136C149.498 62.756 149.18 63.4579 148.544 63.9229C147.907 64.3879 146.944 64.6195 145.653 64.6195Z" fill="white"/>
<path d="M155.272 64.6195C153.715 64.6195 152.556 64.2605 151.798 63.5427C151.039 62.8249 150.658 61.7835 150.658 60.422V59.2321C150.658 57.8813 151.013 56.8452 151.724 56.1203C152.434 55.3954 153.466 55.033 154.819 55.033C155.732 55.033 156.496 55.1939 157.108 55.5156C157.72 55.8374 158.178 56.2954 158.483 56.8859C158.788 57.4782 158.942 58.1854 158.942 59.0094V59.3347C158.942 59.5575 158.931 59.7855 158.91 60.0172C158.889 60.2488 158.859 60.468 158.822 60.6714H156.672C156.692 60.3301 156.702 60.0066 156.704 59.7007C156.707 59.3948 156.709 59.1172 156.709 58.8697C156.709 58.4418 156.64 58.0794 156.505 57.7788C156.369 57.4782 156.162 57.2501 155.884 57.0963C155.605 56.9425 155.251 56.8647 154.819 56.8647C154.182 56.8647 153.713 57.0415 153.41 57.3951C153.106 57.7487 152.956 58.2491 152.956 58.8997V59.7449L152.965 60.0136V60.7297C152.965 61.0144 153.009 61.2778 153.099 61.52C153.189 61.7622 153.339 61.9709 153.549 62.1477C153.759 62.3245 154.039 62.4624 154.387 62.5614C154.736 62.6604 155.173 62.7099 155.699 62.7099C156.267 62.7099 156.81 62.6463 157.325 62.519C157.84 62.3917 158.33 62.2202 158.794 62.0027L158.589 63.8786C158.175 64.1085 157.688 64.2888 157.129 64.4214C156.57 64.554 155.951 64.6212 155.27 64.6212L155.272 64.6195ZM158.339 60.6714H151.918V59.0925H158.339V60.6714Z" fill="white"/>
</svg>
