<svg width="160" height="65" viewBox="0 0 160 65" fill="none" xmlns="http://www.w3.org/2000/svg">
<path d="M49.7857 39.2405H49.2636L43.1917 16.1848H35.2679L43.7913 44.3361H47.8669L44.1793 55.9082H51.8649L64.455 16.1848H56.5895L49.7857 39.2405Z" fill="white"/>
<path d="M87.3021 35.7202C87.0464 36.392 86.6989 37.0109 86.2545 37.5749C85.6955 38.2839 84.9883 38.8479 84.1312 39.2687C83.2741 39.6877 82.2565 39.8981 81.082 39.8981C79.7857 39.8981 78.754 39.6541 77.9869 39.1644C77.2197 38.6746 76.6713 37.9762 76.3415 37.0656C76.0135 36.1551 75.8477 35.0925 75.8477 33.8725V16.1829H68.192V34.9811C68.192 37.4405 68.5253 39.5091 69.1937 41.187C69.8621 42.8667 70.8973 44.1362 72.3029 44.9937C73.7085 45.853 75.5285 46.2826 77.7612 46.2826C79.694 46.2826 81.3042 45.9715 82.5898 45.3526C83.8755 44.7338 84.893 43.8993 85.6408 42.8491C86.3885 41.7988 86.9211 40.6354 87.2403 39.3571H87.5648L87.3303 45.5931H94.956V16.1812H87.3003V35.7184L87.3021 35.7202Z" fill="white"/>
<path d="M141.594 16.7682C140.267 15.9389 138.539 15.5234 136.405 15.5234C134.492 15.5234 132.911 15.8329 131.665 16.4534C130.418 17.074 129.437 17.9086 128.719 18.957C128.002 20.0073 127.483 21.1601 127.164 22.4207H126.873C126.43 20.3839 125.635 18.7837 124.487 17.6239C123.101 16.2253 121.043 15.5252 118.311 15.5252C116.496 15.5252 114.981 15.8293 113.764 16.4393C112.548 17.0493 111.586 17.8732 110.879 18.9128C110.172 19.9525 109.668 21.1212 109.37 22.4207H109.059L109.31 16.1847H101.654V45.5966H109.31V26.0364C109.542 25.3681 109.856 24.7581 110.251 24.2047C110.759 23.4957 111.406 22.9299 112.195 22.5109C112.981 22.0918 113.925 21.8814 115.02 21.8814C116.196 21.8814 117.129 22.1219 117.815 22.601C118.503 23.0802 118.997 23.7556 119.295 24.6255C119.595 25.4954 119.743 26.5297 119.743 27.7285V45.5966H127.399V26.6181C127.399 26.4431 127.393 26.2627 127.384 26.0771C127.617 25.3928 127.929 24.7687 128.326 24.2047C128.824 23.4957 129.473 22.9299 130.27 22.5109C131.067 22.0918 132.003 21.8814 133.081 21.8814C134.257 21.8814 135.19 22.1219 135.876 22.601C136.564 23.0802 137.058 23.7556 137.356 24.6255C137.655 25.4954 137.804 26.5297 137.804 27.7285V45.5966H145.489V26.6181C145.489 24.1799 145.17 22.136 144.532 20.4882C143.893 18.8386 142.911 17.5992 141.586 16.7699L141.594 16.7682Z" fill="white"/>
<path d="M159.58 16.1848H151.925V45.5967H159.58V16.1848Z" fill="white"/>
<path d="M158.952 5.78143C158.254 5.08127 157.189 4.7312 155.753 4.7312C154.318 4.7312 153.226 5.08127 152.538 5.78143C151.85 6.48159 151.507 7.43989 151.507 8.65986V8.81016C151.507 10.0301 151.85 10.9849 152.538 11.6744C153.226 12.364 154.298 12.7087 155.753 12.7087C157.208 12.7087 158.254 12.3693 158.952 11.6886C159.651 11.0097 160 10.0496 160 8.81016V8.65986C160 7.44166 159.651 6.48159 158.952 5.78143Z" fill="white"/>
<path d="M22.9088 6.48541C21.5455 5.39805 19.8649 4.78809 18.0466 4.78809C14.4049 4.78809 11.3274 7.23684 10.2023 11.0347L0 45.5952H8.28702L17.8297 13.296C17.8985 13.0627 17.9831 12.9089 18.0449 12.8293C18.1066 12.9089 18.1877 13.0627 18.26 13.296L27.7974 45.5952H36.0897L25.8822 11.0347C25.3249 9.13222 24.2756 7.57278 22.9053 6.48541H22.9088Z" fill="white"/>
<path d="M36.9821 5.764H38.3101L40.8232 9.54944H42.2411V9.49639L39.624 5.69856L39.6504 5.65967C40.2924 5.51999 40.825 5.20175 41.2447 4.69962C41.6662 4.19925 41.876 3.62813 41.876 2.98278C41.876 2.19952 41.5921 1.54004 41.0242 1.00608C40.4564 0.470356 39.7686 0.203369 38.9609 0.203369H35.7847V9.54767H36.9821V5.76223V5.764ZM36.9821 1.35439H38.9873C39.4635 1.35439 39.862 1.51705 40.1777 1.84415C40.4952 2.16947 40.6521 2.55137 40.6521 2.98632C40.6521 3.45663 40.4828 3.84917 40.1442 4.16742C39.8056 4.48568 39.3929 4.6448 38.908 4.6448H36.9804V1.35616L36.9821 1.35439Z" fill="white"/>
<path d="M45.4173 5.39961C44.5849 5.39961 43.9182 5.59588 43.4191 5.98662C42.92 6.37736 42.6714 6.90424 42.6714 7.5655C42.6714 8.1914 42.9077 8.71472 43.3803 9.13199C43.853 9.54926 44.442 9.7579 45.1439 9.7579C45.9675 9.7579 46.6288 9.39191 47.1226 8.6617H47.1755V9.54928H48.3219V5.60823C48.3219 4.78254 48.0662 4.13188 47.553 3.65804C47.0415 3.18419 46.3414 2.94727 45.4578 2.94727C44.3203 2.94727 43.4615 3.36455 42.8795 4.20085L43.9341 4.86564C44.3239 4.29986 44.8529 4.01696 45.5213 4.01696C45.964 4.01696 46.3502 4.1637 46.68 4.45367C47.0098 4.7454 47.1738 5.10079 47.1738 5.51805V5.79211C46.7135 5.53044 46.128 5.39961 45.4155 5.39961H45.4173ZM46.583 8.12597C46.1879 8.5008 45.74 8.68643 45.2356 8.68643C44.8794 8.68643 44.569 8.58216 44.3045 8.37352C44.0399 8.16489 43.9076 7.90318 43.9076 7.59023C43.9076 7.24192 44.0699 6.9502 44.3962 6.71681C44.7207 6.48166 45.128 6.36497 45.613 6.36497C46.2814 6.36497 46.8017 6.51349 47.1755 6.80876C47.1755 7.31266 46.978 7.7529 46.583 8.12597Z" fill="white"/>
<path d="M50.8208 9.5494L50.7679 8.66182H50.8208C51.0289 8.99245 51.327 9.25766 51.7132 9.45745C52.0994 9.65725 52.5262 9.75802 52.9953 9.75802C53.8365 9.75802 54.549 9.42741 55.131 8.76615C55.7306 8.10489 56.0286 7.30039 56.0286 6.35093C56.0286 5.40148 55.7288 4.60586 55.131 3.93576C54.549 3.2745 53.8383 2.94385 52.9953 2.94385C52.5262 2.94385 52.0994 3.04466 51.7132 3.24446C51.327 3.44425 51.0289 3.70946 50.8208 4.04009H50.7679V3.15251H49.6216V12.3677H50.819V9.5494H50.8208ZM51.3411 4.69427C51.7308 4.25932 52.2176 4.04186 52.7995 4.04186C53.3815 4.04186 53.8542 4.25932 54.2439 4.69427C54.6336 5.12922 54.8294 5.6826 54.8294 6.3527C54.8294 7.0228 54.6336 7.58331 54.2439 8.01118C53.8542 8.44613 53.3709 8.66359 52.7995 8.66359C52.2281 8.66359 51.7326 8.44963 51.3411 8.02353C50.9584 7.58858 50.7679 7.03164 50.7679 6.3527C50.7679 5.67376 50.9584 5.13098 51.3411 4.69427Z" fill="white"/>
<path d="M57.7587 0.10083C57.5242 0.10083 57.3249 0.183912 57.1591 0.348343C56.9934 0.514543 56.9122 0.714318 56.9122 0.949472C56.9122 1.18463 56.9951 1.38444 57.1591 1.55064C57.3249 1.71684 57.5242 1.79816 57.7587 1.79816C57.9933 1.79816 58.1926 1.71507 58.3584 1.55064C58.5224 1.38621 58.6053 1.18463 58.6053 0.949472C58.6053 0.714318 58.5224 0.514543 58.3584 0.348343C58.1926 0.183912 57.9933 0.10083 57.7587 0.10083Z" fill="white"/>
<path d="M58.3566 3.1543H57.1592V9.54941H58.3566V3.1543Z" fill="white"/>
<path d="M62.5239 9.758C62.993 9.758 63.4198 9.65723 63.806 9.45743C64.1922 9.25764 64.4903 8.99243 64.6984 8.6618H64.7513V9.54938H65.8976V0.205078H64.7001V3.15426L64.753 4.04184H64.7001C64.492 3.71121 64.194 3.446 63.8078 3.2462C63.4215 3.04641 62.9948 2.9456 62.5257 2.9456C61.6932 2.9456 60.9772 3.27624 60.3776 3.93751C59.7868 4.60761 59.4923 5.41207 59.4923 6.35268C59.4923 7.2933 59.7868 8.0978 60.3776 8.7679C60.9772 9.42916 61.6915 9.75977 62.5257 9.75977L62.5239 9.758ZM61.2735 4.69425C61.6633 4.2593 62.1447 4.04184 62.7179 4.04184C63.291 4.04184 63.7813 4.2593 64.1622 4.69425C64.552 5.12919 64.7478 5.68258 64.7478 6.35268C64.7478 7.02278 64.552 7.5974 64.1622 8.0235C63.7884 8.44961 63.3069 8.66357 62.7179 8.66357C62.1288 8.66357 61.6633 8.44611 61.2735 8.01116C60.8838 7.58505 60.688 7.03162 60.688 6.35268C60.688 5.67374 60.8838 5.13096 61.2735 4.69425Z" fill="white"/>
<path d="M71.571 8.1862C71.2236 8.46909 70.7774 8.61052 70.2307 8.61052C69.9785 8.61052 69.7404 8.56455 69.5147 8.47437C69.2889 8.38243 69.0826 8.25692 68.8957 8.09603C68.7087 7.93513 68.5465 7.7424 68.4072 7.51432C68.2678 7.28801 68.1603 7.03694 68.0809 6.75758L66.9346 7.22787C67.1603 8.01113 67.5677 8.62823 68.1585 9.08086C68.7493 9.53348 69.43 9.75977 70.2025 9.75977C71.0701 9.75977 71.8073 9.51579 72.4157 9.0278C73.0154 8.53098 73.3134 7.87145 73.3134 7.05283C73.3134 6.37213 73.1124 5.79927 72.7085 5.3325C72.3046 4.86573 71.6292 4.47146 70.6839 4.1479C69.7545 3.82788 69.1514 3.5503 68.8745 3.31691C68.6223 3.08353 68.4971 2.80595 68.4971 2.48592C68.4971 2.09695 68.6576 1.78044 68.9785 1.53822C69.2995 1.27831 69.6946 1.14748 70.1637 1.14748C70.6063 1.14748 70.982 1.2624 71.2888 1.49402C71.5975 1.72387 71.8038 2.01386 71.9078 2.36217L73.0277 1.89183C72.8531 1.35257 72.5075 0.903504 71.9872 0.548121C71.4669 0.182129 70.8497 0 70.139 0C69.3313 0 68.6505 0.243974 68.095 0.730195C67.5483 1.21818 67.2749 1.80522 67.2749 2.493C67.2749 3.47605 67.7687 4.22039 68.7581 4.72429C68.9398 4.81977 69.4053 5.0019 70.1513 5.27241C70.8885 5.52525 71.3929 5.78514 71.6609 6.05566C71.9466 6.33325 72.0913 6.66917 72.0913 7.05991C72.0913 7.53022 71.9167 7.90685 71.571 8.18974V8.1862Z" fill="white"/>
<path d="M77.7682 2.9456C77.3608 2.9456 76.9676 3.04992 76.5902 3.25855C76.2127 3.46718 75.9323 3.72889 75.7507 4.04184H75.6978L75.7507 3.15426V0.205078H74.5532V9.54938H75.7507V6.06451C75.7507 5.52524 75.9182 5.05316 76.2515 4.64827C76.5849 4.24339 76.9958 4.04184 77.4825 4.04184C78.4983 4.04184 79.0062 4.61646 79.0062 5.76394V9.54938H80.2037V5.52877C80.2037 4.70308 79.9938 4.0648 79.5724 3.61747C79.1509 3.17015 78.5512 2.9456 77.77 2.9456H77.7682Z" fill="white"/>
<path d="M83.1824 12.3695L87.1804 3.1543H85.8771L84.0289 7.74775H84.0025L82.1031 3.1543H80.7998L83.4293 9.14452L81.9461 12.3695H83.1824Z" fill="white"/>
<path d="M89.1062 9.5494L89.0533 8.66182H89.1062C89.3143 8.99245 89.6124 9.25766 89.9986 9.45745C90.3848 9.65725 90.8116 9.75802 91.2807 9.75802C92.1219 9.75802 92.8344 9.42741 93.4164 8.76615C94.016 8.10489 94.314 7.30039 94.314 6.35093C94.314 5.40148 94.0142 4.60586 93.4164 3.93576C92.8344 3.2745 92.1237 2.94385 91.2807 2.94385C90.8116 2.94385 90.3848 3.04466 89.9986 3.24446C89.6124 3.44425 89.3143 3.70946 89.1062 4.04009H89.0533V3.15251H87.907V12.3677H89.1044V9.5494H89.1062ZM89.6265 4.69427C90.0162 4.25932 90.503 4.04186 91.0849 4.04186C91.6669 4.04186 92.1396 4.25932 92.5293 4.69427C92.9191 5.12922 93.1148 5.6826 93.1148 6.3527C93.1148 7.0228 92.9191 7.58331 92.5293 8.01118C92.1396 8.44613 91.6563 8.66359 91.0849 8.66359C90.5135 8.66359 90.018 8.44963 89.6265 8.02353C89.2438 7.58858 89.0533 7.03164 89.0533 6.3527C89.0533 5.67376 89.2438 5.13098 89.6265 4.69427Z" fill="white"/>
<path d="M116.445 64.6392C115.895 64.6392 115.38 64.5985 114.902 64.5189C114.424 64.4376 113.99 64.3368 113.604 64.2166C113.218 64.0963 112.886 63.9725 112.608 63.8488L112.394 61.545C112.876 61.7996 113.447 62.0259 114.108 62.2275C114.77 62.429 115.473 62.5298 116.221 62.5298C117.011 62.5298 117.583 62.4149 117.935 62.185C118.288 61.957 118.464 61.6033 118.464 61.126V61.0234C118.464 60.714 118.389 60.4576 118.237 60.2561C118.085 60.0545 117.833 59.8777 117.482 59.7221C117.129 59.5665 116.651 59.4092 116.046 59.2483C115.195 59.0131 114.495 58.7444 113.948 58.4456C113.401 58.145 112.997 57.7702 112.738 57.3211C112.479 56.872 112.348 56.308 112.348 55.6255V55.5141C112.348 54.4745 112.699 53.6753 113.399 53.1166C114.099 52.5596 115.136 52.2803 116.509 52.2803C117.36 52.2803 118.094 52.3581 118.704 52.5119C119.316 52.6675 119.829 52.8461 120.242 53.0512L120.455 55.1976C119.992 54.9501 119.463 54.7432 118.866 54.5805C118.27 54.4161 117.62 54.3348 116.916 54.3348C116.39 54.3348 115.976 54.3843 115.669 54.4833C115.364 54.5823 115.144 54.7273 115.011 54.92C114.879 55.1127 114.812 55.3444 114.812 55.6167V55.6449C114.812 55.9243 114.881 56.1648 115.02 56.3699C115.159 56.575 115.408 56.7606 115.766 56.9321C116.124 57.1018 116.634 57.2769 117.295 57.4572C118.135 57.6924 118.822 57.947 119.357 58.2193C119.891 58.4915 120.288 58.8452 120.547 59.2783C120.806 59.7115 120.937 60.2844 120.937 60.9969V61.1649C120.937 62.3106 120.565 63.1769 119.821 63.7621C119.076 64.3474 117.949 64.6409 116.443 64.6409L116.445 64.6392Z" fill="white"/>
<path d="M126.926 64.6197C125.369 64.6197 124.21 64.2608 123.452 63.5412C122.692 62.8233 122.312 61.7819 122.312 60.4205V59.2324C122.312 57.8816 122.667 56.8455 123.378 56.1206C124.088 55.3956 125.12 55.0332 126.473 55.0332C127.386 55.0332 128.15 55.1941 128.762 55.5159C129.374 55.8377 129.832 56.2938 130.137 56.8861C130.443 57.4784 130.596 58.1857 130.596 59.0096V59.3349C130.596 59.5577 130.585 59.7858 130.564 60.0174C130.543 60.249 130.513 60.4682 130.476 60.6716H128.326C128.346 60.3303 128.356 60.0068 128.358 59.7009C128.362 59.395 128.363 59.1174 128.363 58.8699C128.363 58.442 128.295 58.0796 128.159 57.779C128.023 57.4785 127.817 57.2521 127.538 57.0965C127.259 56.9409 126.905 56.8649 126.473 56.8649C125.836 56.8649 125.367 57.0417 125.064 57.3953C124.76 57.7489 124.61 58.2493 124.61 58.9V59.7451L124.619 60.0139V60.7299C124.619 61.0146 124.663 61.278 124.753 61.5203C124.843 61.7625 124.993 61.9711 125.203 62.1462C125.413 62.323 125.693 62.4609 126.041 62.5599C126.39 62.6589 126.827 62.7084 127.353 62.7084C127.921 62.7084 128.464 62.6448 128.979 62.5175C129.494 62.3902 129.984 62.2186 130.448 62.0012L130.243 63.8789C129.829 64.107 129.342 64.2891 128.783 64.4217C128.224 64.5543 127.605 64.6215 126.924 64.6215L126.926 64.6197ZM129.993 60.6716H123.572V59.0927H129.993V60.6716Z" fill="white"/>
<path d="M134.645 64.3969H132.273V55.2842H134.645L134.552 57.5049L134.645 57.6994V64.3969ZM140.565 64.3969H138.193V58.9247C138.193 58.541 138.142 58.2086 138.04 57.931C137.938 57.6534 137.77 57.4359 137.536 57.2803C137.301 57.1248 136.98 57.0487 136.573 57.0487C136.215 57.0487 135.901 57.1142 135.633 57.2432C135.365 57.3741 135.144 57.5491 134.975 57.7683C134.806 57.9876 134.677 58.2369 134.59 58.5162L134.22 57.215H134.664C134.763 56.8118 134.929 56.4493 135.16 56.1276C135.391 55.8058 135.707 55.5494 136.105 55.362C136.504 55.1746 137.003 55.0791 137.603 55.0791C138.301 55.0791 138.865 55.2099 139.299 55.4734C139.731 55.7368 140.05 56.1275 140.259 56.6491C140.465 57.1689 140.569 57.8143 140.569 58.5817V64.3969H140.565Z" fill="white"/>
<path d="M145.653 64.6198C144.925 64.6198 144.278 64.5508 143.712 64.4111C143.146 64.2715 142.666 64.1158 142.271 63.9426L142.057 61.881C142.527 62.0985 143.045 62.2859 143.609 62.4485C144.174 62.6112 144.796 62.6908 145.477 62.6908C146.07 62.6908 146.5 62.6148 146.764 62.4627C147.031 62.3107 147.163 62.0843 147.163 61.7802V61.7237C147.163 61.5203 147.103 61.3524 146.983 61.2215C146.863 61.0907 146.652 60.9722 146.348 60.8644C146.045 60.7565 145.62 60.6398 145.07 60.5161C144.309 60.3357 143.708 60.1271 143.267 59.8884C142.826 59.6497 142.509 59.3562 142.317 59.0061C142.124 58.656 142.029 58.237 142.029 57.7473V57.6641C142.029 56.8031 142.334 56.1542 142.946 55.7175C143.558 55.2808 144.463 55.0615 145.662 55.0615C146.373 55.0615 147.001 55.1305 147.547 55.2702C148.094 55.4099 148.549 55.5743 148.914 55.767L149.128 57.6624C148.695 57.4573 148.21 57.2858 147.673 57.1461C147.135 57.0064 146.558 56.9375 145.939 56.9375C145.537 56.9375 145.221 56.9693 144.988 57.0347C144.756 57.1001 144.592 57.1903 144.493 57.3087C144.394 57.4272 144.345 57.5687 144.345 57.7366V57.7826C144.345 57.9683 144.399 58.1292 144.507 58.2653C144.615 58.4014 144.814 58.5234 145.105 58.6313C145.396 58.7392 145.803 58.8558 146.329 58.9796C147.094 59.1405 147.71 59.3297 148.173 59.5472C148.637 59.7646 148.974 60.0404 149.184 60.3781C149.394 60.7158 149.5 61.1579 149.5 61.7024V61.8138C149.5 62.7562 149.182 63.4581 148.546 63.9231C147.909 64.3881 146.946 64.6198 145.655 64.6198H145.653Z" fill="white"/>
<path d="M155.272 64.6197C153.715 64.6197 152.556 64.2608 151.798 63.5412C151.037 62.8233 150.658 61.7819 150.658 60.4205V59.2324C150.658 57.8816 151.013 56.8455 151.724 56.1206C152.434 55.3956 153.466 55.0332 154.819 55.0332C155.732 55.0332 156.496 55.1941 157.108 55.5159C157.72 55.8377 158.178 56.2938 158.483 56.8861C158.788 57.4784 158.942 58.1857 158.942 59.0096V59.3349C158.942 59.5577 158.931 59.7858 158.91 60.0174C158.889 60.249 158.859 60.4682 158.822 60.6716H156.672C156.691 60.3303 156.702 60.0068 156.704 59.7009C156.707 59.395 156.709 59.1174 156.709 58.8699C156.709 58.442 156.64 58.0796 156.505 57.779C156.369 57.4785 156.162 57.2521 155.884 57.0965C155.605 56.9409 155.251 56.8649 154.819 56.8649C154.182 56.8649 153.713 57.0417 153.409 57.3953C153.106 57.7489 152.956 58.2493 152.956 58.9V59.7451L152.965 60.0139V60.7299C152.965 61.0146 153.009 61.278 153.099 61.5203C153.189 61.7625 153.339 61.9711 153.549 62.1462C153.759 62.323 154.039 62.4609 154.387 62.5599C154.736 62.6589 155.173 62.7084 155.699 62.7084C156.266 62.7084 156.81 62.6448 157.325 62.5175C157.84 62.3902 158.33 62.2186 158.794 62.0012L158.589 63.8789C158.175 64.107 157.688 64.2891 157.129 64.4217C156.57 64.5543 155.951 64.6215 155.27 64.6215L155.272 64.6197ZM158.339 60.6716H151.918V59.0927H158.339V60.6716Z" fill="white"/>
</svg>
