<svg width="160" height="65" viewBox="0 0 160 65" fill="none" xmlns="http://www.w3.org/2000/svg">
<path d="M49.7857 39.2405H49.2636L43.1917 16.1848H35.2679L43.7913 44.3361H47.8669L44.1793 55.9099H51.8649L64.455 16.1848H56.5895L49.7857 39.2405Z" fill="white"/>
<path d="M87.3021 35.7221C87.0464 36.394 86.6989 37.0128 86.2545 37.5768C85.6955 38.2858 84.9883 38.8499 84.1312 39.2707C83.2741 39.6897 82.2565 39.9001 81.082 39.9001C79.7857 39.9001 78.754 39.6561 77.9869 39.1663C77.2197 38.6766 76.6713 37.9782 76.3415 37.0676C76.0135 36.157 75.8477 35.0945 75.8477 33.8745V16.1849H68.192V34.9831C68.192 37.4425 68.5253 39.5111 69.1937 41.189C69.8621 42.8687 70.8973 44.1381 72.3029 44.9957C73.7085 45.8549 75.5285 46.2846 77.7612 46.2846C79.694 46.2846 81.3042 45.9734 82.5898 45.3546C83.8755 44.7358 84.893 43.9012 85.6408 42.851C86.3885 41.8008 86.9211 40.6374 87.2403 39.3591H87.5648L87.3303 45.595H94.956V16.1831H87.3003V35.7203L87.3021 35.7221Z" fill="white"/>
<path d="M141.594 16.7701C140.267 15.9409 138.539 15.5254 136.405 15.5254C134.492 15.5254 132.911 15.8348 131.665 16.4554C130.418 17.076 129.437 17.9105 128.719 18.959C128.002 20.0092 127.483 21.162 127.164 22.4227H126.873C126.43 20.3858 125.635 18.7857 124.487 17.6258C123.101 16.2273 121.043 15.5272 118.311 15.5272C116.496 15.5272 114.981 15.8313 113.764 16.4412C112.548 17.0512 111.586 17.8751 110.879 18.9148C110.172 19.9544 109.668 21.1231 109.37 22.4227H109.059L109.31 16.1866H101.654V45.5986H109.31V26.0384C109.542 25.37 109.856 24.76 110.251 24.2066C110.759 23.4976 111.406 22.9319 112.195 22.5128C112.981 22.0938 113.925 21.8834 115.02 21.8834C116.196 21.8834 117.129 22.1239 117.815 22.603C118.503 23.0822 118.997 23.7575 119.295 24.6274C119.595 25.4973 119.743 26.5317 119.743 27.7304V45.5986H127.399V26.6201C127.399 26.445 127.393 26.2647 127.384 26.079C127.617 25.3948 127.929 24.7706 128.326 24.2066C128.824 23.4976 129.473 22.9319 130.27 22.5128C131.067 22.0938 132.003 21.8834 133.081 21.8834C134.257 21.8834 135.19 22.1239 135.876 22.603C136.564 23.0822 137.058 23.7575 137.356 24.6274C137.655 25.4973 137.804 26.5317 137.804 27.7304V45.5986H145.489V26.6201C145.489 24.1819 145.17 22.138 144.532 20.4901C143.893 18.8405 142.911 17.6011 141.586 16.7719L141.594 16.7701Z" fill="white"/>
<path d="M159.58 16.1848H151.925V45.5967H159.58V16.1848Z" fill="white"/>
<path d="M158.952 5.78143C158.254 5.08127 157.189 4.7312 155.753 4.7312C154.318 4.7312 153.226 5.08127 152.538 5.78143C151.85 6.48159 151.507 7.43989 151.507 8.65986V8.81016C151.507 10.0301 151.85 10.9849 152.538 11.6744C153.226 12.364 154.298 12.7087 155.753 12.7087C157.208 12.7087 158.254 12.3693 158.952 11.6886C159.651 11.0097 160 10.0496 160 8.81016V8.65986C160 7.44166 159.651 6.48159 158.952 5.78143Z" fill="white"/>
<path d="M22.9088 6.48541C21.5455 5.39805 19.8649 4.78809 18.0466 4.78809C14.4049 4.78809 11.3274 7.23684 10.2023 11.0347L0 45.597H8.28702L17.8297 13.2978C17.8985 13.0644 17.9831 12.9106 18.0449 12.8311C18.1066 12.9106 18.1877 13.0644 18.26 13.2978L27.7974 45.597H36.0897L25.8822 11.0364C25.3249 9.13399 24.2756 7.57455 22.9053 6.48718L22.9088 6.48541Z" fill="white"/>
<path d="M36.9821 5.76571H38.3101L40.8232 9.55115H42.2411V9.49809L39.624 5.70027L39.6504 5.66138C40.2924 5.5217 40.825 5.20346 41.2447 4.70133C41.6662 4.20096 41.876 3.62984 41.876 2.98449C41.876 2.20123 41.5921 1.54175 41.0242 1.00779C40.4564 0.472064 39.7686 0.205078 38.9609 0.205078H35.7847V9.54938H36.9821V5.76394V5.76571ZM36.9821 1.35433H38.9873C39.4635 1.35433 39.862 1.51699 40.1777 1.84409C40.4952 2.16941 40.6521 2.55131 40.6521 2.98626C40.6521 3.45657 40.4828 3.84911 40.1442 4.16736C39.8056 4.48562 39.3929 4.64474 38.908 4.64474H36.9804V1.3561L36.9821 1.35433Z" fill="white"/>
<path d="M45.4173 5.39985C44.5849 5.39985 43.9182 5.59612 43.4191 5.98686C42.92 6.37761 42.6714 6.90448 42.6714 7.56574C42.6714 8.19164 42.9077 8.71497 43.3803 9.13223C43.853 9.5495 44.442 9.75814 45.1439 9.75814C45.9675 9.75814 46.6288 9.39216 47.1226 8.66194H47.1755V9.54952H48.3219V5.60847C48.3219 4.78278 48.0662 4.13212 47.553 3.65828C47.0415 3.18444 46.3414 2.94751 45.4578 2.94751C44.3203 2.94751 43.4615 3.36479 42.8795 4.20109L43.9341 4.86589C44.3239 4.3001 44.8529 4.0172 45.5213 4.0172C45.964 4.0172 46.3502 4.16395 46.68 4.45391C47.0098 4.74565 47.1738 5.10103 47.1738 5.5183V5.79236C46.7135 5.53068 46.128 5.39985 45.4155 5.39985H45.4173ZM46.583 8.12798C46.1879 8.50281 45.74 8.68845 45.2356 8.68845C44.8794 8.68845 44.569 8.58413 44.3045 8.37549C44.0399 8.16686 43.9076 7.9052 43.9076 7.59225C43.9076 7.24394 44.0699 6.95221 44.3962 6.71883C44.7207 6.48367 45.128 6.36698 45.613 6.36698C46.2814 6.36698 46.8017 6.5155 47.1755 6.81077C47.1755 7.31467 46.978 7.75492 46.583 8.12798Z" fill="white"/>
<path d="M50.8208 9.55111L50.7679 8.66353H50.8208C51.0289 8.99416 51.327 9.25937 51.7132 9.45916C52.0994 9.65896 52.5262 9.75973 52.9953 9.75973C53.8365 9.75973 54.549 9.42912 55.131 8.76786C55.7306 8.1066 56.0286 7.3021 56.0286 6.35264C56.0286 5.40319 55.7288 4.60757 55.131 3.93747C54.549 3.27621 53.8383 2.94556 52.9953 2.94556C52.5262 2.94556 52.0994 3.04637 51.7132 3.24616C51.327 3.44596 51.0289 3.71117 50.8208 4.0418H50.7679V3.15422H49.6216V12.3694H50.819V9.55111H50.8208ZM51.3411 4.69421C51.7308 4.25926 52.2176 4.0418 52.7995 4.0418C53.3815 4.0418 53.8542 4.25926 54.2439 4.69421C54.6336 5.12915 54.8294 5.68254 54.8294 6.35264C54.8294 7.02274 54.6336 7.58324 54.2439 8.01112C53.8542 8.44607 53.3709 8.66353 52.7995 8.66353C52.2281 8.66353 51.7326 8.44957 51.3411 8.02346C50.9584 7.58852 50.7679 7.03158 50.7679 6.35264C50.7679 5.6737 50.9584 5.13092 51.3411 4.69421Z" fill="white"/>
<path d="M57.7587 0.10083C57.5242 0.10083 57.3249 0.183912 57.1591 0.348343C56.9934 0.514543 56.9122 0.714318 56.9122 0.949472C56.9122 1.18463 56.9951 1.38444 57.1591 1.55064C57.3249 1.71684 57.5242 1.79816 57.7587 1.79816C57.9933 1.79816 58.1926 1.71507 58.3584 1.55064C58.5224 1.38621 58.6053 1.18463 58.6053 0.949472C58.6053 0.714318 58.5224 0.514543 58.3584 0.348343C58.1926 0.183912 57.9933 0.10083 57.7587 0.10083Z" fill="white"/>
<path d="M58.3566 3.1543H57.1592V9.54941H58.3566V3.1543Z" fill="white"/>
<path d="M62.5239 9.75971C62.993 9.75971 63.4198 9.65893 63.806 9.45914C64.1922 9.25935 64.4903 8.99414 64.6984 8.66351H64.7513V9.55109H65.8976V0.206787H64.7001V3.15597L64.753 4.0435H64.7001C64.492 3.71287 64.194 3.44766 63.8078 3.24787C63.4215 3.04808 62.9948 2.9473 62.5257 2.9473C61.6932 2.9473 60.9772 3.27795 60.3776 3.93921C59.7868 4.60931 59.4923 5.41377 59.4923 6.35439C59.4923 7.29501 59.7868 8.09951 60.3776 8.76961C60.9772 9.43087 61.6915 9.76148 62.5257 9.76148L62.5239 9.75971ZM61.2735 4.69419C61.6633 4.25924 62.1447 4.04178 62.7179 4.04178C63.291 4.04178 63.7813 4.25924 64.1622 4.69419C64.552 5.12913 64.7478 5.68252 64.7478 6.35262C64.7478 7.02272 64.552 7.59734 64.1622 8.02344C63.7884 8.44955 63.3069 8.66351 62.7179 8.66351C62.1288 8.66351 61.6633 8.44604 61.2735 8.0111C60.8838 7.58499 60.688 7.03156 60.688 6.35262C60.688 5.67368 60.8838 5.1309 61.2735 4.69419Z" fill="white"/>
<path d="M71.571 8.1862C71.2236 8.46909 70.7774 8.61052 70.2307 8.61052C69.9785 8.61052 69.7404 8.56455 69.5147 8.47437C69.2889 8.38243 69.0826 8.25692 68.8957 8.09603C68.7087 7.93513 68.5465 7.7424 68.4072 7.51432C68.2678 7.28801 68.1603 7.03694 68.0809 6.75758L66.9346 7.22787C67.1603 8.01113 67.5677 8.62823 68.1585 9.08086C68.7493 9.53348 69.43 9.75977 70.2025 9.75977C71.0701 9.75977 71.8073 9.51579 72.4157 9.0278C73.0154 8.53098 73.3134 7.87145 73.3134 7.05283C73.3134 6.37213 73.1124 5.79927 72.7085 5.3325C72.3046 4.86573 71.6292 4.47146 70.6839 4.1479C69.7545 3.82788 69.1514 3.5503 68.8745 3.31691C68.6223 3.08353 68.4971 2.80595 68.4971 2.48592C68.4971 2.09695 68.6576 1.78044 68.9785 1.53822C69.2995 1.27831 69.6946 1.14748 70.1637 1.14748C70.6063 1.14748 70.982 1.2624 71.2888 1.49402C71.5975 1.72387 71.8038 2.01386 71.9078 2.36217L73.0277 1.89183C72.8531 1.35257 72.5075 0.903504 71.9872 0.548121C71.4669 0.182129 70.8497 0 70.139 0C69.3313 0 68.6505 0.243974 68.095 0.730195C67.5483 1.21818 67.2749 1.80522 67.2749 2.493C67.2749 3.47605 67.7687 4.22039 68.7581 4.72429C68.9398 4.81977 69.4053 5.0019 70.1513 5.27241C70.8885 5.52525 71.3929 5.78514 71.6609 6.05566C71.9466 6.33325 72.0913 6.66917 72.0913 7.05991C72.0913 7.53022 71.9167 7.90685 71.571 8.18974V8.1862Z" fill="white"/>
<path d="M77.7682 2.9456C77.3608 2.9456 76.9676 3.04992 76.5902 3.25855C76.2127 3.46718 75.9323 3.72889 75.7507 4.04184H75.6978L75.7507 3.15426V0.205078H74.5532V9.54938H75.7507V6.06451C75.7507 5.52524 75.9182 5.05316 76.2515 4.64827C76.5849 4.24339 76.9958 4.04184 77.4825 4.04184C78.4983 4.04184 79.0062 4.61646 79.0062 5.76394V9.54938H80.2037V5.52877C80.2037 4.70308 79.9938 4.0648 79.5724 3.61747C79.1509 3.17015 78.5512 2.9456 77.77 2.9456H77.7682Z" fill="white"/>
<path d="M83.1824 12.3695L87.1804 3.1543H85.8771L84.0289 7.74952H84.0025L82.1031 3.1543H80.7998L83.4293 9.14629L81.9461 12.3695H83.1824Z" fill="white"/>
<path d="M89.1062 9.55111L89.0533 8.66353H89.1062C89.3143 8.99416 89.6124 9.25937 89.9986 9.45916C90.3848 9.65896 90.8116 9.75973 91.2807 9.75973C92.1219 9.75973 92.8344 9.42912 93.4164 8.76786C94.016 8.1066 94.314 7.3021 94.314 6.35264C94.314 5.40319 94.0142 4.60757 93.4164 3.93747C92.8344 3.27621 92.1237 2.94556 91.2807 2.94556C90.8116 2.94556 90.3848 3.04637 89.9986 3.24616C89.6124 3.44596 89.3143 3.71117 89.1062 4.0418H89.0533V3.15422H87.907V12.3694H89.1044V9.55111H89.1062ZM89.6265 4.69421C90.0162 4.25926 90.503 4.0418 91.0849 4.0418C91.6669 4.0418 92.1396 4.25926 92.5293 4.69421C92.9191 5.12915 93.1148 5.68254 93.1148 6.35264C93.1148 7.02274 92.9191 7.58324 92.5293 8.01112C92.1396 8.44607 91.6563 8.66353 91.0849 8.66353C90.5135 8.66353 90.018 8.44957 89.6265 8.02346C89.2438 7.58852 89.0533 7.03158 89.0533 6.35264C89.0533 5.6737 89.2438 5.13092 89.6265 4.69421Z" fill="white"/>
<path d="M114.944 64.6388C114.394 64.6388 113.881 64.5981 113.401 64.5185C112.922 64.4372 112.489 64.3382 112.103 64.2162C111.717 64.096 111.385 63.9722 111.107 63.8484L110.893 61.5447C111.375 61.7993 111.946 62.0255 112.608 62.2271C113.269 62.4287 113.973 62.5294 114.72 62.5294C115.51 62.5294 116.082 62.4145 116.435 62.1864C116.787 61.9584 116.964 61.6047 116.964 61.1274V61.0248C116.964 60.7154 116.888 60.459 116.736 60.2593C116.584 60.0577 116.332 59.8791 115.981 59.7253C115.629 59.5697 115.151 59.4123 114.546 59.2514C113.694 59.0163 112.994 58.7476 112.447 58.4487C111.9 58.1482 111.497 57.7733 111.237 57.3242C110.978 56.8751 110.848 56.3093 110.848 55.6286V55.5173C110.848 54.4776 111.198 53.6785 111.899 53.1197C112.599 52.561 113.636 52.2834 115.008 52.2834C115.86 52.2834 116.591 52.3613 117.203 52.5151C117.815 52.6707 118.329 52.8493 118.741 53.0543L118.955 55.2008C118.491 54.9532 117.962 54.7464 117.366 54.5837C116.77 54.4193 116.119 54.338 115.415 54.338C114.89 54.338 114.475 54.3875 114.168 54.4865C113.863 54.5855 113.643 54.7305 113.511 54.9232C113.378 55.1159 113.311 55.3475 113.311 55.6198V55.6481C113.311 55.9275 113.38 56.1679 113.519 56.373C113.659 56.5781 113.907 56.7655 114.265 56.9353C114.623 57.105 115.133 57.28 115.794 57.4604C116.634 57.6955 117.322 57.9501 117.856 58.2224C118.39 58.4947 118.787 58.8483 119.046 59.2815C119.306 59.7147 119.436 60.2875 119.436 61.0001V61.168C119.436 62.3137 119.064 63.1801 118.32 63.7653C117.576 64.3506 116.449 64.644 114.943 64.644L114.944 64.6388Z" fill="white"/>
<path d="M125.425 64.6212C123.868 64.6212 122.711 64.2622 121.951 63.5444C121.191 62.8266 120.812 61.7852 120.812 60.4238V59.2338C120.812 57.883 121.166 56.8469 121.877 56.122C122.588 55.3971 123.619 55.0347 124.972 55.0347C125.886 55.0347 126.649 55.1956 127.261 55.5173C127.873 55.8391 128.332 56.2971 128.637 56.8876C128.942 57.4799 129.095 58.1871 129.095 59.0111V59.3364C129.095 59.5592 129.085 59.7872 129.064 60.0189C129.042 60.2505 129.012 60.4697 128.975 60.673H126.826C126.843 60.3318 126.856 60.0082 126.857 59.7024C126.861 59.3965 126.863 59.1189 126.863 58.8714C126.863 58.4435 126.794 58.0811 126.658 57.7805C126.522 57.4799 126.316 57.2518 126.037 57.098C125.759 56.9424 125.404 56.8664 124.972 56.8664C124.335 56.8664 123.866 57.0432 123.563 57.3968C123.26 57.7504 123.108 58.2508 123.108 58.9014V59.7466L123.117 60.0153V60.7314C123.117 61.0161 123.161 61.2795 123.251 61.5217C123.341 61.764 123.491 61.9726 123.7 62.1494C123.91 62.3262 124.191 62.4641 124.538 62.5631C124.887 62.6622 125.325 62.7116 125.849 62.7116C126.416 62.7116 126.96 62.648 127.475 62.5207C127.99 62.3934 128.48 62.2219 128.944 62.0044L128.739 63.8804C128.325 64.1102 127.838 64.2905 127.279 64.4231C126.72 64.5557 126.101 64.6229 125.42 64.6229L125.425 64.6212ZM128.492 60.673H122.071V59.0942H128.492V60.673Z" fill="white"/>
<path d="M133.171 64.3985H130.79V52.1174H133.171V64.3985Z" fill="white"/>
<path d="M139.537 64.6212C137.98 64.6212 136.821 64.2622 136.063 63.5444C135.305 62.8266 134.924 61.7852 134.924 60.4238V59.2338C134.924 57.883 135.278 56.8469 135.989 56.122C136.7 55.3971 137.731 55.0347 139.084 55.0347C139.998 55.0347 140.761 55.1956 141.373 55.5173C141.985 55.8391 142.444 56.2971 142.749 56.8876C143.054 57.4799 143.207 58.1871 143.207 59.0111V59.3364C143.207 59.5592 143.197 59.7872 143.176 60.0189C143.154 60.2505 143.124 60.4697 143.087 60.673H140.938C140.957 60.3318 140.968 60.0082 140.969 59.7024C140.973 59.3965 140.975 59.1189 140.975 58.8714C140.975 58.4435 140.906 58.0811 140.77 57.7805C140.634 57.4799 140.428 57.2518 140.149 57.098C139.871 56.9442 139.516 56.8664 139.084 56.8664C138.447 56.8664 137.978 57.0432 137.675 57.3968C137.372 57.7504 137.222 58.2508 137.222 58.9014V59.7466L137.231 60.0153V60.7314C137.231 61.0161 137.275 61.2795 137.365 61.5217C137.455 61.764 137.604 61.9726 137.814 62.1494C138.024 62.3262 138.305 62.4641 138.652 62.5631C139.001 62.6622 139.439 62.7116 139.964 62.7116C140.532 62.7116 141.075 62.648 141.59 62.5207C142.105 62.3934 142.595 62.2219 143.059 62.0044L142.855 63.8804C142.44 64.1102 141.953 64.2905 141.394 64.4231C140.835 64.5557 140.216 64.6229 139.536 64.6229L139.537 64.6212ZM142.604 60.673H136.183V59.0942H142.604V60.673Z" fill="white"/>
<path d="M148.664 64.6301C147.262 64.6301 146.221 64.2588 145.546 63.5162C144.869 62.7736 144.532 61.7287 144.532 60.385V59.2711C144.532 57.9326 144.872 56.8965 145.551 56.1592C146.23 55.422 147.269 55.0542 148.664 55.0542C149.029 55.0542 149.369 55.0843 149.688 55.1426C150.008 55.2009 150.297 55.2805 150.56 55.3795C150.822 55.4786 151.052 55.5846 151.249 55.696L151.443 57.694C151.14 57.503 150.803 57.3404 150.429 57.2113C150.055 57.0804 149.625 57.0168 149.136 57.0168C148.371 57.0168 147.81 57.2131 147.454 57.6073C147.098 58.0016 146.921 58.5727 146.921 59.3206V60.3054C146.921 61.048 147.105 61.6209 147.473 62.024C147.84 62.4271 148.408 62.6287 149.173 62.6287C149.662 62.6287 150.094 62.565 150.471 62.4377C150.849 62.3104 151.2 62.1548 151.528 61.9692L151.334 63.9759C151.03 64.1492 150.651 64.303 150.195 64.4356C149.738 64.5682 149.228 64.6354 148.666 64.6354L148.664 64.6301Z" fill="white"/>
<path d="M158.968 57.236H152.24V55.3601H159.171L158.967 57.236H158.968ZM156.707 64.593C155.935 64.593 155.32 64.4763 154.859 64.2447C154.399 64.013 154.067 63.6611 153.863 63.1908C153.658 62.7205 153.558 62.1406 153.558 61.4529V56.1398H155.912V61.101C155.912 61.5961 156.025 61.9603 156.251 62.1919C156.476 62.4235 156.873 62.5402 157.441 62.5402C157.774 62.5402 158.095 62.5048 158.404 62.4341C158.713 62.3634 158.997 62.2679 159.256 62.1512L159.051 64.1385C158.743 64.2818 158.388 64.3931 157.99 64.4727C157.591 64.554 157.162 64.593 156.706 64.593H156.707ZM155.847 55.5351H153.586L153.577 53.1199L155.94 52.8777L155.847 55.5351Z" fill="white"/>
</svg>
