<svg width="38" height="38" viewBox="0 0 38 38" fill="none" xmlns="http://www.w3.org/2000/svg">
<mask id="mask0_83_145" style="mask-type:alpha" maskUnits="userSpaceOnUse" x="0" y="0" width="38" height="38">
<rect y="18.9454" width="26.7928" height="26.7928" transform="rotate(-45 0 18.9454)" fill="#D9D9D9"/>
<rect x="0.707107" y="18.9454" width="25.7928" height="25.7928" transform="rotate(-45 0.707107 18.9454)" stroke="url(#paint0_linear_83_145)" stroke-opacity="0.4"/>
</mask>
<g mask="url(#mask0_83_145)">
<path d="M24.989 26.923L18.9458 20.8799L12.9026 26.923L10.9686 24.989L17.0118 18.9459L10.9686 12.9027L12.9026 10.9687L18.9458 17.0119L24.989 10.9687L26.923 12.9027L20.8798 18.9459L26.923 24.989L24.989 26.923Z" fill="white"/>
<path d="M12.9032 10.9833L18.946 17.0262L24.9889 10.9833L26.9086 12.903L20.8657 18.9459L26.9086 24.9887L24.9889 26.9084L18.946 20.8655L12.9032 26.9084L10.9835 24.9887L17.0263 18.9459L10.9835 12.903L12.9032 10.9833Z" stroke="url(#paint1_linear_83_145)" stroke-opacity="0.4" stroke-width="0.0208333"/>
</g>
<defs>
<linearGradient id="paint0_linear_83_145" x1="13.3964" y1="18.9454" x2="13.3964" y2="45.7382" gradientUnits="userSpaceOnUse">
<stop stop-color="white"/>
<stop offset="1" stop-color="#999999"/>
</linearGradient>
<linearGradient id="paint1_linear_83_145" x1="11.9356" y1="11.9357" x2="25.956" y2="25.956" gradientUnits="userSpaceOnUse">
<stop stop-color="white"/>
<stop offset="1" stop-color="#999999"/>
</linearGradient>
</defs>
</svg>
