<svg width="20" height="20" viewBox="0 0 20 20" fill="none" xmlns="http://www.w3.org/2000/svg">
<path d="M12.8 8.95C12.65 8.51667 12.4208 8.1375 12.1125 7.8125C11.8042 7.4875 11.4333 7.25 11 7.1V0C13.3833 0.233333 15.4125 1.1875 17.0875 2.8625C18.7625 4.5375 19.7167 6.56667 19.95 8.95H12.8ZM9 19.9C6.43333 19.65 4.29167 18.575 2.575 16.675C0.858333 14.775 0 12.5333 0 9.95C0 7.36667 0.858333 5.125 2.575 3.225C4.29167 1.325 6.43333 0.25 9 0V7.1C8.4 7.31667 7.91667 7.6875 7.55 8.2125C7.18333 8.7375 7 9.31667 7 9.95C7 10.5833 7.18333 11.1542 7.55 11.6625C7.91667 12.1708 8.4 12.5333 9 12.75V19.9ZM11 19.9V12.75C11.4333 12.6 11.8042 12.3708 12.1125 12.0625C12.4208 11.7542 12.65 11.3833 12.8 10.95H19.95C19.7167 13.3333 18.7625 15.3625 17.0875 17.0375C15.4125 18.7125 13.3833 19.6667 11 19.9Z" fill="url(#paint0_linear_102_373)"/>
<defs>
<linearGradient id="paint0_linear_102_373" x1="9.975" y1="0" x2="9.975" y2="19.9" gradientUnits="userSpaceOnUse">
<stop stop-color="#932ACE"/>
<stop offset="1" stop-color="#FF953A"/>
</linearGradient>
</defs>
</svg>
