<svg width="47" height="47" viewBox="0 0 47 47" fill="none" xmlns="http://www.w3.org/2000/svg">
<g clip-path="url(#clip0_3917_1918)">
<path d="M23.7113 47.0002L23.6865 24.9248" stroke="#3E1A51" stroke-miterlimit="10"/>
<path d="M23.6618 41.6484L20.3418 45.0427" stroke="#3E1A51" stroke-miterlimit="10"/>
<path d="M23.6611 41.6484L27.0554 44.9684" stroke="#3E1A51" stroke-miterlimit="10"/>
<path d="M23.6366 32.333L17.4922 38.6013" stroke="#3E1A51" stroke-miterlimit="10"/>
<path d="M23.6367 32.333L29.905 38.5022" stroke="#3E1A51" stroke-miterlimit="10"/>
<path d="M7.01074 40.2612L22.6196 24.6523" stroke="#3E1A51" stroke-miterlimit="10"/>
<path d="M10.8019 36.4453L6.04492 36.4949" stroke="#3E1A51" stroke-miterlimit="10"/>
<path d="M10.8018 36.4453L10.8265 41.2023" stroke="#3E1A51" stroke-miterlimit="10"/>
<path d="M17.3677 29.8555L8.57227 29.9298" stroke="#3E1A51" stroke-miterlimit="10"/>
<path d="M17.3672 29.8555L17.4415 38.6262" stroke="#3E1A51" stroke-miterlimit="10"/>
<path d="M0 23.7113L22.0754 23.6865" stroke="#3E1A51" stroke-miterlimit="10"/>
<path d="M5.35195 23.6618L1.98242 20.3418" stroke="#3E1A51" stroke-miterlimit="10"/>
<path d="M5.35123 23.6611L2.03125 27.0554" stroke="#3E1A51" stroke-miterlimit="10"/>
<path d="M14.6677 23.6366L8.39941 17.4922" stroke="#3E1A51" stroke-miterlimit="10"/>
<path d="M14.6669 23.6367L8.52246 29.905" stroke="#3E1A51" stroke-miterlimit="10"/>
<path d="M6.73926 7.01074L22.3481 22.6196" stroke="#3E1A51" stroke-miterlimit="10"/>
<path d="M10.5544 10.8019L10.5049 6.04492" stroke="#3E1A51" stroke-miterlimit="10"/>
<path d="M10.5548 10.8018L5.79785 10.8265" stroke="#3E1A51" stroke-miterlimit="10"/>
<path d="M17.1456 17.3677L17.0713 8.57227" stroke="#3E1A51" stroke-miterlimit="10"/>
<path d="M17.1457 17.3672L8.375 17.4415" stroke="#3E1A51" stroke-miterlimit="10"/>
<path d="M23.29 0L23.3148 22.0754" stroke="#3E1A51" stroke-miterlimit="10"/>
<path d="M23.3389 5.35195L26.6588 1.98242" stroke="#3E1A51" stroke-miterlimit="10"/>
<path d="M23.3396 5.35123L19.9453 2.03125" stroke="#3E1A51" stroke-miterlimit="10"/>
<path d="M23.3643 14.6677L29.5087 8.39941" stroke="#3E1A51" stroke-miterlimit="10"/>
<path d="M23.364 14.6669L17.0957 8.52246" stroke="#3E1A51" stroke-miterlimit="10"/>
<path d="M39.9887 6.73926L24.3799 22.3481" stroke="#3E1A51" stroke-miterlimit="10"/>
<path d="M36.1982 10.5544L40.9552 10.5049" stroke="#3E1A51" stroke-miterlimit="10"/>
<path d="M36.1976 10.5548L36.1729 5.79785" stroke="#3E1A51" stroke-miterlimit="10"/>
<path d="M29.6328 17.1453L38.4283 17.0957" stroke="#3E1A51" stroke-miterlimit="10"/>
<path d="M29.6319 17.1457L29.5576 8.375" stroke="#3E1A51" stroke-miterlimit="10"/>
<path d="M47.0002 23.3145H24.9248" stroke="#3E1A51" stroke-miterlimit="10"/>
<path d="M41.6484 23.3389L45.018 26.6588" stroke="#3E1A51" stroke-miterlimit="10"/>
<path d="M41.6484 23.3396L44.9684 19.9453" stroke="#3E1A51" stroke-miterlimit="10"/>
<path d="M32.333 23.3643L38.6013 29.5087" stroke="#3E1A51" stroke-miterlimit="10"/>
<path d="M32.333 23.364L38.4774 17.0957" stroke="#3E1A51" stroke-miterlimit="10"/>
<path d="M40.2612 39.9887L24.6523 24.3799" stroke="#3E1A51" stroke-miterlimit="10"/>
<path d="M36.4453 36.1982L36.4949 40.9552" stroke="#3E1A51" stroke-miterlimit="10"/>
<path d="M36.4453 36.1976L41.2023 36.1729" stroke="#3E1A51" stroke-miterlimit="10"/>
<path d="M29.8555 29.6328L29.9298 38.4283" stroke="#3E1A51" stroke-miterlimit="10"/>
<path d="M29.8555 29.6319L38.6262 29.5576" stroke="#3E1A51" stroke-miterlimit="10"/>
</g>
<defs>
<clipPath id="clip0_3917_1918">
<rect width="47" height="47" fill="white"/>
</clipPath>
</defs>
</svg>
