<svg width="414" height="212" viewBox="0 0 414 212" fill="none" xmlns="http://www.w3.org/2000/svg">
<g filter="url(#filter0_d_4003_509)">
<path d="M17 16C17 7.16344 24.1634 0 33 0H371V161H33C24.1634 161 17 153.837 17 145V16Z" fill="white"/>
</g>
<path d="M47.304 30.088H61.832V34.184H51.624V39.752H60.808V43.848H51.624V53H47.304V30.088ZM65.1478 30.088H69.4678V48.904H79.1638V53H65.1478V30.088ZM88.9295 30.088H93.8575L102.466 53H97.6975L95.8095 47.528H86.9775L85.0895 53H80.3215L88.9295 30.088ZM94.4015 43.56L92.3535 37.832L91.5215 35.048H91.2655L90.4335 37.832L88.3855 43.56H94.4015ZM107.918 53V34.184H101.518V30.088H118.638V34.184H112.238V53H107.918ZM127.91 53V49.192C129.168 47.9547 130.331 46.8027 131.398 45.736C131.846 45.288 132.304 44.8293 132.774 44.36C133.243 43.8907 133.68 43.4533 134.086 43.048C134.491 42.6427 134.854 42.28 135.174 41.96C135.494 41.6187 135.739 41.352 135.91 41.16C136.251 40.7547 136.55 40.392 136.806 40.072C137.083 39.752 137.296 39.4427 137.446 39.144C137.616 38.824 137.744 38.5147 137.83 38.216C137.915 37.896 137.958 37.5547 137.958 37.192C137.958 36.488 137.68 35.88 137.126 35.368C136.571 34.8347 135.814 34.568 134.854 34.568C133.894 34.568 133.147 34.8453 132.614 35.4C132.08 35.9333 131.718 36.5413 131.526 37.224L127.718 35.656C127.888 35.08 128.166 34.4933 128.549 33.896C128.934 33.2773 129.424 32.7333 130.022 32.264C130.619 31.7733 131.323 31.3787 132.134 31.08C132.966 30.76 133.894 30.6 134.918 30.6C136.027 30.6 137.03 30.7707 137.926 31.112C138.822 31.432 139.579 31.88 140.198 32.456C140.816 33.032 141.296 33.7147 141.638 34.504C141.979 35.272 142.15 36.104 142.15 37C142.15 38.3653 141.808 39.624 141.126 40.776C140.464 41.9067 139.654 42.9627 138.694 43.944L135.942 46.696C135.216 47.4213 134.395 48.232 133.478 49.128L133.606 49.32H142.47V53H127.91ZM152.931 53.512C152.099 53.512 151.267 53.3947 150.435 53.16C149.624 52.9253 148.867 52.5627 148.163 52.072C147.459 51.5813 146.84 50.9733 146.307 50.248C145.795 49.5013 145.411 48.616 145.155 47.592L148.963 46.12C149.198 47.1867 149.646 48.04 150.307 48.68C150.99 49.32 151.854 49.64 152.899 49.64C153.411 49.64 153.88 49.5547 154.307 49.384C154.755 49.192 155.139 48.936 155.459 48.616C155.8 48.296 156.056 47.9227 156.227 47.496C156.419 47.048 156.515 46.5573 156.515 46.024C156.515 45.512 156.419 45.0427 156.227 44.616C156.056 44.168 155.811 43.784 155.491 43.464C155.171 43.1227 154.787 42.8667 154.339 42.696C153.912 42.504 153.432 42.408 152.899 42.408C152.238 42.408 151.651 42.5573 151.139 42.856C150.627 43.1333 150.19 43.4853 149.827 43.912L145.763 42.056L147.043 31.112H159.363V34.792H150.531L149.699 39.912L149.955 39.976C150.382 39.6133 150.904 39.304 151.523 39.048C152.142 38.792 152.888 38.664 153.763 38.664C154.68 38.664 155.555 38.8453 156.387 39.208C157.219 39.5493 157.955 40.04 158.595 40.68C159.235 41.32 159.747 42.0987 160.131 43.016C160.515 43.912 160.707 44.9147 160.707 46.024C160.707 47.112 160.515 48.1147 160.131 49.032C159.747 49.9493 159.203 50.7387 158.499 51.4C157.816 52.0613 156.995 52.584 156.035 52.968C155.096 53.3307 154.062 53.512 152.931 53.512ZM162.962 36.072C162.962 35.3253 163.1 34.6213 163.378 33.96C163.676 33.2987 164.071 32.7227 164.562 32.232C165.074 31.72 165.671 31.3253 166.354 31.048C167.036 30.7493 167.783 30.6 168.594 30.6C169.404 30.6 170.151 30.7493 170.834 31.048C171.538 31.3253 172.135 31.72 172.626 32.232C173.138 32.7227 173.532 33.2987 173.81 33.96C174.108 34.6213 174.258 35.3253 174.258 36.072C174.258 36.8187 174.108 37.5333 173.81 38.216C173.532 38.8773 173.138 39.4533 172.626 39.944C172.135 40.4347 171.538 40.8293 170.834 41.128C170.151 41.4053 169.404 41.544 168.594 41.544C167.783 41.544 167.036 41.4053 166.354 41.128C165.671 40.8293 165.074 40.4347 164.562 39.944C164.071 39.4533 163.676 38.8773 163.378 38.216C163.1 37.5333 162.962 36.8187 162.962 36.072ZM166.386 36.072C166.386 36.776 166.599 37.3413 167.026 37.768C167.452 38.1947 167.975 38.408 168.594 38.408C169.212 38.408 169.735 38.1947 170.161 37.768C170.588 37.3413 170.802 36.776 170.802 36.072C170.802 35.368 170.588 34.8027 170.161 34.376C169.735 33.9493 169.212 33.736 168.594 33.736C167.975 33.736 167.452 33.9493 167.026 34.376C166.599 34.8027 166.386 35.368 166.386 36.072ZM167.026 51.816L181.234 30.6L183.762 32.296L169.554 53.512L167.026 51.816ZM176.53 48.04C176.53 47.2933 176.668 46.5893 176.946 45.928C177.244 45.2667 177.639 44.6907 178.13 44.2C178.642 43.688 179.239 43.2933 179.922 43.016C180.604 42.7173 181.351 42.568 182.162 42.568C182.972 42.568 183.719 42.7173 184.402 43.016C185.106 43.2933 185.703 43.688 186.194 44.2C186.706 44.6907 187.1 45.2667 187.378 45.928C187.676 46.5893 187.826 47.2933 187.826 48.04C187.826 48.7867 187.676 49.5013 187.378 50.184C187.1 50.8453 186.706 51.4213 186.194 51.912C185.703 52.4027 185.106 52.7867 184.402 53.064C183.719 53.3627 182.972 53.512 182.162 53.512C181.351 53.512 180.604 53.3627 179.922 53.064C179.239 52.7867 178.642 52.4027 178.13 51.912C177.639 51.4213 177.244 50.8453 176.946 50.184C176.668 49.5013 176.53 48.7867 176.53 48.04ZM179.954 48.04C179.954 48.744 180.167 49.3093 180.594 49.736C181.02 50.1627 181.543 50.376 182.162 50.376C182.78 50.376 183.303 50.1627 183.73 49.736C184.156 49.3093 184.37 48.744 184.37 48.04C184.37 47.336 184.156 46.7707 183.73 46.344C183.303 45.9173 182.78 45.704 182.162 45.704C181.543 45.704 181.02 45.9173 180.594 46.344C180.167 46.7707 179.954 47.336 179.954 48.04ZM217.586 49.32C216.455 50.6853 215.122 51.7307 213.586 52.456C212.05 53.16 210.333 53.512 208.434 53.512C206.727 53.512 205.138 53.2027 203.666 52.584C202.215 51.9653 200.957 51.1227 199.89 50.056C198.823 48.9893 197.981 47.7307 197.362 46.28C196.743 44.808 196.434 43.2293 196.434 41.544C196.434 39.8587 196.743 38.2907 197.362 36.84C197.981 35.368 198.823 34.0987 199.89 33.032C200.957 31.9653 202.215 31.1227 203.666 30.504C205.138 29.8853 206.727 29.576 208.434 29.576C210.269 29.576 211.879 29.896 213.266 30.536C214.674 31.176 215.922 32.104 217.01 33.32L213.97 36.264C213.287 35.4747 212.498 34.8453 211.602 34.376C210.727 33.9067 209.682 33.672 208.466 33.672C207.399 33.672 206.397 33.864 205.458 34.248C204.519 34.6107 203.698 35.1333 202.994 35.816C202.311 36.4987 201.767 37.3307 201.362 38.312C200.957 39.272 200.754 40.3493 200.754 41.544C200.754 42.7387 200.957 43.8267 201.362 44.808C201.767 45.768 202.311 46.5893 202.994 47.272C203.698 47.9547 204.519 48.488 205.458 48.872C206.397 49.2347 207.399 49.416 208.466 49.416C209.746 49.416 210.877 49.16 211.858 48.648C212.861 48.1147 213.746 47.368 214.514 46.408L217.586 49.32ZM229.581 51.336H229.325C228.834 51.9333 228.237 52.4453 227.533 52.872C226.85 53.2987 225.965 53.512 224.877 53.512C224.066 53.512 223.298 53.3733 222.573 53.096C221.869 52.84 221.25 52.4773 220.717 52.008C220.184 51.5387 219.768 50.9733 219.469 50.312C219.17 49.6507 219.021 48.9253 219.021 48.136C219.021 47.3253 219.181 46.6 219.501 45.96C219.821 45.2987 220.269 44.7333 220.845 44.264C221.421 43.7947 222.093 43.4427 222.861 43.208C223.65 42.952 224.504 42.824 225.421 42.824C226.445 42.824 227.288 42.9093 227.949 43.08C228.61 43.2293 229.154 43.3893 229.581 43.56V43.08C229.581 42.248 229.25 41.5653 228.589 41.032C227.928 40.4773 227.106 40.2 226.125 40.2C224.674 40.2 223.448 40.808 222.445 42.024L219.405 39.944C221.069 37.8533 223.341 36.808 226.221 36.808C228.653 36.808 230.509 37.384 231.789 38.536C233.069 39.6667 233.709 41.352 233.709 43.592V53H229.581V51.336ZM229.581 46.632C229.09 46.3973 228.578 46.216 228.045 46.088C227.533 45.9387 226.968 45.864 226.349 45.864C225.346 45.864 224.568 46.088 224.013 46.536C223.48 46.9627 223.213 47.496 223.213 48.136C223.213 48.776 223.469 49.288 223.981 49.672C224.514 50.056 225.122 50.248 225.805 50.248C226.36 50.248 226.872 50.152 227.341 49.96C227.81 49.7467 228.205 49.48 228.525 49.16C228.866 48.8187 229.122 48.4347 229.293 48.008C229.485 47.56 229.581 47.1013 229.581 46.632ZM243.094 53.512C242.07 53.512 241.152 53.384 240.342 53.128C239.552 52.872 238.859 52.5413 238.262 52.136C237.686 51.7093 237.195 51.2293 236.79 50.696C236.384 50.1413 236.075 49.5867 235.862 49.032L239.606 47.432C239.968 48.2427 240.448 48.8507 241.046 49.256C241.664 49.64 242.347 49.832 243.094 49.832C243.862 49.832 244.47 49.6933 244.918 49.416C245.366 49.1387 245.59 48.808 245.59 48.424C245.59 47.9973 245.398 47.656 245.014 47.4C244.651 47.1227 244.011 46.8773 243.094 46.664L240.886 46.184C240.395 46.0773 239.883 45.9067 239.35 45.672C238.838 45.4373 238.368 45.1387 237.942 44.776C237.515 44.4133 237.163 43.976 236.886 43.464C236.608 42.952 236.47 42.3547 236.47 41.672C236.47 40.904 236.63 40.2213 236.95 39.624C237.291 39.0267 237.75 38.5253 238.326 38.12C238.902 37.6933 239.574 37.3733 240.342 37.16C241.131 36.9253 241.974 36.808 242.87 36.808C244.363 36.808 245.696 37.1067 246.87 37.704C248.043 38.28 248.907 39.208 249.462 40.488L245.846 41.96C245.547 41.3413 245.11 40.8933 244.534 40.616C243.958 40.3387 243.382 40.2 242.806 40.2C242.208 40.2 241.686 40.328 241.238 40.584C240.79 40.8187 240.566 41.128 240.566 41.512C240.566 41.8747 240.747 42.1627 241.11 42.376C241.494 42.5893 242.006 42.7813 242.646 42.952L245.046 43.528C246.646 43.912 247.83 44.5307 248.598 45.384C249.387 46.216 249.782 47.208 249.782 48.36C249.782 49.0427 249.622 49.6933 249.302 50.312C248.982 50.9307 248.523 51.4853 247.926 51.976C247.35 52.4453 246.646 52.8187 245.814 53.096C245.003 53.3733 244.096 53.512 243.094 53.512ZM252.355 30.088H256.547V36.52L256.291 39.368H256.547C256.995 38.6213 257.635 38.0133 258.467 37.544C259.32 37.0533 260.269 36.808 261.315 36.808C263.341 36.808 264.835 37.4053 265.795 38.6C266.776 39.7947 267.267 41.4267 267.267 43.496V53H263.075V44.008C263.075 42.92 262.819 42.0987 262.307 41.544C261.795 40.968 261.08 40.68 260.163 40.68C259.587 40.68 259.075 40.808 258.627 41.064C258.179 41.2987 257.795 41.6293 257.475 42.056C257.176 42.4827 256.941 42.984 256.771 43.56C256.621 44.1147 256.547 44.712 256.547 45.352V53H252.355V30.088ZM270.73 30.088H274.922V36.968L274.666 39.208H274.922C275.306 38.5467 275.903 37.9813 276.714 37.512C277.524 37.0427 278.527 36.808 279.722 36.808C280.724 36.808 281.674 37.0213 282.57 37.448C283.487 37.8533 284.287 38.4293 284.97 39.176C285.674 39.9013 286.228 40.776 286.634 41.8C287.039 42.824 287.242 43.944 287.242 45.16C287.242 46.376 287.039 47.496 286.634 48.52C286.228 49.544 285.674 50.4293 284.97 51.176C284.287 51.9013 283.487 52.4773 282.57 52.904C281.674 53.3093 280.724 53.512 279.722 53.512C278.527 53.512 277.524 53.2773 276.714 52.808C275.903 52.3387 275.306 51.7733 274.922 51.112H274.666V53H270.73V30.088ZM278.858 49.64C279.412 49.64 279.935 49.5333 280.426 49.32C280.938 49.1067 281.386 48.808 281.77 48.424C282.154 48.04 282.463 47.5707 282.698 47.016C282.932 46.4613 283.05 45.8427 283.05 45.16C283.05 44.4773 282.932 43.8587 282.698 43.304C282.463 42.7493 282.154 42.28 281.77 41.896C281.386 41.512 280.938 41.2133 280.426 41C279.935 40.7867 279.412 40.68 278.858 40.68C278.303 40.68 277.77 40.7867 277.258 41C276.767 41.192 276.33 41.48 275.946 41.864C275.562 42.248 275.252 42.7173 275.018 43.272C274.783 43.8267 274.666 44.456 274.666 45.16C274.666 45.864 274.783 46.4933 275.018 47.048C275.252 47.6027 275.562 48.072 275.946 48.456C276.33 48.84 276.767 49.1387 277.258 49.352C277.77 49.544 278.303 49.64 278.858 49.64ZM299.581 51.336H299.325C298.834 51.9333 298.237 52.4453 297.533 52.872C296.85 53.2987 295.965 53.512 294.877 53.512C294.066 53.512 293.298 53.3733 292.573 53.096C291.869 52.84 291.25 52.4773 290.717 52.008C290.184 51.5387 289.768 50.9733 289.469 50.312C289.17 49.6507 289.021 48.9253 289.021 48.136C289.021 47.3253 289.181 46.6 289.501 45.96C289.821 45.2987 290.269 44.7333 290.845 44.264C291.421 43.7947 292.093 43.4427 292.861 43.208C293.65 42.952 294.504 42.824 295.421 42.824C296.445 42.824 297.288 42.9093 297.949 43.08C298.61 43.2293 299.154 43.3893 299.581 43.56V43.08C299.581 42.248 299.25 41.5653 298.589 41.032C297.928 40.4773 297.106 40.2 296.125 40.2C294.674 40.2 293.448 40.808 292.445 42.024L289.405 39.944C291.069 37.8533 293.341 36.808 296.221 36.808C298.653 36.808 300.509 37.384 301.789 38.536C303.069 39.6667 303.709 41.352 303.709 43.592V53H299.581V51.336ZM299.581 46.632C299.09 46.3973 298.578 46.216 298.045 46.088C297.533 45.9387 296.968 45.864 296.349 45.864C295.346 45.864 294.568 46.088 294.013 46.536C293.48 46.9627 293.213 47.496 293.213 48.136C293.213 48.776 293.469 49.288 293.981 49.672C294.514 50.056 295.122 50.248 295.805 50.248C296.36 50.248 296.872 50.152 297.341 49.96C297.81 49.7467 298.205 49.48 298.525 49.16C298.866 48.8187 299.122 48.4347 299.293 48.008C299.485 47.56 299.581 47.1013 299.581 46.632ZM321.766 49C321.083 50.3227 320.123 51.4107 318.886 52.264C317.67 53.096 316.144 53.512 314.31 53.512C313.094 53.512 311.974 53.3093 310.95 52.904C309.947 52.4773 309.072 51.8907 308.326 51.144C307.6 50.3973 307.024 49.5227 306.598 48.52C306.192 47.496 305.99 46.376 305.99 45.16C305.99 43.944 306.192 42.824 306.598 41.8C307.024 40.776 307.6 39.9013 308.326 39.176C309.072 38.4293 309.947 37.8533 310.95 37.448C311.974 37.0213 313.094 36.808 314.31 36.808C316.123 36.808 317.648 37.224 318.886 38.056C320.123 38.888 321.03 39.9653 321.606 41.288L317.766 42.888C317.403 42.1627 316.934 41.6187 316.358 41.256C315.803 40.872 315.099 40.68 314.246 40.68C313.691 40.68 313.168 40.7867 312.678 41C312.187 41.2133 311.75 41.512 311.366 41.896C311.003 42.28 310.715 42.7493 310.502 43.304C310.288 43.8587 310.182 44.4773 310.182 45.16C310.182 45.8427 310.288 46.4613 310.502 47.016C310.715 47.5707 311.003 48.04 311.366 48.424C311.75 48.808 312.187 49.1067 312.678 49.32C313.168 49.5333 313.691 49.64 314.246 49.64C315.12 49.64 315.856 49.448 316.454 49.064C317.072 48.6587 317.563 48.0827 317.926 47.336L321.766 49ZM324.323 30.088H328.515V42.568H328.707L333.955 37.32H339.139V37.576L333.315 43.24L339.619 52.744V53H334.659L330.371 46.12L328.515 47.944V53H324.323V30.088ZM55.688 92.512C54.344 92.512 53.1173 92.2987 52.008 91.872C50.92 91.424 49.992 90.784 49.224 89.952C48.456 89.12 47.8587 88.1173 47.432 86.944C47.0053 85.7493 46.792 84.3947 46.792 82.88V69.088H51.112V83.136C51.112 83.904 51.208 84.608 51.4 85.248C51.592 85.888 51.88 86.4427 52.264 86.912C52.648 87.3813 53.128 87.7547 53.704 88.032C54.28 88.288 54.9413 88.416 55.688 88.416C56.456 88.416 57.128 88.288 57.704 88.032C58.28 87.7547 58.76 87.3813 59.144 86.912C59.528 86.4427 59.816 85.888 60.008 85.248C60.2 84.608 60.296 83.904 60.296 83.136V69.088H64.616V82.88C64.616 84.3093 64.4027 85.6213 63.976 86.816C63.5707 87.9893 62.9733 89.0027 62.184 89.856C61.416 90.688 60.4773 91.3387 59.368 91.808C58.28 92.2773 57.0533 92.512 55.688 92.512ZM68.0703 76.32H72.0063V78.208H72.2623C72.6463 77.5467 73.2436 76.9813 74.0543 76.512C74.8649 76.0427 75.8676 75.808 77.0623 75.808C78.0649 75.808 79.0143 76.0213 79.9103 76.448C80.8276 76.8533 81.6276 77.4293 82.3103 78.176C83.0143 78.9013 83.5689 79.776 83.9743 80.8C84.3796 81.824 84.5823 82.944 84.5823 84.16C84.5823 85.376 84.3796 86.496 83.9743 87.52C83.5689 88.544 83.0143 89.4293 82.3103 90.176C81.6276 90.9013 80.8276 91.4773 79.9103 91.904C79.0143 92.3093 78.0649 92.512 77.0623 92.512C75.8676 92.512 74.8649 92.2773 74.0543 91.808C73.2436 91.3387 72.6463 90.7733 72.2623 90.112H72.0063L72.2623 92.352V98.912H68.0703V76.32ZM76.1983 88.64C76.7529 88.64 77.2756 88.5333 77.7663 88.32C78.2783 88.1067 78.7263 87.808 79.1103 87.424C79.4943 87.04 79.8036 86.5707 80.0383 86.016C80.2729 85.4613 80.3903 84.8427 80.3903 84.16C80.3903 83.4773 80.2729 82.8587 80.0383 82.304C79.8036 81.7493 79.4943 81.28 79.1103 80.896C78.7263 80.512 78.2783 80.2133 77.7663 80C77.2756 79.7867 76.7529 79.68 76.1983 79.68C75.6436 79.68 75.1103 79.7867 74.5983 80C74.1076 80.192 73.6703 80.48 73.2863 80.864C72.9023 81.248 72.5929 81.7173 72.3583 82.272C72.1236 82.8267 72.0063 83.456 72.0063 84.16C72.0063 84.864 72.1236 85.4933 72.3583 86.048C72.5929 86.6027 72.9023 87.072 73.2863 87.456C73.6703 87.84 74.1076 88.1387 74.5983 88.352C75.1103 88.544 75.6436 88.64 76.1983 88.64ZM96.02 79.904H93.268V76.32H96.02V71.52H100.212V76.32H104.052V79.904H100.212V85.984C100.212 86.3467 100.244 86.688 100.308 87.008C100.393 87.3067 100.543 87.5627 100.756 87.776C101.055 88.1173 101.481 88.288 102.036 88.288C102.399 88.288 102.687 88.256 102.9 88.192C103.113 88.1067 103.316 88 103.508 87.872L104.692 91.552C104.201 91.7867 103.668 91.9573 103.092 92.064C102.537 92.192 101.919 92.256 101.236 92.256C100.447 92.256 99.732 92.1387 99.092 91.904C98.4733 91.648 97.9507 91.3067 97.524 90.88C96.5213 89.92 96.02 88.5547 96.02 86.784V79.904ZM114.404 75.808C115.62 75.808 116.729 76.0213 117.732 76.448C118.756 76.8533 119.63 77.4293 120.356 78.176C121.102 78.9013 121.678 79.776 122.083 80.8C122.51 81.824 122.724 82.944 122.724 84.16C122.724 85.376 122.51 86.496 122.083 87.52C121.678 88.544 121.102 89.4293 120.356 90.176C119.63 90.9013 118.756 91.4773 117.732 91.904C116.729 92.3093 115.62 92.512 114.404 92.512C113.188 92.512 112.068 92.3093 111.044 91.904C110.041 91.4773 109.166 90.9013 108.42 90.176C107.694 89.4293 107.118 88.544 106.692 87.52C106.286 86.496 106.084 85.376 106.084 84.16C106.084 82.944 106.286 81.824 106.692 80.8C107.118 79.776 107.694 78.9013 108.42 78.176C109.166 77.4293 110.041 76.8533 111.044 76.448C112.068 76.0213 113.188 75.808 114.404 75.808ZM114.404 88.64C114.937 88.64 115.449 88.544 115.94 88.352C116.452 88.1387 116.9 87.84 117.284 87.456C117.668 87.072 117.966 86.6027 118.18 86.048C118.414 85.4933 118.532 84.864 118.532 84.16C118.532 83.456 118.414 82.8267 118.18 82.272C117.966 81.7173 117.668 81.248 117.284 80.864C116.9 80.48 116.452 80.192 115.94 80C115.449 79.7867 114.937 79.68 114.404 79.68C113.849 79.68 113.326 79.7867 112.836 80C112.345 80.192 111.908 80.48 111.524 80.864C111.14 81.248 110.83 81.7173 110.596 82.272C110.382 82.8267 110.276 83.456 110.276 84.16C110.276 84.864 110.382 85.4933 110.596 86.048C110.83 86.6027 111.14 87.072 111.524 87.456C111.908 87.84 112.345 88.1387 112.836 88.352C113.326 88.544 113.849 88.64 114.404 88.64ZM138.496 92L132.736 81.952V79.584H134.656C135.424 79.584 136.096 79.4773 136.672 79.264C137.27 79.0293 137.76 78.6987 138.144 78.272C138.55 77.8453 138.827 77.3333 138.976 76.736H132.736V74.368H138.944C138.816 73.8133 138.592 73.3227 138.272 72.896C137.974 72.4693 137.568 72.1387 137.056 71.904C136.566 71.648 135.968 71.52 135.264 71.52H132.736V69.152H147.168V71.52H142.144C142.507 71.9253 142.806 72.3627 143.04 72.832C143.296 73.3013 143.467 73.8133 143.552 74.368H147.168V76.736H143.616C143.403 78.3147 142.795 79.552 141.792 80.448C140.79 81.3227 139.499 81.92 137.92 82.24L144.192 92H138.496ZM150.441 92V88.192C151.699 86.9547 152.862 85.8027 153.929 84.736C154.377 84.288 154.835 83.8293 155.305 83.36C155.774 82.8907 156.211 82.4533 156.617 82.048C157.022 81.6427 157.385 81.28 157.705 80.96C158.025 80.6187 158.27 80.352 158.441 80.16C158.782 79.7547 159.081 79.392 159.337 79.072C159.614 78.752 159.827 78.4427 159.977 78.144C160.147 77.824 160.275 77.5147 160.361 77.216C160.446 76.896 160.489 76.5547 160.489 76.192C160.489 75.488 160.211 74.88 159.657 74.368C159.102 73.8347 158.345 73.568 157.385 73.568C156.425 73.568 155.678 73.8453 155.145 74.4C154.611 74.9333 154.249 75.5413 154.057 76.224L150.249 74.656C150.419 74.08 150.697 73.4933 151.081 72.896C151.465 72.2773 151.955 71.7333 152.553 71.264C153.15 70.7733 153.854 70.3787 154.665 70.08C155.497 69.76 156.425 69.6 157.449 69.6C158.558 69.6 159.561 69.7707 160.457 70.112C161.353 70.432 162.11 70.88 162.729 71.456C163.347 72.032 163.827 72.7147 164.169 73.504C164.51 74.272 164.681 75.104 164.681 76C164.681 77.3653 164.339 78.624 163.657 79.776C162.995 80.9067 162.185 81.9627 161.225 82.944L158.473 85.696C157.747 86.4213 156.926 87.232 156.009 88.128L156.137 88.32H165.001V92H150.441ZM176.998 92.512C175.59 92.512 174.321 92.224 173.19 91.648C172.06 91.0507 171.089 90.24 170.278 89.216C169.489 88.192 168.881 86.9867 168.454 85.6C168.028 84.192 167.814 82.6773 167.814 81.056C167.814 79.4347 168.028 77.9307 168.454 76.544C168.881 75.136 169.489 73.92 170.278 72.896C171.089 71.872 172.06 71.072 173.19 70.496C174.321 69.8987 175.59 69.6 176.998 69.6C178.406 69.6 179.676 69.8987 180.806 70.496C181.937 71.072 182.897 71.872 183.686 72.896C184.497 73.92 185.116 75.136 185.542 76.544C185.969 77.9307 186.182 79.4347 186.182 81.056C186.182 82.6773 185.969 84.192 185.542 85.6C185.116 86.9867 184.497 88.192 183.686 89.216C182.897 90.24 181.937 91.0507 180.806 91.648C179.676 92.224 178.406 92.512 176.998 92.512ZM176.998 88.544C177.766 88.544 178.46 88.3627 179.078 88C179.697 87.616 180.22 87.0933 180.646 86.432C181.094 85.7493 181.425 84.9493 181.638 84.032C181.873 83.1147 181.99 82.1227 181.99 81.056C181.99 79.968 181.873 78.976 181.638 78.08C181.425 77.1627 181.094 76.3733 180.646 75.712C180.22 75.0293 179.697 74.5067 179.078 74.144C178.46 73.76 177.766 73.568 176.998 73.568C176.209 73.568 175.505 73.76 174.886 74.144C174.268 74.5067 173.745 75.0293 173.318 75.712C172.892 76.3733 172.561 77.1627 172.326 78.08C172.113 78.976 172.006 79.968 172.006 81.056C172.006 82.1227 172.113 83.1147 172.326 84.032C172.561 84.9493 172.892 85.7493 173.318 86.432C173.745 87.0933 174.268 87.616 174.886 88C175.505 88.3627 176.209 88.544 176.998 88.544ZM188.753 92V88.192C190.012 86.9547 191.175 85.8027 192.241 84.736C192.689 84.288 193.148 83.8293 193.617 83.36C194.087 82.8907 194.524 82.4533 194.929 82.048C195.335 81.6427 195.697 81.28 196.017 80.96C196.337 80.6187 196.583 80.352 196.753 80.16C197.095 79.7547 197.393 79.392 197.649 79.072C197.927 78.752 198.14 78.4427 198.289 78.144C198.46 77.824 198.588 77.5147 198.673 77.216C198.759 76.896 198.801 76.5547 198.801 76.192C198.801 75.488 198.524 74.88 197.969 74.368C197.415 73.8347 196.657 73.568 195.697 73.568C194.737 73.568 193.991 73.8453 193.457 74.4C192.924 74.9333 192.561 75.5413 192.369 76.224L188.561 74.656C188.732 74.08 189.009 73.4933 189.393 72.896C189.777 72.2773 190.268 71.7333 190.865 71.264C191.463 70.7733 192.167 70.3787 192.977 70.08C193.809 69.76 194.737 69.6 195.761 69.6C196.871 69.6 197.873 69.7707 198.769 70.112C199.665 70.432 200.423 70.88 201.041 71.456C201.66 72.032 202.14 72.7147 202.481 73.504C202.823 74.272 202.993 75.104 202.993 76C202.993 77.3653 202.652 78.624 201.969 79.776C201.308 80.9067 200.497 81.9627 199.537 82.944L196.785 85.696C196.06 86.4213 195.239 87.232 194.321 88.128L194.449 88.32H203.313V92H188.753ZM213.775 92.512C212.943 92.512 212.111 92.3947 211.279 92.16C210.468 91.9253 209.711 91.5627 209.007 91.072C208.303 90.5813 207.684 89.9733 207.151 89.248C206.639 88.5013 206.255 87.616 205.999 86.592L209.807 85.12C210.041 86.1867 210.489 87.04 211.151 87.68C211.833 88.32 212.697 88.64 213.743 88.64C214.255 88.64 214.724 88.5547 215.151 88.384C215.599 88.192 215.983 87.936 216.303 87.616C216.644 87.296 216.9 86.9227 217.071 86.496C217.263 86.048 217.359 85.5573 217.359 85.024C217.359 84.512 217.263 84.0427 217.071 83.616C216.9 83.168 216.655 82.784 216.335 82.464C216.015 82.1227 215.631 81.8667 215.183 81.696C214.756 81.504 214.276 81.408 213.743 81.408C213.081 81.408 212.495 81.5573 211.983 81.856C211.471 82.1333 211.033 82.4853 210.671 82.912L206.607 81.056L207.887 70.112H220.207V73.792H211.375L210.543 78.912L210.799 78.976C211.225 78.6133 211.748 78.304 212.367 78.048C212.985 77.792 213.732 77.664 214.607 77.664C215.524 77.664 216.399 77.8453 217.231 78.208C218.063 78.5493 218.799 79.04 219.439 79.68C220.079 80.32 220.591 81.0987 220.975 82.016C221.359 82.912 221.551 83.9147 221.551 85.024C221.551 86.112 221.359 87.1147 220.975 88.032C220.591 88.9493 220.047 89.7387 219.343 90.4C218.66 91.0613 217.839 91.584 216.879 91.968C215.94 92.3307 214.905 92.512 213.775 92.512Z" fill="black"/>
<path d="M45.672 128.12C45.672 126.312 46.24 124.816 47.376 123.632C48.528 122.448 49.976 121.856 51.72 121.856C53.464 121.856 54.904 122.448 56.04 123.632C57.192 124.816 57.768 126.312 57.768 128.12C57.768 129.944 57.192 131.44 56.04 132.608C54.904 133.792 53.464 134.384 51.72 134.384C49.976 134.384 48.528 133.792 47.376 132.608C46.24 131.424 45.672 129.928 45.672 128.12ZM47.88 128.12C47.88 129.384 48.248 130.408 48.984 131.192C49.72 131.976 50.632 132.368 51.72 132.368C52.808 132.368 53.72 131.976 54.456 131.192C55.192 130.408 55.56 129.384 55.56 128.12C55.56 126.872 55.192 125.856 54.456 125.072C53.704 124.272 52.792 123.872 51.72 123.872C50.648 123.872 49.736 124.272 48.984 125.072C48.248 125.856 47.88 126.872 47.88 128.12ZM59.5393 122.24H61.6513V123.872H61.7473C62.0833 123.296 62.5953 122.816 63.2833 122.432C63.9873 122.048 64.7153 121.856 65.4673 121.856C66.9073 121.856 68.0113 122.272 68.7793 123.104C69.5633 123.92 69.9553 125.088 69.9553 126.608V134H67.7473V126.752C67.6993 124.832 66.7313 123.872 64.8433 123.872C63.9633 123.872 63.2273 124.232 62.6353 124.952C62.0433 125.656 61.7473 126.504 61.7473 127.496V134H59.5393V122.24ZM83.7956 126.008V134H81.5876V126.008L75.8036 116.816H78.3956L82.6436 123.8H82.7396L86.8916 116.816H89.4836L83.7956 126.008ZM88.047 128.12C88.047 126.312 88.615 124.816 89.751 123.632C90.903 122.448 92.351 121.856 94.095 121.856C95.839 121.856 97.279 122.448 98.415 123.632C99.567 124.816 100.143 126.312 100.143 128.12C100.143 129.944 99.567 131.44 98.415 132.608C97.279 133.792 95.839 134.384 94.095 134.384C92.351 134.384 90.903 133.792 89.751 132.608C88.615 131.424 88.047 129.928 88.047 128.12ZM90.255 128.12C90.255 129.384 90.623 130.408 91.359 131.192C92.095 131.976 93.007 132.368 94.095 132.368C95.183 132.368 96.095 131.976 96.831 131.192C97.567 130.408 97.935 129.384 97.935 128.12C97.935 126.872 97.567 125.856 96.831 125.072C96.079 124.272 95.167 123.872 94.095 123.872C93.023 123.872 92.111 124.272 91.359 125.072C90.623 125.856 90.255 126.872 90.255 128.12ZM112.352 134H110.24V132.368H110.144C109.808 132.944 109.288 133.424 108.584 133.808C107.896 134.192 107.176 134.384 106.424 134.384C104.984 134.384 103.872 133.976 103.088 133.16C102.32 132.328 101.936 131.152 101.936 129.632V122.24H104.144V129.488C104.192 131.408 105.16 132.368 107.048 132.368C107.928 132.368 108.664 132.016 109.256 131.312C109.848 130.592 110.144 129.736 110.144 128.744V122.24H112.352V134ZM117.247 134H115.039V122.24H117.151V124.16H117.247C117.471 123.536 117.927 123.008 118.615 122.576C119.319 122.128 120.007 121.904 120.679 121.904C121.319 121.904 121.863 122 122.311 122.192L121.639 124.328C121.367 124.216 120.935 124.16 120.343 124.16C119.511 124.16 118.783 124.496 118.159 125.168C117.551 125.84 117.247 126.624 117.247 127.52V134ZM131.624 126.632V134H129.416V116.816H139.448V118.928H131.624V124.568H138.68V126.632H131.624ZM144.192 118.184C144.192 118.616 144.04 118.984 143.736 119.288C143.432 119.592 143.064 119.744 142.632 119.744C142.2 119.744 141.832 119.592 141.528 119.288C141.224 118.984 141.072 118.616 141.072 118.184C141.072 117.752 141.224 117.384 141.528 117.08C141.832 116.776 142.2 116.624 142.632 116.624C143.064 116.624 143.432 116.776 143.736 117.08C144.04 117.384 144.192 117.752 144.192 118.184ZM143.736 122.24V134H141.528V122.24H143.736ZM148.818 134H146.61V122.24H148.722V124.16H148.818C149.042 123.536 149.498 123.008 150.186 122.576C150.89 122.128 151.578 121.904 152.25 121.904C152.89 121.904 153.434 122 153.882 122.192L153.21 124.328C152.938 124.216 152.506 124.16 151.914 124.16C151.082 124.16 150.354 124.496 149.73 125.168C149.122 125.84 148.818 126.624 148.818 127.52V134ZM163.86 130.736C163.86 131.76 163.412 132.624 162.516 133.328C161.62 134.032 160.492 134.384 159.132 134.384C157.948 134.384 156.908 134.08 156.012 133.472C155.116 132.848 154.476 132.032 154.092 131.024L156.06 130.184C156.348 130.888 156.764 131.44 157.308 131.84C157.868 132.224 158.476 132.416 159.132 132.416C159.836 132.416 160.42 132.264 160.884 131.96C161.364 131.656 161.604 131.296 161.604 130.88C161.604 130.128 161.028 129.576 159.876 129.224L157.86 128.72C155.572 128.144 154.428 127.04 154.428 125.408C154.428 124.336 154.86 123.48 155.724 122.84C156.604 122.184 157.724 121.856 159.084 121.856C160.124 121.856 161.06 122.104 161.892 122.6C162.74 123.096 163.332 123.76 163.668 124.592L161.7 125.408C161.476 124.912 161.108 124.528 160.596 124.256C160.1 123.968 159.54 123.824 158.916 123.824C158.34 123.824 157.82 123.968 157.356 124.256C156.908 124.544 156.684 124.896 156.684 125.312C156.684 125.984 157.316 126.464 158.58 126.752L160.356 127.208C162.692 127.784 163.86 128.96 163.86 130.736ZM170.32 134.192C169.36 134.192 168.56 133.896 167.92 133.304C167.296 132.712 166.976 131.888 166.96 130.832V124.256H164.896V122.24H166.96V118.64H169.168V122.24H172.048V124.256H169.168V130.112C169.168 130.896 169.32 131.432 169.624 131.72C169.928 131.992 170.272 132.128 170.656 132.128C170.832 132.128 171 132.112 171.16 132.08C171.336 132.032 171.496 131.976 171.64 131.912L172.336 133.88C171.76 134.088 171.088 134.192 170.32 134.192ZM182.014 118.928V124.976H185.566C186.462 124.976 187.222 124.688 187.846 124.112C188.47 123.52 188.782 122.792 188.782 121.928C188.782 121.128 188.486 120.432 187.894 119.84C187.318 119.232 186.59 118.928 185.71 118.928H182.014ZM182.014 134H179.806V116.816H185.662C187.15 116.816 188.414 117.312 189.454 118.304C190.51 119.28 191.038 120.488 191.038 121.928C191.038 123.112 190.646 124.168 189.862 125.096C189.094 126.008 188.118 126.592 186.934 126.848L186.886 126.92L191.71 133.904V134H189.094L184.462 127.04H182.014V134ZM198.343 134.384C196.615 134.384 195.191 133.792 194.071 132.608C192.951 131.424 192.391 129.928 192.391 128.12C192.391 126.328 192.935 124.84 194.023 123.656C195.111 122.456 196.503 121.856 198.199 121.856C199.943 121.856 201.327 122.424 202.351 123.56C203.391 124.68 203.911 126.256 203.911 128.288L203.887 128.528H194.647C194.679 129.68 195.063 130.608 195.799 131.312C196.535 132.016 197.415 132.368 198.439 132.368C199.847 132.368 200.951 131.664 201.751 130.256L203.719 131.216C203.191 132.208 202.455 132.984 201.511 133.544C200.583 134.104 199.527 134.384 198.343 134.384ZM194.815 126.704H201.559C201.495 125.888 201.159 125.216 200.551 124.688C199.959 124.144 199.159 123.872 198.151 123.872C197.319 123.872 196.599 124.128 195.991 124.64C195.399 125.152 195.007 125.84 194.815 126.704ZM211.423 134.384C209.679 134.384 208.231 133.792 207.079 132.608C205.943 131.392 205.375 129.896 205.375 128.12C205.375 126.312 205.943 124.816 207.079 123.632C208.231 122.448 209.679 121.856 211.423 121.856C212.623 121.856 213.671 122.16 214.567 122.768C215.463 123.36 216.135 124.184 216.583 125.24L214.567 126.08C213.943 124.608 212.847 123.872 211.279 123.872C210.271 123.872 209.399 124.28 208.663 125.096C207.943 125.912 207.583 126.92 207.583 128.12C207.583 129.32 207.943 130.328 208.663 131.144C209.399 131.96 210.271 132.368 211.279 132.368C212.895 132.368 214.031 131.632 214.687 130.16L216.655 131C216.223 132.056 215.543 132.888 214.615 133.496C213.703 134.088 212.639 134.384 211.423 134.384ZM218.586 116.816H220.794V122.24L220.698 123.872H220.794C221.13 123.296 221.642 122.816 222.33 122.432C223.034 122.048 223.762 121.856 224.514 121.856C225.954 121.856 227.058 122.272 227.826 123.104C228.61 123.92 229.002 125.088 229.002 126.608V134H226.794V127.04C226.794 124.928 225.858 123.872 223.986 123.872C223.09 123.872 222.33 124.248 221.706 125C221.098 125.736 220.794 126.6 220.794 127.592V134H218.586V116.816ZM233.085 130.4C233.085 130.976 233.325 131.456 233.805 131.84C234.301 132.224 234.877 132.416 235.533 132.416C236.461 132.416 237.285 132.072 238.005 131.384C238.741 130.696 239.109 129.888 239.109 128.96C238.421 128.416 237.461 128.144 236.229 128.144C235.333 128.144 234.581 128.36 233.973 128.792C233.381 129.224 233.085 129.76 233.085 130.4ZM235.941 121.856C237.573 121.856 238.861 122.296 239.805 123.176C240.749 124.04 241.221 125.232 241.221 126.752V134H239.109V132.368H239.013C238.101 133.712 236.885 134.384 235.365 134.384C234.069 134.384 232.981 134 232.101 133.232C231.237 132.464 230.805 131.504 230.805 130.352C230.805 129.136 231.261 128.168 232.173 127.448C233.101 126.728 234.333 126.368 235.869 126.368C237.181 126.368 238.261 126.608 239.109 127.088V126.584C239.109 125.816 238.805 125.168 238.197 124.64C237.589 124.096 236.877 123.824 236.061 123.824C234.829 123.824 233.853 124.344 233.133 125.384L231.189 124.16C232.261 122.624 233.845 121.856 235.941 121.856ZM245.919 134H243.711V122.24H245.823V124.16H245.919C246.143 123.536 246.599 123.008 247.287 122.576C247.991 122.128 248.679 121.904 249.351 121.904C249.991 121.904 250.535 122 250.983 122.192L250.311 124.328C250.039 124.216 249.607 124.16 249.015 124.16C248.183 124.16 247.455 124.496 246.831 125.168C246.223 125.84 245.919 126.624 245.919 127.52V134ZM257.101 132.368C258.189 132.368 259.077 131.976 259.765 131.192C260.485 130.408 260.845 129.384 260.845 128.12C260.845 126.888 260.485 125.872 259.765 125.072C259.061 124.272 258.173 123.872 257.101 123.872C256.045 123.872 255.157 124.272 254.437 125.072C253.717 125.872 253.357 126.888 253.357 128.12C253.357 129.368 253.717 130.384 254.437 131.168C255.157 131.968 256.045 132.368 257.101 132.368ZM257.029 139.568C256.373 139.568 255.757 139.48 255.181 139.304C254.605 139.144 254.077 138.912 253.597 138.608C253.133 138.304 252.733 137.944 252.397 137.528C252.061 137.112 251.805 136.648 251.629 136.136L253.717 135.272C253.957 135.96 254.373 136.512 254.965 136.928C255.557 137.344 256.245 137.552 257.029 137.552C258.229 137.552 259.165 137.192 259.837 136.472C260.509 135.752 260.845 134.76 260.845 133.496V132.368H260.749C260.333 132.992 259.765 133.488 259.045 133.856C258.341 134.208 257.573 134.384 256.741 134.384C255.205 134.384 253.885 133.784 252.781 132.584C251.693 131.352 251.149 129.864 251.149 128.12C251.149 126.376 251.693 124.896 252.781 123.68C253.885 122.464 255.205 121.856 256.741 121.856C257.573 121.856 258.341 122.04 259.045 122.408C259.765 122.76 260.333 123.248 260.749 123.872H260.845V122.24H262.957V133.496C262.957 135.384 262.421 136.864 261.349 137.936C260.261 139.024 258.821 139.568 257.029 139.568ZM270.812 134.384C269.084 134.384 267.66 133.792 266.54 132.608C265.42 131.424 264.86 129.928 264.86 128.12C264.86 126.328 265.404 124.84 266.492 123.656C267.58 122.456 268.972 121.856 270.668 121.856C272.412 121.856 273.796 122.424 274.82 123.56C275.86 124.68 276.38 126.256 276.38 128.288L276.356 128.528H267.116C267.148 129.68 267.532 130.608 268.268 131.312C269.004 132.016 269.884 132.368 270.908 132.368C272.316 132.368 273.42 131.664 274.22 130.256L276.188 131.216C275.66 132.208 274.924 132.984 273.98 133.544C273.052 134.104 271.996 134.384 270.812 134.384ZM267.284 126.704H274.028C273.964 125.888 273.628 125.216 273.02 124.688C272.428 124.144 271.628 123.872 270.62 123.872C269.788 123.872 269.068 124.128 268.46 124.64C267.868 125.152 267.476 125.84 267.284 126.704Z" fill="black"/>
<g filter="url(#filter1_d_4003_509)">
<path d="M397 145C397 153.837 389.837 161 381 161L369 161L369 -2.44784e-06L381 -1.39877e-06C389.837 -6.26249e-07 397 7.16345 397 16L397 145Z" fill="#3E1A51"/>
</g>
<defs>
<filter id="filter0_d_4003_509" x="0.799999" y="0" width="386.4" height="211.2" filterUnits="userSpaceOnUse" color-interpolation-filters="sRGB">
<feFlood flood-opacity="0" result="BackgroundImageFix"/>
<feColorMatrix in="SourceAlpha" type="matrix" values="0 0 0 0 0 0 0 0 0 0 0 0 0 0 0 0 0 0 127 0" result="hardAlpha"/>
<feMorphology radius="28" operator="erode" in="SourceAlpha" result="effect1_dropShadow_4003_509"/>
<feOffset dy="34"/>
<feGaussianBlur stdDeviation="22.1"/>
<feComposite in2="hardAlpha" operator="out"/>
<feColorMatrix type="matrix" values="0 0 0 0 1 0 0 0 0 0.756863 0 0 0 0 0.152941 0 0 0 1 0"/>
<feBlend mode="normal" in2="BackgroundImageFix" result="effect1_dropShadow_4003_509"/>
<feBlend mode="normal" in="SourceGraphic" in2="effect1_dropShadow_4003_509" result="shape"/>
</filter>
<filter id="filter1_d_4003_509" x="352.8" y="0" width="60.4" height="211.2" filterUnits="userSpaceOnUse" color-interpolation-filters="sRGB">
<feFlood flood-opacity="0" result="BackgroundImageFix"/>
<feColorMatrix in="SourceAlpha" type="matrix" values="0 0 0 0 0 0 0 0 0 0 0 0 0 0 0 0 0 0 127 0" result="hardAlpha"/>
<feMorphology radius="28" operator="erode" in="SourceAlpha" result="effect1_dropShadow_4003_509"/>
<feOffset dy="34"/>
<feGaussianBlur stdDeviation="22.1"/>
<feComposite in2="hardAlpha" operator="out"/>
<feColorMatrix type="matrix" values="0 0 0 0 1 0 0 0 0 0.756863 0 0 0 0 0.152941 0 0 0 1 0"/>
<feBlend mode="normal" in2="BackgroundImageFix" result="effect1_dropShadow_4003_509"/>
<feBlend mode="normal" in="SourceGraphic" in2="effect1_dropShadow_4003_509" result="shape"/>
</filter>
</defs>
</svg>
