<?xml version="1.0" encoding="UTF-8"?>
<svg id="Layer_2" data-name="Layer 2" xmlns="http://www.w3.org/2000/svg" xmlns:xlink="http://www.w3.org/1999/xlink" viewBox="0 0 355.7 68.99">
  <defs>
    <style>
      .cls-1 {
        fill: #3e1a51;
      }

      .cls-2 {
        fill: url(#linear-gradient-2);
        filter: url(#drop-shadow-1);
      }

      .cls-3 {
        fill: #f8c631;
      }

      .cls-4 {
        fill: url(#linear-gradient);
      }

      .cls-5 {
        fill: #231f20;
      }
    </style>
    <linearGradient id="linear-gradient" x1="12.38" y1="51.88" x2="64.25" y2="1.79" gradientUnits="userSpaceOnUse">
      <stop offset="0" stop-color="#341046"/>
      <stop offset="1" stop-color="#6b134f"/>
    </linearGradient>
    <linearGradient id="linear-gradient-2" x1="13.25" y1="52.35" x2="48.35" y2="16" gradientUnits="userSpaceOnUse">
      <stop offset="0" stop-color="#f8c631"/>
      <stop offset="1" stop-color="#fdef75"/>
    </linearGradient>
    <filter id="drop-shadow-1" filterUnits="userSpaceOnUse">
      <feOffset dx="2" dy="2"/>
      <feGaussianBlur result="blur" stdDeviation="2"/>
      <feFlood flood-color="#231f20" flood-opacity=".65"/>
      <feComposite in2="blur" operator="in"/>
      <feComposite in="SourceGraphic"/>
    </filter>
  </defs>
  <g id="Layer_1-2" data-name="Layer 1">
    <g>
      <circle class="cls-3" cx="127.69" cy="40.71" r="2.45"/>
      <circle class="cls-3" cx="163.61" cy="40.71" r="2.45"/>
      <circle class="cls-3" cx="211.24" cy="40.71" r="2.45"/>
      <circle class="cls-3" cx="340.78" cy="40.71" r="2.45"/>
      <path class="cls-1" d="m103.4,40.32c2.14-1.11,3.87-2.67,5.19-4.69,1.31-2.02,1.97-4.21,1.97-6.58,0-3.69-1.3-6.84-3.88-9.43-2.59-2.59-5.73-3.88-9.43-3.88h-15.53v38.82h8.87v-12.76h4.2l7.34,12.76h9.54l-8.26-14.25Zm-3.02-7.71c-.87.96-1.91,1.44-3.13,1.44h-6.66v-9.98h6.66c1.22,0,2.27.48,3.13,1.45.87.96,1.3,2.14,1.3,3.55s-.44,2.59-1.3,3.55Z"/>
      <path class="cls-1" d="m127.69,33.94c1.96,0,3.55.61,4.77,1.83,1.02,1.02,1.62,2.33,1.77,3.94h8.38v-12.87h-8.32v2.61c-1.96-2.26-4.72-3.38-8.26-3.38s-6.79,1.41-9.37,4.24c-2.59,2.83-3.88,6.3-3.88,10.4s1.29,7.57,3.88,10.4c2.59,2.84,5.71,4.25,9.37,4.25s6.3-1.13,8.26-3.38v2.6h8.32v-12.69h-8.4c-.19,1.53-.77,2.78-1.76,3.76-1.22,1.22-2.8,1.83-4.77,1.83s-3.55-.61-4.77-1.83c-1.22-1.22-1.83-2.87-1.83-4.94s.61-3.71,1.83-4.94c1.22-1.22,2.81-1.83,4.77-1.83Z"/>
      <path class="cls-1" d="m170.16,41.88c-.2,1.53-.79,2.78-1.78,3.76-1.24,1.22-2.82,1.83-4.74,1.83s-3.51-.61-4.74-1.83c-.99-.98-1.59-2.23-1.78-3.76h-8.4v23.78h8.32v-13.69c1.96,2.25,4.71,3.38,8.26,3.38s6.78-1.41,9.37-4.25c2.34-2.55,3.62-5.62,3.84-9.22h-8.35Zm4.51-11.58c-2.59-2.83-5.71-4.24-9.37-4.24s-6.3,1.12-8.26,3.38v-2.61h-8.32v12.87h8.38c.16-1.61.77-2.91,1.8-3.94,1.23-1.22,2.81-1.83,4.74-1.83s3.5.61,4.74,1.83c1.03,1.02,1.63,2.33,1.8,3.94h8.34c-.19-3.66-1.47-6.8-3.85-9.4Z"/>
      <path class="cls-1" d="m183.26,26.84v12.87h8.32v-12.87h-8.32Zm0,15.05v12.69h8.32v-12.69h-8.32Zm7.68-26c-.98-.98-2.15-1.47-3.52-1.47s-2.55.49-3.52,1.47c-.98.98-1.47,2.16-1.47,3.52s.48,2.54,1.47,3.52,2.15,1.47,3.52,1.47,2.54-.49,3.52-1.47,1.48-2.16,1.48-3.52-.49-2.55-1.48-3.52Z"/>
      <path class="cls-1" d="m217.81,15.74v13.7c-1.96-2.26-4.71-3.38-8.26-3.38s-6.78,1.41-9.37,4.24c-2.38,2.59-3.66,5.73-3.85,9.4h8.35c.16-1.61.75-2.91,1.77-3.94,1.22-1.22,2.81-1.83,4.77-1.83s3.55.61,4.77,1.83c1.02,1.02,1.61,2.33,1.77,3.94h8.38V15.74h-8.32Zm-.08,26.14c-.19,1.53-.77,2.78-1.75,3.76-1.22,1.22-2.81,1.83-4.77,1.83s-3.55-.61-4.77-1.83c-.98-.98-1.56-2.23-1.75-3.76h-8.36c.23,3.6,1.5,6.66,3.84,9.22,2.59,2.84,5.71,4.25,9.37,4.25s6.3-1.13,8.26-3.38v2.6h8.32v-12.69h-8.4Z"/>
      <path class="cls-1" d="m259.72,39.18c-.53-1.24-1.14-2.23-1.83-2.99-.69-.76-1.68-1.48-2.99-2.16-1.31-.69-2.4-1.18-3.25-1.47-.85-.3-2.05-.69-3.6-1.17-2.85-.84-4.73-1.62-5.63-2.33-.91-.7-1.36-1.53-1.36-2.49,0-.81.36-1.51,1.09-2.09.72-.57,1.74-.86,3.08-.86,1.7,0,3.07.38,4.1,1.14,1.04.76,1.91,1.87,2.61,3.36l7.48-4.38c-1.41-2.85-3.33-5.02-5.77-6.52-2.45-1.49-5.25-2.24-8.43-2.24-3.55,0-6.61,1.07-9.18,3.22-2.57,2.14-3.86,5.01-3.86,8.59,0,1.77.3,3.35.91,4.72.61,1.37,1.5,2.5,2.66,3.41,1.16.91,2.36,1.64,3.58,2.2,1.22.55,2.64,1.05,4.27,1.49,1.41.39,2.64.76,3.64,1.11h12.67c-.06-.18-.13-.35-.2-.52Zm.71,2.7h-9.29c.34.48.51,1.02.51,1.65,0,2.11-1.76,3.16-5.27,3.16s-6.3-1.6-7.89-4.81c-.09-.19-.18-.37-.27-.57l-.98.57-6.67,3.87c1.11,2.96,2.98,5.3,5.63,7.02,2.64,1.73,5.94,2.59,9.9,2.59,4.29,0,7.76-1.06,10.43-3.2,2.66-2.12,3.99-5.03,3.99-8.73,0-.53-.03-1.05-.09-1.54Z"/>
      <path class="cls-1" d="m264.69,41.88v12.69h8.32v-12.69h-8.32Zm23.65-12.77c-1.98-2.03-4.44-3.05-7.41-3.05-3.62,0-6.26,1.12-7.93,3.38v-13.7h-8.32v23.96h8.32v-.27c0-1.88.46-3.31,1.38-4.27.93-.96,2.19-1.44,3.77-1.44,1.41,0,2.56.43,3.47,1.3.91.87,1.36,2.11,1.36,3.74v.94h8.32v-2.16c0-3.59-.99-6.4-2.97-8.44Zm-5.35,12.77v12.69h8.32v-12.69h-8.32Z"/>
      <path class="cls-1" d="m302.56,26.84h-9.15l5.37,12.87h8.44l-4.66-12.87Zm6.75,15.05l-.59,1.93-.7-1.93h-8.33l4.76,11.41c-.62,1.7-1.46,2.89-2.49,3.58-1.04.68-2.52,1.02-4.44,1.02v7.76c3.92.19,7.15-.66,9.68-2.55,2.53-1.89,4.58-5.02,6.12-9.37l4.19-11.86h-8.19Zm4.62-15.05l-3.95,12.87h8.29l4.54-12.87h-8.87Z"/>
      <path class="cls-1" d="m351.82,30.31c-2.59-2.83-5.71-4.24-9.37-4.24s-6.3,1.12-8.26,3.38v-2.61h-8.32v12.87h8.38c.16-1.61.77-2.91,1.8-3.94,1.24-1.22,2.82-1.83,4.74-1.83s3.5.61,4.74,1.83c1.24,1.23,1.86,2.87,1.86,4.94s-.62,3.72-1.86,4.94c-1.24,1.22-2.82,1.83-4.74,1.83s-3.5-.61-4.74-1.83c-.99-.98-1.59-2.23-1.78-3.76h-8.4v23.78h8.32v-13.69c1.96,2.25,4.72,3.38,8.26,3.38s6.79-1.41,9.37-4.25c2.59-2.83,3.88-6.29,3.88-10.4s-1.3-7.57-3.88-10.4Z"/>
      <path class="cls-5" d="m238.23,41.31c.09.2.17.38.27.57h-1.25l.98-.57Z"/>
    </g>
    <path class="cls-1" d="m65.01,4.31v53.88c0,2.38-1.93,4.3-4.31,4.3H25.54c-.83,0-1.57-.22-2.19-.59-.6-.34-1.09-.83-1.45-1.4L4.23,43.34c-.32-.23-.61-.5-.85-.82-.55-.7-.89-1.6-.89-2.63V4.31C2.49,1.92,4.43,0,6.8,0h53.89c2.38,0,4.31,1.92,4.31,4.31Z"/>
    <path class="cls-4" d="m65.01,4.31v53.88c0,2.38-1.93,4.3-4.31,4.3H25.54c-.83,0-1.57-.22-2.19-.59-.6-.34-1.09-.83-1.45-1.4-1-1.59-.99-3.79.58-5.36l13.11-13.1c1.66-1.66,4.34-1.69,6.03-.07l4.34,4.17c1.15,1.12,3.1.3,3.11-1.31l.25-27.74c0-.39-.32-.71-.71-.71l-28.97.05c-1.65,0-2.47,2.02-1.28,3.17l4.39,4.23c1.74,1.67,1.77,4.44.06,6.15l-12.97,12.97c-1.65,1.65-4.02,1.59-5.61.4-.32-.23-.61-.5-.85-.82-.55-.7-.89-1.6-.89-2.63V4.31C2.49,1.92,4.43,0,6.8,0h53.89c2.38,0,4.31,1.92,4.31,4.31Z"/>
    <path class="cls-3" d="m3.39,42.52l.85.82c-.32-.23-.61-.5-.85-.82Z"/>
    <path class="cls-3" d="m23.36,61.9c-.6-.34-1.09-.83-1.45-1.4l1.45,1.4Z"/>
    <path class="cls-2" d="m49.2,17.12l-.05,4.89-.21,22.8c-.02,1.61-1.94,2.42-3.11,1.31l-4.33-4.15c-1.69-1.62-4.36-1.61-6.02.06l-13.08,13.07c-1.74,1.74-1.6,4.26-.26,5.86l-14.93-14.63h0l-.83-.82-2.37-2.32s.07.05.09.08c1.6,1.23,3.99,1.33,5.67-.35l12.94-12.94c1.72-1.7,1.69-4.47-.06-6.13l-4.38-4.23c-1.19-1.15-.38-3.15,1.28-3.16l28.92-.05c.34,0,.62.23.69.55.02.05.03.1.03.16Z"/>
  </g>
</svg>