<svg width="92" height="92" viewBox="0 0 92 92" fill="none" xmlns="http://www.w3.org/2000/svg">
<mask id="mask0_6865_539" style="mask-type:alpha" maskUnits="userSpaceOnUse" x="0" y="0" width="92" height="92">
<rect width="92" height="92" fill="white"/>
</mask>
<g mask="url(#mask0_6865_539)">
<path d="M20.3574 34.9071V75.5348C21.4875 75.5348 22.5839 75.5324 23.6828 75.5348C24.6659 75.5396 25.2298 75.9782 25.2491 76.7372C25.2683 77.5252 24.6828 77.9975 23.6635 77.9975C18.9621 77.9999 14.2632 77.9999 9.56185 77.9975C8.5811 77.9975 8.01723 77.5541 8.00036 76.7902C7.98349 76.0023 8.56423 75.5372 9.58836 75.5324C10.6655 75.5275 11.7402 75.5324 12.8728 75.5324V33.2227C11.8438 33.7287 10.8679 34.2878 9.82933 34.6806C9.42691 34.8324 8.78351 34.7553 8.43652 34.5119C8.15217 34.3119 7.95698 33.6588 8.06301 33.3118C8.1835 32.9191 8.6317 32.5359 9.03171 32.3359C13.9764 29.8419 18.9404 27.3864 23.8972 24.914C30.9673 21.3862 38.0374 17.8632 45.093 14.3064C45.8834 13.9088 46.5268 13.892 47.3244 14.292C57.8862 19.5982 68.4624 24.8778 79.0362 30.1599C80.5254 30.9045 82.0267 31.625 83.5134 32.372C84.3809 32.8082 84.6653 33.4636 84.3255 34.1601C83.9785 34.8709 83.2845 35.0468 82.4194 34.6227C81.4821 34.1649 80.5519 33.695 79.5085 33.1769V53.5895C78.2627 52.3293 77.1904 51.2015 76.0602 50.134C75.7831 49.8714 75.3277 49.6979 74.9421 49.6689C74.0288 49.6015 73.1083 49.6473 72.1348 49.6473V34.9095H20.3574V34.9071ZM53.5824 25.0441H38.8832V29.8804H53.5824V25.0441Z" fill="url(#paint0_linear_6865_539)"/>
<path d="M37.5869 60.689C37.5869 57.7612 37.5869 54.8888 37.5869 52.0164C37.5869 50.0645 37.582 48.1127 37.5869 46.1632C37.5941 44.5005 38.6134 43.4884 40.2857 43.486C48.3486 43.4812 56.4139 43.4812 64.4768 43.486C66.0913 43.486 67.166 44.474 67.1709 46.009C67.1853 50.8091 67.1757 55.6117 67.1733 60.4118C67.1733 60.4865 67.154 60.5612 67.1347 60.689H37.582H37.5869Z" fill="url(#paint1_linear_6865_539)"/>
<path d="M68.3854 52.1518H70.8601V63.1787H84.4437C84.4437 63.8654 84.4437 64.4703 84.4437 65.0775C84.4437 66.8992 84.4244 68.7234 84.4485 70.5451C84.4678 71.9235 83.2268 73.1308 82.0557 73.0344C81.193 68.8511 78.9375 66.7474 75.4675 66.9209C72.7783 67.0559 69.8625 69.0945 69.6167 73.0199H56.1175C55.9802 71.0271 55.2163 69.3282 53.5584 68.1089C52.3295 67.2053 50.9463 66.8173 49.4306 66.9258C46.3172 67.1474 44.0642 69.5403 43.7244 72.9934C42.3075 72.9934 40.8737 73.0994 39.4664 72.9597C38.3917 72.8536 37.611 71.8054 37.5989 70.7162C37.5724 67.8439 37.5893 64.9691 37.5893 62.0148H68.3878V52.1494L68.3854 52.1518Z" fill="url(#paint2_linear_6865_539)"/>
<path d="M49.8998 78.0004C47.1816 77.9932 44.9719 75.7594 44.9864 73.034C45.0009 70.3158 47.2419 68.1157 49.9721 68.1398C52.6589 68.1639 54.8445 70.3736 54.8469 73.0653C54.8469 75.7883 52.6252 78.0052 49.8998 77.998V78.0004Z" fill="url(#paint3_linear_6865_539)"/>
<path d="M75.7771 68.1417C78.5049 68.1272 80.7363 70.3321 80.7435 73.0527C80.7508 75.778 78.5338 77.9998 75.8109 77.9998C73.1192 77.9998 70.9071 75.8094 70.883 73.125C70.8589 70.3947 73.0566 68.1561 75.7771 68.1417Z" fill="url(#paint4_linear_6865_539)"/>
<path d="M72.1523 52.1143C72.9042 52.1143 73.6174 52.0974 74.3283 52.1263C74.5066 52.1335 74.7163 52.254 74.8488 52.3866C77.9742 55.4975 81.09 58.6181 84.2057 61.7411C84.237 61.7724 84.2491 61.8278 84.2949 61.9242H72.1523V52.1167V52.1143Z" fill="url(#paint5_linear_6865_539)"/>
<path d="M53.584 25.0439V29.8802H38.8848V25.0439H53.584Z" fill="white"/>
</g>
<defs>
<linearGradient id="paint0_linear_6865_539" x1="46.2325" y1="14" x2="46.2325" y2="77.9993" gradientUnits="userSpaceOnUse">
<stop stop-color="#B658E8"/>
<stop offset="1" stop-color="#E30175"/>
</linearGradient>
<linearGradient id="paint1_linear_6865_539" x1="52.3803" y1="43.4824" x2="52.3803" y2="60.689" gradientUnits="userSpaceOnUse">
<stop stop-color="#B658E8"/>
<stop offset="1" stop-color="#E30175"/>
</linearGradient>
<linearGradient id="paint2_linear_6865_539" x1="61.0163" y1="52.1494" x2="61.0163" y2="73.0398" gradientUnits="userSpaceOnUse">
<stop stop-color="#B658E8"/>
<stop offset="1" stop-color="#E30175"/>
</linearGradient>
<linearGradient id="paint3_linear_6865_539" x1="49.9166" y1="68.1396" x2="49.9166" y2="78.0004" gradientUnits="userSpaceOnUse">
<stop stop-color="#B658E8"/>
<stop offset="1" stop-color="#E30175"/>
</linearGradient>
<linearGradient id="paint4_linear_6865_539" x1="75.8132" y1="68.1416" x2="75.8132" y2="77.9998" gradientUnits="userSpaceOnUse">
<stop stop-color="#B658E8"/>
<stop offset="1" stop-color="#E30175"/>
</linearGradient>
<linearGradient id="paint5_linear_6865_539" x1="78.2236" y1="52.1094" x2="78.2236" y2="61.9242" gradientUnits="userSpaceOnUse">
<stop stop-color="#B658E8"/>
<stop offset="1" stop-color="#E30175"/>
</linearGradient>
</defs>
</svg>
