<svg width="92" height="92" viewBox="0 0 92 92" fill="none" xmlns="http://www.w3.org/2000/svg">
<mask id="mask0_6865_541" style="mask-type:alpha" maskUnits="userSpaceOnUse" x="0" y="0" width="92" height="92">
<rect width="92" height="92" fill="#D9D9D9"/>
</mask>
<g mask="url(#mask0_6865_541)">
<g clip-path="url(#clip0_6865_541)">
<path d="M76.834 85.9595H73.2929C66.6459 84.6021 62.5589 78.2871 64.6246 71.6624C64.9049 70.7697 65.4139 69.9877 65.7312 69.1172L60.9876 64.2924C60.4343 59.63 57.6752 55.7938 53.4258 53.8388C53.9201 53.256 54.348 52.5109 54.621 51.7953C56.303 47.3173 54.2005 42.2049 49.7224 40.4343C42.4411 37.5498 35.4326 44.5435 38.1696 51.8322C38.4868 52.6732 39.0696 53.2634 39.2541 54.0602C34.9089 55.6979 32.2899 60.0136 31.7735 64.5285L27.2512 69.1098C27.5685 69.9803 28.0849 70.7623 28.3578 71.655C30.4013 78.2798 26.3512 84.5947 19.6895 85.9521H16.1484C11.4712 84.9931 8.01866 81.5405 7.05961 76.8633V73.3222C8.40966 66.6679 14.7246 62.603 21.3568 64.6539C22.2494 64.9269 23.0314 65.4433 23.902 65.7605L29.4866 60.2276C29.5898 60.0726 29.5087 59.9546 29.4423 59.8144C29.1177 59.1283 28.1808 58.1103 27.7381 57.3504C23.2232 49.5969 23.9979 39.8736 29.5382 32.8578L23.902 27.2806C23.0314 27.5978 22.2494 28.1142 21.3568 28.3872C14.7025 30.4307 8.40966 26.3732 7.03748 19.7115C7.12601 18.6271 6.91944 17.3803 7.03748 16.3254C7.44323 12.7252 10.4384 9.14725 13.7361 7.84148C23.7323 3.88725 32.7031 14.6728 27.2365 23.769L32.7694 29.3389C33.2121 29.5454 34.1047 28.5938 34.5326 28.3282C42.655 23.2452 52.3635 23.6953 59.9621 29.5307L65.7238 23.9166C65.1336 22.6108 64.4844 21.3345 64.2336 19.9033C62.2269 8.44641 77.1807 2.23474 83.8867 11.4932C89.6631 19.4755 82.7874 30.4528 73.0937 28.7634C71.6625 28.5126 70.3862 27.8634 69.0804 27.2806L63.3114 32.8874C69.5378 40.781 69.5673 52.1125 63.2819 59.9841L69.0804 65.7679C70.3862 65.1777 71.6625 64.5359 73.0937 64.2851C81.3784 62.8317 88.0696 70.7623 85.3695 78.7224C84.1891 82.1971 80.5226 85.4948 76.8266 85.9669L76.834 85.9595Z" fill="url(#paint0_linear_6865_541)"/>
<path d="M56.4641 65.5978C50.1639 68.8364 42.6391 68.8512 36.3315 65.5978C36.1545 62.0715 38.53 58.7369 41.9235 57.7631C43.5908 57.2836 47.5155 57.3131 49.3303 57.4533C53.4247 57.7779 56.6264 61.5182 56.4641 65.5978Z" fill="url(#paint1_linear_6865_541)"/>
<path d="M45.9894 44.2406C51.9207 43.7242 52.2601 52.9532 46.4025 52.9532C40.8991 52.9532 40.5966 44.7201 45.9894 44.2406Z" fill="url(#paint2_linear_6865_541)"/>
</g>
</g>
<defs>
<linearGradient id="paint0_linear_6865_541" x1="46.5003" y1="7.00098" x2="46.5003" y2="85.9669" gradientUnits="userSpaceOnUse">
<stop stop-color="#B658E8"/>
<stop offset="1" stop-color="#E30175"/>
</linearGradient>
<linearGradient id="paint1_linear_6865_541" x1="46.3962" y1="57.3633" x2="46.3962" y2="68.0323" gradientUnits="userSpaceOnUse">
<stop stop-color="#B658E8"/>
<stop offset="1" stop-color="#E30175"/>
</linearGradient>
<linearGradient id="paint2_linear_6865_541" x1="46.3634" y1="44.2197" x2="46.3634" y2="52.9532" gradientUnits="userSpaceOnUse">
<stop stop-color="#B658E8"/>
<stop offset="1" stop-color="#E30175"/>
</linearGradient>
<clipPath id="clip0_6865_541">
<rect width="79.0033" height="78.9591" fill="white" transform="translate(7 7)"/>
</clipPath>
</defs>
</svg>
