<svg width="92" height="92" viewBox="0 0 92 92" fill="none" xmlns="http://www.w3.org/2000/svg">
<g clip-path="url(#clip0_5916_519)">
<path d="M43.2321 8.09378C61.3584 6.68836 76.7819 21.2615 75.4702 39.5824C74.5477 52.4618 59.8448 70.4655 51.0952 79.626C50.1366 80.6278 48.1042 82.9125 47.1024 83.6116C46.4681 84.0512 45.4519 84.0801 44.8465 83.6116C34.6122 72.8295 21.4445 59.0276 17.4156 44.3536C12.7237 27.2507 25.7256 9.45595 43.2321 8.09378ZM45.488 16.5191C29.7833 16.8506 19.9526 33.9463 27.5851 47.7338C35.3185 61.7087 55.3331 62.2204 63.7944 48.6707C72.6522 34.494 62.1079 16.1659 45.488 16.5191Z" fill="url(#paint0_linear_5916_519)"/>
<path d="M57.4083 38.1552V50.2707C57.4083 50.6815 56.4425 51.3517 55.9812 51.4022C54.9938 51.5175 51.9668 51.5391 51.001 51.4022C50.2947 51.3085 49.6532 50.6598 49.574 49.968C49.3577 48.1373 50.0352 43.1931 49.1992 41.9174C48.7884 41.2904 47.9451 41.2039 47.2532 41.1535C46.1073 41.067 43.2964 40.9156 42.6766 42.0111C41.855 43.467 42.655 48.1805 42.3451 50.1121C42.2442 50.7535 41.5595 51.3301 40.9252 51.4022C40.0387 51.5103 36.6225 51.5391 35.8081 51.395C35.4621 51.3301 34.518 50.5806 34.518 50.2707V38.1552H32.1828C32.1396 38.1552 31.5197 37.7877 31.426 37.7084C30.7341 37.1102 30.6909 35.957 31.2026 35.2219L44.8244 22.8037C45.3073 22.3713 46.0064 22.4794 46.5974 22.5371C51.4262 26.5804 56.0028 31.0056 60.702 35.2219C61.2137 35.9498 61.1705 37.1102 60.4786 37.7084C60.3849 37.7877 59.765 38.1552 59.7218 38.1552H57.3866H57.4083Z" fill="url(#paint1_linear_5916_519)"/>
</g>
<defs>
<linearGradient id="paint0_linear_5916_519" x1="45.9987" y1="8" x2="45.9987" y2="83.9522" gradientUnits="userSpaceOnUse">
<stop stop-color="#B658E8"/>
<stop offset="1" stop-color="#253268"/>
</linearGradient>
<linearGradient id="paint1_linear_5916_519" x1="45.9523" y1="22.4814" x2="45.9523" y2="51.497" gradientUnits="userSpaceOnUse">
<stop stop-color="#B658E8"/>
<stop offset="1" stop-color="#253268"/>
</linearGradient>
<clipPath id="clip0_5916_519">
<rect width="59.0996" height="75.9502" fill="white" transform="translate(16.4492 8)"/>
</clipPath>
</defs>
</svg>
