<svg width="92" height="92" viewBox="0 0 92 92" fill="none" xmlns="http://www.w3.org/2000/svg">
<g clip-path="url(#clip0_5916_536)">
<path d="M71.9916 80.9567H68.899C63.0939 79.7712 59.5245 74.256 61.3285 68.4702C61.5733 67.6906 62.0179 67.0076 62.2949 66.2474L58.1521 62.0337C57.6689 57.9617 55.2592 54.6114 51.5481 52.904C51.9797 52.395 52.3534 51.7443 52.5918 51.1193C54.0608 47.2084 52.2246 42.7434 48.3137 41.1971C41.9545 38.6779 35.8337 44.7859 38.224 51.1515C38.5011 51.886 39.01 52.4014 39.1711 53.0973C35.3762 54.5276 33.089 58.2968 32.638 62.2398L28.6884 66.2409C28.9655 67.0012 29.4165 67.6842 29.6549 68.4638C31.4396 74.2495 27.9024 79.7647 22.0844 80.9502H18.9917C14.9069 80.1126 11.8916 77.0973 11.054 73.0125V69.9199C12.2331 64.1083 17.7483 60.5582 23.5405 62.3494C24.3201 62.5878 25.003 63.0388 25.7633 63.3158L30.6406 58.4836C30.7308 58.3483 30.66 58.2452 30.602 58.1228C30.3185 57.5236 29.5002 56.6345 29.1136 55.9708C25.1706 49.1993 25.8471 40.7075 30.6857 34.5802L25.7633 29.7093C25.003 29.9864 24.3201 30.4374 23.5405 30.6758C17.7289 32.4605 12.2331 28.9168 11.0347 23.0988C11.112 22.1517 10.9316 21.0629 11.0347 20.1415C11.389 16.9973 14.0049 13.8725 16.8849 12.7321C25.6151 9.27867 33.4498 18.6983 28.6755 26.6425L33.5078 31.5069C33.8943 31.6873 34.6739 30.8562 35.0476 30.6242C42.1413 26.185 50.6203 26.578 57.2565 31.6744L62.2885 26.7713C61.773 25.6309 61.2061 24.5163 60.987 23.2663C59.2345 13.2604 72.2944 7.83544 78.1511 15.9214C83.1959 22.8927 77.1911 32.4798 68.725 31.0043C67.4751 30.7853 66.3604 30.2183 65.22 29.7093L60.1816 34.606C65.6195 41.4999 65.6453 51.3963 60.1559 58.271L65.22 63.3223C66.3604 62.8068 67.4751 62.2463 68.725 62.0272C75.9605 60.758 81.8042 67.6842 79.4461 74.6361C78.4152 77.6708 75.2131 80.5508 71.9851 80.9631L71.9916 80.9567Z" fill="url(#paint0_linear_5916_536)"/>
<path d="M54.2023 63.1731C48.7 66.0015 42.1282 66.0144 36.6194 63.1731C36.4648 60.0933 38.5394 57.1811 41.5032 56.3307C42.9593 55.9119 46.387 55.9376 47.9719 56.06C51.5478 56.3435 54.344 59.6101 54.2023 63.1731Z" fill="url(#paint1_linear_5916_536)"/>
<path d="M45.0522 44.5212C50.2323 44.0702 50.5287 52.1303 45.413 52.1303C40.6066 52.1303 40.3424 44.94 45.0522 44.5212Z" fill="url(#paint2_linear_5916_536)"/>
</g>
<defs>
<linearGradient id="paint0_linear_5916_536" x1="45.4996" y1="11.998" x2="45.4996" y2="80.9631" gradientUnits="userSpaceOnUse">
<stop stop-color="#B658E8"/>
<stop offset="1" stop-color="#233165"/>
</linearGradient>
<linearGradient id="paint1_linear_5916_536" x1="45.4094" y1="55.9814" x2="45.4094" y2="65.2993" gradientUnits="userSpaceOnUse">
<stop stop-color="#B658E8"/>
<stop offset="1" stop-color="#233165"/>
</linearGradient>
<linearGradient id="paint2_linear_5916_536" x1="45.3788" y1="44.5029" x2="45.3788" y2="52.1303" gradientUnits="userSpaceOnUse">
<stop stop-color="#B658E8"/>
<stop offset="1" stop-color="#233165"/>
</linearGradient>
<clipPath id="clip0_5916_536">
<rect width="68.9977" height="68.9591" fill="white" transform="translate(11.002 11.9971)"/>
</clipPath>
</defs>
</svg>
