<svg width="528" height="420" viewBox="0 0 528 420" fill="none" xmlns="http://www.w3.org/2000/svg">
<path d="M0 242H494C506.15 242 516 251.85 516 264V420H22C9.84975 420 0 410.15 0 398V242Z" fill="#274994" fill-opacity="0.42"/>
<g clip-path="url(#clip0_7134_679)">
<path opacity="0.2" d="M337.356 9.77032V39.8107C337.356 40.6151 337.743 41.3766 338.419 41.8484C338.451 41.8592 338.484 41.8913 338.505 41.9128L348.327 47.9831L368.625 60.499C368.979 60.7242 369.387 60.6921 369.688 60.4883C369.945 60.3274 370.139 60.0271 370.139 59.6625V30.3835C370.139 29.3218 369.58 28.3351 368.689 27.7667L338.494 9.13755C338.269 8.99813 338.033 8.9874 337.818 9.0732C337.775 9.08393 337.732 9.1161 337.678 9.14828C337.485 9.2877 337.346 9.5022 337.346 9.77032H337.356Z" fill="url(#paint0_linear_7134_679)"/>
<path opacity="0.2" d="M382.396 136.163V156.422C382.396 156.969 382.654 157.484 383.116 157.795C383.137 157.795 383.159 157.827 383.18 157.838L389.814 161.935L403.511 170.375C403.757 170.525 404.026 170.504 404.23 170.375C404.402 170.268 404.53 170.064 404.53 169.818V150.073C404.53 149.354 404.155 148.69 403.554 148.303L383.18 135.734C383.03 135.648 382.869 135.637 382.729 135.691C382.697 135.691 382.665 135.723 382.643 135.745C382.515 135.83 382.418 135.991 382.418 136.163H382.396Z" fill="url(#paint1_linear_7134_679)"/>
<path opacity="0.1" d="M396.533 159.286V179.545C396.533 180.092 396.791 180.607 397.252 180.918C397.274 180.918 397.295 180.95 397.317 180.961L403.951 185.047L417.647 193.488C417.894 193.638 418.163 193.616 418.366 193.488C418.538 193.38 418.667 193.177 418.667 192.93V173.185C418.667 172.467 418.291 171.802 417.69 171.416L397.317 158.846C397.167 158.76 397.006 158.75 396.866 158.803C396.834 158.803 396.802 158.835 396.78 158.857C396.651 158.943 396.555 159.104 396.555 159.275L396.533 159.286Z" fill="url(#paint2_linear_7134_679)"/>
<path opacity="0.1" d="M223.67 0.51442V20.7737C223.67 21.3207 223.928 21.8355 224.389 22.1465C224.411 22.1465 224.432 22.1787 224.454 22.1894L231.087 26.2863L244.784 34.7268C245.031 34.8769 245.299 34.8555 245.503 34.7268C245.675 34.6195 245.804 34.4158 245.804 34.1691V14.4139C245.804 13.6953 245.428 13.0304 244.827 12.6443L224.443 0.0747002C224.293 -0.0110988 224.131 -0.0218237 223.992 0.0318007C223.96 0.0318007 223.928 0.0639753 223.906 0.0854251C223.777 0.171224 223.681 0.332097 223.681 0.503695L223.67 0.51442Z" fill="url(#paint3_linear_7134_679)"/>
<path opacity="0.2" d="M174.787 58.3318V78.5911C174.787 79.1381 175.045 79.6529 175.506 79.9639C175.528 79.9639 175.549 79.9961 175.571 80.0068L182.204 84.093L195.901 92.5335C196.148 92.6836 196.416 92.6622 196.62 92.5335C196.792 92.4262 196.921 92.2224 196.921 91.9758V72.2313C196.921 71.5127 196.545 70.8477 195.944 70.4616L175.571 57.8921C175.42 57.8063 175.259 57.7956 175.12 57.8492C175.088 57.8492 175.055 57.8814 175.034 57.9028C174.905 57.9886 174.809 58.1495 174.809 58.3211L174.787 58.3318Z" fill="url(#paint4_linear_7134_679)"/>
<path opacity="0.2" d="M280.067 15.0682V45.1086C280.067 45.9129 280.454 46.6744 281.13 47.1463C281.162 47.157 281.194 47.1892 281.216 47.2106L291.038 53.2809L311.336 65.7969C311.69 66.0221 312.098 65.9899 312.399 65.7861C312.656 65.6253 312.85 65.325 312.85 64.9603V35.6814C312.85 34.6196 312.291 33.6329 311.4 33.0645L281.205 14.4354C280.98 14.296 280.744 14.2853 280.529 14.3711C280.486 14.3818 280.443 14.414 280.389 14.4461C280.196 14.5856 280.057 14.8001 280.057 15.0682H280.067Z" fill="url(#paint5_linear_7134_679)"/>
<path d="M171.933 147.874L169.721 146.608C169.528 146.448 169.356 146.373 169.324 146.362C168.852 146.169 168.272 146.233 167.671 146.608L87.7231 196.833C85.4367 198.302 83.6441 200.673 83.0752 203.182C83.0108 203.461 82.9893 203.74 82.9893 204.019V275.221C82.9678 276.186 83.2899 277.012 83.7622 277.323L86.0485 278.642C86.0485 278.642 88.1417 274.02 88.0344 273.623C88.0129 273.548 87.927 273.409 87.8304 273.259L138.227 241.599L164.505 225.082C164.58 225.04 164.666 224.964 164.751 224.922C166.576 223.667 168.176 221.983 168.176 219.677V150.115L170.172 149.686L171.922 147.895L171.933 147.874Z" fill="#282081"/>
<path d="M172.684 149.451V222.412C172.684 224.718 171.074 226.402 169.26 227.657C169.184 227.7 169.099 227.775 169.013 227.818L142.735 244.334L88.4635 278.428C87.4974 279.04 86.746 279.018 86.059 278.632C85.5867 278.321 85.2647 277.495 85.2862 276.53V205.328C85.2862 205.049 85.3076 204.77 85.372 204.491C85.941 201.981 87.7336 199.611 90.0199 198.142L169.968 147.928C170.569 147.563 171.149 147.488 171.621 147.681C171.718 147.714 172.705 148.153 172.694 149.44L172.684 149.451Z" fill="url(#paint6_linear_7134_679)"/>
<g style="mix-blend-mode:overlay" opacity="0.8">
<path d="M106.239 207.386L90.6316 217.296C89.7514 217.853 89.043 217.596 89.043 216.717C89.043 215.837 89.7514 214.679 90.6316 214.121L106.239 204.211C107.119 203.654 107.828 203.911 107.828 204.791C107.828 205.67 107.119 206.828 106.239 207.386Z" fill="white"/>
<path d="M106.239 232.987L90.6316 242.896C89.7514 243.454 89.043 243.197 89.043 242.317C89.043 241.438 89.7514 240.279 90.6316 239.722L106.239 229.812C107.119 229.254 107.828 229.512 107.828 230.391C107.828 231.271 107.119 232.429 106.239 232.987Z" fill="white"/>
<path d="M125.099 204.351L92.3706 225.136C90.535 226.305 89.043 225.758 89.043 223.924C89.043 222.09 90.535 219.655 92.3706 218.486L125.099 197.701C126.935 196.532 128.427 197.079 128.427 198.913C128.427 200.747 126.935 203.182 125.099 204.351Z" fill="white"/>
<path d="M126.848 234.102L90.6414 257.107C89.7612 257.664 89.0527 257.407 89.0527 256.528C89.0527 255.648 89.7612 254.49 90.6414 253.932L126.848 230.927C127.728 230.37 128.436 230.627 128.436 231.506C128.436 232.386 127.728 233.544 126.848 234.102Z" fill="white"/>
<path d="M127.632 237.169L89.8373 261.182C89.3972 261.461 89.043 261.332 89.043 260.893C89.043 260.453 89.3972 259.874 89.8373 259.595L127.632 235.582C128.072 235.303 128.427 235.432 128.427 235.871C128.427 236.311 128.072 236.89 127.632 237.169Z" fill="white"/>
<path d="M127.632 241.03L89.8373 265.043C89.3972 265.322 89.043 265.194 89.043 264.754C89.043 264.314 89.3972 263.735 89.8373 263.456L127.632 239.443C128.072 239.164 128.427 239.293 128.427 239.733C128.427 240.172 128.072 240.752 127.632 241.03Z" fill="white"/>
<path d="M107.946 257.407L89.8373 268.904C89.3972 269.183 89.043 269.055 89.043 268.615C89.043 268.175 89.3972 267.596 89.8373 267.317L107.946 255.82C108.386 255.541 108.74 255.67 108.74 256.11C108.74 256.549 108.386 257.128 107.946 257.407Z" fill="white"/>
<path d="M126.848 219.891L111.241 229.801C110.361 230.358 109.652 230.101 109.652 229.222C109.652 228.342 110.361 227.184 111.241 226.626L126.848 216.716C127.729 216.159 128.437 216.416 128.437 217.295C128.437 218.175 127.729 219.333 126.848 219.891Z" fill="white"/>
<path d="M147.448 206.807L131.841 216.717C130.96 217.274 130.252 217.017 130.252 216.138C130.252 215.258 130.96 214.1 131.841 213.542L147.448 203.632C148.328 203.075 149.037 203.332 149.037 204.211C149.037 205.091 148.328 206.249 147.448 206.807Z" fill="white"/>
<path d="M168.057 193.712L152.45 203.622C151.57 204.18 150.861 203.922 150.861 203.043C150.861 202.163 151.57 201.005 152.45 200.447L168.057 190.538C168.938 189.98 169.646 190.237 169.646 191.117C169.646 191.996 168.938 193.154 168.057 193.712Z" fill="white"/>
<path d="M106.464 225.34L90.416 235.539C89.6646 236.022 89.0527 235.796 89.0527 235.046V231.764C89.0527 231.013 89.6646 230.016 90.416 229.533L106.464 219.334C107.215 218.851 107.827 219.076 107.827 219.827V223.109C107.827 223.86 107.215 224.857 106.464 225.34Z" fill="white"/>
<path d="M169.635 174.171C169.635 177.764 166.715 182.537 163.119 184.821C159.523 187.105 156.604 186.044 156.604 182.451C156.604 178.858 159.523 174.085 163.119 171.801C166.715 169.517 169.635 170.578 169.635 174.171Z" fill="white"/>
</g>
<path style="mix-blend-mode:multiply" opacity="0.3" d="M432 299.674L414.557 303.278L406.195 315.311L349.186 280.938L375.012 265.301L432 299.674Z" fill="url(#paint7_linear_7134_679)"/>
<path d="M380.367 194.452C383.931 192.811 388.203 193.101 391.799 195.224L393.613 196.297C401.331 200.855 406.215 208.287 406.687 216.17L407.589 231.249C407.621 231.85 407.106 232.322 406.43 232.3C405.753 232.279 405.174 231.775 405.142 231.185L404.24 216.106C403.811 208.952 399.377 202.206 392.368 198.066L390.554 196.994C387.752 195.342 384.425 195.117 381.655 196.393C378.875 197.67 377.319 200.136 377.49 203L378.092 212.995C378.124 213.596 377.608 214.068 376.932 214.046C376.256 214.025 375.676 213.532 375.644 212.931L375.043 202.935C374.828 199.268 376.825 196.093 380.378 194.463L380.367 194.452Z" fill="#282081"/>
<path d="M359.35 204.931L412.678 237.052L404.874 307.654L348.756 273.859L359.318 205.124L359.35 204.931Z" fill="#BEE5FF"/>
<path d="M415.77 291.876L404.875 307.653L412.679 237.051L415.77 291.876Z" fill="#BEE5FF"/>
<path d="M365.361 201.123L420.438 234.67L411.367 233.448L412.666 237.051L359.35 204.93L365.769 205.788C365.79 204.341 365.371 201.262 365.361 201.123Z" fill="#BEE5FF"/>
<path d="M420.332 234.67H420.439L430.648 290.622L415.77 291.876L412.679 237.051L411.369 233.447L420.332 234.67Z" fill="#BEE5FF"/>
<path d="M373.165 199.074C376.729 197.433 381.001 197.723 384.597 199.846L386.411 200.919C394.129 205.477 399.013 212.909 399.485 220.792L400.387 235.871C400.419 236.472 399.904 236.933 399.228 236.922C398.551 236.901 397.972 236.407 397.939 235.807L397.038 220.728C396.608 213.574 392.175 206.828 385.166 202.688L383.352 201.616C380.55 199.964 377.223 199.739 374.442 201.005C371.662 202.281 370.106 204.748 370.278 207.611L370.879 217.607C370.911 218.207 370.396 218.679 369.719 218.658C369.043 218.636 368.463 218.143 368.431 217.542L367.83 207.547C367.615 203.879 369.612 200.704 373.176 199.074H373.165Z" fill="#282081"/>
<g style="mix-blend-mode:multiply" opacity="0.3">
<path d="M364.846 299.148L344.118 310.055C342.626 310.838 340.833 310.774 339.406 309.873L240.276 247.433C239.245 246.789 239.31 245.266 240.383 244.698L263.977 232.268L364.974 295.866C366.198 296.638 366.134 298.451 364.846 299.126V299.148Z" fill="url(#paint8_linear_7134_679)"/>
</g>
<path d="M360.199 90.217C360.199 85.1334 357.902 80.4144 353.715 77.7976L258.782 18.3817C256.721 17.0947 254.371 17.1698 252.471 18.1458L243.164 20.8806L249.068 22.2427C248.875 22.854 248.757 23.5082 248.746 24.2053L246.427 220.095C246.417 221.136 246.502 222.122 246.717 223.109C247.426 227.152 249.787 230.734 253.201 232.869L348.756 293.014L350.355 297.175L356.667 293.968L356.86 293.872H356.817C357 293.765 357.172 293.668 357.322 293.518C359.018 292.295 360.188 290.193 360.199 287.705V90.217Z" fill="url(#paint9_linear_7134_679)"/>
<path d="M246.298 236.365L343.238 297.422C347.682 300.221 353.371 296.746 353.382 291.233V93.5737C353.382 88.4687 351.192 83.7605 347.006 81.1329L252.019 21.6956C247.683 18.9822 239.546 19.2717 239.546 27.487V223.559C239.482 228.814 242.036 233.673 246.298 236.354V236.365Z" fill="#282081"/>
<path style="mix-blend-mode:screen" d="M246.727 213.585V48.6581C246.727 43.1884 247.489 36.0028 258.309 43.049L339.373 93.7991C342.014 95.4508 343.624 98.4216 343.613 101.65L343.184 267.607C343.184 276.337 337.699 276.208 333.437 273.527L250.988 221.629C248.315 219.945 246.705 216.899 246.737 213.596L246.727 213.585Z" fill="url(#paint10_linear_7134_679)"/>
<path style="mix-blend-mode:screen" d="M293.753 250.973C295.492 253.826 295.074 257.644 292.83 259.51C290.587 261.376 287.356 260.571 285.617 257.729C283.878 254.877 284.297 251.059 286.54 249.192C288.784 247.326 292.015 248.131 293.743 250.973H293.753Z" fill="url(#paint11_linear_7134_679)"/>
<path style="mix-blend-mode:screen" d="M260.929 205.521V88.9625C260.929 85.1016 261.466 80.018 269.108 85.005L326.397 120.869C328.264 122.038 329.402 124.14 329.392 126.414L329.091 243.701C329.091 249.868 325.216 249.782 322.2 247.884L263.924 211.205C262.035 210.014 260.897 207.859 260.918 205.521H260.929Z" fill="url(#paint12_linear_7134_679)"/>
<path d="M311.895 233.995L272.361 209.231C270.096 207.805 268.25 204.812 268.25 202.549C268.25 200.287 270.086 199.6 272.361 201.016L311.895 225.78C314.16 227.206 316.006 230.188 316.006 232.461C316.006 234.724 314.171 235.411 311.895 233.995Z" fill="url(#paint13_linear_7134_679)"/>
<path d="M281.153 211.537L279.994 210.808L279.768 211.205L279.178 210.84L280.283 209.049L280.852 209.403L281.969 212.588L281.368 212.213L281.142 211.537H281.153ZM280.97 210.99L280.573 209.789L280.176 210.497L280.97 210.99Z" fill="white"/>
<path d="M282.227 210.261L283.354 210.969C283.622 211.14 283.858 211.344 284.073 211.569C284.277 211.805 284.438 212.041 284.556 212.309C284.674 212.567 284.728 212.824 284.728 213.071C284.728 213.317 284.674 213.5 284.556 213.618C284.438 213.736 284.277 213.779 284.073 213.746C283.869 213.725 283.622 213.618 283.354 213.457L282.227 212.749V210.261ZM283.332 212.974C283.579 213.135 283.783 213.189 283.923 213.135C284.073 213.092 284.148 212.942 284.148 212.706C284.148 212.47 284.073 212.234 283.923 211.998C283.772 211.773 283.579 211.58 283.332 211.419L282.806 211.087V212.631L283.332 212.963V212.974Z" fill="white"/>
<path d="M285.168 212.105L286.295 212.813C286.563 212.985 286.8 213.189 287.014 213.414C287.218 213.65 287.379 213.886 287.497 214.154C287.615 214.411 287.669 214.669 287.669 214.915C287.669 215.162 287.615 215.344 287.497 215.462C287.379 215.58 287.218 215.623 287.014 215.591C286.81 215.57 286.563 215.462 286.295 215.301L285.168 214.594V212.105ZM286.274 214.808C286.52 214.969 286.724 215.023 286.864 214.969C287.014 214.926 287.089 214.776 287.089 214.54C287.089 214.304 287.014 214.068 286.864 213.832C286.714 213.607 286.52 213.414 286.274 213.253L285.748 212.921V214.465L286.274 214.797V214.808Z" fill="white"/>
<path d="M289.622 215.366L288.828 214.862V214.39L290.996 215.752V216.224L290.202 215.72V217.736L289.622 217.371V215.355V215.366Z" fill="white"/>
<path d="M291.779 218.605C291.575 218.358 291.403 218.111 291.285 217.843C291.167 217.575 291.113 217.318 291.113 217.071C291.113 216.824 291.167 216.642 291.285 216.524C291.403 216.406 291.564 216.352 291.779 216.374C291.983 216.395 292.219 216.481 292.477 216.642C292.734 216.803 292.97 217.007 293.174 217.242C293.378 217.478 293.539 217.736 293.657 218.004C293.775 218.272 293.84 218.529 293.84 218.776C293.84 219.023 293.775 219.205 293.657 219.323C293.539 219.441 293.378 219.495 293.174 219.484C292.97 219.463 292.734 219.377 292.477 219.216C292.219 219.055 291.983 218.851 291.779 218.615V218.605ZM292.874 218.873C292.992 218.873 293.088 218.84 293.153 218.765C293.217 218.69 293.249 218.572 293.249 218.411C293.249 218.251 293.217 218.1 293.153 217.94C293.088 217.779 292.992 217.629 292.874 217.478C292.756 217.339 292.627 217.221 292.477 217.125C292.326 217.028 292.197 216.985 292.079 216.974C291.961 216.974 291.865 217.007 291.8 217.082C291.736 217.157 291.704 217.275 291.704 217.436C291.704 217.596 291.736 217.747 291.8 217.907C291.865 218.068 291.961 218.229 292.079 218.369C292.197 218.508 292.326 218.626 292.477 218.723C292.627 218.819 292.756 218.862 292.874 218.873Z" fill="white"/>
<path d="M295.784 221.114C295.58 220.878 295.419 220.621 295.301 220.352C295.183 220.084 295.129 219.827 295.129 219.58C295.129 219.334 295.183 219.151 295.301 219.033C295.419 218.915 295.58 218.862 295.784 218.872C295.988 218.894 296.224 218.98 296.471 219.141C296.685 219.28 296.879 219.441 297.05 219.623C297.222 219.805 297.372 220.009 297.49 220.224L297.125 220.331C296.954 220.031 296.75 219.806 296.503 219.645C296.353 219.548 296.213 219.494 296.095 219.484C295.977 219.484 295.88 219.516 295.805 219.591C295.741 219.666 295.709 219.784 295.709 219.934C295.709 220.084 295.741 220.245 295.805 220.406C295.87 220.567 295.966 220.728 296.095 220.867C296.213 221.007 296.353 221.135 296.503 221.221C296.75 221.371 296.964 221.404 297.125 221.318L297.49 221.897C297.372 221.972 297.222 221.983 297.05 221.95C296.868 221.918 296.675 221.833 296.46 221.693C296.213 221.532 295.977 221.339 295.773 221.092L295.784 221.114Z" fill="white"/>
<path d="M299.475 223.023L298.316 222.294L298.09 222.691L297.5 222.326L298.606 220.535L299.175 220.889L300.291 224.074L299.69 223.699L299.464 223.023H299.475ZM299.293 222.476L298.895 221.275L298.498 221.983L299.293 222.476Z" fill="white"/>
<path d="M302.148 225.233L301.665 224.235L301.633 224.214L301.128 223.903V224.6L300.549 224.235V221.747L301.622 222.423C301.848 222.562 302.03 222.723 302.202 222.895C302.363 223.066 302.492 223.249 302.578 223.442C302.663 223.635 302.706 223.817 302.706 224.01C302.706 224.203 302.663 224.321 302.578 224.407C302.492 224.482 302.363 224.503 302.202 224.482L302.76 225.629L302.137 225.243L302.148 225.233ZM301.998 223.227C301.912 223.098 301.773 222.98 301.601 222.873L301.128 222.584V223.452L301.601 223.742C301.773 223.849 301.901 223.892 301.998 223.871C302.084 223.849 302.137 223.774 302.137 223.635C302.137 223.495 302.095 223.356 301.998 223.227Z" fill="white"/>
<path d="M303.652 224.15L302.857 223.646V223.174L305.026 224.536V225.008L304.231 224.504V226.52L303.652 226.155V224.139V224.15Z" fill="white"/>
<path d="M286.282 192.586L286.84 194.055L288.085 195.02L287.184 195.332L287.398 196.704L286.282 195.417L285.166 195.31L285.38 194.205L284.479 192.758L285.724 193.358L286.282 192.586Z" fill="white"/>
<path d="M291.692 195.976L292.25 197.445L293.495 198.41L292.594 198.721L292.808 200.094L291.692 198.807L290.576 198.7L290.79 197.595L289.889 196.147L291.134 196.748L291.692 195.976Z" fill="white"/>
<path d="M270.052 182.419L270.611 183.888L271.856 184.853L270.954 185.165L271.169 186.537L270.052 185.25L268.947 185.143L269.151 184.038L268.26 182.591L269.505 183.191L270.052 182.419Z" fill="white"/>
<path d="M275.462 185.808L276.02 187.277L277.265 188.242L276.363 188.553L276.578 189.926L275.462 188.639L274.356 188.532L274.56 187.427L273.658 185.979L274.903 186.58L275.462 185.808Z" fill="white"/>
<path d="M280.872 189.197L281.43 190.667L282.675 191.632L281.773 191.943L281.988 193.316L280.872 192.029L279.755 191.921L279.97 190.817L279.068 189.369L280.314 189.969L280.872 189.197Z" fill="white"/>
<path d="M315.717 218.627C315.363 217.833 314.579 217.168 314.289 216.986C313.409 216.439 312.808 216.696 312.808 216.696C312.808 216.696 312.207 215.677 311.327 215.13C311.037 214.948 310.253 214.615 309.899 214.98C309.019 215.892 310.189 218.562 312.808 221.63C315.427 221.844 316.597 220.632 315.717 218.627Z" fill="#DD5C95"/>
<path d="M312.045 166.782L313.795 171.576C317.595 173.721 323.863 175.287 323.863 175.287C323.863 175.287 321.609 163.683 317.949 155.468C314.482 147.681 304.563 139.895 304.563 139.895C303.511 140.388 302.535 140.742 301.633 140.978C297.908 141.986 292.369 138.672 288.645 133.181C287.743 131.862 286.766 130.339 285.714 128.58C285.714 128.58 275.796 124.462 272.329 128.076C268.668 131.905 266.414 140.796 266.414 140.796C266.414 140.796 272.683 146.759 276.483 149.172L278.232 146.491C278.232 146.491 279.22 154.073 279.359 161.516C279.478 167.705 277.417 180.489 277.417 180.489C277.417 180.489 283.396 186.108 295.128 193.155C306.495 199.976 312.839 201.756 312.839 201.756C312.839 201.756 310.768 186.484 310.896 180.446C311.047 173.174 312.024 166.782 312.024 166.782H312.045Z" fill="white"/>
<path d="M360.821 101.714L358.62 100.363C358.502 100.266 358.32 100.223 358.17 100.309L355.722 101.628C355.422 101.789 355.229 102.111 355.229 102.454V128.376C355.229 128.547 355.325 128.676 355.454 128.751L357.654 130.113L357.934 127.647L358.266 127.464C358.588 127.293 358.782 126.96 358.782 126.606V103.183C358.975 103.14 359.2 103.087 359.318 103.044C359.544 102.958 360.832 101.725 360.832 101.725L360.821 101.714Z" fill="#282081"/>
<path d="M360.5 128.847L358.106 130.134C357.816 130.285 357.473 130.081 357.473 129.759V103.837C357.473 103.494 357.666 103.172 357.966 103.011L360.414 101.692C360.693 101.542 361.026 101.746 361.026 102.057V127.979C361.026 128.343 360.832 128.665 360.51 128.837L360.5 128.847Z" fill="url(#paint14_linear_7134_679)"/>
<path d="M360.821 134.543L358.62 133.192C358.502 133.084 358.32 133.052 358.17 133.138L355.722 134.457C355.422 134.618 355.229 134.94 355.229 135.283V161.205C355.229 161.377 355.325 161.505 355.454 161.58L357.654 162.942L357.934 160.476L358.266 160.293C358.588 160.122 358.782 159.789 358.782 159.435V136.012C358.975 135.969 359.2 135.916 359.318 135.873C359.544 135.787 360.832 134.554 360.832 134.554L360.821 134.543Z" fill="#282081"/>
<path d="M360.5 161.666L358.106 162.953C357.816 163.103 357.473 162.899 357.473 162.577V136.655C357.473 136.312 357.666 135.99 357.966 135.83L360.414 134.51C360.693 134.36 361.026 134.564 361.026 134.875V160.797C361.026 161.162 360.832 161.483 360.51 161.655L360.5 161.666Z" fill="url(#paint15_linear_7134_679)"/>
<path d="M343.57 117.147L246.727 57.2055V27.7979L343.57 87.7392V117.147Z" fill="url(#paint16_linear_7134_679)"/>
<path d="M221.588 56.4011L246.727 27.7979L343.571 87.7392L318.432 116.342L221.588 56.4011Z" fill="url(#paint17_linear_7134_679)"/>
<path d="M318.432 130.188L343.571 117.029V87.7393L318.432 116.343V130.188Z" fill="url(#paint18_linear_7134_679)"/>
<path d="M228.51 83.2672C224.689 80.897 221.598 75.8885 221.598 72.0704V56.3906L235.434 64.9598V80.6396C235.434 84.4576 232.332 85.6374 228.521 83.2672H228.51Z" fill="url(#paint19_linear_7134_679)"/>
<path d="M242.346 91.8258C238.525 89.4556 235.434 84.4471 235.434 80.629V64.9492L249.27 73.5184V89.1982C249.27 93.0162 246.168 94.196 242.357 91.8258H242.346Z" fill="url(#paint20_linear_7134_679)"/>
<path d="M256.173 100.395C252.351 98.0249 249.26 93.0164 249.26 89.1983V73.5186L263.096 82.0877V97.7675C263.096 101.586 259.994 102.765 256.183 100.395H256.173Z" fill="url(#paint21_linear_7134_679)"/>
<path d="M270.009 108.964C266.187 106.594 263.096 101.586 263.096 97.7677V82.0879L276.932 90.6571V106.337C276.932 110.155 273.841 111.335 270.019 108.964H270.009Z" fill="url(#paint22_linear_7134_679)"/>
<path d="M283.844 117.522C280.023 115.152 276.932 110.143 276.932 106.325V90.6455L290.768 99.2147V114.894C290.768 118.713 287.677 119.892 283.855 117.522H283.844Z" fill="url(#paint23_linear_7134_679)"/>
<path d="M297.682 126.091C293.861 123.721 290.77 118.713 290.77 114.895V99.2148L304.606 107.784V123.464C304.606 127.282 301.504 128.462 297.693 126.091H297.682Z" fill="url(#paint24_linear_7134_679)"/>
<path d="M311.518 134.65C307.697 132.28 304.605 127.271 304.605 123.453V107.773L318.442 116.343V132.022C318.442 135.84 315.35 137.02 311.529 134.65H311.518Z" fill="url(#paint25_linear_7134_679)"/>
<path d="M235.424 64.9597L260.563 36.3564L274.4 44.9256L249.26 73.5289L235.424 64.9597Z" fill="url(#paint26_linear_7134_679)"/>
<path d="M263.098 82.0876L288.237 53.4844L302.073 62.0536L276.934 90.6568L263.098 82.0876Z" fill="url(#paint27_linear_7134_679)"/>
<path d="M290.76 99.2146L315.899 70.6221L329.736 79.1805L304.596 107.784L290.76 99.2146Z" fill="url(#paint28_linear_7134_679)"/>
<g style="mix-blend-mode:multiply" opacity="0.3">
<path d="M289.827 368.41L242.081 393.582C240.911 394.204 239.505 394.139 238.378 393.442L184.127 359.273C183.709 359.005 183.73 358.383 184.17 358.147L234.589 331.592L289.902 366.426C290.653 366.898 290.61 368.003 289.827 368.421V368.41Z" fill="url(#paint29_linear_7134_679)"/>
</g>
<path d="M290.063 355.83H290.02C290.149 355.229 289.935 354.575 289.355 354.211L235.845 320.513C235.062 320.02 234.085 319.987 233.269 320.416L185.384 345.641C184.74 345.974 184.504 346.682 184.675 347.293V351.175C184.514 351.755 184.718 352.42 185.298 352.784L238.679 386.407C239.613 386.997 240.794 387.039 241.77 386.525L289.258 361.493C289.902 361.16 290.16 360.474 290.042 359.841H290.074V355.819L290.063 355.83Z" fill="#282081"/>
<g style="mix-blend-mode:screen">
<path d="M289.257 356.86L241.769 381.892C240.792 382.407 239.611 382.364 238.678 381.774L185.296 348.151C184.352 347.561 184.406 346.178 185.393 345.652L233.278 320.427C234.094 319.998 235.071 320.041 235.854 320.524L289.364 354.222C290.363 354.844 290.298 356.313 289.268 356.86H289.257Z" fill="url(#paint30_linear_7134_679)"/>
</g>
<path d="M211.682 357.095V357.17C211.682 357.17 211.682 357.213 211.692 357.256C211.703 357.299 211.714 357.32 211.714 357.374C211.853 357.878 212.444 359.09 214.623 359.551C218.004 360.259 220.237 358.286 221.718 357.202C223.253 356.087 224.67 355.047 224.96 354.875C226.72 353.835 228.921 353.288 231.229 351.915C232.334 351.25 233.204 350.253 233.676 349.652C234.191 348.987 234.427 348.151 234.427 347.314L234.384 346.445L219.754 352.548L211.735 355.54L211.682 357.106V357.095Z" fill="#18144C"/>
<path d="M220.42 346.166C220.42 346.166 222.878 346.059 226.882 345.373C228.653 345.072 229.855 344.375 230.982 344.182C232.41 343.946 233.601 344.365 234.159 345.737C234.664 346.949 234.771 348.247 231.197 350.692C227.622 353.138 224.853 353.395 221.987 355.701C219.861 357.406 217.951 357.814 215.825 357.964C213.689 358.114 212.251 357.288 211.789 356.419C210.705 354.403 211.832 350.574 211.832 350.574C211.832 350.574 211.907 349.738 212.573 349.405" fill="white"/>
<path d="M212.209 343.239C212.209 343.239 212.563 346.091 212.466 347.732C212.359 349.363 211.693 350.499 212.252 351.164C212.81 351.829 214.72 352.827 217.018 352.215C219.315 351.604 221.075 350.285 221.998 349.727C222.921 349.169 224.671 348.537 224.918 347.904C225.176 347.271 224.285 346.016 222.191 346.134C220.098 346.242 219.358 345.737 219.508 342.22" fill="#FFCEB3"/>
<path d="M238.443 350.543C238.443 350.543 238.594 352.313 239.044 352.827C239.957 353.878 243.22 354.372 245.474 353.396C247.728 352.42 248.673 351.294 250.723 351.111C252.763 350.918 254.598 350.5 256.101 349.771C257.604 349.042 259.268 347.948 259.858 346.875C260.47 345.77 260.395 344.644 259.933 344.258C259.482 343.872 255.06 345.363 255.06 345.363L250.047 346.65" fill="#18144C"/>
<path d="M238.624 342.928C238.624 342.928 238.055 345.051 237.969 346.875C237.905 348.526 238.066 350.21 238.334 350.757C238.603 351.304 239.869 353.202 244.013 352.613C246.664 352.237 246.632 350.671 249.659 350.232C252.192 349.856 254.5 349.502 255.809 348.891C259.255 347.293 259.491 346.145 259.921 345.041C260.35 343.947 258.729 341.201 255.112 342.263C252.654 342.982 252.171 342.606 251.548 342.553C249.337 342.392 248.135 342.263 246.235 341.791C244.968 341.48 238.613 342.917 238.613 342.917L238.624 342.928Z" fill="white"/>
<path d="M234.386 254.126C233.903 257.161 233.13 261.623 232.25 266.502C231.359 271.361 230.371 276.67 229.48 281.453C227.913 289.861 226.614 296.672 226.614 296.672C219.669 298.709 212.155 298.012 211.844 294.655C211.608 292.017 211.726 277.849 210.331 266.867C210.084 264.904 209.687 262.974 208.935 261.151C205.876 253.697 208.259 245.653 208.259 245.653L234.386 254.115V254.126Z" fill="#2B2268"/>
<path d="M224.541 251.788C224.541 251.788 223.618 256.71 226.785 261.58C228.674 264.475 233.783 292.832 234.696 294.677C235.619 296.511 246.085 296.586 249.251 292.296C252.418 288.006 251.935 249.75 251.935 249.75" fill="#2B2268"/>
<path d="M235.705 291.61C235.705 291.61 234.095 295.277 233.677 300.747C233.258 306.217 238.41 337.405 238.41 337.405C238.41 337.405 239.763 341.673 245.731 338.853C245.731 338.853 251.12 290.451 250.744 285.775C250.368 281.099 235.705 291.631 235.705 291.631V291.61Z" fill="#FFCEB3"/>
<path d="M213.581 289.433C213.581 289.433 211.961 293.444 210.2 301.777C207.377 315.076 212.39 344.837 212.39 344.837C212.39 344.837 212.809 345.996 215.642 345.963C218.219 345.931 219.56 344.13 219.56 344.13C219.56 344.13 225.625 307.343 227.16 291.481L213.592 289.433H213.581Z" fill="#FFCEB3"/>
<path d="M211.799 266.996L209.996 295.438C209.996 295.438 225.024 307.086 237.272 306.742C249.519 306.399 249.906 302.195 249.906 302.195L251.838 266.985H211.799V266.996Z" fill="#2B2268"/>
<path d="M229.489 281.453C229.489 281.453 225.196 263.392 223.886 260.893C223.178 259.552 220.741 254.276 220.891 253.096C221.138 251.133 224.412 253.611 224.412 253.611C224.412 253.611 230.38 276.68 229.489 281.463V281.453Z" fill="#1F1B56"/>
<path d="M274.875 198.174C274.327 198.785 271.869 201.241 271.869 201.241C271.869 201.241 269.089 203.376 268.788 203.569C268.466 203.783 267.006 204.352 267.006 204.352L266.395 203.022L267.779 201.327L268.659 200.93L269.593 200.501C269.593 200.501 269.84 200.287 270.194 199.987C270.742 199.472 271.289 199.021 271.826 198.485C272.695 197.616 274.134 196.19 274.885 196.404C275.701 196.651 275.433 197.552 274.885 198.185L274.875 198.174Z" fill="#FFCEB3"/>
<path d="M270.183 199.976C270.151 200.276 270.065 200.726 269.872 201.155C269.314 202.271 268.144 203.054 267.607 203.354C267.092 203.665 268.477 201.209 268.477 201.209C268.477 201.209 268.562 201.091 268.659 200.93L269.593 200.501C269.593 200.501 269.84 200.287 270.194 199.986L270.183 199.976Z" fill="#E29E79"/>
<path d="M255.971 211.569C255.971 211.569 261.145 207.225 261.832 206.829C262.519 206.432 263.045 204.33 263.807 203.311C264.569 202.292 266.404 201.413 267.488 200.265C268.594 199.096 269.324 198.721 269.689 199.182C270.054 199.643 269.807 200.909 268.991 201.831C268.165 202.753 267.446 203.204 267.639 203.397C267.725 203.493 268.723 203 269.249 202.474C269.775 201.949 270.322 200.362 270.784 200.254C271.245 200.158 272.222 200.587 272.555 200.941C272.888 201.305 273.017 203.139 272.673 204.898C272.469 205.928 270.945 208.394 269.721 209.156C268.508 209.917 266.673 210.325 265.363 211.054C264.043 211.773 259.406 217.436 259.406 217.436" fill="#FFCEB3"/>
<path d="M238.411 337.394C238.411 337.394 238.808 340.246 238.733 341.877C238.658 343.507 238.003 344.654 238.572 345.319C239.141 345.984 240.708 346.649 243.574 345.866C244.776 345.534 247.621 345.48 248.974 344.955C250.197 344.483 250.584 343.518 250.401 343.089C250.133 342.456 250.111 342.488 248.04 342.177C245.85 341.855 245.592 339.785 245.7 336.257" fill="#FFCEB3"/>
<path d="M253.309 251.477C253.309 251.477 251.602 253.182 248.285 254.812C248.21 254.855 248.146 254.866 248.071 254.909C247.953 254.963 247.835 255.027 247.727 255.059C245.849 255.756 244.818 253.611 244.818 253.611C244.174 255.842 242.94 256.668 242.178 256.957C238.743 257.794 234.556 258.116 229.64 257.408C217.135 255.563 207.581 246.576 207.581 246.576C207.581 246.576 209.116 238.425 209.728 231.529C210.351 224.654 211.725 212.546 210.501 202.454C209.256 192.34 204.662 178.258 208.505 174.14L208.623 174.022C211.36 171.137 215.643 170.375 219.282 171.984L223.822 173.979C223.822 173.979 244.346 180.414 246.944 186.838C248.629 190.999 249.176 205.414 249.713 218.026C249.906 222.766 250.121 227.249 250.389 230.832C250.507 232.472 250.636 233.952 250.797 235.154C252.171 246.018 253.298 251.477 253.298 251.477H253.309Z" fill="url(#paint31_linear_7134_679)"/>
<g style="mix-blend-mode:color-burn">
<path d="M250.401 230.831C242.844 220.642 235.781 202.399 235.781 202.399L249.714 218.026C249.907 222.766 250.122 227.249 250.39 230.831H250.401Z" fill="#BEE5FF"/>
</g>
<path d="M265.385 214.465C265.385 214.465 254.662 225.973 251.968 225.759C246.815 225.351 235.781 202.4 235.781 202.4C230.972 192.404 242.414 179.449 246.944 186.849C251.485 194.249 254.877 211.58 254.877 211.58L259.224 208.524C259.975 208.567 260.662 208.674 261.242 208.856C265.686 210.132 265.385 214.476 265.385 214.476V214.465Z" fill="url(#paint32_linear_7134_679)"/>
<path d="M243.723 149.14C243.723 149.14 243.165 165.775 240.857 168.08C238.045 170.89 233.977 171.169 233.977 171.169C233.977 171.169 233.354 173.84 233.966 177.819C233.966 177.819 233.504 179.116 231.132 179.502C228.76 179.889 223.854 179.578 222.019 177.057C220.183 174.537 221.428 172.939 221.428 172.939C221.428 172.939 221.504 172.714 221.6 172.295C222.341 169.335 221.858 168.241 220.978 165.324C219.851 161.57 218.337 154.76 219.743 148.54C221.922 138.866 241.34 136.378 243.713 149.151L243.723 149.14Z" fill="#FFCEB3"/>
<path d="M244.378 149.215C243.327 140.978 230.553 133.911 220.828 141.869C217.532 144.571 215.783 147.499 214.935 150.448V150.427C214.935 150.427 214.902 150.534 214.87 150.717C214.752 151.178 214.634 151.628 214.559 152.089C214.022 154.288 213.271 159.801 211.339 164.176C207.26 173.41 205.51 172.102 204.63 176.456C203.481 182.108 206.573 184.607 207.904 187.835C209.235 191.074 208.451 193.176 211.339 196.555C214.226 199.933 231.798 206.647 233.226 194.742C234.653 182.838 238.281 181.669 237.111 176.242C236.714 174.419 236.049 172.96 235.33 171.598C235.33 171.576 235.33 171.576 235.319 171.555C233.848 168.091 234.342 166.6 234.643 164.562C234.825 163.35 236.07 161.559 238.281 159.522C239.784 158.138 239.57 157.13 239.58 156.54C241.845 155.918 245.259 154.17 244.4 149.226L244.378 149.215Z" fill="#2B2268"/>
<path d="M412.25 285.753L373.896 308.941L337.314 286.826L375.678 263.639L412.25 285.753Z" fill="#EAD16C"/>
<path style="mix-blend-mode:multiply" opacity="0.3" d="M412.25 331.41L373.896 354.586L337.314 332.471L375.678 309.295L412.25 331.41Z" fill="url(#paint33_linear_7134_679)"/>
<path d="M373.896 308.941V345.395L412.25 322.208V285.754L373.896 308.941Z" fill="#DDC350"/>
<path d="M373.897 308.941V345.395L337.314 323.269V286.837L373.897 308.941Z" fill="#C8AD3F"/>
<g style="mix-blend-mode:multiply" opacity="0.5">
<path d="M412.25 287.03L373.896 310.217L373.854 310.25V321.736L373.896 321.715L412.25 298.517V287.03Z" fill="#C8AD3F"/>
</g>
<g style="mix-blend-mode:multiply" opacity="0.5">
<path d="M373.854 310.25V321.736L337.314 299.653V288.167L373.854 310.25Z" fill="#C8AD3F"/>
</g>
<path d="M413.022 285.303L373.874 308.962L336.541 286.397L375.689 262.728L413.022 285.303Z" fill="#EAD16C"/>
<path d="M373.875 308.963V320.074L413.023 296.415V285.304L373.875 308.963Z" fill="#DDC350"/>
<path d="M336.541 286.397L373.874 308.963V320.074L336.541 297.508V286.397Z" fill="#C8AD3F"/>
<path d="M368.004 54.4607V85.402C368.004 86.2278 368.401 87.0215 369.099 87.4934C369.131 87.5041 369.163 87.5363 369.195 87.5577L379.318 93.7889L400.228 106.659C400.593 106.895 401.011 106.862 401.323 106.648L405.423 104.128C405.788 103.913 406.014 103.516 406.014 103.098V73.1864C406.014 72.0173 405.412 70.9234 404.414 70.3228L373.693 51.3934C373.296 51.1467 372.802 51.1467 372.394 51.3827L368.498 53.7529C368.498 53.7529 368.401 53.7958 368.358 53.8279C368.154 53.9674 368.015 54.1926 368.015 54.4714L368.004 54.4607Z" fill="#F1CE63"/>
<path d="M368.004 54.4607V85.402C368.004 86.2278 368.401 87.0215 369.099 87.4934C369.131 87.5041 369.163 87.5363 369.195 87.5577L379.318 93.7889L400.228 106.659C400.593 106.895 401.011 106.862 401.323 106.648C401.58 106.476 401.784 106.176 401.784 105.801V75.6424C401.784 74.5484 401.215 73.5296 400.292 72.9504L369.185 53.8065C368.948 53.6671 368.712 53.6564 368.487 53.7421C368.444 53.7529 368.39 53.785 368.347 53.8172C368.143 53.9566 368.004 54.1819 368.004 54.4607Z" fill="#F4DA7E"/>
<path d="M383.354 73.7122L381.282 76.801C381.164 76.9833 380.928 77.0583 380.724 76.9833L376.237 75.2458C375.807 75.085 375.421 75.5676 375.679 75.943L379.253 81.3269C379.318 81.4341 379.35 81.5521 379.328 81.67L378.405 86.5606C378.351 86.8502 378.566 87.1183 378.867 87.1183L383.665 87.1505C383.794 87.1505 383.912 87.2041 384.008 87.3006L388.399 91.9338C388.721 92.2662 389.279 91.9981 389.204 91.5369L388.431 86.6357C388.399 86.4212 388.506 86.2174 388.71 86.1316L392.102 84.6301C392.445 84.48 392.478 84.0188 392.177 83.8043L386.778 80.1471C386.703 80.0935 386.638 80.0184 386.606 79.9326L384.202 73.798C384.062 73.4441 383.579 73.3904 383.375 73.7122H383.354Z" fill="white"/>
<path d="M203.932 94.0886V118.262C203.932 118.917 204.243 119.528 204.79 119.903C204.812 119.914 204.833 119.936 204.866 119.946L212.777 124.815L229.114 134.865C229.404 135.047 229.726 135.025 229.973 134.854L233.172 132.88C233.461 132.709 233.633 132.398 233.633 132.076V108.707C233.633 107.795 233.161 106.937 232.377 106.465L208.376 91.6755C208.064 91.4824 207.678 91.4824 207.367 91.6647L204.318 93.5201C204.318 93.5201 204.243 93.5523 204.211 93.5845C204.05 93.6917 203.942 93.8741 203.942 94.0886H203.932Z" fill="#F1CE63"/>
<path d="M203.932 94.0885V118.262C203.932 118.917 204.243 119.528 204.79 119.903C204.812 119.914 204.833 119.935 204.866 119.946L212.777 124.815L229.114 134.865C229.404 135.047 229.726 135.025 229.973 134.854C230.177 134.725 230.338 134.478 230.338 134.189V110.626C230.338 109.768 229.898 108.975 229.168 108.524L204.866 93.563C204.683 93.4557 204.49 93.445 204.329 93.5201C204.297 93.5308 204.254 93.5523 204.221 93.5844C204.06 93.6917 203.953 93.874 203.953 94.0885H203.932Z" fill="#F4DA7E"/>
<path d="M215.933 109.136L214.312 111.549C214.216 111.688 214.033 111.752 213.872 111.688L210.362 110.337C210.029 110.208 209.729 110.583 209.922 110.884L212.724 115.088C212.777 115.163 212.799 115.27 212.777 115.356L212.058 119.174C212.015 119.399 212.187 119.614 212.423 119.614L216.169 119.635C216.266 119.635 216.363 119.678 216.438 119.753L219.862 123.378C220.109 123.636 220.549 123.421 220.495 123.067L219.894 119.238C219.873 119.078 219.959 118.917 220.109 118.842L222.76 117.662C223.028 117.544 223.061 117.179 222.814 117.018L218.595 114.166C218.531 114.123 218.488 114.069 218.456 113.994L216.577 109.2C216.47 108.921 216.094 108.878 215.933 109.125V109.136Z" fill="white"/>
<path d="M188.378 106.938L154.802 86.6357C154.04 86.1745 153.203 86.0995 152.451 86.3032C152.333 86.3354 149.811 87.247 149.811 87.247L150.605 87.6009C150.176 88.1908 149.896 88.9201 149.907 89.7566L150.143 109.04C150.176 111.689 151.507 114.124 153.653 115.475L187.015 136.421C187.208 136.539 187.402 136.603 187.595 136.678L187.434 137.611L190.053 136.71H190.021C191.266 136.206 192.232 135.016 192.221 133.45L192.092 113.587C192.071 110.842 190.665 108.321 188.378 106.938Z" fill="#2B2268"/>
<path style="mix-blend-mode:screen" d="M188.378 106.938L154.802 86.6357C154.04 86.1745 153.203 86.0995 152.451 86.3032C152.333 86.3354 149.811 87.247 149.811 87.247L150.605 87.6009C150.176 88.1908 149.896 88.9201 149.907 89.7566L150.143 109.04C150.176 111.689 151.507 114.124 153.653 115.475L187.015 136.421C187.208 136.539 187.402 136.603 187.595 136.678L187.434 137.611L190.053 136.71H190.021C191.266 136.206 192.232 135.016 192.221 133.45L192.092 113.587C192.071 110.842 190.665 108.321 188.378 106.938Z" fill="url(#paint34_linear_7134_679)"/>
<path d="M179.555 141.751L182.786 140.55V133.696L178.353 132.495L177.473 134.168L179.555 141.751Z" fill="#2B2268"/>
<path style="mix-blend-mode:screen" d="M179.555 141.751L182.786 140.55V133.696L178.353 132.495L177.473 134.168L179.555 141.751Z" fill="url(#paint35_linear_7134_679)"/>
<path d="M185.898 107.817L152.386 87.5256C150.207 86.2064 147.47 87.9546 147.502 90.6465L147.738 109.908C147.771 112.557 149.102 114.992 151.248 116.343L171.772 129.299L179.554 141.761L179.501 134.157L184.557 137.289C186.843 138.726 189.763 137.064 189.741 134.318L189.612 114.477C189.591 111.732 188.185 109.211 185.898 107.828V107.817Z" fill="#C7F1FF"/>
<path d="M153.91 93.7568L183.977 112.075" stroke="white" stroke-width="0.44" stroke-linecap="round" stroke-linejoin="round"/>
<path d="M153.963 98.2939L184.008 116.719" stroke="white" stroke-width="0.44" stroke-linecap="round" stroke-linejoin="round"/>
<path d="M154.018 102.841L184.041 121.352" stroke="white" stroke-width="0.44" stroke-linecap="round" stroke-linejoin="round"/>
<path d="M154.07 107.367L184.072 125.986" stroke="white" stroke-width="0.44" stroke-linecap="round" stroke-linejoin="round"/>
<path d="M154.125 111.903L184.106 130.608" stroke="white" stroke-width="0.44" stroke-linecap="round" stroke-linejoin="round"/>
<path style="mix-blend-mode:multiply" opacity="0.3" d="M359.362 355.411C361.251 355.057 363.237 356.023 363.913 357.824C364.128 358.382 364.235 359.036 364.106 359.787C363.473 363.476 353.437 366.469 350.066 369.332C346.996 371.938 346.696 375.735 335.113 376.754C328.705 377.322 324.68 376.228 323.724 373.493C322.769 370.748 326.322 367.788 331.024 366.19C336.927 364.184 345.837 363.015 349.948 360.055C353.029 357.846 356.807 355.894 359.362 355.411Z" fill="url(#paint36_linear_7134_679)"/>
<path style="mix-blend-mode:multiply" opacity="0.3" d="M343.432 345.941C345.321 345.587 347.307 346.552 347.983 348.354C348.198 348.911 348.306 349.566 348.177 350.316C347.543 354.006 337.507 356.998 334.136 359.861C331.066 362.468 330.766 366.264 319.184 367.283C312.775 367.852 308.75 366.758 307.795 364.023C306.839 361.277 310.392 358.317 315.094 356.719C320.998 354.714 329.907 353.545 334.018 350.584C337.099 348.375 340.877 346.423 343.432 345.941Z" fill="url(#paint37_linear_7134_679)"/>
<path d="M321.953 344.837C329.993 336.225 331.807 329.725 336.186 324.513C336.981 323.559 340.609 317.252 344.602 319.408C345.632 320.127 346.234 321.735 346.899 322.379C349.776 325.157 348.906 331.077 347.189 336.503C345.429 342.08 344.87 348.987 345.01 350.446C345.053 350.939 344.645 351.357 344.13 351.357H344.108C343.647 351.357 343.249 351.004 343.228 350.553C343.153 349.32 343.024 338.391 343.024 337.04C343.024 335.141 341.575 335.41 338.226 340.815C334.92 346.145 335.338 350.07 332.655 356.302C328.973 364.828 316.65 363.466 314.611 363.466C309.394 363.466 305.433 360.184 309.018 355.991C313.205 351.111 316.468 350.714 321.953 344.837Z" fill="#3C23D0"/>
<path d="M345.707 322.271C345.653 322.958 345.428 323.794 345.073 324.749C342.454 332.031 332.364 346.22 328.511 349.899C327.427 350.939 326.203 351.679 324.979 352.172C320.492 353.985 315.78 352.473 316.22 349.899C317.905 348.665 319.752 347.185 321.941 344.836C329.981 336.214 334.071 326.046 338.343 320.748C340.415 318.185 346.05 317.681 345.696 322.271H345.707Z" fill="url(#paint38_linear_7134_679)"/>
<path style="mix-blend-mode:darken" d="M345.075 324.759C342.456 332.041 332.366 346.23 328.512 349.909C327.428 350.949 326.204 351.689 324.98 352.183C326.473 350.252 329.006 346.691 330.959 342.863C333.385 338.112 335.393 333.103 336.702 330.636C338.022 328.137 339.321 326.1 340.878 325.167C342.606 324.126 344.645 324.534 345.075 324.759Z" fill="url(#paint39_linear_7134_679)"/>
<path d="M335.703 353.256C343.743 344.644 345.557 338.144 349.936 332.932C350.731 331.977 354.359 325.671 358.352 327.827C359.382 328.546 359.984 330.154 360.649 330.798C363.526 333.575 362.656 339.496 360.939 344.922C359.179 350.499 358.62 357.406 358.76 358.865C358.803 359.358 358.395 359.776 357.88 359.776H357.858C357.397 359.776 357 359.422 356.978 358.972C356.903 357.739 356.774 346.81 356.774 345.459C356.774 343.56 355.325 343.828 351.976 349.234C348.67 354.564 349.088 358.489 346.405 364.721C342.723 373.247 330.4 371.885 328.361 371.885C323.144 371.885 319.183 368.603 322.768 364.41C326.955 359.53 330.218 359.133 335.703 353.256Z" fill="#3C23D0"/>
<path d="M359.457 330.69C359.403 331.377 359.178 332.213 358.823 333.168C356.204 340.45 346.114 354.639 342.261 358.317C341.177 359.358 339.953 360.098 338.729 360.591C334.242 362.404 329.53 360.891 329.97 358.317C331.655 357.084 333.502 355.604 335.691 353.255C343.731 344.633 347.821 334.476 352.093 329.167C354.165 326.604 359.8 326.1 359.446 330.69H359.457Z" fill="url(#paint40_linear_7134_679)"/>
<path style="mix-blend-mode:darken" d="M358.825 333.167C356.206 340.449 346.116 354.639 342.262 358.317C341.178 359.357 339.954 360.097 338.73 360.591C340.223 358.671 342.756 355.1 344.709 351.271C347.135 346.52 349.143 341.511 350.452 339.045C351.772 336.546 353.071 334.508 354.628 333.575C356.356 332.535 358.395 332.942 358.825 333.167Z" fill="url(#paint41_linear_7134_679)"/>
</g>
<defs>
<linearGradient id="paint0_linear_7134_679" x1="331.534" y1="30.1795" x2="364.249" y2="37.1394" gradientUnits="userSpaceOnUse">
<stop stop-color="#40B0F8"/>
<stop offset="1" stop-color="#696AFA"/>
</linearGradient>
<linearGradient id="paint1_linear_7134_679" x1="354.081" y1="144.966" x2="376.141" y2="149.66" gradientUnits="userSpaceOnUse">
<stop stop-color="#40B0F8"/>
<stop offset="1" stop-color="#696AFA"/>
</linearGradient>
<linearGradient id="paint2_linear_7134_679" x1="364.08" y1="167.259" x2="386.14" y2="171.952" gradientUnits="userSpaceOnUse">
<stop stop-color="#40B0F8"/>
<stop offset="1" stop-color="#696AFA"/>
</linearGradient>
<linearGradient id="paint3_linear_7134_679" x1="216.504" y1="13.6265" x2="238.575" y2="18.3219" gradientUnits="userSpaceOnUse">
<stop stop-color="#40B0F8"/>
<stop offset="1" stop-color="#696AFA"/>
</linearGradient>
<linearGradient id="paint4_linear_7134_679" x1="153.826" y1="68.6434" x2="175.886" y2="73.3364" gradientUnits="userSpaceOnUse">
<stop stop-color="#40B0F8"/>
<stop offset="1" stop-color="#696AFA"/>
</linearGradient>
<linearGradient id="paint5_linear_7134_679" x1="270.815" y1="34.7777" x2="303.531" y2="41.7376" gradientUnits="userSpaceOnUse">
<stop stop-color="#40B0F8"/>
<stop offset="1" stop-color="#696AFA"/>
</linearGradient>
<linearGradient id="paint6_linear_7134_679" x1="212.933" y1="208.009" x2="121.318" y2="213.023" gradientUnits="userSpaceOnUse">
<stop stop-color="#82DEFE"/>
<stop offset="1" stop-color="#3262FF"/>
</linearGradient>
<linearGradient id="paint7_linear_7134_679" x1="349.186" y1="290.3" x2="432" y2="290.3" gradientUnits="userSpaceOnUse">
<stop stop-color="#2F31C9"/>
<stop offset="0.64" stop-color="#2F31C9"/>
</linearGradient>
<linearGradient id="paint8_linear_7134_679" x1="239.546" y1="271.435" x2="365.855" y2="271.435" gradientUnits="userSpaceOnUse">
<stop stop-color="#2F31C9"/>
<stop offset="0.64" stop-color="#2F31C9"/>
</linearGradient>
<linearGradient id="paint9_linear_7134_679" x1="243.164" y1="157.301" x2="360.199" y2="157.301" gradientUnits="userSpaceOnUse">
<stop stop-color="#40B0F8"/>
<stop offset="1" stop-color="#696AFA"/>
</linearGradient>
<linearGradient id="paint10_linear_7134_679" x1="282.785" y1="253.505" x2="298.125" y2="17.3577" gradientUnits="userSpaceOnUse">
<stop stop-color="#40B0F8"/>
<stop offset="1" stop-color="#696AFA"/>
</linearGradient>
<linearGradient id="paint11_linear_7134_679" x1="285.703" y1="240.548" x2="296.666" y2="278.605" gradientUnits="userSpaceOnUse">
<stop stop-color="#40B0F8"/>
<stop offset="1" stop-color="#696AFA"/>
</linearGradient>
<linearGradient id="paint12_linear_7134_679" x1="284.296" y1="233.269" x2="295.138" y2="66.3661" gradientUnits="userSpaceOnUse">
<stop stop-color="#40B0F8"/>
<stop offset="1" stop-color="#696AFA"/>
</linearGradient>
<linearGradient id="paint13_linear_7134_679" x1="13.4816" y1="-111.434" x2="30.4171" y2="-125.238" gradientUnits="userSpaceOnUse">
<stop stop-color="#40B0F8"/>
<stop offset="1" stop-color="#696AFA"/>
</linearGradient>
<linearGradient id="paint14_linear_7134_679" x1="359.244" y1="128.837" x2="359.244" y2="104.019" gradientUnits="userSpaceOnUse">
<stop stop-color="#40B0F8"/>
<stop offset="1" stop-color="#69DBFA"/>
</linearGradient>
<linearGradient id="paint15_linear_7134_679" x1="82.9989" y1="161.655" x2="84.0705" y2="136.848" gradientUnits="userSpaceOnUse">
<stop stop-color="#40B0F8"/>
<stop offset="1" stop-color="#69DBFA"/>
</linearGradient>
<linearGradient id="paint16_linear_7134_679" x1="295.148" y1="110.723" x2="295.148" y2="17.7594" gradientUnits="userSpaceOnUse">
<stop stop-color="#40B0F8"/>
<stop offset="1" stop-color="#696AFA"/>
</linearGradient>
<linearGradient id="paint17_linear_7134_679" x1="282.579" y1="109.983" x2="282.579" y2="17.8559" gradientUnits="userSpaceOnUse">
<stop stop-color="#40B0F8"/>
<stop offset="1" stop-color="#696AFA"/>
</linearGradient>
<linearGradient id="paint18_linear_7134_679" x1="331.001" y1="127.132" x2="331.001" y2="82.9774" gradientUnits="userSpaceOnUse">
<stop stop-color="#40B0F8"/>
<stop offset="1" stop-color="#696AFA"/>
</linearGradient>
<linearGradient id="paint19_linear_7134_679" x1="228.51" y1="63.8659" x2="228.51" y2="86.9994" gradientUnits="userSpaceOnUse">
<stop stop-color="#40B0F8"/>
<stop offset="1" stop-color="#696AFA"/>
</linearGradient>
<linearGradient id="paint20_linear_7134_679" x1="242.346" y1="95.4079" x2="242.346" y2="71.3949" gradientUnits="userSpaceOnUse">
<stop stop-color="#40B0F8"/>
<stop offset="1" stop-color="#BEE5FF"/>
</linearGradient>
<linearGradient id="paint21_linear_7134_679" x1="256.173" y1="81.0045" x2="256.173" y2="102.283" gradientUnits="userSpaceOnUse">
<stop stop-color="#40B0F8"/>
<stop offset="1" stop-color="#696AFA"/>
</linearGradient>
<linearGradient id="paint22_linear_7134_679" x1="270.009" y1="111.86" x2="270.009" y2="87.6005" gradientUnits="userSpaceOnUse">
<stop stop-color="#40B0F8"/>
<stop offset="1" stop-color="#BEE5FF"/>
</linearGradient>
<linearGradient id="paint23_linear_7134_679" x1="283.844" y1="96.7801" x2="283.844" y2="118.723" gradientUnits="userSpaceOnUse">
<stop stop-color="#40B0F8"/>
<stop offset="1" stop-color="#696AFA"/>
</linearGradient>
<linearGradient id="paint24_linear_7134_679" x1="297.682" y1="129.223" x2="297.682" y2="104.502" gradientUnits="userSpaceOnUse">
<stop stop-color="#40B0F8"/>
<stop offset="1" stop-color="#BEE5FF"/>
</linearGradient>
<linearGradient id="paint25_linear_7134_679" x1="311.518" y1="113.919" x2="311.518" y2="135.176" gradientUnits="userSpaceOnUse">
<stop stop-color="#40B0F8"/>
<stop offset="1" stop-color="#696AFA"/>
</linearGradient>
<linearGradient id="paint26_linear_7134_679" x1="254.917" y1="76.06" x2="254.917" y2="43.3598" gradientUnits="userSpaceOnUse">
<stop stop-color="#40B0F8"/>
<stop offset="1" stop-color="#BEE5FF"/>
</linearGradient>
<linearGradient id="paint27_linear_7134_679" x1="282.58" y1="93.1879" x2="282.58" y2="60.4877" gradientUnits="userSpaceOnUse">
<stop stop-color="#40B0F8"/>
<stop offset="1" stop-color="#BEE5FF"/>
</linearGradient>
<linearGradient id="paint28_linear_7134_679" x1="310.253" y1="110.315" x2="310.253" y2="77.6147" gradientUnits="userSpaceOnUse">
<stop stop-color="#40B0F8"/>
<stop offset="1" stop-color="#BEE5FF"/>
</linearGradient>
<linearGradient id="paint29_linear_7134_679" x1="183.827" y1="362.79" x2="290.438" y2="362.79" gradientUnits="userSpaceOnUse">
<stop stop-color="#2F31C9"/>
<stop offset="0.64" stop-color="#2F31C9"/>
</linearGradient>
<linearGradient id="paint30_linear_7134_679" x1="184.61" y1="351.186" x2="290.062" y2="351.186" gradientUnits="userSpaceOnUse">
<stop stop-color="#40B0F8"/>
<stop offset="1" stop-color="#696AFA"/>
</linearGradient>
<linearGradient id="paint31_linear_7134_679" x1="230.155" y1="258.673" x2="230.155" y2="175.416" gradientUnits="userSpaceOnUse">
<stop stop-color="#40B0F8"/>
<stop offset="1" stop-color="#BEE5FF"/>
</linearGradient>
<linearGradient id="paint32_linear_7134_679" x1="250.014" y1="258.673" x2="250.014" y2="175.416" gradientUnits="userSpaceOnUse">
<stop stop-color="#40B0F8"/>
<stop offset="1" stop-color="#BEE5FF"/>
</linearGradient>
<linearGradient id="paint33_linear_7134_679" x1="337.314" y1="331.935" x2="412.25" y2="331.935" gradientUnits="userSpaceOnUse">
<stop stop-color="#C93C2F"/>
<stop offset="0.64" stop-color="#C93C2F"/>
</linearGradient>
<linearGradient id="paint34_linear_7134_679" x1="122.937" y1="110.353" x2="164.468" y2="111.994" gradientUnits="userSpaceOnUse">
<stop stop-color="#40B0F8"/>
<stop offset="1" stop-color="#696AFA"/>
</linearGradient>
<linearGradient id="paint35_linear_7134_679" x1="177.473" y1="137.118" x2="182.786" y2="137.118" gradientUnits="userSpaceOnUse">
<stop stop-color="#40B0F8"/>
<stop offset="1" stop-color="#696AFA"/>
</linearGradient>
<linearGradient id="paint36_linear_7134_679" x1="323.563" y1="366.125" x2="364.171" y2="366.125" gradientUnits="userSpaceOnUse">
<stop stop-color="#2F31C9"/>
<stop offset="0.64" stop-color="#2F31C9"/>
</linearGradient>
<linearGradient id="paint37_linear_7134_679" x1="307.644" y1="356.655" x2="348.241" y2="356.655" gradientUnits="userSpaceOnUse">
<stop stop-color="#2F31C9"/>
<stop offset="0.64" stop-color="#2F31C9"/>
</linearGradient>
<linearGradient id="paint38_linear_7134_679" x1="316.199" y1="335.892" x2="345.728" y2="335.892" gradientUnits="userSpaceOnUse">
<stop stop-color="#40B0F8"/>
<stop offset="1" stop-color="#696AFA"/>
</linearGradient>
<linearGradient id="paint39_linear_7134_679" x1="341.758" y1="326.732" x2="327.939" y2="350.391" gradientUnits="userSpaceOnUse">
<stop stop-color="#406FF8"/>
<stop offset="1" stop-color="#696AFA"/>
</linearGradient>
<linearGradient id="paint40_linear_7134_679" x1="329.949" y1="344.311" x2="359.468" y2="344.311" gradientUnits="userSpaceOnUse">
<stop stop-color="#40B0F8"/>
<stop offset="1" stop-color="#696AFA"/>
</linearGradient>
<linearGradient id="paint41_linear_7134_679" x1="355.508" y1="335.141" x2="341.689" y2="358.81" gradientUnits="userSpaceOnUse">
<stop stop-color="#406FF8"/>
<stop offset="1" stop-color="#696AFA"/>
</linearGradient>
<clipPath id="clip0_7134_679">
<rect width="349" height="394" fill="white" transform="translate(83)"/>
</clipPath>
</defs>
</svg>
