<svg width="92" height="92" viewBox="0 0 92 92" fill="none" xmlns="http://www.w3.org/2000/svg">
<mask id="mask0_7131_611" style="mask-type:alpha" maskUnits="userSpaceOnUse" x="0" y="0" width="92" height="92">
<rect width="92" height="92" fill="white"/>
</mask>
<g mask="url(#mask0_7131_611)">
<path d="M84.1872 51.0226V59.5492C83.0703 63.9794 79.193 63.5458 75.4965 63.4479C74.5267 56.0023 65.7506 52.833 60.3848 58.2044V32.8502C60.3848 32.0908 61.44 31.6332 62.0899 31.5733C64.6138 31.3375 69.6756 31.3535 72.2094 31.5813C75.3495 31.863 76.6671 33.9073 77.9171 36.4611C79.9998 40.7114 81.703 45.1756 83.746 49.4479L84.1872 51.0246V51.0226ZM65.4008 38.0417C64.8285 38.2456 64.4707 38.6652 64.3992 39.2787C64.2323 40.7194 64.2303 44.728 64.3992 46.1667C64.5165 47.1579 65.3472 47.5096 66.2554 47.5895C68.7018 47.8073 73.4893 47.8073 75.9377 47.5895C77.2772 47.4696 78.09 46.7582 77.7204 45.3355C77.4878 44.4402 75.5243 40.2079 74.9937 39.4026C74.5128 38.6772 73.6801 38.1057 72.8076 38.0098C70.5063 37.76 67.7499 38.1696 65.4008 38.0417Z" fill="url(#paint0_linear_7131_611)"/>
<path d="M11.1458 45.9374V26.4182C11.1458 24.348 13.4948 22.0899 15.5358 22.006L52.7289 22C55.5291 22.3157 57.0752 24.2501 57.268 27.0097C57.8682 35.6802 56.805 45.0482 57.262 53.7907C57.1726 54.59 56.8646 55.1795 56.0756 55.4392L9.32138 55.4752C7.92229 55.1675 7.51091 53.395 8.77288 52.6017C10.1263 51.7504 15.7484 53.5948 15.1304 50.3876C14.5958 47.606 8.60793 50.4995 8.04948 47.9237C7.64804 46.0653 9.78046 45.7356 11.1458 45.9374Z" fill="url(#paint1_linear_7131_611)"/>
<path d="M55.8474 58.6533C57.8128 59.003 57.7135 63.0475 56.1137 63.4092L34.5669 63.4472L34.1197 63.2993L33.5315 60.8994L32.2695 58.6533H55.8474Z" fill="url(#paint2_linear_7131_611)"/>
<path d="M25.0994 58.6944C32.3353 58.1748 33.1402 69.3192 25.944 69.8668C18.5829 70.4263 17.7721 59.2199 25.0994 58.6944Z" fill="url(#paint3_linear_7131_611)"/>
<path d="M66.303 58.6921C73.533 58.0406 74.4511 69.3729 67.1516 69.8665C59.8501 70.362 59.0254 59.3475 66.303 58.6921Z" fill="url(#paint4_linear_7131_611)"/>
<path d="M18.733 58.6533C17.6201 60.0521 17.0417 61.7027 16.7118 63.4492C14.3787 63.727 12.1807 62.494 11.4354 60.232C11.35 59.9722 10.9684 58.6533 11.3699 58.6533H18.733Z" fill="url(#paint5_linear_7131_611)"/>
<path d="M65.401 38.0422C67.75 38.17 70.5065 37.7604 72.8078 38.0102C73.6803 38.1061 74.513 38.6756 74.9939 39.403C75.5265 40.2083 77.49 44.4407 77.7205 45.3359C78.0902 46.7607 77.2774 47.472 75.9379 47.5899C73.4895 47.8078 68.704 47.8078 66.2556 47.5899C65.3473 47.51 64.5147 47.1583 64.3994 46.1672C64.2305 44.7284 64.2324 40.7199 64.3994 39.2791C64.4709 38.6656 64.8286 38.246 65.401 38.0422Z" fill="white"/>
</g>
<defs>
<linearGradient id="paint0_linear_7131_611" x1="72.286" y1="31.4033" x2="72.286" y2="63.5059" gradientUnits="userSpaceOnUse">
<stop stop-color="#006CB4"/>
<stop offset="1" stop-color="#B658E8"/>
</linearGradient>
<linearGradient id="paint1_linear_7131_611" x1="32.7284" y1="22" x2="32.7284" y2="55.4752" gradientUnits="userSpaceOnUse">
<stop stop-color="#006CB4"/>
<stop offset="1" stop-color="#B658E8"/>
</linearGradient>
<linearGradient id="paint2_linear_7131_611" x1="44.7939" y1="58.6533" x2="44.7939" y2="63.4472" gradientUnits="userSpaceOnUse">
<stop stop-color="#006CB4"/>
<stop offset="1" stop-color="#B658E8"/>
</linearGradient>
<linearGradient id="paint3_linear_7131_611" x1="25.4737" y1="58.6768" x2="25.4737" y2="69.887" gradientUnits="userSpaceOnUse">
<stop stop-color="#006CB4"/>
<stop offset="1" stop-color="#B658E8"/>
</linearGradient>
<linearGradient id="paint4_linear_7131_611" x1="66.7191" y1="58.665" x2="66.7191" y2="69.8827" gradientUnits="userSpaceOnUse">
<stop stop-color="#006CB4"/>
<stop offset="1" stop-color="#B658E8"/>
</linearGradient>
<linearGradient id="paint5_linear_7131_611" x1="14.9612" y1="58.6533" x2="14.9612" y2="63.4879" gradientUnits="userSpaceOnUse">
<stop stop-color="#006CB4"/>
<stop offset="1" stop-color="#B658E8"/>
</linearGradient>
</defs>
</svg>
