<svg width="92" height="92" viewBox="0 0 92 92" fill="none" xmlns="http://www.w3.org/2000/svg">
<mask id="mask0_7131_612" style="mask-type:alpha" maskUnits="userSpaceOnUse" x="0" y="0" width="92" height="92">
<rect width="92" height="92" fill="white"/>
</mask>
<g mask="url(#mask0_7131_612)">
<path d="M43.9353 51.369C44.8158 52.1633 46.0562 52.3991 47.0799 51.7014C48.183 50.9496 50.7877 46.0774 51.7727 44.626C51.9217 44.4057 52.421 43.5457 52.6087 43.5244L76.0339 51.8328L76.3803 52.2658L45.6828 63.1465L15.0801 52.2677L15.4265 51.8348L38.8516 43.5263L43.9334 51.369H43.9353Z" fill="url(#paint0_linear_7131_612)"/>
<path d="M45.8691 49.5769L45.5769 49.488C42.4671 44.1887 38.8715 39.1542 36.0075 33.708C33.0718 28.1265 30.8251 23.3877 34.4071 17.3656C39.4985 8.80395 52.1971 8.89285 57.1569 17.5472C60.0054 22.5199 59.0379 26.1997 56.7795 31.0641C53.7723 37.5404 49.3872 43.3866 45.871 49.5769H45.8691ZM45.275 19.2924C38.2832 19.8567 38.8754 30.3606 45.7859 30.2891C53.1975 30.2118 52.7795 18.6855 45.275 19.2924Z" fill="url(#paint1_linear_7131_612)"/>
<path d="M76.3822 63.3217L45.6653 74.1001L15.0801 63.2502L15.4284 62.8888L26.7878 58.8477L45.048 65.351L45.9421 65.4534L64.6764 58.8515L76.0358 62.8888L76.3822 63.3217Z" fill="url(#paint2_linear_7131_612)"/>
<path d="M67.6499 16.8413C66.5759 16.6538 66.4249 14.9164 67.8008 14.725C69.705 14.4602 75.0287 14.526 77.0199 14.7115C77.914 14.7946 78.2836 14.9627 78.3688 15.9155C78.6377 18.9304 78.1617 22.3493 78.3533 25.4087C78.1365 26.7924 76.3755 26.2919 76.3755 25.7005V16.8413H67.648H67.6499Z" fill="url(#paint3_linear_7131_612)"/>
<path d="M15.0795 25.6985C14.9556 26.431 13.2991 26.6706 13.1018 25.4067C13.2953 22.3473 12.8173 18.9285 13.0863 15.9136C13.1714 14.9608 13.541 14.7926 14.4351 14.7095C17.3533 14.439 20.6915 14.9144 23.6561 14.7231C24.4728 14.8158 24.9953 15.8981 24.4089 16.5223C24.3857 16.5475 23.84 16.8412 23.8071 16.8412H15.0795V25.6985Z" fill="url(#paint4_linear_7131_612)"/>
<path d="M23.9492 77.9187C24.8684 78.1119 24.9265 79.6542 23.9454 79.8996C20.793 79.689 17.2574 80.1934 14.1515 79.9093C13.3349 79.8339 13.1607 79.6503 13.0872 78.8463C12.8085 75.7889 13.3058 72.3101 13.0968 69.2063C13.3136 68.068 15.0804 68.3424 15.0804 69.0614V77.7061L15.2932 77.9187H23.9492Z" fill="url(#paint5_linear_7131_612)"/>
<path d="M76.3801 69.0644C76.5717 68.1715 78.174 68.216 78.3637 69.2093C78.1547 72.3132 78.652 75.7919 78.3734 78.8494C78.2979 79.6649 78.114 79.8389 77.309 79.9123C74.2031 80.1964 70.6675 79.692 67.5152 79.9026C66.4179 79.6997 66.7546 77.9217 67.5113 77.9217H76.1673L76.3801 77.7091V69.0644Z" fill="url(#paint6_linear_7131_612)"/>
</g>
<defs>
<linearGradient id="paint0_linear_7131_612" x1="45.7302" y1="43.5244" x2="45.7302" y2="63.1465" gradientUnits="userSpaceOnUse">
<stop stop-color="#006CB4"/>
<stop offset="1" stop-color="#B658E8"/>
</linearGradient>
<linearGradient id="paint1_linear_7131_612" x1="45.7401" y1="11" x2="45.7401" y2="49.5769" gradientUnits="userSpaceOnUse">
<stop stop-color="#006CB4"/>
<stop offset="1" stop-color="#B658E8"/>
</linearGradient>
<linearGradient id="paint2_linear_7131_612" x1="45.7311" y1="58.8477" x2="45.7311" y2="74.1001" gradientUnits="userSpaceOnUse">
<stop stop-color="#006CB4"/>
<stop offset="1" stop-color="#B658E8"/>
</linearGradient>
<linearGradient id="paint3_linear_7131_612" x1="72.63" y1="14.5488" x2="72.63" y2="26.2973" gradientUnits="userSpaceOnUse">
<stop stop-color="#006CB4"/>
<stop offset="1" stop-color="#B658E8"/>
</linearGradient>
<linearGradient id="paint4_linear_7131_612" x1="18.8306" y1="14.624" x2="18.8306" y2="26.3014" gradientUnits="userSpaceOnUse">
<stop stop-color="#006CB4"/>
<stop offset="1" stop-color="#B658E8"/>
</linearGradient>
<linearGradient id="paint5_linear_7131_612" x1="18.83" y1="68.4365" x2="18.83" y2="79.9985" gradientUnits="userSpaceOnUse">
<stop stop-color="#006CB4"/>
<stop offset="1" stop-color="#B658E8"/>
</linearGradient>
<linearGradient id="paint6_linear_7131_612" x1="72.6365" y1="68.4277" x2="72.6365" y2="80.0015" gradientUnits="userSpaceOnUse">
<stop stop-color="#006CB4"/>
<stop offset="1" stop-color="#B658E8"/>
</linearGradient>
</defs>
</svg>
