<svg width="92" height="92" viewBox="0 0 92 92" fill="none" xmlns="http://www.w3.org/2000/svg">
<mask id="mask0_7681_577" style="mask-type:alpha" maskUnits="userSpaceOnUse" x="0" y="0" width="92" height="92">
<rect width="92" height="92" fill="#B3CDFF"/>
</mask>
<g mask="url(#mask0_7681_577)">
<path d="M19.0396 82.4668C19.0396 81.906 19.0396 81.4105 19.0396 80.915C19.0396 77.1927 19.0516 73.4729 19.0275 69.7506C19.0226 69.1584 19.1605 68.8804 19.7819 68.7112C23.4789 67.6985 27.1614 66.6253 30.8536 65.5859C31.122 65.511 31.4436 65.4675 31.7072 65.5352C35.8443 66.6229 39.979 67.7178 44.104 68.8466C45.4387 69.2115 46.2535 70.4443 46.1278 71.7156C45.9972 73.0474 44.9865 74.0844 43.6397 74.1786C43.1827 74.2101 42.6991 74.1085 42.2494 73.9901C38.1413 72.9097 34.0381 71.8075 29.9324 70.7174C28.9435 70.4539 28.264 70.744 28.0633 71.4909C27.853 72.2764 28.2568 72.8758 29.236 73.1417C33.5085 74.2971 37.7762 75.4621 42.0584 76.574C44.4763 77.2 46.7613 76.1582 48.038 74.0143C48.2459 73.6662 48.5989 73.3303 48.964 73.1635C54.5229 70.6376 60.1011 68.148 65.6624 65.627C66.4579 65.2669 67.1615 65.2572 67.7611 65.9002C68.356 66.5358 68.2568 67.2948 67.8288 67.9474C67.4831 68.4768 67.0382 69.0013 66.5159 69.3445C59.5329 73.9345 52.5257 78.4859 45.5354 83.0638C44.9914 83.4215 44.4836 83.482 43.8694 83.3079C39.8121 82.155 35.7451 81.0383 31.6902 79.8709C30.5441 79.5421 29.4561 79.5301 28.3051 79.8781C25.4544 80.741 22.5818 81.5266 19.7166 82.3411C19.5256 82.3943 19.3249 82.4136 19.0323 82.4668H19.0396Z" fill="url(#paint0_linear_7681_577)"/>
<path d="M42.5065 56.4541C43.8678 57.8198 45.1082 59.0428 46.3196 60.2924C46.8926 60.8846 47.5092 61.3149 48.3506 60.9547C49.1945 60.5946 49.2912 59.8332 49.2888 59.0235C49.2791 56.3067 49.284 53.5875 49.284 50.8707C49.284 50.5516 49.284 50.2326 49.284 49.8604H59.9398C59.9616 50.0803 60.0051 50.3051 60.0051 50.5299C60.01 55.2577 60.0051 59.9831 60.0148 64.7109C60.0148 65.1604 59.9495 65.4529 59.4659 65.6656C55.9575 67.2125 52.4636 68.8006 48.9648 70.3717C48.8874 70.4055 48.7955 70.4103 48.6408 70.4442C48.561 70.2387 48.4764 70.0284 48.399 69.8206C47.7727 68.1383 46.6484 66.9394 44.9002 66.4584C40.5769 65.2668 36.2464 64.109 31.9062 62.973C31.4806 62.8618 30.9656 62.9271 30.528 63.0431C28.6202 63.5507 26.7269 64.1066 24.7539 64.6674V49.8676H35.8353C35.8353 50.1867 35.8353 50.4985 35.8353 50.8127C35.8353 53.6189 35.8474 56.4251 35.8281 59.2314C35.8233 60.0121 36.0119 60.655 36.7687 60.9668C37.5279 61.2786 38.1227 60.9499 38.6595 60.3891C39.9047 59.0887 41.1766 57.8125 42.5065 56.4541Z" fill="url(#paint1_linear_7681_577)"/>
<path d="M43.018 15.2931C45.2135 13.5601 47.3655 11.7666 49.6311 10.1303C50.3299 9.62511 51.3213 9.37615 52.2014 9.30122C59.3996 8.69937 66.6051 8.78155 73.8904 9.10302V23.2502C69.9854 24.0671 66.049 24.8358 62.0231 23.985C60.9955 23.7674 60.2459 23.9898 59.4722 24.7173C57.0445 27.0087 54.571 29.2518 52.0684 31.461C50.2912 33.0297 47.7935 32.3843 47.1431 30.2331C46.7514 28.94 47.1648 27.8716 48.1586 26.9749C50.857 24.5409 53.5555 22.1069 56.2079 19.6221C56.7254 19.1363 57.163 18.474 57.4048 17.8093C57.944 16.3349 57.3202 15.53 55.7558 15.5276C51.8556 15.5204 47.9531 15.5252 44.0505 15.5252C43.7313 15.5252 43.4122 15.5252 43.093 15.5252C43.0664 15.4478 43.0398 15.3705 43.0156 15.2931H43.018Z" fill="url(#paint2_linear_7681_577)"/>
<path d="M54.0971 18.14C53.1154 19.0319 52.2691 19.8416 51.3697 20.5836C51.1593 20.7576 50.7628 20.7504 50.4508 20.7504C43.2091 20.7601 35.9673 20.7673 28.7256 20.7431C27.9543 20.7407 27.4393 21.055 26.842 21.5021C24.7505 23.0635 23.9792 25.0528 24.2983 27.6342C24.4869 29.1473 24.3322 30.7015 24.3322 32.2388C24.3322 32.4466 24.3201 32.6545 24.3419 32.8575C24.4507 33.8655 27.4441 36.6499 28.4548 36.6499C38.0903 36.6572 47.7258 36.6548 57.3613 36.6523C57.5088 36.6523 57.695 36.691 57.7966 36.6185C59.2715 35.5598 60.7585 34.5156 62.173 33.3845C62.4027 33.2008 62.3447 32.6037 62.3471 32.1977C62.364 30.3728 62.3544 28.5455 62.3544 26.7762H67.5288C67.553 27.1436 67.5844 27.3998 67.5868 27.656C67.5892 31.2018 67.5675 34.7453 67.6037 38.2911C67.6134 39.1153 67.3305 39.3595 66.5253 39.357C51.0674 39.3401 35.6095 39.3401 20.1516 39.357C19.4044 39.357 19.1046 39.1564 19.1094 38.3588C19.136 31.9197 19.1288 25.4782 19.1143 19.0391C19.1143 18.4034 19.2327 18.0699 19.9847 18.0723C31.1581 18.0916 42.329 18.0844 53.5023 18.0868C53.6377 18.0868 53.7731 18.111 54.0874 18.1424L54.0971 18.14Z" fill="url(#paint3_linear_7681_577)"/>
<path d="M48.3132 23.3956C47.7087 23.9515 47.1816 24.4422 46.6496 24.9304C43.7046 27.6303 43.6925 31.0553 46.623 33.7504C46.6835 33.8059 46.7318 33.876 46.8527 34.0186C46.5698 34.0477 46.3546 34.0912 46.1394 34.0912C40.5564 34.0936 34.9733 34.096 29.3927 34.0912C28.3699 34.0912 26.8732 32.6167 26.8708 31.604C26.866 29.6558 26.866 27.7077 26.8708 25.7595C26.8732 24.9184 28.3506 23.2892 29.1534 23.2868C35.4158 23.2772 41.6783 23.282 47.9384 23.2868C48.0157 23.2868 48.0931 23.3303 48.3132 23.3956Z" fill="url(#paint4_linear_7681_577)"/>
<path d="M83.0007 25.6647H76.5352V7H83.0007V25.6647Z" fill="url(#paint5_linear_7681_577)"/>
<path d="M16.4487 85.6135H10V66.915H16.4487V85.6135Z" fill="url(#paint6_linear_7681_577)"/>
<path d="M46.681 49.8794V57.0412C45.8251 56.1855 45.09 55.4507 44.355 54.7184C42.9574 53.3237 42.1474 53.314 40.7691 54.7087C40.0268 55.4604 39.3184 56.2411 38.5954 57.0097L38.4141 56.8865V49.877H46.681V49.8794Z" fill="url(#paint7_linear_7681_577)"/>
<path d="M59.8164 27.8667C59.8164 29.3459 59.8164 30.5762 59.8164 31.8065C59.8164 31.9225 59.8381 32.1038 59.7753 32.1473C58.8274 32.8048 57.9425 33.7184 56.8858 34.0157C55.7397 34.3396 54.4316 34.0882 52.9688 34.0882C55.2851 31.983 57.4589 30.0082 59.8164 27.8643V27.8667Z" fill="url(#paint8_linear_7681_577)"/>
</g>
<defs>
<linearGradient id="paint0_linear_7681_577" x1="43.603" y1="65.3809" x2="43.603" y2="83.4018" gradientUnits="userSpaceOnUse">
<stop stop-color="#B658E8"/>
<stop offset="1" stop-color="#06A7E2"/>
</linearGradient>
<linearGradient id="paint1_linear_7681_577" x1="42.3844" y1="49.8604" x2="42.3844" y2="70.4442" gradientUnits="userSpaceOnUse">
<stop stop-color="#B658E8"/>
<stop offset="1" stop-color="#06A7E2"/>
</linearGradient>
<linearGradient id="paint2_linear_7681_577" x1="58.453" y1="8.85449" x2="58.453" y2="32.3291" gradientUnits="userSpaceOnUse">
<stop stop-color="#B658E8"/>
<stop offset="1" stop-color="#06A7E2"/>
</linearGradient>
<linearGradient id="paint3_linear_7681_577" x1="43.3567" y1="18.0723" x2="43.3567" y2="39.3571" gradientUnits="userSpaceOnUse">
<stop stop-color="#B658E8"/>
<stop offset="1" stop-color="#06A7E2"/>
</linearGradient>
<linearGradient id="paint4_linear_7681_577" x1="37.5902" y1="23.2812" x2="37.5902" y2="34.094" gradientUnits="userSpaceOnUse">
<stop stop-color="#B658E8"/>
<stop offset="1" stop-color="#06A7E2"/>
</linearGradient>
<linearGradient id="paint5_linear_7681_577" x1="79.7679" y1="7" x2="79.7679" y2="25.6647" gradientUnits="userSpaceOnUse">
<stop stop-color="#B658E8"/>
<stop offset="1" stop-color="#06A7E2"/>
</linearGradient>
<linearGradient id="paint6_linear_7681_577" x1="13.2243" y1="66.915" x2="13.2243" y2="85.6135" gradientUnits="userSpaceOnUse">
<stop stop-color="#B658E8"/>
<stop offset="1" stop-color="#06A7E2"/>
</linearGradient>
<linearGradient id="paint7_linear_7681_577" x1="42.5475" y1="49.877" x2="42.5475" y2="57.0412" gradientUnits="userSpaceOnUse">
<stop stop-color="#B658E8"/>
<stop offset="1" stop-color="#06A7E2"/>
</linearGradient>
<linearGradient id="paint8_linear_7681_577" x1="56.3944" y1="27.8643" x2="56.3944" y2="34.1812" gradientUnits="userSpaceOnUse">
<stop stop-color="#B658E8"/>
<stop offset="1" stop-color="#06A7E2"/>
</linearGradient>
</defs>
</svg>
