<svg width="92" height="92" viewBox="0 0 92 92" fill="none" xmlns="http://www.w3.org/2000/svg">
<mask id="mask0_7680_618" style="mask-type:alpha" maskUnits="userSpaceOnUse" x="0" y="0" width="92" height="92">
<rect width="92" height="92" fill="#B3CDFF"/>
</mask>
<g mask="url(#mask0_7680_618)">
</g>
<g clip-path="url(#clip0_7680_618)">
<path d="M84.0016 65.3906C83.755 66.6277 83.5847 67.8854 83.2501 69.099C80.727 78.2712 72.0821 84.4818 62.5961 83.9711C52.8048 83.4442 44.7513 75.9216 43.5433 66.1772C42.193 55.2851 49.7167 45.3279 60.5999 43.5991C71.8869 41.8072 82.6982 50.0739 83.8651 61.3842C83.8871 61.5985 83.9546 61.8098 84.0016 62.0211V65.3906ZM60.4326 66.4971C59.2408 65.2996 58.096 64.1402 56.9394 62.9926C55.8503 61.911 54.3899 61.8421 53.43 62.8121C52.4701 63.7836 52.5553 65.2233 53.6473 66.3195C55.3014 67.9793 56.9599 69.6332 58.617 71.2901C59.9923 72.6666 61.3382 72.6211 62.6181 71.1448C64.2502 69.2649 65.8779 67.382 67.5071 65.5006C69.1525 63.6002 70.8169 61.7173 72.4358 59.7949C73.6188 58.3904 73.0126 56.3814 71.2983 55.9484C70.3002 55.696 69.4842 56.0482 68.8222 56.8172C67.1813 58.7206 65.533 60.6196 63.8877 62.5186C62.7561 63.8232 61.623 65.1279 60.4326 66.4986V66.4971Z" fill="url(#paint0_linear_7680_618)"/>
<path d="M37.8547 9C37.6595 11.0135 37.4555 13.0269 37.272 15.0419C36.955 18.5405 36.6541 22.0391 36.3415 25.5377C36.3239 25.727 36.271 25.9148 36.2197 26.1775H10.0117C10.1277 25.9413 10.2319 25.7094 10.3537 25.4878C12.7916 21.0705 15.2442 16.6605 17.6645 12.233C18.6318 10.4631 20.0246 9.35074 22.056 9.10126C22.1499 9.08952 22.2365 9.03522 22.3275 9.00147C27.5028 9.00147 32.6795 9.00147 37.8547 9.00147V9Z" fill="url(#paint1_linear_7680_618)"/>
<path d="M58.9501 9C61.0901 9.66333 62.2672 11.2747 63.2814 13.1605C65.4639 17.2167 67.758 21.2143 70.0051 25.2368C70.146 25.4878 70.2781 25.7446 70.466 26.0954H44.0951C43.988 24.9962 43.8735 23.8852 43.7707 22.7728C43.3627 18.401 42.9576 14.0293 42.5554 9.65746C42.5349 9.44026 42.5466 9.21866 42.5437 9H58.9501Z" fill="url(#paint2_linear_7680_618)"/>
<path d="M38.2315 71.5467C35.1169 71.5467 32.0435 71.5438 28.9686 71.5467C24.0869 71.5541 19.2052 71.5643 14.3235 71.5761C11.2691 71.5834 9.12623 69.5744 9.11155 66.5688C9.05724 54.8315 9.03376 43.0926 9 31.3553C9 31.2599 9.01321 31.163 9.02935 30.9326H71.4347V38.1852C61.3998 35.6449 52.3599 37.5468 44.9567 44.9447C37.5417 52.3557 35.6409 61.3899 38.2315 71.5482V71.5467Z" fill="url(#paint3_linear_7680_618)"/>
</g>
<defs>
<linearGradient id="paint0_linear_7680_618" x1="63.6941" y1="43.3545" x2="63.6941" y2="84.0004" gradientUnits="userSpaceOnUse">
<stop stop-color="#B658E8"/>
<stop offset="0.490385" stop-color="#6B7AE5"/>
<stop offset="1" stop-color="#06A7E2"/>
</linearGradient>
<linearGradient id="paint1_linear_7680_618" x1="23.9332" y1="9" x2="23.9332" y2="26.1775" gradientUnits="userSpaceOnUse">
<stop stop-color="#B658E8"/>
<stop offset="0.490385" stop-color="#6B7AE5"/>
<stop offset="1" stop-color="#06A7E2"/>
</linearGradient>
<linearGradient id="paint2_linear_7680_618" x1="56.5045" y1="9" x2="56.5045" y2="26.0954" gradientUnits="userSpaceOnUse">
<stop stop-color="#B658E8"/>
<stop offset="0.490385" stop-color="#6B7AE5"/>
<stop offset="1" stop-color="#06A7E2"/>
</linearGradient>
<linearGradient id="paint3_linear_7680_618" x1="40.2173" y1="30.9326" x2="40.2173" y2="71.5761" gradientUnits="userSpaceOnUse">
<stop stop-color="#B658E8"/>
<stop offset="0.490385" stop-color="#6B7AE5"/>
<stop offset="1" stop-color="#06A7E2"/>
</linearGradient>
<clipPath id="clip0_7680_618">
<rect width="75" height="75" fill="white" transform="translate(9 9)"/>
</clipPath>
</defs>
</svg>
