<svg width="92" height="92" viewBox="0 0 92 92" fill="none" xmlns="http://www.w3.org/2000/svg">
<mask id="mask0_7680_619" style="mask-type:alpha" maskUnits="userSpaceOnUse" x="0" y="0" width="92" height="92">
<rect width="92" height="92" fill="#B3CDFF"/>
</mask>
<g mask="url(#mask0_7680_619)">
</g>
<g clip-path="url(#clip0_7680_619)">
<path d="M43.9856 13.0809C59.542 11.868 72.7788 24.4449 71.653 40.2562C70.8613 51.3714 58.243 66.909 50.7339 74.8146C49.9112 75.6792 48.167 77.6509 47.3072 78.2543C46.7629 78.6337 45.8907 78.6586 45.3711 78.2543C36.5878 68.9491 25.287 57.0378 21.8294 44.3738C17.8027 29.6137 28.9612 14.2565 43.9856 13.0809ZM45.9216 20.3521C32.4436 20.6383 24.0067 35.3921 30.557 47.291C37.194 59.3516 54.3709 59.7933 61.6326 48.0996C69.2345 35.8649 60.1853 20.0474 45.9216 20.3521Z" fill="url(#paint0_linear_7680_619)"/>
<path d="M56.1537 39.0248V49.4807C56.1537 49.8352 55.3248 50.4137 54.929 50.4572C54.0815 50.5567 51.4837 50.5754 50.6548 50.4572C50.0486 50.3764 49.4981 49.8166 49.4301 49.2194C49.2445 47.6396 49.826 43.3726 49.1085 42.2717C48.7559 41.7305 48.0322 41.6559 47.4384 41.6124C46.4549 41.5377 44.0426 41.4071 43.5106 42.3525C42.8055 43.609 43.4921 47.6769 43.2261 49.3438C43.1395 49.8974 42.5519 50.395 42.0076 50.4572C41.2468 50.5505 38.3149 50.5754 37.6159 50.451C37.319 50.395 36.5087 49.7481 36.5087 49.4807V39.0248H34.5047C34.4675 39.0248 33.9356 38.7076 33.8552 38.6392C33.2614 38.1229 33.2243 37.1277 33.6634 36.4933L45.3539 25.7762C45.7683 25.403 46.3683 25.4963 46.8755 25.5461C51.0198 29.0355 54.9475 32.8546 58.9804 36.4933C59.4196 37.1215 59.3825 38.1229 58.7887 38.6392C58.7083 38.7076 58.1763 39.0248 58.1392 39.0248H56.1351H56.1537Z" fill="url(#paint1_linear_7680_619)"/>
</g>
<defs>
<linearGradient id="paint0_linear_7680_619" x1="46.36" y1="13" x2="46.36" y2="78.5482" gradientUnits="userSpaceOnUse">
<stop stop-color="#B658E8"/>
<stop offset="1" stop-color="#06A7E2"/>
</linearGradient>
<linearGradient id="paint1_linear_7680_619" x1="46.3219" y1="25.498" x2="46.3219" y2="50.539" gradientUnits="userSpaceOnUse">
<stop stop-color="#B658E8"/>
<stop offset="1" stop-color="#06A7E2"/>
</linearGradient>
<clipPath id="clip0_7680_619">
<rect width="50.7205" height="65.5465" fill="white" transform="translate(21 13)"/>
</clipPath>
</defs>
</svg>
