<svg width="41" height="41" viewBox="0 0 41 41" fill="none" xmlns="http://www.w3.org/2000/svg">
<mask id="mask0_2199_776" style="mask-type:alpha" maskUnits="userSpaceOnUse" x="0" y="0" width="41" height="41">
<rect x="0.40625" y="0.155396" width="40" height="40" fill="#D9D9D9"/>
</mask>
<g mask="url(#mask0_2199_776)">
<path d="M8.18417 35.1554C7.42028 35.1554 6.76625 34.8834 6.22208 34.3396C5.67819 33.7954 5.40625 33.1414 5.40625 32.3775V10.7525C5.40625 10.44 5.45486 10.1386 5.55208 9.84831C5.64931 9.55803 5.79514 9.28998 5.98958 9.04415L8.12833 6.22498C8.37833 5.89164 8.69958 5.62998 9.09208 5.43998C9.48458 5.25026 9.89486 5.1554 10.3229 5.1554H30.4617C30.89 5.1554 31.3003 5.25026 31.6925 5.43998C32.085 5.62998 32.4062 5.89164 32.6562 6.22498L34.8229 9.04415C35.0174 9.28998 35.1632 9.55803 35.2604 9.84831C35.3576 10.1386 35.4062 10.44 35.4062 10.7525V32.3775C35.4062 33.1414 35.1343 33.7954 34.5904 34.3396C34.0462 34.8834 33.3922 35.1554 32.6283 35.1554H8.18417ZM8.87833 9.76664H31.9062L30.4225 7.93331H10.3508L8.87833 9.76664ZM27.0729 12.5441H13.7396V26.4887L20.4062 23.1554L27.0729 26.4887V12.5441Z" fill="#F7C531"/>
</g>
</svg>
