<svg width="52" height="52" viewBox="0 0 52 52" fill="none" xmlns="http://www.w3.org/2000/svg">
<g clip-path="url(#clip0_5307_595)">
<path d="M29.9485 -0.000308386V13.4188C22.8082 11.063 14.9155 15.5183 13.1839 22.7888C10.774 32.9039 20.0752 41.6241 29.9485 38.5806V51.9997H22.2529L19.9563 47.0654L19.7269 46.7713L15.6596 45.0905L10.2285 47.0556L5.02125 41.8846L4.94292 41.6927L6.89548 36.404L5.12895 32.1378L0.172037 29.8702L0 29.5173L0.0559471 22.223L5.13035 19.8602L6.89548 15.7522C6.36678 13.8992 5.60729 12.1135 4.94292 10.3053L4.9723 10.1708L10.2285 4.9424L15.5617 6.91724L19.7269 5.22672C20.6892 3.56421 21.3242 1.69442 22.2529 -0.00170898H29.9485V-0.000308386Z" fill="#3E1A51"/>
<path d="M45.6415 26.7473L14.658 26.6871C13.9139 26.4616 14.1349 25.1381 15.0244 25.2613L45.5883 25.2725C46.296 22.2612 50.6501 21.8719 51.7439 24.7753C53.358 29.0611 46.808 31.1844 45.6401 26.7473H45.6415Z" fill="#F7C531"/>
<path d="M41.3491 17.7302L35.8817 17.7358C35.2453 18.2918 34.4746 20.3871 33.7781 20.6616C28.182 20.8871 22.5313 20.6952 16.9142 20.7583C16.0051 20.7372 15.668 19.7526 16.4457 19.24L33.02 19.1686C33.2829 19.0789 34.3641 16.9654 34.7208 16.5733C35.0397 16.2231 35.1768 16.1867 35.6509 16.1419C37.4356 15.9752 39.4791 16.2707 41.2918 16.1503C42.4695 12.3715 48.0026 13.2454 47.646 17.3562C47.3466 20.8143 42.1086 21.1756 41.3477 17.7302H41.3491Z" fill="#F7C531"/>
<path d="M41.3493 34.2713C42.1144 30.837 47.3468 31.183 47.6475 34.6452C48.0028 38.7546 42.471 39.63 41.2933 35.8512C39.4443 35.7293 37.3673 36.0276 35.5462 35.861C34.3741 35.7531 33.8398 33.585 33.0216 32.8329L16.4472 32.7614C15.6696 32.2488 16.0081 31.2656 16.9158 31.2432H33.3531C34.4188 31.0975 35.3462 34.0822 35.8833 34.2657L41.3507 34.2713H41.3493Z" fill="#F7C531"/>
<path d="M35.0495 6.41744C36.7237 6.51969 38.7364 6.20315 40.3687 6.39363C40.8316 6.44826 40.9953 6.61493 41.0498 7.07572C41.1645 8.06875 41.1827 11.1445 41.054 12.1151C41.0065 12.468 40.7323 12.7481 40.3729 12.7972C39.3392 12.9344 36.5223 12.8952 35.4411 12.7972C34.9362 12.7509 34.7236 12.6585 34.6593 12.1123C34.4732 10.524 34.8061 8.59537 34.6565 6.96788C34.6565 6.71297 34.8313 6.52389 35.0509 6.41884L35.0495 6.41744Z" fill="#3E1A51"/>
<path d="M35.1543 39.2322L40.626 39.2644C40.8539 39.4549 41.0106 39.5739 41.0526 39.8849C41.1896 40.9199 41.1505 43.7407 41.0526 44.8234C41.0064 45.329 40.9141 45.5419 40.3686 45.6063C39.2525 45.738 36.4733 45.7211 35.3348 45.6105C34.9389 45.5727 34.7123 45.4732 34.655 45.0335C34.8047 43.406 34.4718 41.4773 34.6578 39.8891C34.6984 39.5487 34.8005 39.3204 35.1529 39.2322H35.1543Z" fill="#3E1A51"/>
</g>
<defs>
<clipPath id="clip0_5307_595">
<rect width="52" height="52" fill="white"/>
</clipPath>
</defs>
</svg>
