<svg width="54" height="54" viewBox="0 0 54 54" fill="none" xmlns="http://www.w3.org/2000/svg">
<path d="M24.2258 2.05334C24.4494 2.05306 24.6731 2.05265 24.8968 2.05212C25.3619 2.0515 25.8271 2.05238 26.2922 2.05437C26.8822 2.05677 27.4721 2.05539 28.062 2.05286C28.5228 2.05132 28.9836 2.05183 29.4444 2.05292C29.6616 2.0532 29.8789 2.05287 30.0962 2.05187C34.1665 2.03728 37.7435 3.4168 40.7119 6.22265C40.7974 6.30137 40.8829 6.38009 40.971 6.46119C42.8133 8.21647 44.0562 10.5302 44.7197 12.9727C44.7416 13.0467 44.7634 13.1207 44.786 13.197C45.327 15.0702 45.1813 17.0551 45.1416 18.9844C45.1993 18.9832 45.257 18.982 45.3165 18.9808C45.924 18.969 46.5315 18.9612 47.139 18.9554C47.365 18.9528 47.5909 18.9492 47.8169 18.9446C49.5066 18.9111 50.8465 18.9604 52.1849 20.1206C53.1124 21.0514 53.621 22.1606 53.6362 23.4782C53.6349 23.6408 53.6349 23.6408 53.6336 23.8067C53.6348 23.9831 53.6348 23.9831 53.6359 24.1632C53.6377 24.5485 53.6365 24.9337 53.6351 25.3191C53.6354 25.5889 53.6358 25.8588 53.6363 26.1287C53.6369 26.6929 53.6361 27.257 53.6341 27.8212C53.6318 28.4706 53.6325 29.1199 53.6348 29.7693C53.637 30.3977 53.6367 31.0261 53.6355 31.6545C53.6352 31.9202 53.6356 32.186 53.6366 32.4517C53.6376 32.824 53.636 33.1961 53.6336 33.5683C53.6345 33.6767 53.6353 33.7851 53.6362 33.8968C53.6215 35.1717 53.1459 36.1721 52.3134 37.125C51.4983 37.8992 50.4682 38.3977 49.3453 38.411C49.1489 38.4135 49.1489 38.4135 48.9485 38.4161C48.8059 38.4173 48.6633 38.4184 48.5207 38.4195C48.4485 38.42 48.3764 38.4206 48.3021 38.4212C47.9205 38.424 47.5388 38.426 47.1572 38.4275C46.8421 38.429 46.5271 38.4319 46.212 38.4362C45.8306 38.4414 45.4493 38.444 45.0678 38.4448C44.9229 38.4455 44.778 38.4471 44.6331 38.4496C43.3592 38.4706 43.3592 38.4706 42.945 38.1367C42.5824 37.7042 42.5947 37.3974 42.595 36.8531C42.5947 36.7696 42.5943 36.6862 42.5939 36.6002C42.5928 36.3189 42.5924 36.0376 42.592 35.7562C42.5913 35.5551 42.5906 35.354 42.5899 35.1528C42.5883 34.7185 42.5871 34.2842 42.5861 33.8499C42.5844 33.1612 42.5819 32.4725 42.5792 31.7839C42.5717 29.8251 42.5654 27.8663 42.56 25.9075C42.557 24.8266 42.5533 23.7456 42.5488 22.6646C42.546 21.9822 42.5441 21.2998 42.5429 20.6173C42.5419 20.189 42.54 19.7607 42.538 19.3324C42.5372 19.1362 42.5368 18.94 42.5367 18.7438C42.5363 17.7192 42.504 16.7055 42.4089 15.6848C42.4005 15.5944 42.3922 15.504 42.3835 15.4109C42.1328 12.9507 41.0517 10.7111 39.4462 8.85937C39.3222 8.69622 39.3222 8.69623 39.1958 8.52978C38.7628 8.05561 38.2655 7.66982 37.7587 7.27734C37.6347 7.18068 37.6347 7.18068 37.5083 7.08206C34.9493 5.18876 31.997 4.73102 28.8887 4.72838C28.7397 4.72803 28.5908 4.72768 28.4419 4.72731C28.1319 4.72669 27.8219 4.72648 27.5118 4.72655C27.1987 4.72656 26.8856 4.72583 26.5725 4.72438C22.5525 4.70617 18.7377 4.98473 15.6103 7.80468C15.5344 7.88354 15.4586 7.96239 15.3804 8.04364C15.1884 8.22656 15.1884 8.22656 14.9775 8.22656C14.9504 8.28774 14.9234 8.34892 14.8955 8.41195C14.7546 8.67029 14.5947 8.8454 14.3908 9.05713C11.906 11.8165 11.4805 15.3215 11.4817 18.8834C11.4814 19.08 11.481 19.2767 11.4806 19.4733C11.4797 20.0029 11.4794 20.5324 11.4794 21.062C11.4793 21.3939 11.4791 21.7259 11.4788 22.0579C11.4778 23.2192 11.4774 24.3805 11.4775 25.5418C11.4775 26.6193 11.4764 27.6968 11.4748 28.7742C11.4734 29.7038 11.4728 30.6333 11.4729 31.5628C11.4729 32.116 11.4726 32.6692 11.4715 33.2224C11.4705 33.7431 11.4705 34.2639 11.4712 34.7846C11.4713 34.9741 11.4711 35.1636 11.4705 35.3531C11.4675 36.2912 11.4895 37.2175 11.5897 38.1508C11.5977 38.2266 11.6057 38.3023 11.6139 38.3804C11.8236 40.1328 12.6553 41.7226 13.8173 43.0312C13.8797 43.1036 13.9421 43.1759 14.0064 43.2504C15.5837 44.9588 17.9119 45.7705 20.1836 45.8629C20.3818 45.8695 20.58 45.8744 20.7783 45.8789C20.8193 45.7845 20.8604 45.6902 20.9027 45.593C21.4463 44.3971 22.1357 43.4866 23.3602 42.9192C24.1161 42.6379 24.7598 42.5744 25.5647 42.5702C25.6798 42.5693 25.7949 42.5683 25.9135 42.5673C26.1566 42.5658 26.3996 42.5649 26.6427 42.5645C27.0108 42.5632 27.3786 42.5581 27.7466 42.5527C29.3798 42.5407 30.6491 42.631 31.9349 43.7456C32.9408 44.7551 33.3664 45.8421 33.3818 47.25C33.3655 48.6207 32.974 49.5848 32.0634 50.625C31.5708 51.0852 30.9965 51.4201 30.3759 51.6797C30.2917 51.7156 30.2074 51.7516 30.1206 51.7886C29.5947 51.9307 29.0918 51.9249 28.5492 51.9261C28.4337 51.9268 28.3182 51.9275 28.1992 51.9282C27.9551 51.9292 27.7109 51.9297 27.4668 51.9297C27.0967 51.9302 26.7267 51.934 26.3566 51.938C26.1185 51.9386 25.8803 51.939 25.6422 51.9392C25.5331 51.9408 25.4239 51.9423 25.3115 51.9438C23.9154 51.9352 22.9155 51.4647 21.9219 50.5125C21.3786 49.9458 21.0616 49.3498 20.7783 48.6211C20.648 48.6184 20.5178 48.6157 20.3836 48.6129C17.1327 48.5165 14.2745 47.4294 11.9728 45.0862C10.3491 43.3572 8.92949 40.8188 8.96577 38.3906C8.90625 38.3916 8.84672 38.3925 8.78539 38.3935C8.16081 38.4029 7.53626 38.4092 6.91163 38.4138C6.67912 38.4159 6.44662 38.4188 6.21413 38.4224C5.8782 38.4276 5.54235 38.43 5.20639 38.4318C5.10395 38.434 5.0015 38.4362 4.89596 38.4384C3.63034 38.4388 2.63199 37.9493 1.68843 37.125C0.971904 36.3706 0.41265 35.3495 0.40728 34.2973C0.406525 34.1954 0.405771 34.0936 0.404993 33.9887C0.404568 33.8221 0.404568 33.8221 0.404134 33.6521C0.403441 33.5346 0.402748 33.4171 0.402034 33.296C0.399953 32.9067 0.398722 32.5173 0.397671 32.128C0.397241 31.9949 0.396812 31.8617 0.396369 31.7245C0.394396 31.0922 0.39286 30.4599 0.39198 29.8275C0.390952 29.1 0.38818 28.3726 0.383911 27.6451C0.380331 27.0131 0.379096 26.3812 0.378669 25.7492C0.378157 25.4814 0.376933 25.2136 0.374973 24.9458C0.372393 24.57 0.372504 24.1942 0.373235 23.8184C0.371208 23.654 0.371208 23.654 0.369141 23.4864C0.378077 22.2183 0.842026 21.1873 1.68843 20.25C2.71613 19.3219 3.80703 18.9132 5.18332 18.9432C5.28936 18.9438 5.3954 18.9444 5.50466 18.945C5.83884 18.9473 6.17289 18.9526 6.50703 18.958C6.73548 18.9601 6.96392 18.962 7.19237 18.9638C7.74839 18.9684 8.30434 18.9754 8.8603 18.9844C8.85699 18.8236 8.85699 18.8236 8.85361 18.6596C8.77876 14.6765 8.77876 14.6765 9.28218 12.9727C9.3031 12.8956 9.32402 12.8186 9.34557 12.7393C9.99893 10.3545 11.2862 8.32414 12.9736 6.53906C13.0523 6.45354 13.131 6.36803 13.2121 6.27992C16.1054 3.24318 20.1347 2.03456 24.2258 2.05334ZM3.58686 22.1484C2.97564 22.9215 2.93823 23.6582 2.93873 24.6129C2.93838 24.7104 2.93802 24.8079 2.93766 24.9083C2.93666 25.2295 2.93645 25.5508 2.93634 25.872C2.936 26.0961 2.93564 26.3201 2.93527 26.5442C2.93464 27.0136 2.93445 27.4829 2.93451 27.9523C2.93452 28.5525 2.93308 29.1528 2.93126 29.7531C2.93009 30.2158 2.92988 30.6785 2.92993 31.1412C2.92981 31.3625 2.92934 31.5838 2.92853 31.805C2.92749 32.115 2.9278 32.4249 2.92843 32.7348C2.92784 32.8255 2.92725 32.9161 2.92664 33.0095C2.93091 33.8349 3.03649 34.5748 3.58686 35.2266C5.07469 36.4028 7.03397 35.8594 8.8603 35.8594C8.8603 31.1259 8.8603 26.3925 8.8603 21.5156C6.1741 21.2496 6.1741 21.2496 3.58686 22.1484ZM45.1416 21.5156C45.1416 26.2491 45.1416 30.9825 45.1416 35.8594C47.8278 36.1254 47.8278 36.1254 50.415 35.2266C51.0262 34.4534 51.0636 33.7168 51.0631 32.7621C51.0635 32.6646 51.0638 32.5671 51.0642 32.4667C51.0652 32.1455 51.0654 31.8242 51.0655 31.503C51.0659 31.2789 51.0662 31.0549 51.0666 30.8308C51.0672 30.3614 51.0674 29.8921 51.0673 29.4227C51.0673 28.8225 51.0688 28.2222 51.0706 27.6219C51.0718 27.1592 51.072 26.6965 51.0719 26.2338C51.072 26.0125 51.0725 25.7912 51.0733 25.57C51.0744 25.26 51.0741 24.9501 51.0734 24.6402C51.074 24.5495 51.0746 24.4589 51.0752 24.3655C51.0709 23.5401 50.9654 22.8002 50.415 22.1484C48.9272 20.9722 46.9679 21.5156 45.1416 21.5156ZM23.6807 45.944C23.2967 46.4625 23.2287 46.9389 23.2593 47.5767C23.3534 48.1502 23.5909 48.5246 24.0375 48.8914C24.8701 49.4539 25.7865 49.379 26.7568 49.3789C26.9864 49.3791 27.2159 49.3811 27.4455 49.3831C28.9021 49.3954 28.9021 49.3954 30.165 48.7266C30.5783 48.2751 30.7305 47.8612 30.7583 47.25C30.729 46.6396 30.5908 46.2167 30.165 45.7734C29.2893 45.0542 28.329 45.121 27.2451 45.1211C27.0155 45.1208 26.786 45.1189 26.5564 45.1169C24.9737 45.1028 24.9737 45.1028 23.6807 45.944Z" fill="#3E1A51"/>
<path d="M24.4432 17.2573C24.5677 17.2534 24.6922 17.2495 24.8206 17.2454C24.9413 17.2442 25.062 17.2429 25.1864 17.2417C25.2966 17.2396 25.4068 17.2375 25.5204 17.2354C25.9573 17.3193 26.2122 17.472 26.4734 17.8242C26.681 18.2713 26.8231 18.7342 26.9674 19.2048C27.0122 19.3455 27.0572 19.4862 27.1023 19.6269C27.2223 20.0029 27.3397 20.3797 27.4563 20.7568C27.551 21.062 27.647 21.3667 27.743 21.6715C28.0393 22.6127 28.3306 23.5555 28.6208 24.4986C28.7688 24.979 28.9172 25.4593 29.0656 25.9396C29.1869 26.3321 29.3079 26.7246 29.4283 27.1174C29.6356 27.7925 29.844 28.467 30.062 29.1387C30.1306 29.3502 30.1986 29.5619 30.2665 29.7736C30.3494 30.0312 30.4334 30.2884 30.5189 30.5452C30.7342 31.2187 30.9227 31.8791 30.7977 32.5899C30.6173 32.9179 30.3993 33.1582 30.0594 33.3281C29.8303 33.357 29.8303 33.357 29.5584 33.3677C29.4698 33.3729 29.3811 33.378 29.2898 33.3834C28.8742 33.3029 28.6249 33.1302 28.3719 32.8008C28.1776 32.3864 28.0435 31.9594 27.9105 31.522C27.8544 31.3484 27.8544 31.3484 27.7972 31.1714C27.5281 30.3248 27.5281 30.3248 27.5281 29.9531C25.5095 29.9531 23.4908 29.9531 21.4109 29.9531C21.3413 30.2664 21.2717 30.5796 21.2 30.9024C21.1135 31.2311 21.0132 31.5541 20.91 31.8779C20.886 31.9598 20.8621 32.0416 20.8375 32.126C20.6514 32.706 20.4514 32.9969 19.9344 33.3281C19.5049 33.4394 19.0695 33.432 18.6749 33.2161C18.3832 32.9799 18.1652 32.7718 18.1156 32.3923C18.087 31.5449 18.3254 30.8046 18.5822 30.0055C18.6292 29.8554 18.6761 29.7053 18.7228 29.5552C18.8484 29.1531 18.9758 28.7516 19.1037 28.3502C19.2365 27.9321 19.3679 27.5135 19.4995 27.095C19.6606 26.5829 19.822 26.0708 19.9841 25.559C20.3118 24.525 20.635 23.4897 20.9537 22.4529C21.1024 21.9696 21.2523 21.4866 21.4021 21.0036C21.4823 20.7442 21.5621 20.4846 21.6413 20.225C21.7511 19.8658 21.8628 19.5072 21.975 19.1488C22.0064 19.0443 22.0378 18.9398 22.0702 18.8322C22.2565 18.2447 22.45 17.8409 22.8875 17.4024C23.3429 17.1747 23.943 17.2633 24.4432 17.2573ZM24.3641 20.461C24.0887 21.3373 23.8136 22.2137 23.539 23.0903C23.4115 23.4973 23.2838 23.9043 23.1559 24.3111C23.0326 24.7036 22.9095 25.0961 22.7866 25.4887C22.7396 25.6387 22.6925 25.7887 22.6453 25.9386C22.5794 26.1481 22.5138 26.3577 22.4483 26.5674C22.4109 26.6868 22.3734 26.8063 22.3348 26.9293C22.2451 27.196 22.2451 27.196 22.2547 27.4219C23.7165 27.4219 25.1783 27.4219 26.6844 27.4219C26.4362 26.5059 26.4362 26.5059 26.1675 25.5975C26.1316 25.4815 26.0957 25.3654 26.0588 25.2459C26.0212 25.125 25.9836 25.0041 25.9449 24.8795C25.8858 24.6888 25.8858 24.6888 25.8256 24.4943C25.7223 24.1605 25.6187 23.8268 25.5151 23.4931C25.4089 23.1508 25.3029 22.8086 25.1969 22.4663C24.9898 21.7978 24.7825 21.1293 24.575 20.461C24.5054 20.461 24.4358 20.461 24.3641 20.461Z" fill="#3E1A51"/>
<path d="M35.1215 17.2969C35.4511 17.4733 35.6902 17.6962 35.8598 18.0352C35.8707 18.2262 35.8749 18.4176 35.876 18.6089C35.8769 18.7307 35.8778 18.8526 35.8787 18.9781C35.8792 19.1124 35.8796 19.2468 35.8801 19.3852C35.8809 19.5276 35.8818 19.67 35.8827 19.8124C35.8855 20.2807 35.8871 20.7491 35.8886 21.2174C35.8892 21.3786 35.8897 21.5398 35.8903 21.701C35.8926 22.3716 35.8946 23.0422 35.8957 23.7129C35.8975 24.674 35.9009 25.635 35.907 26.5961C35.911 27.2718 35.9131 27.9475 35.9137 28.6233C35.914 29.0269 35.9153 29.4304 35.9187 29.834C35.9219 30.2139 35.9226 30.5937 35.9213 30.9736C35.9213 31.179 35.9239 31.3844 35.9265 31.5899C35.9194 32.5973 35.9194 32.5973 35.6054 32.9875C35.1773 33.3564 34.888 33.3693 34.3358 33.3661C33.9024 33.305 33.7279 33.1173 33.434 32.8009C33.2966 32.5261 33.314 32.3241 33.3123 32.0163C33.3114 31.8944 33.3105 31.7726 33.3095 31.647C33.3091 31.5127 33.3086 31.3784 33.3082 31.2399C33.3073 31.0975 33.3065 30.9551 33.3055 30.8127C33.3028 30.3444 33.3012 29.8761 33.2997 29.4077C33.2991 29.2465 33.2985 29.0853 33.298 28.9241C33.2957 28.2535 33.2937 27.5829 33.2925 26.9123C33.2908 25.9512 33.2873 24.9901 33.2813 24.0291C33.2772 23.3533 33.2752 22.6776 33.2746 22.0019C33.2742 21.5983 33.2729 21.1947 33.2695 20.7912C33.2663 20.4113 33.2657 20.0315 33.2669 19.6516C33.267 19.4461 33.2644 19.2407 33.2617 19.0353C33.2689 18.0279 33.2689 18.0279 33.5828 17.6376C34.0621 17.2247 34.5043 17.21 35.1215 17.2969Z" fill="#3E1A51"/>
</svg>
