<svg width="45" height="49" viewBox="0 0 45 49" fill="none" xmlns="http://www.w3.org/2000/svg">
<g clip-path="url(#clip0_3246_9306)">
<path d="M39.2081 20.1362C41.748 30.5265 29.9867 46.3284 29.9867 46.3284C29.9867 46.3284 27.6345 46.9393 25.999 47.3674C15.6809 50.0516 4.86726 42.2108 1.84638 29.8579C-1.1745 17.505 4.74219 5.31082 15.0555 2.62666C16.4265 2.2707 19.0433 1.58763 19.0433 1.58763C27.9808 1.58763 36.5865 9.41883 39.2081 20.1314V20.1362Z" fill="#E2B550" stroke="#DBA145" stroke-width="1.9" stroke-miterlimit="10"/>
<path d="M5.30518 9.50061L24.1183 4.60851" stroke="#DBA145" stroke-width="1.9" stroke-miterlimit="10"/>
<path d="M3.71289 12.2858L24.6618 6.83569" stroke="#DBA145" stroke-width="1.9" stroke-miterlimit="10"/>
<path d="M8.0708 6.41238L23.5745 2.37653" stroke="#DBA145" stroke-width="1.9" stroke-miterlimit="10"/>
<path d="M1.63965 17.5627L25.7538 11.29" stroke="#DBA145" stroke-width="1.9" stroke-miterlimit="10"/>
<path d="M1.52393 19.963L26.2971 13.5172" stroke="#DBA145" stroke-width="1.9" stroke-miterlimit="10"/>
<path d="M2.45264 14.9844L25.2102 9.06287" stroke="#DBA145" stroke-width="1.9" stroke-miterlimit="10"/>
<path d="M1.01904 24.8359L27.3892 17.9764" stroke="#DBA145" stroke-width="1.9" stroke-miterlimit="10"/>
<path d="M1.5625 27.0631L27.9327 20.2036" stroke="#DBA145" stroke-width="1.9" stroke-miterlimit="10"/>
<path d="M2.10596 29.2902L28.4809 22.4307" stroke="#DBA145" stroke-width="1.9" stroke-miterlimit="10"/>
<path d="M1.29346 22.3971L26.8459 15.7492" stroke="#DBA145" stroke-width="1.9" stroke-miterlimit="10"/>
<path d="M13.1123 45.3904L32.4642 40.354" stroke="#DBA145" stroke-width="1.9" stroke-miterlimit="10"/>
<path d="M10.5962 43.6731L31.9203 38.1268" stroke="#DBA145" stroke-width="1.9" stroke-miterlimit="10"/>
<path d="M16.1763 46.9585L33.0076 42.5811" stroke="#DBA145" stroke-width="1.9" stroke-miterlimit="10"/>
<path d="M6.71436 39.9403L30.8285 33.6676" stroke="#DBA145" stroke-width="1.9" stroke-miterlimit="10"/>
<path d="M5.50684 37.8863L30.2848 31.4405" stroke="#DBA145" stroke-width="1.9" stroke-miterlimit="10"/>
<path d="M8.61914 41.8163L31.3767 35.8948" stroke="#DBA145" stroke-width="1.9" stroke-miterlimit="10"/>
<path d="M2.82275 33.8456L29.1929 26.9861" stroke="#DBA145" stroke-width="1.9" stroke-miterlimit="10"/>
<path d="M2.2793 31.6184L28.6495 24.7589" stroke="#DBA145" stroke-width="1.9" stroke-miterlimit="10"/>
<path d="M4.18896 35.8611L29.7414 29.2133" stroke="#DBA145" stroke-width="1.9" stroke-miterlimit="10"/>
<path d="M43.1959 19.0972C46.2168 31.4501 40.3049 43.6394 29.9867 46.3236C19.6686 49.0077 8.85503 41.1669 5.83415 28.814C2.81327 16.4659 8.72996 4.27659 19.0481 1.59244C29.3662 -1.09172 40.1798 6.7491 43.2007 19.102L43.1959 19.0972Z" fill="url(#paint0_linear_3246_9306)" stroke="#E5AE4C" stroke-width="1.9" stroke-miterlimit="10"/>
<path d="M32.1562 8.21625C39.8671 13.8058 42.7004 25.3891 38.4818 34.0861C34.2631 42.7832 24.5896 45.299 16.8786 39.7046C9.16769 34.115 6.33442 22.5317 10.5531 13.8347C14.7717 5.13764 24.4453 2.62185 32.1562 8.21625Z" fill="#F4D178" stroke="#E5AE4C" stroke-width="1.9" stroke-miterlimit="10"/>
<path d="M28.2693 12.5311L16.9314 15.4798L16.46 17.7792C16.46 17.7792 19.0239 17.1105 20.1062 16.8315C21.1837 16.5525 22.9443 17.4184 23.358 18.3083C23.4397 18.3323 18.1147 19.6744 18.1147 19.6744L17.4653 21.8775L24.1228 20.1458C24.1228 20.1458 25.3254 24.5713 18.9902 25.365L19.5145 27.5056L28.3895 34.952L31.1314 34.2401L22.088 26.2165C22.088 26.2165 27.0234 24.884 26.5905 19.5494C26.6386 19.583 28.7118 18.9962 28.7118 18.9962L29.3227 16.8027L26.1239 17.6348C26.1239 17.6348 25.5948 16.4467 24.6375 15.6049C24.6471 15.6482 27.6872 14.8112 27.6872 14.8112L28.2741 12.5263L28.2693 12.5311Z" fill="#E5AE4C"/>
<path d="M43.1959 19.0972C46.2168 31.4501 40.3049 43.6394 29.9867 46.3236C19.6686 49.0077 8.85503 41.1669 5.83415 28.814C2.81327 16.4659 8.72996 4.27659 19.0481 1.59244C29.3662 -1.09172 40.1798 6.7491 43.2007 19.102L43.1959 19.0972Z" stroke="#E5AE4C" stroke-width="1.9" stroke-miterlimit="10"/>
</g>
<defs>
<linearGradient id="paint0_linear_3246_9306" x1="6.19128" y1="28.7634" x2="43.6638" y2="19.0165" gradientUnits="userSpaceOnUse">
<stop stop-color="#E8C256"/>
<stop offset="0.5" stop-color="#FFEF8D"/>
<stop offset="1" stop-color="#E8C256"/>
</linearGradient>
<clipPath id="clip0_3246_9306">
<rect width="43.846" height="47.7424" fill="white" transform="translate(0.600586 0.606323)"/>
</clipPath>
</defs>
</svg>
