<svg width="49" height="49" viewBox="0 0 49 49" fill="none" xmlns="http://www.w3.org/2000/svg">
<mask id="mask0_1694_838" style="mask-type:alpha" maskUnits="userSpaceOnUse" x="0" y="0" width="49" height="49">
<rect x="0.697266" y="0.800293" width="48" height="48" fill="#D9D9D9"/>
</mask>
<g mask="url(#mask0_1694_838)">
<path d="M26.8262 45.4355V41.4745C28.3072 41.2745 29.7372 40.8875 31.1162 40.3135C32.4952 39.7395 33.7919 38.9787 35.0062 38.031L37.7627 40.9375C36.1917 42.2985 34.4925 43.343 32.6652 44.071C30.8375 44.7994 28.8912 45.2542 26.8262 45.4355ZM40.8127 37.8375L37.9562 35.081C38.8185 33.8997 39.5404 32.641 40.1217 31.305C40.7027 29.9687 41.1099 28.5005 41.3432 26.9005H45.3827C45.1347 29.0325 44.6169 31.0205 43.8292 32.8645C43.0415 34.7089 42.036 36.3665 40.8127 37.8375ZM41.3717 22.7005C41.1194 21.1195 40.7027 19.6597 40.1217 18.321C39.5404 16.9827 38.8185 15.7157 37.9562 14.52L40.7847 11.7635C42.1267 13.4679 43.1499 15.1839 43.8542 16.9115C44.5585 18.6389 45.068 20.5685 45.3827 22.7005H41.3717ZM22.5762 45.4355C17.2499 44.9819 12.8244 42.7739 9.2997 38.8115C5.77503 34.8492 4.0127 30.1789 4.0127 24.8005C4.0127 19.4599 5.77503 14.8272 9.2997 10.9025C12.8244 6.97786 17.2499 4.73219 22.5762 4.16553V8.15503C18.3849 8.74036 14.908 10.6 12.1457 13.734C9.38336 16.8684 8.0022 20.5572 8.0022 24.8005C8.0022 29.0252 9.38336 32.7092 12.1457 35.8525C14.908 38.9962 18.3849 40.8702 22.5762 41.4745V45.4355ZM35.0562 11.57C33.7939 10.7077 32.4732 9.99436 31.0942 9.43003C29.7155 8.86536 28.3355 8.44036 26.9542 8.15503V4.16553C28.8672 4.41353 30.7542 4.90636 32.6152 5.64403C34.4759 6.38169 36.1917 7.3882 37.7627 8.66353L35.0562 11.57ZM24.6977 36.057C22.6034 34.2627 20.6269 32.3399 18.7682 30.2885C16.9095 28.2372 15.9802 25.8455 15.9802 23.1135C15.9802 20.6339 16.8215 18.51 18.5042 16.742C20.1869 14.9737 22.2514 14.0895 24.6977 14.0895C27.144 14.0895 29.2132 14.9737 30.9052 16.742C32.5972 18.51 33.4432 20.6339 33.4432 23.1135C33.4432 25.8455 32.5092 28.2372 30.6412 30.2885C28.7732 32.3399 26.792 34.2627 24.6977 36.057ZM24.6977 25.042C25.3687 25.042 25.935 24.8112 26.3967 24.3495C26.8584 23.8879 27.0892 23.3215 27.0892 22.6505C27.0892 22.0272 26.8584 21.4729 26.3967 20.9875C25.935 20.5019 25.3687 20.259 24.6977 20.259C24.0267 20.259 23.4604 20.5019 22.9987 20.9875C22.537 21.4729 22.3062 22.0272 22.3062 22.6505C22.3062 23.3215 22.537 23.8879 22.9987 24.3495C23.4604 24.8112 24.0267 25.042 24.6977 25.042Z" fill="#3E1A51"/>
</g>
</svg>
