<svg width="54" height="54" viewBox="0 0 54 54" fill="none" xmlns="http://www.w3.org/2000/svg">
<g clip-path="url(#clip0_3714_2143)">
<path d="M36.5985 0.316426C36.7282 0.353542 36.858 0.390658 36.9916 0.428898C40.0965 1.36262 42.6533 3.49807 44.2024 6.32835C44.9705 7.78788 45.5739 9.4312 45.5658 11.098C45.5655 11.1924 45.5651 11.2869 45.5648 11.3842C45.5643 11.456 45.5639 11.5277 45.5634 11.6016C45.6558 11.6006 45.7482 11.5997 45.8434 11.5987C46.7155 11.5903 47.5876 11.5839 48.4597 11.5797C48.908 11.5775 49.3563 11.5745 49.8046 11.5698C50.2375 11.5652 50.6703 11.5626 51.1032 11.5616C51.2681 11.5608 51.4331 11.5593 51.598 11.557C51.8295 11.5539 52.0609 11.5535 52.2924 11.5537C52.4241 11.5528 52.5557 11.5518 52.6913 11.5508C53.2202 11.6253 53.5542 11.8557 53.8794 12.2744C54.0996 12.7753 54.0662 13.2809 54.0009 13.8164C53.7715 14.3008 53.5306 14.5361 53.0517 14.7656C52.7618 14.7941 52.4968 14.8058 52.2076 14.8016C52.1242 14.8016 52.0408 14.8017 51.9549 14.8017C51.6803 14.8015 51.4059 14.799 51.1314 14.7965C50.9406 14.796 50.7498 14.7955 50.5591 14.7952C50.0578 14.794 49.5565 14.7909 49.0553 14.7874C48.5434 14.7841 48.0316 14.7827 47.5197 14.7811C46.516 14.7777 45.5124 14.7723 44.5087 14.7656C44.5096 14.8436 44.5106 14.9215 44.5115 15.0018C44.5201 15.7447 44.5265 16.4876 44.5306 17.2305C44.5327 17.6122 44.5357 17.9939 44.5405 18.3757C44.5846 21.9471 43.8928 24.9888 41.3446 27.6328C40.49 28.464 40.49 28.464 40.0688 28.7125C39.8412 28.887 39.8412 28.887 39.8105 29.1861C39.8072 29.3559 39.8072 29.3559 39.8038 29.5292C39.7987 29.7133 39.7987 29.7133 39.7935 29.901C39.792 30.0292 39.7905 30.1573 39.789 30.2893C39.7843 30.4834 39.7843 30.4834 39.7795 30.6813C39.772 31.0011 39.7665 31.3208 39.7626 31.6406C39.8661 31.639 39.9697 31.6373 40.0764 31.6356C40.4685 31.6298 40.8607 31.6262 41.2528 31.6233C41.4211 31.6217 41.5893 31.6196 41.7575 31.6168C44.8772 31.5667 47.7584 32.6208 50.0985 34.6992C50.1924 34.7824 50.2862 34.8656 50.3828 34.9514C52.3641 36.827 53.8887 39.6634 54.0115 42.4258C54.0168 42.7034 54.0188 42.9808 54.0196 43.2585C54.0206 43.4161 54.0206 43.4161 54.0217 43.5768C54.0237 43.9225 54.025 44.2681 54.026 44.6137C54.0265 44.7321 54.0269 44.8505 54.0273 44.9724C54.0295 45.5982 54.031 46.224 54.032 46.8497C54.0332 47.4958 54.0368 48.1418 54.041 48.7879C54.0438 49.2853 54.0446 49.7826 54.045 50.28C54.0455 50.5182 54.0468 50.7564 54.0487 50.9946C54.0513 51.3276 54.0512 51.6605 54.0505 51.9935C54.0518 52.0916 54.0532 52.1897 54.0546 52.2909C54.0499 52.8759 53.9841 53.2292 53.579 53.6836C53.1296 54.03 52.7223 54.0449 52.1749 54.0401C52.0865 54.0406 51.9981 54.0411 51.907 54.0416C51.6095 54.0429 51.3121 54.0419 51.0145 54.0409C50.7996 54.0413 50.5847 54.0419 50.3698 54.0426C49.7782 54.0442 49.1866 54.0437 48.5949 54.0429C47.9573 54.0424 47.3196 54.0437 46.682 54.0448C45.5047 54.0465 44.3274 54.0468 43.1501 54.0463C42.0624 54.0458 40.9748 54.0459 39.8872 54.0465C39.7414 54.0465 39.5956 54.0466 39.4498 54.0467C39.2301 54.0468 39.0104 54.0469 38.7907 54.0471C36.7476 54.0482 34.7046 54.0487 32.6615 54.0479C32.5845 54.0478 32.5075 54.0478 32.4281 54.0478C31.8024 54.0475 31.1768 54.0472 30.5512 54.047C28.1105 54.0459 25.6698 54.0468 23.2291 54.0492C20.4878 54.052 17.7465 54.0533 15.0052 54.0526C14.7131 54.0525 14.4209 54.0524 14.1287 54.0524C14.0567 54.0524 13.9848 54.0523 13.9107 54.0523C12.8238 54.0521 11.7368 54.0529 10.6499 54.0543C9.41405 54.0559 8.17822 54.0559 6.94238 54.0541C6.31152 54.0532 5.68068 54.053 5.04983 54.0546C4.47271 54.056 3.89563 54.0555 3.31851 54.0535C3.10936 54.0531 2.9002 54.0534 2.69104 54.0545C2.40738 54.0559 2.12385 54.0547 1.84019 54.0528C1.75842 54.0538 1.67664 54.0548 1.59239 54.0559C1.04666 54.0485 0.738843 53.9207 0.317299 53.5781C-0.0810844 53.1119 -0.0630961 52.597 -0.0869123 52.0104C-0.0921348 51.9054 -0.0973577 51.8005 -0.102738 51.6925C-0.119054 51.3434 -0.132473 50.9944 -0.144951 50.6452C-0.149296 50.5244 -0.153642 50.4036 -0.158119 50.2791C-0.189233 49.3596 -0.208743 48.4401 -0.223229 47.5203C-0.22551 47.3862 -0.227792 47.2522 -0.230142 47.1141C-0.283764 43.5608 -0.184061 40.4046 1.6027 37.2634C1.6407 37.1964 1.67871 37.1294 1.71786 37.0603C3.10884 34.6312 3.10883 34.6312 4.11417 33.961C4.364 33.9354 4.364 33.9354 4.66494 33.9366C4.77906 33.9364 4.89319 33.9363 5.01077 33.9362C5.13601 33.9371 5.26126 33.9381 5.3903 33.939C5.58817 33.9392 5.58817 33.9392 5.79004 33.9394C6.07716 33.9398 6.36426 33.9405 6.65137 33.9417C7.10628 33.9435 7.56116 33.9432 8.01607 33.9424C9.30973 33.9403 10.6034 33.9396 11.897 33.9447C12.6114 33.9474 13.3257 33.9475 14.0401 33.9447C14.4178 33.9434 14.7953 33.9434 15.1729 33.9466C15.5953 33.9503 16.0174 33.9482 16.4398 33.9456C16.5633 33.9476 16.6869 33.9496 16.8142 33.9517C17.7311 33.9391 18.2559 33.6514 18.9853 33.1172C19.263 32.9587 19.546 32.8175 19.8356 32.6821C19.9102 32.6471 19.9849 32.6121 20.0617 32.576C21.3995 31.972 22.8257 31.62 24.2945 31.6303C24.4159 31.6306 24.4159 31.6306 24.5397 31.6308C24.7954 31.6314 25.0511 31.6327 25.3068 31.6341C25.4813 31.6346 25.6558 31.6351 25.8302 31.6355C26.2556 31.6367 26.681 31.6385 27.1064 31.6406C27.2793 29.9608 27.2793 29.9608 26.6985 28.4716C26.3924 28.1986 26.055 27.9746 25.7083 27.7563C23.9316 26.5639 22.9349 23.9302 22.4657 21.9375C22.3813 21.4987 22.3476 21.0859 22.3487 20.6393C22.3486 20.5098 22.3485 20.3803 22.3485 20.2468C22.3487 20.1084 22.3489 19.97 22.3491 19.8273C22.348 19.5333 22.3462 19.2393 22.3444 18.9453C22.3418 18.4823 22.3402 18.0194 22.3418 17.5565C22.343 17.181 22.3412 16.8056 22.3373 16.4301C22.336 16.2181 22.3379 16.0061 22.3399 15.7942C22.3351 15.44 22.3262 15.1126 22.2548 14.7656C21.9688 14.4849 21.9688 14.4849 21.622 14.3438C21.298 13.936 21.265 13.6192 21.2636 13.1053C21.2631 12.9667 21.2627 12.828 21.2623 12.6851C21.263 12.613 21.2636 12.5409 21.2643 12.4667C21.266 12.2518 21.2644 12.0372 21.2623 11.8224C21.2576 8.88122 22.4209 6.09031 24.3642 3.90236C24.4474 3.80855 24.5306 3.71474 24.6163 3.61809C26.1645 1.98273 28.1176 0.923626 30.2704 0.316426C30.3825 0.282709 30.4945 0.248992 30.6099 0.214253C32.4395 -0.24742 34.793 -0.227872 36.5985 0.316426ZM27.1064 5.8008C25.6019 7.39368 24.5751 9.38564 24.5751 11.6016C30.4223 11.6016 36.2695 11.6016 42.2939 11.6016C42.2939 9.35186 41.2282 7.35739 39.7173 5.73859C36.0898 2.33714 30.6928 2.42752 27.1064 5.8008ZM25.5243 14.7656C25.3107 20.6506 25.3107 20.6506 27.9501 25.418C28.7421 26.1926 29.6929 26.6562 30.6923 27.1055C30.7756 27.1437 30.859 27.1819 30.9448 27.2213C32.7897 27.9454 34.9375 27.6596 36.704 26.8946C38.7626 25.9639 40.1234 24.3247 40.9228 22.2539C41.698 19.9138 41.3446 17.0762 41.3446 14.7656C36.1239 14.7656 30.9032 14.7656 25.5243 14.7656ZM30.2704 30.375C30.2652 30.8364 30.2614 31.2977 30.2588 31.759C30.2578 31.9155 30.2564 32.072 30.2545 32.2285C30.2391 33.5727 30.2282 34.88 31.1739 35.9389C31.9608 36.6674 32.7534 36.8833 33.8172 36.849C34.6361 36.756 35.3126 36.3671 35.8603 35.7539C36.6801 34.621 36.6275 33.3359 36.6117 31.9966C36.6107 31.8388 36.6097 31.681 36.6088 31.5232C36.6065 31.1405 36.6029 30.7578 36.5985 30.375C36.4993 30.3993 36.4001 30.4237 36.2979 30.4487C34.3419 30.9098 32.2163 30.852 30.2704 30.375ZM21.7275 35.4375C21.5865 35.7363 21.5865 35.7363 21.7127 35.9356C21.7613 36.0034 21.81 36.0712 21.8601 36.141C25.2611 41.0907 24.3976 44.2842 24.4696 50.836C33.1708 50.836 41.872 50.836 50.8368 50.836C51.1198 46.0906 51.1198 46.0906 50.3556 40.9021C50.3285 40.8247 50.3013 40.7472 50.2733 40.6674C49.4218 38.3642 47.7227 36.6416 45.5098 35.5957C43.6432 34.7939 41.7604 34.7696 39.7626 34.8047C39.735 34.8929 39.735 34.8929 39.7068 34.9829C39.0913 36.896 38.1305 38.4299 36.3036 39.3893C34.8396 40.0849 33.0883 40.2548 31.5163 39.8013C29.7551 39.1432 28.4641 38.038 27.6601 36.3274C27.4403 35.8315 27.2737 35.3201 27.1064 34.8047C24.3559 34.7222 24.3559 34.7222 21.7275 35.4375ZM5.80167 37.125C5.25248 38.1685 4.70759 39.2156 4.21964 40.2891C9.50996 40.2891 14.8003 40.2891 20.2509 40.2891C19.7461 39.2234 19.2335 38.1602 18.6689 37.125C14.4227 37.125 10.1765 37.125 5.80167 37.125ZM3.16495 43.4531C3.16495 45.8895 3.16495 48.3258 3.16495 50.836C9.15136 50.836 15.1378 50.836 21.3056 50.836C21.3056 48.3996 21.3056 45.9633 21.3056 43.4531C15.3192 43.4531 9.33277 43.4531 3.16495 43.4531Z" fill="#3E1A51"/>
<path d="M41.7295 42.6691C41.8489 42.6686 41.9684 42.668 42.0915 42.6674C42.3439 42.6668 42.5963 42.6669 42.8487 42.6678C43.2344 42.6687 43.6198 42.6657 44.0055 42.6623C44.251 42.6621 44.4964 42.6622 44.7419 42.6625C44.857 42.6613 44.972 42.6602 45.0905 42.6589C45.7378 42.6649 46.1272 42.7001 46.6177 43.1367C47.0455 43.6875 47.0157 44.2603 46.9341 44.9297C46.7052 45.413 46.4701 45.6626 45.9849 45.8789C45.5754 45.9274 45.1679 45.9257 44.7559 45.9246C44.6364 45.9252 44.517 45.9257 44.3938 45.9263C44.1415 45.927 43.8891 45.9269 43.6367 45.926C43.251 45.9251 42.8655 45.9281 42.4799 45.9314C42.2344 45.9316 41.9889 45.9315 41.7435 45.9312C41.6284 45.9324 41.5134 45.9336 41.3949 45.9348C40.7476 45.9289 40.3582 45.8937 39.8677 45.457C39.4399 44.9062 39.4697 44.3334 39.5513 43.6641C40.0226 42.669 40.7375 42.6665 41.7295 42.6691Z" fill="#3E1A51"/>
</g>
<defs>
<clipPath id="clip0_3714_2143">
<rect width="54" height="54" fill="white"/>
</clipPath>
</defs>
</svg>
