<svg width="49" height="49" viewBox="0 0 49 49" fill="none" xmlns="http://www.w3.org/2000/svg">
<mask id="mask0_1673_457" style="mask-type:alpha" maskUnits="userSpaceOnUse" x="0" y="0" width="49" height="49">
<rect x="0.356445" y="0.386963" width="48" height="48" fill="#D9D9D9"/>
</mask>
<g mask="url(#mask0_1673_457)">
<path d="M24.3566 44.387C20.8233 44.387 17.94 43.8703 15.7066 42.837C13.4733 41.8036 12.3566 40.487 12.3566 38.887C12.3566 37.987 12.765 37.137 13.5816 36.337C14.3983 35.537 15.5233 34.887 16.9566 34.387L17.8566 37.287C17.3233 37.4536 16.8316 37.687 16.3816 37.987C15.9316 38.287 15.5733 38.587 15.3066 38.887C15.8733 39.5536 17.0483 40.137 18.8316 40.637C20.615 41.137 22.4566 41.387 24.3566 41.387C26.2566 41.387 28.1066 41.137 29.9066 40.637C31.7066 40.137 32.89 39.5536 33.4566 38.887C33.19 38.6203 32.84 38.337 32.4066 38.037C31.9733 37.737 31.4733 37.487 30.9066 37.287L31.7566 34.387C33.19 34.887 34.315 35.537 35.1316 36.337C35.9483 37.137 36.3566 37.987 36.3566 38.887C36.3566 40.487 35.24 41.8036 33.0066 42.837C30.7733 43.8703 27.89 44.387 24.3566 44.387ZM24.3566 33.637C25.06 32.337 25.8025 31.1453 26.5841 30.062C27.3658 28.9786 28.14 27.9536 28.9066 26.987C30.3733 25.087 31.5316 23.4536 32.3816 22.087C33.2316 20.7203 33.6566 18.9191 33.6566 16.6835C33.6566 14.0945 32.7531 11.8978 30.9461 10.0935C29.1388 8.28913 26.9388 7.38696 24.3461 7.38696C21.7531 7.38696 19.5566 8.28913 17.7566 10.0935C15.9566 11.8978 15.0566 14.0945 15.0566 16.6835C15.0566 18.9191 15.4816 20.7203 16.3316 22.087C17.1816 23.4536 18.34 25.087 19.8066 26.987C20.5733 27.9536 21.3475 28.9786 22.1291 30.062C22.9108 31.1453 23.6533 32.337 24.3566 33.637ZM24.3566 39.087C23.9566 39.087 23.6066 38.9741 23.3066 38.7485C23.0066 38.5228 22.79 38.219 22.6566 37.837C21.8566 35.4036 20.8563 33.387 19.6556 31.787C18.455 30.187 17.2886 28.6536 16.1566 27.187C15.0233 25.7203 14.0566 24.1953 13.2566 22.612C12.4566 21.0286 12.0566 19.053 12.0566 16.685C12.0566 13.253 13.2453 10.3453 15.6226 7.96196C18 5.57863 20.9113 4.38696 24.3566 4.38696C27.802 4.38696 30.7133 5.57563 33.0906 7.95296C35.468 10.3303 36.6566 13.2416 36.6566 16.687C36.6566 19.0536 36.2588 21.026 35.4631 22.604C34.6671 24.182 33.6983 25.7096 32.5566 27.187C31.4233 28.6536 30.2566 30.187 29.0566 31.787C27.8566 33.387 26.8591 35.3991 26.0641 37.8235C25.9258 38.1991 25.7066 38.5036 25.4066 38.737C25.1066 38.9703 24.7566 39.087 24.3566 39.087ZM24.3671 19.687C25.1935 19.687 25.8983 19.3918 26.4816 18.8015C27.065 18.2111 27.3566 17.5028 27.3566 16.6765C27.3566 15.8501 27.0615 15.1453 26.4711 14.562C25.8808 13.9786 25.1725 13.687 24.3461 13.687C23.5198 13.687 22.815 13.9821 22.2316 14.5725C21.6483 15.1628 21.3566 15.8711 21.3566 16.6975C21.3566 17.5238 21.6518 18.2286 22.2421 18.812C22.8325 19.3953 23.5408 19.687 24.3671 19.687Z" fill="white"/>
</g>
</svg>
