<svg width="47" height="47" viewBox="0 0 47 47" fill="none" xmlns="http://www.w3.org/2000/svg">
<g clip-path="url(#clip0_5307_615)">
<path d="M31.9431 0.0639878C46.908 -1.26166 52.7859 18.3741 39.9307 25.2263C29.2435 30.9225 17.1647 21.0518 20.7243 9.48402C22.2383 4.56396 26.7234 0.525808 31.9431 0.0639878ZM35.0031 8.83163H38.1996C39.1319 8.83163 39.4436 7.34184 38.1898 7.16518C35.2634 7.35296 31.9598 6.8828 29.0793 7.15127C27.6599 7.28341 27.6334 8.68418 29.0848 8.83023C31.033 9.02637 33.3722 8.17228 34.1654 10.7165H28.6646C28.6395 10.7165 28.2374 10.9335 28.2193 10.9516C27.9229 11.259 28.0732 12.2869 28.5588 12.2869H34.1654C33.8843 13.358 32.9033 14.1648 31.8067 14.2761C30.6517 14.3929 27.2076 13.6265 28.2429 15.6421L34.6372 21.1895C35.415 21.7445 36.3196 20.7694 35.6892 20.0336L31.0233 15.9008C33.3333 15.9829 35.383 14.6141 35.8562 12.3008C36.7816 12.1339 39.6913 12.8809 38.9162 11.0545C38.6282 10.3743 36.2305 10.9488 35.8353 10.6706C35.7448 10.6066 35.6419 10.0154 35.5459 9.80813C35.3775 9.44924 35.1451 9.18077 35.0031 8.83163Z" fill="#F7C531"/>
<path d="M16.5096 26.5325C19.1522 26.8302 20.854 28.8666 22.9873 29.7986C24.6419 30.5219 28.74 29.9154 30.7647 30.0907C34.8796 30.4454 35.1732 36.4199 30.7647 36.8024C28.0248 37.0403 24.9661 36.5979 22.1913 36.8205C21.4232 37.0792 21.3995 37.9556 22.0856 38.3478L31.1836 38.3729C33.4588 38.1072 35.3054 36.221 35.5893 33.9578L43.3361 31.7725C47.8573 31.7321 48.2219 37.5466 43.9484 38.6692C38.7746 40.8267 33.7413 43.8132 28.5786 45.9289C24.5695 47.5717 21.1184 47.2963 17.3306 45.3002C14.9413 44.0413 12.7023 42.4514 10.2754 41.2495V26.5325H16.5096Z" fill="#3E1A51"/>
<path d="M0.498252 24.3555L7.92224 24.3276C8.22281 24.3318 8.42876 24.5933 8.57627 24.8256L8.59993 42.8213C8.59993 43.2386 8.32718 43.4236 7.97233 43.5558C5.76531 43.4529 3.04481 43.8646 0.894848 43.6073C0.585921 43.5711 0.155928 43.4014 0.0529526 43.087L0.00146484 25.0065C0.00563953 24.706 0.267253 24.5001 0.499644 24.3527L0.498252 24.3555ZM4.06343 28.9625C3.40105 29.1086 3.38157 30.2701 3.98133 30.4676C5.35063 30.9183 5.455 28.6565 4.06343 28.9625Z" fill="#3E1A51"/>
</g>
<defs>
<clipPath id="clip0_5307_615">
<rect width="47" height="47" fill="white"/>
</clipPath>
</defs>
</svg>
