<svg width="49" height="49" viewBox="0 0 49 49" fill="none" xmlns="http://www.w3.org/2000/svg">
<mask id="mask0_1673_451" style="mask-type:alpha" maskUnits="userSpaceOnUse" x="0" y="0" width="49" height="49">
<rect x="0.201172" y="0.357056" width="48" height="48" fill="#D9D9D9"/>
</mask>
<g mask="url(#mask0_1673_451)">
<path d="M19.2012 20.9571L24.2012 18.4571L29.2012 20.9571V9.35706H19.2012V20.9571ZM14.2012 34.3571V30.3571H24.2012V34.3571H14.2012ZM9.20117 42.3571C8.40117 42.3571 7.70117 42.0571 7.10117 41.4571C6.50117 40.8571 6.20117 40.1571 6.20117 39.3571V9.35706C6.20117 8.55706 6.50117 7.85706 7.10117 7.25706C7.70117 6.65706 8.40117 6.35706 9.20117 6.35706H39.2012C40.0012 6.35706 40.7012 6.65706 41.3012 7.25706C41.9012 7.85706 42.2012 8.55706 42.2012 9.35706V39.3571C42.2012 40.1571 41.9012 40.8571 41.3012 41.4571C40.7012 42.0571 40.0012 42.3571 39.2012 42.3571H9.20117ZM9.20117 39.3571H39.2012V9.35706H32.2012V25.8071L24.2012 21.8071L16.2012 25.8071V9.35706H9.20117V39.3571Z" fill="#1C1B1F"/>
</g>
</svg>
