<svg width="49" height="49" viewBox="0 0 49 49" fill="none" xmlns="http://www.w3.org/2000/svg">
<path d="M6.3764 43.6513C6.31245 43.6148 6.24952 43.5763 6.18456 43.5429C5.63443 43.2613 5.36037 42.7132 5.49639 42.162C5.63646 41.5927 6.10235 41.2239 6.71947 41.2219C8.2765 41.2158 9.83352 41.2199 11.3916 41.2199C12.5649 41.2199 13.7393 41.2199 14.9938 41.2199C14.871 41.0881 14.7837 41.0193 14.7289 40.9311C14.3645 40.3445 13.9606 39.7762 13.6652 39.1562C13.5231 38.8573 13.3932 38.7813 13.0927 38.7813C12.3599 38.7813 11.6169 38.8137 10.8973 38.7073C9.20523 38.4571 7.91922 36.9607 7.90501 35.2415C7.88166 32.3805 7.89384 29.5185 7.89892 26.6574C7.89993 25.9452 8.43383 25.4154 9.11388 25.4164C9.78988 25.4174 10.3228 25.9513 10.3248 26.6625C10.3309 29.4101 10.3268 32.1576 10.3278 34.9052C10.3278 35.9061 10.7826 36.3559 11.7945 36.3569C12.2756 36.3569 12.7568 36.3468 13.2379 36.361C13.448 36.3671 13.5403 36.3063 13.6114 36.0956C14.3006 34.042 16.1103 32.7168 18.2114 32.7098C20.3297 32.7027 22.1486 34.0238 22.85 36.0945C22.9119 36.2769 22.9759 36.361 23.184 36.361C25.3612 36.3539 27.5384 36.3569 29.7785 36.3569V35.9497C29.7785 30.8851 29.7785 25.8206 29.7785 20.7561C29.7785 19.8038 29.3106 19.3388 28.3564 19.3367C27.8246 19.3367 27.2927 19.3438 26.7609 19.3347C26.0534 19.3215 25.5205 18.7886 25.5256 18.1119C25.5296 17.4473 26.0514 16.9103 26.7385 16.9103C27.5597 16.9103 28.392 16.8718 29.1999 16.9853C30.895 17.2234 32.1658 18.7218 32.2023 20.443C32.2257 21.5443 32.2084 22.6455 32.2094 23.7478C32.2094 23.8846 32.2094 24.0203 32.2094 24.1997C32.3881 24.1997 32.5352 24.1976 32.6824 24.1997C34.0862 24.2219 35.4981 24.1622 36.8937 24.2858C40.4706 24.6029 43.6049 27.5784 44.216 31.1354C44.2627 31.4079 44.3155 31.6784 44.3662 31.9499V35.6731C44.3418 35.7288 44.3084 35.7815 44.2952 35.8392C43.9501 37.4025 42.8346 38.5027 41.2603 38.7246C40.6421 38.8117 40.0017 38.7388 39.3571 38.7388C39.0973 39.7194 38.607 40.4985 37.8651 41.2199H38.3218C39.8149 41.2199 41.308 41.2452 42.8011 41.2087C43.5481 41.1905 44.0698 41.4417 44.3672 42.1317V42.7395C44.1865 43.167 43.882 43.47 43.4557 43.6513H6.3764ZM32.2216 33.348C33.668 32.5963 35.1032 32.4859 36.5537 33.1059C38.0062 33.7269 38.9095 34.8504 39.3571 36.3569C39.8108 36.3569 40.2402 36.362 40.6706 36.3559C41.4237 36.3438 41.9271 35.8403 41.9332 35.0835C41.9403 34.2355 41.9454 33.3865 41.9302 32.5385C41.8794 29.79 39.8667 27.3352 37.1708 26.7871C35.5569 26.4589 33.9136 26.6818 32.2845 26.6443C32.2653 26.6443 32.246 26.6737 32.2226 26.6929V33.349L32.2216 33.348ZM31.4076 41.2057C30.7204 40.5411 30.2586 39.8299 29.9886 38.993C29.9581 38.8998 29.7734 38.7985 29.6597 38.7975C27.5089 38.7864 25.3591 38.7924 23.2083 38.7843C22.9901 38.7843 22.9201 38.8654 22.8419 39.0609C22.6734 39.4803 22.4795 39.8957 22.2441 40.2807C22.0461 40.6049 21.7731 40.8835 21.5143 41.2067H31.4076V41.2057ZM18.2378 35.1422C16.8929 35.1402 15.8008 36.2303 15.7987 37.5747C15.7967 38.8998 16.8797 39.994 18.2013 40.0041C19.5482 40.0153 20.6505 38.9323 20.6586 37.5909C20.6667 36.2465 19.5776 35.1443 18.2368 35.1422H18.2378ZM34.6444 35.1422C33.3016 35.1382 32.2074 36.2323 32.2094 37.5767C32.2115 38.9039 33.2894 39.992 34.615 40.0041C35.9579 40.0163 37.0663 38.9252 37.0703 37.5879C37.0744 36.2425 35.9863 35.1453 34.6444 35.1422Z" fill="white"/>
<path d="M15.4941 4.74805C16.9526 5.38023 18.4092 6.01544 19.8698 6.6456C21.239 7.23624 22.6073 7.82992 23.9836 8.40232C24.6383 8.67485 24.9357 9.12771 24.9195 9.84195C24.8454 13.09 24.2516 16.2063 22.5717 19.0369C20.967 21.7409 18.6497 23.4895 15.5468 24.146C14.8495 24.2939 14.2202 24.0153 13.595 23.8046C10.3987 22.7307 8.31896 20.4735 6.99437 17.4544C5.90323 14.9723 5.47896 12.3504 5.4678 9.65351C5.46475 9.05173 5.78245 8.67384 6.32852 8.44082C9.14213 7.2413 11.9517 6.03165 14.7622 4.82606C14.8059 4.80681 14.8445 4.77439 14.8861 4.74805C15.0891 4.74805 15.2911 4.74805 15.4941 4.74805ZM22.4327 11.0263C22.3647 10.7852 22.6529 10.4721 22.2216 10.2908C19.952 9.33337 17.6916 8.35471 15.424 7.39428C15.3002 7.3416 15.1185 7.32944 14.9987 7.3801C12.7079 8.34964 10.42 9.3283 8.13727 10.3191C8.03679 10.3627 7.92514 10.538 7.93123 10.6464C8.051 12.7171 8.40929 14.7383 9.26596 16.645C10.3926 19.1514 12.1679 20.9416 14.8912 21.6548C15.087 21.7064 15.3205 21.7024 15.5164 21.6507C17.6946 21.0783 19.3257 19.7755 20.4768 17.8607C21.7384 15.7615 22.2297 13.4395 22.4327 11.0273V11.0263Z" fill="white"/>
<path d="M14.6262 15.2651C15.7976 14.2621 16.9049 13.3007 18.0275 12.3565C18.7522 11.7476 19.7886 12.0738 20.0129 12.9704C20.1266 13.4253 20.0078 13.8397 19.6576 14.1436C18.2244 15.3877 16.7862 16.6257 15.3357 17.8495C14.8546 18.2558 14.1959 18.2183 13.7442 17.7776C12.9098 16.9651 12.0846 16.1445 11.2757 15.3066C10.8108 14.8264 10.8433 14.0899 11.3041 13.6279C11.7649 13.167 12.4998 13.1366 12.9829 13.5985C13.5392 14.1304 14.0659 14.6947 14.6262 15.2651Z" fill="white"/>
</svg>
