<svg width="39" height="39" viewBox="0 0 39 39" fill="none" xmlns="http://www.w3.org/2000/svg">
<path d="M1.72528 38.1997C1.66282 38.1641 1.60135 38.1265 1.5379 38.0938C1.00054 37.8187 0.732849 37.2833 0.865703 36.745C1.00252 36.1889 1.45759 35.8286 2.06039 35.8267C3.58126 35.8207 5.10214 35.8247 6.624 35.8247C7.77011 35.8247 8.91721 35.8247 10.1426 35.8247C10.0227 35.696 9.9374 35.6287 9.88386 35.5427C9.52793 34.9697 9.13334 34.4145 8.84483 33.8089C8.70603 33.517 8.57912 33.4428 8.28566 33.4428C7.56984 33.4428 6.8441 33.4744 6.14117 33.3705C4.48843 33.1261 3.23228 31.6645 3.2184 29.9852C3.19559 27.1906 3.20749 24.395 3.21245 21.6004C3.21344 20.9047 3.73494 20.3872 4.3992 20.3882C5.0595 20.3892 5.58001 20.9107 5.58199 21.6054C5.58794 24.2891 5.58398 26.9729 5.58497 29.6566C5.58497 30.6343 6.02913 31.0737 7.0176 31.0747C7.48755 31.0747 7.95749 31.0648 8.42743 31.0786C8.63266 31.0846 8.72288 31.0252 8.79228 30.8194C9.46547 28.8135 11.2332 27.5191 13.2855 27.5122C15.3546 27.5053 17.1313 28.7957 17.8164 30.8184C17.8769 30.9965 17.9393 31.0786 18.1426 31.0786C20.2692 31.0717 22.3959 31.0747 24.584 31.0747V30.6769C24.584 25.7299 24.584 20.783 24.584 15.8361C24.584 14.9059 24.1269 14.4517 23.195 14.4497C22.6754 14.4497 22.1559 14.4566 21.6364 14.4477C20.9454 14.4348 20.4249 13.9143 20.4298 13.2533C20.4338 12.6041 20.9434 12.0796 21.6146 12.0796C22.4167 12.0796 23.2297 12.042 24.0189 12.1529C25.6746 12.3854 26.9159 13.849 26.9515 15.5303C26.9743 16.606 26.9575 17.6817 26.9585 18.7583C26.9585 18.8919 26.9585 19.0245 26.9585 19.1997C27.133 19.1997 27.2767 19.1977 27.4205 19.1997C28.7917 19.2215 30.1708 19.1631 31.534 19.2838C35.0278 19.5935 38.0894 22.4999 38.6863 25.9744C38.7319 26.2406 38.7834 26.5048 38.833 26.77V30.4067C38.8092 30.4611 38.7765 30.5126 38.7636 30.569C38.4265 32.0959 37.3369 33.1706 35.7992 33.3873C35.1954 33.4724 34.5698 33.4012 33.9402 33.4012C33.6864 34.3591 33.2075 35.1201 32.4828 35.8247H32.9289C34.3874 35.8247 35.8458 35.8494 37.3042 35.8138C38.0339 35.796 38.5435 36.0414 38.834 36.7153V37.3091C38.6575 37.7267 38.3601 38.0225 37.9437 38.1997H1.72528ZM26.9704 28.1356C28.3832 27.4014 29.7851 27.2935 31.2019 27.8991C32.6206 28.5057 33.503 29.6032 33.9402 31.0747C34.3834 31.0747 34.8028 31.0796 35.2231 31.0737C35.9588 31.0618 36.4506 30.57 36.4565 29.8308C36.4634 29.0025 36.4684 28.1732 36.4535 27.3449C36.404 24.6602 34.4379 22.2624 31.8047 21.7271C30.2283 21.4065 28.6231 21.6242 27.0318 21.5876C27.013 21.5876 26.9942 21.6162 26.9714 21.635V28.1366L26.9704 28.1356ZM26.1752 35.8108C25.504 35.1617 25.0529 34.467 24.7892 33.6496C24.7595 33.5585 24.579 33.4596 24.468 33.4586C22.3671 33.4477 20.2672 33.4536 18.1664 33.4457C17.9532 33.4457 17.8848 33.5249 17.8085 33.7159C17.6439 34.1256 17.4545 34.5313 17.2245 34.9073C17.0312 35.224 16.7645 35.4961 16.5117 35.8118H26.1752V35.8108ZM13.3113 29.8882C11.9976 29.8862 10.9308 30.951 10.9288 32.2642C10.9269 33.5585 11.9847 34.6273 13.2756 34.6372C14.5912 34.6481 15.6679 33.5902 15.6759 32.28C15.6838 30.9668 14.62 29.8902 13.3103 29.8882H13.3113ZM29.337 29.8882C28.0253 29.8842 26.9565 30.953 26.9585 32.2661C26.9605 33.5625 28.0134 34.6253 29.3082 34.6372C30.6199 34.6491 31.7025 33.5833 31.7065 32.277C31.7105 30.9629 30.6476 29.8911 29.337 29.8882Z" fill="white"/>
<path d="M10.6314 0.199707C12.0561 0.817207 13.4788 1.43768 14.9055 2.0532C16.2429 2.63012 17.5794 3.21002 18.9238 3.76913C19.5633 4.03533 19.8538 4.47768 19.8379 5.17533C19.7655 8.34794 19.1855 11.3919 17.5447 14.1568C15.9772 16.798 13.7138 18.506 10.6829 19.1473C10.0018 19.2917 9.38712 19.0196 8.77639 18.8138C5.65434 17.7648 3.62287 15.56 2.32904 12.6111C1.26324 10.1866 0.848818 7.62554 0.837912 4.99127C0.834937 4.40346 1.14526 4.03434 1.67865 3.80674C4.42693 2.63507 7.17125 1.45351 9.91655 0.275905C9.95918 0.257103 9.99686 0.225436 10.0375 0.199707C10.2358 0.199707 10.4331 0.199707 10.6314 0.199707ZM17.4089 6.33216C17.3425 6.09663 17.624 5.79085 17.2027 5.61372C14.9858 4.67856 12.7779 3.72262 10.563 2.7845C10.442 2.73304 10.2645 2.72117 10.1476 2.77064C7.90987 3.71768 5.67516 4.67361 3.44541 5.64143C3.34725 5.68398 3.23819 5.85518 3.24414 5.96106C3.36113 7.98377 3.71111 9.95799 4.54789 11.8204C5.64839 14.2686 7.38242 16.0172 10.0425 16.7139C10.2338 16.7643 10.4618 16.7604 10.6532 16.7099C12.7808 16.1508 14.3741 14.8782 15.4984 13.0079C16.7307 10.9575 17.2106 8.68934 17.4089 6.33314V6.33216Z" fill="white"/>
<path d="M9.78386 10.4726C10.928 9.49288 12.0096 8.55377 13.1062 7.63148C13.8141 7.03674 14.8263 7.35538 15.0454 8.23116C15.1565 8.67549 15.0405 9.08023 14.6984 9.3771C13.2985 10.5923 11.8936 11.8016 10.4769 12.997C10.0069 13.3938 9.36349 13.3572 8.92229 12.9267C8.10733 12.1331 7.30129 11.3315 6.51111 10.5131C6.05703 10.0441 6.08875 9.32465 6.53887 8.8734C6.98898 8.42314 7.70679 8.39345 8.17871 8.8447C8.72202 9.36424 9.23658 9.91543 9.78386 10.4726Z" fill="white"/>
</svg>
