<svg width="19" height="18" viewBox="0 0 19 18" fill="none" xmlns="http://www.w3.org/2000/svg">
<path d="M4.16523 14.3201L0.965234 12.5701L2.01523 11.5201L4.51523 11.8701L8.41524 7.97009L0.615234 3.72009L2.01523 2.32009L11.5652 4.77009L15.4902 0.895093C15.7736 0.611759 16.1277 0.470093 16.5527 0.470093C16.9777 0.470093 17.3319 0.611759 17.6152 0.895093C17.8986 1.17843 18.0402 1.53259 18.0402 1.95759C18.0402 2.38259 17.8986 2.73676 17.6152 3.02009L13.7152 6.92009L16.1652 16.4701L14.7652 17.8701L10.5152 10.0701L6.61523 13.9701L6.96523 16.4701L5.91524 17.5201L4.16523 14.3201Z" fill="#1C1B1F"/>
</svg>
