<svg width="45" height="46" viewBox="0 0 45 46" fill="none" xmlns="http://www.w3.org/2000/svg">
<g clip-path="url(#clip0_3239_4387)">
<path d="M22.3468 0.749023L16.0254 12.0953L22.2213 23.2172L28.4457 12.0446L22.3468 0.749023Z" fill="#B95FFF"/>
<path d="M22.3468 23.2809L16.0254 34.6272L22.2213 45.7491L28.4457 34.5765L22.3468 23.2809Z" fill="#B95FFF"/>
<path d="M44.2355 23.3628L33.1413 16.8977L22.2666 23.2344L33.1909 29.6002L44.2355 23.3628Z" fill="#FFBB00"/>
<path d="M22.2042 23.3628L11.1101 16.8977L0.235352 23.2344L11.1597 29.6002L22.2042 23.3628Z" fill="#FFBB00"/>
<path d="M11.2199 13.7191C12.1574 13.7191 12.9174 12.9419 12.9174 11.9831C12.9174 11.0243 12.1574 10.2471 11.2199 10.2471C10.2824 10.2471 9.52246 11.0243 9.52246 11.9831C9.52246 12.9419 10.2824 13.7191 11.2199 13.7191Z" fill="#B95FFF"/>
<path d="M33.2507 36.251C34.1882 36.251 34.9481 35.4738 34.9481 34.515C34.9481 33.5562 34.1882 32.7789 33.2507 32.7789C32.3132 32.7789 31.5532 33.5562 31.5532 34.515C31.5532 35.4738 32.3132 36.251 33.2507 36.251Z" fill="#B95FFF"/>
<path d="M33.2507 13.7191C34.1882 13.7191 34.9481 12.9419 34.9481 11.9831C34.9481 11.0243 34.1882 10.2471 33.2507 10.2471C32.3132 10.2471 31.5532 11.0243 31.5532 11.9831C31.5532 12.9419 32.3132 13.7191 33.2507 13.7191Z" fill="#FFBB00"/>
<path d="M11.2199 36.251C12.1574 36.251 12.9174 35.4738 12.9174 34.515C12.9174 33.5562 12.1574 32.7789 11.2199 32.7789C10.2824 32.7789 9.52246 33.5562 9.52246 34.515C9.52246 35.4738 10.2824 36.251 11.2199 36.251Z" fill="#FFBB00"/>
</g>
<defs>
<clipPath id="clip0_3239_4387">
<rect width="44" height="45" fill="white" transform="translate(0.235352 0.749023)"/>
</clipPath>
</defs>
</svg>
