<svg width="40" height="41" viewBox="0 0 40 41" fill="none" xmlns="http://www.w3.org/2000/svg">
<mask id="mask0_1017_471" style="mask-type:alpha" maskUnits="userSpaceOnUse" x="0" y="0" width="40" height="41">
<rect y="0.201904" width="40" height="40" fill="#D9D9D9"/>
</mask>
<g mask="url(#mask0_1017_471)">
<path d="M22.7776 22.4242C21.3887 22.4242 20.2081 21.9381 19.2359 20.9659C18.2637 19.9937 17.7776 18.8131 17.7776 17.4242C17.7776 16.0353 18.2637 14.8548 19.2359 13.8826C20.2081 12.9103 21.3887 12.4242 22.7776 12.4242C24.1665 12.4242 25.347 12.9103 26.3193 13.8826C27.2915 14.8548 27.7776 16.0353 27.7776 17.4242C27.7776 18.8131 27.2915 19.9937 26.3193 20.9659C25.347 21.9381 24.1665 22.4242 22.7776 22.4242ZM9.9998 27.9798C9.23591 27.9798 8.58198 27.7078 8.038 27.1638C7.49403 26.6198 7.22205 25.9659 7.22205 25.202V9.6464C7.22205 8.88251 7.49403 8.22858 8.038 7.68461C8.58198 7.14064 9.23591 6.86865 9.9998 6.86865H35.5554C36.3193 6.86865 36.9732 7.14064 37.5172 7.68461C38.0612 8.22858 38.3332 8.88251 38.3332 9.6464V25.202C38.3332 25.9659 38.0612 26.6198 37.5172 27.1638C36.9732 27.7078 36.3193 27.9798 35.5554 27.9798H9.9998ZM13.8887 25.202H31.6665C31.6665 24.1187 32.0438 23.1997 32.7985 22.4451C33.5531 21.6904 34.4721 21.3131 35.5554 21.3131V13.5353C34.4721 13.5353 33.5531 13.158 32.7985 12.4034C32.0438 11.6487 31.6665 10.7297 31.6665 9.6464H13.8887C13.8887 10.7297 13.5114 11.6487 12.7568 12.4034C12.0021 13.158 11.0831 13.5353 9.9998 13.5353V21.3131C11.0831 21.3131 12.0021 21.6904 12.7568 22.4451C13.5114 23.1997 13.8887 24.1187 13.8887 25.202ZM33.3332 33.5353H4.44425C3.68037 33.5353 3.02643 33.2633 2.48246 32.7194C1.93849 32.1754 1.6665 31.5215 1.6665 30.7576V11.8687H4.44425V30.7576H33.3332V33.5353Z" fill="#1C1B1F"/>
</g>
</svg>
