<svg width="41" height="41" viewBox="0 0 41 41" fill="none" xmlns="http://www.w3.org/2000/svg">
<mask id="mask0_1017_489" style="mask-type:alpha" maskUnits="userSpaceOnUse" x="0" y="0" width="41" height="41">
<rect x="0.887207" y="0.201904" width="40" height="40" fill="#D9D9D9"/>
</mask>
<g mask="url(#mask0_1017_489)">
<path d="M7.55371 35.2019V26.313C7.55371 25.5491 7.8257 24.8952 8.36967 24.3512C8.91364 23.8072 9.56757 23.5352 10.3315 23.5352H31.4426C32.2065 23.5352 32.8604 23.8072 33.4044 24.3512C33.9484 24.8952 34.2204 25.5491 34.2204 26.313V35.2019H7.55371ZM15.887 21.8686C13.5815 21.8686 11.6162 21.0561 9.99121 19.4311C8.36621 17.8061 7.55371 15.8408 7.55371 13.5352C7.55371 11.2297 8.36621 9.2644 9.99121 7.6394C11.6162 6.0144 13.5815 5.2019 15.887 5.2019H25.887C28.1926 5.2019 30.1579 6.0144 31.7829 7.6394C33.4079 9.2644 34.2204 11.2297 34.2204 13.5352C34.2204 15.8408 33.4079 17.8061 31.7829 19.4311C30.1579 21.0561 28.1926 21.8686 25.887 21.8686H15.887ZM10.3315 32.4242H31.4426V26.313H10.3315V32.4242ZM15.887 19.0908H25.887C27.4303 19.0908 28.742 18.5513 29.8223 17.4723C30.9025 16.3933 31.4426 15.0832 31.4426 13.5418C31.4426 12.0004 30.9025 10.688 29.8223 9.60466C28.742 8.52132 27.4303 7.97966 25.887 7.97966H15.887C14.3438 7.97966 13.0321 8.51916 11.9518 9.59816C10.8716 10.6771 10.3315 11.9873 10.3315 13.5287C10.3315 15.0701 10.8716 16.3825 11.9518 17.4658C13.0321 18.5492 14.3438 19.0908 15.887 19.0908ZM15.8919 14.9241C16.2868 14.9241 16.6162 14.7905 16.8801 14.5234C17.144 14.2563 17.2759 13.9253 17.2759 13.5304C17.2759 13.1355 17.1424 12.8061 16.8752 12.5422C16.6081 12.2783 16.2771 12.1464 15.8822 12.1464C15.4873 12.1464 15.1579 12.2799 14.894 12.5471C14.6301 12.8142 14.4982 13.1452 14.4982 13.5401C14.4982 13.935 14.6317 14.2644 14.8989 14.5283C15.166 14.7922 15.497 14.9241 15.8919 14.9241ZM25.8919 14.9241C26.2868 14.9241 26.6162 14.7905 26.8801 14.5234C27.144 14.2563 27.2759 13.9253 27.2759 13.5304C27.2759 13.1355 27.1424 12.8061 26.8752 12.5422C26.6081 12.2783 26.2771 12.1464 25.8822 12.1464C25.4873 12.1464 25.1579 12.2799 24.894 12.5471C24.6301 12.8142 24.4982 13.1452 24.4982 13.5401C24.4982 13.935 24.6317 14.2644 24.8989 14.5283C25.166 14.7922 25.497 14.9241 25.8919 14.9241Z" fill="#1C1B1F"/>
</g>
</svg>
