<svg width="40" height="41" viewBox="0 0 40 41" fill="none" xmlns="http://www.w3.org/2000/svg">
<mask id="mask0_1017_501" style="mask-type:alpha" maskUnits="userSpaceOnUse" x="0" y="0" width="40" height="41">
<rect y="0.902344" width="40" height="40" fill="#D9D9D9"/>
</mask>
<g mask="url(#mask0_1017_501)">
<path d="M16.6668 20.7634C14.8335 20.7634 13.3103 20.1569 12.0974 18.9439C10.8844 17.731 10.278 16.2078 10.278 14.3745C10.278 12.5411 10.8844 11.018 12.0974 9.80505C13.3103 8.59208 14.8335 7.9856 16.6668 7.9856C18.5002 7.9856 20.0233 8.59208 21.2363 9.80505C22.4492 11.018 23.0557 12.5411 23.0557 14.3745C23.0557 16.2078 22.4492 17.731 21.2363 18.9439C20.0233 20.1569 18.5002 20.7634 16.6668 20.7634ZM3.3335 34.1245V29.9578C3.3335 29.0041 3.57423 28.1337 4.0557 27.3467C4.5372 26.5597 5.2224 25.9578 6.11129 25.5412C7.91684 24.7078 9.68536 24.0782 11.4168 23.6523C13.1483 23.2263 14.8983 23.0134 16.6668 23.0134H17.1807C17.3566 23.0134 17.5187 23.0227 17.6668 23.0412C17.4816 23.4671 17.3358 23.8953 17.2293 24.3259C17.1229 24.7564 17.0372 25.2449 16.9724 25.7911H16.6668C14.9354 25.7911 13.2942 25.9902 11.7432 26.3883C10.1923 26.7865 8.70387 27.3374 7.27795 28.0411C6.89832 28.2356 6.60895 28.5087 6.40987 28.8606C6.21079 29.2125 6.11125 29.5782 6.11125 29.9578V31.3467H17.0835C17.2316 31.8745 17.4168 32.3676 17.639 32.8259C17.8613 33.2842 18.1205 33.7171 18.4168 34.1245H3.3335ZM27.4169 35.9023L26.9724 33.2356C26.5465 33.0967 26.1229 32.9138 25.7016 32.687C25.2803 32.4601 24.9076 32.1985 24.5835 31.9023L22.2502 32.4856L21.0002 30.3745L22.9446 28.5967C22.8891 28.3004 22.8613 27.9486 22.8613 27.5411C22.8613 27.1337 22.8891 26.7819 22.9446 26.4856L21.0002 24.7078L22.2502 22.5967L24.5835 23.1801C24.9076 22.8837 25.2803 22.6222 25.7016 22.3953C26.1229 22.1685 26.5465 21.9856 26.9724 21.8467L27.4169 19.1801H30.028L30.4724 21.8467C30.8983 21.9856 31.3219 22.1708 31.7432 22.4023C32.1645 22.6338 32.5372 22.9023 32.8613 23.2078L35.1946 22.5967L36.4446 24.7356L34.5002 26.5134C34.5557 26.7912 34.5835 27.1384 34.5835 27.5551C34.5835 27.9717 34.5557 28.3189 34.5002 28.5967L36.4446 30.3745L35.1946 32.4856L32.8613 31.9023C32.5372 32.1985 32.1645 32.4601 31.7432 32.687C31.3219 32.9138 30.8983 33.0967 30.4724 33.2356L30.028 35.9023H27.4169ZM28.7224 30.8745C29.6946 30.8745 30.4932 30.562 31.1182 29.937C31.7432 29.312 32.0557 28.5134 32.0557 27.5411C32.0557 26.5689 31.7432 25.7703 31.1182 25.1453C30.4932 24.5203 29.6946 24.2078 28.7224 24.2078C27.7502 24.2078 26.9516 24.5203 26.3266 25.1453C25.7016 25.7703 25.3891 26.5689 25.3891 27.5411C25.3891 28.5134 25.7016 29.312 26.3266 29.937C26.9516 30.562 27.7502 30.8745 28.7224 30.8745ZM16.6668 17.9856C17.6946 17.9856 18.5534 17.6407 19.2432 16.9509C19.933 16.2611 20.278 15.4023 20.278 14.3745C20.278 13.3467 19.933 12.4879 19.2432 11.7981C18.5534 11.1083 17.6946 10.7634 16.6668 10.7634C15.6391 10.7634 14.7803 11.1083 14.0905 11.7981C13.4006 12.4879 13.0557 13.3467 13.0557 14.3745C13.0557 15.4023 13.4006 16.2611 14.0905 16.9509C14.7803 17.6407 15.6391 17.9856 16.6668 17.9856Z" fill="#1C1B1F"/>
</g>
</svg>
