<svg width="17" height="17" viewBox="0 0 17 17" fill="none" xmlns="http://www.w3.org/2000/svg">
<path d="M8.10645 12.5878H9.60645V7.58777H8.10645V12.5878ZM8.85207 6.08777C9.06332 6.08777 9.24186 6.01631 9.3877 5.87339C9.53353 5.73048 9.60645 5.55339 9.60645 5.34214C9.60645 5.13089 9.53499 4.95235 9.39207 4.80652C9.24915 4.66069 9.07207 4.58777 8.86082 4.58777C8.64957 4.58777 8.47103 4.65923 8.3252 4.80214C8.17936 4.94506 8.10645 5.12214 8.10645 5.33339C8.10645 5.54464 8.1779 5.72319 8.32082 5.86902C8.46374 6.01485 8.64082 6.08777 8.85207 6.08777ZM8.86228 16.5878C7.76117 16.5878 6.7245 16.3794 5.75228 15.9628C4.78006 15.5461 3.92936 14.9732 3.2002 14.244C2.47103 13.5149 1.89811 12.6644 1.48145 11.6928C1.06478 10.7211 0.856445 9.68291 0.856445 8.57819C0.856445 7.47346 1.06478 6.43846 1.48145 5.47319C1.89811 4.50791 2.47103 3.66069 3.2002 2.93152C3.92936 2.20235 4.77978 1.62944 5.75145 1.21277C6.72311 0.796102 7.76131 0.587769 8.86603 0.587769C9.97075 0.587769 11.0058 0.796102 11.971 1.21277C12.9363 1.62944 13.7835 2.20235 14.5127 2.93152C15.2419 3.66069 15.8148 4.50943 16.2314 5.47777C16.6481 6.44624 16.8564 7.48096 16.8564 8.58194C16.8564 9.68305 16.6481 10.7197 16.2314 11.6919C15.8148 12.6642 15.2419 13.5149 14.5127 14.244C13.7835 14.9732 12.9348 15.5461 11.9664 15.9628C10.998 16.3794 9.96325 16.5878 8.86228 16.5878ZM8.85645 15.0878C10.662 15.0878 12.1967 14.4558 13.4606 13.1919C14.7245 11.928 15.3564 10.3933 15.3564 8.58777C15.3564 6.78221 14.7245 5.24749 13.4606 3.9836C12.1967 2.71971 10.662 2.08777 8.85645 2.08777C7.05089 2.08777 5.51617 2.71971 4.25228 3.9836C2.98839 5.24749 2.35645 6.78221 2.35645 8.58777C2.35645 10.3933 2.98839 11.928 4.25228 13.1919C5.51617 14.4558 7.05089 15.0878 8.85645 15.0878Z" fill="#1C1B1F"/>
</svg>
