<svg width="41" height="41" viewBox="0 0 41 41" fill="none" xmlns="http://www.w3.org/2000/svg">
<mask id="mask0_2199_770" style="mask-type:alpha" maskUnits="userSpaceOnUse" x="0" y="0" width="41" height="41">
<rect x="0.435547" y="0.742981" width="40" height="40" fill="#D9D9D9"/>
</mask>
<g mask="url(#mask0_2199_770)">
<path d="M9.99365 34.0484C8.62115 34.0484 7.45337 33.5677 6.49031 32.6063C5.52753 31.6449 5.04615 30.4776 5.04615 29.1043H2.10156V10.1876C2.10156 9.43758 2.37698 8.78703 2.92781 8.23592C3.47892 7.68509 4.12948 7.40967 4.87948 7.40967H28.7403V14.2709H33.3236L38.7682 21.5209V29.1043H35.6849C35.6849 30.4776 35.2045 31.6449 34.2436 32.6063C33.2828 33.5677 32.1161 34.0484 30.7436 34.0484C29.3711 34.0484 28.2034 33.5677 27.2403 32.6063C26.2775 31.6449 25.7961 30.4776 25.7961 29.1043H14.9349C14.9349 30.4745 14.4545 31.6412 13.4936 32.6043C12.5328 33.567 11.3661 34.0484 9.99365 34.0484ZM9.99031 31.2709C10.5923 31.2709 11.1039 31.0602 11.5253 30.6388C11.9464 30.2174 12.157 29.7059 12.157 29.1043C12.157 28.5023 11.9464 27.9906 11.5253 27.5693C11.1039 27.1481 10.5923 26.9376 9.99031 26.9376C9.38865 26.9376 8.87712 27.1481 8.45573 27.5693C8.03434 27.9906 7.82365 28.5023 7.82365 29.1043C7.82365 29.7059 8.03434 30.2174 8.45573 30.6388C8.87712 31.0602 9.38865 31.2709 9.99031 31.2709ZM30.7403 31.2709C31.3423 31.2709 31.8539 31.0602 32.2753 30.6388C32.6964 30.2174 32.907 29.7059 32.907 29.1043C32.907 28.5023 32.6964 27.9906 32.2753 27.5693C31.8539 27.1481 31.3423 26.9376 30.7403 26.9376C30.1386 26.9376 29.6271 27.1481 29.2057 27.5693C28.7843 27.9906 28.5736 28.5023 28.5736 29.1043C28.5736 29.7059 28.7843 30.2174 29.2057 30.6388C29.6271 31.0602 30.1386 31.2709 30.7403 31.2709ZM28.7403 22.8263H36.2682L31.9349 17.0484H28.7403V22.8263Z" fill="#D28DFF"/>
</g>
</svg>
