<svg width="384" height="250" viewBox="0 0 384 250" fill="none" xmlns="http://www.w3.org/2000/svg">
<path d="M383.23 20.21C383.23 20.32 382.52 21.04 382.45 22.02C378.08 81.48 368.62 140.64 363.58 200.04C363.32 208.02 353.27 218.57 345.43 218.57H217.06C233.28 188.74 231.31 152.22 210.63 125.07C197.58 107.93 178.38 96.8 157.27 92.72C156.95 87.85 157.62 82.62 158.67 77.85H117.13C113.58 77.85 110.38 67.82 117.63 65.62L159.47 64.8L162.42 39.68H121.62C117.67 39.68 114.28 28.79 122.54 27.13L163.9 26.95C164.31 17.46 166.22 7.65 175.37 2.87C176.66 2.2 181.98 0.01 182.99 0.01H243.25L233.49 90.92C232.79 101.99 237.33 101.73 245.51 97.71C252.85 94.11 259.68 89.24 266.95 85.47L290.39 99.97C292.62 100.76 295.69 100.47 297.07 98.37L308.38 0L368.44 0.19C376.36 1.26 380.71 6.32 383.23 13.47C383.13 15.7 383.37 17.99 383.23 20.21Z" fill="#3E1A51"/>
<path d="M136.06 103.52C195.1 98.25 236.34 161.25 206.7 213.08C180.01 259.75 113.56 262.29 82.9 218.36C51.05 172.72 80.82 108.44 136.06 103.52ZM139.8 124.48C101.15 127 78.63 169.53 98.18 203.08C118.17 237.39 168.9 236.81 188.46 202.33C208.87 166.35 180.87 121.8 139.8 124.48Z" fill="#F7C531"/>
<path d="M5.76998 170.1C10.96 169.17 36.17 169.16 41.35 170.1C48.79 171.45 49.16 181.52 42.23 182.6C36.4 183.51 10.73 183.5 4.88998 182.6C-1.73002 181.57 -1.80002 171.46 5.76998 170.1Z" fill="#F7C531"/>
<path d="M67.1101 232.56C66.2701 233.48 64.5301 234.17 63.2601 234.33C56.6801 235.13 32.9101 235.24 26.6001 234.25C19.7801 233.18 19.7501 222.69 27.3501 221.62C33.7701 220.72 55.9801 220.74 62.4101 221.64C67.9601 222.42 70.9601 228.35 67.1001 232.56H67.1101Z" fill="#F7C531"/>
<path d="M25.21 119.17L63.93 119.06C70.57 120.11 70.68 130.46 61.67 131.67C54.93 132.58 35.73 132.49 28.89 131.65C21.13 130.7 18.53 123.69 25.22 119.17H25.21Z" fill="#F7C531"/>
<path d="M149.68 169.92H175.5C180.76 169.92 183.97 180.25 177.41 182.31C166.52 181.99 153.17 183.89 142.55 182.66C139.11 182.26 137.34 180.51 136.94 177.05C135.72 166.53 137.75 153.55 137.12 142.76C138.64 135.88 149.68 138.42 149.68 144.1V169.92Z" fill="#F7C531"/>
</svg>
