<svg width="337" height="372" viewBox="0 0 337 372" fill="none" xmlns="http://www.w3.org/2000/svg">
<path d="M76.51 87.8501V115.92C76.51 118.51 81.83 120.95 84.36 120.83C86.47 120.73 91.48 118.02 91.48 115.92V87.8501H176.06V115.17C176.06 115.65 178.08 118.63 178.78 119.19C184.04 123.34 191.78 119.19 191.78 112.93V87.8501H241.56C244.08 87.8501 248.91 93.5901 248.6 96.5301L256.16 179.17C230.13 176.01 202.23 184.05 181.71 200.16C145.24 228.8 131.65 278.25 149.87 321.39H15.5C8.71999 321.39 -1.09001 308.66 0.0899875 301.55L18.94 97.2801C18.75 94.3901 23.4 87.8601 25.99 87.8601H76.52L76.51 87.8501Z" fill="#3E1A51"/>
<path d="M326.83 296.49C327.86 290.77 336.21 285.67 336.07 280.04C335.93 274.27 327.3 269.59 326.04 264.06C324.75 258.47 330.47 250.51 328.14 245.32C325.79 240.09 316.03 239.07 312.74 234.41C309.44 229.75 311.7 220.2 307.56 216.27C303.43 212.35 294.03 215.12 289.16 212.08C284.36 209.08 282.73 199.39 277.32 197.4C272.04 195.45 264.54 201.73 258.78 200.88C253.27 200.07 247.93 191.84 242.06 192.15C234.93 192.54 229.51 201.54 223.18 203.38C216.41 205.33 207 200.76 201.22 204.12C195.2 207.61 194.55 218.11 189.7 222.83C184.77 227.64 174.28 228.01 170.66 233.78C167.02 239.59 171.24 249.23 169.03 255.7C166.82 262.17 157.6 267.23 156.94 274.05C156.28 280.83 164.36 287.53 165.33 294.35C166.3 301.04 160.41 309.77 163.05 316.2C165.59 322.38 175.85 324.48 180.02 330.16C183.93 335.47 182.75 345.91 188.17 350.56C192.39 354.17 201.42 350.77 206.04 353.39C210.83 356.11 212.56 365.58 217.65 367.27C222.84 368.99 229.91 362.42 235.25 363.1C240.65 363.79 245.84 371.91 251.23 371.58C256.65 371.24 260.81 362.53 266.06 361.21C271.32 359.88 279.1 365.59 284.04 363.32C288.95 361.06 289.68 351.45 294.12 348.3C298.51 345.17 307.84 347.64 311.61 343.68C315.31 339.81 312.4 330.63 315.36 325.98C318.21 321.5 327.79 320.28 329.82 315.11C331.96 309.66 325.85 301.98 326.83 296.49ZM295.58 261.39L244.02 312.95C242.56 314.41 240.64 315.15 238.71 315.15C236.99 315.15 235.26 314.56 233.85 313.36L197.84 282.75C194.68 280.07 194.3 275.33 196.98 272.18C199.67 269.02 204.4 268.64 207.56 271.32L238.3 297.45L284.97 250.78C287.9 247.85 292.65 247.85 295.58 250.78C298.51 253.71 298.51 258.46 295.58 261.39Z" fill="#F7C531"/>
<path d="M191.79 87.1101H175.32V52.3001C175.32 35.8601 154.77 18.2201 139 16.7601C117.83 14.7901 92.23 31.0901 92.23 53.8001V87.1101H75.76V51.5501C75.76 45.8601 80.85 33.3101 83.87 28.2201C106.94 -10.6699 164.39 -8.98989 185.44 30.9501C187.46 34.7801 191.79 46.1201 191.79 50.0501V87.1001V87.1101Z" fill="#3E1A51"/>
</svg>
