<svg width="298" height="309" viewBox="0 0 298 309" fill="none" xmlns="http://www.w3.org/2000/svg">
<path d="M91.0899 150.19H142.42C144.59 158.33 131.63 162.44 132.09 169.62C132.17 170.93 142.18 188.79 143.57 190.47C149.4 197.52 158.13 188.81 164.21 191.07C164.9 191.33 173.55 196.36 173.94 196.76C177.24 200.16 176.23 211.42 182.22 213.41C185.4 214.46 201.26 214.45 205.13 213.99C212.54 213.12 212.72 202.12 215.2 196.56C218.37 196.15 223.63 191.17 225.84 190.64C230.54 189.52 240.35 196.2 245.1 191.62C247.03 186.76 257.23 173.82 257.53 169.56C257.92 163.92 246.62 157.24 246.58 153.57C246.57 152.64 247.3 151.31 247.37 150.25C263.37 150.41 279.62 149.49 295.49 150.72C297.69 151.72 298.61 153.66 297.48 155.99C284.27 175.93 273.65 198.87 260.33 218.57C256.49 224.25 255.21 226.53 247.68 227.18C208.74 225.26 167.51 229.64 128.83 227.18C126.4 227.03 124.12 226.73 121.9 225.68L135.93 263.71C166.05 264.56 196.3 262.94 226.42 263.78C234.32 264 251.31 263.96 258.07 266.6C274.24 272.92 275.83 296.91 260.73 305.48C240.32 317.06 219.34 294.25 231.16 274.81H155.63C162.13 287.26 157.62 302.79 143.73 307.28C120.92 314.66 105.16 285.78 122.28 270.43C123.64 269.21 126.34 268.56 126.2 267.27C106.71 215.45 85.5899 164.3 64.8399 112.99C62.7499 109.21 57.5599 103.46 53.1699 102.66C39.8699 100.24 20.4499 104.08 6.4099 102.49C-2.0501 101.53 -1.9401 92.38 5.6599 91.48C14.8999 90.38 47.4599 90.51 55.9299 92.57C66.3899 95.12 71.7699 102.88 76.0499 112.05C81.7799 124.34 85.8199 137.66 91.1099 150.16L91.0899 150.19Z" fill="#3E1A51"/>
<path d="M278.8 140.66H248.74C250.31 136.3 257.69 132.94 257.51 127.9C257.43 125.59 245.9 105.76 244.01 104.69C239.05 101.87 229.13 107.46 225.98 106.5C225.39 106.32 215.78 100.78 215.39 100.31C212.89 97.3401 212.75 85.9401 208.23 84.0101C205.9 83.0201 187.34 83.0601 183.81 83.4101C176.88 84.0901 176.46 94.6501 174.53 100.16C169.67 101.43 166.24 106.44 161.16 106.21C156.08 105.98 148.64 101.48 144.32 105.51C142.93 106.81 135.51 120 134.24 122.57C129.15 132.89 136.02 132.74 140.96 140.66H110.16V69.1701C110.16 67.2701 114.59 65.6501 116.36 65.8301H273.35C274.67 65.3001 278.81 67.4901 278.81 68.4401V140.67L278.8 140.66Z" fill="#3E1A51"/>
<path d="M203.21 93.0701C204.6 97.0101 205.85 105.64 209.18 108C210.77 109.13 213.02 109.39 214.79 110.46C217.06 111.84 222.22 116.2 224.25 116.45C228.06 116.92 234.67 113.81 238.79 113.65L247.08 127.84C247.02 128.61 238.24 136.37 237.34 139.16C236.63 141.38 237.79 147.51 237.78 150.6C237.78 152.58 236.8 154.42 236.96 156.43C237.29 160.51 245.02 165.89 247.12 169.62L238.73 183.12C236.39 183.86 227.76 180.21 224.45 180.65C221.14 181.09 212.96 188.75 208.47 189.47C205.54 192.14 204.32 203.07 202.58 204.11L186.88 204.51C185.91 204.25 183.54 191 180.85 189.15C179.38 188.13 176.23 187.45 174.21 186.26C172.35 185.16 167.63 181.29 166.25 181.02C160.92 179.98 155.26 183.51 149.87 183.09L142.7 169.63C142.72 167.41 151.35 161.03 152.41 157.56C152.81 156.26 151.97 147.82 151.93 145.41C151.9 143.65 152.68 141.97 152.54 140.48C152.19 136.62 144.22 131.13 142.53 127.24C142.6 126.47 149.84 114.28 150.5 113.88C151.93 113.01 161.97 116.97 165.33 116.35C167.66 115.92 171.14 112.59 173.46 111.23C176.77 109.3 180.67 108.96 182.39 105.49C183.31 103.64 185.97 93.4801 186.52 93.1201L203.21 93.0901V93.0701ZM192.1 127.65C165.09 131.17 169.13 173.07 198.45 169.19C224.02 165.81 219.73 124.05 192.1 127.65Z" fill="#F7C531"/>
<path d="M234.81 56.3299H154.88V2.43989C154.88 1.29989 159.35 0.65989 160.35 0.57989C182.42 -1.27011 207 2.04989 229.34 0.57989C230.66 0.0498903 234.8 2.23989 234.8 3.17989V56.3399L234.81 56.3299Z" fill="#3E1A51"/>
</svg>
