<svg width="44" height="44" viewBox="0 0 44 44" fill="none" xmlns="http://www.w3.org/2000/svg">
<rect width="44" height="44" rx="4" fill="white"/>
<g clip-path="url(#clip0_9703_270)">
<path d="M18.1073 13.4341C15.1829 13.4341 12.8047 15.813 12.8047 18.7367C12.8047 21.6604 15.1829 24.0393 18.1073 24.0393C21.0317 24.0393 23.4099 21.6611 23.4099 18.7367C23.4099 15.8123 21.0303 13.4341 18.1073 13.4341ZM20.9231 20.3634C20.8174 20.5473 20.6245 20.6496 20.4268 20.6496C20.3293 20.6496 20.2311 20.6254 20.1412 20.5729L17.8204 19.2331C17.6496 19.1342 17.5342 18.9489 17.5342 18.7367V15.7528C17.5342 15.4376 17.7907 15.1804 18.1073 15.1804C18.4239 15.1804 18.6797 15.4376 18.6797 15.7528V18.4062L20.7137 19.5801C20.9874 19.7384 21.0815 20.089 20.9231 20.3634Z" fill="#F7C531"/>
<path d="M4.50122 13.4341H9.81282C10.0894 13.4341 10.314 13.2094 10.314 12.9329C10.314 12.6563 10.0894 12.4316 9.81282 12.4316H4.50122C4.224 12.4316 4 12.6563 4 12.9329C4 13.2094 4.22469 13.4341 4.50122 13.4341Z" fill="#F7C531"/>
<path d="M4.50122 17.3032H9.81282C10.0894 17.3032 10.314 17.0785 10.314 16.802C10.314 16.5255 10.0894 16.3008 9.81282 16.3008H4.50122C4.224 16.3008 4 16.5255 4 16.802C4 17.0785 4.22469 17.3032 4.50122 17.3032Z" fill="#F7C531"/>
<path d="M4.50122 21.1729H9.81282C10.0894 21.1729 10.314 20.9482 10.314 20.6716C10.314 20.3951 10.0894 20.1704 9.81282 20.1704H4.50122C4.224 20.1704 4 20.3951 4 20.6716C4 20.9482 4.22469 21.1729 4.50122 21.1729Z" fill="#F7C531"/>
<path d="M10.314 24.5403C10.314 24.2631 10.0894 24.0391 9.81282 24.0391H4.50122C4.224 24.0391 4 24.2637 4 24.5403C4 24.8168 4.22469 25.0415 4.50122 25.0415H9.81282C10.0894 25.0415 10.314 24.8168 10.314 24.5403Z" fill="#F7C531"/>
<path d="M38.4727 25.038V26.5693C38.4727 27.1798 38.8577 27.7018 39.3977 27.905V24.897H38.6137C38.5363 24.897 38.4727 24.9599 38.4727 25.038Z" fill="#3E1A51"/>
<path d="M38.6127 23.8945H39.3974V23.5882C39.3974 22.0424 39.0006 20.5097 38.2504 19.1574L35.3592 13.944C35.2217 13.6944 34.959 13.5396 34.6741 13.5396H27.8789V27.9921C28.6615 27.0622 29.834 26.4704 31.142 26.4704C33.3246 26.4704 35.1304 28.1186 35.3793 30.2355H39.2564C39.3338 30.2355 39.3974 30.1719 39.3974 30.0945V28.9461C38.2975 28.7152 37.4692 27.737 37.4692 26.5693V25.038C37.4692 24.4068 37.9829 23.8945 38.6127 23.8945ZM36.65 20.7357L30.1002 19.2383C30.0442 19.2259 30.0048 19.1761 30.0048 19.1187V15.6661C30.0048 15.5984 30.0601 15.5438 30.1278 15.5438H34.0132C34.0574 15.5438 34.0989 15.568 34.1204 15.6067L36.3893 19.698C36.5449 19.9794 36.6811 20.2753 36.7945 20.5781C36.8138 20.6314 36.7931 20.6715 36.7717 20.6957C36.753 20.7164 36.7129 20.7496 36.65 20.7357Z" fill="#3E1A51"/>
<path d="M37.6066 20.2742C37.4787 19.9313 37.3245 19.5953 37.1476 19.2766L34.8786 15.1852C34.7037 14.87 34.3711 14.6743 34.0109 14.6743H30.1256C29.578 14.6743 29.1328 15.1195 29.1328 15.6664V19.119C29.1328 19.5849 29.4501 19.9825 29.9044 20.0868L36.4541 21.5836C36.5281 21.6009 36.6021 21.6085 36.6761 21.6085C36.9588 21.6085 37.2319 21.4875 37.4234 21.269C37.6633 20.9953 37.7338 20.6143 37.6066 20.2742ZM36.7694 20.6959C36.7507 20.7167 36.7106 20.7498 36.6477 20.736L30.0979 19.2386C30.0419 19.2261 30.0025 19.1763 30.0025 19.119V15.6664C30.0025 15.5986 30.0578 15.544 30.1256 15.544H34.0109C34.0552 15.544 34.0967 15.5682 34.1181 15.6069L36.3871 19.6983C36.5426 19.9797 36.6788 20.2756 36.7922 20.5784C36.8116 20.6316 36.7908 20.6717 36.7694 20.6959Z" fill="#3E1A51"/>
<path d="M11.2559 27.4731H8.65234V30.0947C8.65234 30.1722 8.71595 30.2358 8.79407 30.2358H9.76333C9.89331 29.131 10.4464 28.1555 11.2559 27.4731Z" fill="#3E1A51"/>
<path d="M18.2341 30.2358H26.8745V27.4731H16.7422C17.5524 28.1548 18.1048 29.131 18.2348 30.2358H18.2341Z" fill="#3E1A51"/>
<path d="M31.7619 30.7368C31.7619 31.079 31.4833 31.3576 31.1404 31.3576C30.7975 31.3576 30.5195 31.079 30.5195 30.7368C30.5195 30.3945 30.7981 30.1152 31.1404 30.1152C31.4826 30.1152 31.7619 30.3938 31.7619 30.7368Z" fill="#3E1A51"/>
<path d="M31.142 27.4731C29.3425 27.4731 27.8789 28.9374 27.8789 30.737C27.8789 32.5365 29.3425 34.0001 31.142 34.0001C32.9416 34.0001 34.4059 32.5359 34.4059 30.737C34.4059 28.9381 32.9416 27.4731 31.142 27.4731ZM31.142 32.3609C30.2468 32.3609 29.5188 31.6323 29.5188 30.737C29.5188 29.8417 30.2468 29.113 31.142 29.113C32.0373 29.113 32.766 29.8417 32.766 30.737C32.766 31.6323 32.038 32.3609 31.142 32.3609Z" fill="#3E1A51"/>
<path d="M31.7619 30.7368C31.7619 31.079 31.4833 31.3576 31.1404 31.3576C30.7975 31.3576 30.5195 31.079 30.5195 30.7368C30.5195 30.3945 30.7981 30.1152 31.1404 30.1152C31.4826 30.1152 31.7619 30.3938 31.7619 30.7368Z" fill="#3E1A51"/>
<path d="M31.7619 30.7368C31.7619 31.079 31.4833 31.3576 31.1404 31.3576C30.7975 31.3576 30.5195 31.079 30.5195 30.7368C30.5195 30.3945 30.7981 30.1152 31.1404 30.1152C31.4826 30.1152 31.7619 30.3938 31.7619 30.7368Z" fill="#3E1A51"/>
<path d="M14.6213 30.7368C14.6213 31.079 14.3426 31.3576 14.0004 31.3576C13.6582 31.3576 13.3789 31.079 13.3789 30.7368C13.3789 30.3945 13.6575 30.1152 14.0004 30.1152C14.3433 30.1152 14.6213 30.3938 14.6213 30.7368Z" fill="#3E1A51"/>
<path d="M14.6213 30.7368C14.6213 31.079 14.3426 31.3576 14.0004 31.3576C13.6582 31.3576 13.3789 31.079 13.3789 30.7368C13.3789 30.3945 13.6575 30.1152 14.0004 30.1152C14.3433 30.1152 14.6213 30.3938 14.6213 30.7368Z" fill="#3E1A51"/>
<path d="M13.9975 27.4731C12.1986 27.4731 10.7344 28.9374 10.7344 30.737C10.7344 32.5365 12.1986 34.0001 13.9975 34.0001C15.7964 34.0001 17.2614 32.5359 17.2614 30.737C17.2614 28.9381 15.7978 27.4731 13.9975 27.4731ZM13.9982 32.3609C13.1022 32.3609 12.3742 31.6323 12.3742 30.737C12.3742 29.8417 13.1022 29.113 13.9982 29.113C14.8942 29.113 15.6215 29.8417 15.6215 30.737C15.6215 31.6323 14.8935 32.3609 13.9982 32.3609Z" fill="#3E1A51"/>
<path d="M14.6213 30.7368C14.6213 31.079 14.3426 31.3576 14.0004 31.3576C13.6582 31.3576 13.3789 31.079 13.3789 30.7368C13.3789 30.3945 13.6575 30.1152 14.0004 30.1152C14.3433 30.1152 14.6213 30.3938 14.6213 30.7368Z" fill="#3E1A51"/>
<path d="M25.8737 26.4704V11.144C25.8737 11.0658 25.8101 11.0029 25.732 11.0029H9.15357C8.87703 11.0029 8.65234 10.7783 8.65234 10.5017C8.65234 10.2252 8.87703 10.0005 9.15357 10.0005H25.7327C26.3632 10.0005 26.8769 10.5135 26.8769 11.1447V26.4711H25.8744L25.8737 26.4704Z" fill="#3E1A51"/>
</g>
<defs>
<clipPath id="clip0_9703_270">
<rect width="35.3968" height="24" fill="white" transform="translate(4 10)"/>
</clipPath>
</defs>
</svg>
