<svg width="46" height="43" viewBox="0 0 46 43" fill="none" xmlns="http://www.w3.org/2000/svg">
<g clip-path="url(#clip0_5307_588)">
<path d="M22.6815 0.0563189C37.1073 -0.952468 48.4462 11.6232 45.5438 25.9213C42.7168 39.8476 26.9854 47.1946 14.4067 40.4834C11.4337 38.8976 7.94432 35.8545 6.29727 32.8893C5.82771 32.0436 5.7259 31.1632 6.63147 30.5562C8.36357 29.3951 9.31347 31.8865 10.1687 32.9421C20.8835 46.193 42.2617 39.1195 42.7995 22.1177C43.3433 4.87595 22.1317 -3.51222 10.691 9.41849C9.93635 10.2725 9.39492 11.3797 8.73251 12.1522C7.66043 13.4033 5.5582 12.3825 6.0014 10.6624C6.13197 10.155 7.26154 8.66639 7.64007 8.18299C11.1965 3.64045 16.8743 0.462952 22.6815 0.0563189Z" fill="#3E1A51"/>
<path d="M0.438523 22.6094C-0.37482 21.8357 -0.00588116 20.1924 1.14526 19.9825C1.95141 19.835 5.62523 19.8482 6.47331 19.9681C8.03531 20.19 8.10359 22.7198 6.55477 23.0041C5.72825 23.1552 2.19817 23.1384 1.31176 23.0293C1.05063 22.9969 0.627784 22.7906 0.438523 22.6106V22.6094Z" fill="#3E1A51"/>
<path d="M2.73451 16.4778C1.97267 15.7533 2.24219 14.1951 3.29151 13.8928C3.73591 13.7645 6.06095 13.7609 6.55446 13.8508C7.94877 14.1039 8.10688 16.4058 6.70539 16.8316C6.28016 16.9612 3.70956 16.954 3.30109 16.822C3.1837 16.7836 2.82794 16.5665 2.73451 16.4778Z" fill="#3E1A51"/>
<path d="M2.73451 28.7427C1.97267 28.0181 2.24219 26.46 3.29151 26.1577C3.73591 26.0294 6.06095 26.0258 6.55446 26.1157C7.94877 26.3688 8.10688 28.6707 6.70539 29.0965C6.28016 29.2261 3.70956 29.2189 3.30109 29.0869C3.1837 29.0485 2.82794 28.8314 2.73451 28.7427Z" fill="#3E1A51"/>
<path d="M22.9591 6.09464C40.1543 4.56886 46.9078 27.17 32.1358 35.0568C19.8554 41.6133 5.97709 30.2528 10.0678 16.937C11.8082 11.2741 16.9614 6.62602 22.9591 6.09464ZM26.4748 16.1861H30.1474C31.2183 16.1861 31.5764 14.4708 30.1366 14.2681C26.7742 14.484 22.9782 13.943 19.6686 14.2525C18.0383 14.4048 18.0071 16.017 19.6746 16.1849C21.9133 16.4104 24.6001 15.428 25.5117 18.3572H19.1906C19.1619 18.3572 18.6995 18.6079 18.6791 18.6283C18.3378 18.9822 18.5114 20.1661 19.0696 20.1661H25.5105C25.1883 21.398 24.0611 22.3276 22.7998 22.4559C21.4725 22.5903 17.5148 21.7086 18.7055 24.0273L26.0519 30.4135C26.9467 31.0516 27.9853 29.9289 27.2606 29.0832L21.899 24.326C24.5534 24.4207 26.9084 22.8446 27.4522 20.1829C28.5159 19.991 31.8591 20.851 30.9691 18.7483C30.6373 17.965 27.8835 18.6271 27.4295 18.3068C27.3253 18.2337 27.2079 17.5524 27.0965 17.3136C26.9036 16.8998 26.6365 16.5915 26.4736 16.1897L26.4748 16.1861Z" fill="#F7C531"/>
</g>
<defs>
<clipPath id="clip0_5307_588">
<rect width="46" height="43" fill="white"/>
</clipPath>
</defs>
</svg>
