<svg width="49" height="48" viewBox="0 0 49 48" fill="none" xmlns="http://www.w3.org/2000/svg">
<g clip-path="url(#clip0_5307_603)">
<path d="M41.4576 24.3075C39.715 23.7125 37.8641 23.3327 36.0224 23.3073C36.0568 22.2216 35.8838 21.073 34.7894 20.6023C33.5788 20.0809 33.019 20.6117 32.1213 21.307C30.0486 22.9129 27.3977 25.1165 25.5006 26.9122C24.2569 28.0889 23.8992 29.3391 25.0015 30.8153L33.0877 36.8377C34.9795 37.5464 36.2337 35.9672 36.0211 34.1153C37.5076 34.233 39.1671 34.7625 40.3606 35.6757C40.5335 35.8081 41.0246 36.1317 40.956 36.3577C40.9177 36.482 39.8523 37.1078 39.645 37.2361C34.297 40.5348 28.5304 43.8843 23.0437 46.945C22.1882 47.4223 21.1703 48.2594 20.167 47.9224C14.011 44.244 7.58036 40.9199 1.50355 37.0998C0.859296 36.6946 0.252011 36.4178 -0.00146484 35.6209V12.3938C0.258612 11.5768 0.902862 11.292 1.5656 10.8775C7.4457 7.20037 13.6559 4.02471 19.5531 0.370358C20.3967 -0.0414759 20.6977 -0.14176 21.5954 0.236645C23.1123 0.877127 26.0946 2.75578 27.5548 3.70915C27.6709 3.78537 28.137 4.02605 28.0181 4.18784L7.41534 16.2019L7.41006 25.5149C7.48267 25.7035 7.61732 25.8292 7.76783 25.9535C8.52825 26.5873 11.1699 28.0408 12.1429 28.5288C12.5548 28.7347 13.0882 29.1038 13.2928 28.4593L13.3113 19.6196L33.856 7.6443L34.087 7.59215L34.3828 7.70447C36.2429 8.952 38.4225 9.90671 40.2642 11.1556C40.6602 11.4243 41.459 12.002 41.459 12.5489V24.3088L41.4576 24.3075Z" fill="#3E1A51"/>
<path d="M34.4422 24.7088C37.0707 24.7663 39.6965 25.1273 42.1178 26.193C52.035 30.556 50.8653 43.0126 40.989 46.6028C40.6906 46.7111 39.4431 47.1697 39.2371 47.1283C39.2107 47.1229 39.0417 46.9825 39.1355 46.9277C42.8069 45.0263 45.5384 41.0016 43.3535 36.8525C41.7164 33.745 37.7598 32.3598 34.4435 32.5149V35.1677C34.4435 35.3148 33.8006 35.6785 33.6184 35.4044L26.393 30.0105C25.7752 29.5639 25.6881 28.8966 26.191 28.3123L33.559 22.0626C33.7451 21.739 34.4435 22.08 34.4435 22.2578V24.7101L34.4422 24.7088Z" fill="#F7C531"/>
</g>
<defs>
<clipPath id="clip0_5307_603">
<rect width="49" height="48" fill="white"/>
</clipPath>
</defs>
</svg>
