<svg width="54" height="54" viewBox="0 0 54 54" fill="none" xmlns="http://www.w3.org/2000/svg">
<path d="M6.44167 1.634C6.58889 1.63351 6.73611 1.63284 6.88332 1.632C7.28492 1.63025 7.68648 1.63111 8.08808 1.63242C8.52233 1.63338 8.95658 1.6319 9.39082 1.63074C10.2404 1.62887 11.0899 1.62927 11.9394 1.63049C12.6301 1.63145 13.3207 1.63157 14.0114 1.63111C14.1591 1.63102 14.1591 1.63102 14.3097 1.63092C14.5097 1.63078 14.7097 1.63065 14.9098 1.63051C16.7836 1.62931 18.6574 1.63069 20.5312 1.63296C22.1377 1.63484 23.7441 1.63451 25.3506 1.63257C27.2179 1.63031 29.0852 1.62942 30.9525 1.63072C31.1517 1.63085 31.351 1.63098 31.5503 1.63111C31.6483 1.63118 31.7463 1.63125 31.8473 1.63131C32.5368 1.63168 33.2264 1.63106 33.9159 1.63007C34.7567 1.62888 35.5974 1.62921 36.4381 1.63145C36.8668 1.63256 37.2954 1.633 37.7241 1.6316C38.117 1.63034 38.5099 1.63105 38.9029 1.63328C39.1111 1.63397 39.3194 1.6326 39.5277 1.63115C40.7949 1.64223 41.7889 1.96423 42.7144 2.84772C43.9037 4.09354 43.9355 5.41624 43.9225 7.04451C43.9224 7.25458 43.9224 7.46464 43.9227 7.67471C43.9228 8.24208 43.9203 8.80941 43.9174 9.37677C43.9147 9.97077 43.9145 10.5648 43.914 11.1588C43.9127 12.2823 43.9092 13.4059 43.905 14.5294C43.9002 15.809 43.8979 17.0887 43.8958 18.3684C43.8914 20.9995 43.884 23.6306 43.8746 26.2618C43.9714 26.293 44.0683 26.3242 44.168 26.3563C45.7519 26.8997 47.1031 27.9748 48.3043 29.1094C48.3834 29.1818 48.4625 29.2541 48.544 29.3286C50.7 31.3711 52.1766 34.5109 52.3307 37.4852C52.4028 41.6765 51.4887 45.199 48.5152 48.3048C48.4431 48.3835 48.3711 48.4622 48.2969 48.5433C46.6705 50.2627 44.4474 51.3762 42.1871 51.9962C42.0632 52.0319 41.9394 52.0677 41.8118 52.1045C38.4685 52.8991 34.7986 52.2106 31.8511 50.5196C30.9336 49.9395 30.1037 49.2661 29.3199 48.5157C29.2412 48.4436 29.1625 48.3716 29.0814 48.2973C27.8534 47.1358 26.9321 45.6312 26.2613 44.086C26.2613 44.0164 26.2613 43.9468 26.2613 43.8751C26.1526 43.8755 26.0438 43.8758 25.9318 43.8762C23.2839 43.8856 20.636 43.8925 17.9881 43.8969C16.7075 43.8991 15.427 43.9021 14.1465 43.9069C13.0301 43.9111 11.9138 43.9138 10.7974 43.9148C10.2065 43.9153 9.61569 43.9166 9.02482 43.9197C8.4681 43.9225 7.91141 43.9234 7.35468 43.9228C7.15091 43.9229 6.94713 43.9237 6.74337 43.9254C5.21599 43.9369 4.0048 43.82 2.84724 42.7149C1.83908 41.6588 1.62355 40.5443 1.63351 39.1205C1.63302 38.9733 1.63235 38.826 1.63151 38.6788C1.62976 38.2772 1.63062 37.8757 1.63193 37.4741C1.63289 37.0398 1.63141 36.6056 1.63025 36.1713C1.62838 35.3218 1.62878 34.4723 1.63 33.6227C1.63096 32.9321 1.63109 32.2414 1.63063 31.5507C1.63056 31.4523 1.6305 31.3539 1.63043 31.2524C1.6303 31.0524 1.63016 30.8524 1.63002 30.6524C1.62882 28.7786 1.6302 26.9048 1.63247 25.0309C1.63435 23.4245 1.63402 21.818 1.63208 20.2115C1.62982 18.3443 1.62893 16.477 1.63023 14.6097C1.63036 14.4104 1.6305 14.2112 1.63063 14.0119C1.63069 13.9139 1.63076 13.8158 1.63082 13.7148C1.63119 13.0253 1.63057 12.3358 1.62958 11.6462C1.6284 10.8055 1.62872 9.96476 1.63096 9.12401C1.63207 8.69536 1.63251 8.26674 1.63111 7.8381C1.62985 7.44514 1.63056 7.05223 1.63279 6.65927C1.63348 6.45101 1.63211 6.24274 1.63066 6.03448C1.64174 4.76725 1.96374 3.7732 2.84724 2.84772C3.9033 1.83957 5.01781 1.62404 6.44167 1.634ZM18.6675 5.06257C18.6675 7.95136 18.6675 10.8401 18.6675 13.8165C19.9119 13.1963 19.9119 13.1963 21.1131 12.5113C21.2639 12.4201 21.4148 12.3292 21.5659 12.2386C21.6299 12.1996 21.694 12.1607 21.76 12.1206C22.2844 11.8331 22.8349 11.8297 23.4136 11.918C23.9301 12.1282 24.4002 12.4037 24.877 12.6893C25.0043 12.763 25.1318 12.8366 25.2593 12.9099C25.694 13.1608 26.1261 13.4154 26.5514 13.6818C26.7738 13.8338 26.7738 13.8338 26.9996 13.8165C26.9996 10.9277 26.9996 8.0389 26.9996 5.06257C24.25 5.06257 21.5004 5.06257 18.6675 5.06257ZM5.27302 5.37897C5.08011 5.76004 5.03562 6.07255 5.03524 6.49653C5.03463 6.61475 5.03401 6.73297 5.03338 6.85478C5.03378 6.98413 5.03417 7.11348 5.03458 7.24676C5.03418 7.38458 5.03378 7.5224 5.03336 7.6644C5.03228 8.0468 5.03251 8.42918 5.03296 8.81157C5.03322 9.22404 5.03227 9.6365 5.03148 10.049C5.03013 10.8569 5.02995 11.6649 5.03019 12.4729C5.03038 13.1296 5.0302 13.7862 5.02975 14.4429C5.02968 14.5363 5.02962 14.6297 5.02956 14.7259C5.02943 14.9157 5.0293 15.1055 5.02917 15.2952C5.02802 17.0753 5.02825 18.8553 5.0289 20.6353C5.02944 22.2642 5.02825 23.8931 5.02625 25.522C5.02421 27.1941 5.02333 28.8662 5.02373 30.5384C5.02393 31.4773 5.02367 32.4162 5.02218 33.3552C5.02092 34.1544 5.02077 34.9537 5.02205 35.753C5.02267 36.1609 5.02279 36.5687 5.02152 36.9766C5.02017 37.4185 5.02127 37.8605 5.02261 38.3025C5.02183 38.4316 5.02106 38.5607 5.02025 38.6937C5.01255 39.543 5.01255 39.543 5.37849 40.2891C5.79559 40.5457 6.23353 40.5294 6.70999 40.5254C6.79011 40.5256 6.87024 40.5258 6.9528 40.526C7.22081 40.5263 7.4888 40.5252 7.75681 40.524C7.94912 40.524 8.14143 40.524 8.33374 40.5241C8.85559 40.5242 9.37743 40.5229 9.89928 40.5215C10.4447 40.5201 10.9902 40.52 11.5356 40.5198C12.5684 40.5191 13.6012 40.5174 14.634 40.5153C15.8098 40.5129 16.9857 40.5117 18.1615 40.5107C20.5802 40.5085 22.9989 40.5048 25.4175 40.5001C25.4167 40.4039 25.4158 40.3077 25.4148 40.2087C25.4119 39.8464 25.4097 39.4841 25.4081 39.1218C25.4073 38.9661 25.4061 38.8103 25.4046 38.6545C25.3711 35.0744 26.7442 31.9039 29.2144 29.3204C29.2787 29.2494 29.343 29.1784 29.4093 29.1053C30.0368 28.4365 30.7755 27.9288 31.5347 27.4219C31.6333 27.3555 31.7319 27.289 31.8334 27.2205C33.9877 25.8675 36.3792 25.386 38.8825 25.4081C39.04 25.4089 39.1975 25.4097 39.3549 25.4103C39.7365 25.412 40.118 25.4148 40.4996 25.418C40.507 22.885 40.5126 20.3519 40.516 17.8188C40.5176 16.6426 40.5198 15.4665 40.5234 14.2904C40.5266 13.2653 40.5286 12.2402 40.5294 11.2152C40.5298 10.6723 40.5307 10.1295 40.533 9.58672C40.5352 9.0758 40.5358 8.56489 40.5354 8.05397C40.5355 7.86647 40.5361 7.67897 40.5373 7.49148C40.5389 7.23535 40.5385 6.97929 40.5376 6.72316C40.5386 6.64908 40.5395 6.57501 40.5404 6.49868C40.536 6.01502 40.4377 5.68427 40.1832 5.27351C39.7426 4.99426 39.2497 5.0341 38.744 5.03862C38.6534 5.03859 38.5628 5.03856 38.4694 5.03853C38.171 5.03867 37.8725 5.04031 37.5741 5.04197C37.3667 5.04236 37.1594 5.04266 36.9521 5.04287C36.4071 5.04368 35.8621 5.04575 35.3172 5.04808C34.7608 5.05024 34.2044 5.05121 33.648 5.05227C32.5569 5.05453 31.4657 5.05813 30.3746 5.06257C30.3744 5.12612 30.3743 5.18968 30.3741 5.25516C30.3702 6.80272 30.364 8.35025 30.3552 9.89778C30.351 10.6462 30.3476 11.3945 30.346 12.1429C30.3445 12.8651 30.3408 13.5872 30.3357 14.3094C30.3342 14.585 30.3333 14.8606 30.3333 15.1362C30.333 15.522 30.3302 15.9078 30.3267 16.2936C30.3275 16.4647 30.3275 16.4647 30.3283 16.6393C30.3194 17.2775 30.2759 17.6561 29.8472 18.1407C29.3887 18.4837 29.0123 18.556 28.4477 18.5395C27.6391 18.3702 26.9501 17.9012 26.2491 17.4794C25.9228 17.2837 25.5941 17.0926 25.2647 16.9023C23.4894 15.8752 23.4894 15.8752 23.1497 15.6294C22.8929 15.4727 22.8929 15.4727 22.625 15.5705C22.5372 15.6182 22.4494 15.6658 22.359 15.7149C22.2687 15.762 22.1785 15.8091 22.0855 15.8577C21.9892 15.9117 21.8929 15.9657 21.7937 16.0214C21.6856 16.082 21.5774 16.1426 21.466 16.205C21.3517 16.2695 21.2374 16.334 21.1197 16.4005C21.0022 16.4664 20.8846 16.5323 20.7635 16.6002C20.2333 16.8986 19.705 17.1992 19.1834 17.5124C19.1041 17.56 19.0248 17.6076 18.9431 17.6566C18.8003 17.7429 18.6581 17.8301 18.5165 17.9182C17.963 18.2538 17.3574 18.5631 16.6982 18.5622C16.1464 18.4138 15.6993 18.2509 15.3863 17.7375C15.2774 17.4708 15.265 17.2724 15.2632 16.9847C15.262 16.8794 15.2608 16.7741 15.2596 16.6656C15.2594 16.5507 15.2592 16.4359 15.2589 16.3175C15.2579 16.1961 15.2568 16.0746 15.2557 15.9495C15.2524 15.5478 15.2507 15.146 15.2489 14.7443C15.2469 14.4658 15.2448 14.1874 15.2427 13.909C15.2378 13.2509 15.2339 12.5927 15.2304 11.9346C15.2264 11.1852 15.2211 10.4358 15.2158 9.68646C15.2049 8.14517 15.1955 6.60387 15.1871 5.06257C13.9879 5.05523 12.7887 5.04961 11.5895 5.04617C11.0326 5.04452 10.4758 5.04229 9.91895 5.0387C9.38144 5.03526 8.84395 5.03337 8.30643 5.03255C8.10148 5.03196 7.89653 5.03082 7.69159 5.02911C7.40426 5.02681 7.11699 5.0265 6.82966 5.02665C6.74515 5.02551 6.66064 5.02437 6.57357 5.0232C6.06722 5.02599 5.7021 5.08079 5.27302 5.37897ZM32.0621 31.3243C31.97 31.4091 31.878 31.494 31.7832 31.5814C30.136 33.1618 28.9066 35.4267 28.7756 37.7416C28.7266 39.7261 28.7266 39.7261 29.109 41.6602C29.1448 41.7727 29.1807 41.8851 29.2177 42.0009C30.1619 44.6707 32.0728 46.7332 34.5884 48.0032C37.0018 49.1548 39.7938 49.1875 42.2925 48.3048C44.9516 47.2209 47.0411 45.2433 48.1889 42.5987C49.1522 40.0459 49.153 37.1829 48.0307 34.6816C46.7986 32.2003 44.8127 30.2083 42.1755 29.2627C38.6799 28.1134 34.7828 28.7957 32.0621 31.3243Z" fill="#3E1A51"/>
<path d="M38.5093 32.9751C38.9054 33.1749 39.1779 33.4524 39.3748 33.8497C39.5568 34.4159 39.516 34.9338 39.306 35.4837C39.0634 35.8546 38.739 36.1533 38.4248 36.463C38.3707 36.5166 38.3167 36.5702 38.261 36.6255C38.1284 36.7571 37.9954 36.8883 37.8624 37.0196C37.9469 37.0199 38.0314 37.0203 38.1184 37.0207C38.9161 37.0247 39.7136 37.0307 40.5112 37.0389C40.9212 37.0431 41.3312 37.0465 41.7412 37.0481C42.1372 37.0497 42.5331 37.0534 42.929 37.0584C43.0798 37.06 43.2306 37.0608 43.3814 37.0609C43.5932 37.0611 43.805 37.0642 44.0168 37.0674C44.1371 37.0684 44.2575 37.0693 44.3816 37.0703C44.9218 37.1582 45.2482 37.4249 45.5946 37.8369C45.8854 38.397 45.9547 38.8688 45.766 39.4651C45.5728 39.9122 45.3329 40.1252 44.9288 40.3946C44.4885 40.5688 44.1155 40.6331 43.6433 40.6391C43.5166 40.6412 43.39 40.6433 43.2595 40.6455C43.1244 40.6467 42.9892 40.6479 42.85 40.6492C42.709 40.6511 42.568 40.6532 42.427 40.6554C42.0577 40.6607 41.6884 40.6649 41.3191 40.6689C40.9415 40.6731 40.564 40.6785 40.1865 40.6838C39.447 40.694 38.7074 40.7029 37.9679 40.711C38.0568 40.7974 38.1457 40.8839 38.2374 40.973C38.3541 41.0878 38.4708 41.2026 38.5875 41.3174C38.6461 41.3742 38.7047 41.4311 38.7651 41.4896C39.2605 41.9791 39.4749 42.3024 39.484 43.0181C39.4733 43.5673 39.4128 43.8862 39.0226 44.2969C38.5325 44.7625 38.0852 44.7681 37.4406 44.7748C36.6202 44.6295 36.0366 43.8778 35.4717 43.3164C35.375 43.2206 35.2783 43.1249 35.1787 43.0263C34.9749 42.8242 34.7715 42.6217 34.5684 42.4189C34.3094 42.1604 34.0487 41.9037 33.7875 41.6473C33.537 41.4007 33.2883 41.1521 33.0393 40.9038C32.946 40.8126 32.8528 40.7213 32.7567 40.6274C32.2205 40.0873 31.7694 39.6071 31.7363 38.8075C31.8073 37.8059 32.6006 37.1878 33.268 36.5235C33.3647 36.4266 33.4614 36.3297 33.5611 36.2298C33.765 36.0256 33.9693 35.8217 34.1738 35.6182C34.4355 35.3577 34.6963 35.0962 34.9568 34.8344C35.2063 34.584 35.4567 34.3343 35.7069 34.0846C35.8003 33.9907 35.8937 33.8969 35.9899 33.8003C36.0772 33.7136 36.1645 33.627 36.2545 33.5377C36.3309 33.4614 36.4074 33.3851 36.4862 33.3065C37.0593 32.8045 37.7887 32.7547 38.5093 32.9751Z" fill="#3E1A51"/>
<path d="M9.39461 34.0028C9.5064 34.0018 9.5064 34.0018 9.62045 34.0009C9.8241 33.9995 10.0277 33.9999 10.2314 34.001C10.4449 34.0019 10.6585 34.0011 10.872 34.0005C11.2306 33.9998 11.5891 34.0007 11.9477 34.0024C12.3617 34.0044 12.7757 34.0038 13.1897 34.0018C13.5457 34.0001 13.9017 33.9999 14.2578 34.0008C14.4701 34.0014 14.6825 34.0015 14.8949 34.0003C15.1318 33.9994 15.3685 34.0008 15.6054 34.0028C15.6754 34.0021 15.7455 34.0013 15.8176 34.0006C16.2008 34.0066 16.4298 34.0364 16.7207 34.4123C16.9459 34.7585 16.9882 35.0362 17 35.5C16.9882 35.9638 16.9459 36.2415 16.7207 36.5877C16.376 37.0331 16.0517 37.0019 15.6054 36.9972C15.4936 36.9982 15.4936 36.9982 15.3796 36.9991C15.1759 37.0005 14.9723 37.0001 14.7686 36.999C14.5551 36.9981 14.3415 36.9989 14.128 36.9995C13.7694 37.0002 13.4109 36.9993 13.0523 36.9976C12.6383 36.9956 12.2243 36.9962 11.8103 36.9982C11.4543 36.9999 11.0983 37.0001 10.7422 36.9992C10.5299 36.9986 10.3175 36.9985 10.1051 36.9997C9.86824 37.0006 9.63145 36.9992 9.39461 36.9972C9.28955 36.9983 9.28955 36.9983 9.18236 36.9994C8.79918 36.9934 8.57022 36.9636 8.27931 36.5877C8.0541 36.2415 8.01179 35.9638 8 35.5C8.01179 35.0362 8.0541 34.7585 8.27931 34.4123C8.62401 33.9669 8.94829 33.9981 9.39461 34.0028Z" fill="#3E1A51"/>
<path d="M10.916 26.9439C11.0541 26.9435 11.1921 26.9431 11.3344 26.9427C11.6259 26.9421 11.9173 26.943 12.2088 26.945C12.5812 26.9474 12.9535 26.946 13.3259 26.9435C13.6828 26.9416 14.0396 26.9429 14.3965 26.9439C14.5962 26.9426 14.5962 26.9426 14.8 26.9413C15.9448 26.9536 15.9448 26.9536 16.4531 27.4218C16.8358 27.8247 16.9077 28.1478 16.9277 28.6875C16.9077 29.2272 16.8358 29.5503 16.4531 29.9531C15.8462 30.5122 15.1884 30.4361 14.3965 30.431C14.2584 30.4314 14.1204 30.4318 13.9781 30.4322C13.6866 30.4328 13.3952 30.4319 13.1037 30.43C12.7313 30.4276 12.359 30.4289 11.9866 30.4315C11.6297 30.4334 11.2729 30.432 10.916 30.431C10.7828 30.4318 10.6497 30.4327 10.5125 30.4336C9.36771 30.4214 9.36771 30.4214 8.85938 29.9531C8.4767 29.5503 8.4048 29.2272 8.38477 28.6875C8.4048 28.1478 8.4767 27.8247 8.85938 27.4218C9.4663 26.8627 10.1241 26.9389 10.916 26.9439Z" fill="#3E1A51"/>
</svg>
