<svg width="54" height="54" viewBox="0 0 54 54" fill="none" xmlns="http://www.w3.org/2000/svg">
<g clip-path="url(#clip0_3714_2194)">
<path d="M28.6203 0.239661C29.2965 0.683742 29.8859 1.24628 30.4796 1.79285C34.3034 5.29079 39.1802 6.68922 44.227 7.19663C46.114 7.38769 47.5798 8.06289 48.8304 9.51514C49.8048 10.8649 50.0076 12.3699 50.0067 13.9845C50.0072 14.1273 50.0072 14.1273 50.0078 14.273C50.0088 14.5852 50.009 14.8974 50.0091 15.2096C50.0094 15.4304 50.0098 15.6512 50.0101 15.872C50.0108 16.3349 50.011 16.7979 50.0109 17.2608C50.0109 17.7296 50.0116 18.1984 50.0131 18.6672C50.0285 23.7435 50.0285 23.7435 49.7804 26.1561C49.7681 26.2811 49.7681 26.2811 49.7555 26.4086C49.7086 26.875 49.6522 27.3395 49.5893 27.8041C49.5712 27.9392 49.5532 28.0744 49.5346 28.2137C48.7626 33.8151 46.999 39.1926 43.4523 43.6639C43.3711 43.7675 43.29 43.8711 43.2063 43.9779C41.8894 45.6247 40.3932 47.1413 38.7062 48.41C38.6438 48.4578 38.5815 48.5056 38.5172 48.5547C36.7384 49.911 34.8073 51.0498 32.7863 52.0071C32.5855 52.1031 32.3866 52.2025 32.1877 52.3025C27.7064 54.5266 27.7064 54.5266 25.4048 53.8091C21.7323 52.562 18.2442 50.6878 15.1867 48.3046C15.0941 48.2325 15.0015 48.1605 14.9061 48.0862C8.60532 43.0567 5.46925 35.802 4.41568 27.9425C4.39893 27.8199 4.38218 27.6973 4.36493 27.571C4.3093 27.135 4.26175 26.6989 4.21792 26.2616C4.20847 26.17 4.19901 26.0783 4.18926 25.9839C3.95182 23.5779 3.97447 21.1659 3.97949 18.7508C3.9807 18.1618 3.97999 17.5728 3.97873 16.9837C3.97797 16.5239 3.97821 16.064 3.97876 15.6042C3.9789 15.387 3.97873 15.1698 3.97823 14.9526C3.97139 11.1254 3.97139 11.1254 5.16714 9.59754C5.22955 9.5176 5.29195 9.43766 5.35624 9.35529C6.49259 7.98919 7.93598 7.36834 9.68458 7.18536C9.92991 7.16451 10.1753 7.14462 10.4208 7.12562C14.7619 6.72827 18.8683 5.40149 22.3585 2.74207C22.4513 2.67178 22.544 2.60149 22.6395 2.52907C23.1363 2.14192 23.5998 1.72825 24.0592 1.29847C25.2934 0.148364 26.9671 -0.538028 28.6203 0.239661ZM26.6219 3.38488C26.5686 3.43868 26.5152 3.49248 26.4603 3.54792C26.399 3.60805 26.3377 3.66817 26.2745 3.73012C26.1764 3.82837 26.1764 3.82837 26.0763 3.9286C22.2002 7.66925 16.8673 9.81596 11.5431 10.3078C11.3391 10.3267 11.3391 10.3267 11.1311 10.346C10.8667 10.3694 10.6021 10.3906 10.3374 10.4094C9.42537 10.4869 8.54858 10.6696 7.91592 11.3839C7.33132 12.252 7.26064 13.0269 7.2612 14.0461C7.26084 14.1404 7.26049 14.2347 7.26012 14.3318C7.25912 14.6428 7.25891 14.9538 7.2588 15.2648C7.25846 15.484 7.25811 15.7031 7.25774 15.9222C7.25711 16.3825 7.25691 16.8428 7.25697 17.3031C7.25698 17.7697 7.25626 18.2363 7.25481 18.7029C7.23702 22.3822 7.23702 22.3822 7.48745 26.0507C7.49544 26.1302 7.50342 26.2098 7.51165 26.2917C7.5567 26.7378 7.61078 27.182 7.67202 27.6261C7.69879 27.8213 7.69879 27.8213 7.7261 28.0205C8.58641 34.0213 10.9212 40.4178 15.7115 44.4319C15.8595 44.5576 16.0038 44.6876 16.145 44.8208C17.5846 46.1769 19.2733 47.2279 20.9875 48.1991C21.0691 48.2454 21.1508 48.2918 21.2349 48.3395C22.5202 49.0607 23.8544 49.6524 25.2256 50.1914C25.4258 50.2703 25.6249 50.352 25.8229 50.4363C26.9816 50.9065 27.7503 50.6225 28.8712 50.1569C28.9868 50.1095 29.1023 50.0622 29.2214 50.0134C32.2034 48.7773 34.9799 47.2443 37.4406 45.1405C37.522 45.0709 37.6035 45.0013 37.6874 44.9296C43.7608 39.5939 46.1504 32.1141 46.6706 24.2128C46.7387 23.0923 46.7391 21.9724 46.7395 20.8502C46.7399 20.6282 46.7402 20.4063 46.7406 20.1844C46.7412 19.7229 46.7414 19.2613 46.7414 18.7998C46.7414 18.2106 46.7428 17.6214 46.7446 17.0321C46.7458 16.5753 46.746 16.1185 46.7459 15.6616C46.7461 15.4443 46.7465 15.2271 46.7474 15.0098C46.7484 14.7061 46.7481 14.4024 46.7474 14.0987C46.748 14.0107 46.7486 13.9226 46.7492 13.8319C46.7439 12.8077 46.6252 11.9284 45.8781 11.1796C45.0362 10.4411 43.8831 10.4462 42.8165 10.3372C38.219 9.86395 33.7978 8.46849 30.0578 5.6952C29.9938 5.64775 29.9298 5.6003 29.8638 5.55141C29.0838 4.9671 28.351 4.34813 27.6595 3.66042C27.2002 3.21322 27.2002 3.21322 26.6219 3.38488Z" fill="#3E1A51"/>
<path d="M35.9786 16.8486C38.5458 19.0625 40.202 22.36 40.5005 25.7344C40.7338 29.6778 39.5764 33.1665 36.9904 36.1653C34.7332 38.6972 31.3495 40.3176 27.9658 40.5178C23.9591 40.6738 20.4292 39.3888 17.471 36.6596C14.9688 34.2471 13.5404 30.7796 13.4633 27.3267C13.4367 23.496 14.8438 20.0606 17.5084 17.2969C22.6287 12.3016 30.5976 12.3545 35.9786 16.8486ZM19.8287 19.7227C19.7574 19.786 19.6862 19.8494 19.6128 19.9146C17.9368 21.4633 16.8874 23.9143 16.7567 26.1763C16.6648 28.9839 17.427 31.4469 19.1959 33.6445C19.2785 33.7555 19.3612 33.8664 19.4463 33.9807C21.1584 35.815 23.6574 37.0985 26.1768 37.2438C29.1275 37.3407 31.7816 36.4979 33.9916 34.4949C35.6779 32.9138 36.7172 30.965 37.1255 28.6875C37.1543 28.5419 37.1543 28.5419 37.1836 28.3933C37.5348 25.8831 36.9148 23.2372 35.4488 21.1683C35.0829 20.697 34.6899 20.2592 34.2779 19.8281C34.1829 19.7213 34.1829 19.7213 34.0859 19.6122C32.4326 17.823 29.9245 16.8788 27.5299 16.7296C24.5664 16.6211 21.9616 17.684 19.8287 19.7227Z" fill="#3E1A51"/>
<path d="M32.9529 22.5176C33.3548 22.9097 33.6222 23.2957 33.6619 23.8685C33.5981 24.7909 33.0155 25.3405 32.3891 25.9629C32.3167 26.0357 32.2442 26.1085 32.1696 26.1835C31.9314 26.4227 31.6923 26.6611 31.4532 26.8995C31.2869 27.0659 31.1207 27.2324 30.9544 27.3989C30.6065 27.7471 30.2582 28.095 29.9097 28.4425C29.4628 28.8882 29.0169 29.3348 28.5712 29.7817C28.2283 30.1254 27.885 30.4685 27.5414 30.8115C27.3767 30.9761 27.2122 31.1407 27.0479 31.3056C26.8184 31.5356 26.5883 31.7649 26.358 31.994C26.2562 32.0964 26.2562 32.0964 26.1524 32.2009C26.0894 32.2633 26.0265 32.3257 25.9616 32.3899C25.9073 32.4441 25.853 32.4983 25.7971 32.5542C25.4307 32.8625 25.1142 32.9392 24.6406 32.9458C24.5441 32.9488 24.4476 32.9518 24.3481 32.9549C23.6589 32.8435 23.1655 32.2677 22.6911 31.7927C22.5914 31.6936 22.5914 31.6936 22.4896 31.5925C22.35 31.4535 22.2107 31.3143 22.0716 31.1748C21.859 30.9618 21.645 30.7502 21.4308 30.5388C21.2949 30.4031 21.1591 30.2674 21.0234 30.1315C20.9595 30.0687 20.8957 30.0058 20.83 29.941C20.3987 29.505 20.1761 29.1729 20.1055 28.5491C20.1611 28.0018 20.3152 27.5547 20.7222 27.1693C21.1564 26.8788 21.5803 26.8452 22.0933 26.8385C22.821 26.9915 23.325 27.623 23.8232 28.1338C23.8958 28.2073 23.9684 28.2809 24.0432 28.3567C24.2209 28.5368 24.3979 28.7175 24.5747 28.8984C25.2363 28.3577 25.8326 27.7569 26.4329 27.1504C26.6193 26.9622 26.8061 26.7743 26.993 26.5866C27.5238 26.0532 28.054 25.5192 28.5837 24.9848C28.909 24.6567 29.2347 24.3292 29.5608 24.0019C29.6846 23.8775 29.8081 23.7529 29.9315 23.628C30.1036 23.4539 30.2764 23.2804 30.4493 23.107C30.5473 23.0082 30.6453 22.9094 30.7463 22.8076C31.3812 22.2325 32.1724 22.177 32.9529 22.5176Z" fill="#3E1A51"/>
</g>
<defs>
<clipPath id="clip0_3714_2194">
<rect width="54" height="54" fill="white"/>
</clipPath>
</defs>
</svg>
