<svg width="50" height="50" viewBox="0 0 50 50" fill="none" xmlns="http://www.w3.org/2000/svg">
<g clip-path="url(#clip0_5307_611)">
<path d="M49.9998 29.2005V38.0869C49.7741 39.2493 49.5106 40.3816 49.0396 41.4722C47.3659 45.3532 43.7993 48.1149 40.1362 49.9999H39.0626C33.9502 47.4469 29.4626 43.2059 29.1038 37.1581C28.9812 35.1022 28.9186 31.7509 29.0986 29.734C29.173 28.9083 29.5187 28.4752 30.2492 28.1503C32.9887 26.9319 36.2748 26.2497 39.0587 25.0469L40.2171 25.0691C42.8901 26.3344 46.4971 26.9163 49.0736 28.2234C49.5823 28.4817 49.7467 28.6917 49.9998 29.2005ZM43.7237 33.0319C43.5306 33.0723 43.3167 33.225 43.1614 33.3489L38.8969 37.783L38.6178 37.7034C37.9185 36.9964 37.0445 35.3305 35.9852 35.2522C34.7668 35.1635 33.9958 36.3389 34.4837 37.4425C34.592 37.6878 34.8842 38.0022 35.0629 38.2304C35.5325 38.8331 37.5976 41.3039 38.1168 41.5231C38.2681 41.587 38.5786 41.6875 38.7326 41.6914C39.5648 41.7109 41.0024 40.019 41.6051 39.4071C42.9423 38.0491 44.2311 36.622 45.5278 35.2248C46.081 33.9229 45.1482 32.7371 43.7237 33.0306V33.0319Z" fill="#F7C531"/>
<path d="M43.7516 21.9748C42.1627 21.5247 40.733 20.6859 39.0123 20.8973C35.6962 21.9761 31.913 22.9936 28.7156 24.3686C26.3766 25.3744 25.1621 27.189 24.999 29.7341C24.8112 32.6759 24.8086 37.5796 25.4791 40.3948C25.7556 41.5558 26.224 42.649 26.6636 43.7513H2.88464C1.77318 43.7513 0.0107642 41.8389 0.00293703 40.6765L-0.000976562 3.17522C0.220793 1.52499 1.5175 0.22177 3.17425 0L40.6756 0.00391359C41.8392 0.0104362 43.7503 1.77286 43.7503 2.88562V21.9761L43.7516 21.9748ZM31.2516 3.12826H12.5029V17.2381C12.5029 17.709 12.9269 18.3273 13.3496 18.54C14.0723 18.9039 14.6463 18.6822 15.2385 18.2164C16.9892 16.8376 18.8208 14.779 20.5088 13.2345C20.6876 13.0714 21.8212 12.0069 21.9125 12.0225L28.516 18.2178C29.244 18.9496 30.5694 18.8792 31.0416 17.9086C31.0912 17.8068 31.2516 17.3098 31.2516 17.2407V3.12826Z" fill="#3E1A51"/>
</g>
<defs>
<clipPath id="clip0_5307_611">
<rect width="50" height="50" fill="white"/>
</clipPath>
</defs>
</svg>
