<svg width="41" height="49" viewBox="0 0 41 49" fill="none" xmlns="http://www.w3.org/2000/svg">
<g clip-path="url(#clip0_5307_584)">
<path d="M21.9872 0.049356C27.732 0.497809 32.7166 3.90012 33.362 10.134C33.3979 10.4848 33.3322 11.7586 33.4684 11.9834C33.4852 12.0106 33.9119 12.1279 34.0398 12.2058C36.2631 13.5338 36.1161 16.5865 35.9511 18.9264C35.7611 21.627 34.0159 23.0774 31.4196 22.8945C31.367 18.6126 31.5344 14.3121 31.3264 10.0389C30.0342 -0.977268 9.76015 -0.478164 9.59519 10.9951V22.8945C6.93198 23.0724 5.22983 21.5862 5.05889 18.8362C4.96446 17.3167 4.90589 14.6741 5.72708 13.4004C6.20163 12.6653 6.89851 12.2404 7.64082 11.8413C7.34318 5.71617 11.1862 1.75545 16.7146 0.478043C17.4402 0.310027 18.2913 0.108656 19.0276 0.049356C19.8476 -0.0173561 21.166 -0.0148852 21.9872 0.049356Z" fill="#F7C531"/>
<path d="M25.7796 29.0099L33.9462 33.2362C37.4557 35.5094 40.1547 39.1316 40.8277 43.4259C41.0273 44.6984 41.2879 45.6681 40.1069 46.4489C38.7944 47.3174 35.1427 47.7683 33.486 48.0179C24.093 49.4312 14.4861 49.3385 5.13738 47.6213C3.75557 47.3668 0.106213 46.9863 0.00819569 45.1036C-0.140026 42.2658 1.7486 38.3681 3.53443 36.2753C6.62677 32.6531 11.2671 31.3053 15.2296 29.0037C15.3264 28.8592 14.5985 28.0339 14.4741 27.84C13.8107 26.8047 13.2453 25.6916 12.8306 24.5204C13.5669 24.87 14.2399 25.3506 14.9869 25.6842C15.5918 25.9535 16.7728 26.1981 17.2055 26.4501C17.3932 26.5601 17.5007 26.8949 17.735 27.0493C18.2478 27.3878 21.0413 27.3693 21.7442 27.2816C23.4929 27.0629 23.3866 24.8565 21.8506 24.7082C21.0306 24.6291 19.0332 24.6069 18.2383 24.7094C17.9322 24.749 17.784 24.938 17.5701 24.9812C16.8947 25.1184 14.5853 23.9423 13.9482 23.5086C13.4904 23.1973 12.1098 22.0496 11.9293 21.5802C11.4942 20.4461 11.2957 17.4477 11.2539 16.1604C11.1105 11.7167 11.5647 7.58545 15.9121 5.57791C21.0628 3.19852 28.499 5.06893 29.5461 11.498C30.2908 16.0715 29.4326 22.5018 27.2738 26.5922C26.8279 27.4372 26.235 28.176 25.7784 29.0111L25.7796 29.0099Z" fill="#3E1A51"/>
</g>
<defs>
<clipPath id="clip0_5307_584">
<rect width="41" height="49" fill="white"/>
</clipPath>
</defs>
</svg>
