<svg width="81" height="81" viewBox="0 0 81 81" fill="none" xmlns="http://www.w3.org/2000/svg">
<g filter="url(#filter0_b_3107_3)">
<rect width="79.8873" height="79.8873" rx="16" transform="matrix(-1 0 0 1 80.7837 0.30127)" fill="url(#paint0_linear_3107_3)" fill-opacity="0.1"/>
<rect x="-0.5" y="0.5" width="78.8873" height="78.8873" rx="15.5" transform="matrix(-1 0 0 1 79.7837 0.30127)" stroke="white" stroke-opacity="0.4"/>
</g>
<mask id="mask0_3107_3" style="mask-type:alpha" maskUnits="userSpaceOnUse" x="21" y="21" width="41" height="41">
<rect x="21.1445" y="21.0352" width="40" height="40" fill="#D9D9D9"/>
</mask>
<g mask="url(#mask0_3107_3)">
<path d="M56.1584 39.4239V53.2572C56.1584 54.0072 55.883 54.6578 55.3322 55.2089C54.7814 55.7597 54.1309 56.0352 53.3809 56.0352H28.9084C28.1584 56.0352 27.508 55.7597 26.9572 55.2089C26.4064 54.6578 26.1309 54.0072 26.1309 53.2572V39.4239C25.3993 38.785 24.8923 37.9888 24.6101 37.0352C24.3276 36.0815 24.3437 35.1 24.6584 34.0906L26.4364 28.4518C26.6586 27.711 27.0498 27.1231 27.6101 26.6881C28.1701 26.2528 28.8159 26.0352 29.5476 26.0352H52.6309C53.3993 26.0352 54.0705 26.255 54.6447 26.6947C55.2189 27.1347 55.6216 27.7204 55.853 28.4518L57.6584 34.0906C57.9734 35.1 57.9851 36.077 57.6934 37.0214C57.4018 37.9659 56.8901 38.7667 56.1584 39.4239ZM44.8809 37.9797C45.6679 37.9797 46.3114 37.7181 46.8114 37.1947C47.3114 36.6717 47.5104 36.0536 47.4084 35.3406L46.4084 28.8131H42.5476V35.4518C42.5476 36.1277 42.7698 36.7179 43.2143 37.2227C43.6587 37.7274 44.2143 37.9797 44.8809 37.9797ZM37.1864 37.9797C37.9178 37.9797 38.5312 37.732 39.0268 37.2364C39.5221 36.7411 39.7697 36.1463 39.7697 35.4518V28.8131H35.9084L34.9084 35.3406C34.7973 36.0445 34.9757 36.6603 35.4434 37.1881C35.9109 37.7158 36.4919 37.9797 37.1864 37.9797ZM29.6584 37.9797C30.2696 37.9797 30.7997 37.7667 31.2489 37.3406C31.698 36.9147 31.9643 36.387 32.0476 35.7572L33.0751 28.8131H29.2143L27.3809 34.7297C27.1401 35.4889 27.2443 36.2203 27.6934 36.9239C28.1423 37.6278 28.7973 37.9797 29.6584 37.9797ZM52.6309 37.9797C53.4921 37.9797 54.154 37.6325 54.6168 36.9381C55.0798 36.2436 55.1864 35.5075 54.9364 34.7297L53.0751 28.8131H49.2418L50.2697 35.7572C50.353 36.387 50.6193 36.9147 51.0684 37.3406C51.5173 37.7667 52.0382 37.9797 52.6309 37.9797ZM28.9084 53.2572H53.3809V40.7018C53.3532 40.7388 53.2629 40.7572 53.1101 40.7572H52.6309C51.9179 40.7572 51.2582 40.6184 50.6518 40.3406C50.0451 40.0628 49.4455 39.6277 48.853 39.0352C48.39 39.5721 47.8298 39.9934 47.1726 40.2989C46.5151 40.6045 45.7975 40.7572 45.0197 40.7572C44.2141 40.7572 43.5034 40.6322 42.8876 40.3822C42.2721 40.1322 41.6957 39.7388 41.1584 39.2018C40.7234 39.7018 40.1887 40.0861 39.5543 40.3547C38.9201 40.6231 38.2141 40.7572 37.4364 40.7572C36.5939 40.7572 35.8415 40.6092 35.1793 40.3131C34.5173 40.0167 33.9457 39.5907 33.4643 39.0352C32.8254 39.6185 32.198 40.0514 31.5822 40.3339C30.9664 40.6161 30.3251 40.7572 29.6584 40.7572H29.2209C29.0776 40.7572 28.9734 40.7388 28.9084 40.7018V53.2572Z" fill="white"/>
</g>
<defs>
<filter id="filter0_b_3107_3" x="-6.10352" y="-6.69873" width="93.8872" height="93.8873" filterUnits="userSpaceOnUse" color-interpolation-filters="sRGB">
<feFlood flood-opacity="0" result="BackgroundImageFix"/>
<feGaussianBlur in="BackgroundImageFix" stdDeviation="3.5"/>
<feComposite in2="SourceAlpha" operator="in" result="effect1_backgroundBlur_3107_3"/>
<feBlend mode="normal" in="SourceGraphic" in2="effect1_backgroundBlur_3107_3" result="shape"/>
</filter>
<linearGradient id="paint0_linear_3107_3" x1="39.9437" y1="-55.7213" x2="39.9437" y2="115.058" gradientUnits="userSpaceOnUse">
<stop stop-color="white"/>
<stop offset="1" stop-color="white" stop-opacity="0"/>
</linearGradient>
</defs>
</svg>
