<svg width="44" height="44" viewBox="0 0 44 44" fill="none" xmlns="http://www.w3.org/2000/svg">
<rect width="44" height="44" rx="4" fill="white"/>
<path d="M20.5 29H9C8.45 29 8 28.55 8 28V11C8 10.45 8.45 10 9 10H33.5C34.05 10 34.5 10.45 34.5 11V22.5C34.5 22.775 34.725 23 35 23C35.275 23 35.5 22.775 35.5 22.5V11C35.5 9.895 34.605 9 33.5 9H9C7.895 9 7 9.895 7 11V28C7 29.105 7.895 30 9 30H20.5C20.775 30 21 29.775 21 29.5C21 29.225 20.775 29 20.5 29Z" fill="#3E1A51"/>
<path d="M30 22V26.025C31.575 26.245 32.815 27.52 32.985 29.12H37C36.815 25.315 33.79 22.245 30 22Z" fill="#F7C531"/>
<path d="M32.2433 31.6701L35.0783 34.5101C35.6583 33.8701 36.1133 33.1451 36.4383 32.3651C36.7283 31.6551 36.9133 30.9001 36.9783 30.1201H32.9433C32.8383 30.6851 32.5983 31.2151 32.2383 31.6651L32.2433 31.6701Z" fill="#F7C531"/>
<path d="M29.505 32.995C27.575 32.995 26.005 31.425 26.005 29.49C26.005 27.73 27.31 26.265 29 26.025V22C25.095 22.26 22 25.52 22 29.49C22 33.46 25.365 37 29.505 37C31.305 37 33.005 36.37 34.37 35.205L31.525 32.355C30.94 32.77 30.24 32.995 29.51 32.995H29.505Z" fill="#F7C531"/>
<path d="M22.5 17C22.5 16.735 22.425 16.485 22.3 16.27L23.945 14.39C24.115 14.46 24.3 14.5 24.495 14.5C24.69 14.5 24.875 14.46 25.045 14.39L26.69 16.27C26.57 16.485 26.49 16.735 26.49 17C26.49 17.825 27.165 18.5 27.99 18.5C28.815 18.5 29.49 17.825 29.49 17C29.49 16.735 29.415 16.485 29.29 16.27L30.935 14.39C31.105 14.46 31.29 14.5 31.485 14.5C32.31 14.5 32.985 13.825 32.985 13C32.985 12.175 32.31 11.5 31.485 11.5C30.66 11.5 29.985 12.175 29.985 13C29.985 13.265 30.06 13.515 30.185 13.73L28.54 15.61C28.37 15.54 28.185 15.5 27.99 15.5C27.795 15.5 27.61 15.54 27.44 15.61L25.795 13.73C25.915 13.515 25.995 13.265 25.995 13C25.995 12.175 25.32 11.5 24.495 11.5C23.67 11.5 22.995 12.175 22.995 13C22.995 13.265 23.07 13.515 23.195 13.73L21.55 15.61C21.38 15.54 21.195 15.5 21 15.5C20.175 15.5 19.5 16.175 19.5 17C19.5 17.825 20.175 18.5 21 18.5C21.825 18.5 22.5 17.825 22.5 17Z" fill="#3E1A51"/>
<path d="M12 21H10C9.72386 21 9.5 21.2239 9.5 21.5V27C9.5 27.2761 9.72386 27.5 10 27.5H12C12.2761 27.5 12.5 27.2761 12.5 27V21.5C12.5 21.2239 12.2761 21 12 21Z" fill="#3E1A51"/>
<path d="M16 19H14C13.7239 19 13.5 19.2239 13.5 19.5V27C13.5 27.2761 13.7239 27.5 14 27.5H16C16.2761 27.5 16.5 27.2761 16.5 27V19.5C16.5 19.2239 16.2761 19 16 19Z" fill="#3E1A51"/>
<path d="M20 22.5H18C17.7239 22.5 17.5 22.7239 17.5 23V27C17.5 27.2761 17.7239 27.5 18 27.5H20C20.2761 27.5 20.5 27.2761 20.5 27V23C20.5 22.7239 20.2761 22.5 20 22.5Z" fill="#3E1A51"/>
<path d="M10 12.5H11C11.275 12.5 11.5 12.275 11.5 12C11.5 11.725 11.275 11.5 11 11.5H10C9.725 11.5 9.5 11.725 9.5 12C9.5 12.275 9.725 12.5 10 12.5Z" fill="#3E1A51"/>
<path d="M13 12.5H17C17.275 12.5 17.5 12.275 17.5 12C17.5 11.725 17.275 11.5 17 11.5H13C12.725 11.5 12.5 11.725 12.5 12C12.5 12.275 12.725 12.5 13 12.5Z" fill="#3E1A51"/>
<path d="M10 15H11C11.275 15 11.5 14.775 11.5 14.5C11.5 14.225 11.275 14 11 14H10C9.725 14 9.5 14.225 9.5 14.5C9.5 14.775 9.725 15 10 15Z" fill="#3E1A51"/>
<path d="M13 15H17C17.275 15 17.5 14.775 17.5 14.5C17.5 14.225 17.275 14 17 14H13C12.725 14 12.5 14.225 12.5 14.5C12.5 14.775 12.725 15 13 15Z" fill="#3E1A51"/>
<path d="M10 17.5H11C11.275 17.5 11.5 17.275 11.5 17C11.5 16.725 11.275 16.5 11 16.5H10C9.725 16.5 9.5 16.725 9.5 17C9.5 17.275 9.725 17.5 10 17.5Z" fill="#3E1A51"/>
<path d="M17.5 17C17.5 16.725 17.275 16.5 17 16.5H13C12.725 16.5 12.5 16.725 12.5 17C12.5 17.275 12.725 17.5 13 17.5H17C17.275 17.5 17.5 17.275 17.5 17Z" fill="#3E1A51"/>
</svg>
