<svg width="17" height="17" viewBox="0 0 17 17" fill="none" xmlns="http://www.w3.org/2000/svg">
<mask id="mask0_3246_9375" style="mask-type:alpha" maskUnits="userSpaceOnUse" x="0" y="0" width="17" height="17">
<rect x="0.164551" y="0.880737" width="16" height="16" fill="#D9D9D9"/>
</mask>
<g mask="url(#mask0_3246_9375)">
<path d="M7.14775 15.5474C6.83664 15.5474 6.54498 15.4807 6.27275 15.3474C6.00053 15.2141 5.76998 15.0252 5.58109 14.7807L1.94775 10.1641L2.26442 9.83074C2.48664 9.59741 2.75331 9.45852 3.06442 9.41408C3.37553 9.36963 3.66442 9.43074 3.93109 9.59741L5.16442 10.3474V4.88074C5.16442 4.69185 5.22831 4.53352 5.35609 4.40574C5.48386 4.27796 5.6422 4.21408 5.83109 4.21408C6.01998 4.21408 6.18109 4.27796 6.31442 4.40574C6.44775 4.53352 6.51442 4.69185 6.51442 4.88074V8.21408H11.4978C12.0533 8.21408 12.5255 8.40852 12.9144 8.79741C13.3033 9.1863 13.4978 9.65852 13.4978 10.2141V12.8807C13.4978 13.6141 13.2366 14.2419 12.7144 14.7641C12.1922 15.2863 11.5644 15.5474 10.8311 15.5474H7.14775ZM2.94775 6.54741C2.80331 6.30296 2.6922 6.03908 2.61442 5.75574C2.53664 5.47241 2.49775 5.18074 2.49775 4.88074C2.49775 3.95852 2.82275 3.17241 3.47275 2.52241C4.12275 1.87241 4.90887 1.54741 5.83109 1.54741C6.75331 1.54741 7.53942 1.87241 8.18942 2.52241C8.83942 3.17241 9.16442 3.95852 9.16442 4.88074C9.16442 5.18074 9.12553 5.47241 9.04775 5.75574C8.96998 6.03908 8.85886 6.30296 8.71442 6.54741L7.56442 5.88074C7.65331 5.72519 7.71998 5.56685 7.76442 5.40574C7.80886 5.24463 7.83109 5.06963 7.83109 4.88074C7.83109 4.32519 7.63664 3.85296 7.24775 3.46408C6.85886 3.07519 6.38664 2.88074 5.83109 2.88074C5.27553 2.88074 4.80331 3.07519 4.41442 3.46408C4.02553 3.85296 3.83109 4.32519 3.83109 4.88074C3.83109 5.06963 3.85331 5.24463 3.89775 5.40574C3.9422 5.56685 4.00886 5.72519 4.09775 5.88074L2.94775 6.54741Z" fill="white"/>
</g>
</svg>
