<svg width="44" height="44" viewBox="0 0 44 44" fill="none" xmlns="http://www.w3.org/2000/svg">
<rect width="44" height="44" rx="4" fill="white"/>
<path d="M35.415 8.86768H8.80469C7.41281 8.86768 6.28125 9.99924 6.28125 11.3911V32.6092C6.28125 34.0011 7.41281 35.1327 8.80469 35.1327H35.415C36.8069 35.1327 37.9384 34.0011 37.9384 32.6092V11.3911C37.9384 9.99924 36.8069 8.86768 35.415 8.86768ZM23.4088 11.1255H34.7191C35.0112 11.1255 35.2503 11.3646 35.2503 11.6567C35.2503 11.9542 35.0112 12.188 34.7191 12.188H23.4088C23.1113 12.188 22.8775 11.9542 22.8775 11.6567C22.8775 11.3646 23.1113 11.1255 23.4088 11.1255ZM14.5953 11.1255H15.0097C15.3019 11.1255 15.5409 11.3646 15.5409 11.6567C15.5409 11.9542 15.3019 12.188 15.0097 12.188H14.5953C14.3031 12.188 14.0641 11.9542 14.0641 11.6567C14.0641 11.3646 14.3031 11.1255 14.5953 11.1255ZM12.1834 11.1255H12.5925C12.8847 11.1255 13.1238 11.3646 13.1238 11.6567C13.1238 11.9542 12.8847 12.188 12.5925 12.188H12.1834C11.8859 12.188 11.6522 11.9542 11.6522 11.6567C11.6522 11.3646 11.8859 11.1255 12.1834 11.1255ZM9.76625 11.1255H10.1753C10.4675 11.1255 10.7066 11.3646 10.7066 11.6567C10.7066 11.9542 10.4675 12.188 10.1753 12.188H9.76625C9.47406 12.188 9.235 11.9542 9.235 11.6567C9.235 11.3646 9.47406 11.1255 9.76625 11.1255ZM36.8759 32.6092C36.8759 33.4167 36.2225 34.0702 35.415 34.0702H8.80469C8.0025 34.0702 7.34375 33.4167 7.34375 32.6092V14.4511H36.8759V32.6092Z" fill="#3E1A51"/>
<path d="M20.1447 28.9436H14.03C13.8016 28.1308 13.0631 27.5358 12.1813 27.5358C11.1134 27.5358 10.2422 28.407 10.2422 29.4748C10.2422 30.5427 11.1134 31.4086 12.1813 31.4086C13.0631 31.4086 13.8016 30.8136 14.03 30.0061H20.1447C20.3784 30.8136 21.1169 31.4086 21.9987 31.4086C22.8806 31.4086 23.6191 30.8136 23.8528 30.0061H29.9675C30.1959 30.8136 30.9344 31.4086 31.8162 31.4086C32.8841 31.4086 33.7553 30.5427 33.7553 29.4748C33.7553 28.407 32.8841 27.5358 31.8162 27.5358C30.9344 27.5358 30.1959 28.1308 29.9675 28.9436H23.8528C23.6828 28.3592 23.2525 27.8864 22.6947 27.6686C23.6669 26.4839 26.4878 22.8661 26.4878 20.8367C26.4878 18.3611 24.4744 16.3477 21.9987 16.3477C19.5231 16.3477 17.5097 18.3611 17.5097 20.8367C17.5097 22.8661 20.3306 26.4839 21.3028 27.6686C20.745 27.8864 20.3147 28.3592 20.1447 28.9436ZM13.0525 29.4748C13.0525 29.9583 12.6594 30.3461 12.1813 30.3461C11.6978 30.3461 11.3047 29.9583 11.3047 29.4748C11.3047 28.9914 11.6978 28.5983 12.1813 28.5983C12.6594 28.5983 13.0525 28.9914 13.0525 29.4695V29.4748ZM30.945 29.4695C30.945 28.9914 31.3381 28.5983 31.8162 28.5983C32.2997 28.5983 32.6928 28.9914 32.6928 29.4748C32.6928 29.9583 32.2997 30.3461 31.8162 30.3461C31.3381 30.3461 30.945 29.9583 30.945 29.4748V29.4695ZM22.8753 29.4748C22.8753 29.9583 22.4822 30.3461 21.9987 30.3461C21.5153 30.3461 21.1222 29.9583 21.1222 29.4748C21.1222 28.9914 21.5153 28.5983 21.9987 28.5983C22.4822 28.5983 22.8753 28.9914 22.8753 29.4748ZM19.6187 20.8367C19.6187 19.5245 20.6866 18.4567 21.9987 18.4567C23.3109 18.4567 24.3787 19.5245 24.3787 20.8367C24.3787 22.1489 23.3109 23.2167 21.9987 23.2167C20.6866 23.2167 19.6187 22.1489 19.6187 20.8367Z" fill="#F7C531"/>
<path d="M29.5078 17.064H29.7649C30.0582 17.064 30.2962 16.826 30.2962 16.5327C30.2962 16.2395 30.0582 16.0015 29.7649 16.0015H29.5078C29.2146 16.0015 28.9766 16.2395 28.9766 16.5327C28.9766 16.826 29.2146 17.064 29.5078 17.064Z" fill="#3E1A51"/>
<path d="M31.5117 17.064H34.7162C35.0095 17.064 35.2475 16.826 35.2475 16.5327C35.2475 16.2395 35.0095 16.0015 34.7162 16.0015H31.5117C31.2185 16.0015 30.9805 16.2395 30.9805 16.5327C30.9805 16.826 31.2185 17.064 31.5117 17.064Z" fill="#3E1A51"/>
<path d="M34.7177 17.9556H30.125C29.8318 17.9556 29.5938 18.1936 29.5938 18.4868C29.5938 18.7801 29.8318 19.0181 30.125 19.0181H34.7177C35.0109 19.0181 35.2489 18.7801 35.2489 18.4868C35.2489 18.1936 35.0109 17.9556 34.7177 17.9556Z" fill="#3E1A51"/>
<path d="M14.457 17.064H14.7142C15.0074 17.064 15.2454 16.826 15.2454 16.5327C15.2454 16.2395 15.0074 16.0015 14.7142 16.0015H14.457C14.1638 16.0015 13.9258 16.2395 13.9258 16.5327C13.9258 16.826 14.1638 17.064 14.457 17.064Z" fill="#3E1A51"/>
<path d="M9.50391 17.064H12.7084C13.0017 17.064 13.2397 16.826 13.2397 16.5327C13.2397 16.2395 13.0017 16.0015 12.7084 16.0015H9.50391C9.21066 16.0015 8.97266 16.2395 8.97266 16.5327C8.97266 16.826 9.21066 17.064 9.50391 17.064Z" fill="#3E1A51"/>
<path d="M9.50391 19.0181H14.0966C14.3898 19.0181 14.6278 18.7801 14.6278 18.4868C14.6278 18.1936 14.3898 17.9556 14.0966 17.9556H9.50391C9.21066 17.9556 8.97266 18.1936 8.97266 18.4868C8.97266 18.7801 9.21066 19.0181 9.50391 19.0181Z" fill="#3E1A51"/>
</svg>
