<svg width="81" height="81" viewBox="0 0 81 81" fill="none" xmlns="http://www.w3.org/2000/svg">
<g filter="url(#filter0_b_3107_5)">
<rect width="79.8873" height="79.8873" rx="16" transform="matrix(-1 0 0 1 80.3086 0.30127)" fill="url(#paint0_linear_3107_5)" fill-opacity="0.1"/>
<rect x="-0.5" y="0.5" width="78.8873" height="78.8873" rx="15.5" transform="matrix(-1 0 0 1 79.3086 0.30127)" stroke="white" stroke-opacity="0.4"/>
</g>
<mask id="mask0_3107_5" style="mask-type:alpha" maskUnits="userSpaceOnUse" x="20" y="21" width="41" height="41">
<rect x="20.6694" y="21.0352" width="40" height="40" fill="#D9D9D9"/>
</mask>
<g mask="url(#mask0_3107_5)">
<path d="M30.2283 54.3406C28.8558 54.3406 27.688 53.8599 26.7249 52.8985C25.7622 51.9371 25.2808 50.7698 25.2808 49.3964H22.3362V30.4798C22.3362 29.7298 22.6116 29.0792 23.1624 28.5281C23.7135 27.9773 24.3641 27.7018 25.1141 27.7018H48.9749V34.5631H53.5583L59.0028 41.8131V49.3964H55.9195C55.9195 50.7698 55.4391 51.9371 54.4783 52.8985C53.5174 53.8599 52.3508 54.3406 50.9783 54.3406C49.6058 54.3406 48.438 53.8599 47.4749 52.8985C46.5122 51.9371 46.0308 50.7698 46.0308 49.3964H35.1695C35.1695 50.7667 34.6891 51.9334 33.7283 52.8964C32.7674 53.8592 31.6008 54.3406 30.2283 54.3406ZM30.2249 51.5631C30.8269 51.5631 31.3385 51.3524 31.7599 50.931C32.181 50.5096 32.3916 49.9981 32.3916 49.3964C32.3916 48.7945 32.181 48.2828 31.7599 47.8614C31.3385 47.4403 30.8269 47.2298 30.2249 47.2298C29.6233 47.2298 29.1117 47.4403 28.6903 47.8614C28.269 48.2828 28.0583 48.7945 28.0583 49.3964C28.0583 49.9981 28.269 50.5096 28.6903 50.931C29.1117 51.3524 29.6233 51.5631 30.2249 51.5631ZM25.1141 46.6185H26.1695C26.6417 45.9518 27.2208 45.4195 27.9066 45.0214C28.5927 44.6231 29.3566 44.4239 30.1983 44.4239C31.0402 44.4239 31.8084 44.6277 32.5028 45.0352C33.1973 45.4427 33.7806 45.9705 34.2528 46.6185H46.1974V30.4798H25.1141V46.6185ZM50.9749 51.5631C51.5769 51.5631 52.0885 51.3524 52.5099 50.931C52.931 50.5096 53.1416 49.9981 53.1416 49.3964C53.1416 48.7945 52.931 48.2828 52.5099 47.8614C52.0885 47.4403 51.5769 47.2298 50.9749 47.2298C50.3733 47.2298 49.8617 47.4403 49.4403 47.8614C49.019 48.2828 48.8083 48.7945 48.8083 49.3964C48.8083 49.9981 49.019 50.5096 49.4403 50.931C49.8617 51.3524 50.3733 51.5631 50.9749 51.5631ZM48.9749 43.1185H56.5028L52.1695 37.3406H48.9749V43.1185Z" fill="white"/>
</g>
<defs>
<filter id="filter0_b_3107_5" x="-6.57861" y="-6.69873" width="93.8872" height="93.8873" filterUnits="userSpaceOnUse" color-interpolation-filters="sRGB">
<feFlood flood-opacity="0" result="BackgroundImageFix"/>
<feGaussianBlur in="BackgroundImageFix" stdDeviation="3.5"/>
<feComposite in2="SourceAlpha" operator="in" result="effect1_backgroundBlur_3107_5"/>
<feBlend mode="normal" in="SourceGraphic" in2="effect1_backgroundBlur_3107_5" result="shape"/>
</filter>
<linearGradient id="paint0_linear_3107_5" x1="39.9437" y1="-55.7213" x2="39.9437" y2="115.058" gradientUnits="userSpaceOnUse">
<stop stop-color="white"/>
<stop offset="1" stop-color="white" stop-opacity="0"/>
</linearGradient>
</defs>
</svg>
