<svg width="49" height="49" viewBox="0 0 49 49" fill="none" xmlns="http://www.w3.org/2000/svg">
<mask id="mask0_1673_463" style="mask-type:alpha" maskUnits="userSpaceOnUse" x="0" y="0" width="49" height="49">
<rect x="0.15625" y="0.386963" width="48" height="48" fill="#D9D9D9"/>
</mask>
<g mask="url(#mask0_1673_463)">
<path d="M30.6562 32.887H38.6562V24.887H36.1562V30.387H30.6562V32.887ZM24.1593 30.137C25.7572 30.137 27.1146 29.5776 28.2313 28.459C29.3479 27.3403 29.9062 25.982 29.9062 24.384C29.9062 22.786 29.3469 21.4286 28.2283 20.312C27.1096 19.1953 25.7512 18.637 24.1532 18.637C22.5553 18.637 21.1979 19.1963 20.0813 20.315C18.9646 21.4336 18.4062 22.792 18.4062 24.39C18.4062 25.988 18.9656 27.3453 20.0843 28.462C21.2029 29.5786 22.5613 30.137 24.1593 30.137ZM9.65625 24.137H12.1562V18.637H17.6562V16.137H9.65625V24.137ZM4.15625 38.387V10.387H44.1562V38.387H4.15625ZM7.15625 35.387H41.1562V13.387H7.15625V35.387Z" fill="#1C1B1F"/>
</g>
</svg>
