<svg width="92" height="92" viewBox="0 0 92 92" fill="none" xmlns="http://www.w3.org/2000/svg">
<g clip-path="url(#clip0_10200_512)">
<path d="M43.4568 2.10372C63.3928 0.549344 80.3562 16.667 78.9135 36.9297C77.8989 51.1741 61.7281 71.0861 52.105 81.2174C51.0507 82.3254 48.8153 84.8523 47.7135 85.6255C47.0159 86.1117 45.8983 86.1436 45.2324 85.6255C33.9763 73.7006 19.494 58.4359 15.0629 42.2066C9.90252 23.291 24.2025 3.61027 43.4568 2.10372ZM45.9379 11.422C28.6653 11.7887 17.8531 30.6962 26.2476 45.9451C34.7531 61.4011 56.7659 61.9671 66.072 46.9813C75.8141 31.3021 64.2172 11.0314 45.9379 11.422Z" fill="url(#paint0_linear_10200_512)"/>
<path d="M59.0473 35.3516V48.7511C59.0473 49.2055 57.9851 49.9468 57.4778 50.0026C56.3918 50.1301 53.0626 50.154 52.0004 50.0026C51.2235 49.899 50.518 49.1816 50.4309 48.4163C50.193 46.3917 50.9382 40.9235 50.0187 39.5126C49.5668 38.8191 48.6394 38.7234 47.8784 38.6676C46.618 38.572 43.5266 38.4046 42.8449 39.6162C41.9412 41.2264 42.8211 46.4395 42.4802 48.5758C42.3693 49.2852 41.6162 49.9229 40.9187 50.0026C39.9437 50.1222 36.1863 50.154 35.2906 49.9946C34.9101 49.9229 33.8717 49.0939 33.8717 48.7511V35.3516H31.3034C31.2559 35.3516 30.5741 34.9451 30.4711 34.8574C29.7101 34.1958 29.6626 32.9204 30.2254 32.1074L45.2071 18.3731C45.7382 17.8948 46.5071 18.0144 47.1571 18.0781C52.4681 22.5499 57.5016 27.4442 62.6699 32.1074C63.2327 32.9124 63.1851 34.1958 62.4241 34.8574C62.3211 34.9451 61.6394 35.3516 61.5918 35.3516H59.0235H59.0473Z" fill="url(#paint1_linear_10200_512)"/>
</g>
<defs>
<linearGradient id="paint0_linear_10200_512" x1="46.4996" y1="2" x2="46.4996" y2="86.0022" gradientUnits="userSpaceOnUse">
<stop stop-color="#B658E8"/>
<stop offset="1" stop-color="#008771"/>
</linearGradient>
<linearGradient id="paint1_linear_10200_512" x1="46.4476" y1="18.0166" x2="46.4476" y2="50.1074" gradientUnits="userSpaceOnUse">
<stop stop-color="#B658E8"/>
<stop offset="1" stop-color="#008771"/>
</linearGradient>
<clipPath id="clip0_10200_512">
<rect width="65" height="84" fill="white" transform="translate(14 2)"/>
</clipPath>
</defs>
</svg>
