<svg width="92" height="92" viewBox="0 0 92 92" fill="none" xmlns="http://www.w3.org/2000/svg">
<g clip-path="url(#clip0_5670_1000)">
<path d="M42.4568 2.10372C62.3928 0.549344 79.3562 16.667 77.9135 36.9297C76.8989 51.1741 60.7281 71.0861 51.105 81.2174C50.0507 82.3254 47.8153 84.8523 46.7135 85.6255C46.0159 86.1117 44.8983 86.1436 44.2324 85.6255C32.9763 73.7006 18.494 58.4359 14.0629 42.2066C8.90252 23.291 23.2025 3.61027 42.4568 2.10372ZM44.9379 11.422C27.6653 11.7887 16.8531 30.6962 25.2476 45.9451C33.7531 61.4011 55.7659 61.9671 65.072 46.9813C74.8141 31.3021 63.2172 11.0314 44.9379 11.422Z" fill="url(#paint0_linear_5670_1000)"/>
<path d="M58.0473 35.3516V48.7511C58.0473 49.2055 56.9851 49.9468 56.4778 50.0026C55.3918 50.1301 52.0626 50.154 51.0004 50.0026C50.2235 49.899 49.518 49.1816 49.4309 48.4163C49.193 46.3917 49.9382 40.9235 49.0187 39.5126C48.5668 38.8191 47.6394 38.7234 46.8784 38.6676C45.618 38.572 42.5266 38.4046 41.8449 39.6162C40.9412 41.2264 41.8211 46.4395 41.4802 48.5758C41.3693 49.2852 40.6162 49.9229 39.9187 50.0026C38.9437 50.1222 35.1863 50.154 34.2906 49.9946C33.9101 49.9229 32.8717 49.0939 32.8717 48.7511V35.3516H30.3034C30.2559 35.3516 29.5741 34.9451 29.4711 34.8574C28.7101 34.1958 28.6626 32.9204 29.2254 32.1074L44.2071 18.3731C44.7382 17.8948 45.5071 18.0144 46.1571 18.0781C51.4681 22.5499 56.5016 27.4442 61.6699 32.1074C62.2327 32.9124 62.1851 34.1958 61.4241 34.8574C61.3211 34.9451 60.6394 35.3516 60.5918 35.3516H58.0235H58.0473Z" fill="url(#paint1_linear_5670_1000)"/>
</g>
<defs>
<linearGradient id="paint0_linear_5670_1000" x1="45.4996" y1="2" x2="45.4996" y2="86.0022" gradientUnits="userSpaceOnUse">
<stop stop-color="#B658E8"/>
<stop offset="1" stop-color="#FFB503"/>
</linearGradient>
<linearGradient id="paint1_linear_5670_1000" x1="45.4476" y1="18.0166" x2="45.4476" y2="50.1074" gradientUnits="userSpaceOnUse">
<stop stop-color="#B658E8"/>
<stop offset="1" stop-color="#FFB503"/>
</linearGradient>
<clipPath id="clip0_5670_1000">
<rect width="65" height="84" fill="white" transform="translate(13 2)"/>
</clipPath>
</defs>
</svg>
