<svg width="92" height="92" viewBox="0 0 92 92" fill="none" xmlns="http://www.w3.org/2000/svg">
<g clip-path="url(#clip0_6421_529)">
<path d="M45.4332 57.0266C45.6193 57.6988 44.6679 59.55 45.3815 59.8602L61.6699 62.756C65.0311 63.0559 67.3476 61.3702 68.5887 58.3503L83.9154 52.8174C87.6178 51.8453 89.7585 56.8404 86.1596 58.702L53.4999 70.5538C48.5564 72.4567 43.5406 69.8815 38.6386 70.2745C35.8669 70.4917 33.0539 71.6603 30.7374 73.1185L20.9746 59.1363C25.1217 56.1578 28.9999 53.2621 33.9847 51.8039C39.4556 50.1906 43.5613 50.3043 49.1252 51.1524C53.3137 51.7832 59.1569 52.5485 63.1282 53.6448C66.9133 54.6893 66.5617 59.3535 62.7972 59.9223L45.4435 57.0369L45.4332 57.0266Z" fill="url(#paint0_linear_6421_529)"/>
<path d="M15.8044 57.0648L3.00586 65.9766L17.2186 86.388L30.0171 77.4762L15.8044 57.0648Z" fill="url(#paint1_linear_6421_529)"/>
<path d="M50.4295 15.2041V22.9709C50.4295 23.7672 51.8256 24.76 52.5909 24.1705L58.0411 18.8548C58.4548 18.7824 62.7777 23.6638 63.6257 24.1705C64.391 24.76 65.7872 23.7568 65.7872 22.9709V15.2041H84.2061V49.9218C82.0446 49.9011 79.5729 51.742 77.5666 52.0109C76.2635 52.1867 67.2971 52.2281 66.356 51.9385C65.5183 51.6903 64.784 51.0491 63.5223 50.7388C56.7587 49.1048 45.2275 47.0158 38.4846 47.8328C36.2818 48.1017 34.1513 48.7118 32.0312 49.3427V15.2041H50.4502H50.4295Z" fill="url(#paint2_linear_6421_529)"/>
<path d="M50.4287 6V12.1431H32.0098V6.85838C32.0098 6.79633 32.8164 6 32.8681 6H50.4183H50.4287Z" fill="url(#paint3_linear_6421_529)"/>
<path d="M84.1845 12.1431H65.7656V6H83.3158C83.3779 6 84.1742 6.80667 84.1742 6.85838V12.1327L84.1845 12.1431Z" fill="url(#paint4_linear_6421_529)"/>
<path d="M62.7049 6V19.2376C61.5776 18.5861 59.3127 15.3284 58.1648 15.2663C56.9548 15.2043 54.6485 18.5757 53.4902 19.2376V6H62.6945H62.7049Z" fill="url(#paint5_linear_6421_529)"/>
</g>
<defs>
<linearGradient id="paint0_linear_6421_529" x1="54.4922" y1="50.5439" x2="54.4922" y2="73.1185" gradientUnits="userSpaceOnUse">
<stop stop-color="#FFB503"/>
<stop offset="1" stop-color="#B658E8"/>
</linearGradient>
<linearGradient id="paint1_linear_6421_529" x1="9.40512" y1="61.5207" x2="23.6179" y2="81.9321" gradientUnits="userSpaceOnUse">
<stop stop-color="#FFB503"/>
<stop offset="1" stop-color="#B658E8"/>
</linearGradient>
<linearGradient id="paint2_linear_6421_529" x1="58.1187" y1="15.2041" x2="58.1187" y2="52.1494" gradientUnits="userSpaceOnUse">
<stop stop-color="#B658E8"/>
<stop offset="1" stop-color="#FFB503"/>
</linearGradient>
<linearGradient id="paint3_linear_6421_529" x1="41.2192" y1="6" x2="41.2192" y2="12.1431" gradientUnits="userSpaceOnUse">
<stop stop-color="#B658E8"/>
<stop offset="1" stop-color="#FFB503"/>
</linearGradient>
<linearGradient id="paint4_linear_6421_529" x1="74.9751" y1="6" x2="74.9751" y2="12.1431" gradientUnits="userSpaceOnUse">
<stop stop-color="#B658E8"/>
<stop offset="1" stop-color="#FFB503"/>
</linearGradient>
<linearGradient id="paint5_linear_6421_529" x1="58.0975" y1="6" x2="58.0975" y2="19.2376" gradientUnits="userSpaceOnUse">
<stop stop-color="#B658E8"/>
<stop offset="1" stop-color="#FFB503"/>
</linearGradient>
<clipPath id="clip0_6421_529">
<rect width="85" height="80.3875" fill="white" transform="translate(3 6)"/>
</clipPath>
</defs>
</svg>
