<svg width="328" height="357" viewBox="0 0 328 357" fill="none" xmlns="http://www.w3.org/2000/svg">
<path d="M71.8821 0.0151555C71.8828 0.017257 71.8848 0.0187577 71.8871 0.0189621C72.4906 0.0748775 72.8919 0.123881 73.1664 0.158476C73.7032 0.22614 74.5104 0.282195 74.5938 0.816803C74.6857 1.40581 75.2095 1.66563 75.7788 1.48869C77.143 1.06467 77.7409 0.979148 79.6443 1.29697C80.1815 1.38668 80.6193 1.7292 80.7945 2.24496C81.1824 3.38687 82.4149 4.20208 83.5845 4.49634C83.7496 4.53789 83.9105 4.60494 84.0668 4.70335C84.3558 4.88526 84.648 5.07659 84.9696 5.1914C88.0828 6.30283 87.1951 9.34474 87.276 12.8813C87.2923 13.5913 87.8212 14.2867 88.4754 14.5631C89.8146 15.1289 90.9178 16.7827 92.319 17.1703C95.1951 17.966 99.2411 19.858 101.637 21.1455C102.857 21.8015 104.296 22.0976 105.629 21.7222C106.307 21.5314 106.943 21.3492 107.368 21.2546C107.654 21.1911 107.921 21.3302 108.083 21.5736C108.347 21.971 108.87 22.1084 109.287 21.8753C113.882 19.3038 114.487 16.3469 121.129 15.3912C123.514 15.048 125.826 16.5396 127.868 17.82C129.327 18.7353 130.929 19.4831 131.853 20.5474C132.638 21.4529 133.725 22.2625 134.888 21.9736C136.191 21.65 135.679 24.7346 135.215 25.9942C134.679 27.4501 134.143 29.3487 133.707 30.9116C133.286 32.42 131.708 33.0356 130.519 34.0552C129.931 34.5598 130.083 35.2393 129.453 35.7166C128.471 36.4601 127.292 37.7985 126.822 38.9372C126.205 40.4342 123.646 41.6438 122.108 42.1492C121.936 42.2055 121.77 42.2709 121.612 42.346C120.538 42.8533 120.995 44.2752 121.512 45.344C121.792 45.9236 121.605 46.6061 121.192 47.0998C121.154 47.1452 121.116 47.1905 121.078 47.2358C120.451 47.9843 120.332 49.0327 120.768 49.9057C121.014 50.3977 121.26 50.89 121.507 51.382C121.913 52.1933 123.233 52.5139 124.128 52.6649C125.246 52.8537 125.493 54.0877 125.437 55.2197C125.371 56.5368 125.64 57.7121 126.24 58.4505C126.736 59.0619 127.231 59.9651 126.874 60.6673C126.475 61.4873 123.522 62.8681 121.746 63.4061C120.918 63.6567 119.793 63.6009 119.113 63.0666C118.834 62.8477 118.636 62.5369 118.5 62.0778C118.198 61.0552 117.229 60.2952 116.218 60.6327C115.516 60.867 115.065 61.5564 115.143 62.2923C115.363 64.3531 115.689 66.031 117.176 67.8521C117.537 68.2884 118.617 69.6627 118.68 70.2261C118.898 72.1839 118.409 74.5701 118.561 77.2463C118.584 77.636 118.838 77.8871 119.204 78.023C119.696 78.2054 120.248 78.2073 120.534 77.7681C121.037 76.9952 121.721 76.4867 122.92 77.9033C123.452 78.5537 123.985 79.204 124.519 79.8544C125.554 81.1165 127.1 81.8493 128.732 81.8493H129.586C130.382 81.8493 131.152 82.1497 131.586 82.817C131.969 83.4064 132.347 84.07 132.823 84.5419C133.585 85.2972 134.224 86.3547 134.995 87.1006C135.079 87.1818 135.169 87.2847 135.244 87.3741C136.383 88.7278 140.672 90.5673 143.116 91.0739C143.482 91.1497 143.76 91.4625 143.76 91.8356C143.76 92.0951 143.623 92.3335 143.405 92.4753C142.034 93.3705 140.721 94.6829 139.53 95.7614C138.132 97.0271 136.664 99.3175 136.248 101.157C135.989 102.304 135.621 103.537 135.214 104.639C134.684 106.077 134.602 110.221 135.617 111.369C135.718 111.483 135.817 111.599 135.913 111.719C136.328 112.236 137.047 112.474 137.64 112.176C138.243 111.875 138.986 112.118 139.43 112.624C142.049 115.604 149.592 119.633 153.104 121.915C153.508 122.177 154.051 122.09 154.34 121.706C154.645 121.3 155.224 121.229 155.634 121.527C156.374 122.067 157.004 122.46 157.595 122.967C158.724 123.938 160.154 124.246 161.642 124.217C161.752 124.215 161.855 124.224 161.952 124.247C162.331 124.334 162.611 124.653 162.95 124.843C164.705 125.824 167.532 127.106 168.964 128.811C169.15 129.033 169.461 129.117 169.721 128.988C169.889 128.904 170.009 128.744 170.039 128.559C170.067 128.391 170.095 128.224 170.122 128.057C170.251 127.281 170.943 126.718 171.723 126.808C173.321 126.993 174.249 127.329 175.062 127.51C177.257 127.998 180.099 128.279 182.308 128.695C182.856 128.799 183.465 128.93 184.146 129.177C184.714 129.383 185.119 130.17 184.92 130.741C184.721 131.311 184.526 131.747 184.899 132.222C186.683 134.486 190.481 135.388 193.557 135.033C194.665 134.904 195.827 135.419 196.242 136.454C196.637 137.441 197.717 137.954 198.778 137.904C202.754 137.717 207.522 139.739 208.865 139.424C209.081 139.374 209.256 139.214 209.455 139.115C210.38 138.652 211.49 139.354 212.392 139.861C212.471 139.905 212.551 139.946 212.631 139.988C213.451 140.409 214.486 140.763 215.37 140.501C216.576 140.143 217.805 139.965 219.073 139.983C220.86 140.008 223.007 137.829 223.366 136.078C223.599 134.937 223.322 133.884 222.939 132.784C222.015 130.124 222.265 126.465 222.803 123.583C223.14 121.779 224.8 120.76 226.591 120.356C227.189 120.221 227.665 120.015 228.224 119.696C229.073 119.211 230.139 119.302 230.831 119.993C231.222 120.383 231.442 120.913 231.442 121.466V129.232C231.442 129.459 231.406 129.684 231.334 129.899C230.99 130.939 231.367 132.248 232.107 133.056C232.283 133.249 232.464 133.444 232.645 133.629C233.499 134.501 234.872 135.237 236.026 135.635C237.152 136.023 238.514 136.103 239.954 136.009C245.007 135.676 252.765 135.953 257.819 135.644C261.325 135.43 264.971 134.951 266.85 134.71C267.384 134.641 267.816 134.253 267.948 133.731C268.038 133.372 267.977 132.988 267.76 132.688C267.753 132.677 267.745 132.666 267.737 132.655C267.274 132.016 266.952 131.142 267.304 130.437C267.326 130.393 267.347 130.35 267.369 130.307C267.76 129.524 267.406 128.581 266.6 128.238C265.323 127.695 263.698 126.958 263.173 126.469C263.092 126.394 263.022 126.309 262.944 126.231C262.429 125.717 262.444 125.642 262.387 124.793C262.366 124.471 262.619 124.195 262.941 124.195C263.021 124.195 263.097 124.178 263.17 124.146C264.136 123.728 265.896 123.356 267.649 123.013C270.951 122.367 274.266 120.99 276.577 118.545C279.783 115.152 284.992 112.619 288.814 109.939C289.28 109.613 289.691 109.262 290.075 108.897C293.619 105.529 299.74 107.048 304.372 105.486C306.776 104.675 309.213 103.353 310.917 102.571C311.859 102.14 312.866 102.741 313.449 103.597C313.589 103.802 313.74 104.018 313.895 104.255C314.225 104.757 313.982 105.346 313.651 105.847C313.139 106.622 314.041 106.991 314.969 106.96C315.026 106.958 315.091 106.962 315.169 106.971C315.24 106.981 315.309 106.992 315.375 107.002C316.867 107.242 318.382 108.966 317.874 110.39C317.534 111.34 316.141 112.055 315.909 112.993C315.843 113.259 315.688 113.576 315.514 113.789C315.151 114.234 315.811 114.86 316.385 114.886C319.696 115.033 321.894 115.861 324.425 116.601C325.355 116.873 326.087 117.612 326.306 118.556C326.678 120.162 325.548 122.172 324.256 123.194C324.065 123.345 323.872 123.498 323.677 123.646C322.456 124.578 321.406 126.142 322.063 127.529C322.834 129.159 323.781 130.137 323.37 131.216C323.272 131.474 322.926 131.445 322.802 131.198C322.744 131.084 322.632 131.007 322.506 130.984C322.118 130.911 321.757 130.754 321.434 130.549C320.222 129.779 318.659 128.809 317.269 129.17C315.837 129.543 314.404 129.916 312.97 130.289C312.047 130.529 311.174 130.956 310.532 131.661C310.404 131.801 310.276 131.946 310.147 132.095C306.458 136.358 303.886 143.647 300.706 148.303C300.451 148.677 300.273 148.758 299.952 149.078C298.685 150.343 297.421 151.608 296.155 152.873C295.696 153.332 295.654 154.377 295.901 154.977C296.395 156.177 297.147 158.042 296.663 159.246C294.93 163.559 291.243 171.007 290.48 172.149C290.415 172.247 290.31 172.286 290.192 172.286C290.077 172.286 289.967 172.244 289.875 172.175C289.53 171.912 289.09 171.669 288.589 171.443C285.555 170.075 282.443 173.183 282.459 176.511C282.469 178.782 282.195 180.938 281.346 182.267C281.18 182.525 280.838 182.575 280.576 182.417C280.089 182.125 279.48 182.582 279.588 183.14C279.984 185.197 280.024 187.064 280.112 188.842C280.177 190.177 279.217 191.712 278.452 192.808C278.258 193.086 278.059 193.381 277.84 193.675C277.321 194.373 276.445 194.059 275.712 193.59C275.506 193.459 275.252 193.358 274.901 193.263C274.535 193.163 274.235 193.546 274.167 193.92C274.073 194.445 273.108 193.721 273.087 193.187C272.713 183.412 269.803 183.152 269.545 175.186C269.522 174.457 268.76 173.996 268.039 174.1C267.139 174.229 266.174 175.039 266.049 175.94C265.723 178.295 264.292 180.903 263.493 181.718C263.271 181.944 262.919 182.157 262.718 182.402C262.43 182.753 261.841 182.352 261.661 181.934C261.532 181.633 261.402 181.331 261.273 181.029C261.068 180.549 260.528 180.306 260.033 180.471C259.396 180.683 258.738 180.219 258.67 179.551C258.43 177.175 257.773 176.178 257.252 174.487C257.058 173.859 257.314 173.612 257.864 173.251C258.169 173.051 258.33 172.432 258.285 172.07C257.979 169.6 260.297 169.23 262.348 168.873C264.426 168.512 265.887 167.336 267.163 165.656C269.96 161.971 269.282 156.272 264.666 155.963C258.349 155.54 250.017 156.924 245.2 155.592C242.325 154.797 242.467 150.67 242.35 147.689C242.317 146.845 242.215 146.05 242.034 145.455C241.943 145.158 241.689 144.961 241.42 144.805C240.872 144.488 241.118 144.232 240.964 144.194C240.681 144.125 240.335 144.176 240.065 144.285C239.14 144.712 238.378 145.63 237.498 145.116C235.018 143.667 231.884 141.391 229.262 139.915C227.815 139.101 227.204 139.941 226.705 141.525C226.498 142.184 225.628 142.855 225.02 143.183C224.072 143.696 223.398 144.714 223.179 146.078C223 147.168 223.893 148.363 224.914 148.784C227.168 149.714 230.209 151.541 230.727 152.177C231.368 152.84 231.398 153.015 231.263 153.583C231.169 153.982 231.447 154.338 231.857 154.338C232.409 154.338 232.147 155.149 231.599 155.222C230.545 155.362 229.492 155.502 228.438 155.643C227.832 155.724 227.263 156.026 226.95 156.552C226.463 157.371 226.294 158.028 225.509 158.853C225.23 159.147 224.787 158.904 224.388 158.833C223.915 158.748 223.457 159.095 223.323 159.557C223.224 159.896 223.098 160.236 222.92 160.594C222.54 161.356 222.529 162.383 222.758 163.203C222.769 163.241 222.78 163.277 222.792 163.312C223.048 164.04 224.116 164.204 224.774 164.607C225.889 165.289 227.461 165.052 229.135 166.732C229.235 166.833 229.371 166.894 229.514 166.894C229.791 166.894 230.019 167.115 230.027 167.393C230.082 169.291 230.065 170.227 229.29 171.2C229.218 171.272 229.146 171.344 229.074 171.416C228.327 172.162 228.066 173.266 228.401 174.268C228.495 174.551 228.589 174.835 228.683 175.118C228.835 175.578 229.274 175.735 229.709 175.947C229.735 175.959 229.761 175.977 229.792 176.001C230.177 176.306 230.218 176.878 229.998 177.318C229.785 177.742 229.842 178.261 230.188 178.585C230.5 178.877 230.764 179.064 231.036 179.256C231.995 179.933 232.124 181.238 231.97 182.402C231.525 185.777 232.973 190.782 234.018 194.257C234.171 194.768 233.849 195.04 233.742 195.563C233.71 195.717 233.611 196.123 233.628 196.279C233.715 197.067 232.968 197.964 232.208 197.737C232.149 197.72 232.089 197.702 232.03 197.684C231.525 197.534 231.048 197.883 230.842 198.368C230.557 199.04 230 199.151 228.516 199.184C228.092 199.193 227.691 198.995 227.436 198.656C227.399 198.607 227.362 198.558 227.325 198.509C227.001 198.077 226.413 197.938 225.93 198.179C225.268 198.51 224.479 198.11 224.346 197.382C224.31 197.185 224.274 196.987 224.238 196.79C224.058 195.81 223.021 195.246 222.125 195.683C218.866 197.271 215.757 199.406 211.774 201.591C210.052 202.536 209.115 204.498 209.571 206.408C210.127 208.736 208.627 211.344 207.061 213.154C203.899 216.807 201.057 222.945 194.991 221.378C194.454 221.239 194.245 220.684 194.258 220.13C194.267 219.722 193.853 220.15 192.957 219.806C192.801 219.747 192.621 219.853 192.621 220.019C192.621 220.182 192.452 220.287 192.307 220.214C192.279 220.2 192.252 220.186 192.224 220.172C192.061 220.089 191.844 220.18 191.777 220.35C191.528 220.978 190.938 222.34 190.321 223.541C189.595 224.954 188.164 226.896 187.219 228.174C184.308 232.113 178.059 238.241 175.135 239.984C174.405 240.419 173.937 240.208 173.24 240.696C170.746 242.442 166.643 247.422 163.964 248.87C163.097 249.339 162.286 249.877 161.473 250.716C161.167 251.033 160.753 251.231 160.313 251.231C159.845 251.231 159.392 251.446 159.199 251.871C158.488 253.438 158.379 255.977 157.379 257.326C157.185 257.587 156.976 257.817 156.747 258.049C155.144 259.672 152.522 260.807 150.256 261.071C145.837 261.586 146.018 263.452 142.401 267.287C142.171 267.531 141.436 267.522 141.58 267.219C141.719 266.928 141.337 266.724 141.022 266.798C140.012 267.036 139 267.273 137.989 267.51C136.507 267.858 135.505 269.164 134.983 270.593C134.552 271.776 133.872 272.799 132.98 273.834C132.21 274.727 134.572 289.44 134.764 290.628C134.773 290.685 134.777 290.733 134.777 290.79V291.801C134.777 292.122 134.441 292.331 134.154 292.188C133.828 292.024 133.409 292.318 133.414 292.683C133.418 293.081 133.409 293.49 133.44 293.811C133.495 294.379 134.281 294.757 134.735 295.103C135.046 295.34 135.375 295.506 135.797 296.106C136.101 296.537 136.165 297.086 136.065 297.603C135.919 298.362 135.773 299.12 135.627 299.879C134.906 303.618 132.198 307.54 130.71 311.045C130.417 311.733 130.152 312.394 129.913 312.949C129.602 313.669 129.378 314.442 129.428 315.225C129.663 318.864 130.936 321.197 129.997 324.134C129.913 324.395 130.161 324.656 130.421 324.569C130.624 324.5 130.834 324.65 130.839 324.865C130.877 326.335 130.923 327.552 130.771 328.67C130.585 330.04 129.179 330.687 127.805 330.532C127.486 330.496 127.214 330.479 126.965 330.481C124.912 330.501 124.213 333.242 123.207 335.032C121.944 337.281 119.233 338.582 120.79 341.77C120.977 342.153 121.383 342.375 121.81 342.375H123.904C124.207 342.375 124.358 342.735 124.143 342.948C124.053 343.038 123.921 343.071 123.799 343.036C120.866 342.211 117.037 342.889 114.62 344.145C112.953 345.012 111.635 346.599 111.092 348.398C111.019 348.643 110.954 348.892 110.892 349.144C109.214 356.053 100.187 352.677 95.1501 347.66C94.5896 347.101 94.1278 346.643 93.8267 346.345C93.5727 346.094 93.354 345.815 93.1956 345.495C92.3142 343.711 89.8851 337.99 91.2907 335.646C91.3955 335.471 91.2804 335.203 91.0768 335.203C90.9859 335.203 90.9041 335.148 90.8696 335.064C88.7729 329.95 86.6762 324.831 84.5853 319.717C84.506 319.523 84.5126 319.305 84.6061 319.118C84.7353 318.859 84.7036 318.546 84.5239 318.319C80.8834 313.719 78.7163 310.235 76.4874 306.294C75.0904 303.825 74.2023 301.101 73.8143 298.29C73.5508 296.381 73.2874 294.472 73.0239 292.564C72.985 292.282 72.831 291.894 72.6796 291.653C72.4221 291.243 72.4607 290.843 72.1914 290.44C72.1599 290.393 72.1285 290.346 72.0969 290.299C71.9559 290.09 71.7821 289.905 71.6149 289.715C70.2552 288.174 69.1656 284.226 68.6778 281.527C68.6602 281.43 68.6916 281.332 68.7617 281.262C68.8928 281.131 68.8786 280.914 68.7389 280.792C66.1569 278.542 61.8273 270.593 61.4817 268.923C61.4655 268.845 61.4765 268.876 61.4611 268.797C61.1028 266.976 58.676 264.767 58.0883 263.006C55.4707 255.163 54.8072 239.307 52.8038 234.171C52.5189 233.44 52.6642 232.537 53.1509 231.922C53.5827 231.376 53.7971 230.833 53.985 230.149C54.1061 229.708 53.6235 229.347 53.226 229.574C52.9472 229.732 52.6683 229.891 52.3894 230.05C52.1976 230.159 51.9861 229.958 52.084 229.76C52.1066 229.715 52.1123 229.661 52.1016 229.611C51.6864 227.682 52.2211 227.169 51.5513 226.067C51.3265 225.697 51.7461 225.251 51.8689 224.836C52.0105 224.358 51.458 223.963 51.0997 223.615C50.6953 223.223 50.6046 222.371 50.6668 220.441C50.6761 220.153 50.6366 219.864 50.5743 219.583C49.6428 215.38 53.3122 211.943 52.599 206.073C52.5395 205.583 51.9947 205.096 51.5574 204.867C50.8308 204.487 50.4411 203.896 50.5841 203.088C50.785 201.953 50.9855 200.819 51.1844 199.686C51.3065 198.99 50.8434 198.409 50.2384 198.045C50.0784 197.949 50.0357 197.859 49.9793 197.718C49.8123 197.3 49.8382 196.799 50.1555 196.481C50.46 196.176 50.5221 195.68 50.2211 195.371C49.6749 194.811 49.5562 195.356 48.9871 195.156C48.688 195.051 48.6204 194.679 48.7633 194.396C48.8389 194.247 48.85 194.072 48.812 193.909C48.5428 192.752 49.0848 192.549 49.6315 192.016C50.0871 191.571 49.6564 190.93 49.0201 190.93C48.7073 190.93 48.4037 191.083 48.1466 191.261C48.0635 191.319 47.9724 191.377 47.8777 191.437C47.1571 191.885 46.5047 193.016 46.2851 193.836C45.8423 195.49 45.1464 198.251 44.5596 200.604C43.8852 203.309 41.9271 205.512 39.3161 206.489C37.6651 207.107 36.0145 207.725 34.3636 208.344C30.9416 209.627 27.275 209.587 24.4604 207.256C18.314 202.166 9.18868 192.392 9.30042 190.404C9.30733 190.28 9.31843 190.15 9.2638 190.04C9.14075 189.791 9.32031 189.497 9.59794 189.497H10.6486C11.059 189.497 11.3396 189.913 11.1872 190.294C11.0162 190.722 11.3891 191.171 11.8406 191.081C16.066 190.241 18.9795 189.609 22.6431 187.698C24.0085 186.991 23.7164 184.726 25.0685 183.392C25.4625 183.003 25.5251 182.244 25.0495 181.961C24.7203 181.765 24.2998 181.901 24.0493 182.191C23.0544 183.342 21.2574 183.465 19.671 183.824C17.6717 184.276 15.5377 185.53 13.5405 185.07C9.58209 184.157 7.73381 182.107 5.31125 178.427C5.12748 178.148 4.91664 177.887 4.68008 177.651C4.43722 177.409 4.16211 177.2 3.90955 176.968C3.59314 176.677 3.22866 176.223 3.36839 175.765C3.53114 175.231 3.94172 174.783 4.21504 174.296C4.57456 173.656 5.13924 173.771 5.62544 172.599C5.69342 172.435 5.56774 172.261 5.39031 172.261C4.92306 172.326 4.45581 172.392 3.98856 172.459C3.32417 172.554 2.80114 173.079 2.52106 173.689C2.34856 174.065 2.15074 174.417 2.00369 174.721C1.82402 175.093 1.3966 175.493 0.983653 175.493C0.815586 175.493 0.654382 175.427 0.535419 175.308C0.512451 175.285 0.489511 175.262 0.466588 175.239C0.190681 174.964 0.134512 174.54 0.291759 174.183C1.05224 172.458 1.30927 170.477 4.02958 170.137C4.21629 170.113 4.40519 170.145 4.5798 170.215C5.33899 170.52 6.26124 170.011 6.36915 169.2C6.38804 169.058 6.40541 168.898 6.42031 168.71C6.48586 167.886 7.11198 167.199 7.93831 167.157C10.2584 167.038 12.8181 166.985 15.1954 167.095C18.278 167.237 23.9439 163.743 26.2366 165.808C26.613 166.119 26.9876 166.432 27.3624 166.744C27.9888 167.266 28.8642 167.366 29.5933 167.001C30.1936 166.7 30.6055 166.125 30.7614 165.472C30.8574 165.07 30.9726 164.646 31.0988 164.216C31.7421 162.021 31.0199 159.31 29.9114 157.309C28.5796 154.906 27.3796 151.702 27.5174 149.743C27.5454 149.345 27.2527 148.938 26.8535 148.938C26.6941 148.938 26.5442 149.008 26.4254 149.114C26.0325 149.466 25.6295 149.583 25.1021 149.553C24.2013 149.504 23.4403 148.899 22.9093 148.169C22.827 148.056 22.7446 147.943 22.6623 147.83C21.5551 146.309 21.5593 144.375 22.2533 142.626C22.8174 141.205 23.0903 139.629 21.9343 138.893C20.9791 138.316 20.112 138.04 19.3292 137.862C15.5043 136.993 15.5933 132.57 17.5083 129.147C18.8915 126.675 20.4954 124.241 22.2953 122.449C24.2498 120.504 26.895 121.985 29.0745 123.674C29.1063 123.699 29.138 123.723 29.1698 123.746C30.4425 124.669 31.2071 123.51 32.687 122.98C36.2853 121.689 42.6703 117.375 45.078 114.406C48.6919 109.948 53.8785 105.283 55.7123 103.72C57.2417 102.418 57.4588 97.7803 58.412 95.8792C58.8366 95.0324 60.2239 94.7134 61.1032 94.3607C61.3779 94.2505 61.6737 94.1386 61.9736 94.0308C63.1025 93.6251 64.4031 91.7113 64.1879 90.5312C64.0638 89.8504 64.4252 89.1732 64.9959 88.7818C67.2863 87.2109 70.4423 83.6422 71.5128 81.3027C71.8321 80.6049 71.4836 80.3517 70.8675 79.8942C70.3399 79.5024 70.9033 78.4255 71.2089 77.8437C72.0109 76.3172 70.6723 73.6734 71.826 71.6444C72.2244 70.9436 72.768 70.3211 73.2787 69.6974C74.853 67.7747 77.0416 67.6554 78.7533 67.0235C80.0406 66.5483 79.8738 64.5612 78.8984 63.596C78.1642 62.8694 76.9053 62.4327 75.8777 62.5377C75.3589 62.5907 74.8812 62.5667 73.9398 62.6759C73.3778 62.7412 72.8316 62.4186 72.6531 61.8817C72.6206 61.7839 72.6025 61.6827 72.5943 61.58C72.5519 61.0491 72.4085 60.0609 72.1683 59.1266C71.9232 58.1733 70.9797 58.0076 70.0785 58.4035C69.4696 58.6709 68.6939 58.5751 68.1727 58.162C66.9337 57.18 65.8562 56.5605 64.7325 55.9755C62.2408 54.6784 60.8007 52.1139 60.5011 49.3209C60.3076 47.5158 60.0191 45.8602 59.7047 44.2408C58.7437 39.2924 60.2196 32.8246 64.6962 30.5074C64.7737 30.4675 64.8425 30.4317 64.9033 30.3989C65.5467 30.052 65.324 29.1827 65.5007 28.4734C65.7699 27.3925 64.7198 26.231 63.6981 25.7872C63.4076 25.661 63.0869 25.5093 62.7157 25.3351C62.0275 25.012 61.821 23.9844 62.0375 23.2557C62.3387 22.2416 61.2368 21.4955 60.1829 21.4041C57.9662 21.2117 56.5511 19.7889 55.5694 18.4451C54.7755 17.3584 53.3726 16.9898 52.0274 17.0286C51.9544 17.0307 51.8805 17.0323 51.8052 17.0337C50.3903 17.0597 48.5557 16.1496 48.71 14.7429C48.719 14.6608 48.7318 14.5765 48.7488 14.4901C48.8132 14.1628 48.8434 13.8247 48.7615 13.5014C48.6145 12.9205 48.7835 12.3022 49.2465 11.9219C50.6228 10.7914 52.4333 9.68836 53.8262 7.88354C55.0284 6.32592 56.6419 4.9478 58.6008 5.13268C60.136 5.27757 61.4117 5.41006 62.7629 4.79234C63.2444 4.5722 63.3317 3.95385 63.0011 3.54035C62.8757 3.3836 62.7504 3.2268 62.625 3.07015C62.4093 2.80056 62.5309 2.39612 62.858 2.28579C63.0874 2.20843 63.3314 2.31765 63.4882 2.5021C65.3241 4.66216 71.3324 1.4016 71.8718 0.0139024C71.8737 0.0089735 71.8805 0.0101398 71.8821 0.0151555Z" fill="url(#paint0_linear_6353_646)"/>
<path d="M182.953 179.466L182.953 179.466C179.091 174.113 172.424 170.072 165.757 169.571C164.507 169.478 162.489 169.475 161.244 169.571L161.244 169.571C154.57 170.084 147.915 174.107 144.047 179.466C138.451 187.221 138.562 195.788 141.461 203.994C144.365 212.215 150.054 220.025 155.524 226.162L155.524 226.162L155.598 226.245C157.447 228.319 160.222 231.433 162.273 233.007C162.704 233.338 163.104 233.488 163.474 233.499C163.839 233.51 164.233 233.387 164.661 233.062L182.953 179.466ZM182.953 179.466C188.717 187.453 188.431 196.309 185.257 204.764M182.953 179.466L185.257 204.764M185.257 204.764C182.078 213.231 176.017 221.24 170.335 227.424M185.257 204.764L170.335 227.424M170.335 227.424C170.227 227.541 170.117 227.661 170.003 227.785M170.335 227.424L170.003 227.785M170.003 227.785C168.431 229.499 166.306 231.815 164.661 233.062L170.003 227.785ZM177.542 193.408C177.542 185.692 171.252 179.44 163.501 179.44C155.749 179.44 149.46 185.692 149.46 193.408C149.46 201.124 155.749 207.375 163.501 207.375C171.252 207.375 177.542 201.124 177.542 193.408Z" fill="white" stroke="black"/>
<circle cx="163.218" cy="192.916" r="12.0503" fill="white"/>
<path d="M163.22 201.69C167.85 201.69 171.604 197.856 171.604 193.128C171.604 188.399 167.85 184.565 163.22 184.565C158.589 184.565 154.836 188.399 154.836 193.128C154.836 197.856 158.589 201.69 163.22 201.69Z" fill="#0263A9"/>
<path d="M165.098 192.343C165.808 191.638 166.518 190.933 167.229 190.228C167.406 190.052 167.585 189.876 167.763 189.701C167.898 189.569 168.056 189.506 168.245 189.508C168.714 189.513 169.184 189.503 169.653 189.515C169.74 189.517 169.875 189.57 169.9 189.634C169.926 189.702 169.871 189.838 169.81 189.901C168.591 191.137 167.366 192.367 166.143 193.599C166.09 193.653 166.042 193.711 165.991 193.767C165.955 193.799 165.917 193.83 165.882 193.864C165.05 194.7 164.262 195.635 163.36 196.391C162.243 197.327 160.657 197.716 159.286 197.176C157.85 196.61 156.936 195.204 157.185 193.626C157.404 192.241 158.486 191.128 159.868 190.991C161.008 190.878 161.966 191.271 162.716 192.16C162.963 192.454 162.95 192.594 162.668 192.875C161.774 193.766 160.878 194.656 159.983 195.547C159.957 195.573 159.933 195.601 159.897 195.641C160.323 195.83 160.747 195.872 161.184 195.756C161.611 195.643 161.985 195.425 162.303 195.121C162.7 194.742 163.081 194.345 163.468 193.956C164.012 193.419 164.555 192.881 165.098 192.343L165.098 192.343ZM158.717 194.415C158.736 194.43 158.755 194.445 158.774 194.461C159.367 193.857 159.959 193.253 160.552 192.649C160.537 192.631 160.522 192.613 160.508 192.595C159.965 192.516 159.47 192.622 159.078 193.04C158.712 193.429 158.621 193.901 158.717 194.415Z" fill="#F5BF05"/>
<path d="M161.953 95.4659L161.953 95.4658C158.091 90.1133 151.424 86.072 144.757 85.571C143.507 85.478 141.489 85.4747 140.244 85.5709L140.244 85.5709C133.57 86.0837 126.915 90.107 123.047 95.4659C117.451 103.221 117.562 111.788 120.461 119.994C123.365 128.215 129.054 136.025 134.524 142.162L134.524 142.162L134.598 142.245C136.447 144.319 139.222 147.433 141.273 149.007C141.704 149.338 142.104 149.488 142.474 149.499C142.839 149.51 143.233 149.387 143.661 149.062L161.953 95.4659ZM161.953 95.4659C167.717 103.453 167.431 112.309 164.257 120.764M161.953 95.4659L164.257 120.764M164.257 120.764C161.078 129.231 155.017 137.24 149.335 143.424M164.257 120.764L149.335 143.424M149.335 143.424C149.227 143.541 149.117 143.661 149.003 143.785M149.335 143.424L149.003 143.785M149.003 143.785C147.431 145.499 145.306 147.815 143.661 149.062L149.003 143.785ZM156.542 109.408C156.542 101.692 150.252 95.4404 142.501 95.4404C134.749 95.4404 128.46 101.692 128.46 109.408C128.46 117.124 134.749 123.375 142.501 123.375C150.252 123.375 156.542 117.124 156.542 109.408Z" fill="white" stroke="black"/>
<circle cx="142.218" cy="109.312" r="12.0503" fill="white"/>
<path d="M142.22 118.086C146.85 118.086 150.604 114.253 150.604 109.524C150.604 104.795 146.85 100.962 142.22 100.962C137.589 100.962 133.836 104.795 133.836 109.524C133.836 114.253 137.589 118.086 142.22 118.086Z" fill="#123057"/>
<path d="M138.338 116.172V113.705L140.87 111.096H143.088L143.634 110.562V108.534L143.134 107.976H140.881L140.87 105.426L143.367 102.876H145.875V105.414L143.523 107.858L143.889 108.32H146.102V110.829H143.854L143.378 111.327L143.332 113.634L140.846 116.172H138.338Z" fill="#E5A531"/>
<path d="M75.9528 113.466L75.9527 113.466C72.0912 108.113 65.424 104.072 58.7567 103.571C57.507 103.478 55.4895 103.475 54.2441 103.571L54.2439 103.571C47.5704 104.084 40.915 108.107 37.047 113.466C31.4512 121.221 31.5624 129.788 34.461 137.994C37.3648 146.215 43.0537 154.025 48.5244 160.162L48.5244 160.162L48.5983 160.245C50.4468 162.319 53.222 165.433 55.2728 167.007C55.7045 167.338 56.1043 167.488 56.4738 167.499C56.839 167.51 57.2329 167.387 57.6611 167.062L75.9528 113.466ZM75.9528 113.466C81.717 121.453 81.4313 130.309 78.2571 138.764M75.9528 113.466L78.2571 138.764M78.2571 138.764C75.078 147.231 69.0168 155.24 63.3346 161.424M78.2571 138.764L63.3346 161.424M63.3346 161.424C63.2274 161.541 63.1168 161.661 63.0034 161.785M63.3346 161.424L63.0034 161.785M63.0034 161.785C61.431 163.499 59.3058 165.815 57.6613 167.062L63.0034 161.785ZM70.5415 127.408C70.5415 119.692 64.2521 113.44 56.5007 113.44C48.7493 113.44 42.4599 119.692 42.4599 127.408C42.4599 135.124 48.7493 141.375 56.5007 141.375C64.2521 141.375 70.5415 135.124 70.5415 127.408Z" fill="white" stroke="black"/>
<circle cx="56.6402" cy="127.615" r="12.0503" fill="white"/>
<path d="M56.7675 127.615L50.4746 134.694L65.3411 127.615L50.4746 120.535L56.7675 127.615Z" fill="#0075B9"/>
<path d="M52.6068 127.615L50.7754 132.73L55.3121 127.615L50.7754 122.5L52.6068 127.615Z" fill="#00A657"/>
<path d="M112.953 25.4659L112.953 25.4658C109.091 20.1133 102.424 16.072 95.7567 15.571C94.507 15.478 92.4895 15.4747 91.2441 15.5709L91.2439 15.5709C84.5704 16.0837 77.915 20.107 74.047 25.4659C68.4512 33.2207 68.5624 41.7882 71.461 49.9945C74.3648 58.2152 80.0537 66.0252 85.5244 72.1616L85.5244 72.1617L85.5983 72.2445C87.4468 74.3186 90.222 77.4327 92.2728 79.0066C92.7045 79.3377 93.1043 79.4882 93.4738 79.4993C93.839 79.5103 94.2329 79.3869 94.6611 79.0625L112.953 25.4659ZM112.953 25.4659C118.717 33.4533 118.431 42.3092 115.257 50.7636M112.953 25.4659L115.257 50.7636M115.257 50.7636C112.078 59.2313 106.017 67.2404 100.335 73.4243M115.257 50.7636L100.335 73.4243M100.335 73.4243C100.227 73.541 100.117 73.6615 100.003 73.785M100.335 73.4243L100.003 73.785M100.003 73.785C98.431 75.4987 96.3058 77.8148 94.6613 79.0623L100.003 73.785ZM107.542 39.4077C107.542 31.6918 101.252 25.4404 93.5007 25.4404C85.7493 25.4404 79.4599 31.6918 79.4599 39.4077C79.4599 47.1237 85.7493 53.375 93.5007 53.375C101.252 53.375 107.542 47.1237 107.542 39.4077Z" fill="white" stroke="black"/>
<circle cx="93.3121" cy="39.2925" r="12.0503" fill="white"/>
<path fill-rule="evenodd" clip-rule="evenodd" d="M100.363 46.3856C98.5025 47.7492 95.8176 48.4785 93.5027 48.4785C91.1878 48.4785 87.3296 47.2735 85.1203 45.2757C84.9512 45.1171 85.0992 44.9057 85.3106 45.022C87.6995 46.4067 90.6487 47.2418 93.693 47.2418C95.8916 47.2418 98.0692 46.7873 100.088 45.9311C100.405 45.7936 100.669 46.1319 100.352 46.3645M101.135 45.4977C100.902 45.1911 99.5702 45.3497 98.9676 45.4237C98.7879 45.4448 98.7562 45.2863 98.9254 45.17C99.993 44.4195 101.727 44.6415 101.927 44.8846C102.128 45.1383 101.875 46.8824 100.881 47.7175C100.733 47.8443 100.585 47.7809 100.659 47.6118C100.881 47.0515 101.388 45.8042 101.145 45.4977" fill="#16A7E0"/>
<path fill-rule="evenodd" clip-rule="evenodd" d="M94.8758 38.31C94.8758 39.2613 94.8969 40.0541 94.4212 40.8892C94.0301 41.5762 93.4065 41.9991 92.7405 41.9991C92.0746 41.9991 91.2607 41.2908 91.2607 40.2338C91.2607 38.162 93.1211 37.7814 94.8863 37.7814V38.31M97.3387 44.24C97.1801 44.388 96.9476 44.3986 96.7679 44.3034C95.9645 43.6269 95.8165 43.3204 95.3726 42.6756C94.0407 44.0392 93.0894 44.4514 91.3558 44.4514C89.6222 44.4514 87.709 43.183 87.709 40.6566C87.709 38.1303 88.7766 37.3375 90.3093 36.6715C91.6306 36.0902 93.4805 35.9845 94.8863 35.8259V35.5194C94.8863 34.938 94.9286 34.2509 94.5904 33.7541C94.2944 33.3101 93.7236 33.1199 93.2268 33.1199C92.2966 33.1199 91.4721 33.5955 91.2712 34.5786C91.229 34.8006 91.0704 35.012 90.8484 35.0226L88.4806 34.7583C88.2798 34.716 88.0578 34.5575 88.1212 34.2509C88.6709 31.3863 91.2607 30.5195 93.5756 30.5195C95.8905 30.5195 96.3133 30.8366 97.2435 31.7351C98.4274 32.845 98.3112 34.3143 98.3112 35.921V39.7158C98.3112 40.8575 98.7868 41.3543 99.2308 41.9779C99.3894 42.1999 99.4211 42.4642 99.2308 42.6227C98.6071 43.1512 97.9835 43.6903 97.3598 44.24" fill="#313F49"/>
<path d="M100.953 193.466L100.953 193.466C97.0912 188.113 90.424 184.072 83.7567 183.571C82.507 183.478 80.4895 183.475 79.2441 183.571L79.2439 183.571C72.5704 184.084 65.915 188.107 62.047 193.466C56.4512 201.221 56.5624 209.788 59.461 217.994C62.3648 226.215 68.0537 234.025 73.5244 240.162L73.5244 240.162L73.5983 240.245C75.4468 242.319 78.222 245.433 80.2728 247.007C80.7045 247.338 81.1043 247.488 81.4738 247.499C81.839 247.51 82.2329 247.387 82.6611 247.062L100.953 193.466ZM100.953 193.466C106.717 201.453 106.431 210.309 103.257 218.764M100.953 193.466L103.257 218.764M103.257 218.764C100.078 227.231 94.0168 235.24 88.3346 241.424M103.257 218.764L88.3346 241.424M88.3346 241.424C88.2274 241.541 88.1168 241.661 88.0034 241.785M88.3346 241.424L88.0034 241.785M88.0034 241.785C86.431 243.499 84.3058 245.815 82.6613 247.062L88.0034 241.785ZM95.5415 207.408C95.5415 199.692 89.2521 193.44 81.5007 193.44C73.7493 193.44 67.4599 199.692 67.4599 207.408C67.4599 215.124 73.7493 221.375 81.5007 221.375C89.2521 221.375 95.5415 215.124 95.5415 207.408Z" fill="white" stroke="black"/>
<circle cx="81.3121" cy="207.593" r="12.0503" fill="white"/>
<path d="M81.3135 216.368C85.9437 216.368 89.6973 212.534 89.6973 207.805C89.6973 203.077 85.9437 199.243 81.3135 199.243C76.6832 199.243 72.9297 203.077 72.9297 207.805C72.9297 212.534 76.6832 216.368 81.3135 216.368Z" fill="#F68E21"/>
<path d="M84.2239 204.994L84.6951 206.566L85.8223 204.994H87.8987L85.4069 207.654L86.8308 210.556H84.6951L84.1019 208.863H83.9833L82.7375 210.616L80.6016 210.556L83.0695 207.193L82.0848 204.994H84.2241H84.2239Z" fill="#212222"/>
<path d="M77.5168 207.473L74.7285 210.496H75.9151L78.6442 207.533L77.339 205.055H76.2118L77.517 207.473L77.5168 207.473Z" fill="#212222"/>
<path d="M79.3555 207.473L76.5078 210.556H77.7536L80.5419 207.654L79.2367 204.994H78.1688L79.3553 207.473H79.3555Z" fill="#212222"/>
<path d="M81.1954 207.473L78.3477 210.556H79.5935L82.3818 207.654L81.0765 204.994H80.0086L81.1952 207.473H81.1954Z" fill="#212222"/>
<path d="M289.953 114.466L289.953 114.466C286.091 109.113 279.424 105.072 272.757 104.571C271.507 104.478 269.489 104.475 268.244 104.571L268.244 104.571C261.57 105.084 254.915 109.107 251.047 114.466C245.451 122.221 245.562 130.788 248.461 138.994C251.365 147.215 257.054 155.025 262.524 161.162L262.524 161.162L262.598 161.245C264.447 163.319 267.222 166.433 269.273 168.007C269.704 168.338 270.104 168.488 270.474 168.499C270.839 168.51 271.233 168.387 271.661 168.062L289.953 114.466ZM289.953 114.466C295.717 122.453 295.431 131.309 292.257 139.764M289.953 114.466L292.257 139.764M292.257 139.764C289.078 148.231 283.017 156.24 277.335 162.424M292.257 139.764L277.335 162.424M277.335 162.424C277.227 162.541 277.117 162.661 277.003 162.785M277.335 162.424L277.003 162.785M277.003 162.785C275.431 164.499 273.306 166.815 271.661 168.062L277.003 162.785ZM284.542 128.408C284.542 120.692 278.252 114.44 270.501 114.44C262.749 114.44 256.46 120.692 256.46 128.408C256.46 136.124 262.749 142.375 270.501 142.375C278.252 142.375 284.542 136.124 284.542 128.408Z" fill="white" stroke="black"/>
<circle cx="270.736" cy="127.896" r="12.0503" fill="white"/>
<path d="M264.805 121.751C264.987 121.726 265.171 121.805 265.361 121.87C266.245 122.174 267.131 122.472 268.016 122.775C269.322 123.223 270.628 123.673 271.934 124.122C272.884 124.449 273.834 124.777 274.784 125.103C275.782 125.446 276.782 125.784 277.779 126.133C277.981 126.203 278.185 126.27 278.374 126.384C278.798 126.64 278.793 127.185 278.561 127.506C278.345 127.803 278.034 128.003 277.774 128.255C277.578 128.445 277.361 128.611 277.156 128.792C276.801 129.105 276.453 129.425 276.093 129.733C275.816 129.971 275.234 129.956 274.97 129.681C274.581 129.274 274.22 128.843 273.854 128.416C273.559 128.073 273.257 127.737 272.961 127.395C272.607 126.986 272.261 126.57 271.901 126.167C271.711 125.955 271.542 125.717 271.232 125.644C271.048 125.601 270.912 125.664 270.783 125.767C270.602 125.91 270.518 126.114 270.447 126.327C270.078 127.438 269.71 128.549 269.337 129.658C268.899 130.962 268.457 132.265 268.016 133.568C267.974 133.692 267.934 133.817 267.887 133.94C267.765 134.26 267.395 134.45 267.112 134.468C266.58 134.502 266.234 134.091 266.153 133.65C266 132.812 265.834 131.977 265.671 131.141C265.464 130.088 265.255 129.035 265.046 127.982C264.92 127.343 264.788 126.704 264.663 126.064C264.497 125.219 264.335 124.374 264.175 123.528C264.11 123.189 264.016 122.856 264.024 122.504C264.036 121.995 264.271 121.751 264.805 121.751L264.805 121.751Z" fill="#FFB503"/>
<path d="M128.953 267.466L128.953 267.466C125.091 262.113 118.424 258.072 111.757 257.571C110.507 257.478 108.489 257.475 107.244 257.571L107.244 257.571C100.57 258.084 93.915 262.107 90.047 267.466C84.4512 275.221 84.5624 283.788 87.461 291.994C90.3648 300.215 96.0537 308.025 101.524 314.162L101.524 314.162L101.598 314.245C103.447 316.319 106.222 319.433 108.273 321.007C108.704 321.338 109.104 321.488 109.474 321.499C109.839 321.51 110.233 321.387 110.661 321.062L128.953 267.466ZM128.953 267.466C134.717 275.453 134.431 284.309 131.257 292.764M128.953 267.466L131.257 292.764M131.257 292.764C128.078 301.231 122.017 309.24 116.335 315.424M131.257 292.764L116.335 315.424M116.335 315.424C116.227 315.541 116.117 315.661 116.003 315.785M116.335 315.424L116.003 315.785M116.003 315.785C114.431 317.499 112.306 319.815 110.661 321.062L116.003 315.785ZM123.542 281.408C123.542 273.692 117.252 267.44 109.501 267.44C101.749 267.44 95.4599 273.692 95.4599 281.408C95.4599 289.124 101.749 295.375 109.501 295.375C117.252 295.375 123.542 289.124 123.542 281.408Z" fill="white" stroke="black"/>
<circle cx="109.158" cy="281.198" r="12.0503" fill="white"/>
<path d="M109.995 274.926H105.166V287.471H112.556L113.995 286.023V276.374L112.547 274.926H109.995H109.995ZM111.112 284.579H108.071V277.791H111.112V284.579Z" fill="black"/>
<path d="M108.068 284.578H105.186V287.461H108.068V284.578Z" fill="#FFB503"/>
<defs>
<linearGradient id="paint0_linear_6353_646" x1="218.205" y1="178.273" x2="433.855" y2="130.817" gradientUnits="userSpaceOnUse">
<stop stop-color="#FFB503"/>
<stop offset="1" stop-color="#B658E8"/>
</linearGradient>
</defs>
</svg>
