<svg width="92" height="92" viewBox="0 0 92 92" fill="none" xmlns="http://www.w3.org/2000/svg">
<g clip-path="url(#clip0_6421_540)">
<path d="M61.4215 22H4V54.3443H61.4215V22Z" fill="url(#paint0_linear_6421_540)"/>
<path d="M82.2592 31.8525C84.0398 36.2006 85.9787 40.4985 88.0004 44.741V62.3923H78.1555C79.0119 67.5296 73.6123 71.6464 68.823 69.3518C66.1308 68.0624 64.855 65.3128 65.0308 62.3923H49.5377C49.4875 64.2497 49.3042 65.8884 48.1263 67.3964C45.4918 70.7743 40.5342 70.8598 37.7892 67.5673C36.4757 65.9914 36.2698 64.3803 36.2221 62.3898H29.9184C30.1293 65.2952 28.7933 68.075 26.1261 69.3518C21.3368 71.6464 15.9473 67.522 16.7936 62.3923H10.8867V56.6468H63.8805V31.8525H82.2567H82.2592ZM83.7359 44.8214C83.2638 43.7633 80.0567 35.6276 79.5519 35.6276H68.15V44.8214H83.7359ZM25.8046 63.3197C25.8046 61.9349 24.682 60.8114 23.2982 60.8114C21.9144 60.8114 20.7918 61.9349 20.7918 63.3197C20.7918 64.7046 21.9144 65.828 23.2982 65.828C24.682 65.828 25.8046 64.7046 25.8046 63.3197ZM45.3863 63.3373C45.3863 61.955 44.2662 60.834 42.8849 60.834C41.5036 60.834 40.3835 61.955 40.3835 63.3373C40.3835 64.7197 41.5036 65.8406 42.8849 65.8406C44.2662 65.8406 45.3863 64.7197 45.3863 63.3373ZM74.1699 63.3222C74.1699 61.9374 73.0498 60.8164 71.666 60.8164C70.2822 60.8164 69.1621 61.9374 69.1621 63.3222C69.1621 64.7071 70.2822 65.828 71.666 65.828C73.0498 65.828 74.1699 64.7071 74.1699 63.3222Z" fill="url(#paint1_linear_6421_540)"/>
</g>
<defs>
<linearGradient id="paint0_linear_6421_540" x1="32.7107" y1="22" x2="32.7107" y2="54.3443" gradientUnits="userSpaceOnUse">
<stop stop-color="#B658E8"/>
<stop offset="1" stop-color="#008771"/>
</linearGradient>
<linearGradient id="paint1_linear_6421_540" x1="49.4435" y1="31.8525" x2="49.4435" y2="70.0027" gradientUnits="userSpaceOnUse">
<stop stop-color="#B658E8"/>
<stop offset="1" stop-color="#008771"/>
</linearGradient>
<clipPath id="clip0_6421_540">
<rect width="84" height="48" fill="white" transform="translate(4 22)"/>
</clipPath>
</defs>
</svg>
