<svg width="62" height="61" viewBox="0 0 62 61" fill="none" xmlns="http://www.w3.org/2000/svg">
<path d="M2.32988 60.8143C2.23047 60.7576 2.13264 60.6977 2.03165 60.6457C1.1764 60.2079 0.750348 59.3558 0.961794 58.499C1.17955 57.6139 1.90383 57.0406 2.86323 57.0374C5.28382 57.028 7.7044 57.0343 10.1266 57.0343C11.9507 57.0343 13.7764 57.0343 15.7267 57.0343C15.5358 56.8295 15.4001 56.7224 15.3149 56.5854C14.7484 55.6735 14.1204 54.7899 13.6612 53.826C13.4403 53.3614 13.2383 53.2432 12.7712 53.2432C11.6319 53.2432 10.4769 53.2936 9.3581 53.1283C6.72764 52.7392 4.72837 50.413 4.70628 47.7402C4.66999 43.2924 4.68893 38.843 4.69682 34.3953C4.69839 33.288 5.5284 32.4643 6.58563 32.4659C7.63655 32.4675 8.46497 33.2975 8.46813 34.4031C8.4776 38.6745 8.47129 42.9459 8.47286 47.2173C8.47286 48.7734 9.17979 49.4727 10.753 49.4743C11.501 49.4743 12.2489 49.4585 12.9969 49.4806C13.3235 49.49 13.4671 49.3955 13.5776 49.0679C14.649 45.8754 17.4625 43.8153 20.7288 43.8043C24.022 43.7933 26.8497 45.8471 27.9401 49.0664C28.0364 49.3499 28.1358 49.4806 28.4593 49.4806C31.844 49.4696 35.2287 49.4743 38.7112 49.4743V48.8411C38.7112 40.9677 38.7112 33.0943 38.7112 25.2209C38.7112 23.7404 37.9838 23.0175 36.5005 23.0143C35.6737 23.0143 34.8468 23.0253 34.02 23.0112C32.9201 22.9907 32.0917 22.1622 32.0996 21.1101C32.1059 20.077 32.917 19.2422 33.9853 19.2422C35.2618 19.2422 36.5557 19.1824 37.8118 19.3588C40.447 19.7289 42.4226 22.0583 42.4794 24.7342C42.5157 26.4462 42.4889 28.1583 42.4904 29.8719C42.4904 30.0845 42.4904 30.2955 42.4904 30.5743C42.7682 30.5743 42.997 30.5712 43.2258 30.5743C45.4081 30.609 47.603 30.516 49.7727 30.7082C55.3334 31.2012 60.2062 35.8269 61.1561 41.3567C61.2287 41.7804 61.3107 42.2009 61.3896 42.623V48.4112C61.3517 48.4978 61.2997 48.5797 61.2792 48.6695C60.7427 51.0997 59.0085 52.8101 56.5611 53.155C55.6001 53.2905 54.6044 53.1771 53.6024 53.1771C53.1984 54.7017 52.4363 55.9129 51.2828 57.0343H51.9929C54.3141 57.0343 56.6352 57.0736 58.9564 57.0169C60.1178 56.9886 60.9289 57.3792 61.3912 58.4518V59.3968C61.1103 60.0614 60.6369 60.5323 59.9742 60.8143H2.32988ZM42.5094 44.7965C44.758 43.6279 46.9892 43.4562 49.2441 44.4201C51.5021 45.3856 52.9065 47.1323 53.6024 49.4743C54.3078 49.4743 54.9752 49.4821 55.6443 49.4727C56.8151 49.4538 57.5978 48.671 57.6073 47.4945C57.6183 46.1762 57.6262 44.8564 57.6025 43.5381C57.5236 39.2651 54.3945 35.4489 50.2035 34.5969C47.6945 34.0866 45.1398 34.4331 42.6072 34.3748C42.5772 34.3748 42.5472 34.4205 42.511 34.4504V44.7981L42.5094 44.7965ZM41.2439 57.0122C40.1756 55.979 39.4576 54.8734 39.0379 53.5724C38.9905 53.4275 38.7033 53.27 38.5266 53.2684C35.1829 53.2511 31.8408 53.2606 28.4971 53.248C28.1579 53.248 28.049 53.374 27.9275 53.6779C27.6655 54.33 27.3642 54.9757 26.9981 55.5742C26.6904 56.0782 26.2659 56.5114 25.8635 57.0138H41.2439V57.0122ZM20.7699 47.5859C18.6791 47.5827 16.9812 49.2774 16.978 51.3674C16.9749 53.4275 18.6586 55.1285 20.7131 55.1443C22.807 55.1616 24.5207 53.4779 24.5333 51.3926C24.5459 49.3026 22.8528 47.589 20.7683 47.5859H20.7699ZM46.276 47.5859C44.1883 47.5796 42.4873 49.2806 42.4904 51.3706C42.4936 53.4338 44.1694 55.1254 46.2302 55.1443C48.3178 55.1632 50.041 53.4669 50.0473 51.3879C50.0536 49.2963 48.362 47.5906 46.276 47.5859Z" fill="#3E1A51"/>
<path d="M16.505 0.333984C18.7726 1.31678 21.0369 2.30431 23.3076 3.28395C25.4363 4.20218 27.5634 5.12513 29.7031 6.015C30.7209 6.43867 31.1832 7.1427 31.1579 8.25307C31.0428 13.3025 30.1197 18.1472 27.5081 22.5477C25.0134 26.7514 21.4109 29.4699 16.5871 30.4905C15.503 30.7204 14.5247 30.2873 13.5527 29.9597C8.58371 28.2902 5.35048 24.7811 3.29125 20.0876C1.59495 16.2289 0.93536 12.1528 0.918002 7.96012C0.913269 7.02457 1.40717 6.4371 2.25611 6.07485C6.6302 4.21005 10.998 2.32951 15.3673 0.455259C15.4352 0.425334 15.4952 0.374934 15.5599 0.333984C15.8754 0.333984 16.1895 0.333984 16.505 0.333984ZM27.292 10.0942C27.1862 9.71939 27.6344 9.23272 26.9637 8.95079C23.4354 7.46242 19.9213 5.94097 16.3962 4.44788C16.2037 4.36598 15.9212 4.34708 15.735 4.42583C12.1736 5.9331 8.61685 7.45455 5.06803 8.99489C4.91181 9.06262 4.73823 9.33509 4.7477 9.50362C4.9339 12.7229 5.49092 15.865 6.82271 18.8292C8.57424 22.7257 11.3341 25.5087 15.5677 26.6175C15.8723 26.6979 16.2352 26.6916 16.5398 26.6112C19.9261 25.7214 22.4618 23.6959 24.2512 20.7192C26.2126 17.4558 26.9764 13.8459 27.292 10.0958V10.0942Z" fill="#3E1A51"/>
<path d="M15.1567 16.684C16.9776 15.1248 18.6992 13.6301 20.4444 12.1622C21.5711 11.2156 23.1822 11.7228 23.5309 13.1166C23.7076 13.8238 23.523 14.468 22.9786 14.9405C20.7505 16.8746 18.5146 18.7992 16.2597 20.7018C15.5117 21.3334 14.4876 21.2751 13.7854 20.59C12.4883 19.3269 11.2055 18.0511 9.94784 16.7486C9.22514 16.002 9.27563 14.857 9.99202 14.1388C10.7084 13.4222 11.8509 13.3749 12.602 14.0931C13.4667 14.92 14.2856 15.7973 15.1567 16.684Z" fill="#3E1A51"/>
</svg>
