<svg width="22" height="19" viewBox="0 0 22 19" fill="none" xmlns="http://www.w3.org/2000/svg">
<path d="M10.2715 9L2.27148 4V14H11.2715V16H2.27148C1.72148 16 1.25065 15.8042 0.858984 15.4125C0.467318 15.0208 0.271484 14.55 0.271484 14V2C0.271484 1.45 0.467318 0.979167 0.858984 0.5875C1.25065 0.195833 1.72148 0 2.27148 0H18.2715C18.8215 0 19.2923 0.195833 19.684 0.5875C20.0757 0.979167 20.2715 1.45 20.2715 2V9H18.2715V4L10.2715 9ZM10.2715 7L18.2715 2H2.27148L10.2715 7ZM17.2715 19L15.8715 17.6L17.4465 16H13.2715V14H17.4465L15.8465 12.4L17.2715 11L21.2715 15L17.2715 19ZM2.27148 4V15V9V9.075V2V4Z" fill="#5B396D"/>
</svg>
