<svg width="25" height="17" viewBox="0 0 25 17" fill="none" xmlns="http://www.w3.org/2000/svg">
<path d="M1.72015 16.6955C0.980483 16.6955 0.380859 16.0958 0.380859 15.3562C0.380859 14.6165 0.980482 14.0169 1.72015 14.0169H23.1489C23.8885 14.0169 24.4882 14.6165 24.4882 15.3562C24.4882 16.0958 23.8885 16.6955 23.1489 16.6955H1.72015ZM1.72015 9.99899C0.980483 9.99899 0.380859 9.39937 0.380859 8.6597C0.380859 7.92003 0.980482 7.3204 1.72015 7.3204H23.1489C23.8885 7.3204 24.4882 7.92003 24.4882 8.6597C24.4882 9.39937 23.8885 9.99899 23.1489 9.99899H1.72015ZM1.72015 3.30252C0.980483 3.30252 0.380859 2.7029 0.380859 1.96323C0.380859 1.22355 0.980482 0.623932 1.72015 0.623932H23.1489C23.8885 0.623932 24.4882 1.22355 24.4882 1.96323C24.4882 2.7029 23.8885 3.30252 23.1489 3.30252H1.72015Z" fill="#3E1A51"/>
</svg>
