<svg width="106" height="74" viewBox="0 0 106 74" fill="none" xmlns="http://www.w3.org/2000/svg">
<g clip-path="url(#clip0_1653_626)">
<path d="M70.955 50.2224C69.6871 46.5749 66.7267 44.5761 63.0182 43.0948C55.3905 40.0485 47.8638 36.8069 40.2303 33.7682C37.732 32.7739 35.0373 32.1525 32.2617 31.3078V0.433717H52.9413C52.9413 0.765996 52.9413 1.10335 52.9413 1.43816C52.9413 4.98163 52.9384 8.52764 52.9413 12.0711C52.9442 14.2119 54.55 15.0667 56.7624 14.1104C58.9227 13.1745 61.1033 12.269 63.2262 11.267C64.11 10.8511 64.8002 10.8181 65.7042 11.2493C67.8531 12.2766 70.0452 13.2379 72.2749 14.113C72.9652 14.3844 73.8692 14.4503 74.6201 14.3336C75.3855 14.217 75.8736 13.626 75.8967 12.8625C75.9487 11.0616 76.0267 9.26068 76.0469 7.45724C76.0729 5.12368 76.0527 2.79265 76.0527 0.410889H96.7062V38.7219C88.0763 42.5749 79.5907 46.3644 70.955 50.2198V50.2224ZM83.0248 32.7967C81.5114 32.7967 79.998 32.779 78.4845 32.8018C76.9653 32.8272 76.0325 33.6135 76.0411 34.8158C76.0469 35.9927 77.026 36.817 78.5105 36.8247C81.4652 36.8424 84.4198 36.8424 87.3744 36.8247C88.8359 36.8145 89.8525 35.9496 89.8467 34.798C89.841 33.6515 88.833 32.8246 87.3513 32.8018C85.9101 32.779 84.4689 32.7967 83.0277 32.7967H83.0248Z" fill="#3E1A51"/>
<path d="M18.3906 63.1739V36.4089C25.3743 35.2777 32.2194 34.7323 38.9084 37.6163C46.8539 41.0406 54.9178 44.2492 62.9123 47.5847C65.7572 48.7718 66.6901 51.2423 65.3817 53.8143C64.0214 56.4852 60.905 57.8194 58.1468 56.7312C52.9624 54.6868 47.833 52.5283 42.6804 50.4179C41.7678 50.0451 40.8637 49.6468 39.9395 49.2993C38.5907 48.7921 37.291 49.203 36.7596 50.2708C36.2368 51.3184 36.7163 52.4167 38.0015 52.9519C43.9888 55.4351 49.976 57.9132 55.9777 60.3711C59.4262 61.7839 62.7044 61.2842 65.6214 59.3159C67.0858 58.3292 68.2382 56.99 69.5436 55.8206C69.9133 55.4909 70.2772 55.113 70.7307 54.9075C79.0574 51.1586 87.387 47.4173 95.7368 43.7064C99.9737 41.8218 104.708 43.6836 105.805 47.6126C106.57 50.3545 105.092 53.0863 102.027 54.4915C95.1678 57.6368 88.3227 60.8074 81.4199 63.874C75.7388 66.3978 70.0317 68.8835 64.2438 71.207C60.2523 72.81 56.0268 73.7434 51.5501 73.3046C48.3298 72.9876 45.3 72.077 42.3656 70.9406C37.3315 68.985 32.3204 66.9812 27.3441 64.919C24.5252 63.7522 21.6514 62.9659 18.3906 63.1765V63.1739Z" fill="#3E1A51"/>
<path d="M13.6785 67.1968H0V32.8807H13.6785V67.1968Z" fill="#3E1A51"/>
<path d="M71.3362 0.43396V9.19751C69.7967 8.53042 68.3007 8.00283 66.949 7.26725C65.2594 6.3465 63.7431 6.32875 62.0448 7.2571C60.6902 7.99775 59.1855 8.52534 57.6172 9.20512V0.43396H71.3362Z" fill="#3E1A51"/>
</g>
<defs>
<clipPath id="clip0_1653_626">
<rect width="106" height="73" fill="white" transform="translate(0 0.413696)"/>
</clipPath>
</defs>
</svg>
